<svg version="1.1" id="Layer_1" xmlns="http://www.w3.org/2000/svg" xmlns:xlink="http://www.w3.org/1999/xlink" x="0px" y="0px"
	 width="100%" viewBox="0 0 512 512" enable-background="new 0 0 512 512" xml:space="preserve">
<path fill="#000000" opacity="1.000000" stroke="none" 
	d="
M270.000000,513.000000 
	C180.021835,513.000000 90.543671,513.000000 1.032752,513.000000 
	C1.032752,342.396820 1.032752,171.793610 1.032752,1.095206 
	C171.561523,1.095206 342.123108,1.095206 512.842346,1.095206 
	C512.842346,171.666550 512.842346,342.333252 512.842346,513.000000 
	C432.126923,513.000000 351.313446,513.000000 270.000000,513.000000 
M461.973938,129.084473 
	C450.464752,110.442940 436.334503,93.971573 420.420135,78.987419 
	C418.643463,77.314590 416.588654,75.939209 414.789276,74.288109 
	C401.660645,62.241505 386.841644,52.598076 371.273804,44.116379 
	C354.611176,35.038193 336.956116,28.229561 318.634155,23.409910 
	C302.043945,19.045811 285.142426,16.041595 267.902130,16.071648 
	C256.317230,16.091841 244.700439,16.248806 233.158905,17.137053 
	C223.270935,17.898039 213.299011,19.057362 203.663467,21.316759 
	C179.183197,27.057037 155.910431,36.069004 134.209610,48.970810 
	C118.310249,58.423473 103.425087,69.219193 90.347649,82.300385 
	C82.309311,90.341011 74.471008,98.655525 67.292747,107.458519 
	C61.624420,114.409836 57.099720,122.293701 51.419979,130.105652 
	C49.283470,133.722824 47.024487,137.273941 45.031387,140.968475 
	C35.777222,158.122696 28.109623,176.006348 23.702740,194.979782 
	C20.328503,209.507202 17.446642,224.314056 16.305141,239.147430 
	C15.216981,253.287613 15.874918,267.698639 17.230068,281.850342 
	C18.478405,294.886597 21.019695,307.897522 24.155344,320.633026 
	C29.803379,343.572693 39.474747,364.983093 52.055008,384.932617 
	C64.787292,405.123199 79.997467,423.255737 98.220078,438.902496 
	C112.736542,451.366943 128.296799,462.078552 145.153351,471.070099 
	C161.068237,479.559296 177.755280,486.209595 195.190491,490.403595 
	C209.692673,493.892090 224.559402,496.548126 239.410126,497.704224 
	C253.056503,498.766602 266.903015,497.490540 280.650452,496.960968 
	C296.338470,496.356628 311.464172,492.615967 326.459076,488.215302 
	C344.248138,482.994629 361.063934,475.629883 377.181976,466.456970 
	C393.257019,457.308472 408.063110,446.481567 421.519623,433.883331 
	C439.780457,416.787292 455.069489,397.375183 467.372192,375.455627 
	C477.829590,356.823822 485.956818,337.356750 490.847168,316.666901 
	C493.717926,304.521515 496.060059,292.062256 496.760498,279.638214 
	C497.744385,262.186829 497.968140,244.561417 496.635529,227.154465 
	C495.668060,214.517090 492.326599,201.921844 488.845734,189.647522 
	C482.830170,168.435043 474.426483,148.145676 461.973938,129.084473 
z"/>
<path fill="#FED110" opacity="1.000000" stroke="none" 
	d="
M461.935974,129.770340 
	C474.426483,148.145676 482.830170,168.435043 488.845734,189.647522 
	C492.326599,201.921844 495.668060,214.517090 496.635529,227.154465 
	C497.968140,244.561417 497.744385,262.186829 496.760498,279.638214 
	C496.060059,292.062256 493.717926,304.521515 490.847168,316.666901 
	C485.956818,337.356750 477.829590,356.823822 467.372192,375.455627 
	C455.069489,397.375183 439.780457,416.787292 421.519623,433.883331 
	C408.063110,446.481567 393.257019,457.308472 377.181976,466.456970 
	C361.063934,475.629883 344.248138,482.994629 326.459076,488.215302 
	C311.464172,492.615967 296.338470,496.356628 280.650452,496.960968 
	C266.903015,497.490540 253.056503,498.766602 239.410126,497.704224 
	C224.559402,496.548126 209.692673,493.892090 195.190491,490.403595 
	C177.755280,486.209595 161.068237,479.559296 145.153351,471.070099 
	C128.296799,462.078552 112.736542,451.366943 98.220078,438.902496 
	C79.997467,423.255737 64.787292,405.123199 52.055008,384.932617 
	C39.474747,364.983093 29.803379,343.572693 24.155344,320.633026 
	C21.019695,307.897522 18.478405,294.886597 17.230068,281.850342 
	C15.874918,267.698639 15.216981,253.287613 16.305141,239.147430 
	C17.446642,224.314056 20.328503,209.507202 23.702740,194.979782 
	C28.109623,176.006348 35.777222,158.122696 45.031387,140.968475 
	C47.024487,137.273941 49.283470,133.722824 52.021179,130.138809 
	C54.113758,132.164169 55.575706,134.179230 57.101730,136.144531 
	C63.010979,143.754745 68.940620,151.349136 74.937012,159.418579 
	C75.020233,181.031311 75.012146,202.174881 75.048798,223.318390 
	C75.059189,229.311478 76.782837,230.998230 82.758644,231.035919 
	C94.409592,231.109436 106.060715,231.154968 117.712189,231.667206 
	C117.712608,280.991974 117.712608,329.861633 117.712608,378.836792 
	C121.863411,378.836792 125.388641,378.836792 129.219208,378.836792 
	C129.219208,329.362488 129.219208,280.287628 129.670837,231.154236 
	C141.452423,231.077347 152.789734,231.271561 164.106735,230.879272 
	C166.681305,230.790039 169.185501,228.670471 172.137390,227.564117 
	C183.698975,230.775223 194.845230,233.907623 205.969879,237.413254 
	C203.285309,244.804169 200.622345,251.821854 197.530792,258.801086 
	C195.100174,258.724548 193.098160,258.686493 191.068359,258.232727 
	C190.756714,247.879822 188.027145,244.023804 180.382095,243.448334 
	C176.425659,243.150528 172.393661,243.183456 168.447418,243.580338 
	C162.436462,244.184891 158.851227,248.217728 158.896515,253.691162 
	C158.942825,259.288483 162.945343,263.496063 169.135361,263.708160 
	C176.424057,263.958008 183.729980,263.705963 191.453766,263.714172 
	C193.306259,263.727325 194.733444,263.697876 196.194550,264.071045 
	C194.508743,266.937714 193.222916,269.932800 190.984375,271.761932 
	C185.251724,276.446228 181.211884,282.066986 181.083115,289.493683 
	C180.814590,304.982880 181.061493,320.480957 181.059998,336.447449 
	C180.988785,347.909790 180.895401,358.900269 180.942352,369.890198 
	C180.969177,376.167908 183.819168,379.120972 190.051270,379.211823 
	C198.875656,379.340485 207.704575,379.331329 216.529236,379.210999 
	C222.686295,379.127045 225.566071,376.158997 225.726440,369.882355 
	C225.854004,364.889526 225.754807,359.890930 226.235138,354.815735 
	C281.688904,354.717529 336.663788,354.697327 391.638672,354.689178 
	C392.634064,354.689026 393.629456,354.833313 394.628174,355.386719 
	C394.645905,360.856201 394.520782,365.854553 394.713074,370.840698 
	C394.914154,376.054871 397.665161,379.029053 402.740448,379.135468 
	C412.222534,379.334320 421.714264,379.326416 431.196869,379.141144 
	C436.101685,379.045319 439.124451,376.186615 439.181671,371.365234 
	C439.319824,359.723022 439.102875,348.076599 439.122925,336.060272 
	C439.136353,319.562744 439.368561,303.426270 438.824432,287.315979 
	C438.601074,280.702728 434.158447,275.897064 429.121094,271.634125 
	C426.823547,269.689789 425.617615,266.455475 424.339050,263.802490 
	C426.165619,263.750275 427.569763,263.701843 429.433167,263.759949 
	C436.856628,263.843811 443.826935,263.996155 450.783264,263.751160 
	C458.366669,263.484100 463.032043,257.325073 461.021515,250.652832 
	C459.135254,244.392990 453.418701,242.368851 440.367310,243.339478 
	C433.748444,243.831741 429.987213,247.174225 429.288055,253.268616 
	C429.080627,255.076401 429.043671,256.903717 428.499634,258.723572 
	C426.068481,258.737762 424.066345,258.750458 421.885742,258.461853 
	C416.181061,242.918060 410.857635,227.597321 405.018890,212.475540 
	C402.964722,207.155334 399.647736,202.322678 397.246368,197.151550 
	C416.169647,184.170700 432.148560,168.557068 446.075867,150.820389 
	C451.500488,143.912018 456.657227,136.793274 461.935974,129.770340 
M326.791351,392.957672 
	C323.656189,392.640472 320.523041,392.074890 317.385498,392.049469 
	C304.392914,391.944092 291.398163,391.905273 278.405762,392.019409 
	C247.783859,392.288391 217.156479,392.378387 186.543594,393.078156 
	C162.636169,393.624634 138.737808,394.800232 114.854309,396.055695 
	C104.100037,396.621002 93.382103,397.975281 82.670021,399.171509 
	C80.226448,399.444366 77.875198,400.544006 75.481461,401.263123 
	C75.508316,401.825317 75.535179,402.387543 75.562035,402.949738 
	C78.021324,403.633209 80.442444,404.676270 82.946075,404.941986 
	C99.601509,406.709625 116.244240,408.797852 132.949844,409.839569 
	C152.512466,411.059448 172.130325,411.572968 191.732605,411.925781 
	C210.550385,412.264496 229.379852,412.126801 248.202515,411.981842 
	C277.991577,411.752441 307.785980,411.625702 337.565430,410.919586 
	C361.639038,410.348785 385.705811,409.200745 409.750610,407.860016 
	C417.999451,407.400024 426.183533,405.648682 434.370483,404.322540 
	C435.896790,404.075287 437.295776,403.042419 438.753540,402.372131 
	C438.695465,401.889832 438.637390,401.407532 438.579315,400.925232 
	C436.262207,400.298157 433.978302,399.325165 431.622650,399.098846 
	C413.131805,397.322174 394.653137,395.257629 376.118988,394.141083 
	C360.028320,393.171783 343.869995,393.325531 326.791351,392.957672 
z"/>
<path fill="#FFE955" opacity="1.000000" stroke="none" 
	d="
M461.954956,129.427399 
	C456.657227,136.793274 451.500488,143.912018 446.075867,150.820389 
	C432.148560,168.557068 416.169647,184.170700 396.941345,196.976593 
	C389.587006,190.720627 381.573456,188.240524 372.546539,188.251877 
	C330.788086,188.304398 289.029480,188.244766 247.270996,188.292084 
	C231.582367,188.309860 221.151154,195.769470 215.832855,210.413391 
	C212.602829,219.307266 209.275238,228.165680 205.991501,237.040039 
	C194.845230,233.907623 183.698975,230.775223 172.167221,227.142090 
	C171.829651,196.699356 171.907745,166.757324 171.895370,136.815323 
	C171.893341,131.894897 169.843414,129.984985 164.797531,129.977554 
	C137.348602,129.937164 109.899567,129.940216 82.450615,129.972595 
	C76.860634,129.979187 75.111496,131.817413 75.042389,137.501953 
	C74.955475,144.650772 74.920219,151.800232 74.862671,158.949417 
	C68.940620,151.349136 63.010979,143.754745 57.101730,136.144531 
	C55.575706,134.179230 54.113758,132.164169 52.344742,129.967682 
	C57.099720,122.293701 61.624420,114.409836 67.292747,107.458519 
	C74.471008,98.655525 82.309311,90.341011 90.347649,82.300385 
	C103.425087,69.219193 118.310249,58.423473 134.209610,48.970810 
	C155.910431,36.069004 179.183197,27.057037 203.663467,21.316759 
	C213.299011,19.057362 223.270935,17.898039 233.158905,17.137053 
	C244.700439,16.248806 256.317230,16.091841 267.902130,16.071648 
	C285.142426,16.041595 302.043945,19.045811 318.634155,23.409910 
	C336.956116,28.229561 354.611176,35.038193 371.273804,44.116379 
	C386.841644,52.598076 401.660645,62.241505 414.789276,74.288109 
	C416.588654,75.939209 418.643463,77.314590 420.420135,78.987419 
	C436.334503,93.971573 450.464752,110.442940 461.954956,129.427399 
z"/>
<path fill="#FE3545" opacity="1.000000" stroke="none" 
	d="
M205.969879,237.413269 
	C209.275238,228.165680 212.602829,219.307266 215.832855,210.413391 
	C221.151154,195.769470 231.582367,188.309860 247.270996,188.292084 
	C289.029480,188.244766 330.788086,188.304398 372.546539,188.251877 
	C381.573456,188.240524 389.587006,190.720627 396.602295,197.092438 
	C399.647736,202.322678 402.964722,207.155334 405.018890,212.475540 
	C410.857635,227.597321 416.181061,242.918060 421.914307,258.805695 
	C422.719727,260.902679 423.318146,262.354462 423.916565,263.806244 
	C425.617615,266.455475 426.823547,269.689789 429.121094,271.634125 
	C434.158447,275.897064 438.601074,280.702728 438.824432,287.315979 
	C439.368561,303.426270 439.136353,319.562744 438.927612,336.392822 
	C433.656952,349.394226 426.357635,354.392181 413.067688,354.607666 
	C406.920044,354.707336 400.772461,354.809296 394.624847,354.910217 
	C393.629456,354.833313 392.634064,354.689026 391.638672,354.689178 
	C336.663788,354.697327 281.688904,354.717529 225.852097,354.729980 
	C219.875381,354.641449 214.742401,354.244232 209.649261,354.537781 
	C195.484375,355.354095 185.806259,349.559692 181.096619,335.975403 
	C181.061493,320.480957 180.814590,304.982880 181.083115,289.493683 
	C181.211884,282.066986 185.251724,276.446228 190.984375,271.761932 
	C193.222916,269.932800 194.508743,266.937714 196.364319,263.796783 
	C196.986542,261.693115 197.472961,260.266327 197.959381,258.839539 
	C200.622345,251.821854 203.285309,244.804169 205.969879,237.413269 
M328.085571,202.501236 
	C324.391968,202.574371 320.698364,202.647507 316.114349,202.414551 
	C308.987030,202.384094 301.859283,202.291870 294.732452,202.336655 
	C281.818970,202.417816 268.906006,202.580643 255.085770,202.491959 
	C251.098358,202.489029 247.106461,202.364044 243.124588,202.511154 
	C236.816620,202.744171 232.432495,205.952118 230.275253,211.830978 
	C225.878296,223.813538 221.671173,235.865662 217.352371,247.877090 
	C216.025894,251.566330 216.831421,253.693359 221.158218,253.669922 
	C239.761765,253.569107 258.365479,253.500977 277.874634,253.689102 
	C297.625000,253.597336 317.375397,253.505585 338.003235,253.618073 
	C341.695190,253.544235 345.387177,253.470398 349.966858,253.660583 
	C354.657501,253.570679 359.348175,253.480759 364.945404,253.616135 
	C376.257385,253.631485 387.569397,253.633316 398.881317,253.669586 
	C402.810303,253.682190 404.479034,252.232086 402.990570,248.132278 
	C398.572845,235.964172 394.327301,223.733200 389.860718,211.583313 
	C387.843079,206.095047 383.731750,202.722595 377.837463,202.625412 
	C366.541687,202.439194 355.238892,202.677933 343.067261,202.443085 
	C338.369293,202.544342 333.671326,202.645599 328.085571,202.501236 
M356.918671,312.690674 
	C357.333069,311.496582 357.747467,310.302521 358.673645,308.608337 
	C359.990601,305.206360 361.409332,301.839478 362.598724,298.393463 
	C364.083282,294.092224 362.676117,291.930267 358.153717,291.921753 
	C326.089905,291.861267 294.025787,291.855988 261.962036,291.929382 
	C257.403595,291.939819 256.097229,294.097229 257.713837,298.461731 
	C258.920929,301.720673 260.373383,304.888702 261.796631,308.786652 
	C262.446533,310.223297 263.096405,311.659912 263.903717,313.828278 
	C265.194427,317.070953 266.719879,320.243378 267.716522,323.574036 
	C268.965118,327.746674 271.351013,329.183044 275.763367,329.131958 
	C295.234772,328.906372 314.710297,329.034882 334.184326,329.035004 
	C350.889709,329.035126 350.889709,329.035034 356.918671,312.690674 
M242.645386,322.009613 
	C242.994232,315.304810 243.628006,308.591980 243.439728,301.902313 
	C243.404144,300.638580 240.124802,298.460480 238.299484,298.414917 
	C225.835892,298.103699 213.360718,298.215485 200.889633,298.269379 
	C197.356461,298.284668 195.229446,300.115723 195.161453,303.767914 
	C195.071701,308.588440 194.682388,313.476685 195.354141,318.203339 
	C195.638718,320.205597 198.247543,323.398926 199.878754,323.448303 
	C213.164383,323.850250 226.468750,323.652191 239.766968,323.566162 
	C240.525177,323.561249 241.279388,322.938324 242.645386,322.009613 
M377.501526,300.088531 
	C377.217590,306.805481 376.654510,313.532745 376.901306,320.230133 
	C376.946930,321.468475 380.240540,323.559021 382.074463,323.602722 
	C394.537537,323.899872 407.011597,323.805664 419.481262,323.719849 
	C423.338470,323.693329 425.135468,321.504730 425.047974,317.623566 
	C424.958038,313.635101 425.048370,309.642914 425.025787,305.652557 
	C424.992035,299.688324 423.657196,298.273285 417.739838,298.246552 
	C406.433624,298.195435 395.126495,298.172943 383.821228,298.287750 
	C381.908478,298.307190 380.003357,299.072998 377.501526,300.088531 
z"/>
<path fill="#EDC30F" opacity="1.000000" stroke="none" 
	d="
M327.266479,392.970306 
	C343.869995,393.325531 360.028320,393.171783 376.118988,394.141083 
	C394.653137,395.257629 413.131805,397.322174 431.622650,399.098846 
	C433.978302,399.325165 436.262207,400.298157 438.579315,400.925232 
	C438.637390,401.407532 438.695465,401.889832 438.753540,402.372131 
	C437.295776,403.042419 435.896790,404.075287 434.370483,404.322540 
	C426.183533,405.648682 417.999451,407.400024 409.750610,407.860016 
	C385.705811,409.200745 361.639038,410.348785 337.565430,410.919586 
	C307.785980,411.625702 277.991577,411.752441 248.202515,411.981842 
	C229.379852,412.126801 210.550385,412.264496 191.732605,411.925781 
	C172.130325,411.572968 152.512466,411.059448 132.949844,409.839569 
	C116.244240,408.797852 99.601509,406.709625 82.946075,404.941986 
	C80.442444,404.676270 78.021324,403.633209 75.562035,402.949738 
	C75.535179,402.387543 75.508316,401.825317 75.481461,401.263123 
	C77.875198,400.544006 80.226448,399.444366 82.670021,399.171509 
	C93.382103,397.975281 104.100037,396.621002 114.854309,396.055695 
	C138.737808,394.800232 162.636169,393.624634 186.543594,393.078156 
	C217.156479,392.378387 247.783859,392.288391 278.405762,392.019409 
	C291.398163,391.905273 304.392914,391.944092 317.385498,392.049469 
	C320.523041,392.074890 323.656189,392.640472 327.266479,392.970306 
z"/>
<path fill="#149DE7" opacity="1.000000" stroke="none" 
	d="
M74.937012,159.418579 
	C74.920219,151.800232 74.955475,144.650772 75.042389,137.501953 
	C75.111496,131.817413 76.860634,129.979187 82.450615,129.972595 
	C109.899567,129.940216 137.348602,129.937164 164.797531,129.977554 
	C169.843414,129.984985 171.893341,131.894897 171.895370,136.815323 
	C171.907745,166.757324 171.829651,196.699356 171.751923,227.063400 
	C169.185501,228.670471 166.681305,230.790039 164.106735,230.879272 
	C152.789734,231.271561 141.452423,231.077347 129.196960,231.089355 
	C124.751549,231.126022 121.231659,231.169052 117.711769,231.212082 
	C106.060715,231.154968 94.409592,231.109436 82.758644,231.035919 
	C76.782837,230.998230 75.059189,229.311478 75.048798,223.318390 
	C75.012146,202.174881 75.020233,181.031311 74.937012,159.418579 
M99.505966,139.885986 
	C96.341187,139.886230 93.157593,140.103424 90.016434,139.831177 
	C86.191551,139.499664 84.836021,140.660370 84.870140,144.771164 
	C85.067818,168.588486 85.064247,192.409073 84.872520,216.226501 
	C84.839851,220.285629 86.129036,221.271683 89.982887,221.244827 
	C112.301682,221.089264 134.622604,221.094452 156.941513,221.240829 
	C160.740433,221.265747 162.126038,220.366135 162.092026,216.255386 
	C161.894989,192.438049 161.896774,168.617432 162.090958,144.800049 
	C162.124222,140.720764 160.816544,139.772537 156.969604,139.807999 
	C138.149216,139.981506 119.326363,139.886215 99.505966,139.885986 
z"/>
<path fill="#353E59" opacity="1.000000" stroke="none" 
	d="
M117.712189,231.667206 
	C121.231659,231.169052 124.751549,231.126022 128.745331,231.147858 
	C129.219208,280.287628 129.219208,329.362488 129.219208,378.836792 
	C125.388641,378.836792 121.863411,378.836792 117.712608,378.836792 
	C117.712608,329.861633 117.712608,280.991974 117.712189,231.667206 
M125.415619,314.898163 
	C124.906883,313.313477 124.398148,311.728760 123.889412,310.144073 
	C123.203957,310.476135 121.977837,310.743439 121.928955,311.151703 
	C121.741859,312.714050 121.933243,314.321716 121.983337,315.912415 
	C123.050461,315.805298 124.117584,315.698181 125.415619,314.898163 
M121.239563,277.741180 
	C121.774353,279.309326 122.309143,280.877502 122.843941,282.445648 
	C123.651703,282.090027 125.063133,281.847076 125.154442,281.357758 
	C125.432426,279.868042 125.201073,278.283264 125.168007,276.735504 
	C123.966461,276.830231 122.764923,276.924957 121.239563,277.741180 
z"/>
<path fill="#333C59" opacity="1.000000" stroke="none" 
	d="
M181.059998,336.447449 
	C185.806259,349.559692 195.484375,355.354095 209.649261,354.537781 
	C214.742401,354.244232 219.875381,354.641449 225.373215,354.809143 
	C225.754807,359.890930 225.854004,364.889526 225.726440,369.882355 
	C225.566071,376.158997 222.686295,379.127045 216.529236,379.210999 
	C207.704575,379.331329 198.875656,379.340485 190.051270,379.211823 
	C183.819168,379.120972 180.969177,376.167908 180.942352,369.890198 
	C180.895401,358.900269 180.988785,347.909790 181.059998,336.447449 
z"/>
<path fill="#323B5A" opacity="1.000000" stroke="none" 
	d="
M394.628174,355.386719 
	C400.772461,354.809296 406.920044,354.707336 413.067688,354.607666 
	C426.357635,354.392181 433.656952,349.394226 438.833740,336.764404 
	C439.102875,348.076599 439.319824,359.723022 439.181671,371.365234 
	C439.124451,376.186615 436.101685,379.045319 431.196869,379.141144 
	C421.714264,379.326416 412.222534,379.334320 402.740448,379.135468 
	C397.665161,379.029053 394.914154,376.054871 394.713074,370.840698 
	C394.520782,365.854553 394.645905,360.856201 394.628174,355.386719 
z"/>
<path fill="#FF3A43" opacity="1.000000" stroke="none" 
	d="
M428.928589,258.722107 
	C429.043671,256.903717 429.080627,255.076401 429.288055,253.268616 
	C429.987213,247.174225 433.748444,243.831741 440.367310,243.339478 
	C453.418701,242.368851 459.135254,244.392990 461.021515,250.652832 
	C463.032043,257.325073 458.366669,263.484100 450.783264,263.751160 
	C443.826935,263.996155 436.856628,263.843811 429.438538,263.351013 
	C428.965912,261.464355 428.947235,260.093231 428.928589,258.722107 
z"/>
<path fill="#FF3943" opacity="1.000000" stroke="none" 
	d="
M191.028427,263.671509 
	C183.729980,263.705963 176.424057,263.958008 169.135361,263.708160 
	C162.945343,263.496063 158.942825,259.288483 158.896515,253.691162 
	C158.851227,248.217728 162.436462,244.184891 168.447418,243.580338 
	C172.393661,243.183456 176.425659,243.150528 180.382095,243.448334 
	C188.027145,244.023804 190.756714,247.879822 191.044464,258.653778 
	C191.041702,260.884186 191.035065,262.277832 191.028427,263.671509 
z"/>
<path fill="#EF223B" opacity="1.000000" stroke="none" 
	d="
M191.453766,263.714172 
	C191.035065,262.277832 191.041702,260.884186 191.072235,259.069458 
	C193.098160,258.686493 195.100174,258.724548 197.530792,258.801086 
	C197.472961,260.266327 196.986542,261.693115 196.330383,263.394165 
	C194.733444,263.697876 193.306259,263.727325 191.453766,263.714172 
z"/>
<path fill="#EF223B" opacity="1.000000" stroke="none" 
	d="
M428.499603,258.723572 
	C428.947235,260.093231 428.965912,261.464355 428.979248,263.244446 
	C427.569763,263.701843 426.165619,263.750275 424.339050,263.802490 
	C423.318146,262.354462 422.719727,260.902679 422.092743,259.107056 
	C424.066345,258.750458 426.068481,258.737762 428.499603,258.723572 
z"/>
<path fill="#45AAE6" opacity="1.000000" stroke="none" 
	d="
M337.125763,253.413818 
	C317.375397,253.505585 297.625000,253.597336 277.385223,253.217194 
	C269.928131,236.066666 262.960480,219.388031 255.992828,202.709381 
	C268.906006,202.580643 281.818970,202.417816 294.732452,202.336655 
	C301.859283,202.291870 308.987030,202.384094 316.598694,202.902985 
	C317.879608,205.575134 318.612000,207.784821 319.483093,209.938400 
	C325.347595,224.436844 331.241425,238.923401 337.125763,253.413818 
z"/>
<path fill="#109BE8" opacity="1.000000" stroke="none" 
	d="
M255.539307,202.600677 
	C262.960480,219.388031 269.928131,236.066666 276.932465,253.083130 
	C258.365479,253.500977 239.761765,253.569107 221.158218,253.669922 
	C216.831421,253.693359 216.025894,251.566330 217.352371,247.877090 
	C221.671173,235.865662 225.878296,223.813538 230.275253,211.830978 
	C232.432495,205.952118 236.816620,202.744171 243.124588,202.511154 
	C247.106461,202.364044 251.098358,202.489029 255.539307,202.600677 
z"/>
<path fill="#109BE7" opacity="1.000000" stroke="none" 
	d="
M343.939026,202.740356 
	C355.238892,202.677933 366.541687,202.439194 377.837463,202.625412 
	C383.731750,202.722595 387.843079,206.095047 389.860718,211.583313 
	C394.327301,223.733200 398.572845,235.964172 402.990570,248.132278 
	C404.479034,252.232086 402.810303,253.682190 398.881317,253.669586 
	C387.569397,253.633316 376.257385,253.631485 364.399231,253.186508 
	C359.771698,242.916199 355.603455,233.110382 351.639160,223.222778 
	C348.925415,216.454269 346.495697,209.571854 343.939026,202.740356 
z"/>
<path fill="#323B5A" opacity="1.000000" stroke="none" 
	d="
M261.716583,308.097229 
	C260.373383,304.888702 258.920929,301.720673 257.713837,298.461731 
	C256.097229,294.097229 257.403595,291.939819 261.962036,291.929382 
	C294.025787,291.855988 326.089905,291.861267 358.153717,291.921753 
	C362.676117,291.930267 364.083282,294.092224 362.598724,298.393463 
	C361.409332,301.839478 359.990601,305.206360 358.075623,308.601990 
	C356.177673,308.397125 354.877747,308.025513 353.577850,308.025482 
	C322.957428,308.025146 292.337006,308.064880 261.716583,308.097229 
z"/>
<path fill="#323B5A" opacity="1.000000" stroke="none" 
	d="
M356.542267,313.192871 
	C350.889709,329.035034 350.889709,329.035126 334.184326,329.035004 
	C314.710297,329.034882 295.234772,328.906372 275.763367,329.131958 
	C271.351013,329.183044 268.965118,327.746674 267.716522,323.574036 
	C266.719879,320.243378 265.194427,317.070953 264.310913,313.439362 
	C295.326172,313.097931 325.934204,313.145416 356.542267,313.192871 
z"/>
<path fill="#FFF9FA" opacity="1.000000" stroke="none" 
	d="
M242.340424,322.306335 
	C241.279388,322.938324 240.525177,323.561249 239.766968,323.566162 
	C226.468750,323.652191 213.164383,323.850250 199.878754,323.448303 
	C198.247543,323.398926 195.638718,320.205597 195.354141,318.203339 
	C194.682388,313.476685 195.071701,308.588440 195.161453,303.767914 
	C195.229446,300.115723 197.356461,298.284668 200.889633,298.269379 
	C213.360718,298.215485 225.835892,298.103699 238.299484,298.414917 
	C240.124802,298.460480 243.404144,300.638580 243.439728,301.902313 
	C243.628006,308.591980 242.994232,315.304810 242.340424,322.306335 
z"/>
<path fill="#FFF9FA" opacity="1.000000" stroke="none" 
	d="
M377.798126,299.791260 
	C380.003357,299.072998 381.908478,298.307190 383.821228,298.287750 
	C395.126495,298.172943 406.433624,298.195435 417.739838,298.246552 
	C423.657196,298.273285 424.992035,299.688324 425.025787,305.652557 
	C425.048370,309.642914 424.958038,313.635101 425.047974,317.623566 
	C425.135468,321.504730 423.338470,323.693329 419.481262,323.719849 
	C407.011597,323.805664 394.537537,323.899872 382.074463,323.602722 
	C380.240540,323.559021 376.946930,321.468475 376.901306,320.230133 
	C376.654510,313.532745 377.217590,306.805481 377.798126,299.791260 
z"/>
<path fill="#3EAFED" opacity="1.000000" stroke="none" 
	d="
M343.503143,202.591721 
	C346.495697,209.571854 348.925415,216.454269 351.639160,223.222778 
	C355.603455,233.110382 359.771698,242.916199 363.945923,253.073853 
	C359.348175,253.480759 354.657501,253.570679 349.490723,253.173706 
	C348.590393,251.263306 348.283356,249.791901 347.724060,248.423630 
	C341.496307,233.188843 335.229584,217.970016 328.973358,202.746872 
	C333.671326,202.645599 338.369293,202.544342 343.503143,202.591721 
z"/>
<path fill="#109BE8" opacity="1.000000" stroke="none" 
	d="
M328.529480,202.624054 
	C335.229584,217.970016 341.496307,233.188843 347.724060,248.423630 
	C348.283356,249.791901 348.590393,251.263306 349.046875,253.041687 
	C345.387177,253.470398 341.695190,253.544235 337.564514,253.515945 
	C331.241425,238.923401 325.347595,224.436844 319.483093,209.938400 
	C318.612000,207.784821 317.879608,205.575134 317.043915,203.056030 
	C320.698364,202.647507 324.391968,202.574371 328.529480,202.624054 
z"/>
<path fill="#20273A" opacity="1.000000" stroke="none" 
	d="
M356.730469,312.941772 
	C325.934204,313.145416 295.326172,313.097931 264.232178,313.073486 
	C263.096405,311.659912 262.446533,310.223297 261.756592,308.441956 
	C292.337006,308.064880 322.957428,308.025146 353.577850,308.025482 
	C354.877747,308.025513 356.177673,308.397125 357.819702,308.852020 
	C357.747467,310.302521 357.333069,311.496582 356.730469,312.941772 
z"/>
<path fill="#FFFFFF" opacity="1.000000" stroke="none" 
	d="
M100.005173,139.885971 
	C119.326363,139.886215 138.149216,139.981506 156.969604,139.807999 
	C160.816544,139.772537 162.124222,140.720764 162.090958,144.800049 
	C161.896774,168.617432 161.894989,192.438049 162.092026,216.255386 
	C162.126038,220.366135 160.740433,221.265747 156.941513,221.240829 
	C134.622604,221.094452 112.301682,221.089264 89.982887,221.244827 
	C86.129036,221.271683 84.839851,220.285629 84.872520,216.226501 
	C85.064247,192.409073 85.067818,168.588486 84.870140,144.771164 
	C84.836021,140.660370 86.191551,139.499664 90.016434,139.831177 
	C93.157593,140.103424 96.341187,139.886230 100.005173,139.885971 
M116.500000,217.970291 
	C130.435577,217.970291 144.371170,217.970291 158.469116,217.970291 
	C158.469116,192.732132 158.469116,168.044235 158.469116,143.395050 
	C134.889755,143.395050 111.677956,143.395050 88.395470,143.395050 
	C88.395470,168.326370 88.395470,192.891418 88.395470,217.970291 
	C97.607674,217.970291 106.553833,217.970291 116.500000,217.970291 
z"/>
<path fill="#D6B41F" opacity="1.000000" stroke="none" 
	d="
M125.300163,315.244598 
	C124.117584,315.698181 123.050461,315.805298 121.983337,315.912415 
	C121.933243,314.321716 121.741859,312.714050 121.928955,311.151703 
	C121.977837,310.743439 123.203957,310.476135 123.889404,310.144073 
	C124.398148,311.728760 124.906883,313.313477 125.300163,315.244598 
z"/>
<path fill="#EAC217" opacity="1.000000" stroke="none" 
	d="
M121.401474,277.380432 
	C122.764923,276.924957 123.966461,276.830231 125.168007,276.735504 
	C125.201073,278.283264 125.432426,279.868042 125.154442,281.357758 
	C125.063133,281.847076 123.651703,282.090027 122.843941,282.445648 
	C122.309143,280.877502 121.774353,279.309326 121.401474,277.380432 
z"/>
<path fill="#129CE8" opacity="1.000000" stroke="none" 
	d="
M116.000000,217.970291 
	C106.553833,217.970291 97.607674,217.970291 88.395470,217.970291 
	C88.395470,192.891418 88.395470,168.326370 88.395470,143.395050 
	C111.677956,143.395050 134.889755,143.395050 158.469116,143.395050 
	C158.469116,168.044235 158.469116,192.732132 158.469116,217.970291 
	C144.371170,217.970291 130.435577,217.970291 116.000000,217.970291 
M144.744019,174.135208 
	C144.536621,164.139740 140.215805,158.879181 130.351425,157.736298 
	C124.427071,157.049881 118.386024,157.406265 112.400826,157.196671 
	C108.511795,157.060486 107.094406,158.928726 107.121658,162.675278 
	C107.213745,175.333923 107.031509,187.996216 107.294930,200.650040 
	C107.332375,202.448532 109.255150,204.207779 110.305336,205.985199 
	C111.431831,204.278519 113.310745,202.663254 113.531456,200.846512 
	C114.022797,196.802216 113.684807,192.657150 113.684807,188.024689 
	C119.159821,188.024689 123.962585,188.192978 128.749390,187.988159 
	C137.561340,187.611145 142.514496,183.431381 144.744019,174.135208 
z"/>
<path fill="#F0F9FE" opacity="1.000000" stroke="none" 
	d="
M144.681122,174.536682 
	C142.514496,183.431381 137.561340,187.611145 128.749390,187.988159 
	C123.962585,188.192978 119.159821,188.024689 113.684807,188.024689 
	C113.684807,192.657150 114.022797,196.802216 113.531456,200.846512 
	C113.310745,202.663254 111.431831,204.278519 110.305328,205.985199 
	C109.255150,204.207779 107.332375,202.448532 107.294930,200.650040 
	C107.031509,187.996216 107.213745,175.333923 107.121658,162.675278 
	C107.094406,158.928726 108.511795,157.060486 112.400826,157.196671 
	C118.386024,157.406265 124.427071,157.049881 130.351425,157.736298 
	C140.215805,158.879181 144.536621,164.139740 144.681122,174.536682 
M132.675400,164.388489 
	C126.493195,163.906860 120.310989,163.425232 114.100372,162.941391 
	C114.100372,170.018677 114.100372,175.902191 114.100372,181.881409 
	C119.487053,181.881409 124.477226,182.137360 129.427216,181.801437 
	C133.478333,181.526520 136.911423,179.605942 137.904022,175.277100 
	C138.925095,170.823990 137.858902,166.994736 132.675400,164.388489 
z"/>
<path fill="#139DE8" opacity="1.000000" stroke="none" 
	d="
M133.034485,164.575165 
	C137.858902,166.994736 138.925095,170.823990 137.904022,175.277100 
	C136.911423,179.605942 133.478333,181.526520 129.427216,181.801437 
	C124.477226,182.137360 119.487053,181.881409 114.100372,181.881409 
	C114.100372,175.902191 114.100372,170.018677 114.100372,162.941391 
	C120.310989,163.425232 126.493195,163.906860 133.034485,164.575165 
z"/>
</svg>