<svg width="512" height="512" xmlns="http://www.w3.org/2000/svg" xml:space="preserve" enable-background="new 0 0 512 512" version="1.1">

 <g>
  <title>Layer 1</title>
  <path id="svg_2" d="m461.93597,129.77034c12.49051,18.37534 20.8942,38.6647 26.90976,59.87718c3.48087,12.27432 6.82233,24.86957 7.7898,37.50694c1.33261,17.40696 1.10886,35.03237 0.12497,52.48375c-0.70044,12.42405 -3.04257,24.88331 -5.91333,37.02869c-4.89035,20.68985 -13.01758,40.15692 -23.47498,58.78873c-12.3027,21.91955 -27.59173,41.33166 -45.85257,58.4277c-13.45651,12.59824 -28.2626,23.42514 -44.33764,32.57364c-16.11805,9.17291 -32.93384,16.53766 -50.7229,21.75833c-14.99491,4.40067 -30.12061,8.14133 -45.80863,8.74567c-13.74744,0.52957 -27.59395,1.80563 -41.24032,0.74325c-14.85073,-1.15609 -29.71746,-3.81213 -44.21964,-7.30063c-17.43521,-4.194 -34.12225,-10.84429 -50.03714,-19.33349c-16.85655,-8.99155 -32.41681,-19.70316 -46.93327,-32.1676c-18.22261,-15.64676 -33.43279,-33.7793 -46.16507,-53.96988c-12.58026,-19.94953 -22.25163,-41.35993 -27.89967,-64.29959c-3.13565,-12.73551 -5.67694,-25.74643 -6.92527,-38.78269c-1.35515,-14.1517 -2.01309,-28.56273 -0.92493,-42.70291c1.1415,-14.83337 4.02336,-29.64023 7.3976,-44.16765c4.40688,-18.97343 12.07448,-36.85708 21.32865,-54.0113c1.9931,-3.69454 4.25208,-7.24566 6.98979,-10.82967c2.09258,2.02536 3.55453,4.04042 5.08055,6.00572c5.90925,7.61022 11.83889,15.20461 17.83528,23.27405c0.08322,21.61273 0.07514,42.7563 0.11179,63.89981c0.01039,5.99309 1.73404,7.67984 7.70984,7.71753c11.65095,0.07352 23.30208,0.11905 34.95355,0.63129c0.00042,49.32476 0.00042,98.19442 0.00042,147.16958c4.1508,0 7.67603,0 11.5066,0c0,-49.4743 0,-98.54916 0.45163,-147.68255c11.78158,-0.07689 23.11889,0.11732 34.43589,-0.27497c2.57458,-0.08923 5.07877,-2.2088 8.03066,-3.31515c11.56158,3.2111 22.70784,6.3435 33.83249,9.84913c-2.68457,7.39092 -5.34754,14.4086 -8.43909,21.38784c-2.43062,-0.07654 -4.43263,-0.1146 -6.46243,-0.56836c-0.31165,-10.35291 -3.04122,-14.20893 -10.68627,-14.7844c-3.95643,-0.2978 -7.98843,-0.26487 -11.93467,0.13201c-6.01096,0.60455 -9.59619,4.63739 -9.55091,10.11082c0.04631,5.59732 4.04883,9.8049 10.23885,10.017c7.2887,0.24985 14.59462,-0.0022 22.31841,0.00601c1.85249,0.01316 3.27967,-0.01629 4.74078,0.35688c-1.68581,2.86666 -2.97163,5.86175 -5.21017,7.69088c-5.73266,4.6843 -9.7725,10.30506 -9.90127,17.73175c-0.26852,15.4892 -0.02162,30.98728 -0.02311,46.95377c-0.07121,11.46234 -0.1646,22.45282 -0.11765,33.44275c0.02683,6.27771 2.87682,9.23077 9.10892,9.32162c8.82439,0.12867 17.65331,0.11951 26.47797,-0.00082c6.15706,-0.08395 9.03683,-3.052 9.1972,-9.32864c0.12756,-4.99283 0.02837,-9.99143 0.5087,-15.06662c55.45376,-0.09821 110.42865,-0.11841 165.40353,-0.12656c0.99539,-0.00015 1.99079,0.14413 2.9895,0.69754c0.01774,5.46948 -0.10739,10.46783 0.0849,15.45398c0.20108,5.21417 2.95209,8.18835 8.02738,8.29477c9.48208,0.19885 18.97381,0.19095 28.45642,0.00567c4.90481,-0.09582 7.92758,-2.95452 7.9848,-7.77591c0.13815,-11.64221 -0.0788,-23.28863 -0.05874,-35.30496c0.01342,-16.49753 0.24563,-32.634 -0.2985,-48.74429c-0.22336,-6.61325 -4.66598,-11.41892 -9.70334,-15.68186c-2.29754,-1.94433 -3.50347,-5.17865 -4.78204,-7.83163c1.82657,-0.05222 3.23071,-0.10065 5.09412,-0.04254c7.42346,0.08386 14.39376,0.2362 21.35009,-0.00879c7.58341,-0.26706 12.24878,-6.42609 10.23826,-13.09833c-1.88627,-6.25984 -7.60282,-8.28398 -20.65421,-7.31335c-6.61887,0.49226 -10.3801,3.83475 -11.07926,9.92914c-0.20742,1.80778 -0.24438,3.6351 -0.78842,5.45495c-2.43115,0.01419 -4.43328,0.02689 -6.61389,-0.26172c-5.70468,-15.54379 -11.0281,-30.86453 -16.86685,-45.98631c-2.05417,-5.32021 -5.37115,-10.15286 -7.77252,-15.32399c18.92328,-12.98085 34.90219,-28.59448 48.8295,-46.33116c5.42462,-6.90837 10.58136,-14.02712 15.8601,-21.05005m-135.14462,263.18733c-3.13516,-0.3172 -6.26831,-0.88278 -9.40585,-0.9082c-12.99259,-0.10538 -25.98734,-0.1442 -38.97974,-0.03006c-30.6219,0.26898 -61.24928,0.35898 -91.86217,1.05875c-23.90742,0.54647 -47.80578,1.72207 -71.68928,2.97754c-10.75427,0.5653 -21.47221,1.91958 -32.18429,3.11581c-2.44357,0.27286 -4.79482,1.3725 -7.18856,2.09161c0.02686,0.5622 0.05372,1.12442 0.08057,1.68662c2.45929,0.68347 4.88041,1.72653 7.38404,1.99225c16.65544,1.76764 33.29817,3.85586 50.00377,4.89758c19.56263,1.21988 39.18048,1.7334 58.78277,2.08621c18.81778,0.33872 37.64724,0.20102 56.46991,0.05606c29.78906,-0.2294 59.58346,-0.35614 89.36291,-1.06225c24.07361,-0.5708 48.14038,-1.71885 72.18518,-3.05957c8.24884,-0.46 16.43292,-2.21134 24.61987,-3.53748c1.52631,-0.24725 2.9253,-1.28012 4.38306,-1.95041c-0.05807,-0.4823 -0.11615,-0.9646 -0.17422,-1.4469c-2.31711,-0.62707 -4.60102,-1.60006 -6.95667,-1.82638c-18.49085,-1.77668 -36.96951,-3.84122 -55.50366,-4.95777c-16.09067,-0.9693 -32.24899,-0.81555 -49.32764,-1.18341z" fill="#FED110"/>
  <path id="svg_3" d="m461.95496,129.4274c-5.29773,7.36587 -10.45447,14.48462 -15.87909,21.39299c-13.92731,17.73668 -29.90622,33.35031 -49.13452,46.1562c-7.35434,-6.25596 -15.36789,-8.73607 -24.39481,-8.72471c-41.75845,0.05252 -83.51706,-0.00711 -125.27554,0.0402c-15.68863,0.01778 -26.11985,7.47739 -31.43815,22.12131c-3.23002,8.89388 -6.55761,17.75229 -9.84135,26.62665c-11.14627,-3.13242 -22.29253,-6.26482 -33.82428,-9.89795c-0.33757,-30.44273 -0.25947,-60.38477 -0.27185,-90.32677c-0.00203,-4.92042 -2.05196,-6.83034 -7.09784,-6.83777c-27.44893,-0.04039 -54.89796,-0.03733 -82.34692,-0.00495c-5.58998,0.00659 -7.33911,1.84481 -7.40822,7.52935c-0.08691,7.14882 -0.12217,14.29828 -0.17972,21.44747c-5.92205,-7.60028 -11.85169,-15.19467 -17.76094,-22.80489c-1.52602,-1.9653 -2.98797,-3.98036 -4.75699,-6.17685c4.75498,-7.67398 9.27968,-15.55784 14.94801,-22.50916c7.17826,-8.803 15.01656,-17.11751 23.0549,-25.15813c13.07744,-13.0812 27.9626,-23.87692 43.86196,-33.32958c21.70082,-12.90181 44.97359,-21.91377 69.45386,-27.65405c9.63554,-2.2594 19.60747,-3.41872 29.49544,-4.17971c11.54153,-0.88824 23.15832,-1.04521 34.74322,-1.0654c17.2403,-0.03005 34.14182,2.97416 50.73203,7.33826c18.32196,4.81965 35.97702,11.62828 52.63964,20.70647c15.56784,8.4817 30.38684,18.12512 43.51548,30.17173c1.79937,1.6511 3.85418,3.02648 5.63086,4.69931c15.91436,14.98415 30.04461,31.45552 41.53482,50.43998z" fill="#FFE955"/>
  <path id="svg_4" d="m205.96988,237.41327c3.30536,-9.24759 6.63295,-18.106 9.86297,-26.99988c5.3183,-14.64392 15.74952,-22.10353 31.43815,-22.12131c41.75848,-0.04731 83.51709,0.01232 125.27554,-0.0402c9.02692,-0.01136 17.04047,2.46875 24.05576,8.84056c3.04544,5.23024 6.36242,10.06289 8.41659,15.3831c5.83875,15.12178 11.16217,30.44252 16.89542,46.33016c0.80542,2.09698 1.40384,3.54876 2.00225,5.00054c1.70106,2.64923 2.90699,5.88355 5.20453,7.82788c5.03736,4.26294 9.47998,9.06861 9.70334,15.68186c0.54413,16.11029 0.31192,32.24676 0.10318,49.07684c-5.27066,13.00141 -12.56997,17.99936 -25.85992,18.21485c-6.14765,0.09967 -12.29523,0.20163 -18.44284,0.30255c-0.99539,-0.07691 -1.99079,-0.22119 -2.98618,-0.22104c-54.97488,0.00815 -109.94977,0.02835 -165.78657,0.0408c-5.97672,-0.08853 -11.1097,-0.48575 -16.20284,-0.1922c-14.16488,0.81631 -23.843,-4.97809 -28.55264,-18.56238c-0.03513,-15.49444 -0.28203,-30.99252 -0.01351,-46.48172c0.12877,-7.42669 4.16861,-13.04745 9.90127,-17.73175c2.23854,-1.82913 3.52436,-4.82422 5.37994,-7.96515c0.62222,-2.10367 1.10864,-3.53045 1.59506,-4.95724c2.66296,-7.01769 5.32593,-14.03537 8.0105,-21.42627m122.11569,-34.91203c-3.6936,0.07313 -7.38721,0.14627 -11.97122,-0.08669c-7.12732,-0.03046 -14.25507,-0.12268 -21.3819,-0.07789c-12.91348,0.08116 -25.82644,0.24398 -39.64668,0.1553c-3.98741,-0.00293 -7.97931,-0.12792 -11.96118,0.01919c-6.30797,0.23302 -10.6921,3.44097 -12.84934,9.31983c-4.39695,11.98256 -8.60408,24.03468 -12.92288,36.04611c-1.32648,3.68924 -0.52095,5.81627 3.80585,5.79283c18.60354,-0.10081 37.20726,-0.16894 56.71641,0.01918c19.75037,-0.09176 39.50077,-0.18352 60.12861,-0.07103c3.69195,-0.07384 7.38394,-0.14767 11.96362,0.04251c4.69064,-0.0899 9.38132,-0.17982 14.97854,-0.04444c11.31198,0.01534 22.624,0.01718 33.93592,0.05345c3.92898,0.0126 5.59771,-1.4375 4.10925,-5.53731c-4.41773,-12.16811 -8.66327,-24.39908 -13.12985,-36.54897c-2.01764,-5.48826 -6.12897,-8.86071 -12.02326,-8.9579c-11.29577,-0.18622 -22.59857,0.05252 -34.7702,-0.18233c-4.69797,0.10126 -9.39593,0.20252 -14.98169,0.05816m28.8331,110.18943c0.4144,-1.19409 0.8288,-2.38815 1.75498,-4.08233c1.31695,-3.40198 2.73568,-6.76886 3.92507,-10.21488c1.48456,-4.30124 0.0774,-6.46319 -4.445,-6.47171c-32.06382,-0.06048 -64.12793,-0.06576 -96.19168,0.00763c-4.55845,0.01044 -5.86481,2.16785 -4.2482,6.53235c1.20709,3.25894 2.65954,6.42697 4.08279,10.32492c0.6499,1.43665 1.29978,2.87326 2.10709,5.04163c1.29071,3.24267 2.81616,6.4151 3.8128,9.74576c1.2486,4.17263 3.63449,5.609 8.04685,5.55792c19.4714,-0.22559 38.94693,-0.09708 58.42096,-0.09696c16.70538,0.00013 16.70538,0.00003 22.73434,-16.34433m-114.27328,9.31894c0.34884,-6.7048 0.98262,-13.41763 0.79434,-20.1073c-0.03559,-1.26373 -3.31493,-3.44183 -5.14025,-3.48739c-12.46359,-0.31122 -24.93876,-0.19943 -37.40985,-0.14554c-3.53317,0.01529 -5.66018,1.84634 -5.72818,5.49853c-0.08975,4.82053 -0.47906,9.70877 0.19269,14.43543c0.28458,2.00226 2.8934,5.19559 4.52461,5.24496c13.28563,0.40195 26.59,0.20389 39.88822,0.11786c0.75821,-0.00491 1.51242,-0.62784 2.87842,-1.55655m134.85614,-21.92108c-0.28394,6.71695 -0.84702,13.44421 -0.60022,20.1416c0.04562,1.23835 3.33923,3.32889 5.17315,3.37259c12.46308,0.29715 24.93714,0.20294 37.4068,0.11713c3.85721,-0.02652 5.65421,-2.21512 5.56671,-6.09628c-0.08993,-3.98847 0.0004,-7.98066 -0.02218,-11.97101c-0.03376,-5.96424 -1.36859,-7.37928 -7.28595,-7.40601c-11.30622,-0.05112 -22.61335,-0.07361 -33.91861,0.0412c-1.91275,0.01944 -3.81787,0.78525 -6.3197,1.80078z" fill="#FE3545"/>
  <path id="svg_5" d="m327.26648,392.97031c16.60352,0.35522 32.76184,0.20147 48.85251,1.17077c18.53415,1.11655 37.01281,3.18109 55.50366,4.95777c2.35565,0.22632 4.63956,1.19931 6.95667,1.82638c0.05807,0.4823 0.11615,0.9646 0.17422,1.4469c-1.45776,0.67029 -2.85675,1.70316 -4.38306,1.95041c-8.18695,1.32614 -16.37103,3.07748 -24.61987,3.53748c-24.0448,1.34072 -48.11157,2.48877 -72.18518,3.05957c-29.77945,0.70611 -59.57385,0.83285 -89.36291,1.06225c-18.82267,0.14496 -37.65213,0.28266 -56.46991,-0.05606c-19.60229,-0.35281 -39.22014,-0.86633 -58.78277,-2.08621c-16.7056,-1.04172 -33.34833,-3.12994 -50.00377,-4.89758c-2.50363,-0.26572 -4.92475,-1.30878 -7.38404,-1.99225c-0.02685,-0.5622 -0.05371,-1.12442 -0.08057,-1.68662c2.39374,-0.71911 4.74499,-1.81875 7.18856,-2.09161c10.71208,-1.19623 21.43002,-2.55051 32.18429,-3.11581c23.8835,-1.25547 47.78186,-2.43107 71.68928,-2.97754c30.61289,-0.69977 61.24027,-0.78977 91.86217,-1.05875c12.9924,-0.11414 25.98715,-0.07532 38.97974,0.03006c3.13754,0.02542 6.27069,0.591 9.88098,0.92084z" fill="#EDC30F"/>
  <path id="svg_6" d="m74.93701,159.41858c-0.01679,-7.61835 0.01847,-14.76781 0.10538,-21.91663c0.06911,-5.68454 1.81824,-7.52276 7.40822,-7.52935c27.44896,-0.03238 54.89799,-0.03544 82.34692,0.00495c5.04588,0.00743 7.09581,1.91735 7.09784,6.83777c0.01238,29.942 -0.06572,59.88404 -0.14345,90.24808c-2.56642,1.60707 -5.07061,3.72664 -7.64519,3.81587c-11.317,0.39229 -22.65431,0.19808 -34.90977,0.21009c-4.44541,0.03666 -7.9653,0.07969 -11.48519,0.12272c-11.65105,-0.05711 -23.30218,-0.10264 -34.95313,-0.17616c-5.9758,-0.03769 -7.69945,-1.72444 -7.70984,-7.71753c-0.03665,-21.14351 -0.02857,-42.28708 -0.11179,-63.89981m24.56896,-19.53259c-3.16478,0.00024 -6.34838,0.21743 -9.48954,-0.05481c-3.82488,-0.33152 -5.18041,0.82919 -5.14629,4.93998c0.19768,23.81733 0.19411,47.63791 0.00238,71.45534c-0.03267,4.05913 1.25652,5.04518 5.11037,5.01833c22.31879,-0.15557 44.63971,-0.15038 66.95862,-0.004c3.79892,0.02492 5.18453,-0.87469 5.15052,-4.98544c-0.19704,-23.81734 -0.19526,-47.63796 -0.00107,-71.45534c0.03326,-4.07929 -1.27442,-5.02751 -5.12136,-4.99205c-18.82038,0.17351 -37.64324,0.07821 -57.46363,0.07799z" fill="#149DE7"/>
  <path id="svg_7" d="m117.71219,231.66721c3.51947,-0.49816 7.03936,-0.54119 11.03314,-0.51935c0.47388,49.13977 0.47388,98.21463 0.47388,147.68893c-3.83057,0 -7.3558,0 -11.5066,0c0,-48.97516 0,-97.84482 -0.00042,-147.16958m7.70343,83.23095c-0.50874,-1.58468 -1.01747,-3.1694 -1.52621,-4.75409c-0.68545,0.33206 -1.91157,0.59937 -1.96045,1.00763c-0.1871,1.56235 0.00428,3.17002 0.05438,4.76072c1.06712,-0.10712 2.13424,-0.21424 3.43228,-1.01426m-4.17606,-37.15698c0.53479,1.56815 1.06958,3.13632 1.60438,4.70447c0.80776,-0.35562 2.21919,-0.59857 2.3105,-1.08789c0.27799,-1.48972 0.04663,-3.0745 0.01357,-4.62226c-1.20155,0.09473 -2.40309,0.18946 -3.92845,1.00568z" fill="#353E59"/>
  <path id="svg_8" d="m181.06,336.44745c4.74626,13.11224 14.42438,18.90664 28.58926,18.09033c5.09314,-0.29355 10.22612,0.10367 15.72395,0.27136c0.3816,5.08179 0.48079,10.08039 0.35323,15.07322c-0.16037,6.27664 -3.04014,9.24469 -9.1972,9.32864c-8.82466,0.12033 -17.65358,0.12949 -26.47797,0.00082c-6.2321,-0.09085 -9.08209,-3.04391 -9.10892,-9.32162c-0.04695,-10.98993 0.04644,-21.98041 0.11765,-33.44275z" fill="#333C59"/>
  <path id="svg_9" d="m394.62817,355.38672c6.14429,-0.57742 12.29187,-0.67938 18.43952,-0.77905c13.28995,-0.21549 20.58926,-5.21344 25.76605,-17.84327c0.26913,11.3122 0.48608,22.95862 0.34793,34.60083c-0.05722,4.82139 -3.07999,7.68009 -7.9848,7.77591c-9.48261,0.18528 -18.97434,0.19318 -28.45642,-0.00567c-5.07529,-0.10642 -7.8263,-3.0806 -8.02738,-8.29477c-0.19229,-4.98615 -0.06716,-9.9845 -0.0849,-15.45398z" fill="#323B5A"/>
  <path id="svg_10" d="m428.92859,258.72211c0.11508,-1.81839 0.15204,-3.64571 0.35946,-5.45349c0.69916,-6.09439 4.46039,-9.43688 11.07926,-9.92914c13.05139,-0.97063 18.76794,1.05351 20.65421,7.31335c2.01052,6.67224 -2.65485,12.83127 -10.23826,13.09833c-6.95633,0.24499 -13.92663,0.09265 -21.34472,-0.40015c-0.47263,-1.88665 -0.49131,-3.25778 -0.50995,-4.6289z" fill="#FF3A43"/>
  <path id="svg_11" d="m191.02843,263.67151c-7.29845,0.03445 -14.60437,0.2865 -21.89307,0.03665c-6.19002,-0.2121 -10.19254,-4.41968 -10.23885,-10.017c-0.04528,-5.47343 3.53995,-9.50627 9.55091,-10.11082c3.94624,-0.39688 7.97824,-0.42981 11.93467,-0.13201c7.64505,0.57547 10.37462,4.43149 10.66237,15.20545c-0.00276,2.23041 -0.00939,3.62405 -0.01603,5.01773z" fill="#FF3943"/>
  <path id="svg_12" d="m191.45377,263.71417c-0.4187,-1.43634 -0.41207,-2.82998 -0.38153,-4.64471c2.02592,-0.38297 4.02793,-0.34491 6.45855,-0.26837c-0.05783,1.46524 -0.54425,2.89202 -1.20041,4.59307c-1.59694,0.30372 -3.02412,0.33317 -4.87661,0.32001z" fill="#EF223B"/>
  <path id="svg_13" d="m428.4996,258.72357c0.44763,1.36966 0.46631,2.74079 0.47965,4.52088c-1.40949,0.45739 -2.81363,0.50582 -4.6402,0.55804c-1.0209,-1.44803 -1.61932,-2.89981 -2.24631,-4.69543c1.97361,-0.3566 3.97574,-0.3693 6.40686,-0.38349z" fill="#EF223B"/>
  <path id="svg_14" d="m337.12576,253.41382c-19.75036,0.09176 -39.50076,0.18352 -59.74054,-0.19663c-7.45709,-17.15052 -14.42474,-33.82916 -21.39239,-50.50781c12.91318,-0.12874 25.82614,-0.29156 38.73962,-0.37272c7.12683,-0.04479 14.25458,0.04743 21.86624,0.56633c1.28092,2.67214 2.01331,4.88183 2.8844,7.03541c5.86451,14.49844 11.75833,28.985 17.64267,43.47542z" fill="#45AAE6"/>
  <path id="svg_15" d="m255.53931,202.60068c7.42117,16.78735 14.38882,33.46599 21.39315,50.48245c-18.56698,0.41785 -37.1707,0.48598 -55.77424,0.58679c-4.3268,0.02344 -5.13233,-2.10359 -3.80585,-5.79283c4.3188,-12.01143 8.52593,-24.06355 12.92288,-36.04611c2.15724,-5.87886 6.54137,-9.08681 12.84934,-9.31983c3.98187,-0.14711 7.97377,-0.02212 12.41472,0.08953z" fill="#109BE8"/>
  <path id="svg_16" d="m343.93903,202.74036c11.29986,-0.06243 22.60266,-0.30117 33.89843,-0.11495c5.89429,0.09719 10.00562,3.46964 12.02326,8.9579c4.46658,12.14989 8.71212,24.38086 13.12985,36.54897c1.48846,4.09981 -0.18027,5.54991 -4.10925,5.53731c-11.31192,-0.03627 -22.62394,-0.03811 -34.48209,-0.48308c-4.62753,-10.27031 -8.79578,-20.07613 -12.76007,-29.96373c-2.71375,-6.76851 -5.14346,-13.65093 -7.70013,-20.48242z" fill="#109BE7"/>
  <path id="svg_17" d="m261.71658,308.09723c-1.3432,-3.20853 -2.79565,-6.37656 -4.00274,-9.6355c-1.61661,-4.3645 -0.31025,-6.52191 4.2482,-6.53235c32.06375,-0.07339 64.12786,-0.06811 96.19168,-0.00763c4.5224,0.00852 5.92956,2.17047 4.445,6.47171c-1.18939,3.44602 -2.60812,6.8129 -4.5231,10.20853c-1.89795,-0.20486 -3.19787,-0.57648 -4.49777,-0.57651c-30.62042,-0.00033 -61.24084,0.0394 -91.86127,0.07175z" fill="#323B5A"/>
  <path id="svg_18" d="m356.54227,313.19287c-5.65256,15.84216 -5.65256,15.84226 -22.35794,15.84213c-19.47403,-0.00012 -38.94956,-0.12863 -58.42096,0.09696c-4.41236,0.05108 -6.79825,-1.38529 -8.04685,-5.55792c-0.99664,-3.33066 -2.52209,-6.50309 -3.40561,-10.13468c31.01526,-0.34143 61.62329,-0.29394 92.23136,-0.24649z" fill="#323B5A"/>
  <path id="svg_19" d="m242.34042,322.30633c-1.06103,0.63199 -1.81524,1.25492 -2.57345,1.25983c-13.29822,0.08603 -26.60259,0.28409 -39.88822,-0.11786c-1.63121,-0.04937 -4.24003,-3.2427 -4.52461,-5.24496c-0.67175,-4.72666 -0.28244,-9.6149 -0.19269,-14.43543c0.068,-3.65219 2.19501,-5.48324 5.72818,-5.49853c12.47109,-0.05389 24.94626,-0.16568 37.40985,0.14554c1.82532,0.04556 5.10466,2.22366 5.14025,3.48739c0.18828,6.68967 -0.4455,13.4025 -1.09931,20.40402z" fill="#FFF9FA"/>
  <path id="svg_20" d="m377.79813,299.79126c2.20523,-0.71826 4.11035,-1.48407 6.0231,-1.50351c11.30526,-0.11481 22.61239,-0.09232 33.91861,-0.0412c5.91736,0.02673 7.25219,1.44177 7.28595,7.40601c0.02258,3.99035 -0.06775,7.98254 0.02218,11.97101c0.0875,3.88116 -1.7095,6.06976 -5.56671,6.09628c-12.46966,0.08581 -24.94372,0.18002 -37.4068,-0.11713c-1.83392,-0.0437 -5.12753,-2.13424 -5.17315,-3.37259c-0.2468,-6.69739 0.31628,-13.42465 0.89682,-20.43887z" fill="#FFF9FA"/>
  <path id="svg_21" d="m343.50314,202.59172c2.99256,6.98013 5.42227,13.86255 8.13602,20.63106c3.96429,9.8876 8.13254,19.69342 12.30676,29.85107c-4.59774,0.40691 -9.28842,0.49683 -14.4552,0.09986c-0.90033,-1.9104 -1.20736,-3.38181 -1.76666,-4.75008c-6.22775,-15.23479 -12.49448,-30.45361 -18.7507,-45.67676c4.69797,-0.10127 9.39593,-0.20253 14.52978,-0.15515z" fill="#3EAFED"/>
  <path id="svg_22" d="m328.52948,202.62405c6.7001,15.34597 12.96683,30.56479 19.19458,45.79958c0.5593,1.36827 0.86633,2.83968 1.32282,4.61806c-3.6597,0.42871 -7.35169,0.50254 -11.48237,0.47425c-6.32309,-14.59254 -12.21691,-29.0791 -18.08142,-43.57754c-0.87109,-2.15358 -1.60348,-4.36327 -2.43917,-6.88237c3.65444,-0.40852 7.34805,-0.48166 11.48556,-0.43198z" fill="#109BE8"/>
  <path id="svg_23" d="m356.73047,312.94177c-30.79627,0.20365 -61.4043,0.15616 -92.49829,0.13172c-1.13577,-1.41358 -1.78565,-2.85019 -2.47559,-4.63153c30.58042,-0.37708 61.20084,-0.41681 91.82126,-0.41648c1.2999,0.00003 2.59982,0.37165 4.24185,0.82654c-0.07223,1.4505 -0.48663,2.64456 -1.08923,4.08975z" fill="#20273A"/>
  <path id="svg_24" d="m100.00517,139.88597c19.32119,0.00024 38.14405,0.09554 56.96443,-0.07797c3.84694,-0.03546 5.15462,0.91276 5.12136,4.99205c-0.19419,23.81738 -0.19597,47.638 0.00107,71.45534c0.03401,4.11075 -1.3516,5.01036 -5.15052,4.98544c-22.31891,-0.14638 -44.63983,-0.15157 -66.95862,0.004c-3.85385,0.02685 -5.14304,-0.9592 -5.11037,-5.01833c0.19173,-23.81743 0.1953,-47.63801 -0.00238,-71.45534c-0.03412,-4.11079 1.32141,-5.2715 5.14629,-4.93998c3.14116,0.27224 6.32476,0.05505 9.98874,0.05479m16.49483,78.08432c13.93558,0 27.87117,0 41.96912,0c0,-25.23816 0,-49.92606 0,-74.57524c-23.57936,0 -46.79116,0 -70.07365,0c0,24.93132 0,49.49637 0,74.57524c9.2122,0 18.15836,0 28.10453,0z" fill="#FFFFFF"/>
  <path id="svg_25" d="m125.30016,315.2446c-1.18258,0.45358 -2.2497,0.5607 -3.31682,0.66782c-0.0501,-1.5907 -0.24148,-3.19837 -0.05438,-4.76072c0.04888,-0.40826 1.275,-0.67557 1.96044,-1.00763c0.50875,1.58469 1.01748,3.16941 1.41076,5.10053z" fill="#D6B41F"/>
  <path id="svg_26" d="m121.40147,277.38043c1.36345,-0.45547 2.56499,-0.5502 3.76654,-0.64493c0.03306,1.54776 0.26442,3.13254 -0.01357,4.62226c-0.09131,0.48932 -1.50274,0.73227 -2.3105,1.08789c-0.5348,-1.56815 -1.06959,-3.13632 -1.44247,-5.06522z" fill="#EAC217"/>
  <path id="svg_27" d="m116,217.97029c-9.44617,0 -18.39233,0 -27.60453,0c0,-25.07887 0,-49.64392 0,-74.57524c23.28249,0 46.49429,0 70.07365,0c0,24.64918 0,49.33708 0,74.57524c-14.09795,0 -28.03354,0 -42.46912,0m28.74402,-43.83508c-0.2074,-9.99547 -4.52822,-15.25603 -14.39259,-16.39891c-5.92436,-0.68642 -11.96541,-0.33004 -17.9506,-0.53963c-3.88903,-0.13618 -5.30642,1.73206 -5.27917,5.47861c0.09209,12.65864 -0.09015,25.32094 0.17327,37.97476c0.03744,1.79849 1.96022,3.55774 3.01041,5.33516c1.12649,-1.70668 3.0054,-3.32195 3.22612,-5.13869c0.49134,-4.04429 0.15335,-8.18936 0.15335,-12.82182c5.47501,0 10.27778,0.16829 15.06458,-0.03653c8.81195,-0.37702 13.76511,-4.55678 15.99463,-13.85295z" fill="#129CE8"/>
  <path id="svg_28" d="m144.68112,174.53668c-2.16662,8.8947 -7.11978,13.07446 -15.93173,13.45148c-4.7868,0.20482 -9.58957,0.03653 -15.06458,0.03653c0,4.63246 0.33799,8.77753 -0.15335,12.82182c-0.22072,1.81674 -2.09963,3.43201 -3.22613,5.13869c-1.05018,-1.77742 -2.97296,-3.53667 -3.0104,-5.33516c-0.26342,-12.65382 -0.08118,-25.31612 -0.17327,-37.97476c-0.02725,-3.74655 1.39014,-5.61479 5.27917,-5.47861c5.98519,0.20959 12.02624,-0.14679 17.9506,0.53963c9.86437,1.14288 14.18519,6.40344 14.32969,16.80038m-12.00572,-10.14819c-6.1822,-0.48163 -12.36441,-0.96326 -18.57503,-1.4471c0,7.07729 0,12.9608 0,18.94002c5.38668,0 10.37686,0.25595 15.32685,-0.07997c4.05111,-0.27492 7.4842,-2.1955 8.4768,-6.52434c1.02107,-4.45311 -0.04512,-8.28236 -5.22862,-10.88861z" fill="#F0F9FE"/>
  <path id="svg_29" d="m133.03448,164.57516c4.82442,2.41958 5.89061,6.24883 4.86954,10.70194c-0.9926,4.32884 -4.42569,6.24942 -8.4768,6.52434c-4.94999,0.33592 -9.94017,0.07997 -15.32685,0.07997c0,-5.97922 0,-11.86273 0,-18.94002c6.21062,0.48384 12.39283,0.96547 18.93411,1.63377z" fill="#139DE8"/>
 </g>
</svg>