<svg width="512" height="512" xmlns="http://www.w3.org/2000/svg" xml:space="preserve" enable-background="new 0 0 512 512" version="1.1">

 <g>
  <title>Layer 1</title>
  <path id="svg_1" d="m225,1c21.02089,0 42.04178,0 63.1904,0.33459c1.13165,0.77677 2.09726,1.44973 3.14572,1.62388c7.06583,1.17364 14.25443,1.79293 21.20789,3.42452c24.69323,5.79412 48.33099,14.3671 70.44833,27.03112c16.31903,9.34402 31.88263,19.81152 45.39951,32.78902c11.63394,11.16973 22.6159,23.16513 32.76062,35.70594c16.21826,20.04885 28.13049,42.70894 36.85903,66.98549c6.3248,17.59104 11.26069,35.5316 13.07337,54.2269c0.06613,0.68166 1.25143,1.25481 1.91513,1.87854c0,21.02089 0,42.04178 -0.3352,63.19061c-0.77527,0.96698 -1.46161,1.76291 -1.61701,2.65171c-1.40179,8.01586 -2.35199,16.12759 -4.11273,24.06073c-5.62424,25.34039 -15.07016,49.28387 -28.22238,71.61789c-14.77558,25.09063 -33.46329,46.98724 -55.61866,65.97552c-14.18899,12.16074 -29.45584,22.74579 -45.93801,31.36197c-27.08292,14.15778 -55.6781,23.94479 -86.27009,27.22458c-0.68923,0.07391 -1.25991,1.25329 -1.88592,1.91699c-21.02091,0 -42.04179,0 -63.19049,-0.33441c-0.96649,-0.77503 -1.76201,-1.46225 -2.65057,-1.61774c-8.00928,-1.40182 -16.11521,-2.34915 -24.04113,-4.11181c-27.46058,-6.10697 -53.19851,-16.70633 -77.06478,-31.5011c-22.90387,-14.19818 -42.95227,-31.83753 -60.5378,-52.33063c-12.05898,-14.0528 -22.55527,-29.17847 -31.12984,-45.49323c-14.301,-27.21032 -24.15547,-55.95831 -27.4684,-86.72348c-0.0743,-0.69 -1.2533,-1.26104 -1.91699,-1.8876c0,-21.35422 0,-42.70845 0.32914,-64.19043c0.77328,-0.96164 1.43182,-1.74786 1.62944,-2.63658c3.02183,-13.58933 5.5065,-27.31862 9.07444,-40.761c4.96689,-18.71294 13.01133,-36.22327 22.83559,-52.90691c9.96616,-16.92459 21.21326,-32.90836 35.0822,-46.88804c6.87651,-6.93143 13.96521,-13.66912 21.21311,-20.21176c13.70988,-12.37584 29.05998,-22.54282 45.33317,-31.09201c27.17768,-14.27793 55.91694,-24.0288 86.62019,-27.39605c0.68938,-0.0756 1.25784,-1.2535 1.88272,-1.91722m27.59042,455.99231c11.43427,-0.74356 22.98285,-0.71234 34.28086,-2.37933c30.9483,-4.56641 59.27661,-15.95627 84.94262,-34.04947c26.93088,-18.98496 48.02942,-43.02204 62.95456,-72.28894c17.15784,-33.64505 25.17856,-69.38425 21.08563,-107.15183c-1.62158,-14.96348 -3.91049,-30.15983 -8.43054,-44.44824c-15.09546,-47.71855 -44.36953,-84.93874 -87.29412,-110.81542c-43.54288,-26.24939 -90.6514,-34.57352 -140.62108,-25.13762c-35.06636,6.62168 -66.13645,21.71896 -93.19876,45.21514c-18.58251,16.1338 -33.93181,34.76114 -45.40956,56.4427c-18.34261,34.64936 -26.36741,71.49034 -23.0135,110.77411c2.07689,24.32636 7.95648,47.53263 18.48043,69.52695c16.72933,34.96316 41.56613,62.74173 74.32342,83.4848c30.83525,19.526 64.62989,29.24982 101.90004,30.82715m198.6008,-62.3035c28.0683,-40.59958 42.56836,-85.50891 42.79233,-134.93216c0.02969,-6.55629 -3.58206,-10.60896 -9.23843,-10.73526c-5.91229,-0.13199 -9.42298,3.96624 -9.8115,10.73047c-0.56188,9.78195 -0.94824,19.6163 -2.30856,29.30203c-3.7905,26.98926 -12.45401,52.44092 -25.80215,76.21076c-13.67655,24.35458 -31.37326,45.38434 -53.14676,62.92987c-16.31571,13.14746 -34.24408,23.57269 -53.51132,31.77225c-7.98984,3.4002 -8.31388,8.32571 -6.52842,13.52624c1.77643,5.17414 7.87818,6.88657 14.06879,4.14688c7.44766,-3.29602 14.85651,-6.72961 22.04965,-10.54223c32.79599,-17.38315 59.47199,-41.73127 81.43637,-72.40885m-295.85981,-351.87304c-5.73336,3.03046 -11.60322,5.83331 -17.15673,9.16367c-4.41209,2.64586 -5.57756,8.89373 -3.01796,13.18826c2.47776,4.15721 7.94449,5.69348 12.63245,3.38389c2.97958,-1.46793 5.80553,-3.24421 8.75116,-4.7851c31.23578,-16.33968 64.63324,-23.9876 99.73665,-24.75051c6.29141,-0.13673 10.59756,-3.97976 10.61569,-9.48586c0.01813,-5.50532 -4.31815,-9.58902 -10.56259,-9.48508c-6.80022,0.11321 -13.60468,0.44788 -20.38927,0.93629c-28.0231,2.01731 -54.5742,9.57218 -80.6094,21.83444m-116.75532,210.68103c-2.64885,-4.72582 -6.86295,-7.25206 -10.78825,-6.114c-4.25574,1.23384 -7.8291,3.57068 -7.70531,8.56964c0.24242,9.79057 -0.0922,19.72288 1.47977,29.32347c2.41036,14.72089 5.17523,29.55176 9.74654,43.70386c4.62635,14.32248 11.48002,27.94488 17.68623,41.72616c1.91901,4.26123 8.47923,5.7666 12.69,3.67792c4.48146,-2.22296 6.36096,-7.53769 4.30237,-12.36069c-0.71753,-1.68112 -1.74471,-3.23511 -2.40508,-4.93475c-5.77303,-14.85843 -12.25339,-29.49747 -17.0393,-44.66989c-5.92937,-18.79743 -7.07347,-38.47879 -7.96697,-58.92172m51.43072,-164.99165c-4.53444,4.8701 -9.40832,9.47147 -13.52533,14.67203c-6.49828,8.20855 -12.71655,16.66414 -18.60634,25.31934c-3.41483,5.01817 -2.08068,10.07741 2.49384,13.08736c4.50272,2.9627 10.66548,1.59253 13.97027,-3.14896c2.3806,-3.41553 4.37874,-7.15854 7.11409,-10.25491c9.79411,-11.08682 19.78334,-22.0029 29.79544,-32.8947c4.2733,-4.64877 5.00185,-9.75844 1.62261,-13.82888c-3.56878,-4.29875 -8.93088,-4.74716 -14.22713,-0.80212c-2.91832,2.17378 -5.43762,4.88323 -8.63745,7.85084z" fill="#FFB703"/>
  <path id="svg_6" d="m252.10555,456.991c-36.78528,-1.57602 -70.57992,-11.29984 -101.41517,-30.82584c-32.75729,-20.74307 -57.59409,-48.52164 -74.32342,-83.4848c-10.52395,-21.99432 -16.40354,-45.20059 -18.48043,-69.52695c-3.35391,-39.28377 4.67089,-76.12475 23.0135,-110.77411c11.47775,-21.68156 26.82705,-40.3089 45.40956,-56.4427c27.06231,-23.49618 58.1324,-38.59346 93.19876,-45.21514c49.96968,-9.4359 97.0782,-1.11177 140.62108,25.13762c42.92459,25.87668 72.19866,63.09687 87.29412,110.81542c4.52005,14.28841 6.80896,29.48476 8.43054,44.44824c4.09293,37.76758 -3.92779,73.50678 -21.08563,107.15183c-14.92514,29.2669 -36.02368,53.30398 -62.95456,72.28894c-25.66601,18.0932 -53.99432,29.48306 -84.94262,34.04947c-11.29801,1.66699 -22.84659,1.63577 -34.76573,2.37802m-159.98246,-169.73578c7.84531,40.49741 27.46992,74.13482 59.66486,99.91644c35.74705,28.62619 76.69021,41.51016 122.42335,36.54285c40.11515,-4.35715 74.63239,-20.89649 102.89325,-50.13742c36.0723,-37.32328 51.11634,-82.31629 46.49994,-133.3086c-4.18609,-46.23924 -25.39081,-84.45221 -61.60055,-113.69759c-40.27173,-32.52608 -86.56827,-42.93597 -137.01224,-33.89038c-40.82713,7.32111 -73.97922,28.50441 -99.74083,60.82078c-23.74644,29.78845 -35.21516,64.29295 -36.06311,102.18336c-0.22849,10.21024 1.83063,20.47168 2.93533,31.57056z" fill="#F99300"/>
  <path id="svg_7" d="m451.00177,394.99377c-21.77493,30.37262 -48.45093,54.72074 -81.24692,72.10389c-7.19314,3.81262 -14.60199,7.24621 -22.04965,10.54223c-6.19061,2.73969 -12.29236,1.02726 -14.06879,-4.14688c-1.78546,-5.20053 -1.46142,-10.12604 6.52842,-13.52624c19.26724,-8.19956 37.19561,-18.62479 53.51132,-31.77225c21.7735,-17.54553 39.47021,-38.57529 53.14676,-62.92987c13.34814,-23.76984 22.01165,-49.2215 25.80215,-76.21076c1.36032,-9.68573 1.74668,-19.52008 2.30856,-29.30203c0.38852,-6.76423 3.89921,-10.86246 9.8115,-10.73047c5.65637,0.1263 9.26812,4.17897 9.23843,10.73526c-0.22397,49.42325 -14.72403,94.33258 -42.98178,135.23712z" fill="#FFCC29"/>
  <path id="svg_8" d="m155.66484,42.64607c25.70177,-12.09256 52.25287,-19.64743 80.27597,-21.66474c6.78459,-0.48841 13.58905,-0.82308 20.38927,-0.93629c6.24444,-0.10394 10.58072,3.97976 10.56259,9.48508c-0.01813,5.5061 -4.32428,9.34913 -10.61569,9.48586c-35.10341,0.76291 -68.50087,8.41083 -99.73665,24.75051c-2.94563,1.54089 -5.77158,3.31717 -8.75116,4.7851c-4.68796,2.30959 -10.15469,0.77332 -12.63245,-3.38389c-2.5596,-4.29453 -1.39413,-10.5424 3.01796,-13.18826c5.55351,-3.33036 11.42337,-6.13321 17.49016,-9.33337z" fill="#FFCC29"/>
  <path id="svg_9" d="m38.69038,253.90335c0.77921,20.03638 1.92331,39.71774 7.85268,58.51517c4.78591,15.17242 11.26627,29.81146 17.0393,44.66989c0.66037,1.69964 1.68755,3.25363 2.40508,4.93475c2.05859,4.823 0.17909,10.13773 -4.30237,12.36069c-4.21077,2.08868 -10.77099,0.58331 -12.69,-3.67792c-6.20621,-13.78128 -13.05988,-27.40368 -17.68623,-41.72616c-4.57131,-14.1521 -7.33618,-28.98297 -9.74654,-43.70386c-1.57197,-9.60059 -1.23735,-19.5329 -1.47977,-29.32347c-0.12379,-4.99896 3.44957,-7.3358 7.70531,-8.56964c3.9253,-1.13806 8.1394,1.38818 10.90254,6.52055z" fill="#FFCC29"/>
  <path id="svg_10" d="m90.25713,88.25532c2.94951,-2.71778 5.46881,-5.42723 8.38713,-7.60101c5.29625,-3.94504 10.65835,-3.49663 14.22713,0.80212c3.37924,4.07044 2.65069,9.18011 -1.62261,13.82888c-10.0121,10.8918 -20.00133,21.80788 -29.79544,32.8947c-2.73535,3.09637 -4.73349,6.83938 -7.11409,10.25491c-3.30479,4.74149 -9.46755,6.11166 -13.97027,3.14896c-4.57452,-3.00995 -5.90867,-8.06919 -2.49384,-13.08736c5.88979,-8.6552 12.10806,-17.11079 18.60634,-25.31934c4.11701,-5.20056 8.99089,-9.80193 13.77565,-14.92186z" fill="#FFCC28"/>
  <path id="svg_11" d="m92.07526,286.82477c-1.05687,-10.66843 -3.11599,-20.92987 -2.8875,-31.14011c0.84795,-37.89041 12.31667,-72.39491 36.06311,-102.18336c25.76161,-32.31637 58.9137,-53.49967 99.74083,-60.82078c50.44397,-9.04559 96.74051,1.3643 137.01224,33.89038c36.20974,29.24538 57.41446,67.45835 61.60055,113.69759c4.6164,50.99231 -10.42764,95.98532 -46.49994,133.3086c-28.26086,29.24093 -62.7781,45.78027 -102.89325,50.13742c-45.73314,4.96731 -86.6763,-7.91666 -122.42335,-36.54285c-32.19494,-25.78162 -51.81955,-59.41903 -59.71269,-100.34689m126.7211,-61.54538c-2.47243,3.55528 -5.15131,6.98781 -7.35892,10.70055c-2.18843,3.68044 -4.50848,4.51536 -8.59802,2.66067c-19.56713,-8.87416 -39.24033,-17.51613 -58.94164,-26.0894c-1.57121,-0.68373 -3.99231,-0.83331 -5.35335,-0.06021c-0.84501,0.47998 -0.95425,3.31862 -0.51327,4.84404c11.51605,39.83506 23.22859,79.61351 34.66336,119.47169c1.54277,5.37772 3.99776,7.36435 9.7525,7.33862c49.49483,-0.22167 98.99109,-0.12643 148.48691,-0.12817c8.1741,-0.0003 8.19366,0.00015 10.54794,-8.07349c11.42154,-39.16848 22.86185,-78.33166 34.15583,-117.53691c0.5578,-1.93624 -0.19526,-4.25015 -0.33793,-6.38819c-2.00723,0.27856 -4.20346,0.12319 -5.9927,0.90235c-19.24069,8.37879 -38.47153,16.78563 -57.57035,25.48072c-4.38256,1.99527 -6.7279,1.25534 -9.40972,-2.71299c-13.24411,-19.59748 -26.77036,-39.00439 -40.21439,-58.46658c-4.35712,-6.30754 -5.88159,-6.28241 -10.31108,0.13605c-10.88107,15.76695 -21.74585,31.54516 -33.00517,47.92125z" fill="#FFCC29"/>
  <path id="svg_12" d="m218.99036,224.97818c11.06532,-16.07488 21.9301,-31.85309 32.81117,-47.62004c4.42949,-6.41846 5.95396,-6.44359 10.31108,-0.13605c13.44403,19.46219 26.97028,38.8691 40.21439,58.46658c2.68182,3.96833 5.02716,4.70826 9.40972,2.71299c19.09882,-8.69509 38.32966,-17.10193 57.57035,-25.48072c1.78924,-0.77916 3.98547,-0.62379 5.9927,-0.90235c0.14267,2.13804 0.89573,4.45195 0.33793,6.38819c-11.29398,39.20525 -22.73429,78.36843 -34.15583,117.53691c-2.35428,8.07364 -2.37384,8.07319 -10.54794,8.07349c-49.49582,0.00174 -98.99208,-0.0935 -148.48691,0.12817c-5.75474,0.02573 -8.20973,-1.9609 -9.7525,-7.33862c-11.43477,-39.85818 -23.14731,-79.63663 -34.66336,-119.47169c-0.44098,-1.52542 -0.33174,-4.36406 0.51327,-4.84404c1.36104,-0.7731 3.78214,-0.62352 5.35335,0.06021c19.70131,8.57327 39.37451,17.21524 58.94164,26.0894c4.08954,1.85469 6.40959,1.01977 8.59802,-2.66067c2.20761,-3.71274 4.88649,-7.14527 7.55292,-11.00176z" fill="#F99300"/>
 </g>
</svg>