<svg width="512" height="512" xmlns="http://www.w3.org/2000/svg" xml:space="preserve" enable-background="new 0 0 512 512" version="1.1">

 <g>
  <title>Layer 1</title>
  <path id="svg_1" d="m1,289c0,-21.35422 0,-42.70845 0.33258,-64.19165c0.7749,-0.96353 1.47682,-1.75647 1.61824,-2.63924c1.07921,-6.73645 1.51831,-13.62158 3.14767,-20.21554c6.06376,-24.53969 14.32393,-48.26247 26.92122,-70.35153c16.41439,-28.78225 37.39935,-53.58297 63.2005,-74.39714c17.51569,-14.13017 36.38862,-25.91669 57.02889,-34.9108c22.38556,-9.75464 45.51665,-16.72439 69.8687,-19.37605c0.68884,-0.075 1.2575,-1.25389 1.8822,-1.91805c21.02089,0 42.04178,0 63.19131,0.33708c0.96604,0.77639 1.75709,1.43051 2.6478,1.62286c13.88519,2.99833 27.92435,5.40217 41.64307,9.02283c17.71356,4.67497 34.31946,12.26894 50.28546,21.29527c16.35473,9.24609 31.89694,19.75403 45.40958,32.7144c11.88131,11.39567 23.15249,23.59406 33.45254,36.43317c15.90552,19.8264 27.69541,42.20636 36.30777,66.13056c6.36386,17.67824 11.43808,35.72723 13.14642,54.56576c0.0615,0.67836 1.2518,1.25437 1.91605,1.87807c0,10.68756 0,21.37512 -0.28912,32.36777c-1.73416,-1.0672 -3.21067,-2.40795 -4.61957,-3.81638c-33.86142,-33.84932 -67.70224,-67.71931 -101.61078,-101.52133c-1.68695,-1.68166 -3.95166,-2.78377 -6.04828,-4.21947c-0.22482,-0.18599 -0.32037,-0.32745 -0.4046,-0.82823c-0.37619,-0.88354 -0.73532,-1.427 -1.06458,-1.97699c0.02991,-0.00656 0.01618,0.05304 -0.1098,-0.16504c-0.38946,-0.42174 -0.65295,-0.6254 -0.88632,-0.83618c0.03009,-0.00711 0.02631,0.05463 -0.1398,-0.18494c-0.50009,-0.43757 -0.83405,-0.63562 -1.4104,-1.03856c-9.00757,-8.82392 -17.20368,-18.13414 -26.65723,-25.91694c-19.19647,-15.80377 -40.96802,-26.8933 -65.18411,-33.25298c-15.64606,-4.10897 -31.44742,-6.19927 -48.01627,-6.49759c-10.34074,0.89512 -20.29162,1.38185 -30.09227,2.8628c-34.75909,5.25229 -65.16385,20.25412 -90.6521,44.09229c-45.16005,42.23644 -64.36395,94.7738 -57.53353,156.16151c2.93618,26.38842 12.55939,50.89215 26.86064,73.41998c10.35335,16.30899 23.27621,30.33011 37.95428,43.20001c0.39366,0.57529 0.67516,0.8638 0.92563,1.15244c-0.03101,0.00015 -0.01799,-0.06049 0.1129,0.15475c0.39331,0.4206 0.65573,0.62598 0.88911,0.83759c-0.029,0.00625 -0.02108,-0.05255 0.20607,0.20587c0.88318,0.44592 1.53922,0.63342 2.28978,0.8659c0.09456,0.04499 0.3649,0.33268 0.39042,0.71653c1.41407,2.20187 2.61672,4.20541 4.2185,5.81067c33.82257,33.89569 67.69325,67.7434 101.53877,101.61621c1.51992,1.52115 2.8918,3.19018 4.33266,4.79031c-10.68756,0 -21.37512,0 -32.19133,-0.33575c-0.96585,-0.77597 -1.76285,-1.48008 -2.64661,-1.61475c-7.07852,-1.07855 -14.32479,-1.44186 -21.23603,-3.16312c-24.34444,-6.06298 -47.82123,-14.33487 -69.8402,-26.75738c-29.07341,-16.40244 -53.92184,-37.52316 -74.91266,-63.39313c-14.16964,-17.46326 -25.91234,-36.35242 -34.8645,-56.98508c-9.71441,-22.38946 -16.88051,-45.4736 -19.39115,-69.86651c-0.07067,-0.68662 -1.25336,-1.25876 -1.91752,-1.88428z" fill="#C774F0"/>
  <path id="svg_2" d="m400.5332,147.87431c1.99567,1.37198 4.26038,2.47409 5.94733,4.15575c33.90854,33.80202 67.74936,67.67201 101.61078,101.52133c1.4089,1.40843 2.88541,2.74918 4.61957,4.28504c0.28912,10.18448 0.28912,20.20535 -0.10773,30.49237c-0.78558,0.94619 -1.37702,1.583 -1.53293,2.31286c-2.97989,13.94663 -5.33038,28.05786 -8.98895,41.82196c-4.97699,18.72409 -13.05133,36.26331 -22.85343,52.9946c-9.26379,15.81244 -19.73995,30.76608 -32.34332,44.07279c-7.62857,8.05423 -15.79431,15.62683 -24.02447,23.07806c-13.82846,12.51959 -29.35327,22.74866 -45.82355,31.34198c-27.09583,14.13724 -55.66727,23.94589 -86.26923,27.15503c-0.64819,0.06796 -1.18078,1.23798 -1.76727,1.89392c-10.02091,0 -20.04178,0 -30.53134,0c-1.90952,-1.60013 -3.2814,-3.26916 -4.80132,-4.79031c-33.84552,-33.87281 -67.7162,-67.72052 -101.53877,-101.61621c-1.60178,-1.60526 -2.80443,-3.6088 -3.8857,-5.60746c1.39696,0.5781 2.48491,1.33936 3.57657,2.09528c31.63602,21.9075 66.3035,34.37088 105.63454,33.80762c11.34308,-0.97626 22.42957,-0.9939 33.06284,-3.19791c61.86706,-12.82339 106.00967,-48.33603 131.8468,-105.90314c11.8023,-26.29638 16.06689,-54.17834 13.77719,-83.09494c-1.41126,-17.82295 -4.64945,-35.1165 -10.98236,-51.84706c-6.11362,-16.15132 -14.77728,-30.87907 -24.62525,-44.97156z" fill="#9F4AD4"/>
  <path id="svg_7" d="m256.98801,436.83758c-38.86507,0.6146 -73.53255,-11.84878 -105.16857,-33.75628c-1.09166,-0.75592 -2.17961,-1.51718 -3.60209,-2.47913c-0.3328,-0.20321 -0.60314,-0.4909 -0.95482,-0.77392c-0.98773,-0.48407 -1.62378,-0.68518 -2.25981,-0.88629c0,0 -0.00792,0.0588 -0.03876,-0.2146c-0.34061,-0.44416 -0.65038,-0.6149 -0.96016,-0.78568c0,0 -0.01302,0.06064 -0.07722,-0.23007c-0.35703,-0.57669 -0.64982,-0.8627 -0.9426,-1.14868c-14.56589,-12.5831 -27.48875,-26.60422 -37.8421,-42.91321c-14.30125,-22.52783 -23.92446,-47.03156 -26.86064,-73.41998c-6.83042,-61.38771 12.37348,-113.92507 57.53353,-156.16151c25.48825,-23.83817 55.89301,-38.84 90.6521,-44.09229c9.80065,-1.48095 19.75153,-1.96768 30.08748,-2.40735c0.45481,16.13674 0.45563,31.77042 0.45075,47.6672c-0.00858,0.43834 -0.01145,0.61357 -0.48044,0.77083c-13.52704,-0.77483 -26.12636,1.91582 -38.94052,4.92029c-6.22954,-5.49284 -12.38543,-10.4465 -20.96701,-11.93568c-4.89196,-0.96558 -9.43848,-1.73707 -14.84944,-2.65525c0,12.13387 0,22.86881 -0.33226,33.6801c-1.36741,0.60411 -2.53745,0.96643 -3.41761,1.68422c-15.23002,12.42049 -28.2926,26.62932 -37.53834,44.2031c-13.24289,25.17135 -17.2152,51.84568 -13.48655,79.79313c4.5059,33.7732 20.96801,60.9552 46.53827,82.93466c2.47445,2.12693 5.48201,3.63358 8.31206,5.88819c0.06996,11.22784 0.06996,21.99566 0.06996,33.13318c5.48307,0 10.25653,0 15.49508,0.07199c5.05273,0.07196 9.64038,0.07196 14.73959,0.07196c0,-6.11786 0,-11.43082 0.37658,-16.73523c14.71103,4.61902 29.26928,7.80341 44.49787,6.96301c0.03317,0.03491 0.09808,0.10602 0.07251,0.56586c-0.05264,16.38904 -0.07974,32.31824 -0.10684,48.24743z" fill="#6CB1F8"/>
  <path id="svg_8" d="m257.01077,124.97269c-0.00079,-15.63368 -0.00161,-31.26736 0.00235,-47.35649c16.11487,-0.20474 31.91623,1.88556 47.56229,5.99453c24.21609,6.35968 45.98764,17.44921 65.18411,33.25298c9.45355,7.7828 17.64966,17.09302 26.83576,26.15382c0.74661,0.6416 1.07229,0.84142 1.39798,1.04125c0,0 0.00378,-0.06174 0.05111,0.20327c0.34317,0.44214 0.63901,0.61925 0.93488,0.79636c0,0 0.01373,-0.0596 -0.01303,0.27963c0.34164,0.88765 0.71005,1.43604 1.07849,1.98442c0.06717,0.16068 0.16272,0.30214 0.38754,0.48813c9.94892,14.15621 18.61258,28.88396 24.7262,45.03528c6.33291,16.73056 9.5711,34.02411 10.98236,51.84706c2.2897,28.9166 -1.97489,56.79856 -13.77719,83.09494c-25.83713,57.56711 -69.97974,93.07975 -131.8468,105.90314c-10.63327,2.20401 -21.71976,2.22165 -33.06284,3.19791c-0.43887,-15.98053 -0.41177,-31.90973 0.0943,-48.33176c16.43973,0.23087 31.62271,-3.49991 46.57031,-8.07443c-0.00644,5.98163 -0.00644,11.49591 -0.00644,17.13507c5.37818,0 10.10916,0 15.30399,0.07773c5.03888,0.07772 9.61392,0.07772 15.06686,0.07772c0,-12.31308 0,-24.02203 0.33536,-35.74905c2.05258,-0.99716 4.10297,-1.65039 5.43195,-3.00925c7.55307,-7.72274 16.07806,-14.81729 22.18087,-23.58188c31.27997,-44.92306 34.74707,-92.29686 9.95285,-141.2209c-3.8956,-7.68681 -10.10986,-14.19854 -15.32995,-21.71373c-0.11637,-2.78521 -0.18653,-5.11032 -0.18817,-7.43544c-0.01035,-14.78813 0.06283,-29.57705 -0.10886,-44.3632c-0.01761,-1.51999 -1.32394,-4.21143 -2.27936,-4.32764c-4.02118,-0.48905 -8.1362,-0.20676 -12.6131,-0.20676c0,11.90352 0.04007,23.01877 -0.03839,34.13317c-0.01349,1.91005 -0.53164,3.81653 -0.99463,5.43956c-4.67517,-3.12088 -9.17233,-5.95668 -13.75284,-9.2515c-0.08328,-10.21554 -0.08328,-19.97206 -0.08328,-30.10403c-3.17785,0 -5.60977,0 -8.47201,-0.09558c-2.32733,-0.09558 -4.22428,-0.09558 -6.6839,-0.09558c0,7.35795 0,14.06418 -0.3562,20.7124c-5.01126,-1.6855 -9.66632,-3.313 -14.3834,-5.4016c-0.06204,-5.0447 -0.06204,-9.62831 -0.06204,-14.19926c-5.4082,0 -9.99481,0 -15.21795,0c0,3.7496 0,7.20412 -0.3837,10.58304c-1.67587,-0.34461 -2.95624,-0.72457 -4.26224,-0.86399c-6.71747,-0.71711 -13.4415,-1.37243 -20.16324,-2.04934z" fill="#5298F3"/>
  <path id="svg_9" d="m145.22987,399.20038c0.40888,-0.05731 1.04493,0.1438 1.9381,0.58292c-0.39888,0.0505 -1.05492,-0.137 -1.9381,-0.58292z" fill="#9F4AD4"/>
  <path id="svg_10" d="m400.02765,146.98236c-0.35138,-0.20828 -0.71979,-0.75667 -1.09131,-1.63776c0.35599,0.21076 0.71512,0.75422 1.09131,1.63776z" fill="#9F4AD4"/>
  <path id="svg_11" d="m398.85327,144.84033c-0.16989,0.04097 -0.46573,-0.13614 -0.83899,-0.57115c0.18604,-0.05425 0.44953,0.14941 0.83899,0.57115z" fill="#9F4AD4"/>
  <path id="svg_12" d="m143.09616,396.84973c0.1806,-0.00082 0.47339,0.28519 0.86142,0.86173c-0.18626,0.00207 -0.46776,-0.28644 -0.86142,-0.86173z" fill="#9F4AD4"/>
  <path id="svg_13" d="m144.13469,398.15692c0.17889,-0.04446 0.48866,0.12628 0.85829,0.56421c-0.20256,0.06177 -0.46498,-0.14361 -0.85829,-0.56421z" fill="#9F4AD4"/>
  <path id="svg_14" d="m397.82715,143.81921c-0.15958,0.03974 -0.48526,-0.16008 -0.98947,-0.59678c0.15542,-0.03884 0.48938,0.15921 0.98947,0.59678z" fill="#9F4AD4"/>
  <path id="svg_15" d="m304.125,380.01541c-14.95401,5.04184 -30.13699,8.77262 -46.55115,8.08191c-0.45343,0.03299 -0.51834,-0.03812 -0.548,-0.5405c-0.03146,-87.51229 -0.0333,-174.52227 -0.0351,-261.53223c0.0029,-0.17523 0.00577,-0.35046 0.01435,-0.7888c6.72741,0.41381 13.45144,1.06913 20.16891,1.78624c1.306,0.13942 2.58637,0.51938 4.32691,1.33146c0.46963,22.83671 0.50939,45.13037 0.50222,67.42401c-0.00253,7.83188 3.63828,13.6772 10.14823,17.51728c3.60678,2.12755 7.79947,3.26183 12.20538,5.03603c0,1.74286 0,3.88844 0,6.03404c0,49.08001 0.00385,98.15999 -0.00989,147.23998c-0.00079,2.80356 -0.14462,5.60705 -0.22186,8.41058z" fill="#6CB1F8"/>
  <path id="svg_16" d="m256.52466,126.00662c0.46789,87.02793 0.46973,174.03791 0.46802,261.51532c-15.19893,1.34275 -29.75718,-1.84164 -44.5152,-6.93149c-0.44155,-30.11456 -0.46185,-59.74972 -0.47638,-89.38491c-0.00644,-13.14829 -0.0011,-13.14829 13.33948,-13.20569c6.61238,-0.02844 6.65413,-0.04914 6.65568,-6.72013c0.00785,-33.63124 -0.14457,-67.26342 0.07141,-100.89329c0.09615,-14.97132 -4.02551,-28.15619 -14.20315,-39.28391c12.53378,-3.18008 25.1331,-5.87073 38.66014,-5.0959z" fill="#8CC7FC"/>
  <path id="svg_17" d="m181.7733,364.05936c-2.76009,-1.79459 -5.76765,-3.30124 -8.2421,-5.42817c-25.57026,-21.97946 -42.03237,-49.16146 -46.53827,-82.93466c-3.72865,-27.94745 0.24366,-54.62178 13.48655,-79.79313c9.24574,-17.57378 22.30832,-31.78261 37.53834,-44.2031c0.88016,-0.71779 2.0502,-1.08011 3.49483,-1.21647c0.43158,70.62516 0.45439,140.85891 0.46678,211.09268c0.00014,0.8276 -0.13443,1.65524 -0.20613,2.48285z" fill="#8CC7FC"/>
  <path id="svg_18" d="m217.58414,130.92691c10.45802,11.30333 14.57968,24.4882 14.48353,39.45952c-0.21598,33.62987 -0.06356,67.26205 -0.07141,100.89329c-0.00155,6.67099 -0.0433,6.69169 -6.65568,6.72013c-13.34058,0.0574 -13.34592,0.0574 -13.33948,13.20569c0.01453,29.63519 0.03483,59.27035 0.09979,89.37637c0.047,5.78378 0.047,11.09674 0.047,17.2146c-5.09921,0 -9.68686,0 -14.73453,-0.35169c-0.43719,-0.72442 -0.41435,-1.09719 -0.22305,-1.63238c0.06202,-0.69714 -0.04439,-1.23181 -0.16126,-2.23795c-0.02911,-91.77734 -0.04779,-183.08326 -0.06648,-274.38917c8.23614,1.29509 14.39203,6.24875 20.62157,11.74159z" fill="#E9EDF5"/>
  <path id="svg_19" d="m196.61713,118.99123c0.36413,91.5 0.38281,182.80592 0.40338,274.90419c0.00171,1.2214 0.00152,1.65042 0.00134,2.07946c-0.02284,0.37275 -0.04568,0.74552 -0.07358,1.39798c-4.77852,0.2797 -9.55198,0.2797 -15.03505,0.2797c0,-11.13752 0,-21.90534 -0.06996,-33.13318c0.00174,-1.28763 0.13631,-2.11527 0.13617,-2.94287c-0.01239,-70.23377 -0.0352,-140.46752 -0.13452,-211.16904c-0.07722,-11.20268 -0.07722,-21.93762 -0.07722,-34.07149c5.41096,0.91818 9.95748,1.68967 14.84944,2.65525z" fill="#FFFFFF"/>
  <path id="svg_20" d="m357.13199,172.95857c5.14218,7.05506 11.35644,13.56679 15.25204,21.2536c24.79422,48.92404 21.32712,96.29784 -9.95285,141.2209c-6.10281,8.76459 -14.6278,15.85914 -22.18087,23.58188c-1.32898,1.35886 -3.37937,2.01209 -5.54371,2.54944c-0.4858,-47.41574 -0.5278,-94.38974 -0.53976,-141.36375c-0.00025,-0.93866 0.35065,-1.87743 0.51797,-2.71701c16.17267,-3.22728 22.16871,-10.63175 22.20868,-27.05112c0.01419,-5.8248 0.15534,-11.64931 0.2385,-17.47394z" fill="#6CB1F8"/>
  <path id="svg_21" d="m357.05408,172.49844c-0.00525,6.28476 -0.1464,12.10927 -0.16059,17.93407c-0.03997,16.41937 -6.03601,23.82384 -22.20868,27.05112c-0.16732,0.83958 -0.51822,1.77835 -0.51797,2.71701c0.01196,46.97401 0.05396,93.94801 0.20441,141.38182c0.11175,12.16876 0.11175,23.87771 0.11175,36.19079c-5.45294,0 -10.02798,0 -15.0748,-0.34448c-0.45343,-0.69989 -0.43502,-1.05533 -0.20123,-1.64953c0.0903,-1.39566 -0.03479,-2.55259 -0.17248,-4.18238c0.00061,-90.54699 0.01379,-180.62112 0.21923,-270.8964c0.04773,-1.02846 -0.0968,-1.85577 -0.26208,-2.95518c-0.02646,-0.63561 -0.03217,-0.99915 -0.03784,-1.36268c2.43188,0 4.8638,0 8.04165,0c0,10.13197 0,19.88849 -0.0104,30.56952c-0.03934,5.9131 0.08111,10.90861 -0.14945,15.88788c-0.15515,3.35049 1.22251,4.25624 4.38449,4.21208c11.14698,-0.15578 9.68799,0.7048 9.7815,-9.53204c0.00454,-0.49892 0.00537,-0.99788 0.00793,-1.49682c0.28504,-1.90812 0.80319,-3.8146 0.81668,-5.72465c0.07846,-11.1144 0.03839,-22.22965 0.03839,-34.13317c4.4769,0 8.59192,-0.28229 12.6131,0.20676c0.95542,0.11621 2.26175,2.80765 2.27936,4.32764c0.17169,14.78615 0.09851,29.57507 0.10886,44.3632c0.00164,2.32512 0.0718,4.65023 0.18817,7.43544z" fill="#E9EDF5"/>
  <path id="svg_22" d="m319.06149,120.90162c-0.01321,90.07412 -0.02639,180.14825 -0.03732,271.08758c-0.00937,1.91974 -0.02097,2.9743 -0.03259,4.02884c-0.0184,0.3554 -0.03681,0.71084 -0.04724,1.333c-4.72303,0.26676 -9.45401,0.26676 -14.83219,0.26676c0,-5.63916 0,-11.15344 0.00644,-17.13507c0.08365,-3.27085 0.22748,-6.07434 0.22827,-8.8779c0.01374,-49.07999 0.00989,-98.15997 0.00989,-147.23998c0,-2.1456 0,-4.29118 0,-6.03404c-4.40591,-1.7742 -8.5986,-2.90848 -12.20538,-5.03603c-6.50995,-3.84008 -10.15076,-9.6854 -10.14823,-17.51728c0.00717,-22.29364 -0.03259,-44.5873 -0.11856,-67.34841c-0.06463,-3.92199 -0.06463,-7.37651 -0.06463,-11.12611c5.22314,0 9.80975,0 15.21795,0c0,4.57095 0,9.15456 0.00354,14.66722c0.00357,12.13168 0.00357,23.3343 0.00357,35.02191c4.06931,0 7.51615,-0.09495 10.95514,0.02834c3.06381,0.10983 4.06555,-1.34587 4.02191,-4.226c-0.13037,-8.60982 -0.13113,-17.2216 -0.18252,-25.83261c0,-6.70622 0,-13.41245 0,-20.7704c2.45962,0 4.35657,0 6.68387,0.09558c0.43606,0.45911 0.44177,0.82265 0.47345,1.81962c0.03888,1.35395 0.05175,2.07447 0.06463,2.79498z" fill="#FFFFFF"/>
  <path id="svg_23" d="m311.48334,136.90384c0.40759,8.66901 0.40835,17.28079 0.53872,25.89061c0.04364,2.88013 -0.9581,4.33583 -4.02191,4.226c-3.43899,-0.12329 -6.88583,-0.02834 -10.95514,-0.02834c0,-11.68761 0,-22.89023 0.05851,-34.56082c4.7135,1.15955 9.36856,2.78705 14.37982,4.47255z" fill="#6CB1F8"/>
  <path id="svg_24" d="m340.83154,155.73813c0.17542,0.78403 0.17459,1.28299 0.17005,1.78191c-0.09351,10.23684 1.36548,9.37626 -9.7815,9.53204c-3.16198,0.04416 -4.53964,-0.86159 -4.38449,-4.21208c0.23056,-4.97927 0.11011,-9.97478 0.23276,-15.42887c4.59088,2.37032 9.08804,5.20612 13.76318,8.327z" fill="#6CB1F8"/>
  <path id="svg_25" d="m197.19031,395.81244c-0.16828,-0.2666 -0.16809,-0.69562 -0.15935,-1.44559c0.11496,0.21378 0.22137,0.74845 0.15935,1.44559z" fill="#D9E8FA"/>
  <path id="svg_26" d="m319.20697,395.77924c-0.20377,-0.81574 -0.19217,-1.8703 -0.17023,-3.31714c0.13544,0.76455 0.26053,1.92148 0.17023,3.31714z" fill="#D3E3F9"/>
  <path id="svg_27" d="m319.25372,120.70046c-0.20511,-0.51935 -0.21798,-1.23987 -0.23608,-2.32174c0.13928,0.46597 0.28381,1.29328 0.23608,2.32174z" fill="#CADDF6"/>
 </g>
</svg>