<svg version="1.1" id="Layer_1" xmlns="http://www.w3.org/2000/svg" xmlns:xlink="http://www.w3.org/1999/xlink" x="0px" y="0px"
	 width="100%" viewBox="0 0 512 512" enable-background="new 0 0 512 512" xml:space="preserve">
<path fill="#C774F0" opacity="1.000000" stroke="none" 
	d="
M0.999999,289.000000 
	C1.000000,267.645782 1.000000,246.291550 1.332578,224.808350 
	C2.107476,223.844818 2.809402,223.051880 2.950822,222.169113 
	C4.030031,215.432663 4.469126,208.547531 6.098495,201.953568 
	C12.162251,177.413879 20.422419,153.691101 33.019711,131.602036 
	C49.434097,102.819794 70.419060,78.019066 96.220207,57.204899 
	C113.735901,43.074730 132.608826,31.288214 153.249100,22.294098 
	C175.634659,12.539462 198.765747,5.569710 223.117798,2.918054 
	C223.806641,2.843046 224.375305,1.664163 225.000000,1.000001 
	C246.020889,1.000000 267.041779,1.000000 288.191315,1.337078 
	C289.157349,2.113467 289.948395,2.767593 290.839111,2.959936 
	C304.724304,5.958268 318.763458,8.362111 332.482178,11.982768 
	C350.195740,16.657740 366.801636,24.251707 382.767639,33.278042 
	C399.122375,42.524132 414.664581,53.032070 428.177216,65.992439 
	C440.058533,77.388115 451.329712,89.586502 461.629761,102.425613 
	C477.535278,122.252007 489.325165,144.631973 497.937531,168.556168 
	C504.301392,186.234406 509.375610,204.283401 511.083954,223.121933 
	C511.145447,223.800293 512.335754,224.376297 513.000000,225.000000 
	C513.000000,235.687561 513.000000,246.375122 512.710876,257.367767 
	C510.976715,256.300568 509.500214,254.959824 508.091309,253.551392 
	C474.229889,219.702072 440.389069,185.832077 406.480530,152.030060 
	C404.793579,150.348404 402.528870,149.246292 400.432251,147.810593 
	C400.207428,147.624603 400.111877,147.483139 400.027649,146.982361 
	C399.651459,146.098816 399.292328,145.555359 398.963074,145.005371 
	C398.992981,144.998810 398.979248,145.058411 398.853271,144.840332 
	C398.463806,144.418594 398.200317,144.214935 397.966949,144.004150 
	C397.997040,143.997040 397.993256,144.058777 397.827148,143.819214 
	C397.327057,143.381638 396.993103,143.183594 396.416748,142.780655 
	C387.409180,133.956726 379.213074,124.646507 369.759521,116.863708 
	C350.563049,101.059944 328.791504,89.970406 304.575409,83.610733 
	C288.929352,79.501755 273.127991,77.411461 256.559143,77.113144 
	C246.218399,78.008255 236.267517,78.494987 226.466873,79.975937 
	C191.707779,85.228233 161.303024,100.230064 135.814774,124.068230 
	C90.654716,166.304672 71.450821,218.842026 78.281242,280.229736 
	C81.217415,306.618164 90.840630,331.121887 105.141876,353.649719 
	C115.495232,369.958710 128.418091,383.979828 143.096161,396.849731 
	C143.489822,397.425018 143.771317,397.713531 144.021790,398.002167 
	C143.990784,398.002319 144.003799,397.941681 144.134689,398.156921 
	C144.528000,398.577515 144.790421,398.782898 145.023804,398.994507 
	C144.994797,399.000763 145.002716,398.941956 145.229874,399.200378 
	C146.113052,399.646301 146.769089,399.833801 147.519653,400.066284 
	C147.614212,400.111267 147.884552,400.398956 147.910065,400.782806 
	C149.324142,402.984680 150.526794,404.988220 152.128571,406.593475 
	C185.951141,440.489166 219.821823,474.336884 253.667343,508.209686 
	C255.187256,509.730835 256.559143,511.399872 258.000000,513.000000 
	C247.312439,513.000000 236.624878,513.000000 225.808670,512.664246 
	C224.842819,511.888275 224.045822,511.184174 223.162064,511.049500 
	C216.083542,509.970947 208.837265,509.607635 201.926025,507.886383 
	C177.581589,501.823395 154.104797,493.551514 132.085831,481.128998 
	C103.012421,464.726562 78.163986,443.605835 57.173168,417.735870 
	C43.003532,400.272614 31.260830,381.383453 22.308668,360.750793 
	C12.594261,338.361328 5.428160,315.277191 2.917520,290.884277 
	C2.846850,290.197662 1.664161,289.625519 0.999999,289.000000 
z"/>
<path fill="#9F4AD4" opacity="1.000000" stroke="none" 
	d="
M400.533203,147.874313 
	C402.528870,149.246292 404.793579,150.348404 406.480530,152.030060 
	C440.389069,185.832077 474.229889,219.702072 508.091309,253.551392 
	C509.500214,254.959824 510.976715,256.300568 512.710876,257.836426 
	C513.000000,268.020905 513.000000,278.041779 512.603149,288.328796 
	C511.817566,289.274994 511.226135,289.911804 511.070221,290.641663 
	C508.090332,304.588287 505.739838,318.699524 502.081268,332.463623 
	C497.104279,351.187714 489.029938,368.726929 479.227844,385.458221 
	C469.964050,401.270660 459.487885,416.224304 446.884521,429.531006 
	C439.255951,437.585236 431.090210,445.157837 422.860046,452.609070 
	C409.031586,465.128662 393.506775,475.357727 377.036499,483.951050 
	C349.940674,498.088287 321.369232,507.896942 290.767273,511.106079 
	C290.119080,511.174042 289.586487,512.344055 289.000000,513.000000 
	C278.979095,513.000000 268.958221,513.000000 258.468658,513.000000 
	C256.559143,511.399872 255.187256,509.730835 253.667343,508.209686 
	C219.821823,474.336884 185.951141,440.489166 152.128571,406.593475 
	C150.526794,404.988220 149.324142,402.984680 148.242874,400.986023 
	C149.639832,401.564117 150.727783,402.325378 151.819443,403.081299 
	C183.455460,424.988800 218.122940,437.452179 257.453979,436.888916 
	C268.797058,435.912659 279.883545,435.895020 290.516815,433.691010 
	C352.383881,420.867615 396.526489,385.354980 422.363617,327.787872 
	C434.165924,301.491486 438.430511,273.609528 436.140808,244.692932 
	C434.729553,226.869980 431.491364,209.576431 425.158447,192.845871 
	C419.044830,176.694550 410.381165,161.966797 400.533203,147.874313 
z"/>
<path fill="#000000" opacity="1.000000" stroke="none" 
	d="
M513.000000,224.531342 
	C512.335754,224.376297 511.145447,223.800293 511.083954,223.121933 
	C509.375610,204.283401 504.301392,186.234406 497.937531,168.556168 
	C489.325165,144.631973 477.535278,122.252007 461.629761,102.425613 
	C451.329712,89.586502 440.058533,77.388115 428.177216,65.992439 
	C414.664581,53.032070 399.122375,42.524132 382.767639,33.278042 
	C366.801636,24.251707 350.195740,16.657740 332.482178,11.982768 
	C318.763458,8.362111 304.724304,5.958268 290.839111,2.959936 
	C289.948395,2.767593 289.157349,2.113467 288.659973,1.337078 
	C363.593719,1.000000 438.187408,1.000000 513.000000,1.000000 
	C513.000000,75.354088 513.000000,149.708389 513.000000,224.531342 
z"/>
<path fill="#000000" opacity="1.000000" stroke="none" 
	d="
M0.999999,289.468658 
	C1.664161,289.625519 2.846850,290.197662 2.917520,290.884277 
	C5.428160,315.277191 12.594261,338.361328 22.308668,360.750793 
	C31.260830,381.383453 43.003532,400.272614 57.173168,417.735870 
	C78.163986,443.605835 103.012421,464.726562 132.085831,481.128998 
	C154.104797,493.551514 177.581589,501.823395 201.926025,507.886383 
	C208.837265,509.607635 216.083542,509.970947 223.162064,511.049500 
	C224.045822,511.184174 224.842819,511.888275 225.340012,512.664246 
	C150.406296,513.000000 75.812599,513.000000 1.000000,513.000000 
	C1.000000,438.645905 1.000000,364.291626 0.999999,289.468658 
z"/>
<path fill="#000000" opacity="1.000000" stroke="none" 
	d="
M289.468628,513.000000 
	C289.586487,512.344055 290.119080,511.174042 290.767273,511.106079 
	C321.369232,507.896942 349.940674,498.088287 377.036499,483.951050 
	C393.506775,475.357727 409.031586,465.128662 422.860046,452.609070 
	C431.090210,445.157837 439.255951,437.585236 446.884521,429.531006 
	C459.487885,416.224304 469.964050,401.270660 479.227844,385.458221 
	C489.029938,368.726929 497.104279,351.187714 502.081268,332.463623 
	C505.739838,318.699524 508.090332,304.588287 511.070221,290.641663 
	C511.226135,289.911804 511.817566,289.274994 512.603149,288.797424 
	C513.000000,363.593719 513.000000,438.187408 513.000000,513.000000 
	C438.645905,513.000000 364.291626,513.000000 289.468628,513.000000 
z"/>
<path fill="#000000" opacity="1.000000" stroke="none" 
	d="
M224.531342,1.000001 
	C224.375305,1.664163 223.806641,2.843046 223.117798,2.918054 
	C198.765747,5.569710 175.634659,12.539462 153.249100,22.294098 
	C132.608826,31.288214 113.735901,43.074730 96.220207,57.204899 
	C70.419060,78.019066 49.434097,102.819794 33.019711,131.602036 
	C20.422419,153.691101 12.162251,177.413879 6.098495,201.953568 
	C4.469126,208.547531 4.030031,215.432663 2.950822,222.169113 
	C2.809402,223.051880 2.107476,223.844818 1.332578,224.339691 
	C1.000000,149.739456 1.000000,75.478920 1.000000,1.000000 
	C75.354088,1.000000 149.708389,1.000000 224.531342,1.000001 
z"/>
<path fill="#6CB1F8" opacity="1.000000" stroke="none" 
	d="
M256.988007,436.837585 
	C218.122940,437.452179 183.455460,424.988800 151.819443,403.081299 
	C150.727783,402.325378 149.639832,401.564117 148.217346,400.602173 
	C147.884552,400.398956 147.614212,400.111267 147.262527,399.828247 
	C146.274796,399.344177 145.638748,399.143066 145.002716,398.941956 
	C145.002716,398.941956 144.994797,399.000763 144.963959,398.727356 
	C144.623352,398.283203 144.313583,398.112457 144.003799,397.941681 
	C144.003799,397.941681 143.990784,398.002319 143.926575,397.711609 
	C143.569550,397.134918 143.276764,396.848907 142.983978,396.562927 
	C128.418091,383.979828 115.495232,369.958710 105.141876,353.649719 
	C90.840630,331.121887 81.217415,306.618164 78.281242,280.229736 
	C71.450821,218.842026 90.654716,166.304672 135.814774,124.068230 
	C161.303024,100.230064 191.707779,85.228233 226.466873,79.975937 
	C236.267517,78.494987 246.218399,78.008255 256.554352,77.568588 
	C257.009155,93.705330 257.009979,109.339012 257.005096,125.235794 
	C256.996521,125.674126 256.993652,125.849358 256.524658,126.006622 
	C242.997620,125.231789 230.398300,127.922440 217.584137,130.926910 
	C211.354599,125.434067 205.198715,120.480415 196.617126,118.991226 
	C191.725174,118.025650 187.178650,117.254158 181.767685,116.335976 
	C181.767685,128.469849 181.767685,139.204788 181.435425,150.016083 
	C180.068024,150.620193 178.897980,150.982513 178.017822,151.700302 
	C162.787796,164.120789 149.725220,178.329620 140.479477,195.903397 
	C127.236588,221.074753 123.264282,247.749084 126.992928,275.696533 
	C131.498825,309.469727 147.960938,336.651733 173.531204,358.631195 
	C176.005646,360.758118 179.013214,362.264771 181.843262,364.519379 
	C181.913223,375.747223 181.913223,386.515045 181.913223,397.652557 
	C187.396286,397.652557 192.169754,397.652557 197.408295,397.724548 
	C202.461029,397.796509 207.048676,397.796509 212.147888,397.796509 
	C212.147888,391.678650 212.147888,386.365692 212.524475,381.061279 
	C227.235504,385.680298 241.793747,388.864685 257.022339,388.024292 
	C257.055511,388.059204 257.120422,388.130310 257.094849,388.590149 
	C257.042206,404.979187 257.015106,420.908386 256.988007,436.837585 
z"/>
<path fill="#5298F3" opacity="1.000000" stroke="none" 
	d="
M257.010773,124.972694 
	C257.009979,109.339012 257.009155,93.705330 257.013123,77.616203 
	C273.127991,77.411461 288.929352,79.501755 304.575409,83.610733 
	C328.791504,89.970406 350.563049,101.059944 369.759521,116.863708 
	C379.213074,124.646507 387.409180,133.956726 396.595276,143.017532 
	C397.341888,143.659134 397.667572,143.858948 397.993256,144.058777 
	C397.993256,144.058777 397.997040,143.997040 398.044373,144.262054 
	C398.387543,144.704193 398.683380,144.881302 398.979248,145.058411 
	C398.979248,145.058411 398.992981,144.998810 398.966217,145.338043 
	C399.307861,146.225693 399.676270,146.774078 400.044708,147.322464 
	C400.111877,147.483139 400.207428,147.624603 400.432251,147.810593 
	C410.381165,161.966797 419.044830,176.694550 425.158447,192.845871 
	C431.491364,209.576431 434.729553,226.869980 436.140808,244.692932 
	C438.430511,273.609528 434.165924,301.491486 422.363617,327.787872 
	C396.526489,385.354980 352.383881,420.867615 290.516815,433.691010 
	C279.883545,435.895020 268.797058,435.912659 257.453979,436.888916 
	C257.015106,420.908386 257.042206,404.979187 257.548279,388.557159 
	C273.988007,388.788025 289.170990,385.057251 304.118591,380.482727 
	C304.112152,386.464355 304.112152,391.978638 304.112152,397.617798 
	C309.490326,397.617798 314.221313,397.617798 319.416138,397.695526 
	C324.455017,397.773254 329.030060,397.773254 334.483002,397.773254 
	C334.483002,385.460175 334.483002,373.751221 334.818359,362.024200 
	C336.870941,361.027039 338.921326,360.373810 340.250305,359.014954 
	C347.803375,351.292206 356.328369,344.197662 362.431183,335.433075 
	C393.711151,290.510010 397.178253,243.136215 372.384033,194.212173 
	C368.488434,186.525360 362.274170,180.013626 357.054077,172.498444 
	C356.937714,169.713226 356.867554,167.388123 356.865906,165.063004 
	C356.855560,150.274872 356.928741,135.485947 356.757050,120.699799 
	C356.739441,119.179810 355.433105,116.488373 354.477692,116.372162 
	C350.456512,115.883110 346.341492,116.165398 341.864594,116.165398 
	C341.864594,128.068924 341.904663,139.184174 341.826202,150.298569 
	C341.812714,152.208618 341.294556,154.115097 340.831573,155.738129 
	C336.156403,152.617249 331.659241,149.781448 327.078735,146.486633 
	C326.995453,136.271088 326.995453,126.514565 326.995453,116.382599 
	C323.817596,116.382599 321.385681,116.382599 318.523438,116.287018 
	C316.196106,116.191437 314.299164,116.191437 311.839539,116.191437 
	C311.839539,123.549385 311.839539,130.255615 311.483337,136.903839 
	C306.472076,135.218338 301.817017,133.590836 297.099945,131.502243 
	C297.037903,126.457542 297.037903,121.873932 297.037903,117.302979 
	C291.629700,117.302979 287.043091,117.302979 281.819946,117.302979 
	C281.819946,121.052582 281.819946,124.507095 281.436249,127.886017 
	C279.760376,127.541412 278.480011,127.161453 277.174011,127.022034 
	C270.456543,126.304924 263.732513,125.649597 257.010773,124.972694 
z"/>
<path fill="#9F4AD4" opacity="1.000000" stroke="none" 
	d="
M145.229874,399.200378 
	C145.638748,399.143066 146.274796,399.344177 147.167969,399.783295 
	C146.769089,399.833801 146.113052,399.646301 145.229874,399.200378 
z"/>
<path fill="#9F4AD4" opacity="1.000000" stroke="none" 
	d="
M400.027649,146.982361 
	C399.676270,146.774078 399.307861,146.225693 398.936340,145.344604 
	C399.292328,145.555359 399.651459,146.098816 400.027649,146.982361 
z"/>
<path fill="#9F4AD4" opacity="1.000000" stroke="none" 
	d="
M398.853271,144.840332 
	C398.683380,144.881302 398.387543,144.704193 398.014282,144.269180 
	C398.200317,144.214935 398.463806,144.418594 398.853271,144.840332 
z"/>
<path fill="#9F4AD4" opacity="1.000000" stroke="none" 
	d="
M143.096161,396.849731 
	C143.276764,396.848907 143.569550,397.134918 143.957581,397.711456 
	C143.771317,397.713531 143.489822,397.425018 143.096161,396.849731 
z"/>
<path fill="#9F4AD4" opacity="1.000000" stroke="none" 
	d="
M144.134689,398.156921 
	C144.313583,398.112457 144.623352,398.283203 144.992981,398.721130 
	C144.790421,398.782898 144.528000,398.577515 144.134689,398.156921 
z"/>
<path fill="#9F4AD4" opacity="1.000000" stroke="none" 
	d="
M397.827148,143.819214 
	C397.667572,143.858948 397.341888,143.659134 396.837677,143.222427 
	C396.993103,143.183594 397.327057,143.381638 397.827148,143.819214 
z"/>
<path fill="#6CB1F8" opacity="1.000000" stroke="none" 
	d="
M304.125000,380.015411 
	C289.170990,385.057251 273.988007,388.788025 257.573853,388.097321 
	C257.120422,388.130310 257.055511,388.059204 257.025848,387.556824 
	C256.994385,300.044525 256.992554,213.034546 256.990753,126.024590 
	C256.993652,125.849358 256.996521,125.674126 257.005096,125.235794 
	C263.732513,125.649597 270.456543,126.304924 277.174011,127.022034 
	C278.480011,127.161453 279.760376,127.541412 281.500916,128.353485 
	C281.970551,151.190201 282.010315,173.483856 282.003143,195.777496 
	C282.000610,203.609375 285.641418,209.454697 292.151367,213.294785 
	C295.758148,215.422333 299.950836,216.556610 304.356750,218.330811 
	C304.356750,220.073669 304.356750,222.219254 304.356750,224.364853 
	C304.356750,273.444855 304.360596,322.524841 304.346863,371.604828 
	C304.346069,374.408386 304.202240,377.211884 304.125000,380.015411 
z"/>
<path fill="#8CC7FC" opacity="1.000000" stroke="none" 
	d="
M256.524658,126.006622 
	C256.992554,213.034546 256.994385,300.044525 256.992676,387.521942 
	C241.793747,388.864685 227.235504,385.680298 212.477478,380.590454 
	C212.035934,350.475891 212.015625,320.840729 212.001099,291.205536 
	C211.994659,278.057251 212.000000,278.057251 225.340576,277.999847 
	C231.952957,277.971405 231.994705,277.950714 231.996262,271.279724 
	C232.004105,237.648483 231.851685,204.016296 232.067673,170.386429 
	C232.163818,155.415115 228.042160,142.230240 217.864517,131.102524 
	C230.398300,127.922440 242.997620,125.231789 256.524658,126.006622 
z"/>
<path fill="#8CC7FC" opacity="1.000000" stroke="none" 
	d="
M181.773300,364.059357 
	C179.013214,362.264771 176.005646,360.758118 173.531204,358.631195 
	C147.960938,336.651733 131.498825,309.469727 126.992928,275.696533 
	C123.264282,247.749084 127.236588,221.074753 140.479477,195.903397 
	C149.725220,178.329620 162.787796,164.120789 178.017822,151.700302 
	C178.897980,150.982513 180.068024,150.620193 181.512650,150.483826 
	C181.944229,221.108994 181.967041,291.342743 181.979431,361.576508 
	C181.979568,362.404114 181.845001,363.231750 181.773300,364.059357 
z"/>
<path fill="#E9EDF5" opacity="1.000000" stroke="none" 
	d="
M217.584137,130.926910 
	C228.042160,142.230240 232.163818,155.415115 232.067673,170.386429 
	C231.851685,204.016296 232.004105,237.648483 231.996262,271.279724 
	C231.994705,277.950714 231.952957,277.971405 225.340576,277.999847 
	C212.000000,278.057251 211.994659,278.057251 212.001099,291.205536 
	C212.015625,320.840729 212.035934,350.475891 212.100891,380.581909 
	C212.147888,386.365692 212.147888,391.678650 212.147888,397.796509 
	C207.048676,397.796509 202.461029,397.796509 197.413361,397.444824 
	C196.976166,396.720398 196.999008,396.347626 197.190308,395.812439 
	C197.252335,395.115295 197.145920,394.580627 197.029053,393.574493 
	C196.999939,301.797150 196.981262,210.491226 196.962570,119.185318 
	C205.198715,120.480415 211.354599,125.434067 217.584137,130.926910 
z"/>
<path fill="#FFFFFF" opacity="1.000000" stroke="none" 
	d="
M196.617126,118.991226 
	C196.981262,210.491226 196.999939,301.797150 197.020508,393.895416 
	C197.022217,395.116821 197.022034,395.545837 197.021851,395.974884 
	C196.999008,396.347626 196.976166,396.720398 196.948273,397.372864 
	C192.169754,397.652557 187.396286,397.652557 181.913223,397.652557 
	C181.913223,386.515045 181.913223,375.747223 181.843262,364.519379 
	C181.845001,363.231750 181.979568,362.404114 181.979431,361.576508 
	C181.967041,291.342743 181.944229,221.108994 181.844910,150.407471 
	C181.767685,139.204788 181.767685,128.469849 181.767685,116.335976 
	C187.178650,117.254158 191.725174,118.025650 196.617126,118.991226 
z"/>
<path fill="#6CB1F8" opacity="1.000000" stroke="none" 
	d="
M357.131989,172.958572 
	C362.274170,180.013626 368.488434,186.525360 372.384033,194.212173 
	C397.178253,243.136215 393.711151,290.510010 362.431183,335.433075 
	C356.328369,344.197662 347.803375,351.292206 340.250305,359.014954 
	C338.921326,360.373810 336.870941,361.027039 334.706604,361.564392 
	C334.220795,314.148651 334.178802,267.174652 334.166840,220.200638 
	C334.166595,219.261978 334.517487,218.323212 334.684814,217.483627 
	C350.857483,214.256348 356.853516,206.851883 356.893494,190.432510 
	C356.907684,184.607712 357.048828,178.783203 357.131989,172.958572 
z"/>
<path fill="#E9EDF5" opacity="1.000000" stroke="none" 
	d="
M357.054077,172.498444 
	C357.048828,178.783203 356.907684,184.607712 356.893494,190.432510 
	C356.853516,206.851883 350.857483,214.256348 334.684814,217.483627 
	C334.517487,218.323212 334.166595,219.261978 334.166840,220.200638 
	C334.178802,267.174652 334.220795,314.148651 334.371246,361.582458 
	C334.483002,373.751221 334.483002,385.460175 334.483002,397.773254 
	C329.030060,397.773254 324.455017,397.773254 319.408203,397.428772 
	C318.954773,396.728882 318.973175,396.373444 319.206970,395.779236 
	C319.297272,394.383575 319.172180,393.226654 319.034485,391.596863 
	C319.035095,301.049866 319.048279,210.975739 319.253723,120.700462 
	C319.301453,119.671997 319.156921,118.844688 318.991638,117.745285 
	C318.965179,117.109665 318.959473,116.746132 318.953796,116.382599 
	C321.385681,116.382599 323.817596,116.382599 326.995453,116.382599 
	C326.995453,126.514565 326.995453,136.271088 326.985046,146.952118 
	C326.945709,152.865219 327.066162,157.860733 326.835602,162.839996 
	C326.680450,166.190491 328.058105,167.096237 331.220093,167.052078 
	C342.367065,166.896301 340.908081,167.756882 341.001587,157.520035 
	C341.006134,157.021118 341.006958,156.522156 341.009521,156.023224 
	C341.294556,154.115097 341.812714,152.208618 341.826202,150.298569 
	C341.904663,139.184174 341.864594,128.068924 341.864594,116.165398 
	C346.341492,116.165398 350.456512,115.883110 354.477692,116.372162 
	C355.433105,116.488373 356.739441,119.179810 356.757050,120.699799 
	C356.928741,135.485947 356.855560,150.274872 356.865906,165.063004 
	C356.867554,167.388123 356.937714,169.713226 357.054077,172.498444 
z"/>
<path fill="#FFFFFF" opacity="1.000000" stroke="none" 
	d="
M319.061493,120.901619 
	C319.048279,210.975739 319.035095,301.049866 319.024170,391.989197 
	C319.014801,393.908936 319.003204,394.963501 318.991577,396.018036 
	C318.973175,396.373444 318.954773,396.728882 318.944336,397.351044 
	C314.221313,397.617798 309.490326,397.617798 304.112152,397.617798 
	C304.112152,391.978638 304.112152,386.464355 304.118591,380.482727 
	C304.202240,377.211884 304.346069,374.408386 304.346863,371.604828 
	C304.360596,322.524841 304.356750,273.444855 304.356750,224.364853 
	C304.356750,222.219254 304.356750,220.073669 304.356750,218.330811 
	C299.950836,216.556610 295.758148,215.422333 292.151367,213.294785 
	C285.641418,209.454697 282.000610,203.609375 282.003143,195.777496 
	C282.010315,173.483856 281.970551,151.190201 281.884583,128.429092 
	C281.819946,124.507095 281.819946,121.052582 281.819946,117.302979 
	C287.043091,117.302979 291.629700,117.302979 297.037903,117.302979 
	C297.037903,121.873932 297.037903,126.457542 297.041443,131.970200 
	C297.045013,144.101883 297.045013,155.304504 297.045013,166.992111 
	C301.114319,166.992111 304.561157,166.897156 308.000153,167.020447 
	C311.063965,167.130280 312.065704,165.674576 312.022064,162.794449 
	C311.891693,154.184631 311.890930,145.572845 311.839539,136.961838 
	C311.839539,130.255615 311.839539,123.549385 311.839539,116.191437 
	C314.299164,116.191437 316.196106,116.191437 318.523407,116.287018 
	C318.959473,116.746132 318.965179,117.109665 318.996857,118.106636 
	C319.035736,119.460587 319.048615,120.181107 319.061493,120.901619 
z"/>
<path fill="#6CB1F8" opacity="1.000000" stroke="none" 
	d="
M311.483337,136.903839 
	C311.890930,145.572845 311.891693,154.184631 312.022064,162.794449 
	C312.065704,165.674576 311.063965,167.130280 308.000153,167.020447 
	C304.561157,166.897156 301.114319,166.992111 297.045013,166.992111 
	C297.045013,155.304504 297.045013,144.101883 297.103516,132.431290 
	C301.817017,133.590836 306.472076,135.218338 311.483337,136.903839 
z"/>
<path fill="#6CB1F8" opacity="1.000000" stroke="none" 
	d="
M340.831543,155.738129 
	C341.006958,156.522156 341.006134,157.021118 341.001587,157.520035 
	C340.908081,167.756882 342.367065,166.896301 331.220093,167.052078 
	C328.058105,167.096237 326.680450,166.190491 326.835602,162.839996 
	C327.066162,157.860733 326.945709,152.865219 327.068359,147.411133 
	C331.659241,149.781448 336.156403,152.617249 340.831543,155.738129 
z"/>
<path fill="#D9E8FA" opacity="1.000000" stroke="none" 
	d="
M197.190308,395.812439 
	C197.022034,395.545837 197.022217,395.116821 197.030960,394.366852 
	C197.145920,394.580627 197.252335,395.115295 197.190308,395.812439 
z"/>
<path fill="#D3E3F9" opacity="1.000000" stroke="none" 
	d="
M319.206970,395.779236 
	C319.003204,394.963501 319.014801,393.908936 319.036743,392.462097 
	C319.172180,393.226654 319.297272,394.383575 319.206970,395.779236 
z"/>
<path fill="#CADDF6" opacity="1.000000" stroke="none" 
	d="
M319.253723,120.700462 
	C319.048615,120.181107 319.035736,119.460587 319.017639,118.378723 
	C319.156921,118.844688 319.301453,119.671997 319.253723,120.700462 
z"/>
</svg>