<svg version="1.1" id="Layer_1" xmlns="http://www.w3.org/2000/svg" xmlns:xlink="http://www.w3.org/1999/xlink" x="0px" y="0px"
	 width="100%" viewBox="0 0 512 512" enable-background="new 0 0 512 512" xml:space="preserve">
<path fill="#FDD33A" opacity="1.000000" stroke="none" 
	d="
M289.000000,513.000000 
	C267.979095,513.000000 246.958206,513.000000 225.808563,512.668152 
	C220.504623,511.226013 215.358627,509.949615 210.149185,509.034271 
	C187.856216,505.117157 166.557510,498.069702 146.374115,487.958435 
	C131.012466,480.262787 116.500343,471.183105 102.810440,460.594849 
	C85.195862,446.971069 69.764786,431.286377 56.458164,413.667328 
	C43.472687,396.473450 33.042858,377.653870 24.839474,357.595673 
	C15.049386,333.657776 8.789105,308.794250 7.325943,283.141724 
	C6.304012,265.224976 7.394739,247.034943 9.296468,229.153580 
	C10.758373,215.407806 14.246100,201.748810 18.085333,188.411728 
	C25.721680,161.883911 38.449593,137.823578 54.725910,115.461945 
	C68.848679,96.059006 85.290344,79.011452 104.236427,64.503014 
	C122.420654,50.577984 142.012955,38.801960 163.631943,30.832365 
	C171.643021,27.879175 179.870895,25.514147 188.016098,23.235632 
	C186.726761,24.865944 185.432312,26.153053 184.114105,27.415377 
	C152.052811,58.117493 141.690872,94.917366 154.148041,137.537018 
	C161.141479,161.463669 176.426895,179.644775 196.319244,193.761337 
	C184.258011,193.831512 172.648895,193.859589 160.663956,193.727707 
	C143.885223,194.388000 127.029861,193.058731 111.157471,196.399582 
	C41.427086,211.076599 7.613948,290.405701 44.264748,351.466827 
	C54.442127,368.422577 68.258484,381.735718 86.042664,390.417145 
	C104.179436,399.270630 113.143517,413.152344 112.102997,433.442993 
	C111.813477,439.088745 111.937485,444.766907 112.120125,450.422180 
	C112.262276,454.823181 114.385284,457.967560 118.830505,459.265137 
	C122.949883,460.467590 126.137184,458.850830 128.350204,455.627228 
	C136.253998,444.114380 143.978516,432.478455 151.973450,420.618286 
	C158.953766,410.580597 168.067581,404.363647 179.881973,402.485718 
	C183.144516,401.967163 186.508636,401.981232 189.828278,401.944977 
	C216.951126,401.648712 244.203903,402.994873 271.171326,400.808838 
	C331.195740,395.943146 374.187897,336.026276 361.509430,277.027496 
	C355.400452,248.599716 339.903870,226.616501 316.544739,210.196960 
	C338.194611,208.148972 354.058807,216.109680 364.938080,234.707779 
	C370.720703,244.593185 377.658173,253.812027 384.226440,263.225647 
	C388.256927,269.002106 395.427979,269.410980 398.745911,263.922363 
	C400.117065,261.654144 400.643982,258.587891 400.706726,255.865051 
	C401.015106,242.474823 399.376068,228.892838 405.460754,215.910263 
	C410.521820,207.502045 417.676605,202.120392 426.057251,197.893127 
	C447.289734,187.183365 462.950623,170.913483 473.297943,149.504303 
	C474.363770,147.298996 475.652374,145.201370 476.912476,143.417801 
	C485.142914,159.740509 492.349060,176.020264 497.254272,193.377960 
	C502.915710,213.411514 506.329834,233.706360 506.951904,254.455750 
	C507.588928,275.702454 505.735016,296.694733 501.139465,317.553894 
	C494.659607,346.966003 483.395538,374.278137 466.972168,399.398590 
	C455.490570,416.960266 442.065216,432.920746 426.521545,447.208282 
	C411.901520,460.646820 396.106750,472.358032 378.838379,481.920807 
	C351.402374,497.114105 322.208466,507.422211 290.869385,511.080750 
	C290.180939,511.161072 289.620270,512.335754 289.000000,513.000000 
z"/>
<path fill="#F84E82" opacity="1.000000" stroke="none" 
	d="
M476.837616,143.053772 
	C475.652374,145.201370 474.363770,147.298996 473.297943,149.504303 
	C462.950623,170.913483 447.289734,187.183365 426.057251,197.893127 
	C417.676605,202.120392 410.521820,207.502045 405.189148,215.689392 
	C394.849274,201.142654 381.118408,195.546555 363.685455,195.809204 
	C337.411621,196.205032 311.065521,196.281662 284.848816,194.776108 
	C256.632904,193.155777 233.617310,179.458588 215.895721,157.958069 
	C197.209290,135.286942 189.266006,108.881615 192.948441,79.346947 
	C196.284271,52.592121 208.049530,30.392075 228.575500,12.893448 
	C232.293030,9.724186 236.225739,6.807309 240.059128,3.773917 
	C238.376953,3.211801 236.953064,3.314638 235.578186,3.630672 
	C227.986237,5.375778 220.406250,7.172878 213.023056,8.633072 
	C219.191162,6.539827 225.173157,4.812418 231.107208,2.933521 
	C231.866135,2.693225 232.375183,1.663835 233.000000,1.000000 
	C288.354218,1.000000 343.708466,1.000000 399.208038,1.316879 
	C400.009216,2.077849 400.609650,2.769043 401.328857,2.930189 
	C424.082397,8.028175 443.190063,18.986830 458.505219,36.864941 
	C474.990906,56.109436 482.927490,78.426414 483.918671,103.373566 
	C484.461243,117.030121 481.397919,130.218140 476.837616,143.053772 
M242.981232,88.051399 
	C230.644470,91.118019 224.066788,101.496094 227.422714,112.599121 
	C230.618011,123.170685 242.228439,128.892807 252.577637,124.996544 
	C261.124695,121.778755 266.351868,112.735130 264.795074,103.859108 
	C263.061249,93.973671 255.000900,87.867638 242.981232,88.051399 
M369.570923,115.692673 
	C375.294006,125.023087 384.574219,128.536346 393.820526,124.872986 
	C402.258301,121.529953 407.396881,112.156067 405.555023,103.466858 
	C403.204926,92.380005 392.490356,85.612190 381.839417,88.487015 
	C370.319122,91.596481 364.935272,102.905060 369.570923,115.692673 
M298.049103,113.103012 
	C302.625458,123.566895 311.857452,128.397141 321.648071,125.450165 
	C331.789612,122.397560 337.537537,112.019905 334.738525,101.815994 
	C332.050629,92.017181 321.600403,85.920959 311.709564,88.381905 
	C301.114960,91.017952 295.234650,101.177635 298.049103,113.103012 
z"/>
<path fill="#000000" opacity="1.000000" stroke="none" 
	d="
M232.531342,1.000000 
	C232.375183,1.663835 231.866135,2.693225 231.107208,2.933521 
	C225.173157,4.812418 219.191162,6.539827 212.804459,8.643034 
	C212.384964,8.972076 211.976105,9.128612 211.708618,9.122402 
	C211.231445,9.397587 211.021774,9.678982 210.599243,9.966473 
	C210.386368,9.972569 209.989594,10.127393 209.622665,10.073708 
	C206.443542,11.664699 203.631348,13.309377 200.601776,14.962901 
	C200.384415,14.971747 199.978271,15.127796 199.710312,15.121347 
	C199.243546,15.403654 199.044739,15.692410 198.901535,15.971365 
	C198.957153,15.961565 198.933517,15.851104 198.609619,15.915523 
	C197.477722,16.628576 196.669708,17.277210 195.900055,17.927124 
	C195.938385,17.928402 195.934082,17.851797 195.605835,17.915249 
	C194.458496,18.637205 193.639435,19.295708 192.556351,20.043043 
	C191.853653,20.461151 191.414948,20.790428 190.711060,21.109348 
	C190.273346,21.392906 190.100830,21.686819 189.841095,21.935608 
	C189.753891,21.890482 189.652695,22.058769 189.369904,22.045235 
	C188.700409,22.342453 188.313675,22.653206 187.966797,22.962154 
	C188.006638,22.960352 187.999908,22.880886 187.999908,22.880886 
	C179.870895,25.514147 171.643021,27.879175 163.631943,30.832365 
	C142.012955,38.801960 122.420654,50.577984 104.236427,64.503014 
	C85.290344,79.011452 68.848679,96.059006 54.725910,115.461945 
	C38.449593,137.823578 25.721680,161.883911 18.085333,188.411728 
	C14.246100,201.748810 10.758373,215.407806 9.296468,229.153580 
	C7.394739,247.034943 6.304012,265.224976 7.325943,283.141724 
	C8.789105,308.794250 15.049386,333.657776 24.839474,357.595673 
	C33.042858,377.653870 43.472687,396.473450 56.458164,413.667328 
	C69.764786,431.286377 85.195862,446.971069 102.810440,460.594849 
	C116.500343,471.183105 131.012466,480.262787 146.374115,487.958435 
	C166.557510,498.069702 187.856216,505.117157 210.149185,509.034271 
	C215.358627,509.949615 220.504623,511.226013 225.339905,512.668152 
	C150.367081,513.000000 75.734169,513.000000 1.050629,513.000000 
	C1.050629,342.444244 1.050629,171.888474 1.050629,1.000000 
	C78.020576,1.000000 155.041626,1.000000 232.531342,1.000000 
z"/>
<path fill="#000000" opacity="1.000000" stroke="none" 
	d="
M476.912476,143.417801 
	C481.397919,130.218140 484.461243,117.030121 483.918671,103.373566 
	C482.927490,78.426414 474.990906,56.109436 458.505219,36.864941 
	C443.190063,18.986830 424.082397,8.028175 401.328857,2.930189 
	C400.609650,2.769043 400.009216,2.077849 399.676697,1.316879 
	C437.647247,1.000000 475.294525,1.000000 512.970886,1.000000 
	C512.970886,171.559280 512.970886,342.118561 512.970886,513.000000 
	C438.646088,513.000000 364.291687,513.000000 289.468658,513.000000 
	C289.620270,512.335754 290.180939,511.161072 290.869385,511.080750 
	C322.208466,507.422211 351.402374,497.114105 378.838379,481.920807 
	C396.106750,472.358032 411.901520,460.646820 426.521545,447.208282 
	C442.065216,432.920746 455.490570,416.960266 466.972168,399.398590 
	C483.395538,374.278137 494.659607,346.966003 501.139465,317.553894 
	C505.735016,296.694733 507.588928,275.702454 506.951904,254.455750 
	C506.329834,233.706360 502.915710,213.411514 497.254272,193.377960 
	C492.349060,176.020264 485.142914,159.740509 476.912476,143.417801 
z"/>
<path fill="#F8FAFD" opacity="1.000000" stroke="none" 
	d="
M316.090973,210.261414 
	C339.903870,226.616501 355.400452,248.599716 361.509430,277.027496 
	C374.187897,336.026276 331.195740,395.943146 271.171326,400.808838 
	C244.203903,402.994873 216.951126,401.648712 189.828278,401.944977 
	C186.508636,401.981232 183.144516,401.967163 179.881973,402.485718 
	C168.067581,404.363647 158.953766,410.580597 151.783859,420.326935 
	C147.897690,406.524017 139.539536,397.127563 126.766190,390.748413 
	C86.778984,370.778320 64.203758,327.725189 70.122360,283.751343 
	C75.767487,241.809433 107.263786,206.920731 148.549469,196.883118 
	C152.709732,195.871643 156.876190,194.885544 161.039764,193.887665 
	C172.648895,193.859589 184.258011,193.831512 196.670471,193.895248 
	C215.634857,205.196182 235.347061,210.438934 256.720703,210.146713 
	C276.506561,209.876175 296.300568,210.199570 316.090973,210.261414 
M211.004517,312.461975 
	C217.799103,303.200897 217.306335,293.073914 209.710266,285.862122 
	C202.818100,279.318634 191.941025,278.890564 184.555328,284.872131 
	C175.999725,291.801178 174.912277,304.174652 182.131027,312.457123 
	C189.549820,320.969116 201.356140,321.191528 211.004517,312.461975 
M276.901978,283.366608 
	C269.045959,279.230835 261.428223,279.554565 254.574219,285.293182 
	C248.378372,290.480743 246.522888,297.391235 248.633453,305.131409 
	C250.828201,313.180237 258.072144,318.706390 266.226013,318.988037 
	C274.709259,319.281067 282.287750,314.123413 285.090424,306.149567 
	C288.010498,297.841766 285.255066,289.707733 276.901978,283.366608 
M108.477631,292.285126 
	C105.588737,299.800598 106.598885,306.720032 112.027573,312.706512 
	C116.872688,318.049469 123.059990,320.053345 130.120636,318.566864 
	C138.929581,316.712280 144.995956,309.266541 145.199509,300.470245 
	C145.408768,291.428162 139.853577,283.718811 131.412399,281.336945 
	C122.419975,278.799469 113.934029,282.653137 108.477631,292.285126 
z"/>
<path fill="#DD3B71" opacity="1.000000" stroke="none" 
	d="
M316.544739,210.196976 
	C296.300568,210.199570 276.506561,209.876175 256.720703,210.146713 
	C235.347061,210.438934 215.634857,205.196182 197.122589,193.853149 
	C176.426895,179.644775 161.141479,161.463669 154.148041,137.537018 
	C141.690872,94.917366 152.052811,58.117493 184.114105,27.415377 
	C185.432312,26.153053 186.726761,24.865944 188.016098,23.235634 
	C187.999908,22.880886 188.006638,22.960352 188.236572,23.079323 
	C188.861908,22.818451 189.257309,22.438612 189.652695,22.058769 
	C189.652695,22.058769 189.753891,21.890482 190.040985,21.822750 
	C190.604294,21.604633 190.820358,21.392862 190.976257,21.119705 
	C191.414948,20.790428 191.853653,20.461151 192.917480,20.044216 
	C194.339783,19.254971 195.136932,18.553383 195.934082,17.851795 
	C195.934082,17.851797 195.938385,17.928402 196.258408,17.934885 
	C197.363449,17.244614 198.148483,16.547857 198.933517,15.851103 
	C198.933517,15.851104 198.957153,15.961565 199.112152,15.855928 
	C199.563919,15.611018 199.800964,15.403519 199.978271,15.127796 
	C199.978271,15.127796 200.384415,14.971747 200.986298,14.968063 
	C204.388641,13.352053 207.189117,11.739724 209.989594,10.127395 
	C209.989594,10.127393 210.386368,9.972569 210.813019,9.854151 
	C211.543488,9.604116 211.788956,9.401742 211.976105,9.128612 
	C211.976105,9.128612 212.384964,8.972076 212.603561,8.962114 
	C220.406250,7.172878 227.986237,5.375778 235.578186,3.630672 
	C236.953064,3.314638 238.376953,3.211801 240.059128,3.773917 
	C236.225739,6.807309 232.293030,9.724186 228.575500,12.893448 
	C208.049530,30.392075 196.284271,52.592121 192.948441,79.346947 
	C189.266006,108.881615 197.209290,135.286942 215.895721,157.958069 
	C233.617310,179.458588 256.632904,193.155777 284.848816,194.776108 
	C311.065521,196.281662 337.411621,196.205032 363.685455,195.809204 
	C381.118408,195.546555 394.849274,201.142654 404.945038,215.914337 
	C399.376068,228.892838 401.015106,242.474823 400.706726,255.865051 
	C400.643982,258.587891 400.117065,261.654144 398.745911,263.922363 
	C395.427979,269.410980 388.256927,269.002106 384.226440,263.225647 
	C377.658173,253.812027 370.720703,244.593185 364.938080,234.707779 
	C354.058807,216.109680 338.194611,208.148972 316.544739,210.196976 
z"/>
<path fill="#DDDDDC" opacity="1.000000" stroke="none" 
	d="
M160.663956,193.727722 
	C156.876190,194.885544 152.709732,195.871643 148.549469,196.883118 
	C107.263786,206.920731 75.767487,241.809433 70.122360,283.751343 
	C64.203758,327.725189 86.778984,370.778320 126.766190,390.748413 
	C139.539536,397.127563 147.897690,406.524017 151.581238,420.597748 
	C143.978516,432.478455 136.253998,444.114380 128.350204,455.627228 
	C126.137184,458.850830 122.949883,460.467590 118.830505,459.265137 
	C114.385284,457.967560 112.262276,454.823181 112.120125,450.422180 
	C111.937485,444.766907 111.813477,439.088745 112.102997,433.442993 
	C113.143517,413.152344 104.179436,399.270630 86.042664,390.417145 
	C68.258484,381.735718 54.442127,368.422577 44.264748,351.466827 
	C7.613948,290.405701 41.427086,211.076599 111.157471,196.399582 
	C127.029861,193.058731 143.885223,194.388000 160.663956,193.727722 
z"/>
<path fill="#F8F8FC" opacity="1.000000" stroke="none" 
	d="
M243.410248,88.017815 
	C255.000900,87.867638 263.061249,93.973671 264.795074,103.859108 
	C266.351868,112.735130 261.124695,121.778755 252.577637,124.996544 
	C242.228439,128.892807 230.618011,123.170685 227.422714,112.599121 
	C224.066788,101.496094 230.644470,91.118019 243.410248,88.017815 
z"/>
<path fill="#F8F8FC" opacity="1.000000" stroke="none" 
	d="
M369.388733,115.357239 
	C364.935272,102.905060 370.319122,91.596481 381.839417,88.487015 
	C392.490356,85.612190 403.204926,92.380005 405.555023,103.466858 
	C407.396881,112.156067 402.258301,121.529953 393.820526,124.872986 
	C384.574219,128.536346 375.294006,125.023087 369.388733,115.357239 
z"/>
<path fill="#F8F8FC" opacity="1.000000" stroke="none" 
	d="
M297.952454,112.710373 
	C295.234650,101.177635 301.114960,91.017952 311.709564,88.381905 
	C321.600403,85.920959 332.050629,92.017181 334.738525,101.815994 
	C337.537537,112.019905 331.789612,122.397560 321.648071,125.450165 
	C311.857452,128.397141 302.625458,123.566895 297.952454,112.710373 
z"/>
<path fill="#F84E82" opacity="1.000000" stroke="none" 
	d="
M209.622665,10.073709 
	C207.189117,11.739724 204.388641,13.352053 201.203659,14.959217 
	C203.631348,13.309377 206.443542,11.664699 209.622665,10.073709 
z"/>
<path fill="#F84E82" opacity="1.000000" stroke="none" 
	d="
M195.605835,17.915249 
	C195.136932,18.553383 194.339783,19.254971 193.181488,19.955387 
	C193.639435,19.295708 194.458496,18.637205 195.605835,17.915249 
z"/>
<path fill="#F84E82" opacity="1.000000" stroke="none" 
	d="
M198.609619,15.915522 
	C198.148483,16.547857 197.363449,17.244614 196.220062,17.933607 
	C196.669708,17.277210 197.477722,16.628576 198.609619,15.915522 
z"/>
<path fill="#FDD33A" opacity="1.000000" stroke="none" 
	d="
M189.369904,22.045235 
	C189.257309,22.438612 188.861908,22.818451 188.196747,23.081123 
	C188.313675,22.653206 188.700409,22.342453 189.369904,22.045235 
z"/>
<path fill="#F84E82" opacity="1.000000" stroke="none" 
	d="
M190.711060,21.109350 
	C190.820358,21.392862 190.604294,21.604633 190.128189,21.867876 
	C190.100830,21.686819 190.273346,21.392906 190.711060,21.109350 
z"/>
<path fill="#F84E82" opacity="1.000000" stroke="none" 
	d="
M199.710312,15.121347 
	C199.800964,15.403519 199.563919,15.611018 199.056534,15.865729 
	C199.044739,15.692410 199.243546,15.403654 199.710312,15.121347 
z"/>
<path fill="#F84E82" opacity="1.000000" stroke="none" 
	d="
M211.708618,9.122402 
	C211.788956,9.401742 211.543488,9.604116 211.025894,9.848055 
	C211.021774,9.678982 211.231445,9.397587 211.708618,9.122402 
z"/>
<path fill="#7B58BB" opacity="1.000000" stroke="none" 
	d="
M210.756226,312.726868 
	C201.356140,321.191528 189.549820,320.969116 182.131027,312.457123 
	C174.912277,304.174652 175.999725,291.801178 184.555328,284.872131 
	C191.941025,278.890564 202.818100,279.318634 209.710266,285.862122 
	C217.306335,293.073914 217.799103,303.200897 210.756226,312.726868 
z"/>
<path fill="#7A57BB" opacity="1.000000" stroke="none" 
	d="
M277.210327,283.582153 
	C285.255066,289.707733 288.010498,297.841766 285.090424,306.149567 
	C282.287750,314.123413 274.709259,319.281067 266.226013,318.988037 
	C258.072144,318.706390 250.828201,313.180237 248.633453,305.131409 
	C246.522888,297.391235 248.378372,290.480743 254.574219,285.293182 
	C261.428223,279.554565 269.045959,279.230835 277.210327,283.582153 
z"/>
<path fill="#7A58BB" opacity="1.000000" stroke="none" 
	d="
M108.655975,291.937622 
	C113.934029,282.653137 122.419975,278.799469 131.412399,281.336945 
	C139.853577,283.718811 145.408768,291.428162 145.199509,300.470245 
	C144.995956,309.266541 138.929581,316.712280 130.120636,318.566864 
	C123.059990,320.053345 116.872688,318.049469 112.027573,312.706512 
	C106.598885,306.720032 105.588737,299.800598 108.655975,291.937622 
z"/>
</svg>