<svg width="512" height="512" xmlns="http://www.w3.org/2000/svg" xml:space="preserve" enable-background="new 0 0 512 512" version="1.1">

 <g>
  <title>Layer 1</title>
  <path id="svg_1" d="m289,513c-21.02091,0 -42.04179,0 -63.19144,-0.33185c-5.30394,-1.44214 -10.44993,-2.71854 -15.65938,-3.63388c-22.29296,-3.91711 -43.59167,-10.96457 -63.77507,-21.07583c-15.36164,-7.69565 -29.87377,-16.77533 -43.56367,-27.36359c-17.61458,-13.62378 -33.04565,-29.30847 -46.35228,-46.92752c-12.98547,-17.19388 -23.4153,-36.01346 -31.61869,-56.07166c-9.79008,-23.93789 -16.05037,-48.80142 -17.51353,-74.45395c-1.02193,-17.91674 0.0688,-36.10678 1.97053,-53.98814c1.4619,-13.74577 4.94963,-27.40477 8.78886,-40.74185c7.63635,-26.52782 20.36426,-50.58815 36.64058,-72.94978c14.12277,-19.40294 30.56443,-36.4505 49.51052,-50.95894c18.18422,-13.92503 37.77653,-25.70105 59.39551,-33.67065c8.01108,-2.95318 16.23895,-5.31821 24.38416,-7.59673c-1.28934,1.63031 -2.58379,2.91742 -3.902,4.17975c-32.06129,30.70211 -42.42323,67.50199 -29.96606,110.12164c6.99344,23.92665 22.27886,42.10776 42.1712,56.22432c-12.06123,0.07017 -23.67034,0.09825 -35.65528,-0.03363c-16.77874,0.66029 -33.6341,-0.66898 -49.50649,2.67187c-69.73038,14.67702 -103.54352,94.00612 -66.89272,155.06725c10.17738,16.95575 23.99373,30.26889 41.77791,38.95032c18.13678,8.85348 27.10086,22.73519 26.06034,43.02584c-0.28952,5.64576 -0.16552,11.32392 0.01713,16.97919c0.14215,4.401 2.26515,7.54538 6.71038,8.84296c4.11937,1.20245 7.30667,-0.41431 9.51969,-3.63791c7.9038,-11.51285 15.62832,-23.14878 23.62325,-35.00894c6.98032,-10.03769 16.09413,-16.25464 27.90852,-18.13257c3.26255,-0.51856 6.62667,-0.50449 9.94631,-0.54074c27.12285,-0.29627 54.37562,1.04989 81.34305,-1.13614c60.02441,-4.86569 103.01657,-64.78256 90.3381,-123.78134c-6.10898,-28.42778 -21.60556,-50.411 -44.96469,-66.83054c21.64987,-2.04799 37.51407,5.91272 48.39334,24.51082c5.78262,9.88541 12.72009,19.10425 19.28836,28.51787c4.03049,5.77646 11.20154,6.18533 14.51947,0.69671c1.37116,-2.26822 1.89807,-5.33447 1.96082,-8.05731c0.30838,-13.39023 -1.33066,-26.97221 4.75402,-39.95479c5.06107,-8.40821 12.21585,-13.78987 20.5965,-18.01713c21.23248,-10.70976 36.89337,-26.97965 47.24069,-48.38883c1.06583,-2.2053 2.35443,-4.30293 3.61454,-6.0865c8.23043,16.32271 15.43658,32.60246 20.34179,49.96016c5.66144,20.03355 9.07556,40.3284 9.69763,61.07779c0.63703,21.2467 -1.21688,42.23898 -5.81244,63.09814c-6.47985,29.41211 -17.74392,56.72425 -34.16729,81.8447c-11.4816,17.56168 -24.90695,33.52216 -40.45062,47.80969c-14.62003,13.43854 -30.4148,25.14975 -47.68317,34.71253c-27.43601,15.19329 -56.62991,25.5014 -87.96899,29.15994c-0.68845,0.08032 -1.24912,1.255 -1.86939,1.91925z" fill="#FDD33A"/>
  <path id="svg_2" d="m476.83762,143.05377c-1.18525,2.1476 -2.47385,4.24523 -3.53968,6.45053c-10.34732,21.40918 -26.00821,37.67907 -47.24069,48.38883c-8.38065,4.22726 -15.53543,9.60892 -20.8681,17.79626c-10.33988,-14.54674 -24.07074,-20.14283 -41.5037,-19.88019c-26.27383,0.39583 -52.61993,0.47246 -78.83663,-1.03309c-28.21592,-1.62033 -51.23151,-15.31752 -68.9531,-36.81804c-18.68643,-22.67113 -26.62971,-49.07646 -22.94728,-78.61112c3.33583,-26.75483 15.10109,-48.95488 35.62706,-66.4535c3.71753,-3.16926 7.65024,-6.08614 11.48363,-9.11953c-1.68218,-0.56212 -3.10607,-0.45928 -4.48094,-0.14325c-7.59195,1.74511 -15.17194,3.54221 -22.55513,5.0024c6.1681,-2.09324 12.1501,-3.82065 18.08415,-5.69955c0.75893,-0.2403 1.26797,-1.26969 1.89279,-1.93352c55.35422,0 110.70847,0 166.20804,0.31688c0.80118,0.76097 1.40161,1.45216 2.12082,1.61331c22.75354,5.09798 41.8612,16.05664 57.17636,33.93475c16.48569,19.2445 24.42227,41.56147 25.41345,66.50863c0.54257,13.65655 -2.52075,26.84457 -7.08105,39.6802m-233.85639,-55.00237c-12.33676,3.06662 -18.91444,13.44469 -15.55852,24.54772c3.1953,10.57157 14.80573,16.29369 25.15493,12.39742c8.54705,-3.21778 13.77423,-12.26141 12.21743,-21.13743c-1.73382,-9.88544 -9.79417,-15.99147 -21.81384,-15.80771m126.58969,27.64127c5.72309,9.33042 15.0033,12.84368 24.24961,9.18032c8.43777,-3.34304 13.57635,-12.71692 11.73449,-21.40613c-2.35009,-11.08686 -13.06466,-17.85467 -23.7156,-14.97985c-11.5203,3.10947 -16.90415,14.41805 -12.2685,27.20566m-71.52182,-2.58966c4.57636,10.46389 13.80835,15.29413 23.59897,12.34715c10.14154,-3.0526 15.88947,-13.43026 13.09045,-23.63417c-2.68789,-9.79881 -13.13812,-15.89503 -23.02896,-13.43408c-10.5946,2.63604 -16.47491,12.79572 -13.66046,24.7211z" fill="#F84E82"/>
  <path id="svg_5" d="m316.09097,210.26141c23.8129,16.35509 39.30948,38.33831 45.41846,66.76609c12.67847,58.99878 -30.31369,118.91565 -90.3381,123.78134c-26.96743,2.18603 -54.2202,0.83987 -81.34305,1.13614c-3.31964,0.03625 -6.68376,0.02218 -9.94631,0.54074c-11.81439,1.87793 -20.9282,8.09488 -28.09811,17.84121c-3.88617,-13.80291 -12.24432,-23.19937 -25.01767,-29.57852c-39.98721,-19.97009 -62.56243,-63.02322 -56.64383,-106.99707c5.64513,-41.94191 37.14143,-76.83061 78.42711,-86.86822c4.16026,-1.01148 8.32672,-1.99758 12.49029,-2.99546c11.60914,-0.02807 23.21825,-0.05615 35.63071,0.00759c18.96439,11.30093 38.67659,16.54368 60.05023,16.25146c19.78586,-0.27054 39.57987,0.05286 59.37027,0.1147m-105.08645,102.20056c6.79458,-9.26107 6.30181,-19.38806 -1.29425,-26.59985c-6.89217,-6.54349 -17.76925,-6.97156 -25.15494,-0.98999c-8.5556,6.92905 -9.64305,19.30252 -2.4243,27.58499c7.41879,8.512 19.22511,8.73441 28.87349,0.00485m65.89746,-29.09536c-7.85602,-4.13577 -15.47376,-3.81204 -22.32776,1.92657c-6.19585,5.18756 -8.05133,12.09805 -5.94077,19.83823c2.19475,8.04883 9.43869,13.57498 17.59256,13.85663c8.48325,0.29303 16.06174,-4.86463 18.86441,-12.83847c2.92008,-8.3078 0.16465,-16.44184 -8.18844,-22.78296m-168.42435,8.91852c-2.88889,7.51547 -1.87875,14.4349 3.54994,20.42138c4.84512,5.34296 11.03242,7.34683 18.09307,5.86035c8.80894,-1.85458 14.87532,-9.30032 15.07887,-18.09662c0.20926,-9.04208 -5.34593,-16.75143 -13.78711,-19.13329c-8.99243,-2.53748 -17.47837,1.31619 -22.93477,10.94818z" fill="#F8FAFD"/>
  <path id="svg_6" d="m316.54474,210.19698c-20.24417,0.00259 -40.03818,-0.32081 -59.82404,-0.05027c-21.37364,0.29222 -41.08584,-4.95053 -59.59811,-16.29356c-20.69569,-14.20837 -35.98111,-32.38948 -42.97455,-56.31613c-12.45717,-42.61965 -2.09523,-79.41953 29.96606,-110.12164c1.31821,-1.26233 2.61266,-2.54944 3.902,-4.17975c-0.01619,-0.35474 -0.00946,-0.27528 0.22047,-0.15631c0.62534,-0.26087 1.02074,-0.64071 1.41612,-1.02055c0,0 0.1012,-0.16829 0.3883,-0.23602c0.5633,-0.21812 0.77937,-0.42989 0.93527,-0.70305c0.43869,-0.32927 0.87739,-0.65855 1.94122,-1.07548c1.4223,-0.78925 2.21945,-1.49084 3.0166,-2.19243c0,0.00001 0.00431,0.07661 0.32433,0.0831c1.10504,-0.69028 1.89007,-1.38703 2.67511,-2.08379c0,0 0.02363,0.11047 0.17863,0.00483c0.45177,-0.24491 0.68881,-0.45241 0.86612,-0.72813c0,0 0.40614,-0.15605 1.00803,-0.15974c3.40234,-1.61601 6.20282,-3.22834 9.00329,-4.84067c0,0 0.39678,-0.15482 0.82343,-0.27324c0.73047,-0.25003 0.97594,-0.45241 1.16308,-0.72554c0,0 0.40886,-0.15653 0.62746,-0.1665c7.80269,-1.78923 15.38268,-3.58633 22.97463,-5.33144c1.37487,-0.31603 2.79876,-0.41887 4.48094,0.14325c-3.83339,3.03339 -7.7661,5.95027 -11.48363,9.11953c-20.52597,17.49862 -32.29123,39.69867 -35.62706,66.4535c-3.68243,29.53466 4.26085,55.93999 22.94728,78.61112c17.72159,21.50052 40.73718,35.19771 68.9531,36.81804c26.2167,1.50555 52.5628,1.42892 78.83663,1.03309c17.43296,-0.26264 31.16382,5.33345 41.25959,20.10514c-5.56897,12.9785 -3.92993,26.56048 -4.23831,39.95071c-0.06275,2.72284 -0.58966,5.78909 -1.96082,8.05731c-3.31793,5.48862 -10.48898,5.07975 -14.51947,-0.69671c-6.56827,-9.41362 -13.50574,-18.63246 -19.28836,-28.51787c-10.87927,-18.5981 -26.74347,-26.55881 -48.39334,-24.5108z" fill="#DD3B71"/>
  <path id="svg_7" d="m160.66396,193.72772c-3.78777,1.15782 -7.95423,2.14392 -12.11449,3.1554c-41.28568,10.03761 -72.78198,44.92631 -78.42711,86.86822c-5.9186,43.97385 16.65662,87.02698 56.64383,106.99707c12.77335,6.37915 21.1315,15.77561 24.81505,29.84934c-7.60272,11.8807 -15.32724,23.51663 -23.23104,35.02948c-2.21302,3.2236 -5.40032,4.84036 -9.51969,3.63791c-4.44523,-1.29758 -6.56823,-4.44196 -6.71038,-8.84296c-0.18265,-5.65527 -0.30665,-11.33343 -0.01713,-16.97919c1.04052,-20.29065 -7.92356,-34.17236 -26.06034,-43.02584c-17.78418,-8.68143 -31.60053,-21.99457 -41.77791,-38.95032c-36.6508,-61.06113 -2.83766,-140.39023 66.89272,-155.06725c15.87239,-3.34085 32.72775,-2.01158 49.50649,-2.67186z" fill="#DDDDDC"/>
  <path id="svg_8" d="m243.41025,88.01781c11.59065,-0.15017 19.651,5.95586 21.38482,15.8413c1.5568,8.87602 -3.67038,17.91965 -12.21743,21.13743c-10.3492,3.89627 -21.95963,-1.82585 -25.15493,-12.39742c-3.35592,-11.10303 3.22176,-21.4811 15.98754,-24.58131z" fill="#F8F8FC"/>
  <path id="svg_9" d="m369.38873,115.35724c-4.45346,-12.45218 0.93039,-23.76076 12.45069,-26.87023c10.65094,-2.87482 21.36551,3.89299 23.7156,14.97985c1.84186,8.68921 -3.29672,18.06309 -11.73449,21.40613c-9.24631,3.66336 -18.52652,0.1501 -24.4318,-9.51575z" fill="#F8F8FC"/>
  <path id="svg_10" d="m297.95245,112.71037c-2.7178,-11.53274 3.16251,-21.69242 13.75711,-24.32846c9.89084,-2.46095 20.34107,3.63527 23.02896,13.43408c2.79902,10.20391 -2.94891,20.58157 -13.09045,23.63417c-9.79062,2.94698 -19.02261,-1.88326 -23.69562,-12.73979z" fill="#F8F8FC"/>
  <path id="svg_11" d="m209.62267,10.07371c-2.43355,1.66601 -5.23403,3.27834 -8.41901,4.88551c2.42769,-1.64984 5.23988,-3.29452 8.41901,-4.88551z" fill="#F84E82"/>
  <path id="svg_12" d="m195.60584,17.91525c-0.46891,0.63813 -1.26606,1.33972 -2.42435,2.04014c0.45794,-0.65968 1.27701,-1.31818 2.42435,-2.04014z" fill="#F84E82"/>
  <path id="svg_13" d="m198.60962,15.91552c-0.46114,0.63234 -1.24617,1.32909 -2.38956,2.01809c0.44965,-0.6564 1.25766,-1.30503 2.38956,-2.01809z" fill="#F84E82"/>
  <path id="svg_14" d="m189.3699,22.04524c-0.11259,0.39337 -0.50799,0.77321 -1.17315,1.03588c0.11692,-0.42791 0.50366,-0.73867 1.17315,-1.03588z" fill="#FDD33A"/>
  <path id="svg_15" d="m190.71106,21.10935c0.1093,0.28351 -0.10677,0.49528 -0.58287,0.75853c-0.02736,-0.18106 0.14516,-0.47497 0.58287,-0.75853z" fill="#F84E82"/>
  <path id="svg_16" d="m199.71031,15.12135c0.09065,0.28217 -0.14639,0.48967 -0.65378,0.74438c-0.01179,-0.17332 0.18702,-0.46208 0.65378,-0.74438z" fill="#F84E82"/>
  <path id="svg_17" d="m211.70862,9.1224c0.08034,0.27934 -0.16513,0.48172 -0.68273,0.72566c-0.00412,-0.16908 0.20556,-0.45047 0.68273,-0.72566z" fill="#F84E82"/>
  <path id="svg_18" d="m210.75623,312.72687c-9.40009,8.46466 -21.20641,8.24225 -28.6252,-0.26975c-7.21875,-8.28247 -6.1313,-20.65594 2.4243,-27.58499c7.38569,-5.98157 18.26277,-5.5535 25.15494,0.98999c7.59606,7.21179 8.08883,17.33878 1.04596,26.86475z" fill="#7B58BB"/>
  <path id="svg_19" d="m277.21033,283.58215c8.04474,6.12558 10.80017,14.25962 7.88009,22.56742c-2.80267,7.97384 -10.38116,13.1315 -18.86441,12.83847c-8.15387,-0.28165 -15.39781,-5.8078 -17.59256,-13.85663c-2.11056,-7.74018 -0.25508,-14.65067 5.94077,-19.83823c6.854,-5.73861 14.47174,-6.06234 22.63611,-1.71103z" fill="#7A57BB"/>
  <path id="svg_20" d="m108.65597,291.93762c5.27806,-9.28448 13.764,-13.13815 22.75643,-10.60067c8.44118,2.38186 13.99637,10.09121 13.78711,19.13329c-0.20355,8.7963 -6.26993,16.24204 -15.07887,18.09662c-7.06065,1.48648 -13.24795,-0.51739 -18.09307,-5.86035c-5.42869,-5.98648 -6.43883,-12.90591 -3.3716,-20.76889z" fill="#7A58BB"/>
 </g>
</svg>