<svg width="512" height="512" xmlns="http://www.w3.org/2000/svg" xml:space="preserve" enable-background="new 0 0 512 512" version="1.1">

 <g>
  <title>Layer 1</title>
  <path id="svg_3" d="m226.46866,513c-0.94487,-0.6557 -1.33446,-1.78113 -1.91193,-1.88757c-2.86004,-0.52735 -5.76971,-0.78559 -8.88633,-1.48798c2.50254,-1.47955 5.16616,-2.81174 7.97166,-3.69159c4.00081,-1.25467 6.05849,-3.74161 6.33572,-7.93597c0.82578,-12.49311 4.99614,-17.62992 17.26941,-20.98035c4.05474,-1.1069 5.37957,-3.61047 5.85694,-7.5611c0.50761,-4.20101 1.90567,-8.2944 3.27734,-12.49817c2.01505,-0.75869 3.86493,-1.17758 5.28873,-2.19357c10.09723,-7.20505 17.6091,-7.28937 27.61193,0.08301c2.88202,2.12409 5.53476,2.48682 8.67835,0.57486c3.76971,-2.29285 7.71695,-4.29388 11.97696,-6.39435c6.67541,0.11035 12.22876,2.21124 17.3483,6.36615c3.18939,2.24262 5.78112,1.34644 8.41324,-0.60049c9.95095,-7.36045 17.46481,-7.37848 27.54205,0.05935c3.30865,2.44208 6.1495,2.32978 9.48028,-0.01284c2.79227,-1.9639 6.01511,-3.31562 9.29218,-5.0463c0.49026,-0.36255 0.73563,-0.61719 0.94867,-0.84357c-0.03238,0.02823 -0.09473,-0.03085 0.33902,0.0018c5.80792,1.83307 11.58621,2.91739 16.43268,5.65281c4.1278,2.32977 6.80252,2.46612 10.66915,-0.21839c3.08603,-2.14254 7.0998,-2.94888 10.70179,-4.34832c-9.77158,7.86874 -19.00504,16.55303 -29.42997,23.43151c-19.96557,13.17359 -41.47445,23.58216 -64.6445,29.86396c-12.17749,3.30151 -24.74816,5.1491 -37.12979,7.70886c-0.89309,0.18463 -1.69195,0.82525 -2.21759,1.60608c-20.03717,0.35217 -40.3914,0.35217 -61.21429,0.35217z" fill="#B4D667"/>
  <path id="svg_5" d="m178.5625,1c5.03836,9.46516 9.64084,18.92952 14.23216,28.3993c0.13637,0.28128 0.15537,0.61947 0.35346,1.5419c0.38099,1.0356 0.63762,1.46042 0.60823,2.07737c-6.14136,8.17143 -11.99674,16.15073 -18.42867,24.91574c10.65755,3.30352 20.30095,6.29268 29.94637,9.68415c0.09465,1.55778 0.10483,2.72687 0.29298,3.86657c1.51787,9.19364 3.2287,18.35893 4.54726,27.58056c0.72658,5.08155 -1.97473,6.86114 -6.58469,4.66296c-2.70093,-1.28789 -5.26324,-2.86416 -7.94943,-4.18566c-6.83914,-3.36456 -13.71288,-6.65883 -20.57346,-10.42117c-0.01754,-10.34635 -0.03437,-20.25275 -0.1,-30.50717c-0.93915,-1.89386 -1.72408,-3.51289 -2.73767,-4.97318c-5.04622,-7.27 -10.15261,-14.49825 -15.23781,-21.7412c4.12234,-8.54976 8.22317,-17.11 12.38652,-25.63974c0.7653,-1.56793 1.78407,-3.01214 2.68405,-4.88694c2.03987,-0.37349 4.08153,-0.37349 6.5607,-0.37349z" fill="#FEDD41"/>
  <path id="svg_6" d="m320.7276,31.08035c4.97705,-9.84956 9.95407,-19.69912 14.60175,-29.81452c1.71231,-0.26583 3.75399,-0.26583 6.23315,-0.26583c5.36581,10.08148 10.29413,20.16295 15.21716,30.89075c-5.9281,9.13328 -11.85089,17.62023 -18.02307,26.10761c-0.24945,0.00042 -0.74823,-0.00081 -0.81097,-0.34214c-6.08002,-8.49743 -12.09732,-16.65353 -18.02851,-25.05076c0.32758,-0.66913 0.56904,-1.09712 0.81049,-1.52511z" fill="#FFDD40"/>
  <path id="svg_7" d="m320.41516,30.86046c0.07099,0.64788 -0.17047,1.07587 -0.90536,1.80249c-9.8574,1.67913 -19.24469,2.92478 -28.56824,4.53878c-2.22009,0.38432 -5.30588,1.54324 -6.00257,3.1888c-0.59487,1.40506 1.2226,4.4468 2.74128,6.02546c6.7937,7.06205 13.86236,13.85955 20.86984,21.15627c-1.48645,10.19524 -3.15717,19.96796 -4.42078,29.79303c-0.27624,2.14799 0.24063,5.19175 1.6341,6.48734c0.96124,0.89375 4.27704,-0.06073 6.16772,-0.96708c9.08209,-4.35374 18.03729,-8.97215 27.38587,-13.34016c9.19909,4.7382 18.00729,9.40628 26.94082,13.82062c1.57386,0.77767 4.39148,1.3241 5.34909,0.4941c1.24408,-1.07834 1.84238,-3.72354 1.60691,-5.55107c-1.33664,-10.37342 -3.0051,-20.70409 -4.33475,-31.32774c4.19052,-3.90203 8.15521,-7.52563 12.1199,-11.14923c12.27521,8.82169 24.55045,17.64339 36.66077,26.94315c-5.18854,6.83943 -10.94757,12.75822 -15.09378,19.64765c-11.08377,18.417 -13.90555,37.67408 -2.64356,57.19828c4.06476,7.04682 8.96338,13.61132 13.45337,20.41446c19.90125,30.15395 34.75922,62.3415 40.96003,98.28531c1.04757,6.07224 4.21749,12.34378 8.03414,17.25986c9.07346,11.68716 22.50135,14.48309 36.45585,15.36929c-1.70209,7.58472 -3.40418,15.16947 -5.81604,22.90781c-3.61442,1.64328 -6.65091,2.92633 -9.38977,4.67548c-3.34171,2.13415 -6.33649,2.34204 -9.60859,-0.08579c-9.87747,-7.32898 -17.27322,-7.35724 -27.1625,-0.13464c-3.3906,2.47629 -6.60709,2.73388 -9.96152,-0.00388c-1.1391,-0.92969 -2.466,-1.6293 -3.74655,-2.89041c-0.73978,-13.53726 -0.65564,-26.72003 -2.33814,-39.67331c-2.12237,-16.34003 -6.96829,-32.08133 -14.83377,-47.10557c-10.83862,-23.29664 -26.20999,-42.72016 -45.54577,-59.00425c-11.34943,-9.55819 -23.51215,-17.93771 -37.51636,-24.02392c-30.01526,-14.32077 -61.33701,-19.68592 -94.0242,-16.35636c-16.59644,1.69052 -32.85132,5.25286 -48.50806,12.3859c-14.11719,5.25365 -26.66205,12.57364 -38.66475,21.53853c-10.57811,9.97892 -21.52559,19.22802 -30.94535,29.834c-11.7082,13.18251 -20.85753,28.24777 -26.92788,45.36726c-2.07708,5.41229 -4.16227,10.46481 -5.80521,15.65729c-6.37055,20.13397 -7.88091,40.85809 -7.5215,61.92462c-7.49741,5.79312 -9.84937,5.28961 -15.9651,0.53079c-7.09823,-5.52325 -16.29886,-4.60129 -23.96687,1.47849c-3.75812,2.9797 -6.96026,2.7926 -10.81029,0.13836c-2.61754,-1.80456 -5.85834,-2.70501 -8.82043,-4.00976c-1.64951,-6.23014 -3.29932,-12.46015 -4.94826,-18.69043c-0.32225,-1.21759 -0.6411,-2.43613 -0.46902,-4.04737c2.95764,-0.6965 5.42185,-1.00766 7.88808,-1.3019c19.55921,-2.33371 34.35271,-12.9809 37.73649,-34.78895c3.3332,-21.48196 10.0083,-42.15484 20.50864,-61.19372c9.54049,-17.29852 20.23529,-33.97746 30.80999,-50.68346c9.40848,-14.8636 11.84356,-30.36778 6.13948,-47.08612c-4.49923,-13.187 -12.93277,-23.87331 -21.6893,-34.36407c5.09661,-4.20564 9.99449,-8.68656 15.34079,-12.54638c6.49991,-4.69269 13.3777,-8.86199 20.74508,-13.3056c4.50122,3.60951 8.34936,7.26693 12.18781,11.36977c-1.46327,10.30261 -3.02854,20.14566 -4.27938,30.02852c-0.26052,2.05845 -0.05553,5.18288 1.20669,6.14154c1.24274,0.94382 4.36325,0.30599 6.20548,-0.58126c8.9761,-4.32306 17.79995,-8.96227 26.67769,-13.48962c6.85987,3.3224 13.73361,6.61667 20.57275,9.98123c2.68619,1.3215 5.2485,2.89777 7.94943,4.18566c4.60996,2.19818 7.31127,0.41859 6.58469,-4.66296c-1.31856,-9.22163 -3.02939,-18.38692 -4.54726,-27.58056c-0.18815,-1.1397 -0.19833,-2.30879 -0.02553,-4.06892c7.23845,-7.48183 14.30428,-14.26928 21.1084,-21.30963c1.41048,-1.45944 2.98213,-4.30118 2.43288,-5.70525c-0.60945,-1.55792 -3.46336,-2.78907 -5.51433,-3.13809c-9.80961,-1.66932 -19.67836,-2.99128 -29.52609,-4.43671c-0.25662,-0.42481 -0.51325,-0.84963 -0.77304,-1.52525c9.11995,-2.26735 18.15652,-5.28109 27.38516,-6.0822c16.5883,-1.43997 33.31895,-2.44353 49.93878,-1.93872c13.43549,0.40809 26.80426,3.23993 40.1825,5.13866c3.15063,0.44716 6.22012,1.46587 9.6394,2.44154z" fill="#4AB1F7"/>
  <path id="svg_8" d="m498.89703,310.53076c-14.02572,-0.46689 -27.45361,-3.26282 -36.52707,-14.94998c-3.81665,-4.91608 -6.98657,-11.18762 -8.03414,-17.25986c-6.20081,-35.94381 -21.05878,-68.13136 -40.96003,-98.28531c-4.48999,-6.80314 -9.38861,-13.36764 -13.45337,-20.41446c-11.26199,-19.5242 -8.44021,-38.78128 2.64356,-57.19828c4.14621,-6.88943 9.90524,-12.80822 15.22888,-19.33135c28.00964,22.96363 48.29218,51.66144 63.20032,84.28359c8.77298,19.19714 14.50336,39.30792 18.17126,60.15432c3.5304,20.06501 2.96924,40.18599 2.667,60.32119c-0.11161,7.43295 -1.86216,14.84127 -2.93641,22.68014z" fill="#73C3F9"/>
  <path id="svg_9" d="m433.1803,335.875c1.24109,0.80475 2.56799,1.50436 3.70709,2.43405c3.35443,2.73776 6.57092,2.48017 9.96152,0.00388c9.88928,-7.2226 17.28503,-7.19434 27.1625,0.13464c3.2721,2.42783 6.26688,2.21994 9.60859,0.08579c2.73886,-1.74915 5.77535,-3.0322 9.05511,-4.47428c-2.47446,9.00012 -4.40649,18.38513 -8.37695,26.80942c-6.91761,14.67752 -14.44355,29.16275 -22.95707,42.96197c-6.12368,9.92566 -14.11306,18.73212 -21.56967,27.79139c-4.29739,5.22104 -9.1488,9.99179 -13.84347,14.87619c-1.21717,1.26638 -2.78266,2.198 -4.50565,3.41137c-3.91949,1.52744 -7.93326,2.33378 -11.01929,4.47632c-3.86663,2.68451 -6.54135,2.54816 -10.66915,0.21839c-4.84647,-2.73542 -10.62476,-3.81974 -16.29056,-5.95969c4.68106,-6.44602 9.65381,-12.55246 14.8295,-18.91592c9.70303,-11.77109 16.6586,-24.72501 22.15622,-38.90259c7.44607,-17.79853 11.19683,-36.12339 12.75128,-54.95093z" fill="#88CE66"/>
  <path id="svg_10" d="m381.12372,55.52531c-4.08942,3.93036 -8.05411,7.55396 -12.61963,11.39957c-10.23361,-2.83039 -19.86636,-5.88279 -29.50204,-8.93099c-0.00293,0.0042 0.00396,0.00405 0.00396,0.00405c5.92276,-8.48696 11.84555,-16.97391 17.90967,-25.77814c8.40686,1.04837 16.66931,2.4333 24.93982,3.76814c2.55734,0.41274 5.1579,0.57628 7.70093,1.05464c3.73968,0.70345 4.92285,5.91175 1.87323,8.96249c-3.23182,3.23299 -6.77436,6.15543 -10.30594,9.52024z" fill="#FFE98D"/>
  <path id="svg_11" d="m96.6128,82.07127c9.06699,10.36418 17.50053,21.05049 21.99976,34.23749c5.70408,16.71834 3.269,32.22252 -6.13948,47.08612c-10.5747,16.706 -21.2695,33.38494 -30.80999,50.68346c-10.50034,19.03888 -17.17544,39.71176 -20.50864,61.19372c-3.38378,21.80805 -18.17728,32.45524 -37.73649,34.78895c-2.46623,0.29424 -4.93044,0.6054 -7.81956,0.89782c-4.44583,-19.10159 -3.91131,-38.46786 -3.48222,-57.76799c0.36682,-16.49982 3.34652,-32.68153 7.63931,-48.65053c5.19787,-19.3358 12.1624,-37.99229 22.36166,-55.1811c7.42081,-12.50629 15.70859,-24.57481 24.49146,-36.17075c6.44712,-8.51208 14.25235,-16.00848 21.6015,-23.81714c2.46039,-2.61423 5.38164,-4.79473 8.40269,-7.30005z" fill="#73C3F9"/>
  <path id="svg_12" d="m256.01904,457.02066c-1.00924,4.14038 -2.4073,8.23377 -2.91491,12.43478c-0.47737,3.95063 -1.8022,6.4542 -5.85694,7.5611c-12.27327,3.35043 -16.44363,8.48724 -17.26941,20.98035c-0.27723,4.19436 -2.33491,6.6813 -6.33572,7.93597c-2.8055,0.87985 -5.46912,2.21204 -8.38956,3.62103c-26.68371,-4.00088 -51.60676,-12.8789 -75.18124,-25.56759c-17.00567,-9.15314 -32.91657,-19.90515 -46.63486,-33.66324c3.79659,1.27771 7.59649,2.47076 10.81381,4.56073c3.41703,2.2196 6.24978,2.60724 9.42378,-0.0651c5.04245,-4.24545 10.99136,-5.8945 17.44018,-5.84249c-0.04435,0.03125 -0.12137,-0.04431 0.05139,0.16656c0.47738,0.40704 0.78201,0.60321 1.43583,0.84278c2.70208,1.25689 5.42055,2.06057 7.33345,3.76721c4.28696,3.8247 7.83835,3.57782 12.28486,-0.00306c7.29534,-5.87518 16.65893,-5.80004 24.12405,-0.55554c7.11595,4.99921 7.4872,4.98093 14.41037,-0.85895c8.95165,-4.48416 17.00487,-3.81088 24.44244,2.36368c2.73272,2.26868 5.73639,3.11954 8.58411,0.76038c10.20285,-8.45242 20.12964,-7.88858 30.04445,0.40768c0.6194,0.51831 1.45753,0.77521 2.19392,1.15372z" fill="#88CE65"/>
  <path id="svg_13" d="m131.15849,448.94495c-6.49314,-0.02076 -12.44205,1.62829 -17.4845,5.87374c-3.174,2.67234 -6.00675,2.2847 -9.42378,0.0651c-3.21732,-2.08997 -7.01722,-3.28302 -10.96347,-4.86487c-5.98782,-5.14215 -12.14209,-9.80533 -17.0315,-15.54587c-8.39365,-9.85483 -16.50374,-20.03479 -23.82497,-30.70144c-14.08713,-20.52414 -24.07161,-43.10471 -31.36566,-66.88007c-0.18848,-0.61438 -0.06535,-1.32434 -0.1025,-2.39029c2.94714,0.90421 6.18794,1.80466 8.80548,3.60922c3.85003,2.65424 7.05217,2.84134 10.81029,-0.13836c7.66801,-6.07978 16.86864,-7.00174 23.96687,-1.47849c6.11573,4.75882 8.46769,5.26233 16.02068,-0.0863c1.09389,6.25442 1.50375,12.21484 2.55479,18.05994c2.84827,15.84005 7.05136,31.28076 14.74767,45.95166c2.43027,4.92053 4.30537,9.84432 7.28225,13.9739c8.42795,11.69147 17.30699,23.05774 26.00835,34.55213z" fill="#6FAF47"/>
  <path id="svg_14" d="m145.20664,67.01705c-3.84815,-3.65741 -7.69629,-7.31483 -11.87433,-11.07741c-3.67067,-3.2321 -7.29883,-6.1171 -10.22514,-9.59299c-1.36423,-1.62043 -2.10558,-4.52845 -1.70892,-6.57794c0.23275,-1.20254 3.16948,-2.342 5.04223,-2.68988c9.86701,-1.83291 19.78251,-3.4047 30.08598,-5.12289c5.48997,7.18718 10.59636,14.41543 15.64258,21.68543c1.01359,1.46029 1.79852,3.07932 2.3349,4.98632c-4.63979,1.49802 -8.93714,2.59338 -13.20847,3.7822c-5.37407,1.49575 -10.72687,3.06795 -16.08883,4.60716z" fill="#FFB332"/>
  <path id="svg_15" d="m327.06869,455.13208c-4.90249,-3.89362 -10.45584,-5.99451 -17.34731,-6.40082c-15.30839,-9.48227 -30.01105,-18.64166 -44.71521,-28.22516c2.36215,-9.78546 4.72586,-19.14685 7.41967,-28.4516c2.4444,1.88858 4.52393,3.76249 6.67972,5.54419c5.35257,4.42374 10.34592,9.43604 16.18717,13.08582c17.57714,10.9827 36.4793,14.54602 56.66421,8.16846c5.97742,-1.88861 11.89829,-3.95609 17.71463,-5.64069c-3.82626,3.83218 -7.56638,7.31836 -11.20947,10.90311c-10.48545,10.31756 -20.93173,20.67495 -31.39341,31.01669z" fill="#D3DCFB"/>
  <path id="svg_16" d="m265.00769,420.93021c14.70264,9.15939 29.4053,18.31878 44.32404,27.77414c-3.6543,2.42334 -7.60154,4.42437 -11.37125,6.71722c-3.14359,1.91196 -5.79633,1.54923 -8.67835,-0.57486c-10.00283,-7.37238 -17.5147,-7.28806 -27.61193,-0.08301c-1.4238,1.01599 -3.27368,1.43488 -5.28873,2.19357c-1.09882,-0.31512 -1.93695,-0.57202 -2.55635,-1.09033c-9.91481,-8.29626 -19.8416,-8.8601 -30.04445,-0.40768c-2.84772,2.35916 -5.85139,1.5083 -8.58411,-0.76038c-7.43757,-6.17456 -15.49079,-6.84784 -24.30989,-2.81961c0.58707,-4.27521 1.43294,-8.26251 2.65134,-12.39505c17.16344,-4.67239 33.93675,-9.26632 50.75377,-13.69427c6.85649,-1.80533 13.80777,-3.25064 20.71591,-4.85974z" fill="#3E5AA0"/>
  <path id="svg_17" d="m327.28574,455.39337c10.24463,-10.60303 20.69091,-20.96042 31.17636,-31.27798c3.64309,-3.58475 7.38321,-7.07093 11.47979,-11.07938c1.27976,-1.05444 2.15876,-1.63168 3.04273,-1.80103c0.853,10.12025 8.54782,20.20853 25.0852,18.75056c-4.97271,6.10644 -9.94546,12.21288 -15.0603,18.62625c-0.14209,0.30688 -0.07974,0.36596 -0.30926,0.41751c-0.46357,0.32492 -0.69757,0.59833 -0.93164,0.8717c-3.0322,1.62277 -6.25504,2.97449 -9.04731,4.93839c-3.33078,2.34262 -6.17163,2.45492 -9.48028,0.01284c-10.07724,-7.43783 -17.5911,-7.4198 -27.54205,-0.05935c-2.63212,1.94693 -5.22385,2.84311 -8.41324,0.60049z" fill="#A3B7F3"/>
  <path id="svg_18" d="m382.01352,449.79309c-0.01083,-0.16546 0.22317,-0.43887 0.71908,-0.79205c0.01652,0.17486 -0.22885,0.4295 -0.71908,0.79205z" fill="#88CE66"/>
  <path id="svg_19" d="m145.19694,67.46248c5.37166,-1.98464 10.72446,-3.55684 16.09853,-5.05259c4.27133,-1.18882 8.56868,-2.28418 13.25726,-3.43417c0.41961,9.89325 0.43644,19.79965 0.45398,30.146c-8.87703,4.96729 -17.70088,9.6065 -26.67698,13.92956c-1.84223,0.88725 -4.96274,1.52508 -6.20548,0.58126c-1.26222,-0.95866 -1.46721,-4.08309 -1.20669,-6.14154c1.25084,-9.88286 2.81611,-19.72591 4.27938,-30.02852z" fill="#FDC83B"/>
  <path id="svg_20" d="m193.75636,33.01857c10.13373,1.25329 20.00248,2.57525 29.81209,4.24457c2.05097,0.34902 4.90488,1.58017 5.51433,3.13809c0.54925,1.40407 -1.0224,4.24581 -2.43288,5.70525c-6.80412,7.04035 -13.86995,13.8278 -21.11041,20.90731c-9.91086,-2.7868 -19.55426,-5.77596 -30.21181,-9.07948c6.43193,-8.76501 12.28731,-16.74431 18.42868,-24.91574z" fill="#FEE98D"/>
  <path id="svg_21" d="m338.96872,89.38895c-9.00028,4.52445 -17.95548,9.14286 -27.03757,13.4966c-1.89068,0.90635 -5.20648,1.86083 -6.16772,0.96708c-1.39347,-1.29559 -1.91034,-4.33935 -1.6341,-6.48734c1.26361,-9.82507 2.93433,-19.59779 4.84259,-29.843c9.93467,-3.47736 19.48554,-6.50105 29.03644,-9.52474c0,0 0.49878,0.00123 0.74823,0.00081c0.24942,-0.00042 0.24253,-0.00027 0.24207,0.46522c-0.01032,10.61879 -0.02014,20.77208 -0.02994,30.92537z" fill="#FDC83B"/>
  <path id="svg_22" d="m337.94562,57.65622c-9.48816,3.36502 -19.03903,6.38871 -29.01175,9.46236c-7.39124,-6.84304 -14.4599,-13.64054 -21.2536,-20.70259c-1.51868,-1.57866 -3.33615,-4.6204 -2.74128,-6.02546c0.69669,-1.64556 3.78248,-2.80448 6.00257,-3.1888c9.32355,-1.614 18.71084,-2.85965 28.48209,-4.29765c6.42465,8.09861 12.44195,16.25471 18.52197,24.75214z" fill="#FEB333"/>
  <path id="svg_23" d="m97.81576,400.05957c-7.64418,-14.31155 -11.84727,-29.75226 -14.69554,-45.59231c-1.05104,-5.8451 -1.4609,-11.80552 -2.21878,-18.15781c-0.751,-21.41315 0.75936,-42.13727 7.12991,-62.27124c1.64294,-5.19248 3.72813,-10.245 6.27022,-15.64417c10.30941,-0.61523 19.95878,-0.94809 29.7341,-0.96444c12.4184,20.06439 24.71085,39.81222 37.00113,59.96463c-0.22805,1.53491 -0.3945,2.68103 -0.68861,3.79336c-5.7933,21.91104 -11.60144,43.81815 -17.69286,65.94742c-1.78784,0.8334 -3.24531,1.60577 -4.7978,2.03253c-13.33752,3.66608 -26.69221,7.26975 -40.04177,10.89203z" fill="#3C59A0"/>
  <path id="svg_24" d="m190.72996,161.53711c15.30132,-7.02902 31.5562,-10.59136 48.15264,-12.28188c32.68719,-3.32956 64.00894,2.03559 93.7637,16.63053c-4.20608,15.24335 -8.40808,29.97374 -13.02875,44.73231c-23.4588,6.15544 -46.49884,12.2827 -69.83912,18.24259c-11.17679,-6.92542 -22.004,-13.76467 -32.94507,-20.41658c-9.21727,-5.60392 -18.56687,-10.99013 -27.85083,-16.91492c0.58719,-10.29216 1.16731,-20.14211 1.74743,-29.99205z" fill="#D3DCFB"/>
  <path id="svg_25" d="m433.14084,335.41864c-1.51499,19.2839 -5.26575,37.60876 -13.1752,55.38336c-10.43012,0.57477 -20.16214,0.90775 -30.07984,0.94599c-12.45968,-20.23316 -24.73376,-40.17154 -36.97332,-60.48267c3.30767,-12.57373 6.65213,-24.75616 9.83285,-36.9812c2.88327,-11.08164 5.58808,-22.20969 8.77975,-33.31464c15.09876,-3.98831 29.78931,-7.97934 44.47983,-11.97037c7.8295,14.66489 12.67542,30.40619 14.79779,46.74622c1.6825,12.95328 1.59836,26.13605 2.33814,39.67331z" fill="#D3DCFB"/>
  <path id="svg_26" d="m415.96893,248.63974c-14.65454,4.3504 -29.34509,8.34143 -44.71356,12.13077c-9.71243,-9.2171 -18.71768,-18.2621 -27.79028,-27.23905c-7.76956,-7.68765 -15.61624,-15.29738 -23.42884,-22.94156c4.20197,-14.7304 8.40397,-29.46079 12.86643,-44.46537c14.00833,5.57327 26.17105,13.95279 37.52048,23.51098c19.33578,16.28409 34.70715,35.70761 45.54577,59.00423z" fill="#E8EEFF"/>
  <path id="svg_27" d="m123.90971,257.11307c-9.64936,0.33288 -19.29873,0.66574 -29.4131,0.9855c5.4103,-16.83714 14.55963,-31.9024 26.26783,-45.08491c9.41976,-10.60598 20.36724,-19.85508 30.94134,-29.40863c0.69936,13.95802 6.82787,22.02615 19.23175,25.66909c-0.7287,1.10492 -1.32307,1.9327 -2.21515,2.9072c-15.13603,15.07507 -29.97435,30.0034 -44.81267,44.93175z" fill="#A2B6F4"/>
  <path id="svg_28" d="m171.07184,208.99698c-12.53819,-3.3658 -18.6667,-11.43393 -19.05759,-25.51975c11.69824,-9.26246 24.2431,-16.58245 38.36029,-21.8361c-0.2247,9.74592 -0.80482,19.59587 -1.67288,30.06453c-6.06856,6.17624 -11.84918,11.73378 -17.62982,17.29132z" fill="#BDC8F7"/>
  <path id="svg_29" d="m339.31702,89.54539c-0.3385,-10.30973 -0.32868,-20.46302 -0.31543,-31.08601c9.63614,2.58271 19.26889,5.63511 29.27661,8.74393c1.93054,10.40164 3.599,20.73231 4.93564,31.10573c0.23547,1.82753 -0.36283,4.47273 -1.60691,5.55107c-0.95761,0.83 -3.77523,0.28357 -5.34909,-0.4941c-8.93353,-4.41434 -17.74173,-9.08242 -26.94082,-13.82062z" fill="#FDDD42"/>
  <path id="svg_30" d="m390.07141,392.04273c9.73209,-0.33298 19.46411,-0.66596 29.65955,-0.97498c-4.79956,13.93576 -11.75513,26.88968 -21.45819,38.66077c-16.74033,1.71499 -24.43515,-8.37329 -25.22632,-18.81409c5.71292,-6.77619 11.36892,-12.82394 17.02496,-18.8717z" fill="#BEC8F6"/>
  <path id="svg_31" d="m97.86789,400.41895c13.29743,-3.98166 26.65212,-7.58533 39.98964,-11.25141c1.55249,-0.42676 3.00996,-1.19913 4.8753,-1.69049c1.57975,1.66965 2.65409,3.3595 4.03345,4.74585c14.09203,14.16324 28.24814,28.26276 42.3402,42.42599c1.50317,1.51078 2.71307,3.31336 4.05902,4.9806c-0.84589,3.98727 -1.69176,7.97457 -2.6702,12.41778c-6.66435,6.12781 -7.0356,6.14609 -14.15155,1.14688c-7.46512,-5.2445 -16.82871,-5.31964 -24.12405,0.55554c-4.44651,3.58088 -7.9979,3.82776 -12.28486,0.00306c-1.9129,-1.70664 -4.63137,-2.51032 -7.4729,-4.01532c-0.81549,-0.46283 -1.14231,-0.63419 -1.46914,-0.80554c0,0 0.07702,0.07556 0.12137,0.04431c-8.65704,-11.52564 -17.53608,-22.89191 -25.96403,-34.58338c-2.97688,-4.12958 -4.85198,-9.05337 -7.28225,-13.97387z" fill="#A2B6F3"/>
  <path id="svg_32" d="m131.16556,449.14276c0.15407,-0.03952 0.48089,0.13184 0.94717,0.55127c-0.16516,0.05194 -0.46979,-0.14423 -0.94717,-0.55127z" fill="#6FAF47"/>
  <path id="svg_33" d="m193.53803,439.48422c-1.71848,-1.52197 -2.92838,-3.32455 -4.43155,-4.83533c-14.09206,-14.16323 -28.24817,-28.26275 -42.3402,-42.42599c-1.37936,-1.38635 -2.4537,-3.0762 -3.74714,-4.96719c5.72761,-22.24997 11.53575,-44.15708 17.32905,-66.06812c0.29411,-1.11233 0.46056,-2.25845 1.10535,-3.80002c10.79576,-3.10452 21.17263,-5.79791 31.87608,-8.46313c0.76234,0.05716 1.19812,0.08615 1.57086,0.50375c-4.55714,15.54526 -0.81022,28.42386 10.42142,39.42002c10.32281,10.10638 20.59563,20.2723 30.60637,30.68518c4.54329,4.72577 9.66632,8.45797 15.99489,9.43228c6.58465,1.01367 13.36557,0.75238 20.08114,1.37903c0.04413,0.77136 0.06778,1.21225 0.0914,1.65316c-2.36367,9.36139 -4.72738,18.72278 -7.08953,28.50824c-6.90662,2.03321 -13.8579,3.47852 -20.71439,5.28385c-16.81702,4.42795 -33.59033,9.02188 -50.75375,13.69427z" fill="#BEC8F7"/>
  <path id="svg_34" d="m272.42587,392.0545c-0.35379,-0.49755 -0.37744,-0.93844 -0.35101,-2.09021c0.76456,-3.25582 1.54733,-5.78396 2.18161,-8.34881c2.61121,-10.55957 5.17725,-21.13034 8.16541,-31.64612c1.69845,-0.19049 3.01351,-0.34851 4.28094,-0.68567c22.06186,-5.8688 44.11786,-11.75964 66.17514,-17.64563c12.27408,19.93839 24.54816,39.87677 37.00784,60.10989c-5.47043,6.34254 -11.12643,12.39029 -16.8443,18.75861c-0.94085,0.89777 -1.81985,1.47501 -2.96917,2.22852c-6.2171,2.1618 -12.13797,4.22928 -18.11539,6.11789c-20.18491,6.37756 -39.08707,2.81424 -56.66421,-8.16846c-5.84125,-3.64978 -10.8346,-8.66208 -16.18717,-13.08582c-2.15579,-1.7817 -4.23532,-3.65561 -6.67969,-5.54419z" fill="#E9EFFF"/>
  <path id="svg_35" d="m193.00305,308.8963c-10.37688,2.69336 -20.75375,5.38675 -31.54736,8.08673c-12.70917,-19.74121 -25.00162,-39.48904 -37.42002,-59.55343c14.71236,-15.24488 29.55068,-30.17321 44.68284,-44.85445c-0.13064,1.83276 -0.44269,3.45894 -0.99727,4.9977c-4.52396,12.55239 -5.87406,25.45443 -4.13779,38.65225c2.46309,18.72268 11.51064,33.96664 24.95454,46.88956c1.73644,1.66915 2.98858,3.84207 4.46506,5.78164z" fill="#D2DCFB"/>
  <path id="svg_36" d="m352.91248,331.26532c-22.0918,6.25873 -44.1478,12.14957 -66.20966,18.01837c-1.26743,0.33716 -2.58249,0.49518 -4.40524,0.37885c-17.26657,-17.14057 -34.00328,-33.92344 -50.67115,-51.10996c6.19664,-23.44397 12.32444,-46.48427 18.45223,-69.52456c23.04005,-6.12725 46.08009,-12.25451 69.53889,-18.40995c8.2313,7.61601 16.07798,15.22574 23.84754,22.91339c9.0726,8.97695 18.07785,18.02195 27.38208,27.23639c-2.51376,11.30658 -5.21857,22.43463 -8.10184,33.51627c-3.18072,12.22504 -6.52518,24.40747 -9.83285,36.9812z" fill="#4F71B6"/>
  <path id="svg_37" d="m249.77843,228.86066c-5.82756,23.20765 -11.95536,46.24795 -18.49694,69.7832c-12.38185,3.79523 -24.3499,7.09549 -36.31796,10.39575c-0.43579,-0.02902 -0.87157,-0.05801 -1.63391,-0.11517c-1.80305,-1.96771 -3.05519,-4.14063 -4.79163,-5.80978c-13.4439,-12.92292 -22.49145,-28.16688 -24.95454,-46.88956c-1.73627,-13.19782 -0.38617,-26.09986 4.13779,-38.65225c0.55458,-1.53876 0.86663,-3.16494 1.29497,-5.14443c0.59825,-1.2216 1.19262,-2.04938 1.92132,-3.15428c5.91495,-5.8347 11.69557,-11.39224 17.75708,-17.12628c9.57188,5.30609 18.92148,10.6923 28.13875,16.29622c10.94107,6.65191 21.76828,13.49116 32.94507,20.41658z" fill="#E9EFFF"/>
  <path id="svg_38" d="m194.90048,309.42822c12.03111,-3.68887 23.99916,-6.98913 36.31217,-10.38067c17.08165,16.69155 33.81836,33.47442 50.67938,50.56411c-2.45831,10.87348 -5.02435,21.44425 -7.63556,32.00382c-0.63428,2.56485 -1.41705,5.09299 -2.20209,8.01837c-6.76565,0.0842 -13.54657,0.34549 -20.13122,-0.66818c-6.32857,-0.97431 -11.4516,-4.70651 -15.99489,-9.43228c-10.01074,-10.41288 -20.28356,-20.5788 -30.60637,-30.68518c-11.23164,-10.99616 -14.97856,-23.87476 -10.42142,-39.41999z" fill="#D3DCFB"/>
 </g>
</svg>