<svg version="1.1" id="Layer_1" xmlns="http://www.w3.org/2000/svg" xmlns:xlink="http://www.w3.org/1999/xlink" x="0px" y="0px"
	 width="100%" viewBox="0 0 512 512" enable-background="new 0 0 512 512" xml:space="preserve">
<path fill="#000000" opacity="1.000000" stroke="none" 
	d="
M342.000000,1.000003 
	C398.972534,1.000000 455.945068,1.000000 512.958801,1.000000 
	C512.958801,171.556931 512.958801,342.113892 512.958801,513.000000 
	C438.312775,513.000000 363.625031,513.000000 288.151611,512.647827 
	C288.208588,511.867004 289.007446,511.226379 289.900543,511.041748 
	C302.282166,508.481995 314.852844,506.634399 327.030334,503.332886 
	C350.200378,497.051086 371.709259,486.642517 391.674835,473.468933 
	C402.099762,466.590454 411.333221,457.906158 421.422302,449.909424 
	C423.145294,448.696045 424.710785,447.764435 425.927948,446.498047 
	C430.622620,441.613647 435.474030,436.842896 439.771423,431.621857 
	C447.228027,422.562592 455.217407,413.756134 461.341095,403.830475 
	C469.854614,390.031250 477.380554,375.546021 484.298157,360.868500 
	C488.268616,352.444214 490.200653,343.059204 493.384949,333.905457 
	C495.421631,326.119537 497.123718,318.534790 498.897034,310.530762 
	C499.971283,302.691895 501.721832,295.283569 501.833435,287.850616 
	C502.135681,267.715424 502.696838,247.594437 499.166443,227.529434 
	C495.498535,206.683029 489.768158,186.572250 480.995178,167.375107 
	C466.087036,134.752960 445.804504,106.055153 417.959747,82.613441 
	C405.549438,73.475456 393.274200,64.653763 381.123718,55.525314 
	C384.655304,52.160500 388.197845,49.238064 391.429657,46.005066 
	C394.479279,42.954330 393.296112,37.746033 389.556427,37.042576 
	C387.013397,36.564217 384.412842,36.400681 381.855499,35.987938 
	C373.584991,34.653103 365.322540,33.268169 356.920990,31.573483 
	C351.856628,21.162952 346.928314,11.081479 342.000000,1.000003 
z"/>
<path fill="#000000" opacity="1.000000" stroke="none" 
	d="
M226.000000,513.000000 
	C151.036133,513.000000 76.072273,513.000000 1.054207,513.000000 
	C1.054207,342.451721 1.054207,171.903427 1.054207,1.000000 
	C57.687065,1.000000 114.374878,1.000000 171.533142,1.373487 
	C171.101822,3.248287 170.083054,4.692497 169.317749,6.260427 
	C165.154404,14.790171 161.053574,23.350414 156.526459,31.955942 
	C146.222992,33.674129 136.307495,35.245922 126.440483,37.078827 
	C124.567726,37.426708 121.631004,38.566166 121.398254,39.768711 
	C121.001595,41.818203 121.742935,44.726219 123.107170,46.346649 
	C126.033478,49.822540 129.661636,52.707542 132.679245,55.987545 
	C125.641747,60.536324 118.763962,64.705620 112.264046,69.398308 
	C106.917755,73.258133 102.019875,77.739052 96.612801,82.071266 
	C93.591751,84.576591 90.670502,86.757088 88.210106,89.371323 
	C80.860962,97.179977 73.055733,104.676376 66.608612,113.188461 
	C57.825741,124.784401 49.537964,136.852921 42.117153,149.359207 
	C31.917891,166.548019 24.953363,185.204514 19.755495,204.540314 
	C15.462695,220.509308 12.483004,236.691025 12.116176,253.190842 
	C11.687092,272.490967 11.152567,291.857239 15.105903,311.351990 
	C15.357803,312.974152 15.676650,314.192688 15.998904,315.410278 
	C17.647837,321.640564 19.297653,327.870575 20.962112,334.501251 
	C20.999260,335.567200 20.876127,336.277161 21.064610,336.891541 
	C28.358660,360.666901 38.343136,383.247467 52.430267,403.771606 
	C59.751503,414.438263 67.861595,424.618225 76.255241,434.473053 
	C81.144646,440.213593 87.298920,444.876770 93.033752,450.328857 
	C107.154694,464.081146 123.065590,474.833160 140.071259,483.986298 
	C163.645737,496.674988 188.568787,505.553009 215.476944,509.903259 
	C218.787018,510.326843 221.696686,510.585083 224.556732,511.112427 
	C225.134201,511.218872 225.523788,512.344299 226.000000,513.000000 
z"/>
<path fill="#B4D667" opacity="1.000000" stroke="none" 
	d="
M226.468658,513.000000 
	C225.523788,512.344299 225.134201,511.218872 224.556732,511.112427 
	C221.696686,510.585083 218.787018,510.326843 215.670395,509.624451 
	C218.172943,508.144897 220.836563,506.812714 223.642059,505.932861 
	C227.642868,504.678192 229.700546,502.191254 229.977783,497.996887 
	C230.803558,485.503784 234.973923,480.366974 247.247192,477.016541 
	C251.301926,475.909637 252.626755,473.406067 253.104126,469.455444 
	C253.611740,465.254425 255.009796,461.161041 256.381470,456.957275 
	C258.396515,456.198578 260.246399,455.779694 261.670197,454.763702 
	C271.767426,447.558655 279.279297,447.474335 289.282135,454.846710 
	C292.164154,456.970795 294.816895,457.333527 297.960480,455.421570 
	C301.730194,453.128723 305.677429,451.127686 309.937439,449.027222 
	C316.612854,449.137573 322.166199,451.238464 327.285736,455.393372 
	C330.475128,457.635986 333.066864,456.739807 335.698975,454.792877 
	C345.649933,447.432434 353.163788,447.414398 363.241028,454.852234 
	C366.549683,457.294312 369.390533,457.182007 372.721313,454.839386 
	C375.513580,452.875488 378.736420,451.523773 382.013489,449.793091 
	C382.503754,449.430542 382.749115,449.175903 382.962158,448.949524 
	C382.929779,448.977753 382.867432,448.918671 383.301178,448.951324 
	C389.109100,450.784393 394.887390,451.868713 399.733856,454.604126 
	C403.861664,456.933899 406.536377,457.070251 410.403015,454.385742 
	C413.489044,452.243195 417.502808,451.436859 421.104797,450.037415 
	C411.333221,457.906158 402.099762,466.590454 391.674835,473.468933 
	C371.709259,486.642517 350.200378,497.051086 327.030334,503.332886 
	C314.852844,506.634399 302.282166,508.481995 289.900543,511.041748 
	C289.007446,511.226379 288.208588,511.867004 287.682953,512.647827 
	C267.645782,513.000000 247.291550,513.000000 226.468658,513.000000 
z"/>
<path fill="#000000" opacity="1.000000" stroke="none" 
	d="
M179.000000,1.000002 
	C230.687561,1.000000 282.375122,1.000000 334.860718,1.265834 
	C330.681671,11.381228 325.704651,21.230789 320.415161,30.860460 
	C316.995880,29.884792 313.926392,28.866079 310.775757,28.418921 
	C297.397522,26.520187 284.028748,23.688349 270.593262,23.280256 
	C253.973434,22.775446 237.242783,23.779005 220.654480,25.218983 
	C211.425842,26.020092 202.389267,29.033833 193.144943,30.690401 
	C192.950027,30.018766 192.931030,29.680578 192.794662,29.399300 
	C188.203339,19.929522 183.600861,10.465156 179.000000,1.000002 
z"/>
<path fill="#FEDD41" opacity="1.000000" stroke="none" 
	d="
M178.562500,1.000002 
	C183.600861,10.465156 188.203339,19.929522 192.794662,29.399300 
	C192.931030,29.680578 192.950027,30.018766 193.148117,30.941204 
	C193.529114,31.976801 193.785736,32.401619 193.756348,33.018570 
	C187.614990,41.190002 181.759613,49.169300 175.327682,57.934315 
	C185.985229,61.237831 195.628632,64.226990 205.274048,67.618462 
	C205.368698,69.176239 205.378876,70.345329 205.567032,71.485031 
	C207.084900,80.678673 208.795731,89.843964 210.114288,99.065590 
	C210.840866,104.147141 208.139557,105.926735 203.529602,103.728554 
	C200.828674,102.440659 198.266357,100.864388 195.580170,99.542892 
	C188.741028,96.178329 181.867294,92.884064 175.006714,89.121719 
	C174.989166,78.775375 174.972336,68.868973 174.906708,58.614552 
	C173.967560,56.720688 173.182632,55.101665 172.169037,53.641369 
	C167.122818,46.371368 162.016434,39.143120 156.931229,31.900169 
	C161.053574,23.350414 165.154404,14.790171 169.317749,6.260427 
	C170.083054,4.692497 171.101822,3.248287 172.001801,1.373487 
	C174.041672,1.000000 176.083328,1.000000 178.562500,1.000002 
z"/>
<path fill="#FFDD40" opacity="1.000000" stroke="none" 
	d="
M320.727600,31.080345 
	C325.704651,21.230789 330.681671,11.381228 335.329346,1.265834 
	C337.041656,1.000000 339.083344,1.000000 341.562500,1.000003 
	C346.928314,11.081479 351.856628,21.162952 356.779663,31.890747 
	C350.851562,41.024025 344.928772,49.510983 338.756592,57.998356 
	C338.507141,57.998775 338.008362,57.997551 337.945618,57.656219 
	C331.865601,49.158787 325.848297,41.002689 319.917114,32.605461 
	C320.244690,31.936331 320.486145,31.508337 320.727600,31.080345 
z"/>
<path fill="#4AB1F7" opacity="1.000000" stroke="none" 
	d="
M320.415161,30.860456 
	C320.486145,31.508337 320.244690,31.936331 319.509796,32.662949 
	C309.652405,34.342083 300.265106,35.587730 290.941559,37.201733 
	C288.721466,37.586052 285.635681,38.744968 284.938995,40.390526 
	C284.344116,41.795586 286.161591,44.837326 287.680267,46.415993 
	C294.473969,53.478043 301.542633,60.275536 308.550110,67.572258 
	C307.063660,77.767502 305.392944,87.540215 304.129333,97.365288 
	C303.853088,99.513283 304.369965,102.557037 305.763428,103.852631 
	C306.724670,104.746376 310.040466,103.791901 311.931152,102.885551 
	C321.013245,98.531815 329.968445,93.913399 339.317017,89.545395 
	C348.516113,94.283585 357.324310,98.951675 366.257843,103.366013 
	C367.831696,104.143684 370.649323,104.690109 371.606934,103.860107 
	C372.851013,102.781769 373.449310,100.136574 373.213837,98.309044 
	C371.877197,87.935623 370.208740,77.604950 368.879089,66.981300 
	C373.069611,63.079266 377.034302,59.455666 380.998993,55.832069 
	C393.274200,64.653763 405.549438,73.475456 417.659760,82.775223 
	C412.471222,89.614647 406.712189,95.533440 402.565979,102.422867 
	C391.482208,120.839874 388.660431,140.096954 399.922424,159.621155 
	C403.987183,166.667969 408.885803,173.232468 413.375793,180.035614 
	C433.277039,210.189560 448.135010,242.377106 454.335815,278.320923 
	C455.383392,284.393158 458.553314,290.664703 462.369965,295.580780 
	C471.443420,307.267944 484.871307,310.063873 498.825806,310.950073 
	C497.123718,318.534790 495.421631,326.119537 493.009766,333.857880 
	C489.395355,335.501160 486.358856,336.784210 483.619995,338.533356 
	C480.278290,340.667511 477.283508,340.875397 474.011414,338.447571 
	C464.133942,331.118591 456.738190,331.090332 446.848907,338.312927 
	C443.458313,340.789215 440.241821,341.046814 436.887390,338.309052 
	C435.748291,337.379364 434.421387,336.679749 433.140839,335.418640 
	C432.401062,321.881378 432.485199,308.698608 430.802704,295.745331 
	C428.680328,279.405304 423.834412,263.664001 415.968933,248.639755 
	C405.130310,225.343124 389.758942,205.919601 370.423157,189.635513 
	C359.073730,180.077316 346.911011,171.697800 332.906799,165.611588 
	C302.891541,151.290817 271.569794,145.925674 238.882599,149.255234 
	C222.286163,150.945755 206.031281,154.508087 190.374542,161.641129 
	C176.257355,166.894775 163.712494,174.214767 151.709793,183.179657 
	C141.131683,193.158585 130.184204,202.407684 120.764435,213.013657 
	C109.056244,226.196167 99.906906,241.261429 93.836563,258.380920 
	C91.759483,263.793213 89.674286,268.845734 88.031349,274.038208 
	C81.660805,294.172180 80.150436,314.896301 80.509850,335.962830 
	C73.012436,341.755951 70.660484,341.252441 64.544754,336.493622 
	C57.446518,330.970367 48.245892,331.892334 40.577877,337.972107 
	C36.819756,340.951813 33.617615,340.764709 29.767586,338.110474 
	C27.150049,336.305908 23.909246,335.405457 20.947163,334.100708 
	C19.297653,327.870575 17.647837,321.640564 15.998904,315.410278 
	C15.676650,314.192688 15.357803,312.974152 15.529881,311.362915 
	C18.487520,310.666412 20.951731,310.355255 23.417961,310.061005 
	C42.977169,307.727295 57.770668,297.080109 61.154453,275.272064 
	C64.487648,253.790100 71.162750,233.117218 81.663086,214.078339 
	C91.203583,196.779816 101.898384,180.100876 112.473083,163.394882 
	C121.881561,148.531281 124.316635,133.027100 118.612556,116.308762 
	C114.113327,103.121765 105.679787,92.435448 96.923256,81.944695 
	C102.019875,77.739052 106.917755,73.258133 112.264046,69.398308 
	C118.763962,64.705620 125.641747,60.536324 133.009125,56.092705 
	C137.510345,59.702221 141.358490,63.359638 145.196945,67.462479 
	C143.733673,77.765091 142.168396,87.608139 140.917557,97.490997 
	C140.657043,99.549446 140.862030,102.673882 142.124252,103.632538 
	C143.366989,104.576363 146.487503,103.938530 148.329727,103.051277 
	C157.305832,98.728218 166.129684,94.089005 175.007416,89.561661 
	C181.867294,92.884064 188.741028,96.178329 195.580170,99.542892 
	C198.266357,100.864388 200.828674,102.440659 203.529602,103.728554 
	C208.139557,105.926735 210.840866,104.147141 210.114288,99.065590 
	C208.795731,89.843964 207.084900,80.678673 205.567032,71.485031 
	C205.378876,70.345329 205.368698,69.176239 205.541504,67.416107 
	C212.779953,59.934280 219.845779,53.146832 226.649902,46.106476 
	C228.060379,44.647038 229.632034,41.805298 229.082779,40.401230 
	C228.473328,38.843315 225.619415,37.612160 223.568451,37.263142 
	C213.758835,35.593819 203.890091,34.271862 194.042358,32.826431 
	C193.785736,32.401619 193.529114,31.976801 193.269318,31.301182 
	C202.389267,29.033833 211.425842,26.020092 220.654480,25.218983 
	C237.242783,23.779005 253.973434,22.775446 270.593262,23.280256 
	C284.028748,23.688349 297.397522,26.520187 310.775757,28.418921 
	C313.926392,28.866079 316.995880,29.884792 320.415161,30.860456 
z"/>
<path fill="#73C3F9" opacity="1.000000" stroke="none" 
	d="
M498.897034,310.530762 
	C484.871307,310.063873 471.443420,307.267944 462.369965,295.580780 
	C458.553314,290.664703 455.383392,284.393158 454.335815,278.320923 
	C448.135010,242.377106 433.277039,210.189560 413.375793,180.035614 
	C408.885803,173.232468 403.987183,166.667969 399.922424,159.621155 
	C388.660431,140.096954 391.482208,120.839874 402.565979,102.422867 
	C406.712189,95.533440 412.471222,89.614647 417.794861,83.091515 
	C445.804504,106.055153 466.087036,134.752960 480.995178,167.375107 
	C489.768158,186.572250 495.498535,206.683029 499.166443,227.529434 
	C502.696838,247.594437 502.135681,267.715424 501.833435,287.850616 
	C501.721832,295.283569 499.971283,302.691895 498.897034,310.530762 
z"/>
<path fill="#88CE66" opacity="1.000000" stroke="none" 
	d="
M433.180298,335.875000 
	C434.421387,336.679749 435.748291,337.379364 436.887390,338.309052 
	C440.241821,341.046814 443.458313,340.789215 446.848907,338.312927 
	C456.738190,331.090332 464.133942,331.118591 474.011414,338.447571 
	C477.283508,340.875397 480.278290,340.667511 483.619995,338.533356 
	C486.358856,336.784210 489.395355,335.501160 492.675110,334.059082 
	C490.200653,343.059204 488.268616,352.444214 484.298157,360.868500 
	C477.380554,375.546021 469.854614,390.031250 461.341095,403.830475 
	C455.217407,413.756134 447.228027,422.562592 439.771423,431.621857 
	C435.474030,436.842896 430.622620,441.613647 425.927948,446.498047 
	C424.710785,447.764435 423.145294,448.696045 421.422302,449.909424 
	C417.502808,451.436859 413.489044,452.243195 410.403015,454.385742 
	C406.536377,457.070251 403.861664,456.933899 399.733856,454.604126 
	C394.887390,451.868713 389.109100,450.784393 383.443298,448.644440 
	C388.124359,442.198425 393.097107,436.091980 398.272797,429.728516 
	C407.975830,417.957428 414.931396,405.003510 420.429016,390.825928 
	C427.875092,373.027405 431.625854,354.702545 433.180298,335.875000 
z"/>
<path fill="#FFE98D" opacity="1.000000" stroke="none" 
	d="
M381.123718,55.525314 
	C377.034302,59.455666 373.069611,63.079266 368.504089,66.924881 
	C358.270477,64.094490 348.637726,61.042091 339.002045,57.993893 
	C338.999115,57.998089 339.006012,57.997944 339.006012,57.997940 
	C344.928772,49.510983 350.851562,41.024025 356.915680,32.219803 
	C365.322540,33.268169 373.584991,34.653103 381.855499,35.987938 
	C384.412842,36.400681 387.013397,36.564217 389.556427,37.042576 
	C393.296112,37.746033 394.479279,42.954330 391.429657,46.005066 
	C388.197845,49.238064 384.655304,52.160500 381.123718,55.525314 
z"/>
<path fill="#73C3F9" opacity="1.000000" stroke="none" 
	d="
M96.612801,82.071266 
	C105.679787,92.435448 114.113327,103.121765 118.612556,116.308762 
	C124.316635,133.027100 121.881561,148.531281 112.473083,163.394882 
	C101.898384,180.100876 91.203583,196.779816 81.663086,214.078339 
	C71.162750,233.117218 64.487648,253.790100 61.154453,275.272064 
	C57.770668,297.080109 42.977169,307.727295 23.417961,310.061005 
	C20.951731,310.355255 18.487520,310.666412 15.598397,310.958832 
	C11.152567,291.857239 11.687092,272.490967 12.116176,253.190842 
	C12.483004,236.691025 15.462695,220.509308 19.755495,204.540314 
	C24.953363,185.204514 31.917891,166.548019 42.117153,149.359207 
	C49.537964,136.852921 57.825741,124.784401 66.608612,113.188461 
	C73.055733,104.676376 80.860962,97.179977 88.210106,89.371323 
	C90.670502,86.757088 93.591751,84.576591 96.612801,82.071266 
z"/>
<path fill="#88CE65" opacity="1.000000" stroke="none" 
	d="
M256.019043,457.020660 
	C255.009796,461.161041 253.611740,465.254425 253.104126,469.455444 
	C252.626755,473.406067 251.301926,475.909637 247.247192,477.016541 
	C234.973923,480.366974 230.803558,485.503784 229.977783,497.996887 
	C229.700546,502.191254 227.642868,504.678192 223.642059,505.932861 
	C220.836563,506.812714 218.172943,508.144897 215.252502,509.553894 
	C188.568787,505.553009 163.645737,496.674988 140.071259,483.986298 
	C123.065590,474.833160 107.154694,464.081146 93.436401,450.323059 
	C97.232986,451.600769 101.032890,452.793823 104.250206,454.883789 
	C107.667244,457.103394 110.499992,457.491028 113.673988,454.818695 
	C118.716438,450.573242 124.665352,448.924194 131.114166,448.976196 
	C131.069824,449.007446 130.992798,448.931885 131.165558,449.142761 
	C131.642944,449.549805 131.947571,449.745972 132.601395,449.985535 
	C135.303467,451.242432 138.021942,452.046112 139.934845,453.752747 
	C144.221802,457.577454 147.773193,457.330566 152.219696,453.749695 
	C159.515045,447.874512 168.878632,447.949646 176.343750,453.194153 
	C183.459702,458.193359 183.830948,458.175079 190.754120,452.335205 
	C199.705765,447.851044 207.758987,448.524323 215.196564,454.698883 
	C217.929276,456.967560 220.932953,457.818420 223.780670,455.459259 
	C233.983521,447.006836 243.910309,447.570679 253.825119,455.866943 
	C254.444519,456.385254 255.282654,456.642151 256.019043,457.020660 
z"/>
<path fill="#6FAF47" opacity="1.000000" stroke="none" 
	d="
M131.158493,448.944946 
	C124.665352,448.924194 118.716438,450.573242 113.673988,454.818695 
	C110.499992,457.491028 107.667244,457.103394 104.250206,454.883789 
	C101.032890,452.793823 97.232986,451.600769 93.286743,450.018921 
	C87.298920,444.876770 81.144646,440.213593 76.255241,434.473053 
	C67.861595,424.618225 59.751503,414.438263 52.430267,403.771606 
	C38.343136,383.247467 28.358660,360.666901 21.064610,336.891541 
	C20.876127,336.277161 20.999260,335.567200 20.962112,334.501251 
	C23.909246,335.405457 27.150049,336.305908 29.767586,338.110474 
	C33.617615,340.764709 36.819756,340.951813 40.577877,337.972107 
	C48.245892,331.892334 57.446518,330.970367 64.544754,336.493622 
	C70.660484,341.252441 73.012436,341.755951 80.565430,336.407318 
	C81.659317,342.661743 82.069176,348.622162 83.120216,354.467255 
	C85.968491,370.307312 90.171585,385.748016 97.867889,400.418915 
	C100.298157,405.339447 102.173256,410.263245 105.150139,414.392822 
	C113.578087,426.084290 122.457130,437.450562 131.158493,448.944946 
z"/>
<path fill="#FFB332" opacity="1.000000" stroke="none" 
	d="
M145.206635,67.017052 
	C141.358490,63.359638 137.510345,59.702221 133.332306,55.939644 
	C129.661636,52.707542 126.033478,49.822540 123.107170,46.346649 
	C121.742935,44.726219 121.001595,41.818203 121.398254,39.768711 
	C121.631004,38.566166 124.567726,37.426708 126.440483,37.078827 
	C136.307495,35.245922 146.222992,33.674129 156.526459,31.955944 
	C162.016434,39.143120 167.122818,46.371368 172.169037,53.641369 
	C173.182632,55.101665 173.967560,56.720688 174.503937,58.627693 
	C169.864151,60.125713 165.566803,61.221066 161.295471,62.409893 
	C155.921402,63.905643 150.568604,65.477844 145.206635,67.017052 
z"/>
<path fill="#D3DCFB" opacity="1.000000" stroke="none" 
	d="
M327.068695,455.132080 
	C322.166199,451.238464 316.612854,449.137573 309.721375,448.731262 
	C294.412994,439.248993 279.710327,430.089600 265.006165,420.506104 
	C267.368317,410.720642 269.732025,401.359253 272.425842,392.054504 
	C274.870239,393.943085 276.949768,395.816986 279.105560,397.598694 
	C284.458130,402.022430 289.451477,407.034729 295.292725,410.684509 
	C312.869873,421.667206 331.772034,425.230530 351.956940,418.852966 
	C357.934357,416.964355 363.855225,414.896881 369.671570,413.212280 
	C365.845306,417.044464 362.105194,420.530640 358.462097,424.115387 
	C347.976654,434.432953 337.530365,444.790344 327.068695,455.132080 
z"/>
<path fill="#3E5AA0" opacity="1.000000" stroke="none" 
	d="
M265.007690,420.930206 
	C279.710327,430.089600 294.412994,439.248993 309.331726,448.704346 
	C305.677429,451.127686 301.730194,453.128723 297.960480,455.421570 
	C294.816895,457.333527 292.164154,456.970795 289.282135,454.846710 
	C279.279297,447.474335 271.767426,447.558655 261.670197,454.763702 
	C260.246399,455.779694 258.396515,456.198578 256.381470,456.957275 
	C255.282654,456.642151 254.444519,456.385254 253.825119,455.866943 
	C243.910309,447.570679 233.983521,447.006836 223.780670,455.459259 
	C220.932953,457.818420 217.929276,456.967560 215.196564,454.698883 
	C207.758987,448.524323 199.705765,447.851044 190.886673,451.879272 
	C191.473740,447.604065 192.319611,443.616760 193.538010,439.484222 
	C210.701447,434.811829 227.474762,430.217896 244.291779,425.789948 
	C251.148270,423.984619 258.099548,422.539307 265.007690,420.930206 
z"/>
<path fill="#A3B7F3" opacity="1.000000" stroke="none" 
	d="
M327.285736,455.393372 
	C337.530365,444.790344 347.976654,434.432953 358.462097,424.115387 
	C362.105194,420.530640 365.845306,417.044464 369.941895,413.036011 
	C371.221649,411.981567 372.100647,411.404327 372.984619,411.234985 
	C373.837616,421.355225 381.532440,431.443512 398.069824,429.985535 
	C393.097107,436.091980 388.124359,442.198425 383.009521,448.611786 
	C382.867432,448.918671 382.929779,448.977753 382.700256,449.029297 
	C382.236694,449.354218 382.002686,449.627625 381.768616,449.901001 
	C378.736420,451.523773 375.513580,452.875488 372.721313,454.839386 
	C369.390533,457.182007 366.549683,457.294312 363.241028,454.852234 
	C353.163788,447.414398 345.649933,447.432434 335.698975,454.792877 
	C333.066864,456.739807 330.475128,457.635986 327.285736,455.393372 
z"/>
<path fill="#88CE66" opacity="1.000000" stroke="none" 
	d="
M382.013519,449.793091 
	C382.002686,449.627625 382.236694,449.354218 382.732605,449.001038 
	C382.749115,449.175903 382.503754,449.430542 382.013519,449.793091 
z"/>
<path fill="#FDC83B" opacity="1.000000" stroke="none" 
	d="
M145.196945,67.462479 
	C150.568604,65.477844 155.921402,63.905643 161.295471,62.409893 
	C165.566803,61.221066 169.864151,60.125713 174.552734,58.975719 
	C174.972336,68.868973 174.989166,78.775375 175.006714,89.121719 
	C166.129684,94.089005 157.305832,98.728218 148.329727,103.051277 
	C146.487503,103.938530 143.366989,104.576363 142.124252,103.632538 
	C140.862030,102.673882 140.657043,99.549446 140.917557,97.490997 
	C142.168396,87.608139 143.733673,77.765091 145.196945,67.462479 
z"/>
<path fill="#FEE98D" opacity="1.000000" stroke="none" 
	d="
M193.756363,33.018566 
	C203.890091,34.271862 213.758835,35.593819 223.568451,37.263142 
	C225.619415,37.612160 228.473328,38.843315 229.082779,40.401230 
	C229.632034,41.805298 228.060379,44.647038 226.649902,46.106476 
	C219.845779,53.146832 212.779953,59.934280 205.539490,67.013794 
	C195.628632,64.226990 185.985229,61.237831 175.327682,57.934315 
	C181.759613,49.169300 187.614990,41.190002 193.756363,33.018566 
z"/>
<path fill="#FDC83B" opacity="1.000000" stroke="none" 
	d="
M338.968719,89.388954 
	C329.968445,93.913399 321.013245,98.531815 311.931152,102.885551 
	C310.040466,103.791901 306.724670,104.746376 305.763428,103.852631 
	C304.369965,102.557037 303.853088,99.513283 304.129333,97.365288 
	C305.392944,87.540215 307.063660,77.767502 308.971924,67.522293 
	C318.906586,64.044930 328.457458,61.021244 338.008362,57.997555 
	C338.008362,57.997551 338.507141,57.998775 338.756592,57.998360 
	C339.006012,57.997944 338.999115,57.998089 338.998657,58.463577 
	C338.988342,69.082367 338.978516,79.235657 338.968719,89.388954 
z"/>
<path fill="#FEB333" opacity="1.000000" stroke="none" 
	d="
M337.945618,57.656219 
	C328.457458,61.021244 318.906586,64.044930 308.933868,67.118576 
	C301.542633,60.275536 294.473969,53.478043 287.680267,46.415993 
	C286.161591,44.837326 284.344116,41.795586 284.938995,40.390526 
	C285.635681,38.744968 288.721466,37.586052 290.941559,37.201733 
	C300.265106,35.587730 309.652405,34.342083 319.423645,32.904079 
	C325.848297,41.002689 331.865601,49.158787 337.945618,57.656219 
z"/>
<path fill="#3C59A0" opacity="1.000000" stroke="none" 
	d="
M97.815765,400.059570 
	C90.171585,385.748016 85.968491,370.307312 83.120216,354.467255 
	C82.069176,348.622162 81.659317,342.661743 80.901443,336.309448 
	C80.150436,314.896301 81.660805,294.172180 88.031349,274.038208 
	C89.674286,268.845734 91.759483,263.793213 94.301575,258.394043 
	C104.610977,257.778809 114.260345,257.445953 124.035675,257.429596 
	C136.454071,277.493988 148.746521,297.241821 161.036804,317.394226 
	C160.808746,318.929138 160.642303,320.075256 160.348190,321.187592 
	C154.554886,343.098633 148.746750,365.005737 142.655334,387.135010 
	C140.867493,387.968414 139.410019,388.740784 137.857529,389.167542 
	C124.520012,392.833618 111.165321,396.437286 97.815765,400.059570 
z"/>
<path fill="#D3DCFB" opacity="1.000000" stroke="none" 
	d="
M190.729965,161.537109 
	C206.031281,154.508087 222.286163,150.945755 238.882599,149.255234 
	C271.569794,145.925674 302.891541,151.290817 332.646301,165.885757 
	C328.440216,181.129105 324.238220,195.859497 319.617554,210.618073 
	C296.158752,216.773514 273.118713,222.900772 249.778427,228.860657 
	C238.601639,221.935242 227.774429,215.095993 216.833359,208.444077 
	C207.616089,202.840164 198.266495,197.453949 188.982529,191.529160 
	C189.569717,181.237000 190.149841,171.387054 190.729965,161.537109 
z"/>
<path fill="#D3DCFB" opacity="1.000000" stroke="none" 
	d="
M433.140839,335.418640 
	C431.625854,354.702545 427.875092,373.027405 419.965637,390.802002 
	C409.535522,391.376770 399.803497,391.709747 389.885803,391.747986 
	C377.426117,371.514832 365.152039,351.576447 352.912476,331.265320 
	C356.220154,318.691589 359.564606,306.509155 362.745331,294.284119 
	C365.628601,283.202484 368.333405,272.074432 371.525085,260.969482 
	C386.623840,256.981171 401.314392,252.990143 416.004913,248.999115 
	C423.834412,263.664001 428.680328,279.405304 430.802704,295.745331 
	C432.485199,308.698608 432.401062,321.881378 433.140839,335.418640 
z"/>
<path fill="#E8EEFF" opacity="1.000000" stroke="none" 
	d="
M415.968933,248.639740 
	C401.314392,252.990143 386.623840,256.981171 371.255371,260.770508 
	C361.542938,251.553406 352.537689,242.508408 343.465088,233.531464 
	C335.695526,225.843811 327.848846,218.234085 320.036255,210.589905 
	C324.238220,195.859497 328.440216,181.129105 332.902679,166.124527 
	C346.911011,171.697800 359.073730,180.077316 370.423157,189.635513 
	C389.758942,205.919601 405.130310,225.343124 415.968933,248.639740 
z"/>
<path fill="#A2B6F4" opacity="1.000000" stroke="none" 
	d="
M123.909706,257.113068 
	C114.260345,257.445953 104.610977,257.778809 94.496605,258.098572 
	C99.906906,241.261429 109.056244,226.196167 120.764435,213.013657 
	C130.184204,202.407684 141.131683,193.158585 151.705780,183.605026 
	C152.405136,197.563049 158.533646,205.631180 170.937531,209.274124 
	C170.208832,210.379044 169.614456,211.206818 168.722382,212.181320 
	C153.586349,227.256393 138.748032,242.184723 123.909706,257.113068 
z"/>
<path fill="#BDC8F7" opacity="1.000000" stroke="none" 
	d="
M171.071838,208.996979 
	C158.533646,205.631180 152.405136,197.563049 152.014252,183.477234 
	C163.712494,174.214767 176.257355,166.894775 190.374542,161.641129 
	C190.149841,171.387054 189.569717,181.237000 188.701660,191.705658 
	C182.633102,197.881897 176.852478,203.439438 171.071838,208.996979 
z"/>
<path fill="#FDDD42" opacity="1.000000" stroke="none" 
	d="
M339.317017,89.545395 
	C338.978516,79.235657 338.988342,69.082367 339.001587,58.459381 
	C348.637726,61.042091 358.270477,64.094490 368.278198,67.203308 
	C370.208740,77.604950 371.877197,87.935623 373.213837,98.309044 
	C373.449310,100.136574 372.851013,102.781769 371.606934,103.860107 
	C370.649323,104.690109 367.831696,104.143684 366.257843,103.366013 
	C357.324310,98.951675 348.516113,94.283585 339.317017,89.545395 
z"/>
<path fill="#BEC8F6" opacity="1.000000" stroke="none" 
	d="
M390.071411,392.042725 
	C399.803497,391.709747 409.535522,391.376770 419.730957,391.067749 
	C414.931396,405.003510 407.975830,417.957428 398.272766,429.728516 
	C381.532440,431.443512 373.837616,421.355225 373.046448,410.914429 
	C378.759369,404.138245 384.415375,398.090485 390.071411,392.042725 
z"/>
<path fill="#A2B6F3" opacity="1.000000" stroke="none" 
	d="
M97.867889,400.418945 
	C111.165321,396.437286 124.520012,392.833618 137.857529,389.167542 
	C139.410019,388.740784 140.867493,387.968414 142.732834,387.477051 
	C144.312576,389.146698 145.386917,390.836548 146.766281,392.222900 
	C160.858307,406.386139 175.014420,420.485657 189.106476,434.648895 
	C190.609650,436.159668 191.819550,437.962250 193.165497,439.629486 
	C192.319611,443.616760 191.473740,447.604065 190.495300,452.047272 
	C183.830948,458.175079 183.459702,458.193359 176.343750,453.194153 
	C168.878632,447.949646 159.515045,447.874512 152.219696,453.749695 
	C147.773193,457.330566 144.221802,457.577454 139.934845,453.752747 
	C138.021942,452.046112 135.303467,451.242432 132.461945,449.737427 
	C131.646454,449.274597 131.319626,449.103241 130.992798,448.931885 
	C130.992798,448.931885 131.069824,449.007446 131.114166,448.976196 
	C122.457130,437.450562 113.578087,426.084290 105.150139,414.392822 
	C102.173256,410.263245 100.298157,405.339447 97.867889,400.418945 
z"/>
<path fill="#6FAF47" opacity="1.000000" stroke="none" 
	d="
M131.165558,449.142761 
	C131.319626,449.103241 131.646454,449.274597 132.112732,449.694031 
	C131.947571,449.745972 131.642944,449.549805 131.165558,449.142761 
z"/>
<path fill="#BEC8F7" opacity="1.000000" stroke="none" 
	d="
M193.538025,439.484222 
	C191.819550,437.962250 190.609650,436.159668 189.106476,434.648895 
	C175.014420,420.485657 160.858307,406.386139 146.766281,392.222900 
	C145.386917,390.836548 144.312576,389.146698 143.019135,387.255707 
	C148.746750,365.005737 154.554886,343.098633 160.348190,321.187592 
	C160.642303,320.075256 160.808746,318.929138 161.453537,317.387573 
	C172.249298,314.283051 182.626175,311.589661 193.329620,308.924438 
	C194.091965,308.981598 194.527740,309.010590 194.900482,309.428192 
	C190.343338,324.973450 194.090256,337.852051 205.321899,348.848206 
	C215.644714,358.954590 225.917526,369.120514 235.928268,379.533386 
	C240.471558,384.259155 245.594589,387.991364 251.923157,388.965668 
	C258.507812,389.979340 265.288727,389.718048 272.004303,390.344696 
	C272.048431,391.116058 272.072083,391.556946 272.095703,391.997864 
	C269.732025,401.359253 267.368317,410.720642 265.006165,420.506104 
	C258.099548,422.539307 251.148270,423.984619 244.291779,425.789948 
	C227.474762,430.217896 210.701447,434.811829 193.538025,439.484222 
z"/>
<path fill="#E9EFFF" opacity="1.000000" stroke="none" 
	d="
M272.425873,392.054504 
	C272.072083,391.556946 272.048431,391.116058 272.074860,389.964294 
	C272.839417,386.708466 273.622192,384.180328 274.256470,381.615479 
	C276.867676,371.055908 279.433716,360.485138 282.421875,349.969360 
	C284.120331,349.778870 285.435394,349.620850 286.702820,349.283691 
	C308.764679,343.414886 330.820679,337.524048 352.877960,331.638062 
	C365.152039,351.576447 377.426117,371.514832 389.885803,391.747955 
	C384.415375,398.090485 378.759369,404.138245 373.041504,410.506561 
	C372.100647,411.404327 371.221649,411.981567 370.072327,412.735077 
	C363.855225,414.896881 357.934357,416.964355 351.956940,418.852966 
	C331.772034,425.230530 312.869873,421.667206 295.292725,410.684509 
	C289.451477,407.034729 284.458130,402.022430 279.105560,397.598694 
	C276.949768,395.816986 274.870239,393.943085 272.425873,392.054504 
z"/>
<path fill="#D2DCFB" opacity="1.000000" stroke="none" 
	d="
M193.003052,308.896301 
	C182.626175,311.589661 172.249298,314.283051 161.455688,316.983032 
	C148.746521,297.241821 136.454071,277.493988 124.035675,257.429596 
	C138.748032,242.184723 153.586349,227.256393 168.718506,212.575150 
	C168.587875,214.407913 168.275818,216.034088 167.721237,217.572845 
	C163.197281,230.125244 161.847183,243.027283 163.583450,256.225098 
	C166.046539,274.947784 175.094086,290.191742 188.537994,303.114655 
	C190.274429,304.783813 191.526566,306.956726 193.003052,308.896301 
z"/>
<path fill="#4F71B6" opacity="1.000000" stroke="none" 
	d="
M352.912476,331.265320 
	C330.820679,337.524048 308.764679,343.414886 286.702820,349.283691 
	C285.435394,349.620850 284.120331,349.778870 282.297577,349.662537 
	C265.031006,332.521973 248.294296,315.739105 231.626434,298.552582 
	C237.823074,275.108612 243.950867,252.068314 250.078659,229.028015 
	C273.118713,222.900772 296.158752,216.773514 319.617554,210.618073 
	C327.848846,218.234085 335.695526,225.843811 343.465088,233.531464 
	C352.537689,242.508408 361.542938,251.553406 370.847168,260.767853 
	C368.333405,272.074432 365.628601,283.202484 362.745331,294.284119 
	C359.564606,306.509155 356.220154,318.691589 352.912476,331.265320 
z"/>
<path fill="#E9EFFF" opacity="1.000000" stroke="none" 
	d="
M249.778427,228.860657 
	C243.950867,252.068314 237.823074,275.108612 231.281494,298.643860 
	C218.899643,302.439087 206.931595,305.739349 194.963531,309.039612 
	C194.527740,309.010590 194.091965,308.981598 193.329620,308.924438 
	C191.526566,306.956726 190.274429,304.783813 188.537994,303.114655 
	C175.094086,290.191742 166.046539,274.947784 163.583450,256.225098 
	C161.847183,243.027283 163.197281,230.125244 167.721237,217.572845 
	C168.275818,216.034088 168.587875,214.407913 169.016205,212.428421 
	C169.614456,211.206818 170.208832,210.379044 170.937531,209.274139 
	C176.852478,203.439438 182.633102,197.881897 188.694611,192.147858 
	C198.266495,197.453949 207.616089,202.840164 216.833359,208.444077 
	C227.774429,215.095993 238.601639,221.935242 249.778427,228.860657 
z"/>
<path fill="#D3DCFB" opacity="1.000000" stroke="none" 
	d="
M194.900482,309.428223 
	C206.931595,305.739349 218.899643,302.439087 231.212646,299.047546 
	C248.294296,315.739105 265.031006,332.521973 281.892029,349.611664 
	C279.433716,360.485138 276.867676,371.055908 274.256470,381.615479 
	C273.622192,384.180328 272.839417,386.708466 272.054382,389.633850 
	C265.288727,389.718048 258.507812,389.979340 251.923157,388.965668 
	C245.594589,387.991364 240.471558,384.259155 235.928268,379.533386 
	C225.917526,369.120514 215.644714,358.954590 205.321899,348.848206 
	C194.090256,337.852051 190.343338,324.973450 194.900482,309.428223 
z"/>
</svg>