<svg width="512" height="512" xmlns="http://www.w3.org/2000/svg" xml:space="preserve" enable-background="new 0 0 512 512" version="1.1">

 <g>
  <title>Layer 1</title>
  <path id="svg_1" d="m513,235c0,14.35423 0,28.70847 -0.3501,43.7655c-1.50885,20.70185 -5.87265,40.11246 -12.1539,59.01648c-8.0816,24.32248 -19.30563,47.2396 -34.74383,67.77304c-8.20172,10.90866 -17.62085,20.90204 -26.55094,31.05082c-0.28039,-0.72883 -0.50027,-1.19983 -0.81454,-2.04523c-0.57639,-2.09949 -1.05838,-3.82465 -1.49686,-5.87253c-0.21405,-1.1189 -0.47159,-1.91507 -0.7402,-3.14114c-0.31146,-2.11252 -0.61185,-3.79511 -0.78269,-5.72956c-0.02877,-0.77411 -0.1871,-1.29632 -0.31079,-2.24579c-0.05929,-2.13848 -0.15323,-3.84976 -0.18054,-5.93359c0.03098,-1.12631 -0.00467,-1.88003 0.02222,-3.0589c0.08783,-2.1391 0.11309,-3.85315 0.2984,-5.79364c0.11963,-0.75143 0.07925,-1.2764 0.18777,-2.20749c0.37955,-2.11172 0.6102,-3.81729 1.03772,-5.72726c0.25177,-0.75754 0.3067,-1.31076 0.44742,-2.23731c0.48093,-2.10699 0.87613,-3.8406 1.5174,-5.83392c2.18881,-5.5358 4.13156,-10.81192 6.46234,-16.12793c1.94497,-0.12476 3.50195,-0.20962 5.52026,-0.31967c-2.57251,-11.41132 -4.95505,-22.10153 -7.39481,-32.77869c-6.2593,-27.39279 -12.54403,-54.77975 -18.51986,-82.28401c7.20563,-2.86858 14.87848,-4.64261 17.30102,-13.68576c5.09525,-19.18089 1.83551,-36.62303 -9.27963,-52.37933c-6.04855,-8.57415 -14.46469,-13.02642 -25.53226,-11.18924c-2.48217,-10.56089 -4.84094,-20.73012 -7.28659,-31.2739c-39.70065,0 -79.14633,0 -118.64758,-0.37956c-0.33716,-2.40347 -0.61874,-4.4274 -0.65463,-6.69249c16.53995,-5.96268 32.8341,-11.68417 50.26236,-17.80387c-2.28424,-0.90158 -3.19004,-1.30581 -4.12564,-1.62168c-48.70545,-16.44302 -97.40064,-32.91682 -146.15897,-49.20154c-2.43013,-0.81162 -5.63017,-0.63104 -8.1023,0.1942c-34.08492,11.37832 -68.09126,22.9918 -102.15052,34.44759c-8.6416,2.90659 -17.401,5.46293 -25.95483,7.88317c0.94757,-1.1431 1.89271,-1.89191 2.51784,-2.8496c12.56806,-19.25428 28.34,-35.68912 45.76706,-50.44017c19.65631,-16.63799 41.63793,-29.67945 65.40615,-39.73383c20.97621,-8.87332 42.67293,-14.86155 65.28297,-17.59669c3.98717,-0.48233 7.93506,-1.28939 11.90108,-1.94648c14.35423,0 28.70847,0 43.76556,0.34998c14.47202,2.57695 28.42853,4.01052 41.96823,7.20868c22.81217,5.38836 44.11142,14.83215 64.50583,26.44022c26.4375,15.04769 49.16562,34.52204 68.69196,57.62971c16.638,19.68964 29.68872,41.72952 39.70541,65.54054c8.77314,20.85486 14.72922,42.43422 17.41681,64.91429c0.47733,3.99268 1.28891,7.9454 1.9462,11.91658z" fill="#FFCA4F"/>
  <path id="svg_2" d="m241,513c-1.71436,0 -3.42871,0 -5.80595,-0.34985c-14.43195,-2.57673 -28.38842,-4.01023 -41.92809,-7.20835c-22.81227,-5.38833 -44.11163,-14.83215 -64.50603,-26.44034c-26.43734,-15.04766 -49.16539,-34.52197 -68.69169,-57.62951c-16.63809,-19.68967 -29.68877,-41.72952 -39.70557,-65.54059c-8.77321,-20.85492 -14.72918,-42.43433 -17.41696,-64.9144c-0.47739,-3.9928 -1.28863,-7.94565 -1.94571,-11.91696c0,-14.35422 0,-28.70845 0.34982,-43.76576c3.34611,-39.18643 15.07246,-74.88114 35.03081,-108.1079c13.39895,4.27761 26.41312,8.59392 39.44756,13.37488c0.02053,25.51254 0.05209,50.56061 -0.04497,75.60816c-0.00694,1.78897 -0.42983,4.063 -1.5575,5.27755c-5.15157,5.54854 -4.75391,9.30023 1.81267,13.83864c-1.69516,10.52915 -3.57886,20.60699 -4.91489,30.75694c-1.20809,9.17795 -0.94432,9.21268 8.28279,9.08106c5.52121,-0.07877 6.24351,-0.7587 5.3958,-5.98584c-1.85047,-11.41046 -3.84146,-22.79811 -5.5129,-34.41025c6.75243,-3.83246 7.24603,-8.19342 1.9951,-13.10654c-1.12685,-1.05435 -1.9673,-3.02192 -1.97538,-4.57383c-0.12323,-23.64699 -0.11345,-47.29493 -0.01637,-70.94216c0.00569,-1.38389 1.01959,-2.76365 1.63304,-3.67473c0.12583,11.27845 0.51068,22.09841 0.1111,32.88933c-0.22235,6.00462 1.65093,10.76222 5.71501,14.76215c3.30263,3.25052 6.72836,6.45198 10.4669,9.1698c12.96437,9.42479 27.68402,14.96615 43.07915,19.28741c-0.23149,2.91471 -0.37771,5.38802 -0.65113,7.84717c-1.8396,16.54527 -3.7062,33.08753 -5.84377,49.86264c-11.08478,4.16541 -21.88984,8.09894 -33.38966,12.2854c4.61683,3.21951 8.3984,5.85654 11.94409,8.68237c-0.34572,0.35758 -0.45557,0.5264 -0.92543,0.75965c-3.14533,1.12835 -5.92001,2.22113 -8.71807,3.25036c-6.21572,2.28647 -9.61382,6.61051 -8.7132,13.31739c1.05316,7.84265 1.89849,15.82873 4.12995,23.36905c2.93223,9.90835 7.74409,19.03494 16.78545,25.5856c3.17277,1.40301 6.11782,2.53128 9.0237,4.05346c-1.8506,8.82853 -4.03434,17.2035 -5.39595,25.71009c-2.83207,17.6929 -2.59828,35.22635 5.51556,51.74432c4.89745,9.97012 12.61638,17.06317 24.06735,17.88181c9.93065,0.70999 19.95885,0.05533 30.40161,0.07034c21.10173,0.07407 41.74578,0.08163 62.43561,0.5567c0.04132,16.49765 0.03687,32.52771 0.03354,48.80451c0.00113,0.24676 0.00261,0.74023 0.00261,0.74023z" fill="#FFCA4F"/>
  <path id="svg_7" d="m287.12415,437.01392c-0.04908,1.71011 -0.09818,3.42025 -0.14405,5.92657c0.04789,1.55252 0.09253,2.3089 0.13715,3.06525c-0.0416,1.34555 -0.08319,2.6911 -0.13849,4.90197c0.03488,4.60328 0.08343,8.34128 0.08575,12.54676c-0.00464,16.50274 0.0369,32.53799 0.07843,48.57324c0,0 -0.11657,0.47949 -0.12976,0.72589c-0.01318,0.2464 -0.51318,0.2464 -0.85534,-0.09015c-7.42832,-10.88827 -14.51447,-21.44006 -22.19733,-32.88043c-2.90936,4.26312 -4.98035,7.43442 -7.18899,10.50674c-5.22359,7.26612 -10.51266,14.4852 -15.77524,21.7233c0.00444,-16.03009 0.00889,-32.06015 0.04565,-49.01569c-0.02292,-4.65945 -0.07815,-8.39343 -0.0601,-12.54098c0.02053,-2.09207 -0.03222,-3.77057 -0.0082,-5.78067c0.03089,-0.78049 -0.01504,-1.2294 0.01378,-2.10156c0.02304,-2.13706 -0.02869,-3.85077 -0.00932,-5.89856c0.02368,-0.78446 -0.0237,-1.23484 0.00485,-2.10794c0.02766,-2.13742 -0.02061,-3.85215 0.00675,-5.93811c0.02569,-1.12366 -0.02427,-1.87604 -0.0006,-3.05216c0.02068,-2.13754 -0.03227,-3.85138 -0.01326,-5.89917c0.02527,-0.78467 -0.02145,-1.23529 0.00787,-2.10678c0.08217,-2.13061 0.08829,-3.84042 0.55208,-5.63431c15.44704,-0.03158 30.43642,0.021 45.41484,0.50116c0.0502,2.13455 0.11127,3.84156 0.10578,5.88483c-0.02103,0.78879 0.0245,1.24136 -0.00293,2.11609c-0.02634,2.13196 0.02029,3.84173 -0.00348,5.92578c-0.02304,1.13144 0.02435,1.88855 -0.00128,3.06824c-0.02365,2.1326 0.02566,3.84259 0.00799,5.88839c-0.02215,0.78797 0.02265,1.24015 0.06745,1.6923z" fill="#FF5C61"/>
  <path id="svg_8" d="m240.99741,512.25977c5.26145,-7.48481 10.55052,-14.70389 15.77411,-21.97001c2.20864,-3.07232 4.27963,-6.24362 7.18899,-10.50674c7.68286,11.44037 14.76901,21.99216 21.94733,32.88043c-14.5954,0.33655 -29.28296,0.33655 -44.43918,0.33655c-0.46866,0 -0.47014,-0.49347 -0.47125,-0.74023z" fill="#FFCA4F"/>
  <path id="svg_9" d="m424.15573,255.38414c6.27457,27.3893 12.5593,54.77626 18.8186,82.16905c2.43976,10.67716 4.8223,21.36737 7.39481,32.77869c-2.01831,0.11005 -3.57529,0.19491 -5.90631,0.09381c-2.93509,-0.2424 -5.0961,-0.34842 -7.25714,-0.34808c-82.25073,0.01251 -164.50147,0.03637 -246.7522,0.04736c-2.16013,0.0003 -4.3203,-0.12509 -6.4716,-0.64407c0.35991,-8.40638 0.71098,-16.36063 1.39705,-24.46631c34.95295,-13.16065 69.5709,-26.16986 104.42202,-38.901c11.5947,13.48004 22.95621,26.682 34.51084,40.1084c3.10891,-4.62519 6.50509,-8.47983 8.54141,-12.95347c4.40842,-9.68487 10.96643,-12.47778 21.2645,-9.70129c6.84161,1.8446 14.21118,1.73108 21.34445,2.49402c-3.96375,-4.29502 -8.23825,-7.64957 -12.47156,-11.0553c-10.33661,-8.31592 -20.65423,-16.65549 -30.64758,-25.13742c30.82553,-11.59607 61.31912,-23.04022 91.81271,-34.48439z" fill="#21D0C2"/>
  <path id="svg_10" d="m36.38063,127.12634c-4.97259,-1.49623 -9.56041,-3.03119 -14.14824,-4.56614c-0.123,-0.37196 -0.246,-0.74392 -0.36899,-1.11589c7.11688,-2.48105 14.23376,-4.9621 21.73036,-7.51183c9.08497,-2.78595 17.84437,-5.34229 26.48597,-8.24888c34.05926,-11.45579 68.0656,-23.06927 102.15052,-34.44759c2.47213,-0.82524 5.67217,-1.00582 8.1023,-0.1942c48.75833,16.28472 97.45352,32.75852 146.15897,49.20154c0.9356,0.31587 1.8414,0.7201 4.12564,1.62168c-17.42826,6.1197 -33.72241,11.84119 -50.6724,17.82561c-1.95581,0.52214 -3.30353,0.64028 -4.54885,1.06128c-29.97513,10.13339 -59.96549,20.22324 -89.88247,30.526c-5.68348,1.95726 -10.77774,2.41082 -16.74125,0.31305c-27.02031,-9.50486 -54.23806,-18.44786 -81.35724,-27.67392c-1.60591,-0.54634 -2.97186,-1.79802 -4.11872,-2.91911c0.95212,-0.43103 1.56234,-0.70152 2.19651,-0.89246c29.91522,-9.00579 59.83711,-17.98954 89.73776,-27.04343c1.72459,-0.52221 3.27827,-1.60889 4.9115,-2.43287c-0.25402,-0.61222 -0.50803,-1.22444 -0.76206,-1.83665c-2.01434,0.38491 -4.08104,0.59517 -6.03523,1.18085c-30.88122,9.25513 -61.75124,18.54781 -92.60945,27.87937c-1.70652,0.51606 -3.28777,1.44635 -4.92733,2.18384c-13.01418,-4.31633 -26.02835,-8.63264 -39.4273,-12.91025z" fill="#817D7D"/>
  <path id="svg_11" d="m82.96549,141.19557c1.4776,0.92346 2.84355,2.17514 4.44946,2.72148c27.11918,9.22606 54.33693,18.16906 81.35724,27.67392c5.96351,2.09777 11.05777,1.64421 16.74125,-0.31305c29.91698,-10.30276 59.90734,-20.39261 89.88247,-30.526c1.24532,-0.421 2.59304,-0.53914 4.30313,-0.8201c0.69165,2.00217 0.97323,4.0261 1.26211,6.90696c0.36932,8.32611 -0.19131,15.98663 1.30872,23.2198c2.27551,10.97272 -3.24839,17.64699 -10.62439,23.83954c-2.41211,2.02513 -4.96445,3.9111 -7.59647,5.64204c-21.52951,14.15855 -45.68394,20.19069 -71.37666,22.72568c-17.99054,1.62358 -35.24552,-0.35898 -52.34819,-4.23488c-15.42155,-3.87331 -30.1412,-9.41467 -43.10557,-18.83946c-3.73854,-2.71782 -7.16427,-5.91928 -10.4669,-9.1698c-4.06408,-3.99993 -5.93736,-8.75753 -5.71501,-14.76215c0.39958,-10.79092 0.01473,-21.61088 0.10802,-33.07716c0.70719,-0.76792 1.26398,-0.87737 1.82079,-0.98682z" fill="#666666"/>
  <path id="svg_12" d="m193.11307,222.3259c25.252,-2.59505 49.40643,-8.62719 70.93594,-22.78574c2.63202,-1.73094 5.18436,-3.61691 7.59647,-5.64204c7.376,-6.19255 12.8999,-12.86682 10.62439,-23.83954c-1.50003,-7.23317 -0.9394,-14.89369 -1.25315,-22.84024c39.49396,-0.47739 78.93964,-0.47739 118.64029,-0.47739c2.44565,10.54378 4.80442,20.71301 7.00809,31.47118c-11.55987,4.68193 -22.97247,8.7534 -34.36786,12.87245c-22.77518,8.23247 -45.54092,16.49101 -68.69781,24.78598c-15.34653,5.42468 -30.30585,10.80217 -45.69507,16.24376c-22.58527,7.92985 -44.74063,15.79561 -66.90372,23.21979c0.69899,-11.29714 1.4057,-22.15267 2.11243,-33.00821z" fill="#21D0C2"/>
  <path id="svg_13" d="m183.97305,369.93304c2.16014,0.06684 4.32031,0.19223 6.48044,0.19193c82.25073,-0.01099 164.50147,-0.03485 246.7522,-0.04736c2.16104,-0.00034 4.32205,0.10568 6.86914,0.38797c-1.55673,5.50198 -3.49948,10.7781 -6.16712,16.3056c-89.85983,0.24533 -178.99481,0.22052 -268.12966,0.3042c-3.42994,0.00323 -6.9063,0.86023 -10.26685,1.69742c-1.51329,0.37698 -2.79459,1.68521 -4.18115,2.57089c0.14354,0.5477 0.28709,1.09537 0.43063,1.64307c93.67424,0 187.34848,0 281.02271,0c-0.05497,0.55319 -0.1099,1.10641 -0.84693,1.85009c-93.6636,0.18073 -186.64512,0.1709 -279.62665,0.16236c-0.83303,-0.00009 -1.66917,-0.02616 -2.49859,0.03323c-3.32172,0.2381 -5.05257,1.95102 -5.15833,5.95166c95.70162,0 191.14194,0 286.58225,0c0.04034,0.52496 0.08072,1.04993 -0.51013,1.80124c-93.92209,0.22571 -187.21294,0.22504 -280.5038,0.2247c-1.16613,0 -2.33367,0.04257 -3.49811,-0.00058c-3.87689,-0.14374 -5.3275,1.74719 -4.83765,5.99475c96.44327,0 192.69655,0 288.94985,0c0.03564,0.75376 0.07129,1.50748 -0.4152,2.63089c-49.50094,0.37164 -98.47976,0.37363 -147.45855,0.37561c-14.98935,-0.05258 -29.97873,-0.10516 -45.89961,-0.08023c-31.24352,0.07343 -61.55558,0.09928 -91.86741,0.02698c-3.72932,-0.00891 -6.24476,0.74734 -5.52395,6.03482c32.4228,0 64.82994,0 97.23707,0c0.04673,0.45065 0.09345,0.90127 -0.39401,1.68359c-30.62593,0.32999 -60.71768,0.32654 -90.80943,0.33182c-1.49449,0.00028 -3.11783,-0.26523 -4.43994,0.23306c-0.94173,0.35495 -2.03141,1.77994 -2.04036,2.73694c-0.00899,0.96115 1.0494,2.42389 1.98129,2.78412c1.31461,0.50827 2.94316,0.24207 4.43752,0.24228c30.42424,0.00455 60.84849,-0.00012 91.27273,-0.00296c0.04997,0.75238 0.09993,1.50476 -0.38861,2.62628c-33.02293,0.36914 -65.50739,0.36914 -97.9594,0.36914c-0.44792,5.76264 2.45641,6.04401 5.97402,6.03696c30.78843,-0.0618 61.57701,-0.04007 92.36555,-0.04312c0.04738,0.45037 0.09476,0.90075 -0.39132,1.68289c-30.69063,0.33008 -60.84777,0.32812 -91.00492,0.32815c-1.16618,0 -2.42882,-0.25726 -3.47162,0.10657c-1.05609,0.36847 -2.74902,1.50379 -2.65713,2.04974c0.21468,1.27552 1.07652,2.95133 2.14749,3.44715c1.39926,0.6478 3.25331,0.38922 4.91174,0.38992c30.15714,0.01257 60.31427,0.00553 90.47141,0.00263c0.04593,0.44888 0.09186,0.89779 -0.40073,1.67776c-15.32109,0.33023 -30.10368,0.32868 -44.88629,0.32865c-14.78261,-0.00004 -29.56531,-0.02805 -44.3477,0.02862c-2.76596,0.01059 -5.96872,-0.34601 -6.60231,3.80341c-3.07054,-2.63846 -6.68773,-4.75757 -8.39172,-7.91062c-10.68901,-19.77868 -10.5735,-39.95331 -0.55047,-59.92926c3.84305,-7.65918 10.80564,-10.854 19.30663,-10.86548c9.64439,-0.01303 19.28866,-0.12726 28.93298,-0.19748z" fill="#EBF0F1"/>
  <path id="svg_14" d="m303.98669,215.82336c22.76963,-8.24777 45.53537,-16.50631 68.31055,-24.73878c11.39539,-4.11905 22.80799,-8.19052 34.4913,-12.48079c11.22263,-2.42612 19.63877,2.02615 25.68732,10.6003c11.11514,15.7563 14.37488,33.19844 8.92539,52.40887c-19.50711,7.42577 -38.51523,14.46809 -57.54728,21.44511c-16.37454,6.00278 -32.77643,11.93107 -49.18307,17.43018c1.03186,-19.33926 -4.13562,-36.4998 -14.49957,-52.15521c-3.94114,-5.95332 -9.14447,-10.46932 -16.18464,-12.50968z" fill="#FFFFFF"/>
  <path id="svg_15" d="m434.89783,408.5791c-96.31583,0.42511 -192.56911,0.42511 -289.01238,0.42511c-0.48985,-4.24756 0.96076,-6.13849 4.83765,-5.99475c1.16444,0.04315 2.33198,0.00058 3.49811,0.00058c93.29086,0.00034 186.58171,0.00101 280.34379,0.00177c0.44592,1.71414 0.42066,3.42819 0.33283,5.56729z" fill="#FEFEFE"/>
  <path id="svg_16" d="m435.384,400.57797c-95.58917,0.40613 -191.02949,0.40613 -286.73111,0.40613c0.10576,-4.00064 1.83661,-5.71356 5.15833,-5.95166c0.82942,-0.05939 1.66556,-0.03332 2.49859,-0.03323c92.98153,0.00854 185.96305,0.01837 279.42981,0.04199c0.25458,1.71948 0.02393,3.42505 -0.35562,5.53677z" fill="#FFFFFF"/>
  <path id="svg_17" d="m436.86914,392.6134c-93.75998,0.37336 -187.43422,0.37336 -281.10846,0.37336c-0.14354,-0.5477 -0.28709,-1.09537 -0.43063,-1.64307c1.38656,-0.88568 2.66786,-2.19391 4.18115,-2.57089c3.36055,-0.83719 6.83691,-1.69419 10.26685,-1.69742c89.13485,-0.08368 178.26983,-0.05887 267.8836,-0.0445c0.08362,1.74192 -0.31158,3.47553 -0.79251,5.58252z" fill="#FDFDFD"/>
  <path id="svg_18" d="m287.12369,434.98581c-0.04932,-1.70999 -0.09863,-3.41998 0.38559,-5.55521c50.13473,-0.42343 99.7359,-0.4216 149.33706,-0.4198c0.48197,1.72516 0.96396,3.45032 1.03086,5.5622c-50.5279,0.39541 -100.64072,0.40411 -150.75351,0.41281z" fill="#FFFFFF"/>
  <path id="svg_19" d="m287.12039,425.99069c-0.04663,-1.70975 -0.09326,-3.41952 0.39328,-5.55444c49.59671,-0.40579 98.66022,-0.38642 147.72373,-0.36704c0.30038,1.68262 0.60077,3.36521 0.43155,5.48316c-49.82929,0.43634 -99.18891,0.43735 -148.54856,0.43832z" fill="#FFFFFF"/>
  <path id="svg_20" d="m286.95062,412.43829c48.98972,-0.42956 97.96854,-0.43155 147.40283,-0.4306c0.54947,1.71414 0.64341,3.42542 0.23249,5.56351c-49.49088,0.42312 -98.4769,0.41937 -147.46295,0.41565c-0.0611,-1.707 -0.12217,-3.41401 -0.17237,-5.54856z" fill="#FFFFFF"/>
  <path id="svg_21" d="m334.68777,280.95035c16.38977,-5.96121 32.79166,-11.8895 49.1662,-17.89228c19.03205,-6.97702 38.04017,-14.01934 57.41294,-21.06286c-1.93396,8.63136 -9.60681,10.40539 -16.81244,13.27397c-30.79233,11.55913 -61.28592,23.00328 -92.24402,34.58488c-0.46448,0.13743 -0.73105,0.14432 -0.6239,-0.22372c1.10519,-3.1387 2.10321,-5.90933 3.10122,-8.67999z" fill="#EAF0F0"/>
  <path id="svg_22" d="m287.04999,426.36499c49.43005,-0.37527 98.78967,-0.37628 148.63,-0.38272c0.73825,0.79074 0.99579,1.58691 1.20984,2.70581c-49.64465,0.32092 -99.24582,0.31909 -149.30756,0.31992c-0.50793,-0.75446 -0.55532,-1.51157 -0.53228,-2.64301z" fill="#F0F3F4"/>
  <path id="svg_23" d="m287.0567,435.32162c50.17978,-0.34451 100.2926,-0.35321 150.91489,-0.37429c0.72937,0.45868 0.94925,0.92968 1.22964,1.65851c-42.85891,0.30404 -85.77838,0.35113 -128.69781,0.39578c-7.48615,0.00778 -14.97232,0.00488 -22.91889,0.00961c-0.50518,-0.44946 -0.54998,-0.90164 -0.52783,-1.68961z" fill="#EDF0F1"/>
  <path id="svg_24" d="m287.0564,418.32312c49.05264,-0.33255 98.03866,-0.3288 147.49493,-0.32471c0.62851,0.52265 0.78684,1.04486 0.81561,1.81897c-49.19305,0.23245 -98.25656,0.21308 -147.7803,0.19666c-0.50574,-0.44956 -0.55127,-0.90213 -0.53024,-1.69092z" fill="#EDF0F1"/>
  <path id="svg_25" d="m191.00836,255.7757c22.15537,-7.86577 44.31073,-15.73153 67.13547,-23.37952c4.95767,2.9375 10.06842,4.89944 13.39264,8.50743c14.79861,16.0619 20.61609,35.40999 18.78769,57.09462c-8.80139,3.10516 -17.24747,6.15704 -25.67133,9.26901c-37.15338,13.7254 -74.30914,27.44443 -111.44105,41.22769c-6.22571,2.31101 -12.88082,4.08661 -18.36029,7.62354c-6.33614,4.08987 -12.3443,7.77927 -20.16324,7.04532c-8.81364,-6.27591 -13.6255,-15.4025 -16.55773,-25.31085c-2.23146,-7.54032 -3.07679,-15.5264 -4.12995,-23.36905c-0.90062,-6.70688 2.49748,-11.03092 8.7132,-13.31739c2.79806,-1.02923 5.57274,-2.12201 9.03363,-3.08419c4.60491,3.42978 8.53423,6.75778 12.46356,10.08581c-2.41945,-5.2428 -5.53687,-9.76001 -11.61782,-11.20041c-3.78156,-2.63705 -7.56313,-5.27408 -12.17996,-8.49359c11.49982,-4.18646 22.30488,-8.11999 33.7642,-12.28467c19.37984,-6.95868 38.10541,-13.68621 56.83098,-20.41375m-65.54925,98.45346c4.81222,-2.90699 8.61718,-7.01807 8.66433,-12.63526c0.05451,-6.49264 -0.87411,-13.09427 -2.24386,-19.46188c-0.8804,-4.09277 -3.32569,-7.84894 -5.06955,-11.75598c1.04037,7.23251 3.06962,13.98565 4.58757,20.85183c0.28529,1.29044 -1.1082,3.89054 -2.34802,4.41315c-4.73584,1.99646 -9.7128,3.4306 -14.62474,4.99619c-3.13427,0.99896 -5.18909,-0.28196 -6.13534,-3.33432c-0.80231,-2.58805 -2.59924,-5.28214 1.38704,-7.19251c1.11033,-0.53216 2.48464,-2.94974 2.11367,-3.73483c-2.14629,-4.54208 -4.63468,-8.94785 -7.37062,-13.16397c-0.53284,-0.82111 -2.81557,-1.06885 -4.0096,-0.69113c-0.73459,0.23242 -1.42527,2.20941 -1.29983,3.30761c1.34679,11.79029 3.61236,23.32648 10.4163,33.42643c4.28098,6.35485 8.05397,7.66101 15.93265,4.97467z" fill="#FFFFFF"/>
  <path id="svg_26" d="m183.98189,369.4809c-9.65316,0.52236 -19.29743,0.63659 -28.94182,0.64962c-8.50099,0.01148 -15.46358,3.2063 -19.30663,10.86548c-10.02303,19.97595 -10.13854,40.15058 0.55047,59.92926c1.70399,3.15305 5.32118,5.27216 8.72264,8.12339c1.44096,0.50277 2.20605,0.94204 2.98646,0.97122c10.31816,0.38592 20.63849,0.71417 30.95918,1.48806c-0.29325,4.06217 -0.58743,7.69315 -0.88162,11.3241c-9.98509,0.05152 -20.01329,0.70618 -29.94394,-0.00381c-11.45097,-0.81864 -19.1699,-7.91169 -24.06735,-17.88181c-8.11384,-16.51797 -8.34763,-34.05142 -5.51556,-51.74432c1.36161,-8.50659 3.54535,-16.88156 5.77943,-25.79657c3.27836,-1.32144 6.19296,-2.00263 8.98016,-3.02957c17.26281,-6.36008 34.49697,-12.79789 51.74064,-19.2099c-0.35108,7.95422 -0.70215,15.90847 -1.06206,24.31485z" fill="#1D92A1"/>
  <path id="svg_27" d="m191.00064,255.33411c-18.71785,7.16913 -37.44342,13.89666 -56.54353,20.62347c1.4833,-16.54397 3.3499,-33.08623 5.1895,-49.6315c0.27342,-2.45915 0.41964,-4.93246 0.65113,-7.84717c17.12909,3.42795 34.38407,5.41051 52.37461,3.78693c-0.26601,10.9156 -0.97272,21.77113 -1.67171,33.06827z" fill="#1B92A1"/>
  <path id="svg_28" d="m185.37894,345.01459c-17.57866,6.56347 -34.81282,13.00128 -52.07563,19.36136c-2.7872,1.02694 -5.7018,1.70813 -8.94099,2.63565c-3.32853,-1.04178 -6.27358,-2.17005 -9.44635,-3.57306c7.59122,0.4592 13.59938,-3.2302 19.93552,-7.32007c5.47947,-3.53693 12.13458,-5.31253 18.36029,-7.62354c37.13191,-13.78326 74.28767,-27.50229 111.44105,-41.22769c8.42386,-3.11197 16.86994,-6.16385 25.70871,-8.87985c0.14945,2.44125 -0.104,4.51901 -0.48825,6.79846c-0.1308,0.20172 -0.30551,0.64966 -0.30551,0.64966c-34.61794,13.00922 -69.23589,26.01843 -104.18884,39.17908z" fill="#EAF0F0"/>
  <path id="svg_29" d="m83.29623,140.99794c-0.88755,0.30708 -1.44434,0.41653 -2.22026,0.71384c-0.76384,1.56952 -1.77774,2.94928 -1.78343,4.33317c-0.09708,23.64723 -0.10686,47.29517 0.01637,70.94216c0.00808,1.55191 0.84853,3.51948 1.97538,4.57383c5.25093,4.91312 4.75733,9.27408 -2.36141,13.07114c-1.36378,0.17772 -2.09914,0.17566 -2.8345,0.17358c-6.61657,-4.1185 -7.01423,-7.87019 -1.86266,-13.41873c1.12767,-1.21455 1.55056,-3.48858 1.5575,-5.27755c0.09706,-25.04755 0.0655,-50.09562 0.04497,-75.60816c1.6193,-1.20212 3.20055,-2.13241 4.90707,-2.64847c30.85821,-9.33156 61.72823,-18.62424 92.60945,-27.87937c1.95419,-0.58568 4.02089,-0.79594 6.03523,-1.18085c0.25403,0.61221 0.50804,1.22443 0.76206,1.83665c-1.63323,0.82398 -3.18691,1.91066 -4.9115,2.43287c-29.90065,9.05389 -59.82254,18.03764 -89.73776,27.04343c-0.63417,0.19094 -1.24439,0.46143 -2.19651,0.89246z" fill="#FAF9F9"/>
  <path id="svg_30" d="m178.52824,462.89856c-0.16348,-3.69748 0.1307,-7.32846 0.89153,-11.46979c20.80736,-0.52655 41.14805,-0.54269 61.48875,-0.55884c0.05526,3.73401 0.11049,7.46799 0.08763,11.65992c-20.72213,0.45034 -41.36618,0.44278 -62.46791,0.36871z" fill="#21D0C2"/>
  <path id="svg_31" d="m76.03839,235.22557c0.78535,-0.41783 1.52071,-0.41577 2.62236,-0.37831c2.29988,11.43236 4.29087,22.82001 6.14134,34.23047c0.84771,5.22714 0.12541,5.90707 -5.3958,5.98584c-9.22711,0.13162 -9.49088,0.09689 -8.28279,-9.08106c1.33603,-10.14995 3.21973,-20.22779 4.91489,-30.75694z" fill="#FF5C61"/>
  <path id="svg_32" d="m112.35727,297.15649c6.31682,1.25162 9.43424,5.76883 11.85369,11.01163c-3.92933,-3.32803 -7.85865,-6.65603 -12.10354,-10.15024c-0.20572,-0.33499 -0.09587,-0.50381 0.24985,-0.86139z" fill="#EDF0F1"/>
  <path id="svg_33" d="m287.54095,511.9837c-0.43954,-15.99124 -0.48108,-32.02649 -0.01702,-48.52572c7.67108,-0.46326 14.83661,-0.47153 22.00213,-0.46012c33.15787,0.05277 66.31574,0.111 99.47363,0.16736c-9.77142,6.30734 -19.29312,13.05023 -29.36868,18.82712c-18.33636,10.51327 -37.8677,18.35797 -58.435,23.30627c-9.8732,2.37537 -19.96798,3.8277 -29.95718,5.72568c-1.11758,0.21237 -2.20074,0.6059 -3.69788,0.95941z" fill="#FFCA4F"/>
  <path id="svg_34" d="m409.46399,463.09784c-33.62219,0.01102 -66.78006,-0.04721 -99.93793,-0.09998c-7.16552,-0.01141 -14.33105,-0.00314 -21.95596,-0.00738c-0.50791,-3.74149 -0.55646,-7.47949 -0.52615,-11.68308c50.16507,-0.46637 100.25149,-0.42001 150.33743,-0.55212c4.27832,-0.01129 8.55346,-1.21045 13.24655,-1.92081c0,4.72913 0,9.11618 0,14.19605c-13.54355,0 -27.12158,0 -41.16394,0.06732z" fill="#21D0C2"/>
  <path id="svg_35" d="m287.57825,446.00317c-0.50562,-0.75378 -0.55026,-1.51016 -0.52454,-2.6405c51.50412,-0.37399 102.9379,-0.37399 154.43677,-0.37399c-0.08505,1.47082 -0.07523,1.63205 -0.1084,1.78393c-0.03497,0.15998 -0.06985,0.40335 -0.1759,0.45053c-0.59268,0.2638 -1.19385,0.62491 -1.81662,0.68094c-1.3226,0.11908 -2.66025,0.08835 -3.99173,0.08847c-49.11954,0.00492 -98.23911,0.00626 -147.81958,0.01062z" fill="#F0F3F4"/>
  <path id="svg_36" d="m240.98294,434.56766c-30.86447,0.42578 -61.65305,0.40405 -92.44148,0.46585c-3.51761,0.00705 -6.42194,-0.27432 -5.97402,-6.03696c32.45201,0 64.93647,0 97.88376,0.00214c0.51113,1.71682 0.5594,3.43155 0.53174,5.56897z" fill="#FFFFFF"/>
  <path id="svg_37" d="m240.98909,425.57739c-30.49788,0.42658 -60.92213,0.43125 -91.34637,0.4267c-1.49436,-0.00021 -3.12291,0.26599 -4.43752,-0.24228c-0.93189,-0.36023 -1.99028,-1.82297 -1.98129,-2.78412c0.00895,-0.957 1.09863,-2.38199 2.04036,-2.73694c1.32211,-0.49829 2.94545,-0.23278 4.43994,-0.23306c30.09175,-0.00528 60.1835,-0.00183 90.73744,0.0022c0.51517,1.71612 0.56812,3.42996 0.54744,5.5675z" fill="#FFFFFF"/>
  <path id="svg_38" d="m240.98741,442.57416c-30.23189,0.42618 -60.38902,0.43322 -90.54616,0.42065c-1.65843,-0.0007 -3.51248,0.25788 -4.91174,-0.38992c-1.07097,-0.49582 -1.93281,-2.17163 -2.14749,-3.44715c-0.09189,-0.54595 1.60104,-1.68127 2.65713,-2.04974c1.0428,-0.36383 2.30544,-0.10657 3.47162,-0.10657c30.15715,-0.00003 60.31429,0.00193 90.93384,0.00589c0.51411,1.71607 0.56584,3.42978 0.5428,5.56684z" fill="#FFFFFF"/>
  <path id="svg_39" d="m240.9837,417.57144c-32.48318,0.42084 -64.89032,0.42084 -97.31312,0.42084c-0.72081,-5.28748 1.79463,-6.04373 5.52395,-6.03482c30.31183,0.0723 60.62389,0.04645 91.40973,0.05713c0.46773,1.71643 0.46161,3.42624 0.37944,5.55685z" fill="#FFFFFF"/>
  <path id="svg_40" d="m240.98183,450.45639c-20.41401,0.42969 -40.7547,0.44583 -61.56298,0.54117c-10.78735,-0.26352 -21.10768,-0.59177 -31.42584,-0.97769c-0.78041,-0.02918 -1.5455,-0.46845 -2.64862,-0.92984c-0.03517,-4.40357 3.16759,-4.04697 5.93355,-4.05756c14.78239,-0.05667 29.56509,-0.02866 44.3477,-0.02862c14.78261,0.00003 29.5652,0.00158 44.80951,0.00293c0.51446,1.67904 0.56721,3.35754 0.54668,5.44961z" fill="#F4FCFC"/>
  <path id="svg_41" d="m289.80096,306.11359c-0.23318,-0.27808 -0.05847,-0.72602 0.45783,-0.93369c14.08438,-5.19894 27.6525,-10.19024 41.22061,-15.18152c0,0 0.26657,-0.00689 0.39914,0.00757c10.45783,8.34451 20.77545,16.68408 31.11206,25c4.23331,3.40573 8.50781,6.76028 12.47156,11.0553c-7.13327,-0.76294 -14.50284,-0.64942 -21.34445,-2.49402c-10.29807,-2.77649 -16.85608,0.01642 -21.2645,9.70129c-2.03632,4.47364 -5.4325,8.32828 -8.54141,12.95347c-11.55463,-13.4264 -22.91614,-26.62836 -34.51084,-40.1084z" fill="#F3A20B"/>
  <path id="svg_42" d="m331.58655,289.63034c-13.67526,5.35932 -27.24338,10.35062 -41.19696,15.34787c-0.13205,-2.07181 0.1214,-4.14957 0.33749,-6.61645c1.42548,-22.04816 -4.392,-41.39625 -19.19061,-57.45815c-3.32422,-3.60799 -8.43497,-5.56993 -12.96274,-8.57152c14.71985,-5.65936 29.67917,-11.03685 45.0257,-16.46153c7.42743,1.99316 12.63076,6.50916 16.5719,12.46248c10.36395,15.65541 15.53143,32.81595 14.49957,52.15521c-0.98114,3.23276 -1.97916,6.00339 -3.08435,9.14209z" fill="#FFBB1D"/>
  <path id="svg_43" d="m125.11516,354.39063c-7.53473,2.52487 -11.30772,1.21871 -15.5887,-5.13614c-6.80394,-10.09995 -9.06951,-21.63614 -10.4163,-33.42643c-0.12544,-1.0982 0.56524,-3.07519 1.29983,-3.30761c1.19403,-0.37772 3.47676,-0.12998 4.0096,0.69113c2.73594,4.21612 5.22433,8.62189 7.37062,13.16397c0.37097,0.78509 -1.00334,3.20267 -2.11367,3.73483c-3.98628,1.91037 -2.18935,4.60446 -1.38704,7.19251c0.94625,3.05236 3.00107,4.33328 6.13534,3.33432c4.91194,-1.56559 9.8889,-2.99973 14.62474,-4.99619c1.23982,-0.52261 2.63331,-3.12271 2.34802,-4.41315c-1.51795,-6.86618 -3.5472,-13.61932 -4.58757,-20.85183c1.74386,3.90704 4.18915,7.66321 5.06955,11.75598c1.36975,6.36761 2.29837,12.96924 2.24386,19.46188c-0.04715,5.61719 -3.85211,9.72827 -9.00828,12.79673z" fill="#EDF0F1"/>
 </g>
</svg>