<svg version="1.1" id="Layer_1" xmlns="http://www.w3.org/2000/svg" xmlns:xlink="http://www.w3.org/1999/xlink" x="0px" y="0px"
	 width="100%" viewBox="0 0 512 512" enable-background="new 0 0 512 512" xml:space="preserve">
<path fill="#FFCA4F" opacity="1.000000" stroke="none" 
	d="
M513.000000,235.000000 
	C513.000000,249.354233 513.000000,263.708466 512.649902,278.765503 
	C511.141052,299.467346 506.777252,318.877960 500.496002,337.781982 
	C492.414398,362.104462 481.190369,385.021576 465.752167,405.555023 
	C457.550446,416.463684 448.131317,426.457062 439.201233,436.605835 
	C438.920837,435.877014 438.700958,435.406006 438.386688,434.560608 
	C437.810303,432.461121 437.328308,430.735962 436.889832,428.688080 
	C436.675781,427.569183 436.418243,426.773010 436.149628,425.546936 
	C435.838165,423.434418 435.537781,421.751831 435.366943,419.817383 
	C435.338165,419.043274 435.179840,418.521057 435.056152,417.571594 
	C434.996857,415.433105 434.902924,413.721832 434.875610,411.638000 
	C434.906586,410.511688 434.870941,409.757965 434.897827,408.579102 
	C434.985657,406.440002 435.010925,404.725952 435.196228,402.785461 
	C435.315857,402.034027 435.275482,401.509064 435.384003,400.577972 
	C435.763550,398.466248 435.994202,396.760681 436.421722,394.850708 
	C436.673492,394.093170 436.728424,393.539948 436.869141,392.613403 
	C437.350067,390.506409 437.745270,388.772797 438.386536,386.779480 
	C440.575348,381.243683 442.518097,375.967560 444.848877,370.651550 
	C446.793854,370.526794 448.350830,370.441925 450.369141,370.331879 
	C447.796631,358.920563 445.414093,348.230347 442.974335,337.553192 
	C436.715027,310.160400 430.430298,282.773438 424.454468,255.269180 
	C431.660095,252.400604 439.332947,250.626572 441.755493,241.583420 
	C446.850739,222.402527 443.591003,204.960388 432.475861,189.204086 
	C426.427307,180.629944 418.011169,176.177673 406.943604,178.014847 
	C404.461426,167.453964 402.102661,157.284729 399.657013,146.740952 
	C359.956360,146.740952 320.510681,146.740952 281.009430,146.361389 
	C280.672272,143.957916 280.390686,141.933990 280.354797,139.668900 
	C296.894745,133.706223 313.188904,127.984734 330.617157,121.865028 
	C328.332916,120.963448 327.427124,120.559219 326.491516,120.243347 
	C277.786072,103.800331 229.090881,87.326530 180.332550,71.041809 
	C177.902420,70.230186 174.702377,70.410767 172.230255,71.236015 
	C138.145325,82.614334 104.138985,94.227814 70.079727,105.683601 
	C61.438133,108.590187 52.678734,111.146530 44.124901,113.566772 
	C45.072472,112.423668 46.017612,111.674858 46.642738,110.717171 
	C59.210800,91.462891 74.982742,75.028053 92.409798,60.277000 
	C112.066109,43.639008 134.047729,30.597551 157.815948,20.543169 
	C178.792160,11.669845 200.488876,5.681620 223.098923,2.946477 
	C227.086090,2.464150 231.033981,1.657095 235.000000,1.000000 
	C249.354233,1.000000 263.708466,1.000000 278.765564,1.349980 
	C293.237579,3.926929 307.194092,5.360499 320.733795,8.558660 
	C343.545959,13.947021 364.845215,23.390814 385.239624,34.998878 
	C411.677124,50.046570 434.405243,69.520920 453.931580,92.628593 
	C470.569580,112.318230 483.620300,134.358109 493.636993,158.169128 
	C502.410126,179.023987 508.366211,200.603348 511.053802,223.083420 
	C511.531128,227.076096 512.342712,231.028824 513.000000,235.000000 
z"/>
<path fill="#FFCA4F" opacity="1.000000" stroke="none" 
	d="
M241.000000,513.000000 
	C239.285645,513.000000 237.571289,513.000000 235.194046,512.650146 
	C220.762100,510.073425 206.805634,508.639923 193.265961,505.441803 
	C170.453690,500.053467 149.154327,490.609650 128.759933,479.001465 
	C102.322594,463.953796 79.594536,444.479492 60.068237,421.371948 
	C43.430153,401.682281 30.379473,379.642426 20.362669,355.831360 
	C11.589457,334.976440 5.633485,313.397034 2.945709,290.916962 
	C2.468316,286.924164 1.657078,282.971313 1.000000,279.000000 
	C1.000000,264.645782 1.000000,250.291550 1.349820,235.234238 
	C4.695928,196.047806 16.422281,160.353104 36.380634,127.126343 
	C49.779579,131.403946 62.793755,135.720261 75.828194,140.501221 
	C75.848724,166.013763 75.880280,191.061829 75.783218,216.109375 
	C75.776283,217.898346 75.353394,220.172379 74.225723,221.386932 
	C69.074150,226.935471 69.471809,230.687164 76.038391,235.225571 
	C74.343231,245.754715 72.459526,255.832565 71.123497,265.982513 
	C69.915405,275.160461 70.179176,275.195190 79.406288,275.063568 
	C84.927505,274.984802 85.649796,274.304871 84.802094,269.077728 
	C82.951622,257.667267 80.960632,246.279617 79.289185,234.667480 
	C86.041618,230.835022 86.535225,226.474060 81.284286,221.560944 
	C80.157440,220.506592 79.316994,218.539017 79.308907,216.987106 
	C79.185677,193.340118 79.195465,169.692184 79.292542,146.044952 
	C79.298225,144.661057 80.312134,143.281296 80.925583,142.370224 
	C81.051414,153.648666 81.436256,164.468628 81.036682,175.259552 
	C80.814331,181.264175 82.687614,186.021774 86.751694,190.021698 
	C90.054321,193.272217 93.480049,196.473679 97.218590,199.191498 
	C110.182961,208.616287 124.902611,214.157654 140.297745,218.478912 
	C140.066254,221.393616 139.920029,223.866928 139.646606,226.326080 
	C137.807007,242.871353 135.940414,259.413605 133.802841,276.188721 
	C122.718056,280.354126 111.913002,284.287659 100.413177,288.474121 
	C105.030014,291.693634 108.811577,294.330658 112.357269,297.156494 
	C112.011551,297.514069 111.901703,297.682892 111.431839,297.916138 
	C108.286514,299.044495 105.511833,300.137268 102.713768,301.166504 
	C96.498047,303.452972 93.099953,307.777008 94.000572,314.483887 
	C95.053726,322.326538 95.899063,330.312622 98.130516,337.852936 
	C101.062752,347.761292 105.874611,356.887878 114.915970,363.438538 
	C118.088737,364.841553 121.033791,365.969818 123.939674,367.492004 
	C122.089073,376.320526 119.905334,384.695496 118.543716,393.202087 
	C115.711655,410.894989 115.945435,428.428436 124.059280,444.946411 
	C128.956726,454.916534 136.675659,462.009583 148.126633,462.828217 
	C158.057281,463.538208 168.085480,462.883545 178.528244,462.898560 
	C199.629974,462.972626 220.274017,462.980194 240.963852,463.455261 
	C241.005173,479.952911 241.000717,495.982971 240.997391,512.259766 
	C240.998520,512.506531 241.000000,513.000000 241.000000,513.000000 
z"/>
<path fill="#FEFFFF" opacity="1.000000" stroke="none" 
	d="
M439.261780,436.863617 
	C448.131317,426.457062 457.550446,416.463684 465.752167,405.555023 
	C481.190369,385.021576 492.414398,362.104462 500.496002,337.781982 
	C506.777252,318.877960 511.141052,299.467346 512.649902,279.234131 
	C513.000000,356.925751 513.000000,434.851532 513.000000,513.000000 
	C437.979248,513.000000 362.958282,513.000000 287.481842,512.753601 
	C287.026367,512.507202 287.142944,512.027710 287.540955,511.983704 
	C289.038086,511.630188 290.121246,511.236664 291.238831,511.024292 
	C301.228027,509.126312 311.322815,507.673981 321.196014,505.298615 
	C341.763306,500.350311 361.294647,492.505615 379.631012,481.992340 
	C389.706573,476.215454 399.228271,469.472565 409.463989,463.097870 
	C423.506348,463.030518 437.084381,463.030518 450.627930,463.030518 
	C450.627930,457.950653 450.627930,453.563599 450.627930,448.834473 
	C445.934845,449.544830 441.659698,450.743988 437.381378,450.755280 
	C387.295441,450.887390 337.209015,450.841034 287.057587,450.442078 
	C287.034058,448.696838 287.075653,447.351288 287.578217,446.003174 
	C337.158722,445.998810 386.278290,445.997467 435.397827,445.992554 
	C436.729309,445.992432 438.066956,446.023163 439.389557,445.904083 
	C440.012329,445.848053 440.613495,445.486938 441.206177,445.223145 
	C441.312225,445.175964 441.347107,444.932587 441.382080,444.772614 
	C441.415253,444.620728 441.405426,444.459503 441.490479,442.988678 
	C389.991608,442.988678 338.557831,442.988678 287.050476,442.566467 
	C287.025970,440.434174 287.075073,438.724030 287.584564,437.011230 
	C295.531097,437.006500 303.017273,437.009399 310.503418,437.001617 
	C353.422852,436.956970 396.342316,436.909882 439.261780,436.863617 
z"/>
<path fill="#FFFFFF" opacity="1.000000" stroke="none" 
	d="
M513.000000,234.531342 
	C512.342712,231.028824 511.531128,227.076096 511.053802,223.083420 
	C508.366211,200.603348 502.410126,179.023987 493.636993,158.169128 
	C483.620300,134.358109 470.569580,112.318230 453.931580,92.628593 
	C434.405243,69.520920 411.677124,50.046570 385.239624,34.998878 
	C364.845215,23.390814 343.545959,13.947021 320.733795,8.558660 
	C307.194092,5.360499 293.237579,3.926929 279.234253,1.349980 
	C356.927032,1.000000 434.854095,1.000000 513.000000,1.000000 
	C513.000000,78.687424 513.000000,156.375061 513.000000,234.531342 
z"/>
<path fill="#FFFFFF" opacity="1.000000" stroke="none" 
	d="
M1.000000,279.468658 
	C1.657078,282.971313 2.468316,286.924164 2.945709,290.916962 
	C5.633485,313.397034 11.589457,334.976440 20.362669,355.831360 
	C30.379473,379.642426 43.430153,401.682281 60.068237,421.371948 
	C79.594536,444.479492 102.322594,463.953796 128.759933,479.001465 
	C149.154327,490.609650 170.453690,500.053467 193.265961,505.441803 
	C206.805634,508.639923 220.762100,510.073425 234.765579,512.650146 
	C157.072968,513.000000 79.145927,513.000000 1.000000,513.000000 
	C1.000000,435.312561 1.000000,357.624939 1.000000,279.468658 
z"/>
<path fill="#FFFFFF" opacity="1.000000" stroke="none" 
	d="
M35.995869,127.165070 
	C16.422281,160.353104 4.695928,196.047806 1.349820,234.765579 
	C1.000000,157.072952 1.000000,79.145912 1.000000,1.000000 
	C78.687424,1.000000 156.375061,1.000000 234.531342,1.000000 
	C231.033981,1.657095 227.086090,2.464150 223.098923,2.946477 
	C200.488876,5.681620 178.792160,11.669845 157.815948,20.543169 
	C134.047729,30.597551 112.066109,43.639008 92.409798,60.277000 
	C74.982742,75.028053 59.210800,91.462891 46.642738,110.717171 
	C46.017612,111.674858 45.072472,112.423668 43.745193,113.635437 
	C36.097164,116.482208 28.980280,118.963264 21.863396,121.444313 
	C21.986393,121.816277 22.109390,122.188240 22.232389,122.560196 
	C26.820215,124.095154 31.408043,125.630112 35.995869,127.165070 
z"/>
<path fill="#FF5C61" opacity="1.000000" stroke="none" 
	d="
M287.124146,437.013916 
	C287.075073,438.724030 287.025970,440.434174 286.980103,442.940491 
	C287.027985,444.493011 287.072632,445.249390 287.117249,446.005737 
	C287.075653,447.351288 287.034058,448.696838 286.978760,450.907715 
	C287.013641,455.510986 287.062195,459.248993 287.064514,463.454468 
	C287.059875,479.957214 287.101410,495.992462 287.142944,512.027710 
	C287.142944,512.027710 287.026367,512.507202 287.013184,512.753601 
	C287.000000,513.000000 286.500000,513.000000 286.157837,512.663452 
	C278.729523,501.775177 271.643372,491.223389 263.960510,479.783020 
	C261.051147,484.046143 258.980164,487.217438 256.771515,490.289764 
	C251.547928,497.555878 246.258865,504.774963 240.996277,512.013062 
	C241.000717,495.982971 241.005173,479.952911 241.041931,462.997375 
	C241.019012,458.337921 240.963776,454.603943 240.981827,450.456390 
	C241.002365,448.364319 240.949615,446.685822 240.973633,444.675720 
	C241.004517,443.895233 240.958588,443.446320 240.987411,442.574158 
	C241.010452,440.437103 240.958725,438.723389 240.978088,436.675598 
	C241.001770,435.891144 240.954391,435.440765 240.982941,434.567657 
	C241.010605,432.430237 240.962326,430.715515 240.989685,428.629547 
	C241.015381,427.505890 240.965424,426.753510 240.989090,425.577393 
	C241.009766,423.439850 240.956818,421.726013 240.975830,419.678223 
	C241.001099,418.893555 240.954376,418.442932 240.983704,417.571442 
	C241.065872,415.440826 241.071991,413.731018 241.535782,411.937134 
	C256.982819,411.905548 271.972198,411.958130 286.950623,412.438293 
	C287.000824,414.572845 287.061890,416.279846 287.056396,418.323120 
	C287.035370,419.111908 287.080902,419.564484 287.053467,420.439209 
	C287.027130,422.571167 287.073761,424.280945 287.049988,426.364990 
	C287.026947,427.496429 287.074341,428.253540 287.048706,429.433228 
	C287.025055,431.565826 287.074371,433.275818 287.056702,435.321625 
	C287.034546,436.109589 287.079346,436.561768 287.124146,437.013916 
z"/>
<path fill="#FFCA4F" opacity="1.000000" stroke="none" 
	d="
M240.997406,512.259766 
	C246.258865,504.774963 251.547928,497.555878 256.771515,490.289764 
	C258.980164,487.217438 261.051147,484.046143 263.960510,479.783020 
	C271.643372,491.223389 278.729523,501.775177 285.907837,512.663452 
	C271.312439,513.000000 256.624878,513.000000 241.468658,513.000000 
	C241.000000,513.000000 240.998520,512.506531 240.997406,512.259766 
z"/>
<path fill="#21D0C2" opacity="1.000000" stroke="none" 
	d="
M424.155731,255.384140 
	C430.430298,282.773438 436.715027,310.160400 442.974335,337.553192 
	C445.414093,348.230347 447.796631,358.920563 450.369141,370.331879 
	C448.350830,370.441925 446.793854,370.526794 444.462830,370.425690 
	C441.527740,370.183289 439.366730,370.077271 437.205688,370.077606 
	C354.954956,370.090118 272.704224,370.113983 190.453491,370.124969 
	C188.293365,370.125275 186.133194,369.999878 183.981888,369.480896 
	C184.341797,361.074524 184.692871,353.120270 185.378937,345.014587 
	C220.331894,331.853943 254.949844,318.844727 289.800964,306.113586 
	C301.395660,319.593628 312.757172,332.795593 324.311798,346.221985 
	C327.420715,341.596802 330.816895,337.742157 332.853210,333.268524 
	C337.261627,323.583649 343.819641,320.790741 354.117706,323.567230 
	C360.959320,325.411835 368.328888,325.298309 375.462158,326.061249 
	C371.498413,321.766235 367.223907,318.411682 362.990601,315.005951 
	C352.653992,306.690033 342.336365,298.350464 332.343018,289.868530 
	C363.168549,278.272461 393.662140,266.828308 424.155731,255.384140 
z"/>
<path fill="#817D7D" opacity="1.000000" stroke="none" 
	d="
M36.380634,127.126343 
	C31.408043,125.630112 26.820215,124.095154 22.232389,122.560196 
	C22.109390,122.188240 21.986393,121.816277 21.863396,121.444313 
	C28.980280,118.963264 36.097164,116.482208 43.593758,113.932480 
	C52.678734,111.146530 61.438133,108.590187 70.079727,105.683601 
	C104.138985,94.227814 138.145325,82.614334 172.230255,71.236015 
	C174.702377,70.410767 177.902420,70.230186 180.332550,71.041809 
	C229.090881,87.326530 277.786072,103.800331 326.491516,120.243347 
	C327.427124,120.559219 328.332916,120.963448 330.617157,121.865028 
	C313.188904,127.984734 296.894745,133.706223 279.944763,139.690643 
	C277.988953,140.212784 276.641235,140.330917 275.395905,140.751923 
	C245.420776,150.885315 215.430420,160.975159 185.513443,171.277924 
	C179.829956,173.235184 174.735703,173.688736 168.772186,171.590973 
	C141.751877,162.086105 114.534134,153.143112 87.414948,143.917053 
	C85.809044,143.370712 84.443092,142.119034 83.296227,140.997940 
	C84.248352,140.566910 84.858574,140.296417 85.492744,140.105484 
	C115.407959,131.099686 145.329849,122.115936 175.230499,113.062050 
	C176.955093,112.539841 178.508774,111.453163 180.141998,110.629181 
	C179.887985,110.016960 179.633972,109.404739 179.379944,108.792526 
	C177.365601,109.177437 175.298904,109.387703 173.344711,109.973381 
	C142.463486,119.228508 111.593475,128.521194 80.735260,137.852753 
	C79.028740,138.368805 77.447487,139.299103 75.807930,140.036591 
	C62.793755,135.720261 49.779579,131.403946 36.380634,127.126343 
z"/>
<path fill="#666666" opacity="1.000000" stroke="none" 
	d="
M82.965485,141.195572 
	C84.443092,142.119034 85.809044,143.370712 87.414948,143.917053 
	C114.534134,153.143112 141.751877,162.086105 168.772186,171.590973 
	C174.735703,173.688736 179.829956,173.235184 185.513443,171.277924 
	C215.430420,160.975159 245.420776,150.885315 275.395905,140.751923 
	C276.641235,140.330917 277.988953,140.212784 279.699036,139.931824 
	C280.390686,141.933990 280.672272,143.957916 280.961151,146.838776 
	C281.330475,155.164886 280.769836,162.825409 282.269867,170.058578 
	C284.545380,181.031296 279.021484,187.705566 271.645477,193.898117 
	C269.233368,195.923248 266.681030,197.809219 264.049011,199.540161 
	C242.519501,213.698715 218.365067,219.730850 192.672348,222.265839 
	C174.681808,223.889420 157.426834,221.906860 140.324158,218.030960 
	C124.902611,214.157654 110.182961,208.616287 97.218590,199.191498 
	C93.480049,196.473679 90.054321,193.272217 86.751694,190.021698 
	C82.687614,186.021774 80.814331,181.264175 81.036682,175.259552 
	C81.436256,164.468628 81.051414,153.648666 81.144699,142.182388 
	C81.851891,141.414474 82.408684,141.305023 82.965485,141.195572 
z"/>
<path fill="#21D0C2" opacity="1.000000" stroke="none" 
	d="
M193.113068,222.325897 
	C218.365067,219.730850 242.519501,213.698715 264.049011,199.540161 
	C266.681030,197.809219 269.233368,195.923248 271.645477,193.898117 
	C279.021484,187.705566 284.545380,181.031296 282.269867,170.058578 
	C280.769836,162.825409 281.330475,155.164886 281.016724,147.218338 
	C320.510681,146.740952 359.956360,146.740952 399.657013,146.740952 
	C402.102661,157.284729 404.461426,167.453964 406.665100,178.212128 
	C395.105225,182.894058 383.692627,186.965530 372.297241,191.084579 
	C349.522064,199.317047 326.756317,207.575592 303.599426,215.870560 
	C288.252899,221.295242 273.293579,226.672729 257.904358,232.114319 
	C235.319092,240.044174 213.163727,247.909927 191.000641,255.334106 
	C191.699631,244.036972 192.406342,233.181442 193.113068,222.325897 
z"/>
<path fill="#EBF0F1" opacity="1.000000" stroke="none" 
	d="
M183.973053,369.933044 
	C186.133194,369.999878 188.293365,370.125275 190.453491,370.124969 
	C272.704224,370.113983 354.954956,370.090118 437.205688,370.077606 
	C439.366730,370.077271 441.527740,370.183289 444.074829,370.465576 
	C442.518097,375.967560 440.575348,381.243683 437.907715,386.771179 
	C348.047882,387.016510 258.912903,386.991699 169.778046,387.075378 
	C166.348114,387.078613 162.871750,387.935608 159.511200,388.772797 
	C157.997910,389.149780 156.716614,390.458008 155.330048,391.343689 
	C155.473587,391.891388 155.617142,392.439056 155.760681,392.986755 
	C249.434921,392.986755 343.109161,392.986755 436.783386,392.986755 
	C436.728424,393.539948 436.673492,394.093170 435.936462,394.836853 
	C342.272858,395.017578 249.291336,395.007751 156.309814,394.999207 
	C155.476776,394.999115 154.640640,394.973053 153.811218,395.032440 
	C150.489502,395.270538 148.758652,396.983459 148.652893,400.984100 
	C244.354507,400.984100 339.794830,400.984100 435.235138,400.984100 
	C435.275482,401.509064 435.315857,402.034027 434.725006,402.785339 
	C340.802917,403.011047 247.512070,403.010376 154.221207,403.010040 
	C153.055084,403.010040 151.887543,403.052612 150.723099,403.009460 
	C146.846207,402.865723 145.395599,404.756653 145.885452,409.004211 
	C242.328720,409.004211 338.582001,409.004211 434.835297,409.004211 
	C434.870941,409.757965 434.906586,410.511688 434.420105,411.635101 
	C384.919159,412.006744 335.940338,412.008728 286.961548,412.010712 
	C271.972198,411.958130 256.982819,411.905548 241.061935,411.930481 
	C209.818420,412.003906 179.506363,412.029755 149.194534,411.957458 
	C145.465210,411.948547 142.949768,412.704803 143.670578,417.992279 
	C176.093384,417.992279 208.500519,417.992279 240.907654,417.992279 
	C240.954376,418.442932 241.001099,418.893555 240.513641,419.675873 
	C209.887711,420.005859 179.795959,420.002411 149.704208,420.007690 
	C148.209717,420.007965 146.586380,419.742462 145.264267,420.240753 
	C144.322540,420.595703 143.232864,422.020691 143.223907,422.977692 
	C143.214920,423.938843 144.273315,425.401581 145.205200,425.761810 
	C146.519806,426.270081 148.148361,426.003876 149.642715,426.004089 
	C180.066956,426.008636 210.491211,426.003967 240.915451,426.001129 
	C240.965424,426.753510 241.015381,427.505890 240.526840,428.627411 
	C207.503906,428.996552 175.019455,428.996552 142.567444,428.996552 
	C142.119522,434.759186 145.023849,435.040558 148.541458,435.033508 
	C179.329895,434.971710 210.118469,434.993439 240.907013,434.990387 
	C240.954391,435.440765 241.001770,435.891144 240.515686,436.673279 
	C209.825058,437.003357 179.667923,437.001404 149.510773,437.001434 
	C148.344589,437.001434 147.081955,436.744171 146.039154,437.108002 
	C144.983063,437.476471 143.290131,438.611786 143.382019,439.157745 
	C143.596695,440.433258 144.458542,442.109070 145.529510,442.604889 
	C146.928772,443.252686 148.782822,442.994110 150.441254,442.994812 
	C180.598389,443.007385 210.755524,443.000336 240.912659,442.997437 
	C240.958588,443.446320 241.004517,443.895233 240.511932,444.675201 
	C225.190842,445.005432 210.408249,445.003876 195.625641,445.003845 
	C180.843033,445.003815 166.060333,444.975800 151.277939,445.032471 
	C148.511978,445.043060 145.309219,444.686462 144.675629,448.835876 
	C141.605087,446.197418 137.987900,444.078308 136.283905,440.925262 
	C125.594902,421.146576 125.710411,400.971954 135.733444,380.996002 
	C139.576492,373.336823 146.539078,370.141998 155.040070,370.130524 
	C164.684464,370.117493 174.328735,370.003265 183.973053,369.933044 
z"/>
<path fill="#FFFFFF" opacity="1.000000" stroke="none" 
	d="
M303.986694,215.823364 
	C326.756317,207.575592 349.522064,199.317047 372.297241,191.084579 
	C383.692627,186.965530 395.105225,182.894058 406.788544,178.603790 
	C418.011169,176.177673 426.427307,180.629944 432.475861,189.204086 
	C443.591003,204.960388 446.850739,222.402527 441.401245,241.612961 
	C421.894135,249.038727 402.886017,256.081055 383.853973,263.058075 
	C367.479431,269.060852 351.077545,274.989136 334.670898,280.488251 
	C335.702759,261.148987 330.535278,243.988449 320.171326,228.333038 
	C316.230194,222.379715 311.026855,217.863724 303.986694,215.823364 
z"/>
<path fill="#FEFEFE" opacity="1.000000" stroke="none" 
	d="
M434.897827,408.579102 
	C338.582001,409.004211 242.328720,409.004211 145.885452,409.004211 
	C145.395599,404.756653 146.846207,402.865723 150.723099,403.009460 
	C151.887543,403.052612 153.055084,403.010040 154.221207,403.010040 
	C247.512070,403.010376 340.802917,403.011047 434.565002,403.011810 
	C435.010925,404.725952 434.985657,406.440002 434.897827,408.579102 
z"/>
<path fill="#FFFFFF" opacity="1.000000" stroke="none" 
	d="
M435.384003,400.577972 
	C339.794830,400.984100 244.354507,400.984100 148.652893,400.984100 
	C148.758652,396.983459 150.489502,395.270538 153.811218,395.032440 
	C154.640640,394.973053 155.476776,394.999115 156.309814,394.999207 
	C249.291336,395.007751 342.272858,395.017578 435.739624,395.041199 
	C435.994202,396.760681 435.763550,398.466248 435.384003,400.577972 
z"/>
<path fill="#FDFDFD" opacity="1.000000" stroke="none" 
	d="
M436.869141,392.613403 
	C343.109161,392.986755 249.434921,392.986755 155.760681,392.986755 
	C155.617142,392.439056 155.473587,391.891388 155.330048,391.343689 
	C156.716614,390.458008 157.997910,389.149780 159.511200,388.772797 
	C162.871750,387.935608 166.348114,387.078613 169.778046,387.075378 
	C258.912903,386.991699 348.047882,387.016510 437.661652,387.030884 
	C437.745270,388.772797 437.350067,390.506409 436.869141,392.613403 
z"/>
<path fill="#FFFFFF" opacity="1.000000" stroke="none" 
	d="
M287.123688,434.985809 
	C287.074371,433.275818 287.025055,431.565826 287.509277,429.430603 
	C337.644012,429.007172 387.245178,429.009003 436.846344,429.010803 
	C437.328308,430.735962 437.810303,432.461121 437.877197,434.572998 
	C387.349304,434.968414 337.236481,434.977112 287.123688,434.985809 
z"/>
<path fill="#FFFFFF" opacity="1.000000" stroke="none" 
	d="
M287.120392,425.990692 
	C287.073761,424.280945 287.027130,422.571167 287.513672,420.436249 
	C337.110382,420.030457 386.173889,420.049835 435.237396,420.069214 
	C435.537781,421.751831 435.838165,423.434418 435.668945,425.552368 
	C385.839661,425.988708 336.480042,425.989716 287.120392,425.990692 
z"/>
<path fill="#FFFFFF" opacity="1.000000" stroke="none" 
	d="
M286.950623,412.438293 
	C335.940338,412.008728 384.919159,412.006744 434.353455,412.007690 
	C434.902924,413.721832 434.996857,415.433105 434.585938,417.571198 
	C385.095062,417.994324 336.109039,417.990570 287.122986,417.986847 
	C287.061890,416.279846 287.000824,414.572845 286.950623,412.438293 
z"/>
<path fill="#EAF0F0" opacity="1.000000" stroke="none" 
	d="
M334.687775,280.950348 
	C351.077545,274.989136 367.479431,269.060852 383.853973,263.058075 
	C402.886017,256.081055 421.894135,249.038727 441.266907,241.995209 
	C439.332947,250.626572 431.660095,252.400604 424.454468,255.269180 
	C393.662140,266.828308 363.168549,278.272461 332.210449,289.854065 
	C331.745972,289.991486 331.479401,289.998383 331.586548,289.630341 
	C332.691742,286.491638 333.689758,283.721008 334.687775,280.950348 
z"/>
<path fill="#F0F3F4" opacity="1.000000" stroke="none" 
	d="
M287.049988,426.364990 
	C336.480042,425.989716 385.839661,425.988708 435.679993,425.982269 
	C436.418243,426.773010 436.675781,427.569183 436.889832,428.688080 
	C387.245178,429.009003 337.644012,429.007172 287.582275,429.007996 
	C287.074341,428.253540 287.026947,427.496429 287.049988,426.364990 
z"/>
<path fill="#EDF0F1" opacity="1.000000" stroke="none" 
	d="
M287.056702,435.321625 
	C337.236481,434.977112 387.349304,434.968414 437.971588,434.947327 
	C438.700958,435.406006 438.920837,435.877014 439.201233,436.605835 
	C396.342316,436.909882 353.422852,436.956970 310.503418,437.001617 
	C303.017273,437.009399 295.531097,437.006500 287.584534,437.011230 
	C287.079346,436.561768 287.034546,436.109589 287.056702,435.321625 
z"/>
<path fill="#EDF0F1" opacity="1.000000" stroke="none" 
	d="
M287.056396,418.323120 
	C336.109039,417.990570 385.095062,417.994324 434.551331,417.998413 
	C435.179840,418.521057 435.338165,419.043274 435.366943,419.817383 
	C386.173889,420.049835 337.110382,420.030457 287.586639,420.014038 
	C287.080902,419.564484 287.035370,419.111908 287.056396,418.323120 
z"/>
<path fill="#FFFFFF" opacity="1.000000" stroke="none" 
	d="
M191.008362,255.775696 
	C213.163727,247.909927 235.319092,240.044174 258.143829,232.396179 
	C263.101501,235.333679 268.212250,237.295624 271.536469,240.903610 
	C286.335083,256.965515 292.152557,276.313599 290.324158,297.998230 
	C281.522766,301.103394 273.076691,304.155273 264.652832,307.267242 
	C227.499451,320.992645 190.343689,334.711670 153.211777,348.494934 
	C146.986069,350.805939 140.330963,352.581543 134.851486,356.118469 
	C128.515350,360.208344 122.507195,363.897736 114.688248,363.163788 
	C105.874611,356.887878 101.062752,347.761292 98.130516,337.852936 
	C95.899063,330.312622 95.053726,322.326538 94.000572,314.483887 
	C93.099953,307.777008 96.498047,303.452972 102.713768,301.166504 
	C105.511833,300.137268 108.286514,299.044495 111.747398,298.082306 
	C116.352310,301.512085 120.281631,304.840088 124.210960,308.168121 
	C121.791512,302.925323 118.674088,298.408112 112.593140,296.967712 
	C108.811577,294.330658 105.030014,291.693634 100.413177,288.474121 
	C111.913002,284.287659 122.718056,280.354126 134.177383,276.189453 
	C153.557220,269.230774 172.282791,262.503235 191.008362,255.775696 
M125.459114,354.229156 
	C130.271332,351.322174 134.076294,347.211090 134.123444,341.593903 
	C134.177948,335.101257 133.249329,328.499634 131.879578,322.132019 
	C130.999176,318.039246 128.553894,314.283081 126.810028,310.376038 
	C127.850403,317.608551 129.879654,324.361694 131.397598,331.227875 
	C131.682892,332.518311 130.289398,335.118408 129.049576,335.641022 
	C124.313744,337.637482 119.336784,339.071625 114.424843,340.637207 
	C111.290573,341.636169 109.235748,340.355255 108.289497,337.302887 
	C107.487190,334.714844 105.690262,332.020752 109.676537,330.110382 
	C110.786873,329.578217 112.161179,327.160645 111.790207,326.375549 
	C109.643921,321.833466 107.155533,317.427704 104.419586,313.211578 
	C103.886749,312.390472 101.604019,312.142731 100.409988,312.520447 
	C99.675400,312.752869 98.984718,314.729858 99.110161,315.828064 
	C100.456947,327.618347 102.722519,339.154541 109.526459,349.254486 
	C113.807442,355.609344 117.580429,356.915497 125.459114,354.229156 
z"/>
<path fill="#1D92A1" opacity="1.000000" stroke="none" 
	d="
M183.981888,369.480896 
	C174.328735,370.003265 164.684464,370.117493 155.040070,370.130524 
	C146.539078,370.141998 139.576492,373.336823 135.733444,380.996002 
	C125.710411,400.971954 125.594902,421.146576 136.283905,440.925262 
	C137.987900,444.078308 141.605087,446.197418 145.006546,449.048645 
	C146.447510,449.551422 147.212601,449.990692 147.993011,450.019867 
	C158.311172,450.405792 168.631500,450.734039 178.952194,451.507935 
	C178.658936,455.570099 178.364761,459.201080 178.070572,462.832031 
	C168.085480,462.883545 158.057281,463.538208 148.126633,462.828217 
	C136.675659,462.009583 128.956726,454.916534 124.059280,444.946411 
	C115.945435,428.428436 115.711655,410.894989 118.543716,393.202087 
	C119.905334,384.695496 122.089073,376.320526 124.323151,367.405518 
	C127.601509,366.084076 130.516113,365.402893 133.303314,364.375946 
	C150.566116,358.015869 167.800278,351.578064 185.043945,345.166046 
	C184.692871,353.120270 184.341797,361.074524 183.981888,369.480896 
z"/>
<path fill="#1B92A1" opacity="1.000000" stroke="none" 
	d="
M191.000641,255.334106 
	C172.282791,262.503235 153.557220,269.230774 134.457108,275.957581 
	C135.940414,259.413605 137.807007,242.871353 139.646606,226.326080 
	C139.920029,223.866928 140.066254,221.393616 140.297745,218.478912 
	C157.426834,221.906860 174.681808,223.889420 192.672348,222.265839 
	C192.406342,233.181442 191.699631,244.036972 191.000641,255.334106 
z"/>
<path fill="#EAF0F0" opacity="1.000000" stroke="none" 
	d="
M185.378937,345.014587 
	C167.800278,351.578064 150.566116,358.015869 133.303314,364.375946 
	C130.516113,365.402893 127.601509,366.084076 124.362320,367.011597 
	C121.033791,365.969818 118.088737,364.841553 114.915970,363.438538 
	C122.507195,363.897736 128.515350,360.208344 134.851486,356.118469 
	C140.330963,352.581543 146.986069,350.805939 153.211777,348.494934 
	C190.343689,334.711670 227.499451,320.992645 264.652832,307.267242 
	C273.076691,304.155273 281.522766,301.103394 290.361542,298.387390 
	C290.510986,300.828644 290.257538,302.906403 289.873291,305.185852 
	C289.742493,305.387573 289.567780,305.835510 289.567780,305.835510 
	C254.949844,318.844727 220.331894,331.853943 185.378937,345.014587 
z"/>
<path fill="#FAF9F9" opacity="1.000000" stroke="none" 
	d="
M83.296227,140.997940 
	C82.408684,141.305023 81.851891,141.414474 81.075974,141.711777 
	C80.312134,143.281296 79.298225,144.661057 79.292542,146.044952 
	C79.195465,169.692184 79.185677,193.340118 79.308907,216.987106 
	C79.316994,218.539017 80.157440,220.506592 81.284286,221.560944 
	C86.535225,226.474060 86.041618,230.835022 78.922882,234.632080 
	C77.559097,234.809799 76.823738,234.807739 76.088379,234.805664 
	C69.471809,230.687164 69.074150,226.935471 74.225723,221.386932 
	C75.353394,220.172379 75.776283,217.898346 75.783218,216.109375 
	C75.880280,191.061829 75.848724,166.013763 75.828194,140.501221 
	C77.447487,139.299103 79.028740,138.368805 80.735260,137.852753 
	C111.593475,128.521194 142.463486,119.228508 173.344711,109.973381 
	C175.298904,109.387703 177.365601,109.177437 179.379944,108.792526 
	C179.633972,109.404739 179.887985,110.016960 180.141998,110.629181 
	C178.508774,111.453163 176.955093,112.539841 175.230499,113.062050 
	C145.329849,122.115936 115.407959,131.099686 85.492744,140.105484 
	C84.858574,140.296417 84.248352,140.566910 83.296227,140.997940 
z"/>
<path fill="#21D0C2" opacity="1.000000" stroke="none" 
	d="
M178.528244,462.898560 
	C178.364761,459.201080 178.658936,455.570099 179.419769,451.428772 
	C200.227127,450.902222 220.567825,450.886078 240.908524,450.869934 
	C240.963776,454.603943 241.019012,458.337921 240.996155,462.529846 
	C220.274017,462.980194 199.629974,462.972626 178.528244,462.898560 
z"/>
<path fill="#FF5C61" opacity="1.000000" stroke="none" 
	d="
M76.038391,235.225571 
	C76.823738,234.807739 77.559097,234.809799 78.660751,234.847260 
	C80.960632,246.279617 82.951622,257.667267 84.802094,269.077728 
	C85.649796,274.304871 84.927505,274.984802 79.406288,275.063568 
	C70.179176,275.195190 69.915405,275.160461 71.123497,265.982513 
	C72.459526,255.832565 74.343231,245.754715 76.038391,235.225571 
z"/>
<path fill="#EDF0F1" opacity="1.000000" stroke="none" 
	d="
M112.357269,297.156494 
	C118.674088,298.408112 121.791512,302.925323 124.210960,308.168121 
	C120.281631,304.840088 116.352310,301.512085 112.107422,298.017883 
	C111.901703,297.682892 112.011551,297.514069 112.357269,297.156494 
z"/>
<path fill="#FFCA4F" opacity="1.000000" stroke="none" 
	d="
M287.540955,511.983704 
	C287.101410,495.992462 287.059875,479.957214 287.523926,463.457977 
	C295.195007,462.994720 302.360535,462.986450 309.526062,462.997864 
	C342.683929,463.050629 375.841797,463.108856 408.999695,463.165222 
	C399.228271,469.472565 389.706573,476.215454 379.631012,481.992340 
	C361.294647,492.505615 341.763306,500.350311 321.196014,505.298615 
	C311.322815,507.673981 301.228027,509.126312 291.238831,511.024292 
	C290.121246,511.236664 289.038086,511.630188 287.540955,511.983704 
z"/>
<path fill="#21D0C2" opacity="1.000000" stroke="none" 
	d="
M409.463989,463.097839 
	C375.841797,463.108856 342.683929,463.050629 309.526062,462.997864 
	C302.360535,462.986450 295.195007,462.994720 287.570099,462.990479 
	C287.062195,459.248993 287.013641,455.510986 287.043945,451.307404 
	C337.209015,450.841034 387.295441,450.887390 437.381378,450.755280 
	C441.659698,450.743988 445.934845,449.544830 450.627930,448.834473 
	C450.627930,453.563599 450.627930,457.950653 450.627930,463.030518 
	C437.084381,463.030518 423.506348,463.030518 409.463989,463.097839 
z"/>
<path fill="#F0F3F4" opacity="1.000000" stroke="none" 
	d="
M287.578247,446.003174 
	C287.072632,445.249390 287.027985,444.493011 287.053711,443.362671 
	C338.557831,442.988678 389.991608,442.988678 441.490479,442.988678 
	C441.405426,444.459503 441.415253,444.620728 441.382080,444.772614 
	C441.347107,444.932587 441.312225,445.175964 441.206177,445.223145 
	C440.613495,445.486938 440.012329,445.848053 439.389557,445.904083 
	C438.066956,446.023163 436.729309,445.992432 435.397827,445.992554 
	C386.278290,445.997467 337.158722,445.998810 287.578247,446.003174 
z"/>
<path fill="#FFFFFF" opacity="1.000000" stroke="none" 
	d="
M240.982941,434.567657 
	C210.118469,434.993439 179.329895,434.971710 148.541458,435.033508 
	C145.023849,435.040558 142.119522,434.759186 142.567444,428.996552 
	C175.019455,428.996552 207.503906,428.996552 240.451202,428.998688 
	C240.962326,430.715515 241.010605,432.430237 240.982941,434.567657 
z"/>
<path fill="#FFFFFF" opacity="1.000000" stroke="none" 
	d="
M240.989090,425.577393 
	C210.491211,426.003967 180.066956,426.008636 149.642715,426.004089 
	C148.148361,426.003876 146.519806,426.270081 145.205200,425.761810 
	C144.273315,425.401581 143.214920,423.938843 143.223907,422.977692 
	C143.232864,422.020691 144.322540,420.595703 145.264267,420.240753 
	C146.586380,419.742462 148.209717,420.007965 149.704208,420.007690 
	C179.795959,420.002411 209.887711,420.005859 240.441650,420.009888 
	C240.956818,421.726013 241.009766,423.439850 240.989090,425.577393 
z"/>
<path fill="#FFFFFF" opacity="1.000000" stroke="none" 
	d="
M240.987411,442.574158 
	C210.755524,443.000336 180.598389,443.007385 150.441254,442.994812 
	C148.782822,442.994110 146.928772,443.252686 145.529510,442.604889 
	C144.458542,442.109070 143.596695,440.433258 143.382019,439.157745 
	C143.290131,438.611786 144.983063,437.476471 146.039154,437.108002 
	C147.081955,436.744171 148.344589,437.001434 149.510773,437.001434 
	C179.667923,437.001404 209.825058,437.003357 240.444611,437.007324 
	C240.958725,438.723389 241.010452,440.437103 240.987411,442.574158 
z"/>
<path fill="#FFFFFF" opacity="1.000000" stroke="none" 
	d="
M240.983704,417.571442 
	C208.500519,417.992279 176.093384,417.992279 143.670578,417.992279 
	C142.949768,412.704803 145.465210,411.948547 149.194534,411.957458 
	C179.506363,412.029755 209.818420,412.003906 240.604263,412.014587 
	C241.071991,413.731018 241.065872,415.440826 240.983704,417.571442 
z"/>
<path fill="#F4FCFC" opacity="1.000000" stroke="none" 
	d="
M240.981827,450.456390 
	C220.567825,450.886078 200.227127,450.902222 179.418854,450.997559 
	C168.631500,450.734039 158.311172,450.405792 147.993011,450.019867 
	C147.212601,449.990692 146.447510,449.551422 145.344391,449.090027 
	C145.309219,444.686462 148.511978,445.043060 151.277939,445.032471 
	C166.060333,444.975800 180.843033,445.003815 195.625641,445.003845 
	C210.408249,445.003876 225.190842,445.005432 240.435150,445.006775 
	C240.949615,446.685822 241.002365,448.364319 240.981827,450.456390 
z"/>
<path fill="#F3A20B" opacity="1.000000" stroke="none" 
	d="
M289.800964,306.113586 
	C289.567780,305.835510 289.742493,305.387573 290.258789,305.179901 
	C304.343170,299.980957 317.911285,294.989655 331.479401,289.998383 
	C331.479401,289.998383 331.745972,289.991486 331.878540,290.005951 
	C342.336365,298.350464 352.653992,306.690033 362.990601,315.005951 
	C367.223907,318.411682 371.498413,321.766235 375.462158,326.061249 
	C368.328888,325.298309 360.959320,325.411835 354.117706,323.567230 
	C343.819641,320.790741 337.261627,323.583649 332.853210,333.268524 
	C330.816895,337.742157 327.420715,341.596802 324.311798,346.221985 
	C312.757172,332.795593 301.395660,319.593628 289.800964,306.113586 
z"/>
<path fill="#FFBB1D" opacity="1.000000" stroke="none" 
	d="
M331.586548,289.630341 
	C317.911285,294.989655 304.343170,299.980957 290.389587,304.978210 
	C290.257538,302.906403 290.510986,300.828644 290.727081,298.361755 
	C292.152557,276.313599 286.335083,256.965515 271.536469,240.903610 
	C268.212250,237.295624 263.101501,235.333679 258.573730,232.332092 
	C273.293579,226.672729 288.252899,221.295242 303.599426,215.870560 
	C311.026855,217.863724 316.230194,222.379715 320.171326,228.333038 
	C330.535278,243.988449 335.702759,261.148987 334.670898,280.488251 
	C333.689758,283.721008 332.691742,286.491638 331.586548,289.630341 
z"/>
<path fill="#EDF0F1" opacity="1.000000" stroke="none" 
	d="
M125.115158,354.390625 
	C117.580429,356.915497 113.807442,355.609344 109.526459,349.254486 
	C102.722519,339.154541 100.456947,327.618347 99.110161,315.828064 
	C98.984718,314.729858 99.675400,312.752869 100.409988,312.520447 
	C101.604019,312.142731 103.886749,312.390472 104.419586,313.211578 
	C107.155533,317.427704 109.643921,321.833466 111.790207,326.375549 
	C112.161179,327.160645 110.786873,329.578217 109.676537,330.110382 
	C105.690262,332.020752 107.487190,334.714844 108.289497,337.302887 
	C109.235748,340.355255 111.290573,341.636169 114.424843,340.637207 
	C119.336784,339.071625 124.313744,337.637482 129.049576,335.641022 
	C130.289398,335.118408 131.682892,332.518311 131.397598,331.227875 
	C129.879654,324.361694 127.850403,317.608551 126.810028,310.376038 
	C128.553894,314.283081 130.999176,318.039246 131.879578,322.132019 
	C133.249329,328.499634 134.177948,335.101257 134.123444,341.593903 
	C134.076294,347.211090 130.271332,351.322174 125.115158,354.390625 
z"/>
</svg>