<svg width="512" height="512" xmlns="http://www.w3.org/2000/svg" xml:space="preserve" enable-background="new 0 0 512 512" version="1.1">

 <g>
  <title>Layer 1</title>
  <path id="svg_1" d="m277,513c-13.68756,0 -27.37512,0 -41.75079,-0.36243c-7.38248,-1.12109 -14.1166,-1.62909 -20.76412,-2.68313c-24.41255,-3.87088 -47.75976,-11.31992 -69.9208,-22.18918c-19.97064,-9.79495 -38.42866,-21.92389 -55.17693,-36.72333c-15.92352,-14.07055 -30.38559,-29.37973 -42.56528,-46.78097c-11.98602,-17.12458 -21.79121,-35.40928 -29.24634,-54.99439c-7.13933,-18.75543 -12.2161,-37.96603 -14.61003,-57.8942c-0.49769,-4.14306 -1.30246,-8.2492 -1.96571,-12.37237c0,-14.35422 0,-28.70845 0.36246,-43.75079c1.12104,-7.38242 1.62903,-14.11644 2.68303,-20.7639c3.87077,-24.4126 11.31989,-47.7598 22.1891,-69.92086c9.79491,-19.97067 21.92393,-38.42868 36.72335,-55.17698c14.07059,-15.9235 29.37973,-30.38567 46.781,-42.56533c17.12461,-11.98603 35.40928,-21.79126 54.99441,-29.24639c18.75546,-7.13933 37.9661,-12.21613 57.89431,-14.61004c4.14303,-0.49769 8.24919,-1.30246 12.37234,-1.96571c14.35423,0 28.70847,0 43.75079,0.36246c7.38245,1.12104 14.11652,1.62904 20.76398,2.68304c24.4126,3.8708 47.75977,11.31991 69.92081,22.18911c19.97067,9.79492 38.42871,21.92391 55.17697,36.72333c15.92346,14.07059 30.38568,29.37968 42.56531,46.78099c11.98599,17.12461 21.79126,35.40928 29.2464,54.99439c7.13934,18.75547 12.21609,37.96611 14.61004,57.89432c0.49774,4.14304 1.30243,8.24921 1.9657,12.37236c0,14.35423 0,28.70847 -0.36243,43.75076c-1.18301,7.56278 -2.00351,14.43744 -3.08984,21.12308c-20.88693,-20.77081 -41.50073,-41.35986 -62.14514,-61.91821c-1.39469,-1.38889 -3.01999,-2.54616 -4.83087,-4.00774c-2.35297,-4.98386 -6.646,-5.65572 -11.02063,-5.67071c-23.75547,-0.08146 -47.51133,-0.04659 -71.26703,-0.01616c-1.12305,0.00143 -2.24567,0.34188 -3.8291,0.47052c-10.4422,-0.11598 -20.42383,-0.17804 -30.46039,-0.55448c-0.55036,-0.97308 -0.9747,-1.70274 -1.55142,-2.28025c-20.18381,-20.21123 -40.37253,-40.41755 -60.6055,-60.57947c-1.01072,-1.00716 -2.42243,-1.61188 -3.72016,-2.74979c-2.41849,-2.11819 -4.76417,-3.89058 -7.44235,-5.91003c-1.14554,-0.38205 -1.95866,-0.63533 -2.77167,-0.63494c-29.94584,0.01488 -59.89166,0.05327 -90.30922,0.05545c-29.91203,-0.04805 -59.35236,-0.07683 -88.79261,-0.04069c-1.59826,0.00197 -3.19584,0.54658 -5.15687,0.90166c-4.81695,1.43551 -7.79751,4.02923 -8.04575,9.41696c-0.34402,1.32818 -0.58007,2.30766 -0.58073,3.28732c-0.02018,29.69453 -0.02859,59.38908 0.01697,89.08356c0.0022,1.4371 0.51073,2.87341 0.85701,4.29168c0.07354,-0.0184 0.21877,-0.06195 0.16437,0.19333c-0.02783,0.42722 -0.00127,0.59922 -0.02405,1.23868c-0.06336,7.10831 0.22221,13.76737 -0.18055,20.38449c-0.36104,5.93158 1.00337,10.74933 6.30879,14.39972c1.53022,1.74573 2.86952,3.22949 4.28098,4.64111c68.08943,68.09851 136.18691,136.18897 204.2683,204.29551c1.5195,1.52002 2.86383,3.21518 4.28989,4.82864z" fill="#38C6D9"/>
  <path id="svg_2" d="m442.86456,234.14447c1.51804,1.265 3.14334,2.42227 4.53803,3.81116c20.64441,20.55835 41.25821,41.1474 62.18719,62.29547c-0.32861,2.39645 -1.21356,4.18063 -1.56198,6.06406c-2.5462,13.764 -6.0611,27.24285 -11.28338,40.25735c-1.99381,4.96872 -3.42267,10.19778 -5.77182,14.98282c-4.20148,8.55813 -8.59971,17.05188 -13.47944,25.23645c-5.72339,9.5997 -10.95562,19.82559 -18.34677,28.02606c-14.0386,15.57584 -28.52749,31.01944 -44.56256,44.44843c-17.49124,14.6484 -37.63202,25.77191 -58.91256,34.44369c-21.20917,8.6427 -43.02845,14.9632 -65.90159,17.32407c-3.61898,0.37347 -7.18121,1.29684 -10.76968,1.96597c-0.44446,0 -0.88889,0 -1.66669,0c-1.75937,-1.61346 -3.1037,-3.30862 -4.6232,-4.82864c-68.08139,-68.10654 -136.17887,-136.197 -204.2683,-204.29551c-1.41146,-1.41162 -2.75076,-2.89538 -3.81313,-4.61398c21.65686,-0.22012 43.00312,-0.17178 64.1947,0.20261c-3.06137,9.02554 -5.96807,17.72497 -9.22499,26.60614c-2.98763,0.90625 -6.44656,0.86242 -8.03849,2.5646c-1.69591,1.81339 -2.60487,5.48578 -2.07925,7.97034c0.6616,3.12735 3.17436,5.59259 7.202,5.58145c14.41905,-0.03992 28.83853,0.07871 43.58655,0.3775c3.75344,0.30011 7.17819,0.36008 10.79728,0.47461c0.19434,0.05457 0.59442,0.10849 0.62938,0.56598c0.05007,16.27149 0.0228,32.08566 0.10179,47.89929c0.03014,6.03324 1.4848,7.57831 7.27359,7.58811c16.97696,0.02878 33.95413,-0.06674 51.38967,-0.00693c16.56422,0.13199 32.67001,0.17337 48.77578,0.17591c8.2118,0.00128 9.70069,-1.5405 9.74225,-9.92118c0.06342,-12.78216 0.11667,-25.56439 0.63202,-38.34427c3.62094,0.00269 6.79596,0.17551 9.94397,-0.04223c3.54425,-0.24518 7.06412,-0.84232 10.75662,-0.88919c0.22062,14.21072 0.26258,28.02438 0.34479,41.83783c0.04138,6.9523 0.31003,7.22018 7.38596,7.21188c7.32162,-0.00861 14.64319,-0.10098 22.42315,-0.05115c7.93302,0.13876 15.40778,0.21677 22.88221,0.19187c6.79904,-0.02262 7.59545,-0.90348 7.62454,-7.91449c0.05585,-13.45282 0.11563,-26.90568 0.34671,-40.44541c0.40072,-0.2225 0.57687,-0.40729 1.16632,-0.68921c13.91229,-0.05917 27.35965,-0.06573 40.80701,-0.08307c11.45483,-0.0148 22.91122,0.06235 34.36383,-0.10867c5.53415,-0.08267 9.3139,-3.38922 10.5567,-8.57935c1.23306,-5.14941 -0.24533,-9.39453 -5.26135,-11.84838c-2.91904,-1.42798 -6.56324,-1.3736 -9.83063,-2.49051c0.06726,-11.99939 0.13516,-23.49472 0.08929,-34.98957c-0.07708,-19.32077 -0.22653,-38.64128 -0.34552,-57.96191z" fill="#02B2B2"/>
  <path id="svg_7" d="m289.15317,350.99371c-0.05756,12.7822 -0.11081,25.56443 -0.17423,38.34659c-0.04156,8.38068 -1.53045,9.92246 -9.74225,9.92118c-16.10577,-0.00254 -32.21156,-0.04392 -48.77667,-0.60993c-0.46287,-2.84976 -0.46641,-5.15891 -0.11552,-7.56409c1.73193,-1.66449 4.44371,-3.53491 4.17314,-4.73025c-0.40228,-1.77719 -2.9133,-3.07706 -4.52472,-4.94803c-0.00102,-1.34937 -0.0042,-2.33075 0.45929,-3.36591c17.16232,-0.11099 33.85797,-0.16818 50.8092,-0.2362c0.44419,-0.2753 0.63279,-0.53977 0.90641,-1.26706c0.10598,-36.18692 0.07245,-71.91123 0.22509,-107.63474c0.01682,-3.92962 -1.15744,-5.08999 -5.07946,-5.05621c-15.77918,0.1358 -31.56115,-0.05658 -47.33243,-0.56866c0.01623,-4.01032 0.02284,-7.57972 0.49182,-11.22644c7.15504,-0.14815 13.84772,-0.21892 20.7731,-0.26908c0.57146,-0.14946 0.67931,-0.41376 0.62955,-1.23659c0.07329,-28.3825 0.07329,-56.3007 0.07329,-84.61802c-2.58342,0 -4.55481,0.00338 -6.52619,-0.00052c-28.48021,-0.05626 -56.96042,-0.1135 -85.4337,-0.60217c0.02278,-3.03626 0.03867,-5.64083 0.00762,-8.29044c-0.04694,-0.04504 -0.07543,-0.172 0.39704,-0.12799c31.18633,0.0278 61.9002,0.01161 92.61406,-0.00456c2.34571,1.77238 4.69139,3.54477 7.1198,5.99678c0.40213,1.49139 0.72153,2.30317 0.97849,3.57876c-0.07679,27.39045 -0.10621,54.3171 -0.06101,81.24361c0.00226,1.34378 0.65183,2.68648 1.44363,4.09894c3.1424,0.0361 5.84119,0.00293 8.75129,0.03659c0.21136,0.06682 0.65478,0.04455 1.11337,0.06558c2.9111,0.01154 5.36365,0.00205 8.21524,-0.00134c6.84821,0.47227 8.39127,2.08864 8.40469,8.5966c0.04224,20.45508 0.05533,40.91025 0.06638,61.80942c-0.00748,2.22113 -0.00159,3.99826 -0.02466,6.23657c0.02683,7.78336 0.08258,15.10547 0.13834,22.42761z" fill="#272525"/>
  <path id="svg_8" d="m128.97806,299.13843c-21.34626,-0.04834 -42.69252,-0.09668 -64.50663,-0.17212c-5.61602,-3.38196 -6.98043,-8.19971 -6.61939,-14.13129c0.40276,-6.61712 0.11719,-13.27618 0.41768,-20.39752c0.28647,-0.4805 0.73051,-0.65076 1.19568,-0.59094c16.57107,0.06781 32.67704,0.04727 48.78284,0.09158c17.26127,0.04746 34.52236,0.15592 51.77012,0.65323c-0.02089,2.35657 -0.02839,4.29773 -0.3908,6.33618c-4.60151,1.35895 -8.20465,3.4664 -7.42541,8.57221c0.62492,4.09475 3.36035,6.58844 7.77347,7.18457c-0.00263,4.3172 -0.00873,8.18811 -0.47536,12.13455c-10.48108,0.15689 -20.50165,0.23822 -30.5222,0.31955z" fill="#D0D1D3"/>
  <path id="svg_9" d="m442.57172,233.94788c0.41183,19.51722 0.56128,38.83773 0.63836,58.1585c0.04587,11.49485 -0.02203,22.99018 -0.55273,34.89093c-24.15711,0.40568 -47.80029,0.40568 -71.51181,0.40568c0,8.01876 0,15.30664 -0.0506,22.84066c-0.01669,0.41028 0.01718,0.57434 0.05106,0.73841c-0.05817,13.45281 -0.11795,26.90567 -0.1738,40.35849c-0.02909,7.01101 -0.8255,7.89187 -7.62454,7.91449c-7.47443,0.0249 -14.94919,-0.05311 -22.88364,-0.60523c-0.45044,-2.17279 -0.44107,-3.82663 -0.05771,-5.54822c1.42596,-1.2922 3.55637,-2.87164 3.29553,-3.66391c-0.47787,-1.45163 -2.36731,-2.4386 -3.67547,-3.95019c-0.00482,-0.99265 -0.00229,-1.65448 0.46322,-2.37824c8.70258,-0.06192 16.94217,-0.06192 25.16498,-0.06192c0,-29.41467 0,-57.94839 0,-87.17206c-8.77988,0 -17.22214,0 -25.66122,-0.43026c0.0115,-2.99405 0.0198,-5.5579 0.48278,-8.23108c5.8021,-0.18991 11.14951,-0.27045 16.94965,-0.27991c1.28586,0.08277 2.1217,0.14441 2.95163,0.09851c9.52084,-0.52597 10.96814,1.09998 10.64609,10.68476c-0.2608,7.76171 -0.05292,15.53918 -0.05292,23.17114c21.97003,0 43.19635,0 64.7381,0c0,-28.23859 0,-56.03702 0.04083,-84.08692c-0.2297,-0.41149 -0.50027,-0.57148 -1.23083,-0.82089c-26.15934,-0.0291 -51.85874,0.03121 -77.54303,-0.0022c0.01507,-0.09372 0.1026,-0.26214 0.08606,-0.6918c-0.05976,-2.45349 -0.10294,-4.47732 -0.14612,-6.50116c1.1228,-0.18256 2.24542,-0.52301 3.36847,-0.52444c23.7557,-0.03043 47.51156,-0.0653 71.26703,0.01616c4.37463,0.01499 8.66766,0.68685 11.02063,5.6707z" fill="#272525"/>
  <path id="svg_10" d="m160.03177,264.1759c-17.26117,-0.08184 -34.52226,-0.1903 -51.78353,-0.23776c-16.1058,-0.04431 -32.21177,-0.02377 -48.90055,-0.2601c-0.77003,-0.43353 -0.98795,-0.5979 -1.23665,-0.72147c0,0 -0.14523,0.04355 -0.14866,-0.40414c-0.05085,-32.48016 -0.09826,-64.51262 -0.14566,-96.54509c0.03054,-5.03911 3.0111,-7.63283 8.29203,-9.01352c31.86298,0.02397 62.89883,0.05615 93.93469,0.08835c-0.01588,2.60458 -0.03177,5.20915 -0.04268,8.34288c0.00496,0.52916 0.02484,0.72465 -0.43997,0.65445c-30.82951,-0.02518 -61.1942,0.01982 -91.80337,0.06784c-0.59054,0.19719 -0.69033,0.47867 -0.59951,1.31338c-0.05565,29.65796 -0.05565,58.85002 -0.05565,88.28495c31.47139,0 62.20862,0 92.93752,0.09787c-0.00832,0.09785 -0.054,0.28891 -0.0529,0.71188c-0.01464,2.67252 -0.03038,4.92206 -0.06438,7.29211c-0.01825,0.12055 0.10927,0.32837 0.10927,0.32837z" fill="#353131"/>
  <path id="svg_11" d="m271.02847,251.79245c-2.69876,0.03316 -5.39755,0.06633 -8.54886,-0.42113c-0.46115,-26.86996 -0.45239,-53.21937 -0.51422,-79.56859c-0.00451,-1.92941 -0.51941,-3.85763 -0.79703,-5.7864c-0.31942,-0.81179 -0.63882,-1.62357 -0.96816,-2.76917c1.21502,0.4583 2.62673,1.06302 3.63745,2.07018c20.23297,20.16192 40.42169,40.36824 60.6055,60.57947c0.57672,0.57751 1.00106,1.30717 1.0834,2.33805c-14.57202,0.40129 -28.73172,0.35498 -42.88968,0.49164c-6.97699,0.06732 -10.47028,3.77562 -10.63077,10.82634c-0.08706,3.82738 -0.12402,7.65591 -0.34002,11.58289c-0.35565,0.2514 -0.51602,0.43733 -0.63761,0.65672z" fill="#02B2B2"/>
  <path id="svg_12" d="m271.82254,251.03676c0.05954,-3.82801 0.0965,-7.65654 0.18356,-11.48392c0.16049,-7.05072 3.65378,-10.75902 10.63077,-10.82634c14.15796,-0.13666 28.31766,-0.09035 42.94467,-0.17727c10.44959,0.00427 20.43122,0.06633 30.87342,0.18231c0.50381,2.07776 0.54699,4.10159 0.13995,6.64123c-25.70251,0.51579 -50.9548,0.51579 -76.42557,0.51579c0,5.77556 0,10.9022 0,16.02884c-2.45251,0.0095 -4.90506,0.01899 -7.80783,-0.21128c-0.45029,-0.23978 -0.53897,-0.66936 -0.53897,-0.66936z" fill="#353131"/>
  <path id="svg_13" d="m57.59902,166.35596c0.2651,31.68385 0.31251,63.71631 0.28982,96.21487c-0.34285,-0.97058 -0.85138,-2.40689 -0.85358,-3.84399c-0.04556,-29.69448 -0.03715,-59.38903 -0.01697,-89.08356c0.00066,-0.97966 0.23671,-1.95914 0.58073,-3.28732z" fill="#48B4C3"/>
  <path id="svg_14" d="m159.99651,157.03714c-30.98893,0.01283 -62.02478,-0.01935 -93.52462,-0.10638c1.13391,-0.34684 2.73149,-0.89145 4.32975,-0.89342c29.44025,-0.03614 58.88058,-0.00736 88.75468,0.22871c0.43379,0.22099 0.36476,0.59909 0.36476,0.59909c0,0 0.02849,0.12696 0.07543,0.172z" fill="#569EA8"/>
  <path id="svg_15" d="m160.39355,156.90915c-0.47247,-0.04401 -0.40344,-0.42211 -0.3655,-0.61011c29.98376,-0.22319 59.92958,-0.26158 89.87542,-0.27646c0.81301,-0.00039 1.62613,0.25289 2.77167,0.63494c-30.38139,0.26324 -61.09526,0.27943 -92.28159,0.25163z" fill="#53787D"/>
  <path id="svg_16" d="m58.05664,263.21185c0.3031,-0.13171 0.52102,0.03266 0.82588,0.40637c0.11771,0.16852 -0.32633,0.33878 -0.56346,0.35181c-0.26369,-0.15896 -0.29025,-0.33096 -0.26242,-0.75818z" fill="#484445"/>
  <path id="svg_17" d="m230.01047,252.1313c-0.00661,3.56938 -0.01322,7.13878 -0.02805,11.26039c-0.00822,0.55225 0.04541,0.76825 -0.42048,0.69837c-17.35624,-0.06989 -34.24657,-0.06989 -51.127,-0.06989c0,38.26572 0,75.66287 0,113.55338c17.40556,0 34.50631,0 51.5863,0.13018c-0.02078,0.13016 -0.03569,0.39335 -0.03569,0.39335c0.00317,0.98135 0.00635,1.96273 -0.00641,3.42794c-0.01593,0.48386 -0.00601,0.71695 -0.36049,0.71564c-1.4311,1.59537 -3.2904,3.17587 -3.32379,4.79404c-0.02443,1.1832 2.35257,2.41598 3.66005,3.75775c0.0009,0.1311 0.03516,0.39108 0.03516,0.39108c0.00354,2.30911 0.00708,4.61826 0.0115,7.36139c-16.9762,0.48084 -33.95337,0.57636 -50.93033,0.54758c-5.78879,-0.0098 -7.24345,-1.55487 -7.27359,-7.58811c-0.07899,-15.81363 -0.05172,-31.6278 -0.05673,-48.1286c-0.05665,-1.02267 -0.24968,-1.25232 -0.63551,-1.83847c-0.07932,-5.48752 -0.09215,-10.51242 0.14795,-15.86447c0.3287,-9.2138 0.40451,-18.10052 0.48984,-27.43561c0.06338,-11.61093 0.11723,-22.77343 0.19081,-34.40341c0.02688,-2.94034 0.03405,-5.41321 0.19044,-8.22232c2.16306,-1.43408 4.16582,-3.45982 6.19243,-3.48395c17.22874,-0.20509 34.46181,-0.04611 51.69359,0.00374z" fill="#353131"/>
  <path id="svg_18" d="m371.14554,349.9975c0,-7.28787 0,-14.57575 0,-22.59451c23.71152,0 47.3547,0 71.4613,0.0986c3.78134,0.71127 7.42554,0.65689 10.34458,2.08487c5.01602,2.45385 6.49441,6.69897 5.26135,11.84838c-1.2428,5.19013 -5.02255,8.49668 -10.5567,8.57935c-11.45261,0.17102 -22.909,0.09387 -34.36383,0.10867c-13.44736,0.01734 -26.89472,0.0239 -41.01697,-0.01092c-0.6749,-0.04605 -1.12973,-0.11444 -1.12973,-0.11444z" fill="#D0D1D3"/>
  <path id="svg_19" d="m340.03235,393.16934c-0.0094,1.65384 -0.01877,3.30768 -0.02674,5.37491c-7.32012,0.46909 -14.64169,0.56146 -21.96331,0.57007c-7.07593,0.0083 -7.34458,-0.25958 -7.38596,-7.21188c-0.08221,-13.81345 -0.12417,-27.62711 -0.39804,-42.27189c-0.21527,-7.7062 -0.21527,-14.58117 -0.21527,-21.52566c-7.46561,0 -14.23242,0 -20.99927,0c-0.00586,-1.7771 -0.01175,-3.55423 0.45862,-5.728c7.09607,-0.39664 13.71594,-0.39664 20.70309,-0.39664c0.14536,-2.22958 0.35337,-4.01867 0.36286,-5.80886c0.04053,-7.65146 0.04645,-15.30335 0.01599,-22.9549c-0.01614,-4.05908 1.6922,-6.16989 5.99277,-6.08142c7.81277,0.16071 15.62936,0.13571 23.44436,0.18823c-0.0083,2.56381 -0.0166,5.12766 -0.03207,8.25348c-0.00717,0.56201 0.048,0.8198 -0.42102,0.7764c-6.46414,-0.04163 -12.47882,0.25854 -18.44827,-0.13214c-4.805,-0.31452 -5.80426,1.63928 -5.77423,6.03036c0.17208,25.14637 0.0783,50.2945 0.09588,75.44205c0.00113,1.62793 0.17853,3.25574 0.28922,5.14374c8.014,0 15.64227,0 23.52701,0.08291c0.42718,0.13895 0.59789,0.19504 0.76864,0.2511c-0.00253,0.66181 -0.00506,1.32364 -0.27142,2.55042c-2.23444,3.02829 -1.98264,5.31692 0.27716,7.44772z" fill="#353131"/>
  <path id="svg_20" d="m128.82338,299.46451c10.17523,-0.40741 20.1958,-0.48874 30.6944,-0.52765c0.47804,0.04242 0.50865,0.27875 0.49592,0.73148c-0.00746,9.01968 -0.00221,17.58657 -0.01628,26.2904c-0.01933,0.13687 -0.06467,0.40964 -0.52443,0.34607c-13.48131,-0.181 -26.50284,-0.29846 -39.52438,-0.41592c2.9067,-8.69944 5.8134,-17.39887 8.87477,-26.42438z" fill="#808183"/>
  <path id="svg_21" d="m119.59839,326.07062c13.37176,-0.06427 26.39329,0.05319 39.88431,0.67355c0.46557,5.52866 0.46168,10.55441 0.45781,15.58017c-14.41933,-0.05862 -28.83881,-0.17725 -43.25786,-0.13733c-4.02764,0.01114 -6.5404,-2.4541 -7.202,-5.58145c-0.52562,-2.48456 0.38334,-6.15695 2.07925,-7.97034c1.59193,-1.70218 5.05086,-1.65835 8.03849,-2.5646z" fill="#CFD1D3"/>
  <path id="svg_22" d="m289.01483,328.5661c6.79578,-0.46121 13.56259,-0.46121 21.0282,-0.46121c0,6.94449 0,13.81946 0.05325,21.12851c-3.47723,0.87808 -6.9971,1.47522 -10.54135,1.7204c-3.14801,0.21774 -6.32303,0.04492 -9.94397,0.04223c-0.51355,-7.32446 -0.5693,-14.64657 -0.59613,-22.42993z" fill="#FFFFFF"/>
  <path id="svg_23" d="m160.2692,342.56451c-0.32482,-5.26593 -0.32093,-10.29168 -0.32674,-15.75677c-0.00971,-0.43936 0.03563,-0.71213 0.50851,-0.78851c3.83174,-0.05732 7.19062,-0.03827 10.54947,-0.01923c0.01282,5.0249 0.02565,10.0498 0.02767,15.78271c-0.05918,0.87262 -0.10758,1.03724 -0.15596,1.20188c-3.42476,-0.06 -6.84951,-0.11997 -10.60295,-0.42008z" fill="#A6A8AA"/>
  <path id="svg_24" d="m171.06648,343.03912c-0.14595,-0.21917 -0.09755,-0.38379 0.02814,-0.79379c0.39662,-0.12186 0.58965,0.10779 0.61134,0.67294c-0.04506,0.22934 -0.44514,0.17542 -0.63948,0.12085z" fill="#118484"/>
  <path id="svg_25" d="m371.09494,350.24365c0.0506,-0.24615 0.50543,-0.17776 0.71539,-0.0838c0.08545,0.328 -0.0907,0.51279 -0.49142,0.73529c-0.20679,-0.07715 -0.24066,-0.24121 -0.22397,-0.65149z" fill="#2CBCBC"/>
  <path id="svg_26" d="m230.47284,252.05396c-17.69415,0.02749 -34.92722,-0.13149 -52.15596,0.0736c-2.02661,0.02413 -4.02937,2.04987 -6.65129,3.50008c-4.29866,0.40318 -7.98924,0.454 -11.67981,0.50481c0,0 0.04568,-0.19106 0.03999,-0.74051c-0.00384,-30.11371 -0.00201,-59.67797 -0.00017,-89.24224c0,0 -0.01988,-0.19549 -0.03177,-0.29298c28.46834,-0.04047 56.94855,0.01677 85.42876,0.07303c1.97138,0.0039 3.94277,0.00052 6.52619,0.00052c0,28.31732 0,56.23552 -0.22849,84.71685c-0.42577,0.71518 -0.58529,0.89983 -0.70706,1.11713c-6.69267,0.07079 -13.38535,0.14156 -20.54039,0.28971z" fill="#FF314F"/>
  <path id="svg_27" d="m281.00583,377.8179c-16.69565,0.05719 -33.3913,0.11438 -50.55362,0.22537c-0.46666,0.05381 -0.45175,-0.20938 -0.45114,-0.77789c0.00932,-38.08084 0.01805,-75.59314 0.02676,-113.10544c0,0 -0.05363,-0.216 -0.05505,-0.3273c15.77952,-0.04016 31.56149,0.15222 47.34067,0.01642c3.92202,-0.03378 5.09628,1.12659 5.07946,5.05621c-0.15264,35.72351 -0.11911,71.44782 -0.43228,107.73194c-0.55292,0.72442 -0.77374,0.93133 -0.9548,1.18069z" fill="#6CAF5F"/>
  <path id="svg_28" d="m340.47613,287.21393c-8.26968,0.05685 -16.08627,0.08185 -23.89904,-0.07886c-4.30057,-0.08847 -6.00891,2.02234 -5.99277,6.08142c0.03046,7.65155 0.02454,15.30344 -0.01599,22.9549c-0.00949,1.79019 -0.2175,3.57928 -0.36286,5.80886c-6.98715,0 -13.60702,0 -20.68975,-0.04739c-0.48728,-20.5025 -0.50037,-40.95767 -0.54261,-61.41275c-0.01342,-6.50796 -1.55648,-8.12433 -8.40469,-8.5966c-0.39908,-5.13275 -0.39908,-10.25939 -0.39908,-16.03495c25.47077,0 50.72306,0 76.44211,-0.08613c0.4668,-0.08615 0.37927,0.08227 0.37497,0.63977c-0.00736,17.17857 -0.01038,33.79965 -0.0134,50.42071c-5.34738,0.08057 -10.69479,0.16111 -16.49689,0.35102z" fill="#FFC61B"/>
  <path id="svg_29" d="m261.1059,166.48013c0.34008,1.46497 0.85498,3.39319 0.85949,5.3226c0.06183,26.34922 0.05307,52.69863 0.07059,79.49933c-0.33926,-0.89184 -0.98883,-2.23454 -0.99109,-3.57832c-0.0452,-26.92651 -0.01578,-53.85316 0.06101,-81.24361z" fill="#19A3A3"/>
  <path id="svg_30" d="m229.97699,381.89301c1.62735,1.38714 4.13837,2.68701 4.54065,4.4642c0.27057,1.19534 -2.44121,3.06576 -4.17314,4.73025c-0.35443,0.09607 -0.38869,-0.16391 -0.38384,-0.71069c0.0074,-3.07611 0.00994,-5.60544 0.01247,-8.1348c0,0 -0.00992,-0.23309 0.00386,-0.34896z" fill="#59595B"/>
  <path id="svg_31" d="m271.66608,251.13573c0.15646,-0.09897 0.24514,0.33061 0.23681,0.54936c-0.0083,0.21873 -0.45172,0.241 -0.66308,0.17418c-0.08975,-0.28621 0.07062,-0.47214 0.42627,-0.72354z" fill="#19A3A3"/>
  <path id="svg_32" d="m251.24594,251.78488c-0.11094,-0.23793 0.04858,-0.42258 0.40106,-0.67343c0.27825,0.25967 0.1704,0.52397 -0.40106,0.67343z" fill="#EE314C"/>
  <path id="svg_33" d="m281.26141,377.80707c-0.07452,-0.23853 0.1463,-0.44544 0.61414,-0.70703c0.01865,0.16726 -0.16995,0.43173 -0.61414,0.70703z" fill="#68925E"/>
  <path id="svg_34" d="m171.91429,264.3013c-0.05386,11.16251 -0.10771,22.32501 -0.60629,34.01669c-4.05701,0.65201 -7.66928,0.77481 -11.28157,0.89762c0,0 -0.03061,-0.23633 -0.04813,-0.35431c-0.01141,-3.98886 -0.00531,-7.85977 0.0112,-12.30023c0.01041,-0.56958 0.03937,-0.81595 0.3934,-0.77311c4.33555,-1.05047 6.81592,-3.57553 6.42458,-7.77993c-0.35426,-3.80619 -2.56781,-6.35904 -6.76323,-6.72684c-0.02251,-0.15006 -0.06177,-0.45096 -0.06177,-0.45096c0.00749,-1.94113 0.01499,-3.88229 0.03588,-6.23886c0.01341,-0.41547 -0.11411,-0.62329 0.35696,-0.63641c4.16037,0.10672 7.84967,0.22653 11.53897,0.34634z" fill="#A6A8AA"/>
  <path id="svg_35" d="m159.98602,286.11475c-4.42352,-0.02655 -7.15895,-2.52024 -7.78387,-6.61499c-0.77924,-5.10581 2.8239,-7.21326 7.42541,-8.57221c0.35492,-0.09732 0.39418,0.20358 0.39731,0.78412c0.00343,5.06485 0.00372,9.54916 0.004,14.03345c0,0 -0.02896,0.24637 -0.04285,0.36963z" fill="#808183"/>
  <path id="svg_36" d="m357.42578,286.93399c-0.44974,-16.69214 -0.44672,-33.31322 -0.45444,-50.39807c25.6886,-0.52409 51.388,-0.5844 77.62558,-0.36124c0.66623,0.54264 0.85743,0.74092 1.11176,0.87831c0,27.79842 0,55.59685 0,83.83544c-21.54175,0 -42.76807,0 -64.7381,0c0,-7.63196 -0.20788,-15.40943 0.05292,-23.17114c0.32205,-9.58478 -1.12525,-11.21073 -10.64609,-10.68476c-0.82993,0.0459 -1.66577,-0.01574 -2.95163,-0.09854z" fill="#EAA22F"/>
  <path id="svg_37" d="m340.48959,383.10925c-0.63373,0.00589 -0.80444,-0.0502 -1.04348,-0.55127c0.15478,-2.40387 0.56924,-4.36239 0.57217,-6.32153c0.0397,-26.61325 0.02237,-53.22656 0.0191,-79.83987c0,0 -0.05517,-0.25779 -0.05117,-0.38956c8.44622,-0.13175 16.88848,-0.13175 25.66836,-0.13175c0,29.22367 0,57.75739 0,87.17206c-8.22281,0 -16.4624,0 -25.16498,0.06192z" fill="#D35933"/>
  <path id="svg_38" d="m340.40631,393.10159c-2.63376,-2.06305 -2.88556,-4.35168 -0.6438,-7.0491c1.57202,0.94659 3.46146,1.93356 3.93933,3.38519c0.26084,0.79227 -1.86957,2.37171 -3.29553,3.66391z" fill="#5C5C5E"/>
  <path id="svg_39" d="m435.74951,236.80151c-0.29516,0.11409 -0.48636,-0.08419 -0.69262,-0.53743c0.19235,-0.03405 0.46292,0.12594 0.69262,0.53743z" fill="#B28427"/>
  <path id="svg_40" d="m159.56079,166.0795c0.46297,29.63447 0.46114,59.19873 0.4733,89.21458c-30.72321,0.45159 -61.46044,0.45159 -92.93183,0.45159c0,-29.43493 0,-58.62699 0.21363,-88.40029c0.40821,-0.75957 0.56566,-0.96617 0.68601,-1.20105c30.36469,-0.04501 60.72938,-0.09001 91.55889,-0.06483z" fill="#FF6262"/>
  <path id="svg_41" d="m171.93401,263.83383c-3.70902,0.34766 -7.39832,0.22785 -11.54044,0.00058c-0.43707,-2.35693 -0.42133,-4.60647 -0.40669,-7.27899c3.68947,-0.47378 7.38005,-0.5246 11.52948,-0.59155c0.4517,2.45675 0.44453,4.92962 0.41765,7.86996z" fill="#272525"/>
  <path id="svg_42" d="m67.75742,166.14734c0.12413,0.23187 -0.03332,0.43847 -0.38587,0.73215c-0.30446,-0.25348 -0.20467,-0.53496 0.38587,-0.73215z" fill="#E65C5C"/>
  <path id="svg_43" d="m229.56194,264.09006c0.45718,37.58218 0.44845,75.09448 0.4599,113.04513c-17.08059,0.43836 -34.18134,0.43836 -51.5869,0.43836c0,-37.89051 0,-75.28766 0,-113.55338c16.88043,0 33.77076,0 51.127,0.06989z" fill="#8BC180"/>
  <path id="svg_44" d="m160.0137,299.66834c3.62502,-0.57554 7.23729,-0.69834 11.28478,-0.90192c0.35939,8.80591 0.28358,17.69263 -0.04512,26.90643c-3.61177,0.30811 -6.97065,0.28906 -10.78305,0.20947c-0.45882,-8.62741 -0.46407,-17.1943 -0.45661,-26.21398z" fill="#59595B"/>
  <path id="svg_45" d="m229.61865,382.24066c0.35195,2.53067 0.34941,5.06 0.34113,8.00501c-1.31235,-0.79499 -3.68935,-2.02777 -3.66492,-3.21097c0.03339,-1.61817 1.89269,-3.19867 3.32379,-4.79404z" fill="#808183"/>
  <path id="svg_46" d="m339.56836,296.35318c0.47229,26.65671 0.48962,53.27002 0.44992,79.88327c-0.00293,1.95914 -0.41739,3.91766 -0.82864,6.23862c-7.81641,0.36212 -15.44468,0.36212 -23.45868,0.36212c-0.11069,-1.888 -0.28809,-3.51581 -0.28922,-5.14374c-0.01758,-25.14755 0.0762,-50.29568 -0.09588,-75.44205c-0.03003,-4.39108 0.96923,-6.34488 5.77423,-6.03036c5.96945,0.39068 11.98413,0.09051 18.44827,0.13214z" fill="#FF7F4F"/>
  <path id="svg_47" d="m160.3829,285.78796c-0.35431,-4.52713 -0.3546,-9.01144 -0.33552,-13.92624c4.19229,-0.21273 6.40584,2.34012 6.7601,6.14631c0.39134,4.2044 -2.08903,6.72946 -6.42458,7.77993z" fill="#5C5C5E"/>
 </g>
</svg>