<svg version="1.1" id="Layer_1" xmlns="http://www.w3.org/2000/svg" xmlns:xlink="http://www.w3.org/1999/xlink" x="0px" y="0px"
	 width="100%" viewBox="0 0 512 512" enable-background="new 0 0 512 512" xml:space="preserve">
<path fill="#38C6D9" opacity="1.000000" stroke="none" 
	d="
M277.000000,513.000000 
	C263.312439,513.000000 249.624878,513.000000 235.249207,512.637573 
	C227.866730,511.516479 221.132614,511.008484 214.485092,509.954437 
	C190.072540,506.083557 166.725327,498.634521 144.564285,487.765259 
	C124.593651,477.970306 106.135628,465.841370 89.387360,451.041931 
	C73.463844,436.971375 59.001766,421.662201 46.822079,404.260956 
	C34.836060,387.136383 25.030872,368.851685 17.575735,349.266571 
	C10.436412,330.511139 5.359638,311.300537 2.965714,291.372375 
	C2.468018,287.229309 1.663250,283.123169 1.000000,279.000000 
	C1.000000,264.645782 1.000000,250.291550 1.362457,235.249207 
	C2.483496,227.866791 2.991494,221.132767 4.045493,214.485306 
	C7.916264,190.072708 15.365376,166.725510 26.234591,144.564453 
	C36.029503,124.593781 48.158524,106.135765 62.957943,89.387474 
	C77.028534,73.463974 92.337669,59.001804 109.738937,46.822136 
	C126.863548,34.836113 145.148224,25.030880 164.733353,17.575745 
	C183.488815,10.436418 202.699448,5.359621 222.627655,2.965709 
	C226.770691,2.468020 230.876846,1.663249 235.000000,1.000000 
	C249.354233,1.000000 263.708466,1.000000 278.750793,1.362461 
	C286.133240,2.483503 292.867310,2.991496 299.514771,4.045501 
	C323.927368,7.916299 347.274536,15.365409 369.435577,26.234613 
	C389.406250,36.029526 407.864288,48.158516 424.612549,62.957943 
	C440.536011,77.028534 454.998230,92.337616 467.177856,109.738930 
	C479.163849,126.863541 488.969116,145.148209 496.424255,164.733322 
	C503.563599,183.488785 508.640350,202.699432 511.034302,222.627640 
	C511.532043,226.770676 512.336731,230.876846 513.000000,235.000000 
	C513.000000,249.354233 513.000000,263.708466 512.637573,278.750763 
	C511.454559,286.313538 510.634064,293.188202 509.547729,299.873840 
	C488.660797,279.103027 468.046997,258.513977 447.402588,237.955627 
	C446.007904,236.566742 444.382599,235.409470 442.571716,233.947891 
	C440.218750,228.964035 435.925720,228.292175 431.551086,228.277176 
	C407.795624,228.195724 384.039764,228.230591 360.284058,228.261017 
	C359.161011,228.262451 358.038391,228.602905 356.454956,228.731537 
	C346.012756,228.615555 336.031128,228.553497 325.994568,228.177063 
	C325.444214,227.203979 325.019867,226.474319 324.443146,225.896805 
	C304.259338,205.685577 284.070618,185.479263 263.837646,165.317337 
	C262.826935,164.310181 261.415222,163.705460 260.117493,162.567551 
	C257.699005,160.449356 255.353317,158.676971 252.675140,156.657516 
	C251.529602,156.275467 250.716476,156.022186 249.903473,156.022583 
	C219.957626,156.037460 190.011810,156.075851 159.594254,156.078033 
	C129.682220,156.029984 100.241890,156.001205 70.801636,156.037338 
	C69.203384,156.039307 67.605804,156.583923 65.644768,156.938995 
	C60.827816,158.374512 57.847260,160.968231 57.599022,166.355957 
	C57.254997,167.684143 57.018951,168.663620 57.018288,169.643280 
	C56.998112,199.337814 56.989704,229.032364 57.035259,258.726837 
	C57.037460,260.163940 57.545986,261.600250 57.892273,263.018524 
	C57.965809,263.000122 58.111038,262.956573 58.056641,263.211853 
	C58.028809,263.639069 58.055370,263.811066 58.032593,264.450531 
	C57.969231,271.558838 58.254803,278.217896 57.852036,284.835022 
	C57.490997,290.766602 58.855412,295.584351 64.160828,299.234741 
	C65.691048,300.980469 67.030350,302.464233 68.441811,303.875854 
	C136.531235,371.974365 204.628723,440.064819 272.710114,508.171356 
	C274.229614,509.691376 275.573944,511.386536 277.000000,513.000000 
z"/>
<path fill="#02B2B2" opacity="1.000000" stroke="none" 
	d="
M442.864563,234.144470 
	C444.382599,235.409470 446.007904,236.566742 447.402588,237.955627 
	C468.046997,258.513977 488.660797,279.103027 509.589783,300.251099 
	C509.261169,302.647552 508.376221,304.431732 508.027802,306.315155 
	C505.481598,320.079163 501.966705,333.558014 496.744415,346.572510 
	C494.750610,351.541229 493.321747,356.770294 490.972595,361.555328 
	C486.771118,370.113464 482.372894,378.607208 477.493164,386.791779 
	C471.769775,396.391479 466.537537,406.617371 459.146393,414.817841 
	C445.107788,430.393677 430.618896,445.837280 414.583832,459.266266 
	C397.092590,473.914673 376.951813,485.038177 355.671265,493.709961 
	C334.462097,502.352661 312.642822,508.673157 289.769684,511.034027 
	C286.150696,511.407501 282.588470,512.330872 279.000000,513.000000 
	C278.555542,513.000000 278.111115,513.000000 277.333313,513.000000 
	C275.573944,511.386536 274.229614,509.691376 272.710114,508.171356 
	C204.628723,440.064819 136.531235,371.974365 68.441811,303.875854 
	C67.030350,302.464233 65.691048,300.980469 64.628677,299.261871 
	C86.285538,299.041748 107.631798,299.090088 128.823380,299.464478 
	C125.762009,308.490021 122.855309,317.189453 119.598389,326.070618 
	C116.610756,326.976868 113.151833,326.933044 111.559898,328.635223 
	C109.863991,330.448608 108.955025,334.121002 109.480652,336.605560 
	C110.142250,339.732910 112.655006,342.198151 116.682655,342.187012 
	C131.101700,342.147095 145.521179,342.265717 160.269196,342.564514 
	C164.022644,342.864624 167.447388,342.924591 171.066483,343.039124 
	C171.260818,343.093689 171.660904,343.147614 171.695862,343.605103 
	C171.745926,359.876587 171.718658,375.690765 171.797653,391.504395 
	C171.827789,397.537628 173.282455,399.082703 179.071243,399.092499 
	C196.048203,399.121277 213.025375,399.025757 230.460907,399.085571 
	C247.025131,399.217560 263.130920,399.258942 279.236694,399.261475 
	C287.448486,399.262756 288.937378,397.720978 288.978943,389.340302 
	C289.042358,376.558136 289.095612,363.775909 289.610962,350.996033 
	C293.231903,350.998718 296.406921,351.171539 299.554932,350.953796 
	C303.099182,350.708618 306.619049,350.111481 310.311554,350.064606 
	C310.532166,364.275330 310.574127,378.088989 310.656342,391.902435 
	C310.697723,398.854736 310.966370,399.122620 318.042297,399.114319 
	C325.363922,399.105713 332.685486,399.013336 340.465454,399.063171 
	C348.398468,399.201935 355.873230,399.279938 363.347656,399.255035 
	C370.146698,399.232422 370.943115,398.351562 370.972198,391.340546 
	C371.028046,377.887726 371.087830,364.434875 371.318909,350.895142 
	C371.719635,350.672638 371.895782,350.487854 372.485229,350.205933 
	C386.397522,350.146759 399.844879,350.140198 413.292236,350.122864 
	C424.747070,350.108063 436.203461,350.185211 447.656067,350.014191 
	C453.190216,349.931519 456.969971,346.624969 458.212769,341.434845 
	C459.445831,336.285431 457.967438,332.040314 452.951416,329.586456 
	C450.032379,328.158478 446.388184,328.212860 443.120789,327.095947 
	C443.188049,315.096558 443.255951,303.601227 443.210083,292.106384 
	C443.132996,272.785614 442.983551,253.465103 442.864563,234.144470 
z"/>
<path fill="#FFFFFF" opacity="1.000000" stroke="none" 
	d="
M279.468658,513.000000 
	C282.588470,512.330872 286.150696,511.407501 289.769684,511.034027 
	C312.642822,508.673157 334.462097,502.352661 355.671265,493.709961 
	C376.951813,485.038177 397.092590,473.914673 414.583832,459.266266 
	C430.618896,445.837280 445.107788,430.393677 459.146393,414.817841 
	C466.537537,406.617371 471.769775,396.391479 477.493164,386.791779 
	C482.372894,378.607208 486.771118,370.113464 490.972595,361.555328 
	C493.321747,356.770294 494.750610,351.541229 496.744415,346.572510 
	C501.966705,333.558014 505.481598,320.079163 508.027802,306.315155 
	C508.376221,304.431732 509.261169,302.647552 509.855621,300.440155 
	C510.634064,293.188202 511.454559,286.313538 512.637573,279.219421 
	C513.000000,356.927032 513.000000,434.854095 513.000000,513.000000 
	C435.312561,513.000000 357.624939,513.000000 279.468658,513.000000 
z"/>
<path fill="#FFFFFF" opacity="1.000000" stroke="none" 
	d="
M234.531342,1.000000 
	C230.876846,1.663249 226.770691,2.468020 222.627655,2.965709 
	C202.699448,5.359621 183.488815,10.436418 164.733353,17.575745 
	C145.148224,25.030880 126.863548,34.836113 109.738937,46.822136 
	C92.337669,59.001804 77.028534,73.463974 62.957943,89.387474 
	C48.158524,106.135765 36.029503,124.593781 26.234591,144.564453 
	C15.365376,166.725510 7.916264,190.072708 4.045493,214.485306 
	C2.991494,221.132767 2.483496,227.866791 1.362457,234.780548 
	C1.000000,157.072952 1.000000,79.145912 1.000000,1.000000 
	C78.687424,1.000000 156.375061,1.000000 234.531342,1.000000 
z"/>
<path fill="#FFFFFF" opacity="1.000000" stroke="none" 
	d="
M513.000000,234.531342 
	C512.336731,230.876846 511.532043,226.770676 511.034302,222.627640 
	C508.640350,202.699432 503.563599,183.488785 496.424255,164.733322 
	C488.969116,145.148209 479.163849,126.863541 467.177856,109.738930 
	C454.998230,92.337616 440.536011,77.028534 424.612549,62.957943 
	C407.864288,48.158516 389.406250,36.029526 369.435577,26.234613 
	C347.274536,15.365409 323.927368,7.916299 299.514771,4.045501 
	C292.867310,2.991496 286.133240,2.483503 279.219482,1.362461 
	C356.927032,1.000000 434.854095,1.000000 513.000000,1.000000 
	C513.000000,78.687424 513.000000,156.375061 513.000000,234.531342 
z"/>
<path fill="#FFFFFF" opacity="1.000000" stroke="none" 
	d="
M1.000000,279.468658 
	C1.663250,283.123169 2.468018,287.229309 2.965714,291.372375 
	C5.359638,311.300537 10.436412,330.511139 17.575735,349.266571 
	C25.030872,368.851685 34.836060,387.136383 46.822079,404.260956 
	C59.001766,421.662201 73.463844,436.971375 89.387360,451.041931 
	C106.135628,465.841370 124.593651,477.970306 144.564285,487.765259 
	C166.725327,498.634521 190.072540,506.083557 214.485092,509.954437 
	C221.132614,511.008484 227.866730,511.516479 234.780548,512.637573 
	C157.072968,513.000000 79.145927,513.000000 1.000000,513.000000 
	C1.000000,435.312561 1.000000,357.624939 1.000000,279.468658 
z"/>
<path fill="#272525" opacity="1.000000" stroke="none" 
	d="
M289.153168,350.993713 
	C289.095612,363.775909 289.042358,376.558136 288.978943,389.340302 
	C288.937378,397.720978 287.448486,399.262756 279.236694,399.261475 
	C263.130920,399.258942 247.025131,399.217560 230.460022,398.651550 
	C229.997147,395.801788 229.993607,393.492645 230.344498,391.087463 
	C232.076431,389.422974 234.788208,387.552551 234.517639,386.357208 
	C234.115356,384.580017 231.604340,383.280151 229.992920,381.409180 
	C229.991898,380.059814 229.988724,379.078430 230.452209,378.043274 
	C247.614532,377.932281 264.310181,377.875092 281.261414,377.807068 
	C281.705597,377.531769 281.894196,377.267303 282.167816,376.540009 
	C282.273804,340.353088 282.240265,304.628784 282.392914,268.905273 
	C282.409729,264.975647 281.235474,263.815277 277.313446,263.849060 
	C261.534271,263.984863 245.752304,263.792480 229.981018,263.280396 
	C229.997253,259.270081 230.003860,255.700684 230.472839,252.053955 
	C237.627884,251.905807 244.320557,251.835037 251.245941,251.784882 
	C251.817398,251.635422 251.925247,251.371124 251.875488,250.548294 
	C251.948776,222.165787 251.948776,194.247589 251.948776,165.930267 
	C249.365356,165.930267 247.393967,165.933655 245.422592,165.929749 
	C216.942383,165.873489 188.462173,165.816254 159.988892,165.327576 
	C160.011673,162.291321 160.027557,159.686752 159.996506,157.037140 
	C159.949570,156.992096 159.921082,156.865143 160.393555,156.909149 
	C191.579880,156.936951 222.293747,156.920761 253.007614,156.904587 
	C255.353317,158.676971 257.699005,160.449356 260.127411,162.901367 
	C260.529541,164.392761 260.848938,165.204544 261.105896,166.480133 
	C261.029114,193.870575 260.999695,220.797226 261.044891,247.723740 
	C261.047150,249.067520 261.696716,250.410217 262.488525,251.822678 
	C265.630920,251.858780 268.329712,251.825607 271.239807,251.859268 
	C271.451172,251.926086 271.894592,251.903824 272.353180,251.924850 
	C275.264282,251.936386 277.716827,251.926895 280.568420,251.923508 
	C287.416626,252.395782 288.959686,254.012146 288.973114,260.520111 
	C289.015350,280.975189 289.028442,301.430359 289.039490,322.329529 
	C289.032013,324.550659 289.037903,326.327789 289.014832,328.566101 
	C289.041656,336.349457 289.097412,343.671570 289.153168,350.993713 
z"/>
<path fill="#D0D1D3" opacity="1.000000" stroke="none" 
	d="
M128.978058,299.138428 
	C107.631798,299.090088 86.285538,299.041748 64.471428,298.966309 
	C58.855412,295.584351 57.490997,290.766602 57.852036,284.835022 
	C58.254803,278.217896 57.969231,271.558838 58.269722,264.437500 
	C58.556187,263.957001 59.000233,263.786743 59.465405,263.846558 
	C76.036469,263.914368 92.142441,263.893829 108.248238,263.938141 
	C125.509506,263.985596 142.770599,264.094055 160.018356,264.591370 
	C159.997467,266.947937 159.989975,268.889099 159.627563,270.927551 
	C155.026047,272.286499 151.422913,274.393951 152.202148,279.499756 
	C152.827072,283.594513 155.562500,286.088196 159.975616,286.684326 
	C159.972992,291.001526 159.966888,294.872437 159.500259,298.818878 
	C149.019180,298.975769 138.998611,299.057098 128.978058,299.138428 
z"/>
<path fill="#272525" opacity="1.000000" stroke="none" 
	d="
M442.571716,233.947876 
	C442.983551,253.465103 443.132996,272.785614 443.210083,292.106384 
	C443.255951,303.601227 443.188049,315.096558 442.657349,326.997314 
	C418.500244,327.402985 394.857056,327.402985 371.145538,327.402985 
	C371.145538,335.421753 371.145538,342.709625 371.094940,350.243652 
	C371.078247,350.653931 371.112122,350.817993 371.145996,350.982056 
	C371.087830,364.434875 371.028046,377.887726 370.972198,391.340546 
	C370.943115,398.351562 370.146698,399.232422 363.347656,399.255035 
	C355.873230,399.279938 348.398468,399.201935 340.464020,398.649811 
	C340.013580,396.477020 340.022949,394.823181 340.406311,393.101593 
	C341.832275,391.809387 343.962677,390.229950 343.701843,389.437683 
	C343.223969,387.986053 341.334534,386.999084 340.026367,385.487488 
	C340.021545,384.494843 340.024078,383.833008 340.489594,383.109253 
	C349.192169,383.047333 357.431763,383.047333 365.654572,383.047333 
	C365.654572,353.632660 365.654572,325.098938 365.654572,295.875275 
	C356.874695,295.875275 348.432434,295.875275 339.993347,295.445007 
	C340.004852,292.450958 340.013153,289.887115 340.476135,287.213928 
	C346.278229,287.024017 351.625641,286.943481 357.425781,286.934021 
	C358.711639,287.016785 359.547485,287.078430 360.377411,287.032532 
	C369.898254,286.506561 371.345551,288.132507 371.023499,297.717285 
	C370.762695,305.479004 370.970581,313.256470 370.970581,320.888428 
	C392.940613,320.888428 414.166931,320.888428 435.708679,320.888428 
	C435.708679,292.649841 435.708679,264.851410 435.749512,236.801514 
	C435.519806,236.390015 435.249237,236.230026 434.518677,235.980621 
	C408.359344,235.951523 382.659943,236.011826 356.975647,235.978424 
	C356.990723,235.884705 357.078247,235.716278 357.061707,235.286621 
	C357.001953,232.833130 356.958771,230.809296 356.915588,228.785461 
	C358.038391,228.602905 359.161011,228.262451 360.284058,228.261017 
	C384.039764,228.230591 407.795624,228.195724 431.551086,228.277176 
	C435.925720,228.292175 440.218750,228.964035 442.571716,233.947876 
z"/>
<path fill="#353131" opacity="1.000000" stroke="none" 
	d="
M160.031769,264.175903 
	C142.770599,264.094055 125.509506,263.985596 108.248238,263.938141 
	C92.142441,263.893829 76.036469,263.914368 59.347694,263.678040 
	C58.577663,263.244507 58.359737,263.080139 58.111038,262.956573 
	C58.111038,262.956573 57.965809,263.000122 57.962376,262.552429 
	C57.911533,230.072266 57.864124,198.039810 57.816715,166.007339 
	C57.847260,160.968231 60.827816,158.374512 66.108749,156.993820 
	C97.971725,157.017792 129.007584,157.049973 160.043442,157.082169 
	C160.027557,159.686752 160.011673,162.291321 160.000763,165.425049 
	C160.005722,165.954208 160.025604,166.149704 159.560791,166.079498 
	C128.731277,166.054321 98.366592,166.099319 67.757416,166.147339 
	C67.166878,166.344528 67.067093,166.626007 67.157913,167.460724 
	C67.102264,197.118683 67.102264,226.310745 67.102264,255.745667 
	C98.573654,255.745667 129.310883,255.745667 160.039780,255.843536 
	C160.031464,255.941391 159.985779,256.132446 159.986877,256.555420 
	C159.972244,259.227936 159.956497,261.477478 159.922501,263.847534 
	C159.904251,263.968079 160.031769,264.175903 160.031769,264.175903 
z"/>
<path fill="#02B2B2" opacity="1.000000" stroke="none" 
	d="
M271.028473,251.792450 
	C268.329712,251.825607 265.630920,251.858780 262.479614,251.371323 
	C262.018463,224.501358 262.027222,198.151947 261.965393,171.802734 
	C261.960876,169.873322 261.445984,167.945099 261.168365,166.016327 
	C260.848938,165.204544 260.529541,164.392761 260.200195,163.247162 
	C261.415222,163.705460 262.826935,164.310181 263.837646,165.317337 
	C284.070618,185.479263 304.259338,205.685577 324.443146,225.896805 
	C325.019867,226.474319 325.444214,227.203979 325.526550,228.234863 
	C310.954529,228.636154 296.794830,228.589844 282.636871,228.726501 
	C275.659882,228.793823 272.166595,232.502121 272.006104,239.552841 
	C271.919037,243.380219 271.882080,247.208755 271.666077,251.135727 
	C271.310425,251.387131 271.150055,251.573059 271.028473,251.792450 
z"/>
<path fill="#353131" opacity="1.000000" stroke="none" 
	d="
M271.822540,251.036758 
	C271.882080,247.208755 271.919037,243.380219 272.006104,239.552841 
	C272.166595,232.502121 275.659882,228.793823 282.636871,228.726501 
	C296.794830,228.589844 310.954529,228.636154 325.581543,228.549225 
	C336.031128,228.553497 346.012756,228.615555 356.454956,228.731537 
	C356.958771,230.809296 357.001953,232.833130 356.594910,235.372772 
	C330.892395,235.888565 305.640106,235.888565 280.169342,235.888565 
	C280.169342,241.664124 280.169342,246.790756 280.169342,251.917404 
	C277.716827,251.926895 275.264282,251.936386 272.361511,251.706116 
	C271.911224,251.466339 271.822540,251.036758 271.822540,251.036758 
z"/>
<path fill="#48B4C3" opacity="1.000000" stroke="none" 
	d="
M57.599022,166.355957 
	C57.864124,198.039810 57.911533,230.072266 57.888840,262.570831 
	C57.545986,261.600250 57.037460,260.163940 57.035259,258.726837 
	C56.989704,229.032364 56.998112,199.337814 57.018288,169.643280 
	C57.018951,168.663620 57.254997,167.684143 57.599022,166.355957 
z"/>
<path fill="#569EA8" opacity="1.000000" stroke="none" 
	d="
M159.996506,157.037140 
	C129.007584,157.049973 97.971725,157.017792 66.471893,156.930756 
	C67.605804,156.583923 69.203384,156.039307 70.801636,156.037338 
	C100.241890,156.001205 129.682220,156.029984 159.556320,156.266052 
	C159.990112,156.487045 159.921082,156.865143 159.921082,156.865143 
	C159.921082,156.865143 159.949570,156.992096 159.996506,157.037140 
z"/>
<path fill="#53787D" opacity="1.000000" stroke="none" 
	d="
M160.393555,156.909149 
	C159.921082,156.865143 159.990112,156.487045 160.028046,156.299042 
	C190.011810,156.075851 219.957626,156.037460 249.903473,156.022583 
	C250.716476,156.022186 251.529602,156.275467 252.675140,156.657516 
	C222.293747,156.920761 191.579880,156.936951 160.393555,156.909149 
z"/>
<path fill="#484445" opacity="1.000000" stroke="none" 
	d="
M58.056641,263.211853 
	C58.359737,263.080139 58.577663,263.244507 58.882523,263.618225 
	C59.000233,263.786743 58.556187,263.957001 58.319057,263.970032 
	C58.055370,263.811066 58.028809,263.639069 58.056641,263.211853 
z"/>
<path fill="#353131" opacity="1.000000" stroke="none" 
	d="
M230.010468,252.131302 
	C230.003860,255.700684 229.997253,259.270081 229.982422,263.391693 
	C229.974197,263.943939 230.027832,264.159943 229.561935,264.090057 
	C212.205704,264.020172 195.315369,264.020172 178.434937,264.020172 
	C178.434937,302.285889 178.434937,339.683044 178.434937,377.573547 
	C195.840500,377.573547 212.941254,377.573547 230.021240,377.703735 
	C230.000458,377.833893 229.985550,378.097076 229.985550,378.097076 
	C229.988724,379.078430 229.991898,380.059814 229.979141,381.525024 
	C229.963211,382.008881 229.973129,382.241974 229.618652,382.240662 
	C228.187546,383.836029 226.328247,385.416534 226.294861,387.034698 
	C226.270432,388.217896 228.647430,389.450684 229.954910,390.792450 
	C229.955811,390.923553 229.990067,391.183533 229.990067,391.183533 
	C229.993607,393.492645 229.997147,395.801788 230.001572,398.544922 
	C213.025375,399.025757 196.048203,399.121277 179.071243,399.092499 
	C173.282455,399.082703 171.827789,397.537628 171.797653,391.504395 
	C171.718658,375.690765 171.745926,359.876587 171.740921,343.375793 
	C171.684265,342.353119 171.491241,342.123474 171.105408,341.537323 
	C171.026093,336.049805 171.013260,331.024902 171.253357,325.672852 
	C171.582062,316.459045 171.657867,307.572327 171.743195,298.237244 
	C171.806580,286.626312 171.860428,275.463806 171.934006,263.833832 
	C171.960892,260.893494 171.968063,258.420624 172.124451,255.611511 
	C174.287506,254.177429 176.290268,252.151688 178.316879,252.127563 
	C195.545624,251.922470 212.778687,252.081451 230.010468,252.131302 
z"/>
<path fill="#D0D1D3" opacity="1.000000" stroke="none" 
	d="
M371.145538,349.997498 
	C371.145538,342.709625 371.145538,335.421753 371.145538,327.402985 
	C394.857056,327.402985 418.500244,327.402985 442.606842,327.501587 
	C446.388184,328.212860 450.032379,328.158478 452.951416,329.586456 
	C457.967438,332.040314 459.445831,336.285431 458.212769,341.434845 
	C456.969971,346.624969 453.190216,349.931519 447.656067,350.014191 
	C436.203461,350.185211 424.747070,350.108063 413.292236,350.122864 
	C399.844879,350.140198 386.397522,350.146759 372.275269,350.111938 
	C371.600372,350.065887 371.145538,349.997498 371.145538,349.997498 
z"/>
<path fill="#353131" opacity="1.000000" stroke="none" 
	d="
M340.032349,393.169342 
	C340.022949,394.823181 340.013580,396.477020 340.005615,398.544250 
	C332.685486,399.013336 325.363922,399.105713 318.042297,399.114319 
	C310.966370,399.122620 310.697723,398.854736 310.656342,391.902435 
	C310.574127,378.088989 310.532166,364.275330 310.258301,349.630554 
	C310.043030,341.924347 310.043030,335.049377 310.043030,328.104889 
	C302.577423,328.104889 295.810608,328.104889 289.043762,328.104889 
	C289.037903,326.327789 289.032013,324.550659 289.502380,322.376892 
	C296.598450,321.980255 303.218323,321.980255 310.205475,321.980255 
	C310.350830,319.750671 310.558838,317.961578 310.568329,316.171387 
	C310.608856,308.519928 310.614777,300.868042 310.584320,293.216492 
	C310.568176,289.157410 312.276520,287.046600 316.577087,287.135071 
	C324.389862,287.295776 332.206451,287.270782 340.021454,287.323303 
	C340.013153,289.887115 340.004852,292.450958 339.989380,295.576782 
	C339.982208,296.138794 340.037384,296.396576 339.568359,296.353180 
	C333.104218,296.311554 327.089539,296.611725 321.120087,296.221039 
	C316.315094,295.906525 315.315826,297.860321 315.345856,302.251404 
	C315.517944,327.397766 315.424164,352.545898 315.441742,377.693451 
	C315.442871,379.321381 315.620270,380.949188 315.730957,382.837189 
	C323.744965,382.837189 331.373230,382.837189 339.257965,382.920105 
	C339.685150,383.059052 339.855865,383.115143 340.026611,383.171204 
	C340.024078,383.833008 340.021545,384.494843 339.755188,385.721619 
	C337.520752,388.749908 337.772552,391.038544 340.032349,393.169342 
z"/>
<path fill="#808183" opacity="1.000000" stroke="none" 
	d="
M128.823380,299.464508 
	C138.998611,299.057098 149.019180,298.975769 159.517776,298.936859 
	C159.995819,298.979279 160.026428,299.215607 160.013702,299.668335 
	C160.006241,308.688019 160.011490,317.254913 159.997421,325.958740 
	C159.978088,326.095612 159.932755,326.368378 159.472992,326.304810 
	C145.991684,326.123810 132.970154,326.006348 119.948608,325.888885 
	C122.855309,317.189453 125.762009,308.490021 128.823380,299.464508 
z"/>
<path fill="#CFD1D3" opacity="1.000000" stroke="none" 
	d="
M119.598389,326.070618 
	C132.970154,326.006348 145.991684,326.123810 159.482697,326.744171 
	C159.948273,332.272827 159.944382,337.298584 159.940506,342.324341 
	C145.521179,342.265717 131.101700,342.147095 116.682655,342.187012 
	C112.655006,342.198151 110.142250,339.732910 109.480652,336.605560 
	C108.955025,334.121002 109.863991,330.448608 111.559898,328.635223 
	C113.151833,326.933044 116.610756,326.976868 119.598389,326.070618 
z"/>
<path fill="#FFFFFF" opacity="1.000000" stroke="none" 
	d="
M289.014832,328.566101 
	C295.810608,328.104889 302.577423,328.104889 310.043030,328.104889 
	C310.043030,335.049377 310.043030,341.924347 310.096283,349.233398 
	C306.619049,350.111481 303.099182,350.708618 299.554932,350.953796 
	C296.406921,351.171539 293.231903,350.998718 289.610962,350.996033 
	C289.097412,343.671570 289.041656,336.349457 289.014832,328.566101 
z"/>
<path fill="#A6A8AA" opacity="1.000000" stroke="none" 
	d="
M160.269196,342.564514 
	C159.944382,337.298584 159.948273,332.272827 159.942459,326.807739 
	C159.932755,326.368378 159.978088,326.095612 160.450974,326.019226 
	C164.282715,325.961914 167.641586,325.980957 171.000443,326.000000 
	C171.013260,331.024902 171.026093,336.049805 171.028107,341.782715 
	C170.968933,342.655334 170.920532,342.819946 170.872147,342.984589 
	C167.447388,342.924591 164.022644,342.864624 160.269196,342.564514 
z"/>
<path fill="#118484" opacity="1.000000" stroke="none" 
	d="
M171.066483,343.039124 
	C170.920532,342.819946 170.968933,342.655334 171.094620,342.245331 
	C171.491241,342.123474 171.684265,342.353119 171.705963,342.918274 
	C171.660904,343.147614 171.260818,343.093689 171.066483,343.039124 
z"/>
<path fill="#2CBCBC" opacity="1.000000" stroke="none" 
	d="
M371.094940,350.243652 
	C371.145538,349.997498 371.600372,350.065887 371.810333,350.159851 
	C371.895782,350.487854 371.719635,350.672638 371.318909,350.895142 
	C371.112122,350.817993 371.078247,350.653931 371.094940,350.243652 
z"/>
<path fill="#FF314F" opacity="1.000000" stroke="none" 
	d="
M230.472839,252.053955 
	C212.778687,252.081451 195.545624,251.922470 178.316879,252.127563 
	C176.290268,252.151688 174.287506,254.177429 171.665588,255.627640 
	C167.366928,256.030823 163.676346,256.081635 159.985779,256.132446 
	C159.985779,256.132446 160.031464,255.941391 160.025772,255.391937 
	C160.021927,225.278229 160.023758,195.713974 160.025604,166.149704 
	C160.025604,166.149704 160.005722,165.954208 159.993835,165.856720 
	C188.462173,165.816254 216.942383,165.873489 245.422592,165.929749 
	C247.393967,165.933655 249.365356,165.930267 251.948776,165.930267 
	C251.948776,194.247589 251.948776,222.165787 251.720291,250.647125 
	C251.294525,251.362305 251.134995,251.546951 251.013229,251.764252 
	C244.320557,251.835037 237.627884,251.905807 230.472839,252.053955 
z"/>
<path fill="#6CAF5F" opacity="1.000000" stroke="none" 
	d="
M281.005829,377.817902 
	C264.310181,377.875092 247.614532,377.932281 230.452209,378.043274 
	C229.985550,378.097076 230.000458,377.833893 230.001068,377.265381 
	C230.010391,339.184540 230.019119,301.672241 230.027832,264.159943 
	C230.027832,264.159943 229.974197,263.943939 229.972778,263.832642 
	C245.752304,263.792480 261.534271,263.984863 277.313446,263.849060 
	C281.235474,263.815277 282.409729,264.975647 282.392914,268.905273 
	C282.240265,304.628784 282.273804,340.353088 281.960632,376.637207 
	C281.407715,377.361633 281.186890,377.568542 281.005829,377.817902 
z"/>
<path fill="#FFC61B" opacity="1.000000" stroke="none" 
	d="
M340.476135,287.213928 
	C332.206451,287.270782 324.389862,287.295776 316.577087,287.135071 
	C312.276520,287.046600 310.568176,289.157410 310.584320,293.216492 
	C310.614777,300.868042 310.608856,308.519928 310.568329,316.171387 
	C310.558838,317.961578 310.350830,319.750671 310.205475,321.980255 
	C303.218323,321.980255 296.598450,321.980255 289.515717,321.932861 
	C289.028442,301.430359 289.015350,280.975189 288.973114,260.520111 
	C288.959686,254.012146 287.416626,252.395782 280.568420,251.923508 
	C280.169342,246.790756 280.169342,241.664124 280.169342,235.888565 
	C305.640106,235.888565 330.892395,235.888565 356.611450,235.802429 
	C357.078247,235.716278 356.990723,235.884705 356.986420,236.442200 
	C356.979065,253.620773 356.976044,270.241852 356.973022,286.862915 
	C351.625641,286.943481 346.278229,287.024017 340.476135,287.213928 
z"/>
<path fill="#19A3A3" opacity="1.000000" stroke="none" 
	d="
M261.105896,166.480133 
	C261.445984,167.945099 261.960876,169.873322 261.965393,171.802734 
	C262.027222,198.151947 262.018463,224.501358 262.035980,251.302063 
	C261.696716,250.410217 261.047150,249.067520 261.044891,247.723740 
	C260.999695,220.797226 261.029114,193.870575 261.105896,166.480133 
z"/>
<path fill="#59595B" opacity="1.000000" stroke="none" 
	d="
M229.976990,381.893005 
	C231.604340,383.280151 234.115356,384.580017 234.517639,386.357208 
	C234.788208,387.552551 232.076431,389.422974 230.344498,391.087463 
	C229.990067,391.183533 229.955811,390.923553 229.960663,390.376770 
	C229.968063,387.300659 229.970596,384.771332 229.973129,382.241974 
	C229.973129,382.241974 229.963211,382.008881 229.976990,381.893005 
z"/>
<path fill="#19A3A3" opacity="1.000000" stroke="none" 
	d="
M271.666077,251.135727 
	C271.822540,251.036758 271.911224,251.466339 271.902893,251.685089 
	C271.894592,251.903824 271.451172,251.926086 271.239807,251.859268 
	C271.150055,251.573059 271.310425,251.387131 271.666077,251.135727 
z"/>
<path fill="#EE314C" opacity="1.000000" stroke="none" 
	d="
M251.245941,251.784882 
	C251.134995,251.546951 251.294525,251.362305 251.647003,251.111450 
	C251.925247,251.371124 251.817398,251.635422 251.245941,251.784882 
z"/>
<path fill="#68925E" opacity="1.000000" stroke="none" 
	d="
M281.261414,377.807068 
	C281.186890,377.568542 281.407715,377.361633 281.875549,377.100037 
	C281.894196,377.267303 281.705597,377.531769 281.261414,377.807068 
z"/>
<path fill="#A6A8AA" opacity="1.000000" stroke="none" 
	d="
M171.914291,264.301300 
	C171.860428,275.463806 171.806580,286.626312 171.307999,298.317993 
	C167.250992,298.970001 163.638718,299.092804 160.026428,299.215607 
	C160.026428,299.215607 159.995819,298.979279 159.978302,298.861298 
	C159.966888,294.872437 159.972992,291.001526 159.989502,286.561066 
	C159.999908,285.991486 160.028870,285.745117 160.382904,285.787964 
	C164.718445,284.737488 167.198822,282.212433 166.807480,278.008026 
	C166.453217,274.201843 164.239670,271.648987 160.044250,271.281189 
	C160.021744,271.131134 159.982483,270.830231 159.982483,270.830231 
	C159.989975,268.889099 159.997467,266.947937 160.018356,264.591370 
	C160.031769,264.175903 159.904251,263.968079 160.375320,263.954956 
	C164.535690,264.061676 168.224991,264.181488 171.914291,264.301300 
z"/>
<path fill="#808183" opacity="1.000000" stroke="none" 
	d="
M159.986023,286.114746 
	C155.562500,286.088196 152.827072,283.594513 152.202148,279.499756 
	C151.422913,274.393951 155.026047,272.286499 159.627563,270.927551 
	C159.982483,270.830231 160.021744,271.131134 160.024872,271.711670 
	C160.028305,276.776520 160.028595,281.260834 160.028870,285.745117 
	C160.028870,285.745117 159.999908,285.991486 159.986023,286.114746 
z"/>
<path fill="#EAA22F" opacity="1.000000" stroke="none" 
	d="
M357.425781,286.933990 
	C356.976044,270.241852 356.979065,253.620773 356.971344,236.535919 
	C382.659943,236.011826 408.359344,235.951523 434.596924,236.174683 
	C435.263153,236.717316 435.454346,236.915604 435.708679,237.052994 
	C435.708679,264.851410 435.708679,292.649841 435.708679,320.888428 
	C414.166931,320.888428 392.940613,320.888428 370.970581,320.888428 
	C370.970581,313.256470 370.762695,305.479004 371.023499,297.717285 
	C371.345551,288.132507 369.898254,286.506561 360.377411,287.032532 
	C359.547485,287.078430 358.711639,287.016785 357.425781,286.933990 
z"/>
<path fill="#D35933" opacity="1.000000" stroke="none" 
	d="
M340.489594,383.109253 
	C339.855865,383.115143 339.685150,383.059052 339.446106,382.557983 
	C339.600891,380.154114 340.015350,378.195587 340.018280,376.236450 
	C340.057983,349.623199 340.040649,323.009888 340.037384,296.396576 
	C340.037384,296.396576 339.982208,296.138794 339.986206,296.007019 
	C348.432434,295.875275 356.874695,295.875275 365.654572,295.875275 
	C365.654572,325.098938 365.654572,353.632660 365.654572,383.047333 
	C357.431763,383.047333 349.192169,383.047333 340.489594,383.109253 
z"/>
<path fill="#5C5C5E" opacity="1.000000" stroke="none" 
	d="
M340.406311,393.101593 
	C337.772552,391.038544 337.520752,388.749908 339.762512,386.052490 
	C341.334534,386.999084 343.223969,387.986053 343.701843,389.437683 
	C343.962677,390.229950 341.832275,391.809387 340.406311,393.101593 
z"/>
<path fill="#B28427" opacity="1.000000" stroke="none" 
	d="
M435.749512,236.801514 
	C435.454346,236.915604 435.263153,236.717316 435.056885,236.264084 
	C435.249237,236.230026 435.519806,236.390015 435.749512,236.801514 
z"/>
<path fill="#FF6262" opacity="1.000000" stroke="none" 
	d="
M159.560791,166.079498 
	C160.023758,195.713974 160.021927,225.278229 160.034088,255.294083 
	C129.310883,255.745667 98.573654,255.745667 67.102264,255.745667 
	C67.102264,226.310745 67.102264,197.118683 67.315895,167.345383 
	C67.724098,166.585815 67.881554,166.379211 68.001900,166.144333 
	C98.366592,166.099319 128.731277,166.054321 159.560791,166.079498 
z"/>
<path fill="#272525" opacity="1.000000" stroke="none" 
	d="
M171.934006,263.833832 
	C168.224991,264.181488 164.535690,264.061676 160.393570,263.834412 
	C159.956497,261.477478 159.972244,259.227936 159.986877,256.555420 
	C163.676346,256.081635 167.366928,256.030823 171.516357,255.963867 
	C171.968063,258.420624 171.960892,260.893494 171.934006,263.833832 
z"/>
<path fill="#E65C5C" opacity="1.000000" stroke="none" 
	d="
M67.757416,166.147339 
	C67.881554,166.379211 67.724098,166.585815 67.371552,166.879486 
	C67.067093,166.626007 67.166878,166.344528 67.757416,166.147339 
z"/>
<path fill="#8BC180" opacity="1.000000" stroke="none" 
	d="
M229.561935,264.090057 
	C230.019119,301.672241 230.010391,339.184540 230.021835,377.135193 
	C212.941254,377.573547 195.840500,377.573547 178.434937,377.573547 
	C178.434937,339.683044 178.434937,302.285889 178.434937,264.020172 
	C195.315369,264.020172 212.205704,264.020172 229.561935,264.090057 
z"/>
<path fill="#59595B" opacity="1.000000" stroke="none" 
	d="
M160.013702,299.668335 
	C163.638718,299.092804 167.250992,298.970001 171.298477,298.766418 
	C171.657867,307.572327 171.582062,316.459045 171.253357,325.672852 
	C167.641586,325.980957 164.282715,325.961914 160.470306,325.882324 
	C160.011490,317.254913 160.006241,308.688019 160.013702,299.668335 
z"/>
<path fill="#808183" opacity="1.000000" stroke="none" 
	d="
M229.618652,382.240662 
	C229.970596,384.771332 229.968063,387.300659 229.959778,390.245667 
	C228.647430,389.450684 226.270432,388.217896 226.294861,387.034698 
	C226.328247,385.416534 228.187546,383.836029 229.618652,382.240662 
z"/>
<path fill="#FF7F4F" opacity="1.000000" stroke="none" 
	d="
M339.568359,296.353180 
	C340.040649,323.009888 340.057983,349.623199 340.018280,376.236450 
	C340.015350,378.195587 339.600891,380.154114 339.189636,382.475067 
	C331.373230,382.837189 323.744965,382.837189 315.730957,382.837189 
	C315.620270,380.949188 315.442871,379.321381 315.441742,377.693451 
	C315.424164,352.545898 315.517944,327.397766 315.345856,302.251404 
	C315.315826,297.860321 316.315094,295.906525 321.120087,296.221039 
	C327.089539,296.611725 333.104218,296.311554 339.568359,296.353180 
z"/>
<path fill="#5C5C5E" opacity="1.000000" stroke="none" 
	d="
M160.382904,285.787964 
	C160.028595,281.260834 160.028305,276.776520 160.047379,271.861725 
	C164.239670,271.648987 166.453217,274.201843 166.807480,278.008026 
	C167.198822,282.212433 164.718445,284.737488 160.382904,285.787964 
z"/>
</svg>