<svg width="512" height="512" xmlns="http://www.w3.org/2000/svg" xml:space="preserve" enable-background="new 0 0 512 512" version="1.1">

 <g>
  <title>Layer 1</title>
  <path id="svg_1" d="m225,1c21.02089,0 42.04178,0 63.39862,0.41221c0.68591,0.7401 0.99146,1.28156 1.39233,1.36496c13.2811,2.76292 26.7129,4.93566 39.82764,8.33338c20.55737,5.32595 40.06525,13.62051 57.89923,25.13506c12.92664,8.34614 25.70407,17.22577 37.21765,27.37649c12.48368,11.00597 24.31989,23.03375 34.81189,35.93839c13.01462,16.00732 23.46155,33.83306 31.775,52.91888c9.81369,22.53003 16.81503,45.71735 19.75866,70.12674c0.10401,0.86256 1.25565,1.59878 1.91898,2.39389c0,4.68926 0,9.37851 -0.2973,14.38341c-1.75287,-1.05068 -3.2471,-2.37833 -4.65833,-3.78899c-35.58691,-35.57266 -71.15722,-71.16194 -106.77255,-106.70611c-1.4855,-1.48253 -3.37726,-2.55793 -5.1868,-4.15809c-0.20294,-0.54884 -0.29889,-0.76257 -0.5289,-1.20794c-0.94543,-0.59841 -1.75683,-0.96517 -2.87515,-1.49958c-15.51813,-9.67281 -30.69272,-19.23716 -45.94873,-28.66974c-25.04593,-15.48554 -50.12772,-30.91329 -75.23975,-46.29129c-3.69613,-2.26343 -7.6416,-4.11975 -11.47314,-6.12602c-0.00147,0.03841 0.07541,0.03961 0.15954,-0.26109c-0.31362,-0.37467 -0.71136,-0.44863 -1.3865,-0.64063c-0.79352,-0.36795 -1.30963,-0.61786 -2.11011,-0.92971c-0.77768,0.16362 -1.27098,0.38916 -2.08343,0.73676c-0.7968,0.76678 -1.27442,1.41149 -1.72571,2.00925c0.02633,-0.04695 -0.06868,-0.09758 -0.42105,-0.22656c-10.4054,5.90573 -20.51682,11.84561 -30.50086,17.99239c-34.33772,21.14041 -68.6309,42.35319 -103.33011,63.64074c-0.7709,0.62436 -1.42348,1.11202 -1.49475,1.67346c-1.50614,11.86532 1.46659,21.92269 12.0663,29.15385c0.7677,0.45382 1.33219,0.67178 1.86125,0.88623c-0.0354,-0.00351 -0.02479,-0.07387 -0.00439,0.27777c0.41539,1.06758 0.66962,1.92499 1.22604,2.47871c13.16755,13.10347 26.36763,26.17426 39.61689,39.718c0.01895,32.80028 -0.01722,65.13358 -0.50925,97.49537c-3.76881,0.0389 -7.08176,0.04156 -10.39461,0.06143c-6.90259,0.04135 -9.98556,2.98782 -10.0076,9.80047c-0.05412,16.73001 -0.03344,33.46024 -0.42445,50.36118c-6.95383,0.39191 -13.52588,0.77441 -20.09831,0.78137c-4.96192,0.00525 -7.84477,2.73035 -9.17419,6.91654c-2.41804,7.6141 -0.07052,13.30566 6.81002,18.07705c11.33772,11.72586 22.57132,23.09415 33.7475,34.51862c2.54722,2.60379 4.89618,5.40155 6.86485,8.20172c-26.42516,0.11703 -52.37884,0.12073 -78.33242,0.17941c-9.14254,0.02069 -18.28478,0.17594 -27.73313,0.12268c-3.01852,-3.24255 -5.95899,-6.16876 -8.40547,-9.46191c-12.82167,-17.25906 -24.14907,-35.38525 -32.63984,-55.24643c-9.25342,-21.64511 -15.59702,-44.03064 -18.6665,-67.36588c-0.13534,-1.02893 -1.26341,-1.92727 -1.92906,-2.88644c0,-21.35422 0,-42.70845 0.40733,-64.39269c1.12659,-3.27816 2.09174,-6.19059 2.52625,-9.18014c3.51295,-24.17015 11.03976,-47.12213 21.4482,-69.10443c8.52283,-17.99996 18.54615,-35.28 32.02972,-49.9966c13.26045,-14.47307 26.75459,-28.98578 41.77946,-41.52389c18.52469,-15.45869 39.65183,-27.25522 62.32425,-36.02772c19.7654,-7.64771 39.95971,-13.47849 61.08182,-15.85699c0.86205,-0.09707 1.60469,-1.25426 2.40297,-1.91754z" fill="#95239B"/>
  <path id="svg_2" d="m396.19205,125.06532c1.70251,1.26506 3.59427,2.34046 5.07977,3.82299c35.61533,35.54417 71.18564,71.13345 106.77255,106.70611c1.41123,1.41066 2.90546,2.73831 4.65833,4.2551c0.2973,16.17139 0.2973,32.19226 -0.112,48.66949c-0.78131,1.13068 -1.36362,1.76712 -1.49314,2.4852c-1.57159,8.71347 -2.69705,17.52582 -4.66949,26.14517c-6.03192,26.35855 -16.13565,51.18589 -30.60892,73.97763c-7.36425,11.59687 -16.44327,22.1048 -25.03473,32.91672c-0.73645,-0.27423 -1.18527,-0.3602 -2.0166,-0.61886c-2.53873,-0.25675 -4.69479,-0.41077 -6.85113,-0.41437c-33.26752,-0.05542 -66.5351,-0.09128 -99.84351,-0.59012c0.00278,-14.15543 0.04636,-27.85245 0.54822,-41.56229c13.27127,-0.01721 26.0849,0.04798 38.89718,-0.05426c6.76484,-0.05398 10.38923,-3.18658 11.4307,-9.43295c1.74512,-10.46655 -2.39233,-15.36829 -12.96417,-15.37308c-5.65759,-0.00256 -11.31522,-0.02154 -17.00223,-0.49878c-0.00006,-16.89721 0.03021,-33.32873 0.05817,-49.76022c0.01053,-6.19043 -3.73337,-11.82285 -10.92936,-10.81995c-3.2525,0.45331 -6.62689,0.03189 -10.00067,-0.45306c-0.05496,-46.42305 -0.05523,-92.38577 0.40641,-138.40726c11.11349,-0.06918 21.76651,-0.19458 32.41622,-0.05963c12.08558,0.15315 22.33258,-11.1976 21.13254,-21.46718c-0.36322,-3.10812 0.06186,-6.30836 0.12586,-9.4664z" fill="#6B1472"/>
  <path id="svg_7" d="m225.46866,513c-1.08891,-0.66363 -1.65163,-1.84015 -2.33771,-1.91711c-30.66981,-3.44166 -59.4229,-13.09949 -86.59204,-27.38916c-16.39698,-8.62406 -31.98358,-18.71998 -45.61243,-31.39695c-9.53566,-8.86962 -18.49608,-18.35772 -27.84652,-27.87936c9.00926,-0.4035 18.1515,-0.55875 27.29404,-0.57944c25.95358,-0.05868 51.90726,-0.06238 78.64898,-0.09518c1.45126,0.01187 2.11446,0.03122 3.08108,0.10205c0.50878,0.05963 0.71416,0.06781 1.38291,0.09692c5.44638,-0.319 10.4294,-0.65896 15.56747,-0.81534c0.36936,0.42997 0.63118,0.60529 1.40723,0.75779c14.95268,0.07071 29.43875,0.12396 43.92445,0.0719c1.5876,-0.00571 3.17304,-0.61637 5.21787,-0.92627c6.0509,0.05734 11.6434,0.09445 17.30913,0.35699c0.07321,0.22537 0.24377,0.66757 0.19488,1.13049c-0.0686,29.80283 -0.08832,59.14277 -0.108,88.48267c-10.35423,0 -20.70845,0 -31.53134,0m-31.96887,-37.14179c5.32898,-0.00115 10.66114,-0.11352 15.98571,0.0391c3.09601,0.08877 4.57701,-0.81586 4.49179,-4.215c-0.17942,-7.15628 -0.15956,-14.32248 -0.00708,-21.48004c0.06846,-3.21377 -1.07835,-4.41251 -4.34022,-4.38751c-14.82034,0.11365 -29.64261,0.11917 -44.46283,-0.0018c-3.37457,-0.02756 -4.27568,1.38403 -4.21039,4.49011c0.14698,6.99118 0.18694,13.9917 -0.01628,20.98013c-0.10081,3.46717 1.0884,4.7009 4.5826,4.63172c8.9891,-0.17798 17.98411,-0.05805 27.9767,-0.05671z" fill="#65E1BA"/>
  <path id="svg_8" d="m257.46866,513c-0.44898,-29.3399 -0.42926,-58.67984 0.09265,-88.50079c5.85693,-0.75403 11.2117,-1.02698 16.90012,-1.07111c16.7276,0.26587 33.12152,0.30292 49.74633,0.37167c0.23093,0.03171 0.6969,0.01786 1.16361,0.07145c5.23218,-0.21274 9.99768,-0.47907 14.93075,-0.54309c0.67685,0.27886 1.18607,0.35543 2.15854,0.50781c34.72135,0.1026 68.9794,0.1333 103.23749,0.13952c1.1507,0.00019 2.30145,-0.24637 3.45218,-0.3779c0.44882,0.08597 0.89764,0.17194 1.63409,0.44617c-6.88903,7.77692 -13.71844,15.73517 -21.31784,22.87375c-13.8555,13.0152 -29.37585,23.82321 -45.87683,33.31512c-16.03207,9.22217 -32.75329,16.86853 -50.55072,21.68177c-13.93841,3.76956 -28.26068,6.11764 -42.40225,9.14459c-0.72662,0.15552 -1.3577,0.75751 -1.83502,1.54633c-10.15598,0.39471 -20.51023,0.39471 -31.3331,0.39471m28.21677,-34.95853c20.99996,-0.00033 42.00002,-0.03174 62.99981,0.03205c3.20731,0.00973 5.50281,-0.29505 5.37378,-4.46298c-0.22165,-7.1598 -0.13791,-14.33253 -0.02908,-21.49747c0.04617,-3.03913 -1.25482,-4.10398 -4.19315,-4.09638c-21.83313,0.05643 -43.66662,0.06909 -65.4996,-0.01312c-3.28885,-0.01239 -4.39267,1.32486 -4.33371,4.48218c0.13064,6.99753 0.16208,14.0022 -0.01068,20.99792c-0.08722,3.5311 1.37173,4.90476 5.69263,4.5578z" fill="#01CE8E"/>
  <path id="svg_9" d="m128.98946,153.84824c-10.3965,-6.99529 -13.36923,-17.05266 -11.86309,-28.91798c0.07127,-0.56144 0.72385,-1.0491 1.84435,-1.45611c2.71538,0.25103 4.69195,0.50243 6.66887,0.50529c20.75868,0.03002 41.51741,0.0203 62.75004,0.01596c23.13837,-0.04944 45.80283,-0.09328 68.53682,-0.06696c0.06955,0.07014 0.20774,0.21133 0.17273,0.66998c-0.06836,10.65419 -0.10171,20.84975 -0.59625,31.11532c-6.1794,0.14946 -11.89754,0.22889 -18.07651,0.27683c-16.64169,-0.00337 -32.82258,0.02472 -49.49666,0.03928c-5.63388,0.02803 -10.77459,0.06956 -16.17613,0.07046c-0.4368,-0.04385 -0.61276,-0.0471 -1.24707,-0.1438c-13.79803,-0.41565 -27.13774,-0.73784 -40.47743,-1.06004c0,0 -0.01061,0.07036 -0.12535,-0.20656c-0.71462,-0.46516 -1.31447,-0.65343 -1.91432,-0.84167z" fill="#BEE9FA"/>
  <path id="svg_10" d="m256.96414,155.64371c0.03333,-10.19554 0.06668,-20.3911 0.58991,-31.08704c23.31088,-0.55745 46.13183,-0.61449 69.38339,-0.6698c22.29367,-0.03498 44.15674,-0.07169 66.3587,-0.04431c1.0239,0.01318 1.70899,-0.03773 2.39405,-0.08863c0.09594,0.21372 0.19189,0.42745 0.39483,0.97629c0.04303,3.49314 -0.38205,6.69338 -0.01883,9.8015c1.20004,10.26958 -9.04696,21.62033 -21.13254,21.46718c-10.64971,-0.13495 -21.30273,-0.00955 -32.68847,0.04662c-0.91513,0.06471 -1.09616,0.08369 -1.74249,0.0504c-5.61506,-0.0149 -10.76478,0.02247 -16.35364,0.00279c-16.61109,-0.00504 -32.78308,0.04698 -49.43067,0.02934c-6.21423,-0.02772 -11.95288,0.01424 -17.70275,-0.07945c-0.0113,-0.13565 -0.05149,-0.40489 -0.05149,-0.40489z" fill="#87DAF7"/>
  <path id="svg_11" d="m326.50687,123.88513c-22.82099,0.05705 -45.64194,0.11409 -68.91782,0.21289c-0.45486,0.04175 -0.59305,-0.09944 -0.61823,-0.62336c-0.01818,-28.45212 -0.01119,-56.38031 -0.00418,-84.30851c0.51612,0.24992 1.03223,0.49983 1.9188,1.08559c0.59131,0.5922 0.87094,0.72142 1.20932,0.72352c0,0 -0.07688,-0.0012 -0.00138,0.29667c12.98255,16.24246 25.91181,32.16916 38.78925,48.13765c9.24396,11.46291 18.41864,22.9817 27.62424,34.47555z" fill="#BEE9FA"/>
  <path id="svg_12" d="m256.68228,39.10422c0.27735,27.99013 0.27036,55.91832 0.21897,84.30029c-22.70879,0.49761 -45.37325,0.54145 -68.39161,0.2687c0.42443,-1.39566 1.15201,-2.51588 1.98856,-3.54778c20.03485,-24.71335 40.09215,-49.40851 60.0932,-74.14915c0.97987,-1.21208 1.48622,-2.80698 2.21307,-4.22363c-0.00001,0 0.095,0.05063 0.40088,0.06516c0.77478,-0.68994 1.24372,-1.39442 1.71265,-2.09889c0.4933,-0.22554 0.9866,-0.45108 1.76428,-0.6147z" fill="#FEFFFF"/>
  <path id="svg_13" d="m252.4521,41.62367c-0.37448,1.54563 -0.88083,3.14053 -1.8607,4.35261c-20.00105,24.74064 -40.05835,49.4358 -60.0932,74.14915c-0.83655,1.0319 -1.56413,2.15212 -2.46249,3.55339c-20.87871,0.32092 -41.63744,0.33064 -62.39612,0.30062c-1.97692,-0.00286 -3.95349,-0.25426 -6.27983,-0.60763c33.96057,-21.40256 68.25375,-42.61534 102.59147,-63.75575c9.98404,-6.14678 20.09546,-12.08666 30.50087,-17.99239z" fill="#87D9F7"/>
  <path id="svg_14" d="m326.93744,123.88687c-9.63617,-11.49559 -18.81085,-23.01438 -28.05481,-34.47729c-12.87744,-15.96849 -25.8067,-31.89519 -38.78781,-48.17606c3.75607,1.7084 7.70154,3.56472 11.39767,5.82815c25.11203,15.378 50.19382,30.80575 75.23975,46.29129c15.25601,9.43258 30.4306,18.99693 45.94449,28.93461c0.29535,0.7853 0.28793,1.1381 0.28054,1.49089c-21.86309,0.03672 -43.72616,0.07343 -66.01983,0.10841z" fill="#01BCF1"/>
  <path id="svg_15" d="m150.93816,354.99249c0.0094,-16.73016 -0.01128,-33.46039 0.04284,-50.1904c0.02204,-6.81265 3.10501,-9.75912 10.0076,-9.80047c3.31285,-0.01987 6.6258,-0.02253 10.43651,0.03854c0.49779,0.07153 0.66362,0.21082 0.62826,0.6546c-0.09233,22.41172 -0.14929,44.37964 -0.60887,66.40287c-11.57939,2.38952 -17.02549,0.72659 -20.50634,-7.10514z" fill="#FFB844"/>
  <path id="svg_16" d="m150.55655,355.16327c3.86246,7.66095 9.30856,9.32388 20.96324,7.18075c0.53278,0.35361 0.58765,0.51615 0.57158,1.13999c-0.03323,5.7962 0.00447,11.1311 -0.06009,16.67456c-0.10225,0.20856 -0.19742,0.66327 -0.65556,0.66495c-14.77429,-0.07303 -29.09044,-0.14774 -43.40659,-0.22248c-6.7556,-4.4342 -9.10312,-10.12576 -6.68508,-17.73986c1.32942,-4.18619 4.21227,-6.91129 9.17419,-6.91654c6.57243,-0.00696 13.14448,-0.38946 20.09831,-0.78137z" fill="#FF7600"/>
  <path id="svg_17" d="m128.09407,380.93823c14.19121,-0.26245 28.50736,-0.18774 43.34027,0.36286c0.46662,14.48135 0.41646,28.48684 0.3663,42.49231c-0.6632,-0.01938 -1.3264,-0.03873 -2.30615,-0.14228c-2.75674,-2.79272 -5.1057,-5.59048 -7.65292,-8.19427c-11.17618,-11.42447 -22.40978,-22.79276 -33.7475,-34.51862z" fill="#6B1472"/>
  <path id="svg_18" d="m131.04953,155.24811c13.31929,-0.02944 26.659,0.29275 40.47296,1.17303c0.42114,13.89095 0.368,27.22382 0.31485,40.5567c-13.19414,-13.07676 -26.39422,-26.14755 -39.56177,-39.25102c-0.55642,-0.55372 -0.81065,-1.41113 -1.22604,-2.47871z" fill="#6B1472"/>
  <path id="svg_19" d="m171.89246,197.44482c-0.00197,-13.79986 0.05117,-27.13273 0.08838,-40.93025c0.16003,-0.46136 0.33599,-0.45811 0.76873,0.04274c0.25447,13.12178 0.26491,25.74597 0.24738,38.37013c-0.04637,33.38578 -0.10486,66.77154 -0.34929,100.18377c-0.19077,0.02646 -0.55893,0.13977 -0.55893,0.13977c0,0 -0.16583,-0.13929 -0.20773,-0.23929c-0.00576,-32.43329 0.03041,-64.76659 0.01146,-97.56687z" fill="#81A6BE"/>
  <path id="svg_20" d="m393.29611,123.84256c-0.33145,-0.41689 -0.32403,-0.76969 -0.31241,-1.38735c0.81559,0.1019 1.62699,0.46866 2.57242,1.06707c-0.55099,0.28255 -1.23608,0.33346 -2.26001,0.32028z" fill="#16C0F2"/>
  <path id="svg_21" d="m254.59885,39.84098c-0.14978,0.58241 -0.61872,1.28689 -1.41983,2.02378c0.14541,-0.61229 0.62303,-1.257 1.41983,-2.02378z" fill="#87D9F7"/>
  <path id="svg_22" d="m129.19267,154.08411c0.39664,-0.04763 0.99649,0.14064 1.74651,0.60931c-0.41432,0.06247 -0.97881,-0.15549 -1.74651,-0.60931z" fill="#6B1472"/>
  <path id="svg_23" d="m260.17889,40.67456c-0.42251,0.2986 -0.70214,0.16938 -1.01605,-0.30478c0.30469,-0.14385 0.70243,-0.06989 1.01605,0.30478z" fill="#01BCF1"/>
  <path id="svg_24" d="m342.16571,294.92615c3.31909,0.02459 6.69348,0.44601 9.94598,-0.0073c7.19599,-1.0029 10.93989,4.62952 10.92936,10.81995c-0.02796,16.43149 -0.05823,32.86301 -0.30115,49.99356c-5.26822,7.44104 -11.72965,9.20508 -20.63767,5.79358c-0.09579,-22.43375 -0.12805,-44.40335 -0.0769,-66.40259c0.0834,-0.02957 0.14038,-0.1972 0.14038,-0.1972z" fill="#FF9B00"/>
  <path id="svg_25" d="m342.16577,361.99005c8.84448,2.94739 15.30591,1.18335 20.60355,-5.79199c5.90057,-0.2218 11.5582,-0.20282 17.21579,-0.20026c10.57184,0.00479 14.70929,4.90653 12.96417,15.37308c-1.04147,6.24637 -4.66586,9.37897 -11.4307,9.43295c-12.81228,0.10224 -25.62591,0.03705 -38.94076,-0.00332c-0.5018,-0.04477 -0.64615,-0.03885 -0.61121,-0.48172c0.08966,-6.40485 0.14441,-12.36679 0.19916,-18.32874z" fill="#DA6100"/>
  <path id="svg_26" d="m340.96799,156.14819c0.18103,-0.01898 0.36206,-0.03796 0.81527,-0.04391c0.27253,45.97574 0.2728,91.93846 0.32776,138.36154c0.05469,0.46033 -0.00229,0.62796 -0.2781,0.61597c-0.27582,-0.012 -0.66828,-0.05017 -0.72168,-0.51807c-0.08335,-46.45044 -0.11331,-92.43298 -0.14325,-138.41553z" fill="#6DA6A1"/>
  <path id="svg_27" d="m448.76782,423.42487c-0.76822,0.30422 -1.91897,0.55078 -3.06967,0.55059c-34.25809,-0.00622 -68.51614,-0.03692 -103.21765,-0.36077c-0.44342,-0.29709 -0.36646,-0.73588 -0.36646,-0.73588c33.26755,0.04041 66.53513,0.07627 99.80265,0.13169c2.15634,0.0036 4.3124,0.15762 6.85113,0.41437z" fill="#4D6E88"/>
  <path id="svg_28" d="m342.07318,422.42038c0.04086,0.45843 -0.0361,0.89722 -0.05594,1.1185c-0.52905,0.14468 -1.03827,0.06811 -1.44345,-0.539c0.26895,-14.36789 0.43387,-28.20523 0.79212,-42.0777c0.19333,-0.03513 0.56576,-0.16052 0.56576,-0.16052c0,0 0.14435,-0.00592 0.1879,0.05169c-0.00003,13.75458 -0.04361,27.4516 -0.04639,41.60703z" fill="#6CA7A1"/>
  <path id="svg_29" d="m172.83843,295.08475c0.05366,-33.38577 0.11215,-66.77153 0.15852,-100.15731c0.01753,-12.62416 0.00709,-25.24835 0.01346,-38.32951c5.14476,-0.49852 10.28547,-0.54005 15.91446,-0.10289c0.48478,68.45929 0.47253,136.4399 0.48304,204.42049c0.00319,20.6597 0.06919,41.31939 -0.05043,61.95147c-0.15686,-0.02761 -0.4581,0.07584 -0.4581,0.07581c-4.98301,0.34 -9.96603,0.67996 -15.41845,0.53873c-0.47339,-12.90888 -0.44055,-25.33679 -0.51998,-37.76398c-0.0123,-1.9242 -0.53874,-3.84512 -0.82741,-5.76755c-0.0377,-5.3349 -0.0754,-10.6698 0.21644,-16.79242c0.38252,-23.21609 0.43548,-45.64447 0.48845,-68.07284z" fill="#46CAF2"/>
  <path id="svg_30" d="m192.99982,475.858c-9.49262,-0.00113 -18.48763,-0.12106 -27.47673,0.05692c-3.4942,0.06918 -4.68341,-1.16455 -4.5826,-4.63172c0.20322,-6.98843 0.16326,-13.98895 0.01628,-20.98013c-0.06529,-3.10608 0.83582,-4.51767 4.21039,-4.49011c14.82022,0.12097 29.64249,0.11545 44.46283,0.0018c3.26187,-0.025 4.40868,1.17374 4.34022,4.38751c-0.15248,7.15756 -0.17234,14.32376 0.00708,21.48004c0.08522,3.39914 -1.39578,4.30377 -4.49179,4.215c-5.32457,-0.15262 -10.65673,-0.04025 -16.48568,-0.03931z" fill="#00CE8E"/>
  <path id="svg_31" d="m274.12775,423.19928c-5.35474,0.27295 -10.70951,0.5459 -16.51755,0.83697c-0.45331,0.01816 -0.62387,-0.42404 -0.65027,-1.13134c0.01499,-14.38602 0.05637,-28.06467 0.55118,-41.82764c6.11563,-0.04156 11.77789,0.00119 17.49261,0.29907c0.14042,0.40491 0.22831,0.55469 0.27869,1.16657c-0.0126,13.43216 0.01233,26.40222 -0.08868,39.62976c-0.13855,0.44815 -0.15116,0.63882 -0.39106,0.87067c-0.22735,0.04119 -0.67492,0.15594 -0.67492,0.15594z" fill="#009BE8"/>
  <path id="svg_32" d="m257.05768,381.16156c-0.04138,13.67868 -0.08276,27.35733 -0.17096,41.51794c-5.63933,0.4448 -11.23183,0.40769 -17.38445,0.30466c-0.5601,-0.06589 -0.76197,0.0289 -0.70739,-0.43722c0.02327,-13.8212 -0.00805,-27.1763 0.05207,-40.73578c0.09142,-0.20438 0.16121,-0.6467 0.62385,-0.71836c6.13511,-0.14309 11.80758,-0.21454 17.50344,-0.19628c0.02341,0.08966 0.08344,0.26504 0.08344,0.26504z" fill="#46CAF2"/>
  <path id="svg_33" d="m239.04388,422.96399c-1.48472,0.37576 -3.07016,0.98642 -4.65776,0.99213c-14.4857,0.05206 -28.97177,-0.00119 -43.9094,-0.31238c-0.4517,-0.2887 -0.40864,-0.77118 0.05218,-0.73102c16.37767,0.06024 32.29454,0.08029 48.2114,0.10034c0,0 0.20187,-0.09479 0.30358,-0.04907z" fill="#BCC598"/>
  <path id="svg_34" d="m172.03128,380.15857c0.39093,1.71387 0.91737,3.63479 0.92967,5.55899c0.07943,12.42719 0.04659,24.8551 0.05661,37.74301c-0.19934,0.45209 -0.40472,0.44391 -0.9135,0.38428c-0.25326,-14.05692 -0.2031,-28.06241 -0.21157,-42.54544c-0.05863,-0.47757 0.03654,-0.93228 0.13879,-1.14084z" fill="#7DA5BA"/>
  <path id="svg_35" d="m190.06808,422.87256c0,0 -0.04306,0.48248 -0.05808,0.72296c-0.32438,0.1362 -0.5862,-0.03912 -0.95556,-0.46906c-0.15506,-0.18362 0.14618,-0.28707 0.43984,-0.30304c0.29365,-0.01599 0.5738,0.04914 0.5738,0.04914z" fill="#A8DDC0"/>
  <path id="svg_36" d="m341.17255,380.95734c-0.16489,13.83731 -0.32981,27.67465 -0.76636,41.84024c-5.03714,0.59457 -9.80264,0.8609 -15.08814,0.78781c-0.6192,-0.50675 -0.71838,-0.67417 -0.79473,-1.29303c0.0368,-89.01318 0.05084,-177.57488 0.06485,-266.13657c5.14974,-0.0374 10.29946,-0.07477 15.91452,-0.05987c0.49524,46.03482 0.5252,92.01736 0.55108,138.93121c0.03687,29.26428 0.07782,57.59723 0.11878,85.93021z" fill="#009BE8"/>
  <path id="svg_37" d="m285.21314,478.04028c-3.84861,0.34815 -5.30756,-1.02551 -5.22034,-4.55661c0.17276,-6.99572 0.14132,-14.00039 0.01068,-20.99792c-0.05896,-3.15732 1.04486,-4.49457 4.33371,-4.48218c21.83298,0.08221 43.66647,0.06955 65.4996,0.01312c2.93833,-0.0076 4.23932,1.05725 4.19315,4.09638c-0.10883,7.16494 -0.19257,14.33767 0.02908,21.49747c0.12903,4.16793 -2.16647,4.47271 -5.37378,4.46298c-20.99979,-0.06379 -41.99985,-0.03238 -63.4721,-0.03324z" fill="#00BC5E"/>
  <path id="svg_38" d="m274.46143,423.4281c-0.33368,-0.22882 0.11389,-0.34357 0.61255,-0.3985c0.67928,-0.07043 0.85989,-0.08593 1.5014,-0.0769c16.09344,-0.02612 31.72595,-0.07675 47.37323,0.10809c0.01474,0.23554 0.02826,0.70728 0.02826,0.70728c-16.39392,-0.03705 -32.78784,-0.0741 -49.51544,-0.33997z" fill="#98D771"/>
  <path id="svg_39" d="m324.20776,423.79977c-0.23089,-0.0317 -0.24441,-0.50344 -0.12866,-0.83682c0.11576,-0.33334 0.42139,-0.21912 0.42139,-0.21912c0.09918,0.16739 0.19836,0.33481 0.35086,0.788c0.05331,0.2858 -0.41266,0.29965 -0.64359,0.26794z" fill="#87C087"/>
  <path id="svg_40" d="m190.5289,422.91272c-0.46082,-0.04016 -0.74097,-0.10529 -0.87778,-0.06171c-0.17402,-20.61609 -0.24002,-41.27578 -0.24321,-61.93548c-0.01051,-67.98059 0.00174,-135.9612 0.01015,-204.40699c16.18578,-0.49325 32.36667,-0.52134 49.00757,-0.05155c0.46016,17.16267 0.44194,33.82749 0.46446,50.49226c0.0401,29.66043 0.10484,59.32083 -0.041,89.19101c-0.76819,0.72726 -1.33613,1.24478 -2.20288,1.92383c-5.83121,4.36343 -7.50656,10.224 -7.54605,16.83105c-0.0813,13.60108 -0.20763,27.20181 -0.7361,40.78845c-8.79379,0.02912 -11.35622,2.57187 -11.36516,10.84894c-0.00197,1.81903 -0.05421,3.64008 0.01257,5.45667c0.19329,5.2594 3.81295,8.84726 9.11986,8.99878c3.96424,0.11319 7.93141,0.12268 11.98961,0.34338c0.23142,0.38165 0.41217,0.55469 0.6346,0.68417c0.03129,13.35511 0.06261,26.71021 0.03934,40.53141c-15.97144,0.44607 -31.88831,0.42602 -48.26598,0.36578z" fill="#FFEE93"/>
  <path id="svg_41" d="m239.04935,295.93048c-0.05442,-29.6604 -0.11916,-59.3208 -0.15926,-88.98123c-0.02252,-16.66477 -0.0043,-33.32959 -0.00366,-50.4608c5.71896,-0.54582 11.4371,-0.62525 17.6165,-0.77471c0.46121,-0.07003 0.5014,0.19921 0.50488,0.79012c-0.02481,46.4939 -0.05313,92.3969 -0.51556,138.38133c-3.12137,0.14749 -5.80861,0.2135 -8.73158,0.2244c-0.23572,-0.05512 -0.71119,0.03619 -1.12838,-0.01114c-2.80577,0.24579 -5.19436,0.53891 -7.58294,0.83203z" fill="#46CAF2"/>
  <path id="svg_42" d="m324.52332,422.29236c-0.02283,0.45147 -0.32846,0.33725 -0.45896,0.43509c-15.76303,0.1485 -31.39554,0.19913 -47.58093,0.02383c-0.65997,-0.52591 -0.86362,-0.72931 -1.16376,-0.83606c-0.02493,-12.97009 -0.04986,-25.94015 0.13922,-39.47552c0.38123,-0.79001 0.47244,-1.04227 0.95438,-1.37635c3.93426,-0.07443 7.40283,-0.04833 10.86917,-0.12457c6.52875,-0.14361 9.52725,-3.22354 9.668,-9.85904c0.02801,-1.32049 0.00925,-2.64209 0.00677,-3.96316c-0.01748,-9.39618 -2.65997,-11.97956 -12.11663,-12.37226c0.05148,-13.789 0.13382,-27.08786 0.0574,-40.38583c-0.0379,-6.59976 -1.89261,-12.47278 -7.92633,-16.65256c-0.49707,-0.55316 -0.82559,-0.83108 -1.14951,-1.26416c-0.05175,-0.38379 -0.19464,-0.5256 -0.53732,-0.62591c-0.11328,-0.04535 -0.2114,0.17813 -0.14566,-0.2862c0.0621,-46.75351 0.05844,-93.04272 0.05481,-139.33194c16.172,-0.05203 32.34399,-0.10405 48.95508,-0.099c0.42511,88.61876 0.41107,177.18046 0.37427,266.19364z" fill="#FFE131"/>
  <path id="svg_43" d="m274.71838,156.12805c0.47922,46.35889 0.48288,92.6481 0.03031,139.28726c-2.89972,0.1456 -5.3432,-0.05871 -8.03034,-0.31942c-0.24365,-0.05637 -0.72662,0.06909 -1.17007,-0.00449c-3.11417,-0.03397 -5.78485,0.00565 -8.46884,-0.05209c-0.01331,-0.09735 -0.15308,-0.23557 -0.15308,-0.23557c0.02832,-45.90298 0.05664,-91.80598 0.09274,-138.16423c5.7464,-0.49722 11.48505,-0.53918 17.69928,-0.51146z" fill="#009BE8"/>
  <path id="svg_44" d="m172.64766,295.11121c0.1378,22.40191 0.08484,44.83029 -0.22673,67.58508c-0.31349,0.16388 -0.36836,0.00134 -0.49854,-0.40756c-0.01831,-22.21433 0.03865,-44.18225 0.13098,-66.59397c0.03536,-0.44378 0.40352,-0.55709 0.59429,-0.58355z" fill="#A2CEAF"/>
  <path id="svg_45" d="m341.36591,380.92218c-0.23432,-28.29782 -0.27527,-56.63077 -0.25873,-85.42715c0.05746,-0.46341 0.44992,-0.42524 0.64233,-0.38364c0.22467,22.0112 0.25693,43.9808 0.35272,66.41455c0.00879,6.42606 -0.04596,12.388 -0.13562,18.79285c-0.03494,0.44287 -0.40737,0.56826 -0.6007,0.60339z" fill="#7EB593"/>
  <path id="svg_46" d="m284.80597,355.23486c9.49127,-0.09784 12.13376,2.48554 12.15124,11.88172c0.00248,1.32107 0.02124,2.64267 -0.00677,3.96316c-0.14075,6.6355 -3.13925,9.71543 -9.668,9.85904c-3.46634,0.07624 -6.93491,0.05014 -11.11813,0.08405c-0.88144,0.04202 -1.04728,0.07022 -1.21308,0.09839c-5.66223,-0.04276 -11.32449,-0.08551 -17.44012,-0.04395c-0.45343,0.08429 -0.51346,-0.09109 -0.51874,-0.63742c-0.03699,-8.59671 -0.06869,-16.64712 -0.06079,-24.85056c0.03961,-0.15304 0.13782,-0.45358 0.5097,-0.44925c3.01557,1.67731 6.13147,2.90653 8.206,5.11426c4.52856,4.81946 10.15372,4.9289 14.32214,-0.18496c1.43277,-1.75772 3.21433,-3.23117 4.83655,-4.83448z" fill="#DB6201"/>
  <path id="svg_47" d="m275.00372,381.37634c0.11331,-0.28329 0.27915,-0.31149 0.69391,-0.29913c0.2337,0.32022 0.14249,0.57248 -0.20123,0.90042c-0.26437,-0.0466 -0.35226,-0.19638 -0.49268,-0.60129z" fill="#B2D172"/>
  <path id="svg_48" d="m275.19373,422.17267c0.42608,-0.1507 0.62973,0.0527 0.82879,0.55408c-0.08865,0.21692 -0.26926,0.23242 -0.72119,0.26165c-0.25876,-0.17691 -0.24615,-0.36758 -0.1076,-0.81573z" fill="#B2D172"/>
  <path id="svg_49" d="m256.89197,355.74234c0.03171,8.05039 0.06341,16.1008 0.07699,24.60785c-5.69058,0.52807 -11.36305,0.59952 -17.74299,0.69583c-0.70746,0.02484 -1.19736,0.12027 -1.19736,0.1203c-3.96587,-0.05566 -7.93304,-0.06515 -11.89728,-0.17834c-5.30691,-0.15152 -8.92657,-3.73938 -9.11986,-8.99878c-0.06678,-1.81659 -0.01454,-3.63764 -0.01257,-5.45667c0.00894,-8.27707 2.57137,-10.81982 11.70844,-10.71325c2.14199,1.29678 3.75226,2.2557 4.85809,3.62268c4.95749,6.12838 9.87436,6.03549 15.39108,0.3085c1.94069,-2.01465 5.25069,-2.71024 7.93546,-4.00812z" fill="#FF7600"/>
  <path id="svg_50" d="m238.12094,381.33136c-0.09233,-0.16507 0.39757,-0.2605 0.6424,-0.21368c0.24482,0.04678 0.17503,0.4891 0.08361,0.69348c-0.31384,0.07489 -0.49459,-0.09815 -0.72601,-0.4798z" fill="#DCE7A5"/>
  <path id="svg_51" d="m256.93158,355.58929c-2.72438,1.45093 -6.03438,2.14652 -7.97507,4.16117c-5.51672,5.72699 -10.43359,5.81988 -15.39108,-0.3085c-1.10583,-1.36698 -2.7161,-2.3259 -4.43738,-3.6084c-0.23552,-13.73661 -0.10919,-27.33734 -0.02789,-40.93842c0.03949,-6.60705 1.71484,-12.46762 7.58627,-16.35443c0.3521,10.40298 0.3607,20.49091 0.37924,30.57886c0.02547,13.84814 5.89823,19.80511 19.83228,20.27209c0.06723,0.21152 0.21997,0.62836 0.18854,1.05158c-0.02668,1.84628 -0.02188,3.26938 -0.01709,4.69247c0,0 -0.09821,0.30054 -0.13782,0.45358z" fill="#FEB744"/>
  <path id="svg_52" d="m256.83072,349.18012c-13.86682,-0.25544 -19.73958,-6.21241 -19.76505,-20.06055c-0.01854,-10.08795 -0.02714,-20.17588 -0.08041,-30.74042c0.5277,-0.99411 1.09564,-1.51163 1.86383,-2.23889c2.58884,-0.5029 4.97743,-0.79602 7.80179,-0.82709c0.43579,0.26203 0.56117,0.67472 0.515,1.14191c-0.06334,11.0665 -0.09253,21.66577 -0.09395,32.26504c-0.00114,8.58857 1.31212,9.97919 9.91666,11.04035c-0.04065,3.42984 -0.09928,6.42474 -0.15787,9.41965z" fill="#8E8A93"/>
  <path id="svg_53" d="m256.97061,339.32553c-8.58656,-0.62622 -9.89982,-2.01684 -9.89868,-10.60541c0.00142,-10.59927 0.03061,-21.19854 0.24448,-32.38192c0.38644,-0.75708 0.54753,-0.95353 0.67997,-1.1735c2.68726,-0.06601 5.3745,-0.13202 8.49587,-0.27951c0.43411,-0.08145 0.57388,0.05677 0.55487,0.61359c0.03403,14.84982 0.08704,29.14282 0.1015,43.54217c-0.03857,0.10636 -0.17801,0.28458 -0.17801,0.28458z" fill="#FFB844"/>
  <path id="svg_54" d="m247.76067,295.10959c0.10327,0.27508 -0.05782,0.47153 -0.39809,0.76138c-0.15053,0.11692 -0.27591,-0.29577 -0.2945,-0.5105c-0.0186,-0.21469 0.45687,-0.306 0.69259,-0.25088z" fill="#EFB150"/>
  <path id="svg_55" d="m257.44128,355.14004c-0.37667,-1.42742 -0.38147,-2.85052 0.04444,-4.70507c14.55206,-2.42215 19.47278,-7.99857 19.50403,-21.96451c0.02273,-10.16315 0.09839,-20.3262 0.15045,-30.48929c5.86517,3.90454 7.71988,9.77756 7.75778,16.37732c0.07642,13.29797 -0.00592,26.59683 -0.0574,40.38583c-1.65683,2.09385 -3.43839,3.5673 -4.87116,5.32502c-4.16842,5.11386 -9.79358,5.00442 -14.32214,0.18496c-2.07453,-2.20773 -5.19043,-3.43695 -8.206,-5.11426z" fill="#FE9B00"/>
  <path id="svg_56" d="m276.97165,297.70593c0.11649,10.43833 0.04083,20.60138 0.0181,30.76453c-0.03125,13.96594 -4.95197,19.54236 -19.4726,21.54132c-0.39923,0.00824 -0.55197,-0.4086 -0.6192,-0.62012c-0.00864,-3.20645 0.04999,-6.20135 0.09064,-9.63119c-0.01798,-0.43494 0.12146,-0.61316 0.54827,-0.67346c4.23948,0.25161 7.3538,-0.65683 8.81843,-4.94214c0.22256,-0.5094 0.2666,-0.83673 0.37945,-1.62668c0.04639,-12.46985 0.02402,-24.47714 0.08966,-36.69672c0.08798,-0.21228 0.13761,-0.66919 0.13761,-0.66919c2.44348,0.20432 4.88696,0.40863 7.72091,0.72736c0.3905,0.11435 0.48862,-0.10913 0.58753,0.10052c0.15438,0.44913 0.3038,0.58484 0.54709,0.61673c0.32852,0.27796 0.65704,0.55588 1.15411,1.10904z" fill="#59555C"/>
  <path id="svg_57" d="m275.82214,296.44177c-0.24789,0.12323 -0.39731,-0.01248 -0.43841,-0.41629c0.24377,-0.10931 0.38666,0.0325 0.43841,0.41629z" fill="#B2D172"/>
  <path id="svg_58" d="m266.17682,334.3269c-1.28616,4.10328 -4.40048,5.01172 -8.60138,4.65375c-0.44128,-14.33905 -0.49429,-28.63205 -0.51501,-43.38452c2.703,-0.49908 5.37368,-0.5387 8.58062,-0.33435c0.67633,0.46896 0.86273,0.64496 1.09534,0.77197c0.02237,12.0073 0.04474,24.01459 -0.15466,36.67798c-0.3888,0.95554 -0.44983,1.27524 -0.40491,1.61517z" fill="#FF9B00"/>
  <path id="svg_59" d="m266.8244,295.82147c-0.32062,0.08527 -0.50702,-0.09073 -0.7399,-0.48608c-0.09277,-0.17041 0.3902,-0.29587 0.63385,-0.2395c0.24366,0.05639 0.19403,0.5133 0.10605,0.72558z" fill="#DB8F1D"/>
  <path id="svg_60" d="m266.35529,334.14487c-0.22339,-0.1579 -0.16236,-0.4776 0.15765,-0.97055c0.10895,0.13382 0.06491,0.46115 -0.15765,0.97055z" fill="#DB8F1D"/>
 </g>
</svg>