<svg version="1.1" id="Layer_1" xmlns="http://www.w3.org/2000/svg" xmlns:xlink="http://www.w3.org/1999/xlink" x="0px" y="0px"
	 width="100%" viewBox="0 0 512 512" enable-background="new 0 0 512 512" xml:space="preserve">
<path fill="#95239B" opacity="1.000000" stroke="none" 
	d="
M225.000000,1.000000 
	C246.020889,1.000000 267.041779,1.000000 288.398621,1.412206 
	C289.084534,2.152309 289.390076,2.693770 289.790955,2.777167 
	C303.072052,5.540085 316.503845,7.712827 329.618591,11.110553 
	C350.175964,16.436495 369.683838,24.731062 387.517822,36.245613 
	C400.444458,44.591747 413.221893,53.471382 424.735474,63.622097 
	C437.219147,74.628075 449.055359,86.655853 459.547363,99.560486 
	C472.561981,115.567810 483.008911,133.393555 491.322357,152.479370 
	C501.136047,175.009399 508.137390,198.196716 511.081024,222.606110 
	C511.185028,223.468674 512.336670,224.204895 513.000000,225.000000 
	C513.000000,229.689255 513.000000,234.378510 512.702698,239.383408 
	C510.949829,238.332733 509.455597,237.005081 508.044373,235.594421 
	C472.457458,200.021759 436.887146,164.432480 401.271820,128.888306 
	C399.786316,127.405785 397.894562,126.330383 396.085022,124.730217 
	C395.882080,124.181381 395.786133,123.967651 395.556122,123.522285 
	C394.610687,122.923874 393.799286,122.557106 392.680969,122.022697 
	C377.162842,112.349892 361.988251,102.785538 346.732239,93.352959 
	C321.686310,77.867424 296.604523,62.439667 271.492493,47.061672 
	C267.796356,44.798244 263.850891,42.941925 260.019348,40.935646 
	C260.017883,40.974056 260.094757,40.975262 260.178894,40.674557 
	C259.865265,40.299892 259.467529,40.225933 258.792389,40.033932 
	C257.998871,39.665977 257.482758,39.416065 256.682281,39.104225 
	C255.904602,39.267841 255.411301,39.493378 254.598846,39.840981 
	C253.802048,40.607758 253.324432,41.252468 252.873138,41.850231 
	C252.899475,41.803280 252.804459,41.752655 252.452087,41.623672 
	C242.046692,47.529404 231.935272,53.469276 221.951233,59.616062 
	C187.613510,80.756470 153.320328,101.969254 118.621124,123.256805 
	C117.850220,123.881157 117.197639,124.368820 117.126366,124.930260 
	C115.620232,136.795578 118.592957,146.852951 129.192673,154.084106 
	C129.960373,154.537933 130.524857,154.755890 131.053925,154.970337 
	C131.018524,154.966827 131.029129,154.896469 131.049530,155.248108 
	C131.464920,156.315689 131.719147,157.173096 132.275574,157.726822 
	C145.443115,170.830292 158.643204,183.901077 171.892456,197.444824 
	C171.911407,230.245102 171.875244,262.578400 171.383209,294.940186 
	C167.614395,294.979095 164.301453,294.981750 160.988602,295.001617 
	C154.086014,295.042969 151.003036,297.989441 150.981003,304.802094 
	C150.926880,321.532104 150.947556,338.262329 150.556549,355.163269 
	C143.602722,355.555176 137.030670,355.937683 130.458237,355.944641 
	C125.496323,355.949890 122.613472,358.674988 121.284050,362.861176 
	C118.866005,370.475281 121.213531,376.166840 128.094070,380.938232 
	C139.431793,392.664093 150.665390,404.032379 161.841568,415.456848 
	C164.388794,418.060638 166.737747,420.858398 168.706421,423.658569 
	C142.281265,423.775604 116.327576,423.779297 90.374001,423.837982 
	C81.231461,423.858673 72.089218,424.013916 62.640869,423.960663 
	C59.622345,420.718109 56.681877,417.791901 54.235401,414.498749 
	C41.413734,397.239685 30.086327,379.113495 21.595564,359.252319 
	C12.342142,337.607208 5.998535,315.221680 2.929062,291.886444 
	C2.793721,290.857513 1.665653,289.959167 1.000001,289.000000 
	C1.000000,267.645782 1.000000,246.291550 1.407334,224.607315 
	C2.533923,221.329147 3.499067,218.416718 3.933575,215.427170 
	C7.446525,191.257019 14.973343,168.305038 25.381775,146.322739 
	C33.904606,128.322784 43.927925,111.042740 57.411495,96.326141 
	C70.671951,81.853073 84.166092,67.340355 99.190964,54.802246 
	C117.715652,39.343563 138.842789,27.547029 161.515213,18.774529 
	C181.280609,11.126824 201.474915,5.296044 222.597031,2.917544 
	C223.459076,2.820473 224.201721,1.663279 225.000000,1.000000 
z"/>
<path fill="#6B1472" opacity="1.000000" stroke="none" 
	d="
M396.192047,125.065323 
	C397.894562,126.330383 399.786316,127.405785 401.271820,128.888306 
	C436.887146,164.432480 472.457458,200.021759 508.044373,235.594421 
	C509.455597,237.005081 510.949829,238.332733 512.702698,239.849518 
	C513.000000,256.020905 513.000000,272.041779 512.590698,288.519012 
	C511.809387,289.649689 511.227081,290.286133 511.097565,291.004211 
	C509.525970,299.717682 508.400513,308.530029 506.428070,317.149384 
	C500.396149,343.507935 490.292419,368.335266 475.819153,391.127014 
	C468.454895,402.723877 459.375885,413.231812 450.784424,424.043732 
	C450.047974,423.769501 449.599152,423.683533 448.767822,423.424866 
	C446.229095,423.168121 444.073029,423.014099 441.916687,423.010498 
	C408.649170,422.955078 375.381592,422.919220 342.073181,422.420380 
	C342.075958,408.264954 342.119537,394.567932 342.621399,380.858093 
	C355.892670,380.840881 368.706299,380.906067 381.518585,380.803833 
	C388.283417,380.749847 391.907806,377.617249 392.949280,371.370880 
	C394.694397,360.904327 390.556946,356.002594 379.985107,355.997803 
	C374.327515,355.995239 368.669891,355.976257 362.982880,355.499023 
	C362.982819,338.601807 363.013092,322.170288 363.041046,305.738800 
	C363.051575,299.548370 359.307678,293.915955 352.111694,294.918854 
	C348.859192,295.372162 345.484802,294.950745 342.111023,294.465790 
	C342.056061,248.042740 342.055786,202.080017 342.517426,156.058533 
	C353.630920,155.989349 364.283936,155.863953 374.933655,155.998901 
	C387.019226,156.152054 397.266235,144.801300 396.066193,134.531723 
	C395.702972,131.423599 396.128052,128.223358 396.192047,125.065323 
z"/>
<path fill="#000000" opacity="1.000000" stroke="none" 
	d="
M1.000001,289.468658 
	C1.665653,289.959167 2.793721,290.857513 2.929062,291.886444 
	C5.998535,315.221680 12.342142,337.607208 21.595564,359.252319 
	C30.086327,379.113495 41.413734,397.239685 54.235401,414.498749 
	C56.681877,417.791901 59.622345,420.718109 62.773987,424.270386 
	C72.430405,433.939056 81.390816,443.427155 90.926483,452.296783 
	C104.555328,464.973755 120.141930,475.069672 136.538910,483.693726 
	C163.708054,497.983398 192.461136,507.641235 223.130951,511.082886 
	C223.817032,511.159851 224.379745,512.336365 225.000000,513.000000 
	C150.406296,513.000000 75.812599,513.000000 1.000000,513.000000 
	C1.000000,438.645905 1.000000,364.291626 1.000001,289.468658 
z"/>
<path fill="#000000" opacity="1.000000" stroke="none" 
	d="
M451.072021,424.231995 
	C459.375885,413.231812 468.454895,402.723877 475.819153,391.127014 
	C490.292419,368.335266 500.396149,343.507935 506.428070,317.149384 
	C508.400513,308.530029 509.525970,299.717682 511.097565,291.004211 
	C511.227081,290.286133 511.809387,289.649689 512.590698,288.987671 
	C513.000000,363.593719 513.000000,438.187408 513.000000,513.000000 
	C438.645905,513.000000 364.291626,513.000000 289.270416,512.605286 
	C289.279083,511.816467 289.910156,511.214478 290.636780,511.058960 
	C304.778351,508.032013 319.100616,505.683929 333.039032,501.914368 
	C350.836456,497.101135 367.557678,489.454773 383.589752,480.232605 
	C400.090729,470.740692 415.611084,459.932678 429.466583,446.917480 
	C437.065979,439.778900 443.895386,431.820648 451.072021,424.231995 
z"/>
<path fill="#000000" opacity="1.000000" stroke="none" 
	d="
M513.000000,224.531342 
	C512.336670,224.204895 511.185028,223.468674 511.081024,222.606110 
	C508.137390,198.196716 501.136047,175.009399 491.322357,152.479370 
	C483.008911,133.393555 472.561981,115.567810 459.547363,99.560486 
	C449.055359,86.655853 437.219147,74.628075 424.735474,63.622097 
	C413.221893,53.471382 400.444458,44.591747 387.517822,36.245613 
	C369.683838,24.731062 350.175964,16.436495 329.618591,11.110553 
	C316.503845,7.712827 303.072052,5.540085 289.790955,2.777167 
	C289.390076,2.693770 289.084534,2.152309 288.867249,1.412206 
	C363.593719,1.000000 438.187408,1.000000 513.000000,1.000000 
	C513.000000,75.354088 513.000000,149.708389 513.000000,224.531342 
z"/>
<path fill="#000000" opacity="1.000000" stroke="none" 
	d="
M224.531342,1.000000 
	C224.201721,1.663279 223.459076,2.820473 222.597031,2.917544 
	C201.474915,5.296044 181.280609,11.126824 161.515213,18.774529 
	C138.842789,27.547029 117.715652,39.343563 99.190964,54.802246 
	C84.166092,67.340355 70.671951,81.853073 57.411495,96.326141 
	C43.927925,111.042740 33.904606,128.322784 25.381775,146.322739 
	C14.973343,168.305038 7.446525,191.257019 3.933575,215.427170 
	C3.499067,218.416718 2.533923,221.329147 1.407334,224.138657 
	C1.000000,149.739456 1.000000,75.478920 1.000000,1.000000 
	C75.354088,1.000000 149.708389,1.000000 224.531342,1.000000 
z"/>
<path fill="#65E1BA" opacity="1.000000" stroke="none" 
	d="
M225.468658,513.000000 
	C224.379745,512.336365 223.817032,511.159851 223.130951,511.082886 
	C192.461136,507.641235 163.708054,497.983398 136.538910,483.693726 
	C120.141930,475.069672 104.555328,464.973755 90.926483,452.296783 
	C81.390816,443.427155 72.430405,433.939056 63.079956,424.417419 
	C72.089218,424.013916 81.231461,423.858673 90.374001,423.837982 
	C116.327576,423.779297 142.281265,423.775604 169.022980,423.742798 
	C170.474243,423.754669 171.137436,423.774017 172.104065,423.844849 
	C172.612839,423.904480 172.818222,423.912659 173.486969,423.941772 
	C178.933350,423.622772 183.916367,423.282806 189.054443,423.126434 
	C189.423798,423.556396 189.685623,423.731720 190.461670,423.884216 
	C205.414352,423.954926 219.900421,424.008179 234.386124,423.956116 
	C235.973724,423.950409 237.559158,423.339752 239.603989,423.029846 
	C245.654892,423.087189 251.247391,423.124298 256.913116,423.386841 
	C256.986328,423.612213 257.156891,424.054413 257.108002,424.517334 
	C257.039398,454.320160 257.019684,483.660095 257.000000,513.000000 
	C246.645767,513.000000 236.291550,513.000000 225.468658,513.000000 
M193.499786,475.858215 
	C198.828766,475.857056 204.160934,475.744690 209.485504,475.897308 
	C212.581512,475.986084 214.062515,475.081451 213.977295,471.682312 
	C213.797867,464.526031 213.817734,457.359833 213.970215,450.202271 
	C214.038666,446.988495 212.891861,445.789764 209.629990,445.814758 
	C194.809647,445.928406 179.987381,445.933929 165.167160,445.812958 
	C161.792587,445.785400 160.891479,447.196991 160.956772,450.303070 
	C161.103745,457.294250 161.143707,464.294769 160.940491,471.283203 
	C160.839676,474.750366 162.028885,475.984100 165.523087,475.914917 
	C174.512192,475.736938 183.507202,475.856873 193.499786,475.858215 
z"/>
<path fill="#01CE8E" opacity="1.000000" stroke="none" 
	d="
M257.468658,513.000000 
	C257.019684,483.660095 257.039398,454.320160 257.561310,424.499207 
	C263.418243,423.745178 268.773010,423.472229 274.461426,423.428101 
	C291.189026,423.693970 307.582947,423.731018 324.207764,423.799774 
	C324.438690,423.831482 324.904663,423.817627 325.371368,423.871216 
	C330.603546,423.658478 335.369049,423.392151 340.302124,423.328125 
	C340.978973,423.606995 341.488190,423.683563 342.460663,423.835938 
	C377.182007,423.938538 411.440063,423.969238 445.698151,423.975464 
	C446.848846,423.975647 447.999603,423.729095 449.150330,423.597565 
	C449.599152,423.683533 450.047974,423.769501 450.784424,424.043732 
	C443.895386,431.820648 437.065979,439.778900 429.466583,446.917480 
	C415.611084,459.932678 400.090729,470.740692 383.589752,480.232605 
	C367.557678,489.454773 350.836456,497.101135 333.039032,501.914368 
	C319.100616,505.683929 304.778351,508.032013 290.636780,511.058960 
	C289.910156,511.214478 289.279083,511.816467 288.801758,512.605286 
	C278.645782,513.000000 268.291534,513.000000 257.468658,513.000000 
M285.685425,478.041473 
	C306.685394,478.041138 327.685455,478.009735 348.685242,478.073517 
	C351.892548,478.083252 354.188049,477.778473 354.059021,473.610535 
	C353.837372,466.450745 353.921112,459.278015 354.029938,452.113068 
	C354.076111,449.073944 352.775116,448.009094 349.836792,448.016693 
	C328.003662,448.073120 306.170166,448.085785 284.337189,448.003571 
	C281.048340,447.991180 279.944519,449.328430 280.003479,452.485748 
	C280.134125,459.483276 280.165558,466.487946 279.992798,473.483673 
	C279.905579,477.014771 281.364532,478.388428 285.685425,478.041473 
z"/>
<path fill="#BEE9FA" opacity="1.000000" stroke="none" 
	d="
M128.989456,153.848236 
	C118.592957,146.852951 115.620232,136.795578 117.126366,124.930260 
	C117.197639,124.368820 117.850220,123.881157 118.970718,123.474152 
	C121.686096,123.725182 123.662666,123.976578 125.639595,123.979439 
	C146.398270,124.009460 167.156998,123.999741 188.389633,123.995399 
	C211.528000,123.945961 234.192459,123.902122 256.926453,123.928436 
	C256.996002,123.998581 257.134186,124.139771 257.099182,124.598419 
	C257.030823,135.252609 256.997467,145.448166 256.502930,155.713745 
	C250.323532,155.863205 244.605392,155.942627 238.426422,155.990570 
	C221.784729,155.987198 205.603836,156.015289 188.929764,156.029846 
	C183.295883,156.057877 178.155167,156.099411 172.753632,156.100311 
	C172.316833,156.056458 172.140869,156.053207 171.506561,155.956512 
	C157.708527,155.540863 144.368820,155.218674 131.029129,154.896469 
	C131.029129,154.896469 131.018524,154.966827 130.903778,154.689911 
	C130.189163,154.224747 129.589310,154.036484 128.989456,153.848236 
z"/>
<path fill="#87DAF7" opacity="1.000000" stroke="none" 
	d="
M256.964142,155.643707 
	C256.997467,145.448166 257.030823,135.252609 257.554047,124.556671 
	C280.864929,123.999222 303.685883,123.942177 326.937439,123.886871 
	C349.231110,123.851891 371.094177,123.815178 393.296143,123.842560 
	C394.320038,123.855743 395.005127,123.804832 395.690186,123.753929 
	C395.786133,123.967651 395.882080,124.181381 396.085022,124.730217 
	C396.128052,128.223358 395.702972,131.423599 396.066193,134.531723 
	C397.266235,144.801300 387.019226,156.152054 374.933655,155.998901 
	C364.283936,155.863953 353.630920,155.989349 342.245178,156.045517 
	C341.330048,156.110229 341.149017,156.129211 340.502686,156.095917 
	C334.887634,156.081024 329.737915,156.118393 324.149048,156.098709 
	C307.537964,156.093674 291.365967,156.145691 274.718384,156.128052 
	C268.504150,156.100327 262.765503,156.142288 257.015625,156.048599 
	C257.004333,155.912949 256.964142,155.643707 256.964142,155.643707 
z"/>
<path fill="#BEE9FA" opacity="1.000000" stroke="none" 
	d="
M326.506866,123.885132 
	C303.685883,123.942177 280.864929,123.999222 257.589050,124.098022 
	C257.134186,124.139771 256.996002,123.998581 256.970825,123.474663 
	C256.952637,95.022545 256.959625,67.094353 256.966644,39.166153 
	C257.482758,39.416065 257.998871,39.665977 258.885437,40.251740 
	C259.476746,40.843941 259.756378,40.973164 260.094757,40.975262 
	C260.094757,40.975262 260.017883,40.974056 260.093384,41.271927 
	C273.075928,57.514393 286.005188,73.441086 298.882629,89.409584 
	C308.126587,100.872490 317.301270,112.391281 326.506866,123.885132 
z"/>
<path fill="#FEFFFF" opacity="1.000000" stroke="none" 
	d="
M256.682281,39.104225 
	C256.959625,67.094353 256.952637,95.022545 256.901245,123.404510 
	C234.192459,123.902122 211.528000,123.945961 188.509644,123.673210 
	C188.934067,122.277550 189.661652,121.157326 190.498199,120.125435 
	C210.533051,95.412079 230.590347,70.716919 250.591400,45.976276 
	C251.571274,44.764198 252.077621,43.169296 252.804474,41.752655 
	C252.804459,41.752655 252.899475,41.803280 253.205353,41.817814 
	C253.980133,41.127872 254.449066,40.423393 254.917999,39.718918 
	C255.411301,39.493378 255.904602,39.267841 256.682281,39.104225 
z"/>
<path fill="#87D9F7" opacity="1.000000" stroke="none" 
	d="
M252.452103,41.623672 
	C252.077621,43.169296 251.571274,44.764198 250.591400,45.976276 
	C230.590347,70.716919 210.533051,95.412079 190.498199,120.125435 
	C189.661652,121.157326 188.934067,122.277550 188.035706,123.678818 
	C167.156998,123.999741 146.398270,124.009460 125.639595,123.979439 
	C123.662666,123.976578 121.686096,123.725182 119.359764,123.371811 
	C153.320328,101.969254 187.613510,80.756470 221.951233,59.616062 
	C231.935272,53.469276 242.046692,47.529404 252.452103,41.623672 
z"/>
<path fill="#01BCF1" opacity="1.000000" stroke="none" 
	d="
M326.937439,123.886871 
	C317.301270,112.391281 308.126587,100.872490 298.882629,89.409584 
	C286.005188,73.441086 273.075928,57.514393 260.094818,41.233521 
	C263.850891,42.941925 267.796356,44.798244 271.492493,47.061672 
	C296.604523,62.439667 321.686310,77.867424 346.732239,93.352959 
	C361.988251,102.785538 377.162842,112.349892 392.676727,122.287567 
	C392.972076,123.072868 392.964661,123.425667 392.957275,123.778458 
	C371.094177,123.815178 349.231110,123.851891 326.937439,123.886871 
z"/>
<path fill="#FFB844" opacity="1.000000" stroke="none" 
	d="
M150.938156,354.992493 
	C150.947556,338.262329 150.926880,321.532104 150.981003,304.802094 
	C151.003036,297.989441 154.086014,295.042969 160.988602,295.001617 
	C164.301453,294.981750 167.614395,294.979095 171.425110,295.040161 
	C171.922897,295.111694 172.088730,295.250977 172.053375,295.694763 
	C171.961044,318.106476 171.904083,340.074402 171.444504,362.097626 
	C159.865112,364.487152 154.419006,362.824219 150.938156,354.992493 
z"/>
<path fill="#FF7600" opacity="1.000000" stroke="none" 
	d="
M150.556549,355.163269 
	C154.419006,362.824219 159.865112,364.487152 171.519791,362.344025 
	C172.052567,362.697632 172.107437,362.860168 172.091370,363.484009 
	C172.058136,369.280212 172.095840,374.615112 172.031281,380.158569 
	C171.929031,380.367126 171.833862,380.821838 171.375717,380.823517 
	C156.601425,380.750488 142.285278,380.675781 127.969131,380.601044 
	C121.213531,376.166840 118.866005,370.475281 121.284050,362.861176 
	C122.613472,358.674988 125.496323,355.949890 130.458237,355.944641 
	C137.030670,355.937683 143.602722,355.555176 150.556549,355.163269 
z"/>
<path fill="#6B1472" opacity="1.000000" stroke="none" 
	d="
M128.094070,380.938232 
	C142.285278,380.675781 156.601425,380.750488 171.434341,381.301086 
	C171.900955,395.782440 171.850800,409.787933 171.800644,423.793396 
	C171.137436,423.774017 170.474243,423.754669 169.494492,423.651123 
	C166.737747,420.858398 164.388794,418.060638 161.841568,415.456848 
	C150.665390,404.032379 139.431793,392.664093 128.094070,380.938232 
z"/>
<path fill="#6B1472" opacity="1.000000" stroke="none" 
	d="
M131.049530,155.248108 
	C144.368820,155.218674 157.708527,155.540863 171.522491,156.421143 
	C171.943634,170.312088 171.890488,183.644958 171.837341,196.977844 
	C158.643204,183.901077 145.443115,170.830292 132.275574,157.726822 
	C131.719147,157.173096 131.464920,156.315689 131.049530,155.248108 
z"/>
<path fill="#81A6BE" opacity="1.000000" stroke="none" 
	d="
M171.892456,197.444824 
	C171.890488,183.644958 171.943634,170.312088 171.980835,156.514572 
	C172.140869,156.053207 172.316833,156.056458 172.749573,156.557312 
	C173.004044,169.679092 173.014481,182.303284 172.996948,194.927444 
	C172.950577,228.313217 172.892090,261.698975 172.647659,295.111206 
	C172.456894,295.137665 172.088730,295.250977 172.088730,295.250977 
	C172.088730,295.250977 171.922897,295.111694 171.880997,295.011688 
	C171.875244,262.578400 171.911407,230.245102 171.892456,197.444824 
z"/>
<path fill="#16C0F2" opacity="1.000000" stroke="none" 
	d="
M393.296112,123.842560 
	C392.964661,123.425667 392.972076,123.072868 392.983704,122.455208 
	C393.799286,122.557106 394.610687,122.923874 395.556122,123.522285 
	C395.005127,123.804832 394.320038,123.855743 393.296112,123.842560 
z"/>
<path fill="#87D9F7" opacity="1.000000" stroke="none" 
	d="
M254.598846,39.840981 
	C254.449066,40.423393 253.980133,41.127872 253.179016,41.864765 
	C253.324432,41.252468 253.802048,40.607758 254.598846,39.840981 
z"/>
<path fill="#6B1472" opacity="1.000000" stroke="none" 
	d="
M129.192673,154.084106 
	C129.589310,154.036484 130.189163,154.224747 130.939178,154.693420 
	C130.524857,154.755890 129.960373,154.537933 129.192673,154.084106 
z"/>
<path fill="#01BCF1" opacity="1.000000" stroke="none" 
	d="
M260.178894,40.674557 
	C259.756378,40.973164 259.476746,40.843941 259.162842,40.369781 
	C259.467529,40.225933 259.865265,40.299892 260.178894,40.674557 
z"/>
<path fill="#FF9B00" opacity="1.000000" stroke="none" 
	d="
M342.165710,294.926147 
	C345.484802,294.950745 348.859192,295.372162 352.111694,294.918854 
	C359.307678,293.915955 363.051575,299.548370 363.041046,305.738800 
	C363.013092,322.170288 362.982819,338.601807 362.739899,355.732361 
	C357.471680,363.173401 351.010254,364.937439 342.102234,361.525940 
	C342.006439,339.092194 341.974182,317.122589 342.025330,295.123352 
	C342.108734,295.093781 342.165710,294.926147 342.165710,294.926147 
z"/>
<path fill="#DA6100" opacity="1.000000" stroke="none" 
	d="
M342.165771,361.990051 
	C351.010254,364.937439 357.471680,363.173401 362.769318,356.198059 
	C368.669891,355.976257 374.327515,355.995239 379.985107,355.997803 
	C390.556946,356.002594 394.694397,360.904327 392.949280,371.370880 
	C391.907806,377.617249 388.283417,380.749847 381.518585,380.803833 
	C368.706299,380.906067 355.892670,380.840881 342.577820,380.800507 
	C342.076019,380.755737 341.931671,380.761658 341.966614,380.318787 
	C342.056274,373.913940 342.111023,367.951996 342.165771,361.990051 
z"/>
<path fill="#6DA6A1" opacity="1.000000" stroke="none" 
	d="
M340.967987,156.148193 
	C341.149017,156.129211 341.330048,156.110229 341.783264,156.104279 
	C342.055786,202.080017 342.056061,248.042740 342.111023,294.465820 
	C342.165710,294.926147 342.108734,295.093781 341.832916,295.081787 
	C341.557098,295.069794 341.164642,295.031616 341.111237,294.563721 
	C341.027893,248.113281 340.997925,202.130737 340.967987,156.148193 
z"/>
<path fill="#4D6E88" opacity="1.000000" stroke="none" 
	d="
M448.767822,423.424866 
	C447.999603,423.729095 446.848846,423.975647 445.698151,423.975464 
	C411.440063,423.969238 377.182007,423.938538 342.480499,423.614685 
	C342.037079,423.317596 342.114044,422.878815 342.114044,422.878815 
	C375.381592,422.919220 408.649170,422.955078 441.916687,423.010498 
	C444.073029,423.014099 446.229095,423.168121 448.767822,423.424866 
z"/>
<path fill="#6CA7A1" opacity="1.000000" stroke="none" 
	d="
M342.073181,422.420380 
	C342.114044,422.878815 342.037079,423.317596 342.017242,423.538879 
	C341.488190,423.683563 340.978973,423.606995 340.573792,422.999878 
	C340.842743,408.631989 341.007660,394.794647 341.365906,380.922180 
	C341.559235,380.887054 341.931671,380.761658 341.931671,380.761658 
	C341.931671,380.761658 342.076019,380.755737 342.119568,380.813354 
	C342.119537,394.567932 342.075958,408.264954 342.073181,422.420380 
z"/>
<path fill="#46CAF2" opacity="1.000000" stroke="none" 
	d="
M172.838425,295.084747 
	C172.892090,261.698975 172.950577,228.313217 172.996948,194.927444 
	C173.014481,182.303284 173.004044,169.679092 173.010406,156.597931 
	C178.155167,156.099411 183.295883,156.057877 188.924866,156.495041 
	C189.409653,224.954330 189.397400,292.934937 189.407913,360.915527 
	C189.411102,381.575226 189.477097,402.234924 189.357483,422.867004 
	C189.200623,422.839386 188.899384,422.942841 188.899384,422.942810 
	C183.916367,423.282806 178.933350,423.622772 173.480927,423.481537 
	C173.007538,410.572662 173.040375,398.144745 172.960953,385.717560 
	C172.948654,383.793365 172.422211,381.872437 172.133545,379.950012 
	C172.095840,374.615112 172.058136,369.280212 172.349976,363.157593 
	C172.732498,339.941498 172.785461,317.513123 172.838425,295.084747 
z"/>
<path fill="#00CE8E" opacity="1.000000" stroke="none" 
	d="
M192.999817,475.858002 
	C183.507202,475.856873 174.512192,475.736938 165.523087,475.914917 
	C162.028885,475.984100 160.839676,474.750366 160.940491,471.283203 
	C161.143707,464.294769 161.103745,457.294250 160.956772,450.303070 
	C160.891479,447.196991 161.792587,445.785400 165.167160,445.812958 
	C179.987381,445.933929 194.809647,445.928406 209.629990,445.814758 
	C212.891861,445.789764 214.038666,446.988495 213.970215,450.202271 
	C213.817734,457.359833 213.797867,464.526031 213.977295,471.682312 
	C214.062515,475.081451 212.581512,475.986084 209.485504,475.897308 
	C204.160934,475.744690 198.828766,475.857056 192.999817,475.858002 
z"/>
<path fill="#009BE8" opacity="1.000000" stroke="none" 
	d="
M274.127747,423.199280 
	C268.773010,423.472229 263.418243,423.745178 257.610199,424.036255 
	C257.156891,424.054413 256.986328,423.612213 256.959930,422.904907 
	C256.974915,408.518890 257.016296,394.840240 257.511108,381.077271 
	C263.626740,381.035706 269.289001,381.078461 275.003723,381.376343 
	C275.144135,381.781250 275.232025,381.931030 275.282410,382.542908 
	C275.269806,395.975067 275.294739,408.945129 275.193726,422.172668 
	C275.055176,422.620819 275.042572,422.811493 274.802673,423.043335 
	C274.575317,423.084534 274.127747,423.199280 274.127747,423.199280 
z"/>
<path fill="#46CAF2" opacity="1.000000" stroke="none" 
	d="
M257.057678,381.161560 
	C257.016296,394.840240 256.974915,408.518890 256.886719,422.679504 
	C251.247391,423.124298 245.654892,423.087189 239.502274,422.984161 
	C238.942169,422.918274 238.740295,423.013062 238.794876,422.546936 
	C238.818146,408.725739 238.786835,395.370636 238.846954,381.811157 
	C238.938370,381.606781 239.008163,381.164459 239.470795,381.092804 
	C245.605911,380.949707 251.278381,380.878265 256.974243,380.896515 
	C256.997650,380.986176 257.057678,381.161560 257.057678,381.161560 
z"/>
<path fill="#BCC598" opacity="1.000000" stroke="none" 
	d="
M239.043884,422.963989 
	C237.559158,423.339752 235.973724,423.950409 234.386124,423.956116 
	C219.900421,424.008179 205.414352,423.954926 190.476715,423.643738 
	C190.025024,423.355042 190.068085,422.872559 190.528900,422.912720 
	C206.906570,422.972961 222.823441,422.993011 238.740295,423.013062 
	C238.740295,423.013062 238.942169,422.918274 239.043884,422.963989 
z"/>
<path fill="#7DA5BA" opacity="1.000000" stroke="none" 
	d="
M172.031281,380.158569 
	C172.422211,381.872437 172.948654,383.793365 172.960953,385.717560 
	C173.040375,398.144745 173.007538,410.572662 173.017563,423.460571 
	C172.818222,423.912659 172.612839,423.904480 172.104065,423.844849 
	C171.850800,409.787933 171.900955,395.782440 171.892487,381.299408 
	C171.833862,380.821838 171.929031,380.367126 172.031281,380.158569 
z"/>
<path fill="#A8DDC0" opacity="1.000000" stroke="none" 
	d="
M190.068085,422.872559 
	C190.068085,422.872559 190.025024,423.355042 190.009995,423.595520 
	C189.685623,423.731720 189.423798,423.556396 189.054443,423.126465 
	C188.899384,422.942841 189.200623,422.839386 189.494278,422.823425 
	C189.787933,422.807434 190.068085,422.872559 190.068085,422.872559 
z"/>
<path fill="#009BE8" opacity="1.000000" stroke="none" 
	d="
M341.172546,380.957336 
	C341.007660,394.794647 340.842743,408.631989 340.406189,422.797577 
	C335.369049,423.392151 330.603546,423.658478 325.318054,423.585388 
	C324.698853,423.078644 324.599670,422.911224 324.523315,422.292358 
	C324.560120,333.279175 324.574158,244.717484 324.588165,156.155792 
	C329.737915,156.118393 334.887634,156.081024 340.502686,156.095917 
	C340.997925,202.130737 341.027893,248.113281 341.053772,295.027130 
	C341.090637,324.291412 341.131592,352.624359 341.172546,380.957336 
z"/>
<path fill="#00BC5E" opacity="1.000000" stroke="none" 
	d="
M285.213135,478.040283 
	C281.364532,478.388428 279.905579,477.014771 279.992798,473.483673 
	C280.165558,466.487946 280.134125,459.483276 280.003479,452.485748 
	C279.944519,449.328430 281.048340,447.991180 284.337189,448.003571 
	C306.170166,448.085785 328.003662,448.073120 349.836792,448.016693 
	C352.775116,448.009094 354.076111,449.073944 354.029938,452.113068 
	C353.921112,459.278015 353.837372,466.450745 354.059021,473.610535 
	C354.188049,477.778473 351.892548,478.083252 348.685242,478.073517 
	C327.685455,478.009735 306.685394,478.041138 285.213135,478.040283 
z"/>
<path fill="#98D771" opacity="1.000000" stroke="none" 
	d="
M274.461426,423.428101 
	C274.127747,423.199280 274.575317,423.084534 275.073975,423.029602 
	C275.753265,422.959167 275.933868,422.943665 276.575378,422.952698 
	C292.668823,422.926575 308.301331,422.875946 323.948608,423.060791 
	C323.963348,423.296326 323.976868,423.768066 323.976868,423.768066 
	C307.582947,423.731018 291.189026,423.693970 274.461426,423.428101 
z"/>
<path fill="#87C087" opacity="1.000000" stroke="none" 
	d="
M324.207764,423.799774 
	C323.976868,423.768066 323.963348,423.296326 324.079102,422.962952 
	C324.194855,422.629608 324.500488,422.743835 324.500488,422.743835 
	C324.599670,422.911224 324.698853,423.078644 324.851349,423.531830 
	C324.904663,423.817627 324.438690,423.831482 324.207764,423.799774 
z"/>
<path fill="#FFEE93" opacity="1.000000" stroke="none" 
	d="
M190.528900,422.912720 
	C190.068085,422.872559 189.787933,422.807434 189.651123,422.851013 
	C189.477097,402.234924 189.411102,381.575226 189.407913,360.915527 
	C189.397400,292.934937 189.409653,224.954330 189.418060,156.508545 
	C205.603836,156.015289 221.784729,155.987198 238.425629,156.456985 
	C238.885788,173.619659 238.867569,190.284485 238.890091,206.949249 
	C238.930191,236.609680 238.994934,266.270081 238.849091,296.140259 
	C238.080902,296.867523 237.512955,297.385040 236.646210,298.064087 
	C230.815002,302.427521 229.139648,308.288086 229.100159,314.895142 
	C229.018860,328.496216 228.892532,342.096954 228.364059,355.683594 
	C219.570267,355.712708 217.007843,358.255463 216.998901,366.532532 
	C216.996933,368.351562 216.944687,370.172607 217.011475,371.989197 
	C217.204758,377.248596 220.824417,380.836456 226.131332,380.987976 
	C230.095566,381.101166 234.062744,381.110657 238.120941,381.331360 
	C238.352356,381.713013 238.533112,381.886047 238.755539,382.015533 
	C238.786835,395.370636 238.818146,408.725739 238.794876,422.546936 
	C222.823441,422.993011 206.906570,422.972961 190.528900,422.912720 
z"/>
<path fill="#46CAF2" opacity="1.000000" stroke="none" 
	d="
M239.049347,295.930481 
	C238.994934,266.270081 238.930191,236.609680 238.890091,206.949249 
	C238.867569,190.284485 238.885788,173.619659 238.886429,156.488449 
	C244.605392,155.942627 250.323532,155.863205 256.502930,155.713745 
	C256.964142,155.643707 257.004333,155.912949 257.007812,156.503860 
	C256.983002,202.997757 256.954681,248.900757 256.492249,294.885193 
	C253.370880,295.032684 250.683640,295.098694 247.760666,295.109589 
	C247.524948,295.054474 247.049484,295.145782 246.632294,295.098450 
	C243.826523,295.344238 241.437927,295.637360 239.049347,295.930481 
z"/>
<path fill="#FFE131" opacity="1.000000" stroke="none" 
	d="
M324.523315,422.292358 
	C324.500488,422.743835 324.194855,422.629608 324.064362,422.727448 
	C308.301331,422.875946 292.668823,422.926575 276.483429,422.751282 
	C275.823456,422.225372 275.619812,422.021973 275.319672,421.915222 
	C275.294739,408.945129 275.269806,395.975067 275.458893,382.439697 
	C275.840118,381.649689 275.931335,381.397430 276.413269,381.063354 
	C280.347534,380.988922 283.816101,381.015015 287.282440,380.938782 
	C293.811188,380.795166 296.809692,377.715240 296.950439,371.079742 
	C296.978455,369.759247 296.959686,368.437653 296.957214,367.116577 
	C296.939728,357.720398 294.297241,355.137024 284.840576,354.744324 
	C284.892059,340.955322 284.974396,327.656464 284.897980,314.358490 
	C284.860077,307.758728 283.005371,301.885712 276.971649,297.705933 
	C276.474579,297.152771 276.146057,296.874847 275.822144,296.441772 
	C275.770386,296.057983 275.627502,295.916168 275.284821,295.815857 
	C275.171539,295.770508 275.073425,295.993988 275.139160,295.529663 
	C275.201263,248.776154 275.197601,202.486938 275.193970,156.197723 
	C291.365967,156.145691 307.537964,156.093674 324.149048,156.098724 
	C324.574158,244.717484 324.560120,333.279175 324.523315,422.292358 
z"/>
<path fill="#009BE8" opacity="1.000000" stroke="none" 
	d="
M274.718384,156.128052 
	C275.197601,202.486938 275.201263,248.776154 274.748688,295.415314 
	C271.848969,295.560913 269.405487,295.356598 266.718353,295.095886 
	C266.474701,295.039520 265.991730,295.164978 265.548279,295.091400 
	C262.434113,295.057434 259.763428,295.097046 257.079437,295.039307 
	C257.066132,294.941956 256.926361,294.803741 256.926361,294.803741 
	C256.954681,248.900757 256.983002,202.997757 257.019104,156.639511 
	C262.765503,156.142288 268.504150,156.100327 274.718384,156.128052 
z"/>
<path fill="#A2CEAF" opacity="1.000000" stroke="none" 
	d="
M172.647659,295.111206 
	C172.785461,317.513123 172.732498,339.941498 172.420929,362.696289 
	C172.107437,362.860168 172.052567,362.697632 171.922394,362.288727 
	C171.904083,340.074402 171.961044,318.106476 172.053375,295.694763 
	C172.088730,295.250977 172.456894,295.137665 172.647659,295.111206 
z"/>
<path fill="#7EB593" opacity="1.000000" stroke="none" 
	d="
M341.365906,380.922180 
	C341.131592,352.624359 341.090637,324.291412 341.107178,295.495026 
	C341.164642,295.031616 341.557098,295.069794 341.749512,295.111389 
	C341.974182,317.122589 342.006439,339.092194 342.102234,361.525940 
	C342.111023,367.951996 342.056274,373.913940 341.966614,380.318787 
	C341.931671,380.761658 341.559235,380.887054 341.365906,380.922180 
z"/>
<path fill="#DB6201" opacity="1.000000" stroke="none" 
	d="
M284.805969,355.234863 
	C294.297241,355.137024 296.939728,357.720398 296.957214,367.116577 
	C296.959686,368.437653 296.978455,369.759247 296.950439,371.079742 
	C296.809692,377.715240 293.811188,380.795166 287.282440,380.938782 
	C283.816101,381.015015 280.347534,380.988922 276.164307,381.022827 
	C275.282867,381.064850 275.117035,381.093048 274.951233,381.121216 
	C269.289001,381.078461 263.626740,381.035706 257.511108,381.077271 
	C257.057678,381.161560 256.997650,380.986176 256.992371,380.439850 
	C256.955383,371.843140 256.923676,363.792725 256.931580,355.589294 
	C256.971191,355.436249 257.069397,355.135712 257.441284,355.140045 
	C260.456848,356.817352 263.572754,358.046570 265.647278,360.254303 
	C270.175842,365.073761 275.800995,365.183197 279.969421,360.069336 
	C281.402191,358.311615 283.183746,356.838165 284.805969,355.234863 
z"/>
<path fill="#B2D172" opacity="1.000000" stroke="none" 
	d="
M275.003723,381.376343 
	C275.117035,381.093048 275.282867,381.064850 275.697632,381.077209 
	C275.931335,381.397430 275.840118,381.649689 275.496399,381.977631 
	C275.232025,381.931030 275.144135,381.781250 275.003723,381.376343 
z"/>
<path fill="#B2D172" opacity="1.000000" stroke="none" 
	d="
M275.193726,422.172668 
	C275.619812,422.021973 275.823456,422.225372 276.022522,422.726746 
	C275.933868,422.943665 275.753265,422.959167 275.301331,422.988403 
	C275.042572,422.811493 275.055176,422.620819 275.193726,422.172668 
z"/>
<path fill="#FF7600" opacity="1.000000" stroke="none" 
	d="
M256.891968,355.742340 
	C256.923676,363.792725 256.955383,371.843140 256.968964,380.350189 
	C251.278381,380.878265 245.605911,380.949707 239.225967,381.046021 
	C238.518509,381.070862 238.028610,381.166290 238.028610,381.166321 
	C234.062744,381.110657 230.095566,381.101166 226.131332,380.987976 
	C220.824417,380.836456 217.204758,377.248596 217.011475,371.989197 
	C216.944687,370.172607 216.996933,368.351562 216.998901,366.532532 
	C217.007843,358.255463 219.570267,355.712708 228.707336,355.819275 
	C230.849335,357.116058 232.459595,358.074982 233.565430,359.441956 
	C238.522919,365.570343 243.439789,365.477448 248.956512,359.750458 
	C250.897202,357.735809 254.207199,357.040222 256.891968,355.742340 
z"/>
<path fill="#DCE7A5" opacity="1.000000" stroke="none" 
	d="
M238.120941,381.331360 
	C238.028610,381.166290 238.518509,381.070862 238.763336,381.117676 
	C239.008163,381.164459 238.938370,381.606781 238.846954,381.811157 
	C238.533112,381.886047 238.352356,381.713013 238.120941,381.331360 
z"/>
<path fill="#FEB744" opacity="1.000000" stroke="none" 
	d="
M256.931580,355.589294 
	C254.207199,357.040222 250.897202,357.735809 248.956512,359.750458 
	C243.439789,365.477448 238.522919,365.570343 233.565430,359.441956 
	C232.459595,358.074982 230.849335,357.116058 229.128052,355.833557 
	C228.892532,342.096954 229.018860,328.496216 229.100159,314.895142 
	C229.139648,308.288086 230.815002,302.427521 236.686432,298.540710 
	C237.038528,308.943695 237.047134,319.031616 237.065674,329.119568 
	C237.091141,342.967712 242.963898,348.924683 256.897949,349.391663 
	C256.965179,349.603180 257.117920,350.020020 257.086487,350.443237 
	C257.059814,352.289520 257.064606,353.712616 257.069397,355.135712 
	C257.069397,355.135712 256.971191,355.436249 256.931580,355.589294 
z"/>
<path fill="#8E8A93" opacity="1.000000" stroke="none" 
	d="
M256.830719,349.180115 
	C242.963898,348.924683 237.091141,342.967712 237.065674,329.119568 
	C237.047134,319.031616 237.038528,308.943695 236.985260,298.379150 
	C237.512955,297.385040 238.080902,296.867523 238.849091,296.140259 
	C241.437927,295.637360 243.826523,295.344238 246.650879,295.313171 
	C247.086670,295.575195 247.212051,295.987885 247.165878,296.455078 
	C247.102539,307.521576 247.073349,318.120850 247.071930,328.720123 
	C247.070786,337.308685 248.384048,338.699310 256.988586,339.760468 
	C256.947937,343.190308 256.889313,346.185211 256.830719,349.180115 
z"/>
<path fill="#FFB844" opacity="1.000000" stroke="none" 
	d="
M256.970612,339.325531 
	C248.384048,338.699310 247.070786,337.308685 247.071930,328.720123 
	C247.073349,318.120850 247.102539,307.521576 247.316406,296.338196 
	C247.702850,295.581116 247.863937,295.384674 247.996384,295.164703 
	C250.683640,295.098694 253.370880,295.032684 256.492249,294.885193 
	C256.926361,294.803741 257.066132,294.941956 257.047119,295.498779 
	C257.081146,310.348602 257.134155,324.641602 257.148621,339.040955 
	C257.110046,339.147308 256.970612,339.325531 256.970612,339.325531 
z"/>
<path fill="#EFB150" opacity="1.000000" stroke="none" 
	d="
M247.760666,295.109589 
	C247.863937,295.384674 247.702850,295.581116 247.362579,295.870972 
	C247.212051,295.987885 247.086670,295.575195 247.068085,295.360474 
	C247.049484,295.145782 247.524948,295.054474 247.760666,295.109589 
z"/>
<path fill="#FE9B00" opacity="1.000000" stroke="none" 
	d="
M257.441284,355.140045 
	C257.064606,353.712616 257.059814,352.289520 257.485718,350.434967 
	C272.037781,348.012817 276.958496,342.436401 276.989746,328.470459 
	C277.012482,318.307312 277.088135,308.144257 277.140198,297.981171 
	C283.005371,301.885712 284.860077,307.758728 284.897980,314.358490 
	C284.974396,327.656464 284.892059,340.955322 284.840576,354.744324 
	C283.183746,356.838165 281.402191,358.311615 279.969421,360.069336 
	C275.800995,365.183197 270.175842,365.073761 265.647278,360.254303 
	C263.572754,358.046570 260.456848,356.817352 257.441284,355.140045 
z"/>
<path fill="#59555C" opacity="1.000000" stroke="none" 
	d="
M276.971649,297.705933 
	C277.088135,308.144257 277.012482,318.307312 276.989746,328.470459 
	C276.958496,342.436401 272.037781,348.012817 257.517151,350.011780 
	C257.117920,350.020020 256.965179,349.603180 256.897949,349.391663 
	C256.889313,346.185211 256.947937,343.190308 256.988586,339.760468 
	C256.970612,339.325531 257.110046,339.147308 257.536865,339.087006 
	C261.776337,339.338623 264.890656,338.430176 266.355286,334.144867 
	C266.577850,333.635468 266.621887,333.308136 266.734741,332.518188 
	C266.781128,320.048340 266.758759,308.041046 266.824402,295.821472 
	C266.912384,295.609192 266.962006,295.152283 266.962006,295.152283 
	C269.405487,295.356598 271.848969,295.560913 274.682922,295.879639 
	C275.073425,295.993988 275.171539,295.770508 275.270447,295.980164 
	C275.424835,296.429291 275.574249,296.565002 275.817535,296.596893 
	C276.146057,296.874847 276.474579,297.152771 276.971649,297.705933 
z"/>
<path fill="#B2D172" opacity="1.000000" stroke="none" 
	d="
M275.822144,296.441772 
	C275.574249,296.565002 275.424835,296.429291 275.383728,296.025482 
	C275.627502,295.916168 275.770386,296.057983 275.822144,296.441772 
z"/>
<path fill="#FF9B00" opacity="1.000000" stroke="none" 
	d="
M266.176819,334.326904 
	C264.890656,338.430176 261.776337,339.338623 257.575439,338.980652 
	C257.134155,324.641602 257.081146,310.348602 257.060425,295.596130 
	C259.763428,295.097046 262.434113,295.057434 265.641052,295.261780 
	C266.317383,295.730743 266.503784,295.906738 266.736389,296.033752 
	C266.758759,308.041046 266.781128,320.048340 266.581726,332.711731 
	C266.192932,333.667267 266.131897,333.986969 266.176819,334.326904 
z"/>
<path fill="#DB8F1D" opacity="1.000000" stroke="none" 
	d="
M266.824402,295.821472 
	C266.503784,295.906738 266.317383,295.730743 266.084503,295.335388 
	C265.991730,295.164978 266.474701,295.039520 266.718353,295.095886 
	C266.962006,295.152283 266.912384,295.609192 266.824402,295.821472 
z"/>
<path fill="#DB8F1D" opacity="1.000000" stroke="none" 
	d="
M266.355286,334.144867 
	C266.131897,333.986969 266.192932,333.667267 266.512939,333.174316 
	C266.621887,333.308136 266.577850,333.635468 266.355286,334.144867 
z"/>
</svg>