<svg width="512" height="512" xmlns="http://www.w3.org/2000/svg" xml:space="preserve" enable-background="new 0 0 512 512" version="1.1">

 <g>
  <title>Layer 1</title>
  <path id="svg_1" d="m1,289c0,-21.35422 0,-42.70845 0.34431,-64.203c0.77269,-0.80857 1.46209,-1.43074 1.58943,-2.15213c1.40653,-7.96811 2.33087,-16.04239 4.14028,-23.91449c6.2516,-27.19852 16.63672,-52.81574 31.35998,-76.50251c14.17483,-22.80443 31.68805,-42.83105 52.09792,-60.38035c13.94578,-11.99119 28.95812,-22.35569 45.11849,-30.99843c27.40574,-14.65689 56.43313,-24.43445 87.44648,-27.92767c0.69767,-0.07859 1.27152,-1.25637 1.90311,-1.92142c21.02089,0 42.04178,0 63.20245,0.34856c0.97742,0.78113 1.76987,1.423 2.6594,1.61494c13.86532,2.99186 27.88397,5.39191 41.58316,9.00544c17.79895,4.69495 34.45743,12.36028 50.50644,21.42405c16.30804,9.21008 31.75076,19.72652 45.23452,32.61291c11.64435,11.12852 22.5047,23.19793 32.74744,35.64486c16.32465,19.83759 28.11118,42.48211 36.92688,66.51111c6.5051,17.73095 11.55332,35.9604 13.22156,54.93707c0.06015,0.6846 1.25311,1.26964 1.91815,1.90106c0,16.68756 0,33.37512 -0.31036,50.40778c-1.75187,-1.03241 -3.2212,-2.38202 -4.6308,-3.79139c-46.3367,-46.32751 -92.6611,-92.66734 -139.02964,-138.96299c-1.45312,-1.45088 -3.35287,-2.45452 -5.02664,-3.66134c0.01777,0.00532 0.0062,0.04214 0.05182,-0.27925c-0.37903,-0.77017 -0.80368,-1.21896 -1.17877,-1.69182c0.04962,-0.02406 0.09479,0.07656 -0.06183,-0.20724c-0.53796,-0.47698 -0.91931,-0.67017 -1.51001,-1.09128c-14.0863,-17.88664 -31.80145,-30.11972 -54.10403,-32.97363c-16.51178,-2.1129 -33.42585,-1.08221 -50.62924,-1.49947c-12.77199,0.32775 -25.2804,-0.59671 -37.34291,1.3059c-49.16565,7.75479 -83.07752,48.07544 -83.30662,97.83912c-0.04676,10.15506 -0.12713,20.30997 -0.50032,30.58351c-10.20857,7.63537 -14.7154,17.49447 -13.62753,29.97669c1.02989,11.81686 7.51599,19.86169 17.01059,26.07843c0.08338,0.78339 0.21887,1.47321 0.63127,1.8873c11.08515,11.13043 22.17392,22.25766 33.35268,33.29367c0.93375,0.92178 2.50625,1.19656 3.91516,1.76401c0.32024,0.0975 0.37707,0.25109 0.25186,0.83572c0.35443,0.98199 0.7607,1.58105 1.46576,2.31097c2.39714,2.36085 4.49547,4.5908 6.74461,7.16349c1.23513,0.79693 2.31945,1.25113 3.53685,1.69925c0.33232,0.08819 0.39185,0.23794 0.24076,0.82812c1.09263,1.94861 2.0943,3.6709 3.4459,5.05023c8.8346,9.01587 17.74494,17.95749 26.51757,27.25727c-3.08272,2.26465 -5.82302,4.83789 -9.06835,5.99691c-7.56231,2.70081 -15.36769,4.72107 -23.43223,7.08115c-12.98511,3.6727 -25.62456,7.2399 -38.23717,10.89954c-18.40369,5.33996 -29.83979,17.30981 -34.19898,36.03183c-3.39306,14.57266 -6.89227,29.1206 -10.59987,43.50985c-5.81722,-4.68728 -11.88756,-8.71194 -16.83864,-13.82119c-11.69262,-12.06607 -23.59596,-24.05503 -34.05503,-37.15982c-15.98315,-20.02634 -28.00227,-42.48981 -36.52731,-66.74714c-6.17411,-17.56796 -11.31637,-35.36569 -13.03013,-54.0104c-0.0632,-0.68756 -1.25342,-1.27155 -1.91842,-1.90378z" fill="#96E8FF"/>
  <path id="svg_2" d="m363.9848,128.98675c1.69153,1.21213 3.59128,2.21577 5.0444,3.66665c46.36854,46.29565 92.69294,92.63548 139.02964,138.96299c1.4096,1.40937 2.87893,2.75898 4.6308,4.26001c0.31036,4.14814 0.31036,8.1727 -0.04285,12.33875c-0.77917,0.98385 -1.4072,1.78238 -1.6008,2.67514c-3.01364,13.89682 -5.45157,27.94272 -9.07083,41.67792c-4.70212,17.84475 -12.36835,34.54284 -21.50317,50.60959c-9.43811,16.60028 -20.1168,32.3673 -33.41147,45.98965c-11.5932,11.87888 -24.47373,22.50131 -36.85578,33.27917c-3.7489,-16.05999 -7.082,-31.81198 -11.20785,-47.35351c-3.76889,-14.19696 -12.79343,-24.76798 -26.57794,-29.67929c-14.80176,-5.27371 -30.18308,-8.92075 -45.62568,-13.50092c-6.61172,-2.08358 -12.89209,-4.00464 -19.21051,-5.79104c-12.02981,-3.40122 -15.36203,-7.39786 -16.23901,-20.25186c18.63025,-6.84308 34.12677,-17.53089 46.69742,-32.47455c8.31528,-9.88501 13.99563,-21.24375 19.37539,-32.96137c15.8332,0.38684 28.74369,-8.35547 33.41019,-22.26459c4.65262,-13.86767 -0.34271,-28.85437 -12.52231,-37.80392c-0.09851,-13.92418 0.06977,-27.40129 -0.23321,-40.86781c-0.15231,-6.771 -0.07431,-13.85732 -2.02915,-20.20728c-3.18838,-10.35698 -7.95599,-20.22778 -12.05728,-30.30373z" fill="#1ACFFC"/>
  <path id="svg_3" d="m327.10748,372.13623c15.12839,4.35684 30.50971,8.00388 45.31147,13.27759c13.78451,4.91131 22.80905,15.48233 26.57794,29.67929c4.12585,15.54153 7.45895,31.29352 10.86541,47.48385c-1.25872,1.42032 -2.15997,2.43436 -3.24478,3.18213c-17.16244,11.83088 -35.16064,22.16584 -54.61181,29.77079c-19.53479,7.63766 -39.64966,13.11191 -60.53751,15.56869c-0.88504,0.10407 -1.64822,1.24402 -2.4682,1.90143c-10.35422,0 -20.70847,0 -31.53137,-0.46863c-0.45377,-34.30832 -0.43881,-68.14798 -0.40686,-102.1087c0.01694,-0.12109 0.00302,-0.36524 0.45715,-0.32236c30.09714,-0.62411 53.03235,-13.49243 69.58856,-37.96408z" fill="#06BF51"/>
  <path id="svg_4" d="m257.0448,410.54376c-0.01498,33.83963 -0.02994,67.67929 -0.04486,101.98761c-10.35417,0.46863 -20.70839,0.46863 -31.33925,0.07007c-5.29657,-1.46124 -10.2802,-2.75687 -15.34271,-3.54663c-22.636,-3.53131 -44.23367,-10.5911 -64.50968,-20.95465c-14.56456,-7.44434 -28.15705,-16.79044 -42.18319,-25.28815c3.45202,-14.55893 6.95123,-29.10687 10.34429,-43.67953c4.35919,-18.72202 15.79529,-30.69187 34.19898,-36.03183c12.61261,-3.65964 25.25206,-7.22684 38.35019,-10.57758c17.40291,24.7547 40.8071,37.24527 70.52623,38.02069z" fill="#0EE272"/>
  <path id="svg_9" d="m257.06177,410.42267c-29.7361,-0.65433 -53.14029,-13.1449 -70.18555,-37.96375c7.59387,-2.61789 15.39925,-4.63815 22.96156,-7.33896c3.24533,-1.15902 5.98563,-3.73226 9.3709,-6.15341c1.58955,-4.65005 2.76358,-8.80969 4.31131,-12.90307c9.82764,1.68982 19.27591,3.34744 28.73831,4.9201c3.75275,0.62366 4.81454,-1.20026 4.80383,-4.83725c-0.12115,-41.13299 -0.10708,-82.26633 -0.11163,-123.57281c0.01761,-0.17324 0.07309,-0.51705 0.48877,-0.47055c26.4353,-4.79529 48.50946,-16.24697 64.13992,-38.73246c1.68173,4.66158 2.77088,8.89768 4.67163,12.7314c6.97098,14.06047 13.99912,28.2455 33.77469,27.09473c0,10.15398 -0.07885,19.93709 0.08719,29.71603c0.0242,1.42513 1.21802,2.8304 1.85697,4.6436c-1.6673,7.86716 -3.3209,15.33564 -4.97449,22.80408c-4.95838,11.79135 -10.63873,23.15009 -18.95401,33.0351c-12.57065,14.94366 -28.06717,25.63147 -47.07303,32.52356c-9.43552,1.8313 -18.12561,3.75818 -26.91278,4.99588c-6.3627,0.89618 -7.05722,1.12921 -7.05246,7.38192c0.01315,17.25354 0.04028,34.50708 0.06189,51.76062c0,0 0.01392,0.24415 -0.00302,0.36524z" fill="#FECDBE"/>
  <path id="svg_10" d="m257.02359,222.05647c0,0 -0.05548,0.34381 -0.50418,0.48772c-34.19412,6.21571 -68.3531,2.62228 -102.6277,4.0607c0,6.90649 0.09912,13.37939 -0.03931,19.84721c-0.07608,3.55571 -0.55208,7.10288 -1.22651,10.58214c-11.59195,-2.41612 -16.62552,-8.50108 -16.70447,-19.7585c-0.03838,-5.4723 -0.12674,-10.94429 -0.19246,-16.41641c0.06488,-10.15497 0.14525,-20.30988 0.19201,-30.46494c0.2291,-49.76368 34.14097,-90.08433 83.30662,-97.83912c12.06251,-1.90261 24.57092,-0.97815 37.33802,-0.85703c0.46179,43.78368 0.4599,87.07096 0.45798,130.35823z" fill="#555A66"/>
  <path id="svg_11" d="m257.43927,222.10297c-0.41376,-43.33377 -0.41187,-86.62105 -0.40509,-130.3572c16.73971,-0.07914 33.65378,-1.10983 50.16556,1.00307c22.30258,2.85391 40.01773,15.08699 54.27993,33.26183c0.75376,0.70636 1.12226,0.89662 1.49073,1.08688c0,0 -0.04517,-0.10062 -0.13147,0.24671c0.33243,0.79487 0.75113,1.2424 1.16983,1.68994c0,0 0.01157,-0.03682 -0.0062,-0.04214c4.08353,10.07064 8.85114,19.94144 12.03952,30.29842c1.95484,6.34996 1.87684,13.43628 2.02915,20.20728c0.30298,13.46652 0.1347,26.94363 0.14673,41.34449c-0.0318,6.08262 -0.02576,11.23734 -0.07129,16.39158c-0.10071,11.4012 -4.99161,17.41504 -16.16333,19.9237c-0.65262,-1.41446 -1.84644,-2.81973 -1.87064,-4.24486c-0.16604,-9.77894 -0.08719,-19.56205 -0.08719,-29.71603c-19.77557,1.15077 -26.80371,-13.03426 -33.77469,-27.09473c-1.90075,-3.83372 -2.9899,-8.06982 -4.67163,-12.7314c-15.63046,22.48549 -37.70462,33.93717 -64.13992,38.73246z" fill="#414952"/>
  <path id="svg_12" d="m153.00465,257.10599c0.29567,-3.55101 0.77167,-7.09818 0.84775,-10.65389c0.13843,-6.46782 0.03931,-12.94072 0.03931,-19.84721c34.2746,-1.43842 68.43358,2.15501 102.61009,-3.88748c0.45325,41.16259 0.43918,82.29593 0.56033,123.42892c0.01071,3.63699 -1.05108,5.46091 -4.80383,4.83725c-9.4624,-1.57266 -18.91067,-3.23028 -29.01436,-5.15356c-12.99705,-4.63776 -24.12033,-11.12793 -34.23041,-19.39945c0.08022,-0.2052 0.02069,-0.35495 -0.56215,-0.69604c-1.40144,-0.76093 -2.41928,-1.27503 -3.43713,-1.7891c-2.09834,-2.22994 -4.19667,-4.45989 -6.63663,-7.18097c-0.6848,-1.10528 -1.02795,-1.71948 -1.3711,-2.33364c0.07337,-0.20173 0.01654,-0.35532 -0.50772,-0.75144c-2.75908,-3.61532 -5.54726,-6.73684 -7.52712,-10.30667c-4.21196,-7.59448 -8.00383,-15.42197 -11.97998,-23.56277c-1.33707,-7.84058 -2.66205,-15.27225 -3.98705,-22.70395z" fill="#FEDECF"/>
  <path id="svg_13" d="m152.6259,257.03424c1.70375,7.50345 3.02873,14.93512 3.9149,22.85419c-6.14453,-0.7009 -11.85022,-1.88919 -17.55589,-3.07749c-9.6758,-5.99466 -16.1619,-14.03949 -17.19179,-25.85635c-1.08787,-12.48222 3.41896,-22.34132 13.62753,-29.97669c0.37403,5.35355 0.46239,10.82554 0.50077,16.29784c0.07895,11.25742 5.11252,17.34238 16.70448,19.7585z" fill="#FDCDBE"/>
  <path id="svg_14" d="m138.80371,277.03302c5.88687,0.96622 11.59256,2.15451 17.74916,3.26428c4.41498,7.65344 8.20685,15.48093 12.41881,23.07541c1.97986,3.56983 4.76804,6.69135 7.39395,10.31461c-1.07172,-0.27677 -2.64422,-0.55155 -3.57797,-1.47333c-11.17876,-11.03601 -22.26753,-22.16324 -33.35268,-33.29367c-0.4124,-0.41409 -0.54789,-1.10391 -0.63127,-1.8873z" fill="#22D0FB"/>
  <path id="svg_15" d="m188.94266,326.81555c10.18095,7.88654 21.30423,14.37671 33.92758,18.94824c-0.89798,4.39307 -2.07201,8.55271 -3.54859,12.86884c-9.18815,-8.80936 -18.09849,-17.75098 -26.93309,-26.76685c-1.3516,-1.37933 -2.35327,-3.10162 -3.4459,-5.05023z" fill="#21D0FB"/>
  <path id="svg_16" d="m185.16505,324.28818c0.86705,0.17132 1.88489,0.68542 3.15325,1.45239c-0.8338,-0.20126 -1.91812,-0.65546 -3.15325,-1.45239z" fill="#21D0FB"/>
  <path id="svg_17" d="m364.05438,128.71281c-0.46432,-0.12615 -0.88302,-0.57368 -1.26504,-1.34449c0.46136,0.12553 0.88601,0.57432 1.26504,1.34449z" fill="#1ACFFC"/>
  <path id="svg_18" d="m176.95468,314.81372c0.39499,0.23126 0.73814,0.84546 1.12412,1.81989c-0.36342,-0.23884 -0.76969,-0.8379 -1.12412,-1.81989z" fill="#22D0FB"/>
  <path id="svg_19" d="m362.81378,126.81376c-0.21185,0.09353 -0.58035,-0.09673 -1.12475,-0.57519c0.20544,-0.09499 0.58679,0.0982 1.12475,0.57519z" fill="#1ACFFC"/>
  <path id="svg_20" d="m257.51892,410.10031c-0.47574,-17.29642 -0.50287,-34.54996 -0.51602,-51.8035c-0.00476,-6.25271 0.68976,-6.48574 7.05246,-7.38192c8.78717,-1.2377 17.47726,-3.16458 26.58459,-4.84531c1.58078,12.65442 4.913,16.65106 16.94281,20.05228c6.31842,1.7864 12.59879,3.70746 19.21051,5.79101c-16.242,24.69501 -39.17721,37.56333 -69.27435,38.18744z" fill="#FEBEAA"/>
  <path id="svg_21" d="m361.96967,257.55627c11.18539,-2.9074 16.07629,-8.92124 16.177,-20.32244c0.04553,-5.15424 0.03949,-10.30896 0.14334,-15.94013c12.19403,8.02142 17.18936,23.00812 12.53674,36.87579c-4.6665,13.90912 -17.57699,22.65143 -33.41019,22.26459c1.23221,-7.54217 2.88581,-15.01065 4.55311,-22.87781z" fill="#FCBDAA"/>
 </g>
</svg>