<svg version="1.1" id="Layer_1" xmlns="http://www.w3.org/2000/svg" xmlns:xlink="http://www.w3.org/1999/xlink" x="0px" y="0px"
	 width="100%" viewBox="0 0 512 512" enable-background="new 0 0 512 512" xml:space="preserve">
<path fill="#96E8FF" opacity="1.000000" stroke="none" 
	d="
M1.000000,289.000000 
	C1.000000,267.645782 1.000000,246.291550 1.344307,224.796997 
	C2.116996,223.988434 2.806395,223.366257 2.933736,222.644867 
	C4.340273,214.676758 5.264607,206.602478 7.074020,198.730377 
	C13.325620,171.531860 23.710743,145.914642 38.433998,122.227875 
	C52.608829,99.423439 70.122047,79.396820 90.531921,61.847515 
	C104.477699,49.856327 119.490044,39.491829 135.650406,30.849092 
	C163.056152,16.192198 192.083542,6.414636 223.096893,2.921417 
	C223.794556,2.842834 224.368408,1.665050 225.000000,1.000002 
	C246.020889,1.000000 267.041779,1.000000 288.202454,1.348564 
	C289.179871,2.129693 289.972321,2.771555 290.861847,2.963499 
	C304.727173,5.955359 318.745819,8.355413 332.445007,11.968937 
	C350.243958,16.663891 366.902435,24.329224 382.951447,33.392990 
	C399.259491,42.603069 414.702209,53.119514 428.185974,66.005905 
	C439.830322,77.134415 450.690674,89.203827 460.933411,101.650764 
	C477.258057,121.488350 489.044586,144.132874 497.860291,168.161865 
	C504.365387,185.892822 509.413605,204.122269 511.081848,223.098938 
	C511.141998,223.783539 512.334961,224.368576 513.000000,225.000000 
	C513.000000,241.687561 513.000000,258.375122 512.689636,275.407776 
	C510.937775,274.375366 509.468445,273.025757 508.058838,271.616394 
	C461.722137,225.288879 415.397736,178.949051 369.029205,132.653397 
	C367.576080,131.202515 365.676331,130.198883 364.002563,128.992065 
	C364.020325,128.997375 364.008759,129.034195 364.054382,128.712814 
	C363.675354,127.942642 363.250702,127.493851 362.875610,127.020988 
	C362.925232,126.996925 362.970398,127.097549 362.813782,126.813751 
	C362.275818,126.336769 361.894470,126.143578 361.303772,125.722473 
	C347.217468,107.835831 329.502319,95.602753 307.199738,92.748840 
	C290.687958,90.635941 273.773895,91.666634 256.570496,91.249374 
	C243.798508,91.577118 231.290100,90.652664 219.227585,92.555267 
	C170.061935,100.310059 136.150070,140.630707 135.920975,190.394394 
	C135.874207,200.549454 135.793839,210.704361 135.420654,220.977905 
	C125.212082,228.613266 120.705254,238.472366 121.793121,250.954590 
	C122.823006,262.771454 129.309113,270.816284 138.803711,277.033020 
	C138.887085,277.816406 139.022583,278.506226 139.434982,278.920319 
	C150.520126,290.050751 161.608902,301.177979 172.787659,312.213989 
	C173.721405,313.135773 175.293915,313.410553 176.702820,313.977997 
	C177.023056,314.075500 177.079895,314.229095 176.954681,314.813721 
	C177.309113,315.795715 177.715378,316.394775 178.420441,317.124695 
	C180.817581,319.485535 182.915909,321.715485 185.165054,324.288177 
	C186.400177,325.085114 187.484497,325.539307 188.701904,325.987427 
	C189.034225,326.075623 189.093750,326.225372 188.942657,326.815552 
	C190.035294,328.764160 191.036957,330.486450 192.388565,331.865784 
	C201.223160,340.881653 210.133499,349.823273 218.906128,359.123047 
	C215.823410,361.387695 213.083115,363.960938 209.837784,365.119965 
	C202.275467,367.820770 194.470093,369.841034 186.405548,372.201111 
	C173.420441,375.873810 160.780991,379.441010 148.168381,383.100647 
	C129.764694,388.440613 118.328590,400.410461 113.969398,419.132477 
	C110.576340,433.705139 107.077133,448.253082 103.369530,462.642334 
	C97.552315,457.955048 91.481972,453.930389 86.530891,448.821136 
	C74.838272,436.755066 62.934933,424.766113 52.475857,411.661316 
	C36.492710,391.634979 24.473595,369.171509 15.948552,344.914185 
	C9.774443,327.346222 4.632181,309.548492 2.918416,290.903778 
	C2.855220,290.216217 1.665000,289.632233 1.000000,289.000000 
z"/>
<path fill="#1ACFFC" opacity="1.000000" stroke="none" 
	d="
M363.984802,128.986755 
	C365.676331,130.198883 367.576080,131.202515 369.029205,132.653397 
	C415.397736,178.949051 461.722137,225.288879 508.058838,271.616394 
	C509.468445,273.025757 510.937775,274.375366 512.689636,275.876404 
	C513.000000,280.024536 513.000000,284.049103 512.646790,288.215149 
	C511.867615,289.199005 511.239594,289.997528 511.045990,290.890289 
	C508.032349,304.787109 505.594421,318.833008 501.975159,332.568207 
	C497.273041,350.412964 489.606812,367.111053 480.471985,383.177795 
	C471.033875,399.778076 460.355194,415.545105 447.060516,429.167450 
	C435.467316,441.046326 422.586792,451.668762 410.204742,462.446625 
	C406.455841,446.386627 403.122742,430.634644 398.996887,415.093109 
	C395.227997,400.896149 386.203461,390.325134 372.418945,385.413818 
	C357.617188,380.140106 342.235870,376.493073 326.793274,371.912903 
	C320.181549,369.829315 313.901184,367.908264 307.582764,366.121857 
	C295.552948,362.720642 292.220734,358.723999 291.343750,345.869995 
	C309.973999,339.026917 325.470520,328.339111 338.041168,313.395447 
	C346.356445,303.510437 352.036804,292.151703 357.416565,280.434082 
	C373.249756,280.820923 386.160248,272.078613 390.826752,258.169495 
	C395.479370,244.301819 390.484039,229.315125 378.304443,220.365570 
	C378.205933,206.441391 378.374207,192.964279 378.071228,179.497757 
	C377.918915,172.726761 377.996918,165.640442 376.042084,159.290482 
	C372.853699,148.933502 368.086090,139.062698 363.984802,128.986755 
z"/>
<path fill="#06BF51" opacity="1.000000" stroke="none" 
	d="
M327.107483,372.136230 
	C342.235870,376.493073 357.617188,380.140106 372.418945,385.413818 
	C386.203461,390.325134 395.227997,400.896149 398.996887,415.093109 
	C403.122742,430.634644 406.455841,446.386627 409.862305,462.576965 
	C408.603577,463.997284 407.702332,465.011322 406.617523,465.759094 
	C389.455078,477.589966 371.456879,487.924927 352.005707,495.529877 
	C332.470917,503.167542 312.356049,508.641785 291.468201,511.098572 
	C290.583160,511.202637 289.819977,512.342590 289.000000,513.000000 
	C278.645782,513.000000 268.291534,513.000000 257.468628,512.531372 
	C257.014862,478.223053 257.029816,444.383392 257.061768,410.422668 
	C257.078705,410.301575 257.064789,410.057434 257.518921,410.100311 
	C287.616058,409.476196 310.551270,396.607880 327.107483,372.136230 
z"/>
<path fill="#0EE272" opacity="1.000000" stroke="none" 
	d="
M257.044800,410.543762 
	C257.029816,444.383392 257.014862,478.223053 256.999939,512.531372 
	C246.645767,513.000000 236.291550,513.000000 225.660690,512.601440 
	C220.364120,511.140198 215.380493,509.844574 210.317978,509.054810 
	C187.681976,505.523499 166.084305,498.463715 145.808304,488.100159 
	C131.243744,480.655823 117.651245,471.309723 103.625107,462.812012 
	C107.077133,448.253082 110.576340,433.705139 113.969398,419.132477 
	C118.328590,400.410461 129.764694,388.440613 148.168381,383.100647 
	C160.780991,379.441010 173.420441,375.873810 186.518570,372.523071 
	C203.921478,397.277771 227.325668,409.768341 257.044800,410.543762 
z"/>
<path fill="#000000" opacity="1.000000" stroke="none" 
	d="
M103.369537,462.642334 
	C117.651245,471.309723 131.243744,480.655823 145.808304,488.100159 
	C166.084305,498.463715 187.681976,505.523499 210.317978,509.054810 
	C215.380493,509.844574 220.364120,511.140198 225.192032,512.601440 
	C150.406296,513.000000 75.812599,513.000000 1.000000,513.000000 
	C1.000000,438.645905 1.000000,364.291626 1.000000,289.468658 
	C1.665000,289.632233 2.855220,290.216217 2.918416,290.903778 
	C4.632181,309.548492 9.774443,327.346222 15.948552,344.914185 
	C24.473595,369.171509 36.492710,391.634979 52.475857,411.661316 
	C62.934933,424.766113 74.838272,436.755066 86.530891,448.821136 
	C91.481972,453.930389 97.552315,457.955048 103.369537,462.642334 
z"/>
<path fill="#000000" opacity="1.000000" stroke="none" 
	d="
M289.468658,513.000000 
	C289.819977,512.342590 290.583160,511.202637 291.468201,511.098572 
	C312.356049,508.641785 332.470917,503.167542 352.005707,495.529877 
	C371.456879,487.924927 389.455078,477.589966 406.617523,465.759094 
	C407.702332,465.011322 408.603577,463.997284 409.932617,462.976746 
	C422.586792,451.668762 435.467316,441.046326 447.060516,429.167450 
	C460.355194,415.545105 471.033875,399.778076 480.471985,383.177795 
	C489.606812,367.111053 497.273041,350.412964 501.975159,332.568207 
	C505.594421,318.833008 508.032349,304.787109 511.045990,290.890289 
	C511.239594,289.997528 511.867615,289.199005 512.646790,288.678345 
	C513.000000,363.593719 513.000000,438.187408 513.000000,513.000000 
	C438.645905,513.000000 364.291626,513.000000 289.468658,513.000000 
z"/>
<path fill="#000000" opacity="1.000000" stroke="none" 
	d="
M513.000000,224.531342 
	C512.334961,224.368576 511.141998,223.783539 511.081848,223.098938 
	C509.413605,204.122269 504.365387,185.892822 497.860291,168.161865 
	C489.044586,144.132874 477.258057,121.488350 460.933411,101.650764 
	C450.690674,89.203827 439.830322,77.134415 428.185974,66.005905 
	C414.702209,53.119514 399.259491,42.603069 382.951447,33.392990 
	C366.902435,24.329224 350.243958,16.663891 332.445007,11.968937 
	C318.745819,8.355413 304.727173,5.955359 290.861847,2.963499 
	C289.972321,2.771555 289.179871,2.129693 288.671143,1.348564 
	C363.593719,1.000000 438.187408,1.000000 513.000000,1.000000 
	C513.000000,75.354088 513.000000,149.708389 513.000000,224.531342 
z"/>
<path fill="#000000" opacity="1.000000" stroke="none" 
	d="
M224.531342,1.000002 
	C224.368408,1.665050 223.794556,2.842834 223.096893,2.921417 
	C192.083542,6.414636 163.056152,16.192198 135.650406,30.849092 
	C119.490044,39.491829 104.477699,49.856327 90.531921,61.847515 
	C70.122047,79.396820 52.608829,99.423439 38.433998,122.227875 
	C23.710743,145.914642 13.325620,171.531860 7.074020,198.730377 
	C5.264607,206.602478 4.340273,214.676758 2.933736,222.644867 
	C2.806395,223.366257 2.116996,223.988434 1.344307,224.328339 
	C1.000000,149.739456 1.000000,75.478920 1.000000,1.000000 
	C75.354088,1.000000 149.708389,1.000000 224.531342,1.000002 
z"/>
<path fill="#FECDBE" opacity="1.000000" stroke="none" 
	d="
M257.061768,410.422668 
	C227.325668,409.768341 203.921478,397.277771 186.876221,372.458923 
	C194.470093,369.841034 202.275467,367.820770 209.837784,365.119965 
	C213.083115,363.960938 215.823410,361.387695 219.208679,358.966553 
	C220.798233,354.316498 221.972260,350.156860 223.519989,346.063477 
	C233.347626,347.753296 242.795898,349.410919 252.258301,350.983582 
	C256.011047,351.607239 257.072845,349.783325 257.062134,346.146332 
	C256.940979,305.013336 256.955048,263.880005 256.950500,222.573517 
	C256.968109,222.400284 257.023590,222.056473 257.439270,222.102966 
	C283.874573,217.307678 305.948730,205.856003 321.579193,183.370514 
	C323.260925,188.032089 324.350067,192.268188 326.250824,196.101913 
	C333.221802,210.162384 340.249939,224.347412 360.025513,223.196640 
	C360.025513,233.350616 359.946655,243.133728 360.112701,252.912674 
	C360.136902,254.337799 361.330719,255.743073 361.969666,257.556274 
	C360.302368,265.423431 358.648773,272.891907 356.995178,280.360352 
	C352.036804,292.151703 346.356445,303.510437 338.041168,313.395447 
	C325.470520,328.339111 309.973999,339.026917 290.968140,345.919006 
	C281.532623,347.750305 272.842529,349.677185 264.055359,350.914886 
	C257.692657,351.811066 256.998138,352.044098 257.002899,358.296814 
	C257.016052,375.550354 257.043182,392.803894 257.064789,410.057434 
	C257.064789,410.057434 257.078705,410.301575 257.061768,410.422668 
z"/>
<path fill="#555A66" opacity="1.000000" stroke="none" 
	d="
M257.023590,222.056473 
	C257.023590,222.056473 256.968109,222.400284 256.519409,222.544189 
	C222.325287,228.759903 188.166306,225.166473 153.891708,226.604889 
	C153.891708,233.511383 153.990829,239.984283 153.852402,246.452103 
	C153.776321,250.007812 153.300323,253.554977 152.625885,257.034241 
	C141.033936,254.618118 136.000366,248.533157 135.921417,237.275742 
	C135.883041,231.803436 135.794678,226.331451 135.728958,220.859329 
	C135.793839,210.704361 135.874207,200.549454 135.920975,190.394394 
	C136.150070,140.630707 170.061935,100.310059 219.227585,92.555267 
	C231.290100,90.652664 243.798508,91.577118 256.565613,91.698242 
	C257.027405,135.481918 257.025513,178.769196 257.023590,222.056473 
z"/>
<path fill="#414952" opacity="1.000000" stroke="none" 
	d="
M257.439270,222.102966 
	C257.025513,178.769196 257.027405,135.481918 257.034180,91.745773 
	C273.773895,91.666634 290.687958,90.635941 307.199738,92.748840 
	C329.502319,95.602753 347.217468,107.835831 361.479675,126.010666 
	C362.233429,126.717026 362.601929,126.907288 362.970398,127.097549 
	C362.970398,127.097549 362.925232,126.996925 362.838928,127.344261 
	C363.171356,128.139130 363.590057,128.586655 364.008759,129.034195 
	C364.008759,129.034195 364.020325,128.997375 364.002563,128.992065 
	C368.086090,139.062698 372.853699,148.933502 376.042084,159.290482 
	C377.996918,165.640442 377.918915,172.726761 378.071228,179.497757 
	C378.374207,192.964279 378.205933,206.441391 378.217957,220.842255 
	C378.186157,226.924866 378.192200,232.079590 378.146667,237.233826 
	C378.045959,248.635025 373.155060,254.648865 361.983337,257.157532 
	C361.330719,255.743073 360.136902,254.337799 360.112701,252.912674 
	C359.946655,243.133728 360.025513,233.350616 360.025513,223.196640 
	C340.249939,224.347412 333.221802,210.162384 326.250824,196.101913 
	C324.350067,192.268188 323.260925,188.032089 321.579193,183.370514 
	C305.948730,205.856003 283.874573,217.307678 257.439270,222.102966 
z"/>
<path fill="#FEDECF" opacity="1.000000" stroke="none" 
	d="
M153.004654,257.105988 
	C153.300323,253.554977 153.776321,250.007812 153.852402,246.452103 
	C153.990829,239.984283 153.891708,233.511383 153.891708,226.604889 
	C188.166306,225.166473 222.325287,228.759903 256.501801,222.717407 
	C256.955048,263.880005 256.940979,305.013336 257.062134,346.146332 
	C257.072845,349.783325 256.011047,351.607239 252.258301,350.983582 
	C242.795898,349.410919 233.347626,347.753296 223.243942,345.830017 
	C210.246887,341.192261 199.123611,334.702087 189.013535,326.430573 
	C189.093750,326.225372 189.034225,326.075623 188.451385,325.734528 
	C187.049942,324.973602 186.032104,324.459503 185.014252,323.945435 
	C182.915909,321.715485 180.817581,319.485535 178.377625,316.764465 
	C177.692825,315.659180 177.349670,315.044983 177.006516,314.430817 
	C177.079895,314.229095 177.023056,314.075500 176.498795,313.679382 
	C173.739716,310.064056 170.951538,306.942535 168.971680,303.372711 
	C164.759720,295.778229 160.967850,287.950745 156.991699,279.809937 
	C155.654633,271.969360 154.329651,264.537689 153.004654,257.105988 
z"/>
<path fill="#FDCDBE" opacity="1.000000" stroke="none" 
	d="
M152.625900,257.034241 
	C154.329651,264.537689 155.654633,271.969360 156.540802,279.888428 
	C150.396271,279.187531 144.690582,277.999237 138.984909,276.810944 
	C129.309113,270.816284 122.823006,262.771454 121.793121,250.954590 
	C120.705254,238.472366 125.212082,228.613266 135.420654,220.977905 
	C135.794678,226.331451 135.883041,231.803436 135.921417,237.275742 
	C136.000366,248.533157 141.033936,254.618118 152.625900,257.034241 
z"/>
<path fill="#22D0FB" opacity="1.000000" stroke="none" 
	d="
M138.803711,277.033020 
	C144.690582,277.999237 150.396271,279.187531 156.552872,280.297302 
	C160.967850,287.950745 164.759720,295.778229 168.971680,303.372711 
	C170.951538,306.942535 173.739716,310.064056 176.365631,313.687317 
	C175.293915,313.410553 173.721405,313.135773 172.787659,312.213989 
	C161.608902,301.177979 150.520126,290.050751 139.434982,278.920319 
	C139.022583,278.506226 138.887085,277.816406 138.803711,277.033020 
z"/>
<path fill="#21D0FB" opacity="1.000000" stroke="none" 
	d="
M188.942657,326.815552 
	C199.123611,334.702087 210.246887,341.192261 222.870239,345.763794 
	C221.972260,350.156860 220.798233,354.316498 219.321655,358.632629 
	C210.133499,349.823273 201.223160,340.881653 192.388565,331.865784 
	C191.036957,330.486450 190.035294,328.764160 188.942657,326.815552 
z"/>
<path fill="#21D0FB" opacity="1.000000" stroke="none" 
	d="
M185.165054,324.288177 
	C186.032104,324.459503 187.049942,324.973602 188.318298,325.740570 
	C187.484497,325.539307 186.400177,325.085114 185.165054,324.288177 
z"/>
<path fill="#1ACFFC" opacity="1.000000" stroke="none" 
	d="
M364.054382,128.712814 
	C363.590057,128.586655 363.171356,128.139130 362.789337,127.368324 
	C363.250702,127.493851 363.675354,127.942642 364.054382,128.712814 
z"/>
<path fill="#22D0FB" opacity="1.000000" stroke="none" 
	d="
M176.954681,314.813721 
	C177.349670,315.044983 177.692825,315.659180 178.078796,316.633606 
	C177.715378,316.394775 177.309113,315.795715 176.954681,314.813721 
z"/>
<path fill="#1ACFFC" opacity="1.000000" stroke="none" 
	d="
M362.813782,126.813759 
	C362.601929,126.907288 362.233429,126.717026 361.689026,126.238571 
	C361.894470,126.143578 362.275818,126.336769 362.813782,126.813759 
z"/>
<path fill="#FEBEAA" opacity="1.000000" stroke="none" 
	d="
M257.518921,410.100311 
	C257.043182,392.803894 257.016052,375.550354 257.002899,358.296814 
	C256.998138,352.044098 257.692657,351.811066 264.055359,350.914886 
	C272.842529,349.677185 281.532623,347.750305 290.639954,346.069580 
	C292.220734,358.723999 295.552948,362.720642 307.582764,366.121857 
	C313.901184,367.908264 320.181549,369.829315 326.793274,371.912872 
	C310.551270,396.607880 287.616058,409.476196 257.518921,410.100311 
z"/>
<path fill="#FCBDAA" opacity="1.000000" stroke="none" 
	d="
M361.969666,257.556274 
	C373.155060,254.648865 378.045959,248.635025 378.146667,237.233826 
	C378.192200,232.079590 378.186157,226.924866 378.290009,221.293701 
	C390.484039,229.315125 395.479370,244.301819 390.826752,258.169495 
	C386.160248,272.078613 373.249756,280.820923 357.416565,280.434082 
	C358.648773,272.891907 360.302368,265.423431 361.969666,257.556274 
z"/>
</svg>