<svg width="512" height="512" xmlns="http://www.w3.org/2000/svg" xml:space="preserve" enable-background="new 0 0 512 512" version="1.1">

 <g>
  <title>Layer 1</title>
  <path id="svg_1" d="m260,513c-11.35423,0 -22.70845,0 -34.56378,-0.39844c-3.45893,-1.11859 -6.38014,-2.10626 -9.38036,-2.51654c-25.01959,-3.4216 -48.70746,-11.255 -71.29506,-22.25134c-34.51909,-16.80493 -63.68622,-40.46033 -87.8112,-70.3436c-28.19784,-34.92825 -45.84315,-74.53839 -53.06984,-118.83688c-0.5362,-3.28687 -1.90046,-6.43863 -2.87976,-9.6532c0,-21.02091 0,-42.04179 0.40169,-63.56661c1.11933,-3.7967 2.01684,-7.06198 2.52574,-10.38671c3.5838,-23.4137 10.66344,-45.7842 20.71696,-67.15076c16.87312,-35.86016 41.02861,-66.06683 71.87091,-90.95601c22.78945,-18.39066 47.89846,-32.56325 75.61657,-42.09963c16.46827,-5.66589 33.22207,-10.03884 50.57797,-11.94213c0.82287,-0.09024 1.52943,-1.24118 2.29016,-1.89815c21.02089,0 42.04178,0 63.56662,0.40168c3.79733,1.11924 7.06335,2.01519 10.38855,2.52579c23.91315,3.672 46.7374,10.95644 68.5025,21.35123c20.72431,9.8977 40.31378,21.82643 56.94626,37.80257c12.40891,11.91925 24.50732,24.28486 35.60657,37.4133c13.8681,16.40354 24.31103,35.14276 32.69534,54.93947c8.22748,19.42643 14.48007,39.43437 17.40573,60.41543c0.43555,3.1237 1.90003,6.10393 2.88843,9.15053c0,8.68756 0,17.37514 -0.2937,26.37569c-25.60254,-24.92093 -50.90762,-50.15856 -76.23004,-75.37882c-1.40509,-1.39941 -2.9531,-2.65532 -4.54145,-4.30015c-16.75738,-16.98043 -36.32144,-28.82351 -58.83075,-35.76035c-14.02349,-4.32172 -28.31207,-6.91891 -43.4927,-6.33185c-39.61414,0.49236 -73.1492,14.60253 -102.0304,42.34368c5.30027,4.5919 10.35036,8.96705 15.47135,13.6627c6.02632,6.02571 11.98173,11.73097 17.9046,17.79236c4.64648,5.08411 9.32547,9.81209 14.16101,14.83838c5.69937,5.78921 11.24219,11.2801 16.87353,17.10002c4.72663,4.85786 9.36466,9.3867 14.193,14.17326c8.40252,8.61359 16.61468,16.96946 24.36252,25.39731c-11.50309,0.02185 -22.54184,-0.02829 -33.74912,-0.35358c-0.49588,-0.65106 -0.80188,-1.04821 -1.15347,-1.3999c-44.4527,-44.46129 -88.9061,-88.92189 -133.38086,-133.36107c-1.03896,-1.03811 -2.32025,-1.83374 -3.79717,-3.01457c-6.7164,-0.27209 -13.12414,-0.27209 -19.83377,-0.27209c0,46.23961 0,92.27157 -0.43672,138.39969c-17.96539,0.09616 -35.49405,0.09616 -53.19386,0.09616c0,20.40597 -0.01249,40.00232 0.04237,59.59848c0.00237,0.8475 0.62477,1.6933 1.12729,2.81799c1.55221,1.71503 2.91213,3.17529 4.32211,4.58548c55.15896,55.16678 110.32862,110.32288 165.45427,165.52289c1.58584,1.58792 2.71166,3.63519 4.05196,5.46829z" fill="#590F38"/>
  <path id="svg_2" d="m291.90292,235.01263c-5.54281,-5.49089 -11.08563,-10.98178 -16.62158,-17.06366c15.28238,-15.30152 33.70413,-22.32008 55.1091,-22.83923c21.49988,0.81561 39.83292,8.24547 54.45273,22.50871c4.87112,-4.90754 9.48917,-9.5601 14.31845,-14.42549c-19.14517,-18.15204 -41.99255,-28.28776 -69.60553,-28.00073c-5.55627,0.3941 -10.70807,0.54419 -15.75741,1.34225c-20.39048,3.22281 -37.75364,12.59972 -52.80924,26.51264c-5.9554,-5.70525 -11.91081,-11.41051 -17.73538,-17.72176c24.31235,-23.90698 53.31781,-35.33839 87.2142,-35.67c34.27438,0.47338 63.14289,12.91951 87.8049,36.61384c4.78974,-4.95731 9.27915,-9.60382 13.76859,-14.25034c1.48141,1.32269 3.02942,2.5786 4.43451,3.97801c25.32242,25.22026 50.6275,50.45789 76.23004,75.84746c0.2937,12.17658 0.2937,24.19745 -0.09229,36.75858c-1.2362,4.988 -2.06744,9.43957 -2.93988,13.88299c-5.89465,30.02155 -15.98458,58.37528 -31.64041,84.86527c-15.40597,26.06732 -34.91608,48.48822 -57.93921,67.79891c-20.18972,16.93412 -42.70965,30.31684 -67.33771,39.97953c-17.79907,6.9833 -36.00546,12.38885 -55.00137,15.02182c-2.99261,0.41479 -5.8406,1.87286 -8.75543,2.84857c-9.35422,0 -18.70847,0 -28.53134,0c-1.80896,-1.8331 -2.93478,-3.88037 -4.52062,-5.46829c-55.12565,-55.20001 -110.29531,-110.35611 -165.45427,-165.52289c-1.40998,-1.41019 -2.7699,-2.87045 -3.85814,-4.65793c25.3954,-0.35583 50.49578,-0.3461 75.59614,-0.37018c31.58049,-0.0303 63.16096,-0.08822 95.20619,-0.05761c59.72226,0.07663 118.97977,0.07663 178.26242,0.07663c0,-20.93973 0,-41.33314 0,-61.999c-2.27246,0 -4.24765,0.00275 -6.22287,-0.00042c-32.82205,-0.05289 -65.64414,-0.10657 -98.46619,-0.16004c-8.21219,-8.35589 -16.42435,-16.71176 -24.54629,-25.53165c6.6448,-6.74594 14.60629,-9.51979 23.94372,-9.69329c9.50556,0.16295 17.07981,3.98338 23.63593,9.72085c4.80386,-4.8036 9.37073,-9.37021 14.28949,-14.28872c-10.8024,-10.07134 -23.25492,-15.96398 -38.83924,-15.44599c-14.88122,0.19463 -27.12963,5.65436 -37.59201,15.41116z" fill="#3F0829"/>
  <path id="svg_7" d="m256.97321,336.84647c-31.58048,0.04602 -63.16095,0.10394 -94.74144,0.13424c-25.10036,0.02408 -50.20074,0.01435 -75.76508,0.09207c-0.79755,-0.77413 -1.41995,-1.61993 -1.42232,-2.46743c-0.05486,-19.59616 -0.04237,-39.19251 -0.04237,-59.59848c17.69981,0 35.22847,0 53.68425,-0.04398c7.18091,-0.07797 13.43468,-0.11194 20.12469,-0.04959c3.92536,0.12665 7.41443,0.17786 10.90358,0.18402c29.08361,0.05145 58.16721,0.09464 87.26305,0.59396c0.00668,20.6875 0.00116,40.92136 -0.00436,61.15519z" fill="#FFFFFF"/>
  <path id="svg_8" d="m257.43796,336.9231c-0.45923,-20.31046 -0.45371,-40.54432 0.00058,-61.33423c13.47509,-0.62244 26.50146,-0.68875 39.52786,-0.75507c11.03873,0.05014 22.07748,0.10028 33.58057,0.07843c33.2864,-0.01849 66.10849,0.03519 98.93054,0.08808c1.97522,0.00317 3.95041,0.00042 6.22287,0.00042c0,20.66586 0,41.05927 0,61.999c-59.28265,0 -118.54016,0 -178.26242,-0.07663m45.49347,-30.51026c-0.95453,-7.59213 -5.92191,-12.13885 -12.32486,-11.28116c-6.08777,0.81543 -10.3071,6.29657 -9.5521,12.40857c0.61744,4.99823 5.00248,9.11844 10.04337,9.43683c5.90262,0.37277 9.80963,-2.86722 11.83359,-10.56424m55.91815,-3.23745c-1.68732,-4.85676 -4.98721,-7.83127 -10.20102,-8.06354c-4.30316,-0.19171 -7.68167,1.76407 -9.88208,5.5126c-2.33932,3.98511 -1.99872,7.93747 0.51199,11.70169c2.6362,3.95236 7.79715,5.65146 12.28687,4.17316c5.1965,-1.71103 7.59946,-5.76624 7.28424,-13.32391m46.45612,-8.09635c-6.01026,0.4802 -10.23218,3.35605 -11.22608,7.98166c-1.01507,4.72412 0.00186,8.90771 4.14252,11.89279c3.93191,2.83456 9.09753,2.81113 12.96405,-0.17944c3.41403,-2.64063 4.91528,-6.20038 4.15347,-10.49469c-0.91687,-5.16837 -4.21991,-8.05387 -10.03396,-9.20032z" fill="#E0E0E0"/>
  <path id="svg_9" d="m296.79785,274.55865c-12.85785,0.34147 -25.88422,0.40778 -39.37158,0.57654c-29.54454,0.05677 -58.62814,0.01358 -87.71175,-0.03787c-3.48915,-0.00616 -6.97822,-0.05737 -10.8565,-0.63888c-0.38288,-43.34646 -0.38201,-86.14168 -0.35803,-128.93693c0.00158,-2.82214 0.17926,-5.64419 0.27502,-8.46629c1.16826,0.90872 2.44955,1.70435 3.48851,2.74246c44.47476,44.43918 88.92816,88.89978 133.38086,133.36107c0.35159,0.35169 0.65759,0.74884 1.15347,1.3999z" fill="#3F0829"/>
  <path id="svg_10" d="m158.46635,136.78311c0.2129,3.09421 0.03522,5.91626 0.03364,8.7384c-0.02398,42.79525 -0.02485,85.59047 -0.07821,128.84061c-6.30085,0.48883 -12.55462,0.5228 -19.29879,0.50458c-0.49041,-46.08411 -0.49041,-92.11607 -0.49041,-138.35568c6.70963,0 13.11737,0 19.83377,0.27209z" fill="#E0E0E0"/>
  <path id="svg_11" d="m431.93481,171.69672c-4.3825,4.96866 -8.87191,9.61517 -13.66165,14.57248c-24.66201,-23.69433 -53.53052,-36.14046 -87.81582,-37.05018c-0.44034,-6.91378 -0.42939,-13.24255 -0.41843,-19.5713c14.75308,-0.63026 29.04166,1.96693 43.06515,6.28865c22.50931,6.93684 42.07337,18.77992 58.83075,35.76035z" fill="#02B8FC"/>
  <path id="svg_12" d="m329.61136,129.60452c0.41659,6.37195 0.40564,12.70072 0.40567,19.46582c-33.44516,0.91663 -62.45062,12.34804 -86.83388,35.93454c-5.25183,-4.08963 -10.30192,-8.46478 -15.60219,-13.05668c28.8812,-27.74115 62.41626,-41.85132 102.0304,-42.34368z" fill="#35C9FC"/>
  <path id="svg_13" d="m260.95691,203.40326c15.08813,-14.26906 32.45129,-23.64597 52.84177,-26.86878c5.04934,-0.79806 10.20114,-0.94815 15.75396,-0.88978c0.45139,6.78097 0.45465,13.05563 0.45792,19.33029c-21.02509,0.6539 -39.44684,7.67246 -54.88577,22.67566c-4.84241,-4.4353 -9.5214,-9.16328 -14.16788,-14.24739z" fill="#35CAFC"/>
  <path id="svg_14" d="m291.99145,235.34166c10.37385,-10.08583 22.62226,-15.54556 37.51386,-15.24513c0.47675,6.79445 0.4884,13.06901 0.50009,19.34359c-8.93408,0.34871 -16.89557,3.12256 -23.73071,9.6108c-4.91858,-4.32256 -9.55661,-8.8514 -14.28324,-13.70926z" fill="#35C9FC"/>
  <path id="svg_15" d="m330.39047,195.10974c-0.38318,-6.40941 -0.38644,-12.68407 -0.38626,-19.41119c27.16486,-0.79335 50.01224,9.34237 69.15741,27.49441c-4.82928,4.86539 -9.44733,9.51795 -14.31845,14.42549c-14.61981,-14.26324 -32.95285,-21.6931 -54.4527,-22.50871z" fill="#02B8FC"/>
  <path id="svg_16" d="m330.40875,239.61533c-0.41504,-6.44979 -0.42669,-12.72435 -0.44873,-19.49399c15.11923,-1.03786 27.57175,4.85478 38.37415,14.92612c-4.91876,4.91851 -9.48563,9.48512 -14.28949,14.28872c-6.55612,-5.73747 -14.13037,-9.5579 -23.63593,-9.72085z" fill="#02B7FB"/>
  <path id="svg_17" d="m302.90656,306.80893c-1.99909,7.30093 -5.9061,10.54092 -11.80872,10.16815c-5.04089,-0.31839 -9.42593,-4.4386 -10.04337,-9.43683c-0.755,-6.112 3.46433,-11.59314 9.5521,-12.40857c6.40295,-0.85769 11.37033,3.68903 12.29999,11.67725z" fill="#FE9654"/>
  <path id="svg_18" d="m358.91836,303.57486c0.24644,7.1582 -2.15652,11.21341 -7.35302,12.92444c-4.48972,1.4783 -9.65067,-0.2208 -12.28687,-4.17316c-2.51071,-3.76422 -2.85131,-7.71658 -0.51199,-11.70169c2.20041,-3.74853 5.57892,-5.70431 9.88208,-5.5126c5.21381,0.23227 8.5137,3.20678 10.2698,8.46301z" fill="#71BB3F"/>
  <path id="svg_19" d="m405.70203,295.11072c5.41772,1.11477 8.72076,4.00027 9.63763,9.16864c0.76181,4.29431 -0.73944,7.85406 -4.15347,10.49469c-3.86652,2.99057 -9.03214,3.014 -12.96405,0.17944c-4.14066,-2.98508 -5.15759,-7.16867 -4.14252,-11.89279c0.9939,-4.62561 5.21582,-7.50146 11.62241,-7.94998z" fill="#70BB3E"/>
 </g>
</svg>