<svg version="1.1" id="Layer_1" xmlns="http://www.w3.org/2000/svg" xmlns:xlink="http://www.w3.org/1999/xlink" x="0px" y="0px"
	 width="100%" viewBox="0 0 512 512" enable-background="new 0 0 512 512" xml:space="preserve">
<path fill="#590F38" opacity="1.000000" stroke="none" 
	d="
M260.000000,513.000000 
	C248.645767,513.000000 237.291550,513.000000 225.436218,512.601562 
	C221.977295,511.482971 219.056076,510.495300 216.055862,510.085022 
	C191.036270,506.663422 167.348404,498.830017 144.760803,487.833679 
	C110.241707,471.028748 81.074577,447.373352 56.949604,417.490082 
	C28.751762,382.561829 11.106453,342.951691 3.879764,298.653198 
	C3.343559,295.366333 1.979303,292.214569 1.000000,289.000000 
	C1.000000,267.979095 1.000000,246.958206 1.401685,225.433395 
	C2.521019,221.636688 3.418531,218.371414 3.927433,215.046677 
	C7.511230,191.632980 14.590870,169.262482 24.644386,147.895920 
	C41.517506,112.035759 65.672997,81.829086 96.515297,56.939915 
	C119.304749,38.549248 144.413757,24.376659 172.131866,14.840276 
	C188.600143,9.174391 205.353943,4.801439 222.709839,2.898153 
	C223.532715,2.807914 224.239273,1.656974 225.000000,1.000003 
	C246.020889,1.000000 267.041779,1.000000 288.566620,1.401676 
	C292.363953,2.520916 295.629974,3.416874 298.955170,3.927472 
	C322.868317,7.599472 345.692566,14.883912 367.457672,25.278702 
	C388.181976,35.176399 407.771454,47.105125 424.403931,63.081272 
	C436.812836,75.000519 448.911255,87.366127 460.010498,100.494568 
	C473.878601,116.898109 484.321533,135.637329 492.705841,155.434036 
	C500.933319,174.860474 507.185913,194.868408 510.111572,215.849472 
	C510.547119,218.973175 512.011597,221.953400 513.000000,225.000000 
	C513.000000,233.687561 513.000000,242.375137 512.706299,251.375687 
	C487.103760,226.454758 461.798676,201.217133 436.476257,175.996872 
	C435.071167,174.597458 433.523163,173.341553 431.934814,171.696716 
	C415.177429,154.716293 395.613373,142.873215 373.104065,135.936371 
	C359.080566,131.614655 344.791992,129.017456 329.611359,129.604523 
	C289.997223,130.096878 256.462158,144.207047 227.580963,171.948196 
	C232.881226,176.540100 237.931320,180.915253 243.052307,185.610901 
	C249.078629,191.636612 255.034042,197.341873 260.956909,203.403259 
	C265.603394,208.487366 270.282379,213.215347 275.117920,218.241638 
	C280.817291,224.030853 286.360107,229.521744 291.991455,235.341660 
	C296.718079,240.199524 301.356110,244.728363 306.184448,249.514923 
	C314.586975,258.128510 322.799133,266.484375 330.546967,274.912231 
	C319.043884,274.934082 308.005127,274.883942 296.797852,274.558655 
	C296.301971,273.907593 295.995972,273.510437 295.644379,273.158752 
	C251.191681,228.697464 206.738281,184.236862 162.263519,139.797684 
	C161.224564,138.759567 159.943268,137.963943 158.466354,136.783112 
	C151.749954,136.511017 145.342209,136.511017 138.632584,136.511017 
	C138.632584,182.750626 138.632584,228.782593 138.195862,274.910706 
	C120.230469,275.006866 102.701813,275.006866 85.001999,275.006866 
	C85.001999,295.412842 84.989510,315.009186 85.044373,334.605347 
	C85.046738,335.452850 85.669144,336.298645 86.171661,337.423340 
	C87.723869,339.138367 89.083794,340.598633 90.493774,342.008820 
	C145.652725,397.175598 200.822388,452.331696 255.948044,507.531708 
	C257.533875,509.119629 258.659698,511.166901 260.000000,513.000000 
z"/>
<path fill="#3F0829" opacity="1.000000" stroke="none" 
	d="
M291.902924,235.012634 
	C286.360107,229.521744 280.817291,224.030853 275.281342,217.948975 
	C290.563721,202.647446 308.985474,195.628891 330.390442,195.109741 
	C351.890320,195.925354 370.223358,203.355209 384.843170,217.618454 
	C389.714294,212.710907 394.332336,208.058350 399.161621,203.192963 
	C380.016449,185.040924 357.169067,174.905197 329.556091,175.192230 
	C323.999817,175.586334 318.848022,175.736420 313.798676,176.534485 
	C293.408203,179.757294 276.045044,189.134201 260.989441,203.047119 
	C255.034042,197.341873 249.078629,191.636612 243.254059,185.325363 
	C267.566406,161.418381 296.571869,149.986969 330.468262,149.655365 
	C364.742645,150.128738 393.611145,162.574875 418.273163,186.269196 
	C423.062897,181.311890 427.552307,176.665375 432.041748,172.018860 
	C433.523163,173.341553 435.071167,174.597458 436.476257,175.996872 
	C461.798676,201.217133 487.103760,226.454758 512.706299,251.844330 
	C513.000000,264.020905 513.000000,276.041779 512.614014,288.602905 
	C511.377808,293.590912 510.546570,298.042480 509.674133,302.485901 
	C503.779480,332.507446 493.689545,360.861176 478.033722,387.351166 
	C462.627747,413.418488 443.117645,435.839386 420.094513,455.150085 
	C399.904785,472.084198 377.384857,485.466919 352.756805,495.129608 
	C334.957733,502.112915 316.751343,507.518463 297.755432,510.151428 
	C294.762817,510.566223 291.914825,512.024292 289.000000,513.000000 
	C279.645782,513.000000 270.291534,513.000000 260.468658,513.000000 
	C258.659698,511.166901 257.533875,509.119629 255.948044,507.531708 
	C200.822388,452.331696 145.652725,397.175598 90.493774,342.008820 
	C89.083794,340.598633 87.723869,339.138367 86.635628,337.350891 
	C112.031029,336.995056 137.131409,337.004791 162.231766,336.980713 
	C193.812256,336.950409 225.392731,336.892487 257.437958,336.923096 
	C317.160217,336.999725 376.417725,336.999725 435.700378,336.999725 
	C435.700378,316.059998 435.700378,295.666595 435.700378,275.000732 
	C433.427917,275.000732 431.452728,275.003479 429.477509,275.000305 
	C396.655457,274.947418 363.833374,274.893738 331.011322,274.840271 
	C322.799133,266.484375 314.586975,258.128510 306.465027,249.308624 
	C313.109833,242.562683 321.071320,239.788834 330.408752,239.615326 
	C339.914307,239.778275 347.488556,243.598709 354.044678,249.336182 
	C358.848541,244.532578 363.415405,239.965973 368.334167,235.047455 
	C357.531769,224.976120 345.079254,219.083481 329.494934,219.601471 
	C314.613708,219.796097 302.365295,225.255829 291.902924,235.012634 
z"/>
<path fill="#000000" opacity="1.000000" stroke="none" 
	d="
M289.468658,513.000000 
	C291.914825,512.024292 294.762817,510.566223 297.755432,510.151428 
	C316.751343,507.518463 334.957733,502.112915 352.756805,495.129608 
	C377.384857,485.466919 399.904785,472.084198 420.094513,455.150085 
	C443.117645,435.839386 462.627747,413.418488 478.033722,387.351166 
	C493.689545,360.861176 503.779480,332.507446 509.674133,302.485901 
	C510.546570,298.042480 511.377808,293.590912 512.614014,289.071533 
	C513.000000,363.593719 513.000000,438.187408 513.000000,513.000000 
	C438.645905,513.000000 364.291626,513.000000 289.468658,513.000000 
z"/>
<path fill="#000000" opacity="1.000000" stroke="none" 
	d="
M1.000000,289.468658 
	C1.979303,292.214569 3.343559,295.366333 3.879764,298.653198 
	C11.106453,342.951691 28.751762,382.561829 56.949604,417.490082 
	C81.074577,447.373352 110.241707,471.028748 144.760803,487.833679 
	C167.348404,498.830017 191.036270,506.663422 216.055862,510.085022 
	C219.056076,510.495300 221.977295,511.482971 224.967560,512.601562 
	C150.406296,513.000000 75.812599,513.000000 1.000000,513.000000 
	C1.000000,438.645905 1.000000,364.291626 1.000000,289.468658 
z"/>
<path fill="#000000" opacity="1.000000" stroke="none" 
	d="
M224.531342,1.000003 
	C224.239273,1.656974 223.532715,2.807914 222.709839,2.898153 
	C205.353943,4.801439 188.600143,9.174391 172.131866,14.840276 
	C144.413757,24.376659 119.304749,38.549248 96.515297,56.939915 
	C65.672997,81.829086 41.517506,112.035759 24.644386,147.895920 
	C14.590870,169.262482 7.511230,191.632980 3.927433,215.046677 
	C3.418531,218.371414 2.521019,221.636688 1.401685,224.964737 
	C1.000000,150.406296 1.000000,75.812576 1.000000,1.000000 
	C75.354088,1.000000 149.708389,1.000000 224.531342,1.000003 
z"/>
<path fill="#000000" opacity="1.000000" stroke="none" 
	d="
M513.000000,224.531342 
	C512.011597,221.953400 510.547119,218.973175 510.111572,215.849472 
	C507.185913,194.868408 500.933319,174.860474 492.705841,155.434036 
	C484.321533,135.637329 473.878601,116.898109 460.010498,100.494568 
	C448.911255,87.366127 436.812836,75.000519 424.403931,63.081272 
	C407.771454,47.105125 388.181976,35.176399 367.457672,25.278702 
	C345.692566,14.883912 322.868317,7.599472 298.955170,3.927472 
	C295.629974,3.416874 292.363953,2.520916 289.035278,1.401676 
	C363.593719,1.000000 438.187408,1.000000 513.000000,1.000000 
	C513.000000,75.354088 513.000000,149.708389 513.000000,224.531342 
z"/>
<path fill="#FFFFFF" opacity="1.000000" stroke="none" 
	d="
M256.973206,336.846466 
	C225.392731,336.892487 193.812256,336.950409 162.231766,336.980713 
	C137.131409,337.004791 112.031029,336.995056 86.466690,337.072784 
	C85.669144,336.298645 85.046738,335.452850 85.044373,334.605347 
	C84.989510,315.009186 85.001999,295.412842 85.001999,275.006866 
	C102.701813,275.006866 120.230469,275.006866 138.686249,274.962891 
	C145.867157,274.884918 152.120926,274.850952 158.810944,274.913300 
	C162.736298,275.039948 166.225372,275.091156 169.714523,275.097321 
	C198.798126,275.148773 227.881729,275.191956 256.977570,275.691284 
	C256.984253,296.378784 256.978729,316.612640 256.973206,336.846466 
z"/>
<path fill="#E0E0E0" opacity="1.000000" stroke="none" 
	d="
M257.437958,336.923096 
	C256.978729,316.612640 256.984253,296.378784 257.438538,275.588867 
	C270.913635,274.966431 283.940002,274.900116 296.966400,274.833801 
	C308.005127,274.883942 319.043884,274.934082 330.546967,274.912231 
	C363.833374,274.893738 396.655457,274.947418 429.477509,275.000305 
	C431.452728,275.003479 433.427917,275.000732 435.700378,275.000732 
	C435.700378,295.666595 435.700378,316.059998 435.700378,336.999725 
	C376.417725,336.999725 317.160217,336.999725 257.437958,336.923096 
M302.931427,306.412842 
	C301.976898,298.820709 297.009521,294.273987 290.606567,295.131683 
	C284.518799,295.947113 280.299469,301.428253 281.054474,307.540253 
	C281.671906,312.538483 286.056946,316.658691 291.097839,316.977081 
	C297.000458,317.349854 300.907471,314.109863 302.931427,306.412842 
M358.849579,303.175385 
	C357.162262,298.318634 353.862366,295.344116 348.648560,295.111847 
	C344.345398,294.920135 340.966888,296.875916 338.766479,300.624451 
	C336.427155,304.609558 336.767761,308.561920 339.278473,312.326141 
	C341.914673,316.278503 347.075623,317.977600 351.565338,316.499298 
	C356.761841,314.788269 359.164795,310.733063 358.849579,303.175385 
M405.305695,295.079041 
	C399.295441,295.559235 395.073517,298.435089 394.079620,303.060699 
	C393.064545,307.784821 394.081482,311.968414 398.222137,314.953491 
	C402.154053,317.788055 407.319672,317.764618 411.186188,314.774048 
	C414.600220,312.133423 416.101471,308.573669 415.339661,304.279358 
	C414.422791,299.110992 411.119751,296.225494 405.305695,295.079041 
z"/>
<path fill="#3F0829" opacity="1.000000" stroke="none" 
	d="
M296.797852,274.558655 
	C283.940002,274.900116 270.913635,274.966431 257.426270,275.135193 
	C227.881729,275.191956 198.798126,275.148773 169.714523,275.097321 
	C166.225372,275.091156 162.736298,275.039948 158.858017,274.458435 
	C158.475143,231.111984 158.476013,188.316757 158.499985,145.521515 
	C158.501572,142.699371 158.679245,139.877319 158.775009,137.055222 
	C159.943268,137.963943 161.224564,138.759567 162.263519,139.797684 
	C206.738281,184.236862 251.191681,228.697464 295.644379,273.158752 
	C295.995972,273.510437 296.301971,273.907593 296.797852,274.558655 
z"/>
<path fill="#E0E0E0" opacity="1.000000" stroke="none" 
	d="
M158.466354,136.783112 
	C158.679245,139.877319 158.501572,142.699371 158.499985,145.521515 
	C158.476013,188.316757 158.475143,231.111984 158.421783,274.362122 
	C152.120926,274.850952 145.867157,274.884918 139.122986,274.866699 
	C138.632584,228.782593 138.632584,182.750626 138.632584,136.511017 
	C145.342209,136.511017 151.749954,136.511017 158.466354,136.783112 
z"/>
<path fill="#02B8FC" opacity="1.000000" stroke="none" 
	d="
M431.934814,171.696716 
	C427.552307,176.665375 423.062897,181.311890 418.273163,186.269196 
	C393.611145,162.574875 364.742645,150.128738 330.457336,149.219025 
	C330.016998,142.305237 330.027954,135.976471 330.038910,129.647720 
	C344.791992,129.017456 359.080566,131.614655 373.104065,135.936371 
	C395.613373,142.873215 415.177429,154.716293 431.934814,171.696716 
z"/>
<path fill="#35C9FC" opacity="1.000000" stroke="none" 
	d="
M329.611359,129.604523 
	C330.027954,135.976471 330.016998,142.305237 330.017029,149.070343 
	C296.571869,149.986969 267.566406,161.418381 243.183151,185.004883 
	C237.931320,180.915253 232.881226,176.540100 227.580963,171.948196 
	C256.462158,144.207047 289.997223,130.096878 329.611359,129.604523 
z"/>
<path fill="#35CAFC" opacity="1.000000" stroke="none" 
	d="
M260.956909,203.403259 
	C276.045044,189.134201 293.408203,179.757294 313.798676,176.534485 
	C318.848022,175.736420 323.999817,175.586334 329.552643,175.644699 
	C330.004028,182.425674 330.007294,188.700333 330.010559,194.974991 
	C308.985474,195.628891 290.563721,202.647446 275.124786,217.650650 
	C270.282379,213.215347 265.603394,208.487366 260.956909,203.403259 
z"/>
<path fill="#35C9FC" opacity="1.000000" stroke="none" 
	d="
M291.991455,235.341660 
	C302.365295,225.255829 314.613708,219.796097 329.505310,220.096527 
	C329.982056,226.890976 329.993713,233.165543 330.005402,239.440125 
	C321.071320,239.788834 313.109833,242.562683 306.274689,249.050919 
	C301.356110,244.728363 296.718079,240.199524 291.991455,235.341660 
z"/>
<path fill="#02B8FC" opacity="1.000000" stroke="none" 
	d="
M330.390472,195.109741 
	C330.007294,188.700333 330.004028,182.425674 330.004211,175.698547 
	C357.169067,174.905197 380.016449,185.040924 399.161621,203.192963 
	C394.332336,208.058350 389.714294,212.710907 384.843170,217.618454 
	C370.223358,203.355209 351.890320,195.925354 330.390472,195.109741 
z"/>
<path fill="#02B7FB" opacity="1.000000" stroke="none" 
	d="
M330.408752,239.615326 
	C329.993713,233.165543 329.982056,226.890976 329.960022,220.121338 
	C345.079254,219.083481 357.531769,224.976120 368.334167,235.047455 
	C363.415405,239.965973 358.848541,244.532578 354.044678,249.336182 
	C347.488556,243.598709 339.914307,239.778275 330.408752,239.615326 
z"/>
<path fill="#FE9654" opacity="1.000000" stroke="none" 
	d="
M302.906555,306.808929 
	C300.907471,314.109863 297.000458,317.349854 291.097839,316.977081 
	C286.056946,316.658691 281.671906,312.538483 281.054474,307.540253 
	C280.299469,301.428253 284.518799,295.947113 290.606567,295.131683 
	C297.009521,294.273987 301.976898,298.820709 302.906555,306.808929 
z"/>
<path fill="#71BB3F" opacity="1.000000" stroke="none" 
	d="
M358.918365,303.574860 
	C359.164795,310.733063 356.761841,314.788269 351.565338,316.499298 
	C347.075623,317.977600 341.914673,316.278503 339.278473,312.326141 
	C336.767761,308.561920 336.427155,304.609558 338.766479,300.624451 
	C340.966888,296.875916 344.345398,294.920135 348.648560,295.111847 
	C353.862366,295.344116 357.162262,298.318634 358.918365,303.574860 
z"/>
<path fill="#70BB3E" opacity="1.000000" stroke="none" 
	d="
M405.702026,295.110718 
	C411.119751,296.225494 414.422791,299.110992 415.339661,304.279358 
	C416.101471,308.573669 414.600220,312.133423 411.186188,314.774048 
	C407.319672,317.764618 402.154053,317.788055 398.222137,314.953491 
	C394.081482,311.968414 393.064545,307.784821 394.079620,303.060699 
	C395.073517,298.435089 399.295441,295.559235 405.702026,295.110718 
z"/>
</svg>