<svg width="512" height="512" xmlns="http://www.w3.org/2000/svg" xml:space="preserve" enable-background="new 0 0 512 512" version="1.1">

 <g>
  <title>Layer 1</title>
  <path id="svg_1" d="m225,1c21.02089,0 42.04178,0 63.19592,0.34171c1.14252,0.77894 2.11451,1.44474 3.16712,1.61648c7.06671,1.15297 14.2695,1.70571 21.20743,3.37211c24.68423,5.92886 48.40692,14.38975 70.52108,27.15626c17.45813,10.07856 33.80457,21.60543 48.34278,35.55625c7.04751,6.76273 13.64569,14.00638 20.26516,21.1999c12.97806,14.1036 23.27063,30.10478 32.28028,46.93087c8.83038,16.49132 15.88409,33.78418 20.41278,51.92257c2.8613,11.46009 4.35031,23.26281 6.18441,34.73046c-1.83251,-1.67546 -3.42422,-3.13993 -4.95248,-4.66786c-48.95404,-48.94366 -97.89178,-97.90368 -146.89087,-146.80222c-1.81827,-1.81455 -4.22571,-3.03871 -6.49991,-4.85044c-0.77075,-0.6548 -1.44925,-1.36235 -2.02227,-1.28533c-10.49241,1.41044 -20.97785,2.87717 -31.44681,4.45119c-1.19803,0.18012 -2.67426,0.77752 -3.36588,1.6825c-3.90362,5.10799 -7.60696,10.36905 -11.21954,15.87286c4.04687,4.43688 7.93472,8.57884 11.72525,13.04814c-19.65302,26.57766 -39.20874,52.82797 -58.88574,79.24106c-14.02619,-11.19263 -27.49846,-21.94327 -41.12035,-32.81328c-33.46315,42.27393 -66.4951,84.00311 -99.66117,125.90175c3.85716,3.20377 7.29728,6.06113 10.77564,9.24576c1.16783,1.91699 2.10938,3.69119 3.45806,5.06601c7.79393,7.94507 15.68396,15.79583 23.07969,23.76706c-10.66432,0.08853 -20.86688,0.08853 -31.38532,0.08853c0,11.47412 0,22.34524 -0.06535,33.6813c-0.01832,11.19373 0.0287,21.92252 0.0068,33.10889c-0.08297,9.91608 -0.14164,19.37497 -0.06664,28.83276c0.01231,1.55188 0.61253,3.09906 1.11853,4.92783c28.55537,28.74149 56.93938,57.19745 85.30455,85.67215c4.21681,4.23306 8.34503,8.55432 12.09859,12.90433c-8.68061,-1.58438 -16.99176,-3.03778 -25.202,-4.92917c-26.14535,-6.02307 -50.55243,-16.46384 -73.29053,-30.526c-22.92474,-14.17755 -42.95478,-31.8566 -60.56501,-52.34061c-12.06113,-14.02942 -22.54561,-29.14307 -31.10545,-45.43317c-14.30097,-27.21594 -24.18143,-55.97637 -27.48298,-86.75848c-0.07484,-0.69785 -1.25252,-1.27744 -1.91577,-1.91217c0,-21.35422 0,-42.70845 0.3338,-64.19342c0.76413,-0.80356 1.44929,-1.42848 1.58613,-2.15645c1.74005,-9.2578 2.98368,-18.62982 5.1622,-27.78029c6.17193,-25.92402 16.43823,-50.25484 30.496,-72.85151c14.23829,-22.88688 31.86294,-42.93975 52.34864,-60.53602c14.03316,-12.05384 29.14874,-22.53848 45.43612,-31.11091c27.201,-14.31654 55.98193,-24.08412 86.72767,-27.4553c0.69811,-0.07654 1.27565,-1.25281 1.90944,-1.9161z" fill="#7884EB"/>
  <path id="svg_2" d="m154.01234,311.59528c-7.85749,-7.8827 -15.74752,-15.73346 -23.54145,-23.67853c-1.34868,-1.37482 -2.29023,-3.14902 -3.08268,-5.04102c1.37159,-1.36337 2.51,-2.34213 3.42534,-3.49765c25.73799,-32.49098 51.45102,-65.00172 77.17557,-97.50335c3.28294,-4.14785 6.60663,-8.26343 10.15413,-12.69732c13.14696,11.24921 25.94878,22.2031 38.89868,33.28366c27.81027,-36.24891 55.18204,-71.92628 83.32953,-108.61473c1.31168,8.88914 2.41022,16.33394 3.66943,24.86749c4.46149,-5.92957 8.33744,-10.88748 11.94248,-16.03517c0.7229,-1.03221 0.71069,-2.82458 0.53433,-4.20207c-1.30951,-10.22849 -2.74603,-20.44072 -4.14267,-30.65807c2.13287,1.4993 4.54031,2.72346 6.35858,4.53801c48.99909,48.89854 97.93683,97.85856 146.89087,146.80222c1.52826,1.52793 3.11997,2.9924 5.14707,5.01756c1.05279,0.62864 1.64062,0.72616 2.22845,0.82369c0,21.02089 0,42.04178 -0.39209,63.31674c-0.78699,0.9335 -1.40927,1.57138 -1.54217,2.29868c-1.72373,9.4331 -2.96235,18.97546 -5.12903,28.3031c-6.04444,26.02081 -16.39844,50.37307 -30.4592,73.01864c-14.23065,22.91916 -31.86859,43.00937 -52.40409,60.58683c-14.29998,12.24017 -29.71109,22.79422 -46.35159,31.49612c-27.03518,14.13763 -55.52594,23.80054 -86.01388,27.07785c-0.63016,0.06775 -1.1413,1.24329 -1.70795,1.90204c-21.02091,0 -42.04179,0 -63.21317,-0.31397c-1.70346,-0.82797 -3.25645,-1.34197 -4.80943,-1.85598c-4.16922,-4.28046 -8.29744,-8.60172 -12.51425,-12.83478c-28.36517,-28.4747 -56.74918,-56.93066 -84.84051,-85.75839c26.1398,-0.36569 51.99304,-0.36569 78.19996,-0.36569c0,-11.63349 0,-22.70258 0.07059,-34.24552c0.02771,-11.19595 -0.01517,-21.91812 0.01065,-33.10358c0.06868,-11.14773 0.06868,-21.83215 0.06868,-32.92681c-16.50134,0 -32.23076,0 -47.96018,0m102.03185,-66.52991c-12.90918,0 -25.81835,0 -38.8913,0c0,11.41379 0,22.20044 -0.12971,33.90979c0.04544,10.99985 0.0909,21.99966 0.00365,33.93655c0.04598,10.69141 0.09198,21.38285 0.00534,33.00504c0.04959,10.72793 0.09918,21.45587 0.00874,33.09918c0,10.83991 0,21.67981 0,32.5863c13.80557,0 26.85861,0 40.84059,0.17066c12.86603,0 25.73209,0 38.95239,0c0,-11.57477 0,-22.61963 0.13153,-34.61737c-0.04419,-10.71829 -0.08835,-21.43656 0.00135,-33.08377c-0.04462,-10.71088 -0.08924,-21.42173 -0.0019,-33.05396c-0.04342,-10.9725 -0.08688,-21.94501 0.00229,-33.86896c0,-10.58538 0,-21.17077 0,-31.93952c-13.76483,0 -26.88223,0 -40.92297,-0.14394m135.92255,99.00647c-0.04462,-10.70975 -0.08927,-21.41947 -0.0018,-33.051c-0.04371,-10.97488 -0.08738,-21.94979 0.00143,-33.87335c-0.04434,-10.71292 -0.08865,-21.42583 -0.00034,-33.06921c-0.04373,-10.71297 -0.08743,-21.42594 0.00303,-33.06001c0,-10.7409 0,-21.48177 0,-32.32744c-26.97388,0 -53.3147,0 -79.80393,0c0,11.33093 0,22.28979 -0.1311,34.19093c0.04419,10.70902 0.08841,21.41801 -0.00086,33.05481c0.04435,10.71992 0.08866,21.43983 0.00177,33.07674c0.04401,10.97592 0.08805,21.95184 -0.00134,33.86993c0.04453,10.70596 0.08905,21.41196 0.00085,33.04678c0.04416,10.72528 0.08832,21.45053 -0.00079,33.09134c0,10.7681 0,21.5362 0,32.40936c26.94809,0 53.31177,0 79.79941,0c0,-11.37023 0,-22.34765 0.1322,-34.27526c-0.04413,-10.71808 -0.08826,-21.43616 0.00147,-33.08362z" fill="#626AE2"/>
  <path id="svg_7" d="m352.2337,67.50609c1.53797,10.52978 2.97449,20.74201 4.284,30.9705c0.17636,1.37749 0.18857,3.16986 -0.53433,4.20207c-3.60504,5.14769 -7.48099,10.1056 -11.94248,16.03517c-1.25921,-8.53355 -2.35775,-15.97835 -3.66943,-24.86749c-28.14749,36.68845 -55.51926,72.36582 -83.32953,108.61473c-12.9499,-11.08056 -25.75172,-22.03445 -38.89868,-33.28366c-3.5475,4.43389 -6.87119,8.54947 -10.15413,12.69732c-25.72455,32.50163 -51.43758,65.01237 -77.17557,97.50335c-0.91534,1.15552 -2.05375,2.13428 -3.46359,3.17044c-3.81549,-2.88241 -7.25561,-5.73977 -11.11277,-8.94354c33.16607,-41.89864 66.19802,-83.62782 99.66117,-125.90175c13.62189,10.87001 27.09416,21.62065 41.12035,32.81328c19.677,-26.41309 39.23272,-52.6634 59.17178,-79.4093c4.12366,-5.50855 7.86404,-10.52149 12.18121,-16.30751c-8.88006,1.14238 -16.61581,2.13753 -24.35153,3.1327c3.77161,-5.2089 7.47495,-10.46996 11.37857,-15.57795c0.69162,-0.90498 2.16785,-1.50238 3.36588,-1.6825c10.46896,-1.57402 20.9544,-3.04075 31.44681,-4.45119c0.57302,-0.07702 1.25152,0.63053 2.02227,1.28533z" fill="#FDDB36"/>
  <path id="svg_8" d="m201.8226,378.09949c0,11.06912 0,22.13821 0,33.7717c-26.20692,0 -52.06016,0 -78.37746,0.08627c-0.79254,-1.46311 -1.39276,-3.01029 -1.40507,-4.56217c-0.075,-9.45779 -0.01633,-18.91668 0.52406,-28.84469c26.77037,-0.46338 53.01442,-0.45725 79.25847,-0.45111z" fill="#FEDB34"/>
  <path id="svg_9" d="m153.55058,311.68381c16.19118,-0.08853 31.9206,-0.08853 48.42194,-0.08853c0,11.09466 0,21.77908 -0.52669,32.93048c-26.77798,0.4656 -53.02928,0.46429 -79.28057,0.46298c0,-10.87116 0,-21.74228 0,-33.2164c10.51844,0 20.721,0 31.38532,-0.08853z" fill="#FFDD33"/>
  <path id="svg_10" d="m122.09991,345.45364c26.31664,-0.46359 52.56794,-0.46228 79.27723,-0.4646c0.50088,10.71851 0.54376,21.44068 0.51605,32.63663c-26.31464,0.46768 -52.55869,0.46155 -79.26015,0.46735c-0.50443,-10.71686 -0.55145,-21.44565 -0.53313,-32.63938z" fill="#F2A73B"/>
  <path id="svg_11" d="m304.1792,88.22731c7.57669,-1.29008 15.31244,-2.28523 24.1925,-3.42761c-4.31717,5.78602 -8.05755,10.79896 -12.08392,15.98016c-4.17386,-3.97371 -8.06171,-8.11567 -12.10858,-12.55255z" fill="#666DDE"/>
  <path id="svg_12" d="m391.83307,378.10565c0,10.97742 0,21.95484 0,33.32507c-26.48764,0 -52.85132,0 -79.79941,0c0,-10.87316 0,-21.64126 0.52441,-32.88076c26.7746,-0.46238 53.02482,-0.45334 79.275,-0.44431z" fill="#F2BC45"/>
  <path id="svg_13" d="m391.83386,278.09616c0.0437,10.97489 0.08737,21.9498 -0.39276,33.39224c-26.77389,0.46262 -53.02399,0.45765 -79.27408,0.45267c-0.04403,-10.97592 -0.08807,-21.95184 0.39133,-33.39798c26.77411,-0.46243 53.02481,-0.45468 79.27551,-0.44693z" fill="#EE8A34"/>
  <path id="svg_14" d="m312.16513,211.9395c0,-10.95888 0,-21.91774 0,-33.24867c26.48923,0 52.83005,0 79.80393,0c0,10.84567 0,21.58654 -0.52509,32.79565c-26.77631,0.46313 -53.02759,0.45809 -79.27884,0.45302z" fill="#F1BC46"/>
  <path id="svg_15" d="m391.90012,277.62183c-26.31696,0.46658 -52.56766,0.45883 -79.27616,0.46276c-0.50213,-10.70819 -0.54644,-21.4281 -0.06616,-32.61325c26.77493,-0.46434 53.02524,-0.46347 79.27557,-0.46258c0.04435,10.7129 0.08866,21.42581 0.06675,32.61307z" fill="#F3BD44"/>
  <path id="svg_16" d="m391.89972,244.54352c-26.31668,0.46435 -52.56699,0.46348 -79.27521,0.46394c-0.50207,-10.70769 -0.54629,-21.41668 -0.52493,-32.59683c26.3168,-0.46606 52.56808,-0.46102 79.27731,-0.46361c0.50171,10.70532 0.54541,21.41829 0.52283,32.5965z" fill="#EE8934"/>
  <path id="svg_17" d="m391.89917,377.63055c-26.31628,0.46607 -52.5665,0.45703 -79.27448,0.46164c-0.50192,-10.71164 -0.54608,-21.43689 -0.06604,-32.62649c26.7742,-0.46436 53.02424,-0.46442 79.27427,-0.46448c0.04409,10.71808 0.08822,21.43616 0.06625,32.62933z" fill="#EE8934"/>
  <path id="svg_18" d="m391.89984,344.53653c-26.31695,0.46475 -52.56699,0.46481 -79.27484,0.46475c-0.50235,-10.70608 -0.54687,-21.41208 -0.52469,-32.58911c26.3168,-0.46612 52.5669,-0.46115 79.27475,-0.46289c0.50241,10.70309 0.54706,21.41281 0.52478,32.58725z" fill="#F3BD44"/>
  <path id="svg_19" d="m217.15951,311.97467c-0.04543,-10.99985 -0.09089,-21.99966 0.38718,-33.46014c13.52918,-0.42459 26.53485,-0.38855 39.52527,0.10577c-0.01239,11.35587 -0.00952,22.25345 -0.02634,33.22586c-0.01968,0.07483 -0.05883,0.22452 -0.52529,0.19147c-13.43123,-0.04303 -26.39602,-0.05301 -39.36082,-0.06296z" fill="#F2A83B"/>
  <path id="svg_20" d="m296.83389,378.1084c0,11.04486 0,22.08972 0,33.66449c-13.2203,0 -26.08636,0 -39.41461,-0.52826c-0.47427,-11.33804 -0.48636,-22.14783 -0.475,-33.03497c0.02343,-0.07734 0.06741,-0.23291 0.53436,-0.20746c13.42972,0.05237 26.39248,0.07928 39.35525,0.1062z" fill="#F1BC45"/>
  <path id="svg_21" d="m256.92084,378.28702c0.01208,10.80978 0.02417,21.61957 0.03399,32.87228c-13.05531,0.44293 -26.10835,0.44293 -39.91392,0.44293c0,-10.90649 0,-21.74639 0.52717,-33.05273c13.46905,-0.39844 26.41091,-0.33044 39.35276,-0.26248z" fill="#FFDD33"/>
  <path id="svg_22" d="m257.06531,311.77133c-0.00287,-10.89758 -0.00574,-21.79516 -0.00031,-33.17587c0.0083,-0.48316 -0.00595,-0.53278 0.45728,-0.53217c13.41293,0.01276 26.36261,0.02488 39.31228,0.03699c0.04343,10.9725 0.08689,21.94501 -0.39346,33.38526c-13.47442,0.4071 -26.42511,0.34646 -39.37579,0.28579z" fill="#EE8934"/>
  <path id="svg_23" d="m257.04562,311.84616c12.97037,-0.01416 25.92106,0.04648 39.3295,0.10007c0.50241,10.70379 0.54703,21.41464 0.06684,32.59021c-13.4827,0.51135 -26.44062,0.55801 -39.417,0.535c-0.01849,-0.0697 -0.05731,-0.20859 -0.04803,-0.66382c0.00946,-11.08245 0.00967,-21.70971 0.00986,-32.33694c0,0 0.03915,-0.14969 0.05883,-0.22452z" fill="#F3BD44"/>
  <path id="svg_24" d="m256.94428,378.20966c-12.96529,0.0094 -25.90715,-0.0586 -39.30619,-0.11783c-0.50674,-10.71921 -0.55633,-21.44715 -0.0816,-32.6369c13.4866,-0.50525 26.44888,-0.54865 39.41116,-0.59208c0,0 0.03882,0.13889 0.04526,0.6623c0.00388,11.16616 0.00131,21.80887 -0.00122,32.4516c0,0 -0.04398,0.15557 -0.06741,0.23291z" fill="#F2A73B"/>
  <path id="svg_25" d="m257.47864,378.0022c-0.46442,-10.66818 -0.46185,-21.31089 -0.44727,-32.40735c12.96997,-0.5004 25.92789,-0.54706 39.34366,-0.59393c0.50204,10.71804 0.5462,21.43631 0.52463,32.63104c-13.02854,0.44952 -25.9913,0.42261 -39.42102,0.37024z" fill="#EE8934"/>
  <path id="svg_26" d="m256.97693,344.40765c-12.97156,0.49863 -25.93384,0.54203 -39.35413,0.58188c-0.50399,-10.69497 -0.54999,-21.38641 -0.52963,-32.54635c13.03114,-0.45856 25.99593,-0.44858 39.42716,-0.40555c0.46627,10.66028 0.46606,21.28754 0.4566,32.37002z" fill="#FFDD33"/>
  <path id="svg_27" d="m257.08026,278.13718c-12.99872,-0.0112 -26.00439,-0.04724 -39.46872,-0.08402c-0.45865,-10.78735 -0.45865,-21.574 -0.45865,-32.98779c13.07295,0 25.98212,0 39.35724,0.52716c0.49359,11.1748 0.52124,21.82248 0.54892,32.47015c0,0 0.01425,0.04962 0.02121,0.0745z" fill="#FFDD33"/>
  <path id="svg_28" d="m257.52228,278.06329c-0.49091,-10.64828 -0.51856,-21.29596 -0.55048,-32.3988c13.11313,-0.45518 26.23053,-0.45518 39.99536,-0.45518c0,10.76875 0,21.35414 -0.06628,32.41526c-13.01599,0.4636 -25.96567,0.45148 -39.3786,0.43872z" fill="#F3BD44"/>
 </g>
</svg>