<svg version="1.1" id="Layer_1" xmlns="http://www.w3.org/2000/svg" xmlns:xlink="http://www.w3.org/1999/xlink" x="0px" y="0px"
	 width="100%" viewBox="0 0 512 512" enable-background="new 0 0 512 512" xml:space="preserve">
<path fill="#7884EB" opacity="1.000000" stroke="none" 
	d="
M225.000000,0.999998 
	C246.020889,1.000000 267.041779,1.000000 288.195923,1.341708 
	C289.338440,2.120649 290.310425,2.786446 291.363037,2.958188 
	C298.429749,4.111155 305.632538,4.663903 312.570465,6.330303 
	C337.254700,12.259163 360.977386,20.720049 383.091553,33.486557 
	C400.549683,43.565117 416.896118,55.091995 431.434326,69.042809 
	C438.481842,75.805542 445.080017,83.049187 451.699493,90.242706 
	C464.677551,104.346306 474.970123,120.347488 483.979767,137.173584 
	C492.810150,153.664902 499.863861,170.957764 504.392548,189.096146 
	C507.253845,200.556244 508.742859,212.358963 510.576965,223.826614 
	C508.744446,222.151154 507.152740,220.686676 505.624481,219.158752 
	C456.670441,170.215088 407.732697,121.255074 358.733612,72.356529 
	C356.915344,70.541985 354.507904,69.317818 352.233704,67.506088 
	C351.462952,66.851295 350.784454,66.143738 350.211426,66.220764 
	C339.719025,67.631203 329.233582,69.097931 318.764618,70.671951 
	C317.566589,70.852074 316.090363,71.449471 315.398743,72.354446 
	C311.495117,77.462440 307.791779,82.723503 304.179199,88.227310 
	C308.226074,92.664185 312.113922,96.806152 315.904449,101.275452 
	C296.251434,127.853111 276.695709,154.103424 257.018707,180.516510 
	C242.992523,169.323883 229.520248,158.573242 215.898361,147.703232 
	C182.435211,189.977158 149.403259,231.706345 116.237190,273.604980 
	C120.094345,276.808746 123.534470,279.666107 127.012833,282.850739 
	C128.180664,284.767731 129.122208,286.541931 130.470886,287.916748 
	C138.264816,295.861816 146.154846,303.712585 153.550583,311.683807 
	C142.886261,311.772339 132.683701,311.772339 122.165260,311.772339 
	C122.165260,323.246460 122.165260,334.117584 122.099915,345.453644 
	C122.081589,356.647369 122.128609,367.376160 122.106712,378.562531 
	C122.023735,388.478607 121.965073,397.937500 122.040070,407.395294 
	C122.052383,408.947174 122.652603,410.494354 123.158600,412.323120 
	C151.713974,441.064606 180.097977,469.520569 208.463150,497.995270 
	C212.679962,502.228333 216.808182,506.549591 220.561737,510.899597 
	C211.881134,509.315216 203.569977,507.861816 195.359741,505.970428 
	C169.214386,499.947357 144.807312,489.506592 122.069214,475.444427 
	C99.144470,461.266876 79.114426,443.587830 61.504204,423.103821 
	C49.443066,409.074402 38.958591,393.960754 30.398745,377.670654 
	C16.097776,350.454712 6.217317,321.694275 2.915771,290.912170 
	C2.840925,290.214325 1.663252,289.634735 1.000000,289.000000 
	C1.000000,267.645782 1.000000,246.291550 1.333802,224.806580 
	C2.097928,224.003021 2.783093,223.378098 2.919925,222.650131 
	C4.659980,213.392334 5.903613,204.020309 8.082134,194.869843 
	C14.254063,168.945816 24.520365,144.615005 38.578129,122.018333 
	C52.816422,99.131454 70.441071,79.078575 90.926765,61.482307 
	C104.959930,49.428471 120.075508,38.943832 136.362885,30.371399 
	C163.563889,16.054857 192.344818,6.287276 223.090561,2.916101 
	C223.788666,2.839556 224.366211,1.663291 225.000000,0.999998 
z"/>
<path fill="#626AE2" opacity="1.000000" stroke="none" 
	d="
M154.012344,311.595276 
	C146.154846,303.712585 138.264816,295.861816 130.470886,287.916748 
	C129.122208,286.541931 128.180664,284.767731 127.388206,282.875732 
	C128.759796,281.512360 129.898209,280.533600 130.813553,279.378082 
	C156.551544,246.887100 182.264572,214.376358 207.989120,181.874725 
	C211.272064,177.726883 214.595749,173.611298 218.143250,169.177414 
	C231.290207,180.426620 244.092026,191.380508 257.041931,202.461075 
	C284.852203,166.212158 312.223969,130.534790 340.371460,93.846344 
	C341.683136,102.735481 342.781677,110.180283 344.040894,118.713829 
	C348.502380,112.784256 352.378326,107.826347 355.983368,102.678665 
	C356.706268,101.646446 356.694061,99.854080 356.517700,98.476593 
	C355.208191,88.248100 353.771667,78.035866 352.375031,67.818520 
	C354.507904,69.317818 356.915344,70.541985 358.733612,72.356529 
	C407.732697,121.255074 456.670441,170.215088 505.624481,219.158752 
	C507.152740,220.686676 508.744446,222.151154 510.771545,224.176315 
	C511.824341,224.804947 512.412170,224.902466 513.000000,225.000000 
	C513.000000,246.020889 513.000000,267.041779 512.607910,288.316742 
	C511.820923,289.250244 511.198639,289.888123 511.065735,290.615417 
	C509.342010,300.048523 508.103394,309.590881 505.936707,318.918518 
	C499.892273,344.939331 489.538269,369.291595 475.477509,391.937164 
	C461.246857,414.856323 443.608917,434.946533 423.073425,452.523987 
	C408.773438,464.764160 393.362335,475.318207 376.721832,484.020111 
	C349.686646,498.157745 321.195892,507.820648 290.707947,511.097961 
	C290.077789,511.165710 289.566650,512.341248 289.000000,513.000000 
	C267.979095,513.000000 246.958206,513.000000 225.786835,512.686035 
	C224.083374,511.858063 222.530380,511.344055 220.977402,510.830048 
	C216.808182,506.549591 212.679962,502.228333 208.463150,497.995270 
	C180.097977,469.520569 151.713974,441.064606 123.622635,412.236877 
	C149.762436,411.871185 175.615677,411.871185 201.822601,411.871185 
	C201.822601,400.237701 201.822601,389.168610 201.893188,377.625671 
	C201.920898,366.429718 201.878021,355.707550 201.903839,344.522095 
	C201.972519,333.374359 201.972519,322.689941 201.972519,311.595276 
	C185.471176,311.595276 169.741760,311.595276 154.012344,311.595276 
M256.044189,245.065369 
	C243.135010,245.065369 230.225845,245.065369 217.152893,245.065369 
	C217.152893,256.479156 217.152893,267.265808 217.023178,278.975159 
	C217.068619,289.975006 217.114075,300.974823 217.026825,312.911713 
	C217.072815,323.603119 217.118805,334.294556 217.032166,345.916748 
	C217.081757,356.644684 217.131348,367.372620 217.040909,379.015930 
	C217.040909,389.855835 217.040909,400.695740 217.040909,411.602234 
	C230.846481,411.602234 243.899521,411.602234 257.881500,411.772888 
	C270.747528,411.772888 283.613586,411.772888 296.833893,411.772888 
	C296.833893,400.198120 296.833893,389.153259 296.965424,377.155518 
	C296.921234,366.437225 296.877075,355.718964 296.966766,344.071747 
	C296.922150,333.360870 296.877533,322.650024 296.964874,311.017792 
	C296.921448,300.045288 296.877991,289.072784 296.967163,277.148834 
	C296.967163,266.563446 296.967163,255.978058 296.967163,245.209305 
	C283.202332,245.209305 270.084930,245.209305 256.044189,245.065369 
M391.966736,344.071838 
	C391.922119,333.362091 391.877472,322.652374 391.964935,311.020844 
	C391.921234,300.045959 391.877563,289.071045 391.966370,277.147491 
	C391.922028,266.434570 391.877716,255.721664 391.966034,244.078278 
	C391.922302,233.365311 391.878601,222.652344 391.969055,211.018265 
	C391.969055,200.277374 391.969055,189.536499 391.969055,178.690826 
	C364.995178,178.690826 338.654358,178.690826 312.165131,178.690826 
	C312.165131,190.021759 312.165131,200.980621 312.034027,212.881760 
	C312.078217,223.590775 312.122437,234.299774 312.033173,245.936569 
	C312.077515,256.656494 312.121826,267.376404 312.034943,279.013306 
	C312.078949,289.989227 312.122986,300.965149 312.033600,312.883240 
	C312.078125,323.589203 312.122650,334.295197 312.034454,345.930023 
	C312.078613,356.655304 312.122772,367.380554 312.033661,379.021362 
	C312.033661,389.789459 312.033661,400.557556 312.033661,411.430725 
	C338.981750,411.430725 365.345428,411.430725 391.833069,411.430725 
	C391.833069,400.060486 391.833069,389.083069 391.965271,377.155457 
	C391.921143,366.437378 391.877014,355.719299 391.966736,344.071838 
z"/>
<path fill="#000000" opacity="1.000000" stroke="none" 
	d="
M513.000000,224.531342 
	C512.412170,224.902466 511.824341,224.804947 511.041931,224.357712 
	C508.742859,212.358963 507.253845,200.556244 504.392548,189.096146 
	C499.863861,170.957764 492.810150,153.664902 483.979767,137.173584 
	C474.970123,120.347488 464.677551,104.346306 451.699493,90.242706 
	C445.080017,83.049187 438.481842,75.805542 431.434326,69.042809 
	C416.896118,55.091995 400.549683,43.565117 383.091553,33.486557 
	C360.977386,20.720049 337.254700,12.259163 312.570465,6.330303 
	C305.632538,4.663903 298.429749,4.111155 291.363037,2.958188 
	C290.310425,2.786446 289.338440,2.120649 288.664551,1.341708 
	C363.593719,1.000000 438.187408,1.000000 513.000000,1.000000 
	C513.000000,75.354088 513.000000,149.708389 513.000000,224.531342 
z"/>
<path fill="#000000" opacity="1.000000" stroke="none" 
	d="
M220.561737,510.899597 
	C222.530380,511.344055 224.083374,511.858063 225.318176,512.686035 
	C150.406296,513.000000 75.812599,513.000000 1.000000,513.000000 
	C1.000000,438.645905 1.000000,364.291626 1.000000,289.468658 
	C1.663252,289.634735 2.840925,290.214325 2.915771,290.912170 
	C6.217317,321.694275 16.097776,350.454712 30.398745,377.670654 
	C38.958591,393.960754 49.443066,409.074402 61.504204,423.103821 
	C79.114426,443.587830 99.144470,461.266876 122.069214,475.444427 
	C144.807312,489.506592 169.214386,499.947357 195.359741,505.970428 
	C203.569977,507.861816 211.881134,509.315216 220.561737,510.899597 
z"/>
<path fill="#000000" opacity="1.000000" stroke="none" 
	d="
M289.468658,513.000000 
	C289.566650,512.341248 290.077789,511.165710 290.707947,511.097961 
	C321.195892,507.820648 349.686646,498.157745 376.721832,484.020111 
	C393.362335,475.318207 408.773438,464.764160 423.073425,452.523987 
	C443.608917,434.946533 461.246857,414.856323 475.477509,391.937164 
	C489.538269,369.291595 499.892273,344.939331 505.936707,318.918518 
	C508.103394,309.590881 509.342010,300.048523 511.065735,290.615417 
	C511.198639,289.888123 511.820923,289.250244 512.607910,288.785400 
	C513.000000,363.593719 513.000000,438.187408 513.000000,513.000000 
	C438.645905,513.000000 364.291626,513.000000 289.468658,513.000000 
z"/>
<path fill="#000000" opacity="1.000000" stroke="none" 
	d="
M224.531342,0.999998 
	C224.366211,1.663291 223.788666,2.839556 223.090561,2.916101 
	C192.344818,6.287276 163.563889,16.054857 136.362885,30.371399 
	C120.075508,38.943832 104.959930,49.428471 90.926765,61.482307 
	C70.441071,79.078575 52.816422,99.131454 38.578129,122.018333 
	C24.520365,144.615005 14.254063,168.945816 8.082134,194.869843 
	C5.903613,204.020309 4.659980,213.392334 2.919925,222.650131 
	C2.783093,223.378098 2.097928,224.003021 1.333802,224.337921 
	C1.000000,149.739456 1.000000,75.478920 1.000000,1.000000 
	C75.354088,1.000000 149.708389,1.000000 224.531342,0.999998 
z"/>
<path fill="#FDDB36" opacity="1.000000" stroke="none" 
	d="
M352.233704,67.506088 
	C353.771667,78.035866 355.208191,88.248100 356.517700,98.476593 
	C356.694061,99.854080 356.706268,101.646446 355.983368,102.678665 
	C352.378326,107.826347 348.502380,112.784256 344.040894,118.713829 
	C342.781677,110.180283 341.683136,102.735481 340.371460,93.846344 
	C312.223969,130.534790 284.852203,166.212158 257.041931,202.461075 
	C244.092026,191.380508 231.290207,180.426620 218.143250,169.177414 
	C214.595749,173.611298 211.272064,177.726883 207.989120,181.874725 
	C182.264572,214.376358 156.551544,246.887100 130.813553,279.378082 
	C129.898209,280.533600 128.759796,281.512360 127.349960,282.548523 
	C123.534470,279.666107 120.094345,276.808746 116.237190,273.604980 
	C149.403259,231.706345 182.435211,189.977158 215.898361,147.703232 
	C229.520248,158.573242 242.992523,169.323883 257.018707,180.516510 
	C276.695709,154.103424 296.251434,127.853111 316.190491,101.107208 
	C320.314148,95.598663 324.054535,90.585724 328.371704,84.799698 
	C319.491638,85.942078 311.755890,86.937233 304.020172,87.932396 
	C307.791779,82.723503 311.495117,77.462440 315.398743,72.354446 
	C316.090363,71.449471 317.566589,70.852074 318.764618,70.671951 
	C329.233582,69.097931 339.719025,67.631203 350.211426,66.220764 
	C350.784454,66.143738 351.462952,66.851295 352.233704,67.506088 
z"/>
<path fill="#FEDB34" opacity="1.000000" stroke="none" 
	d="
M201.822601,378.099487 
	C201.822601,389.168610 201.822601,400.237701 201.822601,411.871185 
	C175.615677,411.871185 149.762436,411.871185 123.445145,411.957458 
	C122.652603,410.494354 122.052383,408.947174 122.040070,407.395294 
	C121.965073,397.937500 122.023735,388.478607 122.564125,378.550598 
	C149.334503,378.087219 175.578552,378.093353 201.822601,378.099487 
z"/>
<path fill="#FFDD33" opacity="1.000000" stroke="none" 
	d="
M153.550583,311.683807 
	C169.741760,311.595276 185.471176,311.595276 201.972519,311.595276 
	C201.972519,322.689941 201.972519,333.374359 201.445831,344.525757 
	C174.667847,344.991364 148.416550,344.990051 122.165260,344.988739 
	C122.165260,334.117584 122.165260,323.246460 122.165260,311.772339 
	C132.683701,311.772339 142.886261,311.772339 153.550583,311.683807 
z"/>
<path fill="#F2A73B" opacity="1.000000" stroke="none" 
	d="
M122.099915,345.453644 
	C148.416550,344.990051 174.667847,344.991364 201.377136,344.989044 
	C201.878021,355.707550 201.920898,366.429718 201.893188,377.625671 
	C175.578552,378.093353 149.334503,378.087219 122.633041,378.093018 
	C122.128609,367.376160 122.081589,356.647369 122.099915,345.453644 
z"/>
<path fill="#666DDE" opacity="1.000000" stroke="none" 
	d="
M304.179199,88.227310 
	C311.755890,86.937233 319.491638,85.942078 328.371704,84.799698 
	C324.054535,90.585724 320.314148,95.598663 316.287781,100.779861 
	C312.113922,96.806152 308.226074,92.664185 304.179199,88.227310 
z"/>
<path fill="#F2BC45" opacity="1.000000" stroke="none" 
	d="
M391.833069,378.105652 
	C391.833069,389.083069 391.833069,400.060486 391.833069,411.430725 
	C365.345428,411.430725 338.981750,411.430725 312.033661,411.430725 
	C312.033661,400.557556 312.033661,389.789459 312.558075,378.549957 
	C339.332672,378.087585 365.582886,378.096619 391.833069,378.105652 
z"/>
<path fill="#EE8A34" opacity="1.000000" stroke="none" 
	d="
M391.833862,278.096161 
	C391.877563,289.071045 391.921234,300.045959 391.441101,311.488403 
	C364.667206,311.951019 338.417114,311.946045 312.167023,311.941071 
	C312.122986,300.965149 312.078949,289.989227 312.558350,278.543091 
	C339.332458,278.080658 365.583160,278.088409 391.833862,278.096161 
z"/>
<path fill="#F1BC46" opacity="1.000000" stroke="none" 
	d="
M312.165131,211.939499 
	C312.165131,200.980621 312.165131,190.021759 312.165131,178.690826 
	C338.654358,178.690826 364.995178,178.690826 391.969055,178.690826 
	C391.969055,189.536499 391.969055,200.277374 391.443970,211.486481 
	C364.667664,211.949615 338.416382,211.944565 312.165131,211.939499 
z"/>
<path fill="#F3BD44" opacity="1.000000" stroke="none" 
	d="
M391.900116,277.621826 
	C365.583160,278.088409 339.332458,278.080658 312.623962,278.084595 
	C312.121826,267.376404 312.077515,256.656494 312.557800,245.471344 
	C339.332733,245.007004 365.583038,245.007874 391.833374,245.008759 
	C391.877716,255.721664 391.922028,266.434570 391.900116,277.621826 
z"/>
<path fill="#EE8934" opacity="1.000000" stroke="none" 
	d="
M391.899719,244.543518 
	C365.583038,245.007874 339.332733,245.007004 312.624512,245.007462 
	C312.122437,234.299774 312.078217,223.590775 312.099579,212.410629 
	C338.416382,211.944565 364.667664,211.949615 391.376892,211.947021 
	C391.878601,222.652344 391.922302,233.365311 391.899719,244.543518 
z"/>
<path fill="#EE8934" opacity="1.000000" stroke="none" 
	d="
M391.899170,377.630554 
	C365.582886,378.096619 339.332672,378.087585 312.624695,378.092194 
	C312.122772,367.380554 312.078613,356.655304 312.558655,345.465698 
	C339.332855,345.001343 365.582886,345.001282 391.832916,345.001221 
	C391.877014,355.719299 391.921143,366.437378 391.899170,377.630554 
z"/>
<path fill="#F3BD44" opacity="1.000000" stroke="none" 
	d="
M391.899841,344.536530 
	C365.582886,345.001282 339.332855,345.001343 312.625000,345.001282 
	C312.122650,334.295197 312.078125,323.589203 312.100311,312.412170 
	C338.417114,311.946045 364.667206,311.951019 391.375061,311.949280 
	C391.877472,322.652374 391.922119,333.362091 391.899841,344.536530 
z"/>
<path fill="#F2A83B" opacity="1.000000" stroke="none" 
	d="
M217.159515,311.974670 
	C217.114075,300.974823 217.068619,289.975006 217.546692,278.514526 
	C231.075867,278.089935 244.081543,278.125977 257.071960,278.620300 
	C257.059570,289.976166 257.062439,300.873749 257.045624,311.846161 
	C257.025940,311.920990 256.986786,312.070679 256.520325,312.037628 
	C243.089096,311.994598 230.124313,311.984619 217.159515,311.974670 
z"/>
<path fill="#F1BC45" opacity="1.000000" stroke="none" 
	d="
M296.833893,378.108398 
	C296.833893,389.153259 296.833893,400.198120 296.833893,411.772888 
	C283.613586,411.772888 270.747528,411.772888 257.419281,411.244629 
	C256.945007,399.906586 256.932922,389.096802 256.944275,378.209656 
	C256.967712,378.132324 257.011688,377.976746 257.478638,378.002197 
	C270.908356,378.054565 283.871124,378.081482 296.833893,378.108398 
z"/>
<path fill="#FFDD33" opacity="1.000000" stroke="none" 
	d="
M256.920837,378.287018 
	C256.932922,389.096802 256.945007,399.906586 256.954834,411.159302 
	C243.899521,411.602234 230.846481,411.602234 217.040909,411.602234 
	C217.040909,400.695740 217.040909,389.855835 217.568085,378.549500 
	C231.037125,378.151062 243.978989,378.219055 256.920837,378.287018 
z"/>
<path fill="#EE8934" opacity="1.000000" stroke="none" 
	d="
M257.065308,311.771332 
	C257.062439,300.873749 257.059570,289.976166 257.065002,278.595459 
	C257.073303,278.112305 257.059052,278.062683 257.522278,278.063293 
	C270.935211,278.076050 283.884888,278.088165 296.834564,278.100281 
	C296.877991,289.072784 296.921448,300.045288 296.441101,311.485535 
	C282.966675,311.892639 270.015991,311.832001 257.065308,311.771332 
z"/>
<path fill="#F3BD44" opacity="1.000000" stroke="none" 
	d="
M257.045624,311.846161 
	C270.015991,311.832001 282.966675,311.892639 296.375122,311.946228 
	C296.877533,322.650024 296.922150,333.360870 296.441956,344.536438 
	C282.959259,345.047791 270.001343,345.094452 257.024963,345.071442 
	C257.006470,345.001740 256.967651,344.862854 256.976929,344.407623 
	C256.986389,333.325165 256.986603,322.697906 256.986786,312.070679 
	C256.986786,312.070679 257.025940,311.920990 257.045624,311.846161 
z"/>
<path fill="#F2A73B" opacity="1.000000" stroke="none" 
	d="
M256.944275,378.209656 
	C243.978989,378.219055 231.037125,378.151062 217.638092,378.091827 
	C217.131348,367.372620 217.081757,356.644684 217.556488,345.454926 
	C231.043091,344.949677 244.005371,344.906281 256.967651,344.862854 
	C256.967651,344.862854 257.006470,345.001740 257.012909,345.525146 
	C257.016785,356.691315 257.014221,367.334015 257.011688,377.976746 
	C257.011688,377.976746 256.967712,378.132324 256.944275,378.209656 
z"/>
<path fill="#EE8934" opacity="1.000000" stroke="none" 
	d="
M257.478638,378.002197 
	C257.014221,367.334015 257.016785,356.691315 257.031372,345.594849 
	C270.001343,345.094452 282.959259,345.047791 296.375031,345.000916 
	C296.877075,355.718964 296.921234,366.437225 296.899658,377.631958 
	C283.871124,378.081482 270.908356,378.054565 257.478638,378.002197 
z"/>
<path fill="#FFDD33" opacity="1.000000" stroke="none" 
	d="
M256.976929,344.407654 
	C244.005371,344.906281 231.043091,344.949677 217.622803,344.989532 
	C217.118805,334.294556 217.072815,323.603119 217.093170,312.443176 
	C230.124313,311.984619 243.089096,311.994598 256.520325,312.037628 
	C256.986603,322.697906 256.986389,333.325165 256.976929,344.407654 
z"/>
<path fill="#FFDD33" opacity="1.000000" stroke="none" 
	d="
M257.080261,278.137177 
	C244.081543,278.125977 231.075867,278.089935 217.611542,278.053162 
	C217.152893,267.265808 217.152893,256.479156 217.152893,245.065369 
	C230.225845,245.065369 243.135010,245.065369 256.510132,245.592529 
	C257.003723,256.767334 257.031372,267.415009 257.059052,278.062683 
	C257.059052,278.062683 257.073303,278.112305 257.080261,278.137177 
z"/>
<path fill="#F3BD44" opacity="1.000000" stroke="none" 
	d="
M257.522278,278.063293 
	C257.031372,267.415009 257.003723,256.767334 256.971802,245.664490 
	C270.084930,245.209305 283.202332,245.209305 296.967163,245.209305 
	C296.967163,255.978058 296.967163,266.563446 296.900879,277.624573 
	C283.884888,278.088165 270.935211,278.076050 257.522278,278.063293 
z"/>
</svg>