<svg width="512" height="512" xmlns="http://www.w3.org/2000/svg" xml:space="preserve" enable-background="new 0 0 512 512" version="1.1">

 <g>
  <title>Layer 1</title>
  <path id="svg_1" d="m225,1c21.02089,0 42.04178,0 63.19092,0.33564c1.1344,0.77715 2.1026,1.4506 3.15292,1.62269c7.06305,1.15717 14.2587,1.72507 21.1976,3.3801c24.66562,5.8831 48.33542,14.38365 70.45285,27.06854c16.29599,9.34615 31.8512,19.78558 45.35172,32.75148c11.63614,11.17537 22.62301,23.17268 32.7738,35.71553c16.43396,20.30673 28.46012,43.27191 37.21338,67.89293c6.1561,17.31558 10.99536,34.96344 12.75214,53.34845c0.06524,0.68297 1.25104,1.25885 1.91467,1.88464c0,21.02089 0,42.04178 -0.33057,63.19131c-0.77542,1.12757 -1.44296,2.08677 -1.62948,3.13181c-1.3096,7.3382 -1.79288,14.91098 -3.90763,22.00088c-5.01068,16.79886 -10.45855,33.48743 -16.40799,49.97583c-2.264,6.27457 -6.38491,11.87916 -9.81231,17.47593c-4.66471,-9.07703 -11.88632,-14.62873 -21.06058,-18.27985c-3.0217,-13.98349 -11.78238,-21.90405 -24.73502,-25.86322c6.03202,-8.76086 12.07163,-17.11719 17.74839,-25.71307c2.37591,-3.5976 5.04983,-5.70288 9.4989,-6.14044c5.10312,-0.50187 10.15887,-1.67191 15.17807,-2.80475c13.60589,-3.0709 23.32983,-15.25144 23.45236,-29.17762c0.12558,-14.27459 -9.34811,-26.73892 -23.25543,-29.74374c-4.89572,-1.05779 -10.09101,-0.72899 -14.62119,-1.00153c-2.25998,-4.7985 -4.49572,-9.54553 -6.86419,-14.60711c-9.14197,-12.00624 -23.54157,-15.92801 -36.59974,-10.24646c-13.31579,5.79362 -20.50085,19.33792 -17.92898,33.74052c0.96207,5.38762 1.99975,10.76872 2.70059,16.19185c0.20972,1.62296 -0.12259,3.70911 -1.0242,5.02121c-8.27966,12.0491 -16.73929,23.97452 -25.37915,35.6785c-3.10632,-2.80731 -5.97992,-5.35718 -9.06824,-8.18613c-8.50226,-5.80163 -17.53326,-5.53815 -26.7901,-4.15588c-0.03363,-61.16803 -0.04208,-121.87102 -0.06707,-182.57399c-0.00095,-2.32267 -0.16129,-4.64527 -0.29386,-7.3079c-10.97821,-21.42996 -21.90991,-42.51991 -32.70852,-63.96057c1.74551,-5.77075 3.53146,-11.14771 4.89254,-16.63015c0.6225,-2.50734 0.96305,-5.33249 0.46878,-7.82243c-1.43622,-7.23554 -7.11862,-11.16127 -15.52182,-11.18483c-30.95929,-0.0868 -61.91865,-0.14625 -92.65204,-0.54512c5.94898,-1.05398 11.67884,-1.73283 17.38364,-2.58024c0.52655,-0.07822 0.89368,-1.2297 1.33484,-1.88281z" fill="#AA80E0"/>
  <path id="svg_5" d="m225.46866,513c-1.09583,-0.66351 -1.66837,-1.84308 -2.35802,-1.91605c-25.07793,-2.65405 -48.78679,-10.04467 -71.73973,-20.25912c-19.99577,-8.89847 -38.32817,-20.36844 -55.30055,-34.1745c-20.53779,-16.70633 -38.43283,-35.75473 -52.61059,-58.41949c9.69474,3.44119 19.52067,4.16021 29.9732,3.43701c3.41818,-0.07291 6.40734,-0.35233 9.39651,-0.35251c44.64265,-0.00269 89.2853,0.03155 133.857,0.38244c-5.04288,16.68778 -10.3824,32.94968 -14.89229,49.43845c-5.4476,19.91708 8.23227,40.48483 28.80475,41.79419c20.38487,1.29742 40.90353,0.49271 61.79223,0.70102c18.51133,-0.06021 36.59379,-0.2359 54.67667,-0.33396c2.46185,-0.01333 4.92581,0.36133 7.3888,0.55637c-8.09586,3.04828 -15.99766,6.86536 -24.33191,8.9689c-13.28309,3.35266 -26.85636,5.55362 -40.29541,8.29798c-0.56299,0.11493 -1.00974,0.79889 -1.16996,1.54852c-20.68027,0.33075 -41.70115,0.33075 -63.1907,0.33075z" fill="#AA81DF"/>
  <path id="svg_7" d="m1,224.46866c0.66538,-1.25366 1.81516,-1.97621 1.92562,-2.8328c3.13654,-24.32133 9.96773,-47.56805 20.35157,-70.21579c0.26582,-0.3397 0.64324,-0.26338 0.65401,0.19535c0.02164,69.18214 0.03812,137.90558 0.00868,206.62903c-0.00069,1.59506 -0.51858,3.18997 -0.79522,4.78494c-5.46447,-16.53925 -11.24007,-32.98511 -16.2468,-49.66177c-2.12987,-7.0943 -2.61921,-14.67734 -3.9372,-22.02335c-0.18863,-1.0513 -0.84742,-2.01825 -1.62464,-2.68424c-0.33602,-21.01425 -0.33602,-42.36848 -0.33602,-64.19137z" fill="#AA80E0"/>
  <path id="svg_8" d="m216.75742,401.37241c-44.64264,-0.02552 -89.28529,-0.05976 -133.92794,-0.05707c-2.98917,0.00018 -5.97833,0.2796 -9.55181,0.06772c-1.11861,-0.73417 -1.60187,-1.27744 -2.19463,-1.45487c-16.39103,-4.90549 -26.39934,-21.71261 -26.30196,-38.78586c0.46934,-82.29049 0.21097,-164.58509 0.2115,-246.87825c0.00005,-8.26561 0.0022,-8.26781 7.99809,-8.26919c96.28616,-0.01666 192.5723,-0.0326 288.85845,-0.04874c0.08603,2.32263 0.24637,4.64523 0.24732,6.9679c0.02499,60.70297 0.03344,121.40596 -0.23987,182.76692c-5.11676,4.31503 -11.01425,7.18198 -14.47885,11.85327c-3.40427,4.59003 -6.54288,5.64798 -11.78986,5.38303c-13.50439,-0.68192 -24.92285,6.47982 -29.84808,18.94607c-1.79136,4.53412 -4.04044,5.27811 -8.4159,5.03229c-16.55426,-0.92996 -30.14451,10.08566 -32.8574,26.00812c-12.66535,4.50216 -20.39548,13.03851 -23.70661,25.70736c-1.12597,4.3082 -2.65668,8.51056 -4.00245,12.7613m-37.22385,-263.41117c-28.96117,0.30469 -53.80116,11.26689 -73.97244,31.36618c-24.347,24.26014 -35.71827,53.97866 -32.64521,88.7482c3.02218,34.19376 19.05333,60.99234 46.58577,80.76487c23.27608,16.71582 49.5412,22.99008 78.07508,19.21194c29.85499,-3.95307 54.12848,-17.97751 72.59028,-41.51996c18.23328,-23.25107 26.04935,-49.78339 22.93711,-79.43121c-3.32901,-31.71233 -17.77838,-57.2919 -42.72837,-76.68586c-20.3981,-15.85571 -43.83328,-23.47988 -70.84222,-22.45416z" fill="#FFCA90"/>
  <path id="svg_9" d="m341.80261,105.60615c-96.23964,0.35614 -192.52578,0.37208 -288.81194,0.38874c-7.99589,0.00138 -7.99804,0.00358 -7.99809,8.26919c-0.00053,82.29316 0.25784,164.58776 -0.2115,246.87825c-0.09738,17.07325 9.91093,33.88037 26.30196,38.78586c0.59276,0.17743 1.07602,0.7207 1.76561,1.37827c-9.86821,1.08459 -19.69414,0.36557 -29.49217,-3.41309c-0.38426,0.10877 -0.32642,0.10571 -0.34817,-0.16431c-0.384,-0.39056 -0.74624,-0.5111 -1.10848,-0.63168c-8.7869,-5.90463 -15.36807,-13.42248 -17.46692,-24.1456c-0.58897,-3.00909 -0.94813,-6.06317 -1.35048,-9.50952c0.33887,-2.00784 0.85676,-3.60275 0.85745,-5.19781c0.02944,-68.72345 0.01296,-137.44689 0.01322,-207.10886c0.00528,-16.04903 -0.00057,-31.15952 -0.00642,-46.27001c9.67191,-18.5437 19.26605,-37.12866 29.06826,-55.60322c2.57627,-4.85559 3.36555,-9.339 1.3351,-14.73316c-1.79857,-4.77815 -2.39052,-10.02941 -3.33536,-15.10528c-1.19913,-6.44196 6.37041,-14.21918 13.53667,-13.52811c5.44777,0.52536 10.98627,0.10991 16.67152,0.37934c-8.79871,4.15296 -11.60877,9.93174 -9.04403,19.44175c0.86559,3.2096 2.23337,6.31458 2.80004,9.56696c0.90387,5.18772 3.45546,6.85416 8.84536,6.8408c75.04522,-0.18588 150.09107,-0.12731 225.13676,-0.12838c10.93167,21.08996 21.86337,42.17991 32.84161,63.60987z" fill="#FFA969"/>
  <path id="svg_10" d="m354.80194,493.91339c-2.80829,-0.25458 -5.27225,-0.62924 -7.7341,-0.61591c-18.08288,0.09806 -36.16534,0.27375 -54.83255,0.05909c-2.49771,-1.31879 -4.58038,-2.03687 -6.29013,-3.2714c-4.11752,-2.9732 -8.78784,-5.59078 -11.93353,-9.42089c-8.49219,-10.33991 -9.42182,-22.11777 -5.22278,-34.70807c4.20218,-12.59967 7.87482,-25.37607 11.7695,-38.0781c2.23938,-7.3035 4.30032,-14.66607 6.72192,-21.90832c4.22199,-12.62659 13.06058,-20.46155 26.23218,-24.16309c44.31168,-0.04675 88.16443,-0.03567 132.01691,0.08103c4.78885,0.01272 9.57605,0.63369 14.36401,0.97256c9.13233,3.28674 16.35394,8.83844 21.01868,17.91547c-5.24277,9.15829 -10.26642,18.25827 -16.11572,26.79239c-10.3248,15.06399 -23.05274,28.12329 -36.4477,40.41626c-13.58929,12.47128 -28.4324,23.41818 -44.79751,32.06213c-9.3198,4.92264 -18.92639,9.30225 -28.74918,13.86685z" fill="#37D99D"/>
  <path id="svg_11" d="m309.09409,41.64557c-75.17878,0.35178 -150.22463,0.29321 -225.26985,0.47909c-5.3899,0.01336 -7.94149,-1.65308 -8.84536,-6.8408c-0.56667,-3.25238 -1.93445,-6.35736 -2.80004,-9.56696c-2.56474,-9.51001 0.24532,-15.28879 9.50448,-19.36634c35.51006,-0.24414 70.74678,-0.29762 105.9835,-0.35044c5.81789,-0.00872 11.63576,-0.01453 17.92119,-0.11481c31.4269,-0.02339 62.38626,0.03606 93.34555,0.12286c8.4032,0.02356 14.0856,3.94929 15.52182,11.18483c0.49427,2.48994 0.15372,5.31509 -0.46878,7.82243c-1.36108,5.48244 -3.14703,10.8594 -4.89251,16.63014z" fill="#FFCA90"/>
  <path id="svg_12" d="m456.38608,227.759c2.23572,4.74701 4.47146,9.49404 6.73144,14.29254c4.53018,0.27254 9.72547,-0.05626 14.62119,1.00153c13.90732,3.00482 23.38101,15.46915 23.25543,29.74374c-0.12253,13.92618 -9.84647,26.10672 -23.45236,29.17762c-5.0192,1.13284 -10.07495,2.30288 -15.17807,2.80475c-4.44907,0.43756 -7.12299,2.54284 -9.4989,6.14044c-5.67676,8.59588 -11.71637,16.95221 -18.21241,25.73614c-3.91015,0.34891 -7.25299,0.65662 -10.50872,0.2562c-1.50699,-0.1854 -3.64438,-1.44919 -4.13147,-2.73926c-3.83478,-10.15616 -10.89191,-16.79144 -21.00977,-20.68494c3.1749,-5.39364 6.26679,-10.46609 9.48776,-15.45517c5.53269,-8.5697 12.87461,-16.02188 14.37568,-26.9154c1.48742,-10.79453 6.59072,-20.25435 13.51132,-28.52387c5.41281,-6.46786 10.92764,-13.15561 20.00888,-14.83432z" fill="#F8F5F7"/>
  <path id="svg_13" d="m398.97757,313.8465c10.14273,3.53476 17.19986,10.17004 21.03464,20.3262c0.48709,1.29007 2.62448,2.55386 4.13147,2.73926c3.25573,0.40042 6.59857,0.09271 10.36981,0.0516c13.55557,3.6283 22.31625,11.54886 25.33795,25.53235c-4.74603,0.02551 -9.53323,-0.59546 -14.32208,-0.60818c-43.85248,-0.1167 -87.70523,-0.12778 -132.47974,-0.16318c-4.97678,-0.07358 -9.03171,-0.15366 -12.9964,-0.54022c4.53504,-6.25959 11.13089,-8.01255 17.91522,-8.97693c3.06891,-0.43622 4.28666,-1.77793 4.85761,-4.56659c3.43271,-16.76627 11.64688,-24.60593 29.06952,-27.4285c2.8714,-0.46518 4.51739,-1.42667 5.27762,-4.24106c1.86667,-6.91043 6.41376,-11.88086 11.99511,-16.04821c2.87363,2.54983 5.74723,5.0997 8.97138,8.21057c1.3616,2.21908 2.37271,3.87713 2.79278,4.56604c6.63459,0.42166 12.33985,0.78427 18.04511,1.14685z" fill="#C98375"/>
  <path id="svg_14" d="m368.95361,299.64392c-5.36666,4.44647 -9.91375,9.4169 -11.78042,16.32733c-0.76023,2.81439 -2.40622,3.77588 -5.27762,4.24106c-17.42264,2.82257 -25.63681,10.66223 -29.06952,27.4285c-0.57095,2.78866 -1.7887,4.13037 -4.85761,4.56659c-6.78433,0.96438 -13.38018,2.71734 -18.38018,9.00461c-12.18634,0.3608 -23.81958,0.26214 -35.44763,0.46344c-6.45035,0.11166 -12.89205,0.72448 -19.33765,1.11141c2.37639,-15.80557 15.96664,-26.82119 32.5209,-25.89123c4.37546,0.24582 6.62454,-0.49817 8.4159,-5.03229c4.92523,-12.46625 16.34369,-19.62799 29.84808,-18.94607c5.24698,0.26495 8.38559,-0.793 11.78986,-5.38303c3.4646,-4.67129 9.36209,-7.53824 14.50119,-11.38818c9.54144,-2.04029 18.57244,-2.30377 27.0747,3.49786z" fill="#BF6952"/>
  <path id="svg_15" d="m399.00244,313.48776c-5.73013,-0.00384 -11.43539,-0.36645 -18.06998,-0.78811c-0.42007,-0.68891 -1.43118,-2.34696 -2.56009,-4.30857c8.28934,-12.26501 16.74897,-24.19043 25.02863,-36.23953c0.90161,-1.3121 1.23392,-3.39825 1.0242,-5.02121c-0.70084,-5.42313 -1.73852,-10.80423 -2.70059,-16.19185c-2.57187,-14.4026 4.61319,-27.9469 17.92898,-33.74052c13.05817,-5.68155 27.45777,-1.75978 36.59974,10.24646c-8.94849,1.99328 -14.46332,8.68103 -19.87613,15.14889c-6.9206,8.26952 -12.0239,17.72934 -13.51132,28.52387c-1.50107,10.89352 -8.84299,18.3457 -14.37568,26.9154c-3.22097,4.98908 -6.31286,10.06153 -9.48776,15.45517z" fill="#E3E0F2"/>
  <path id="svg_16" d="m41.99783,397.34546c0.26424,-0.1275 0.62648,-0.00696 1.00434,0.41205c-0.2917,0.14435 -0.59901,-0.00983 -1.00434,-0.41205z" fill="#AA81DF"/>
  <path id="svg_17" d="m244.46648,362.90375c6.7821,-0.50382 13.2238,-1.11664 19.67415,-1.2283c11.62805,-0.2013 23.26129,-0.10264 35.35736,-0.15693c4.51992,0.05237 8.57485,0.13245 13.09265,0.29465c-12.24979,3.69507 -21.08838,11.53003 -25.31037,24.15662c-2.4216,7.24225 -4.48254,14.60482 -6.72192,21.90832c-3.89468,12.70203 -7.56732,25.47843 -11.7695,38.0781c-4.19904,12.5903 -3.26941,24.36816 5.22278,34.70807c3.14569,3.83011 7.81601,6.44769 11.93353,9.42089c1.70975,1.23453 3.79242,1.95261 5.86142,3.18039c-20.30411,0.15757 -40.82277,0.96228 -61.20764,-0.33514c-20.57248,-1.30936 -34.25235,-21.87711 -28.80475,-41.79419c4.50989,-16.48877 9.84941,-32.75067 14.8923,-49.43845c1.4167,-4.57611 2.94741,-8.77847 4.07338,-13.08667c3.31113,-12.66885 11.04126,-21.2052 23.70661,-25.70736z" fill="#23CE90"/>
  <path id="svg_18" d="m23.56094,105.08521c0.39159,14.89086 0.39744,30.00135 0.38139,45.59167c-0.0219,0.47981 -0.39932,0.40349 -0.58957,0.37415c-0.18603,-15.2683 -0.1818,-30.50725 0.20818,-45.96582z" fill="#FFBA80"/>
  <path id="svg_19" d="m180.02818,137.95943c26.51433,-1.02391 49.94951,6.60026 70.34761,22.45597c24.94999,19.39396 39.39936,44.97353 42.72837,76.68586c3.11224,29.64782 -4.70383,56.18014 -22.93711,79.43121c-18.4618,23.54245 -42.73529,37.56689 -72.59028,41.51996c-28.53388,3.77814 -54.799,-2.49612 -78.07508,-19.21194c-27.53244,-19.77253 -43.56359,-46.57111 -46.58577,-80.76487c-3.07306,-34.76954 8.29821,-64.48806 32.64521,-88.7482c20.17128,-20.09929 45.01127,-31.06149 74.46705,-31.36799m91.18169,73.38896c-16.93416,-39.31758 -57.02702,-63.02257 -98.3335,-58.13989c-51.35508,6.07051 -87.6002,49.11645 -85.08185,101.04612c2.84315,58.627 60.72819,101.442 117.65298,87.02272c57.49668,-14.56414 87.52803,-73.29333 65.76237,-129.92895z" fill="#FFAA6A"/>
  <path id="svg_20" d="m271.36945,211.69846c21.60608,56.28555 -8.42527,115.01474 -65.92195,129.57888c-56.92479,14.41928 -114.80983,-28.39572 -117.65298,-87.02272c-2.51835,-51.92967 33.72677,-94.97561 85.08185,-101.04612c41.30648,-4.88268 81.39934,18.82231 98.49308,58.48996m-129.92858,85.42474c15.15546,9.93667 28.9421,7.10724 41.7222,-4.8049c1.30728,1.14133 2.41519,2.11157 3.52628,3.07818c12.11627,10.54056 29.89779,10.11878 41.29322,-0.97882c11.49413,-11.19375 12.4944,-29.51175 1.73101,-41.60591c-6.4115,-7.20422 -13.26761,-14.1028 -20.53688,-20.43499c-15.47104,-13.47669 -38.16162,-12.9175 -53.33011,1.01023c-5.88617,5.40468 -11.4576,11.15905 -17.06037,16.86415c-13.94553,14.20034 -13.06538,33.42162 2.65465,46.87206m24.28414,-78.802c9.67109,-2.91329 14.21629,-11.51813 10.56427,-19.99997c-2.97667,-6.91332 -10.51293,-10.38313 -17.78734,-8.18955c-6.63237,1.99997 -11.14267,9.1518 -10.04198,15.92321c1.31607,8.0964 7.63672,12.87175 17.26505,12.26631m85.54417,17.10885c1.91174,-6.30529 0.05684,-11.54153 -4.88559,-15.58807c-4.69879,-3.84708 -10.08261,-4.14789 -15.47728,-1.63503c-5.93472,2.76442 -9.01118,9.24199 -7.8455,15.80591c1.06626,6.00403 6.35507,10.91721 12.68351,11.78264c6.21685,0.85019 11.93563,-2.73933 15.52486,-10.36545m-41.15189,-44.26619c-7.08789,-2.7789 -13.03338,-1.80142 -17.4467,2.86841c-3.91604,4.14366 -5.03665,10.56697 -2.75702,15.80321c2.38088,5.46878 8.14336,9.1546 13.87513,8.87483c6.31883,-0.30841 11.63885,-4.575 13.48384,-10.81381c1.84686,-6.24512 -0.27346,-11.56573 -7.15525,-16.73264m-67.26835,36.07308c-0.54961,-1.20676 -0.98395,-2.48357 -1.66773,-3.6088c-4.11245,-6.76751 -12.72609,-8.95443 -19.61418,-5.03386c-6.7325,3.83203 -9.25647,12.00289 -5.86186,18.97661c3.06076,6.28788 10.07256,9.54445 16.6439,7.73015c7.78745,-2.15007 11.48873,-8.13281 10.49987,-18.0641z" fill="#F7F5F6"/>
  <path id="svg_21" d="m141.14151,296.92075c-15.42067,-13.24799 -16.30082,-32.46927 -2.35529,-46.66961c5.60277,-5.7051 11.1742,-11.45947 17.06037,-16.86415c15.16849,-13.92773 37.85907,-14.48692 53.33011,-1.01023c7.26927,6.33219 14.12538,13.23077 20.53688,20.43499c10.76339,12.09416 9.76312,30.41216 -1.73101,41.60591c-11.39543,11.0976 -29.17695,11.51938 -41.29322,0.97882c-1.11109,-0.96661 -2.219,-1.93685 -3.52628,-3.07818c-12.7801,11.91214 -26.56674,14.74157 -42.02156,4.60245z" fill="#6C6771"/>
  <path id="svg_22" d="m165.33852,218.41803c-9.24184,0.50861 -15.56249,-4.26674 -16.87856,-12.36314c-1.10069,-6.77141 3.40961,-13.92324 10.04198,-15.92321c7.27441,-2.19358 14.81067,1.27623 17.78734,8.18955c3.65202,8.48184 -0.89318,17.08668 -10.95076,20.0968z" fill="#6E6973"/>
  <path id="svg_23" d="m251.15555,235.81184c-3.4756,7.24433 -9.19438,10.83385 -15.41123,9.98366c-6.32844,-0.86543 -11.61725,-5.77861 -12.68351,-11.78264c-1.16568,-6.56392 1.91078,-13.04149 7.8455,-15.80591c5.39467,-2.51286 10.77849,-2.21205 15.47728,1.63503c4.94243,4.04654 6.79733,9.28278 4.77196,15.96986z" fill="#6D6872"/>
  <path id="svg_24" d="m210.43808,191.35767c6.561,4.9731 8.68132,10.29371 6.83446,16.53883c-1.84499,6.23881 -7.16501,10.5054 -13.48384,10.81381c-5.73177,0.27977 -11.49425,-3.40605 -13.87513,-8.87483c-2.27963,-5.23624 -1.15902,-11.65955 2.75702,-15.80321c4.41332,-4.66983 10.35881,-5.64731 17.76749,-2.6746z" fill="#6D6872"/>
  <path id="svg_25" d="m142.93149,227.64957c0.90631,9.51866 -2.79497,15.5014 -10.58242,17.65147c-6.57134,1.8143 -13.58314,-1.44227 -16.6439,-7.73015c-3.39461,-6.97372 -0.87064,-15.14458 5.86186,-18.97661c6.88809,-3.92057 15.50173,-1.73365 19.61418,5.03386c0.68378,1.12523 1.11812,2.40204 1.75028,4.02143z" fill="#6D6872"/>
 </g>
</svg>