<svg version="1.1" id="Layer_1" xmlns="http://www.w3.org/2000/svg" xmlns:xlink="http://www.w3.org/1999/xlink" x="0px" y="0px"
	 width="100%" viewBox="0 0 512 512" enable-background="new 0 0 512 512" xml:space="preserve">
<path fill="#AA80E0" opacity="1.000000" stroke="none" 
	d="
M225.000000,0.999996 
	C246.020889,1.000000 267.041779,1.000000 288.190918,1.335640 
	C289.325317,2.112787 290.293518,2.786243 291.343842,2.958326 
	C298.406891,4.115500 305.602539,4.683400 312.541443,6.338430 
	C337.207062,12.221528 360.876862,20.722078 382.994293,33.406967 
	C399.290283,42.753117 414.845490,53.192554 428.346008,66.158447 
	C439.982147,77.333817 450.969025,89.331131 461.119812,101.873978 
	C477.553772,122.180710 489.579926,145.145889 498.333191,169.766907 
	C504.489288,187.082489 509.328552,204.730347 511.085327,223.115356 
	C511.150574,223.798325 512.336365,224.374207 513.000000,225.000000 
	C513.000000,246.020889 513.000000,267.041779 512.669434,288.191315 
	C511.894012,289.318878 511.226471,290.278076 511.039948,291.323120 
	C509.730347,298.661316 509.247070,306.234100 507.132324,313.324005 
	C502.121643,330.122864 496.673767,346.811432 490.724335,363.299835 
	C488.460327,369.574402 484.339417,375.178986 480.912018,380.775757 
	C476.247314,371.698730 469.025696,366.147034 459.851440,362.495911 
	C456.829742,348.512421 448.069061,340.591858 435.116425,336.632690 
	C441.148438,327.871826 447.188049,319.515503 452.864807,310.919617 
	C455.240723,307.322021 457.914642,305.216736 462.363708,304.779175 
	C467.466827,304.277313 472.522583,303.107269 477.541779,301.974426 
	C491.147675,298.903534 500.871613,286.722992 500.994141,272.796814 
	C501.119720,258.522217 491.646027,246.057892 477.738708,243.053070 
	C472.842987,241.995285 467.647705,242.324081 463.117523,242.051544 
	C460.857544,237.253036 458.621796,232.506012 456.253326,227.444427 
	C447.111359,215.438187 432.711761,211.516418 419.653595,217.197968 
	C406.337799,222.991592 399.152740,236.535889 401.724609,250.938492 
	C402.686676,256.326111 403.724365,261.707214 404.425201,267.130341 
	C404.634918,268.753296 404.302612,270.839447 403.401001,272.151550 
	C395.121338,284.200653 386.661713,296.126068 378.021851,307.830048 
	C374.915527,305.022736 372.041931,302.472870 368.953613,299.643921 
	C360.451355,293.842285 351.420349,294.105774 342.163513,295.488037 
	C342.129883,234.320007 342.121429,173.617020 342.096436,112.914047 
	C342.095490,110.591377 341.935150,108.268784 341.802582,105.606148 
	C330.824371,84.176193 319.892670,63.086239 309.094055,41.645576 
	C310.839569,35.874825 312.625519,30.497869 313.986603,25.015430 
	C314.609100,22.508091 314.949646,19.682943 314.455383,17.193003 
	C313.019165,9.957463 307.336761,6.031734 298.933563,6.008174 
	C267.974274,5.921370 237.014908,5.861922 206.281525,5.463051 
	C212.230499,4.409066 217.960358,3.730216 223.665161,2.882808 
	C224.191711,2.804589 224.558838,1.653114 225.000000,0.999996 
z"/>
<path fill="#000000" opacity="1.000000" stroke="none" 
	d="
M513.000000,224.531342 
	C512.336365,224.374207 511.150574,223.798325 511.085327,223.115356 
	C509.328552,204.730347 504.489288,187.082489 498.333191,169.766907 
	C489.579926,145.145889 477.553772,122.180710 461.119812,101.873978 
	C450.969025,89.331131 439.982147,77.333817 428.346008,66.158447 
	C414.845490,53.192554 399.290283,42.753117 382.994293,33.406967 
	C360.876862,20.722078 337.207062,12.221528 312.541443,6.338430 
	C305.602539,4.683400 298.406891,4.115500 291.343842,2.958326 
	C290.293518,2.786243 289.325317,2.112787 288.659546,1.335640 
	C363.593719,1.000000 438.187408,1.000000 513.000000,1.000000 
	C513.000000,75.354088 513.000000,149.708389 513.000000,224.531342 
z"/>
<path fill="#000000" opacity="1.000000" stroke="none" 
	d="
M481.064819,381.088959 
	C484.339417,375.178986 488.460327,369.574402 490.724335,363.299835 
	C496.673767,346.811432 502.121643,330.122864 507.132324,313.324005 
	C509.247070,306.234100 509.730347,298.661316 511.039948,291.323120 
	C511.226471,290.278076 511.894012,289.318878 512.669434,288.659973 
	C513.000000,363.593719 513.000000,438.187408 513.000000,513.000000 
	C438.645905,513.000000 364.291626,513.000000 289.127991,512.669250 
	C288.819580,511.919617 289.266327,511.235657 289.829315,511.120728 
	C303.268372,508.376373 316.841644,506.175415 330.124725,502.822754 
	C338.458984,500.719208 346.360779,496.902130 354.801941,493.913391 
	C364.624725,489.348785 374.231323,484.969177 383.551117,480.046539 
	C399.916229,471.402588 414.759338,460.455688 428.348633,447.984406 
	C441.743591,435.691437 454.471527,422.632141 464.796326,407.568146 
	C470.645630,399.034027 475.669281,389.934052 481.064819,381.088959 
z"/>
<path fill="#000000" opacity="1.000000" stroke="none" 
	d="
M225.000000,513.000000 
	C150.406296,513.000000 75.812599,513.000000 1.000000,513.000000 
	C1.000000,438.645905 1.000000,364.291626 1.336021,289.128662 
	C2.113236,289.326019 2.772031,290.292969 2.960655,291.344269 
	C4.278649,298.690277 4.767985,306.273315 6.897863,313.367615 
	C11.904586,330.044281 17.680193,346.490143 23.082432,363.442261 
	C23.484783,366.888611 23.843937,369.942688 24.432913,372.951782 
	C26.531761,383.674896 33.112930,391.192749 41.997833,397.345459 
	C42.403156,397.747681 42.710472,397.901855 43.023926,398.027527 
	C43.030060,397.999084 42.972218,398.002136 43.075508,398.339600 
	C57.637531,420.895599 75.532570,439.944000 96.070358,456.650330 
	C113.042740,470.456390 131.375137,481.926361 151.370911,490.824829 
	C174.323853,501.039276 198.032715,508.429901 223.110641,511.083954 
	C223.800293,511.156921 224.372833,512.336487 225.000000,513.000000 
z"/>
<path fill="#AA81DF" opacity="1.000000" stroke="none" 
	d="
M225.468658,513.000000 
	C224.372833,512.336487 223.800293,511.156921 223.110641,511.083954 
	C198.032715,508.429901 174.323853,501.039276 151.370911,490.824829 
	C131.375137,481.926361 113.042740,470.456390 96.070358,456.650330 
	C75.532570,439.944000 57.637531,420.895599 43.459770,398.230835 
	C53.154510,401.672028 62.980438,402.391052 73.432968,401.667847 
	C76.851151,401.594940 79.840309,401.315521 82.829483,401.315338 
	C127.472130,401.312653 172.114777,401.346893 216.686478,401.697784 
	C211.643600,418.385559 206.304077,434.647461 201.794189,451.136230 
	C196.346588,471.053314 210.026459,491.621063 230.598938,492.930420 
	C250.983810,494.227844 271.502472,493.423126 292.391174,493.631439 
	C310.902496,493.571228 328.984955,493.395538 347.067841,493.297485 
	C349.529694,493.284149 351.993652,493.658813 354.456635,493.853851 
	C346.360779,496.902130 338.458984,500.719208 330.124725,502.822754 
	C316.841644,506.175415 303.268372,508.376373 289.829315,511.120728 
	C289.266327,511.235657 288.819580,511.919617 288.659363,512.669250 
	C267.979095,513.000000 246.958206,513.000000 225.468658,513.000000 
z"/>
<path fill="#000000" opacity="1.000000" stroke="none" 
	d="
M224.531342,0.999996 
	C224.558838,1.653114 224.191711,2.804589 223.665161,2.882808 
	C217.960358,3.730216 212.230499,4.409066 205.813965,5.556177 
	C199.302582,5.985592 193.484711,5.991401 187.666824,6.000121 
	C152.430099,6.052937 117.193382,6.106417 81.496216,6.084268 
	C75.537621,6.005715 69.999123,6.421165 64.551346,5.895811 
	C57.385094,5.204737 49.815548,12.981956 51.014679,19.423920 
	C51.959522,24.499788 52.551468,29.751045 54.350044,34.529205 
	C56.380489,39.923363 55.591206,44.406773 53.014935,49.262363 
	C43.212734,67.736923 33.618587,86.321884 23.560938,105.085205 
	C23.170963,120.543777 23.166733,135.782730 23.086933,151.390717 
	C12.893349,174.067810 6.062162,197.314529 2.925623,221.635864 
	C2.815156,222.492447 1.665382,223.214996 1.000002,224.000000 
	C1.000000,149.739456 1.000000,75.478920 1.000000,1.000000 
	C75.354088,1.000000 149.708389,1.000000 224.531342,0.999996 
z"/>
<path fill="#AA80E0" opacity="1.000000" stroke="none" 
	d="
M1.000002,224.468658 
	C1.665382,223.214996 2.815156,222.492447 2.925623,221.635864 
	C6.062162,197.314529 12.893349,174.067810 23.277187,151.420074 
	C23.543011,151.080368 23.920433,151.156693 23.931202,151.615417 
	C23.952845,220.797562 23.969316,289.520996 23.939877,358.244446 
	C23.939192,359.839508 23.421299,361.434418 23.144657,363.029388 
	C17.680193,346.490143 11.904586,330.044281 6.897863,313.367615 
	C4.767985,306.273315 4.278649,298.690277 2.960655,291.344269 
	C2.772031,290.292969 2.113236,289.326019 1.336021,288.660034 
	C1.000000,267.645782 1.000000,246.291550 1.000002,224.468658 
z"/>
<path fill="#FFCA90" opacity="1.000000" stroke="none" 
	d="
M216.757416,401.372406 
	C172.114777,401.346893 127.472130,401.312653 82.829483,401.315338 
	C79.840309,401.315521 76.851151,401.594940 73.277672,401.383057 
	C72.159065,400.648895 71.675804,400.105621 71.083038,399.928192 
	C54.692013,395.022705 44.683701,378.215576 44.781078,361.142334 
	C45.250420,278.851837 44.992054,196.557236 44.992577,114.264084 
	C44.992630,105.998474 44.994781,105.996269 52.990669,105.994888 
	C149.276825,105.978233 245.562973,105.962288 341.849121,105.946152 
	C341.935150,108.268784 342.095490,110.591377 342.096436,112.914047 
	C342.121429,173.617020 342.129883,234.320007 341.856567,295.680969 
	C336.739807,299.996002 330.842316,302.862946 327.377716,307.534241 
	C323.973450,312.124268 320.834839,313.182220 315.587860,312.917267 
	C302.083466,312.235352 290.665009,319.397095 285.739777,331.863342 
	C283.948425,336.397461 281.699341,337.141449 277.323883,336.895630 
	C260.769623,335.965668 247.179367,346.981293 244.466476,362.903748 
	C231.801132,367.405914 224.070999,375.942261 220.759872,388.611115 
	C219.633896,392.919312 218.103195,397.121674 216.757416,401.372406 
M179.533569,137.961243 
	C150.572403,138.265930 125.732407,149.228134 105.561127,169.327423 
	C81.214127,193.587555 69.842857,223.306076 72.915924,258.075623 
	C75.938095,292.269379 91.969254,319.067963 119.501686,338.840485 
	C142.777771,355.556305 169.042892,361.830566 197.576767,358.052429 
	C227.431763,354.099365 251.705246,340.074921 270.167053,316.532471 
	C288.400330,293.281403 296.216400,266.749084 293.104156,237.101257 
	C289.775146,205.388931 275.325775,179.809357 250.375793,160.415405 
	C229.977692,144.559692 206.542511,136.935516 179.533569,137.961243 
z"/>
<path fill="#FFA969" opacity="1.000000" stroke="none" 
	d="
M341.802612,105.606148 
	C245.562973,105.962288 149.276825,105.978233 52.990669,105.994888 
	C44.994781,105.996269 44.992630,105.998474 44.992577,114.264084 
	C44.992054,196.557236 45.250420,278.851837 44.781078,361.142334 
	C44.683701,378.215576 54.692013,395.022705 71.083038,399.928192 
	C71.675804,400.105621 72.159065,400.648895 72.848648,401.306458 
	C62.980438,402.391052 53.154510,401.672028 43.356476,397.893372 
	C42.972218,398.002136 43.030060,397.999084 43.008308,397.729065 
	C42.624310,397.338501 42.262066,397.217957 41.899826,397.097382 
	C33.112930,391.192749 26.531761,383.674896 24.432913,372.951782 
	C23.843937,369.942688 23.484783,366.888611 23.082432,363.442261 
	C23.421299,361.434418 23.939192,359.839508 23.939877,358.244446 
	C23.969316,289.520996 23.952845,220.797562 23.953098,151.135590 
	C23.958380,135.086563 23.952532,119.976067 23.946684,104.865578 
	C33.618587,86.321884 43.212734,67.736923 53.014935,49.262363 
	C55.591206,44.406773 56.380489,39.923363 54.350044,34.529205 
	C52.551468,29.751045 51.959522,24.499788 51.014679,19.423920 
	C49.815548,12.981956 57.385094,5.204737 64.551346,5.895811 
	C69.999123,6.421165 75.537621,6.005715 81.222870,6.275153 
	C72.424164,10.428107 69.614098,16.206886 72.178841,25.716898 
	C73.044426,28.926504 74.412209,32.031475 74.978882,35.283855 
	C75.882751,40.471577 78.434341,42.138020 83.824242,42.124664 
	C158.869461,41.938782 233.915314,41.997353 308.960999,41.996281 
	C319.892670,63.086239 330.824371,84.176193 341.802612,105.606148 
z"/>
<path fill="#37D99D" opacity="1.000000" stroke="none" 
	d="
M354.801941,493.913391 
	C351.993652,493.658813 349.529694,493.284149 347.067841,493.297485 
	C328.984955,493.395538 310.902496,493.571228 292.235291,493.356567 
	C289.737579,492.037781 287.654907,491.319702 285.945160,490.085175 
	C281.827637,487.111969 277.157318,484.494385 274.011627,480.664276 
	C265.519440,470.324371 264.589813,458.546509 268.788849,445.956207 
	C272.991028,433.356537 276.663666,420.580139 280.558350,407.878113 
	C282.797729,400.574615 284.858673,393.212036 287.280273,385.969788 
	C291.502258,373.343201 300.340851,365.508240 313.512451,361.806702 
	C357.824127,361.759949 401.676880,361.771027 445.529358,361.887726 
	C450.318207,361.900452 455.105408,362.521423 459.893372,362.860291 
	C469.025696,366.147034 476.247314,371.698730 480.912048,380.775757 
	C475.669281,389.934052 470.645630,399.034027 464.796326,407.568146 
	C454.471527,422.632141 441.743591,435.691437 428.348633,447.984406 
	C414.759338,460.455688 399.916229,471.402588 383.551117,480.046539 
	C374.231323,484.969177 364.624725,489.348785 354.801941,493.913391 
z"/>
<path fill="#FFCA90" opacity="1.000000" stroke="none" 
	d="
M309.094086,41.645569 
	C233.915314,41.997353 158.869461,41.938782 83.824242,42.124664 
	C78.434341,42.138020 75.882751,40.471577 74.978882,35.283855 
	C74.412209,32.031475 73.044426,28.926504 72.178841,25.716898 
	C69.614098,16.206886 72.424164,10.428107 81.683319,6.350561 
	C117.193382,6.106417 152.430099,6.052937 187.666824,6.000121 
	C193.484711,5.991401 199.302582,5.985592 205.588013,5.885311 
	C237.014908,5.861922 267.974274,5.921370 298.933563,6.008174 
	C307.336761,6.031734 313.019165,9.957463 314.455383,17.193003 
	C314.949646,19.682943 314.609100,22.508091 313.986603,25.015430 
	C312.625519,30.497869 310.839569,35.874825 309.094086,41.645569 
z"/>
<path fill="#F8F5F7" opacity="1.000000" stroke="none" 
	d="
M456.386078,227.759003 
	C458.621796,232.506012 460.857544,237.253036 463.117523,242.051544 
	C467.647705,242.324081 472.842987,241.995285 477.738708,243.053070 
	C491.646027,246.057892 501.119720,258.522217 500.994141,272.796814 
	C500.871613,286.722992 491.147675,298.903534 477.541779,301.974426 
	C472.522583,303.107269 467.466827,304.277313 462.363708,304.779175 
	C457.914642,305.216736 455.240723,307.322021 452.864807,310.919617 
	C447.188049,319.515503 441.148438,327.871826 434.652405,336.655762 
	C430.742249,337.004669 427.399414,337.312378 424.143677,336.911957 
	C422.636688,336.726562 420.499298,335.462769 420.012207,334.172699 
	C416.177429,324.016541 409.120300,317.381256 399.002441,313.487762 
	C402.177338,308.094116 405.269226,303.021667 408.490204,298.032593 
	C414.022888,289.462891 421.364807,282.010712 422.865875,271.117188 
	C424.353302,260.322662 429.456604,250.862839 436.377197,242.593323 
	C441.790009,236.125458 447.304840,229.437714 456.386078,227.759003 
z"/>
<path fill="#C98375" opacity="1.000000" stroke="none" 
	d="
M398.977570,313.846497 
	C409.120300,317.381256 416.177429,324.016541 420.012207,334.172699 
	C420.499298,335.462769 422.636688,336.726562 424.143677,336.911957 
	C427.399414,337.312378 430.742249,337.004669 434.513489,336.963562 
	C448.069061,340.591858 456.829742,348.512421 459.851440,362.495911 
	C455.105408,362.521423 450.318207,361.900452 445.529358,361.887726 
	C401.676880,361.771027 357.824127,361.759949 313.049622,361.724548 
	C308.072845,361.650970 304.017914,361.570892 300.053223,361.184326 
	C304.588257,354.924744 311.184113,353.171783 317.968445,352.207397 
	C321.037354,351.771179 322.255096,350.429474 322.826050,347.640808 
	C326.258759,330.874542 334.472931,323.034882 351.895569,320.212311 
	C354.766968,319.747131 356.412964,318.785645 357.173187,315.971252 
	C359.039856,309.060822 363.586945,304.090393 369.168304,299.923035 
	C372.041931,302.472870 374.915527,305.022736 378.139679,308.133606 
	C379.501282,310.352692 380.512390,312.010742 380.932465,312.699646 
	C387.567047,313.121307 393.272308,313.483917 398.977570,313.846497 
z"/>
<path fill="#BF6952" opacity="1.000000" stroke="none" 
	d="
M368.953613,299.643921 
	C363.586945,304.090393 359.039856,309.060822 357.173187,315.971252 
	C356.412964,318.785645 354.766968,319.747131 351.895569,320.212311 
	C334.472931,323.034882 326.258759,330.874542 322.826050,347.640808 
	C322.255096,350.429474 321.037354,351.771179 317.968445,352.207397 
	C311.184113,353.171783 304.588257,354.924744 299.588257,361.212006 
	C287.401917,361.572815 275.768677,361.474152 264.140625,361.675446 
	C257.690277,361.787109 251.248581,362.399933 244.802979,362.786865 
	C247.179367,346.981293 260.769623,335.965668 277.323883,336.895630 
	C281.699341,337.141449 283.948425,336.397461 285.739777,331.863342 
	C290.665009,319.397095 302.083466,312.235352 315.587860,312.917267 
	C320.834839,313.182220 323.973450,312.124268 327.377716,307.534241 
	C330.842316,302.862946 336.739807,299.996002 341.878906,296.146057 
	C351.420349,294.105774 360.451355,293.842285 368.953613,299.643921 
z"/>
<path fill="#E3E0F2" opacity="1.000000" stroke="none" 
	d="
M399.002441,313.487762 
	C393.272308,313.483917 387.567047,313.121307 380.932465,312.699646 
	C380.512390,312.010742 379.501282,310.352692 378.372375,308.391083 
	C386.661713,296.126068 395.121338,284.200653 403.401001,272.151550 
	C404.302612,270.839447 404.634918,268.753296 404.425201,267.130341 
	C403.724365,261.707214 402.686676,256.326111 401.724609,250.938492 
	C399.152740,236.535889 406.337799,222.991592 419.653595,217.197968 
	C432.711761,211.516418 447.111359,215.438187 456.253326,227.444427 
	C447.304840,229.437714 441.790009,236.125458 436.377197,242.593323 
	C429.456604,250.862839 424.353302,260.322662 422.865875,271.117188 
	C421.364807,282.010712 414.022888,289.462891 408.490204,298.032593 
	C405.269226,303.021667 402.177338,308.094116 399.002441,313.487762 
z"/>
<path fill="#AA81DF" opacity="1.000000" stroke="none" 
	d="
M41.997833,397.345459 
	C42.262066,397.217957 42.624310,397.338501 43.002171,397.757507 
	C42.710472,397.901855 42.403156,397.747681 41.997833,397.345459 
z"/>
<path fill="#23CE90" opacity="1.000000" stroke="none" 
	d="
M244.466476,362.903748 
	C251.248581,362.399933 257.690277,361.787109 264.140625,361.675446 
	C275.768677,361.474152 287.401917,361.572815 299.497986,361.518524 
	C304.017914,361.570892 308.072845,361.650970 312.590637,361.813171 
	C300.340851,365.508240 291.502258,373.343201 287.280273,385.969788 
	C284.858673,393.212036 282.797729,400.574615 280.558350,407.878113 
	C276.663666,420.580139 272.991028,433.356537 268.788849,445.956207 
	C264.589813,458.546509 265.519440,470.324371 274.011627,480.664276 
	C277.157318,484.494385 281.827637,487.111969 285.945160,490.085175 
	C287.654907,491.319702 289.737579,492.037781 291.806580,493.265564 
	C271.502472,493.423126 250.983810,494.227844 230.598938,492.930420 
	C210.026459,491.621063 196.346588,471.053314 201.794189,451.136230 
	C206.304077,434.647461 211.643600,418.385559 216.686493,401.697784 
	C218.103195,397.121674 219.633896,392.919312 220.759872,388.611115 
	C224.070999,375.942261 231.801132,367.405914 244.466476,362.903748 
z"/>
<path fill="#FFBA80" opacity="1.000000" stroke="none" 
	d="
M23.560938,105.085205 
	C23.952532,119.976067 23.958380,135.086563 23.942329,150.676880 
	C23.920433,151.156693 23.543011,151.080368 23.352757,151.051025 
	C23.166733,135.782730 23.170963,120.543777 23.560938,105.085205 
z"/>
<path fill="#FFAA6A" opacity="1.000000" stroke="none" 
	d="
M180.028183,137.959427 
	C206.542511,136.935516 229.977692,144.559692 250.375793,160.415405 
	C275.325775,179.809357 289.775146,205.388931 293.104156,237.101257 
	C296.216400,266.749084 288.400330,293.281403 270.167053,316.532471 
	C251.705246,340.074921 227.431763,354.099365 197.576767,358.052429 
	C169.042892,361.830566 142.777771,355.556305 119.501686,338.840485 
	C91.969254,319.067963 75.938095,292.269379 72.915924,258.075623 
	C69.842857,223.306076 81.214127,193.587555 105.561127,169.327423 
	C125.732407,149.228134 150.572403,138.265930 180.028183,137.959427 
M271.209869,211.348389 
	C254.275711,172.030807 214.182846,148.325821 172.876373,153.208496 
	C121.521294,159.279007 85.276169,202.324951 87.794525,254.254623 
	C90.637672,312.881622 148.522705,355.696625 205.447495,341.277344 
	C262.944183,326.713196 292.975525,267.984009 271.209869,211.348389 
z"/>
<path fill="#F7F5F6" opacity="1.000000" stroke="none" 
	d="
M271.369446,211.698456 
	C292.975525,267.984009 262.944183,326.713196 205.447495,341.277344 
	C148.522705,355.696625 90.637672,312.881622 87.794525,254.254623 
	C85.276169,202.324951 121.521294,159.279007 172.876373,153.208496 
	C214.182846,148.325821 254.275711,172.030807 271.369446,211.698456 
M141.440872,297.123199 
	C156.596329,307.059875 170.382965,304.230438 183.163071,292.318298 
	C184.470352,293.459625 185.578262,294.429871 186.689346,295.396484 
	C198.805618,305.937042 216.587143,305.515259 227.982574,294.417664 
	C239.476700,283.223907 240.476974,264.905914 229.713577,252.811752 
	C223.302078,245.607529 216.445969,238.708954 209.176697,232.376755 
	C193.705658,218.900070 171.015076,219.459259 155.846588,233.386993 
	C149.960419,238.791672 144.388992,244.546036 138.786224,250.251144 
	C124.840691,264.451477 125.720840,283.672760 141.440872,297.123199 
M165.725006,218.321198 
	C175.396103,215.407913 179.941299,206.803070 176.289276,198.321228 
	C173.312607,191.407913 165.776352,187.938095 158.501938,190.131683 
	C151.869568,192.131653 147.359268,199.283478 148.459961,206.054886 
	C149.776031,214.151291 156.096680,218.926636 165.725006,218.321198 
M251.269180,235.430054 
	C253.180923,229.124756 251.326019,223.888519 246.383591,219.841980 
	C241.684799,215.994904 236.300980,215.694092 230.906311,218.206955 
	C224.971588,220.971375 221.895126,227.448944 223.060806,234.012863 
	C224.127075,240.016891 229.415878,244.930069 235.744324,245.795502 
	C241.961166,246.645691 247.679947,243.056168 251.269180,235.430054 
M210.117294,191.163864 
	C203.029404,188.384964 197.083908,189.362442 192.670593,194.032272 
	C188.754547,198.175934 187.633942,204.599243 189.913574,209.835480 
	C192.294449,215.304260 198.056931,218.990082 203.788696,218.710312 
	C210.107529,218.401901 215.427551,214.135315 217.272537,207.896500 
	C219.119400,201.651382 216.999084,196.330765 210.117294,191.163864 
M142.848938,227.236938 
	C142.299332,226.030182 141.864990,224.753372 141.181213,223.628143 
	C137.068756,216.860626 128.455124,214.673706 121.567032,218.594284 
	C114.834526,222.426315 112.310562,230.597168 115.705170,237.570892 
	C118.765930,243.858765 125.777733,247.115341 132.349075,245.301041 
	C140.136520,243.150970 143.837799,237.168228 142.848938,227.236938 
z"/>
<path fill="#6C6771" opacity="1.000000" stroke="none" 
	d="
M141.141510,296.920746 
	C125.720840,283.672760 124.840691,264.451477 138.786224,250.251144 
	C144.388992,244.546036 149.960419,238.791672 155.846588,233.386993 
	C171.015076,219.459259 193.705658,218.900070 209.176697,232.376755 
	C216.445969,238.708954 223.302078,245.607529 229.713577,252.811752 
	C240.476974,264.905914 239.476700,283.223907 227.982574,294.417664 
	C216.587143,305.515259 198.805618,305.937042 186.689346,295.396484 
	C185.578262,294.429871 184.470352,293.459625 183.163071,292.318298 
	C170.382965,304.230438 156.596329,307.059875 141.141510,296.920746 
z"/>
<path fill="#6E6973" opacity="1.000000" stroke="none" 
	d="
M165.338516,218.418030 
	C156.096680,218.926636 149.776031,214.151291 148.459961,206.054886 
	C147.359268,199.283478 151.869568,192.131653 158.501938,190.131683 
	C165.776352,187.938095 173.312607,191.407913 176.289276,198.321228 
	C179.941299,206.803070 175.396103,215.407913 165.338516,218.418030 
z"/>
<path fill="#6D6872" opacity="1.000000" stroke="none" 
	d="
M251.155548,235.811844 
	C247.679947,243.056168 241.961166,246.645691 235.744324,245.795502 
	C229.415878,244.930069 224.127075,240.016891 223.060806,234.012863 
	C221.895126,227.448944 224.971588,220.971375 230.906311,218.206955 
	C236.300980,215.694092 241.684799,215.994904 246.383591,219.841980 
	C251.326019,223.888519 253.180923,229.124756 251.155548,235.811844 
z"/>
<path fill="#6D6872" opacity="1.000000" stroke="none" 
	d="
M210.438080,191.357666 
	C216.999084,196.330765 219.119400,201.651382 217.272537,207.896500 
	C215.427551,214.135315 210.107529,218.401901 203.788696,218.710312 
	C198.056931,218.990082 192.294449,215.304260 189.913574,209.835480 
	C187.633942,204.599243 188.754547,198.175934 192.670593,194.032272 
	C197.083908,189.362442 203.029404,188.384964 210.438080,191.357666 
z"/>
<path fill="#6D6872" opacity="1.000000" stroke="none" 
	d="
M142.931488,227.649567 
	C143.837799,237.168228 140.136520,243.150970 132.349075,245.301041 
	C125.777733,247.115341 118.765930,243.858765 115.705170,237.570892 
	C112.310562,230.597168 114.834526,222.426315 121.567032,218.594284 
	C128.455124,214.673706 137.068756,216.860626 141.181213,223.628143 
	C141.864990,224.753372 142.299332,226.030182 142.931488,227.649567 
z"/>
</svg>