<svg width="512" height="512" xmlns="http://www.w3.org/2000/svg" xml:space="preserve" enable-background="new 0 0 512 512" version="1.1">

 <g>
  <title>Layer 1</title>
  <path id="svg_1" d="m280,513c-18.02091,0 -36.04179,0 -54.57526,-0.39429c-3.65071,-1.1239 -6.75524,-2.0848 -9.93232,-2.54632c-24.28154,-3.5271 -47.37098,-10.99353 -69.40314,-21.5828c-32.44219,-15.59256 -60.17638,-37.35223 -83.80871,-64.54437c-12.45338,-14.32925 -23.09315,-29.83887 -31.97598,-46.49448c-13.1851,-24.72247 -22.09345,-50.9823 -26.46048,-78.73578c-0.51947,-3.30142 -1.87573,-6.47119 -2.84411,-9.70196c0,-21.02091 0,-42.04179 0.39779,-63.5796c0.79259,-1.53318 1.37065,-2.51777 1.55253,-3.57079c1.20692,-6.98782 1.9156,-14.08869 3.55299,-20.97035c5.85642,-24.61363 14.57989,-48.10317 27.08817,-70.23401c15.70902,-27.7939 36.11719,-51.62117 60.49007,-71.91195c18.24088,-15.18578 38.36562,-27.66785 60.36765,-37.00029c21.77523,-9.23625 44.20284,-15.87343 67.69983,-18.82918c1.01412,-0.12757 1.90349,-1.24664 2.85097,-1.90383c21.02089,0 42.04178,0 63.57953,0.3978c1.53326,0.79244 2.51807,1.37022 3.57123,1.55209c6.98724,1.20661 14.08847,1.91194 20.96841,3.55269c24.595,5.8655 48.09149,14.53391 70.19711,27.06894c27.78534,15.75575 51.64466,36.15265 71.99244,60.51886c16.86572,20.19656 30.24572,42.69609 39.84307,67.31572c6.92551,17.76579 12.53943,35.87594 15.01014,54.87567c0.38733,2.97873 1.86474,5.8157 2.83807,8.71823c0,18.02089 0,36.04178 -0.1825,54.23816c-1.59549,-2.02243 -2.67636,-4.54886 -4.47372,-6.36682c-15.65146,-15.831 -31.40921,-31.55727 -47.20938,-47.24011c-1.4743,-1.46337 -3.45834,-2.41317 -5.17609,-3.61213c0.02964,-0.01066 0.03482,0.05208 -0.08276,-0.25408c-0.54547,-0.79574 -0.97336,-1.2853 -1.62732,-1.98932c-3.50803,-3.90947 -6.78998,-7.60447 -10.30118,-11.59125c-3.13641,-2.78824 -6.04361,-5.28472 -9.13327,-8.01934c-0.4328,-0.54707 -0.68313,-0.85598 -0.81781,-1.09712c0.11566,0.06777 -0.0195,0.29935 -0.25708,0.08487c-0.79956,-0.50668 -1.3616,-0.79887 -1.88867,-1.06585c0.03491,0.02522 -0.01242,0.09721 -0.04852,-0.25077c-1.07288,-1.8177 -1.92145,-3.47528 -3.17371,-4.72987c-35.84994,-35.91794 -71.73001,-71.8058 -107.66147,-107.64215c-1.47305,-1.46914 -3.49075,-2.39219 -5.52695,-3.72761c-3.47045,-4.10527 -6.66866,-8.0526 -10.06524,-12.28419c-33.26318,-30.68676 -76.82364,-29.79867 -108.61034,1.92986c-6.83203,6.81955 -13.67245,13.63086 -20.47369,20.48104c-13.24144,13.33674 -26.45789,26.69831 -39.97516,40.1845c-22.6623,22.48998 -45.18944,44.69226 -67.36773,67.23772c-29.60132,30.09137 -29.14339,76.37178 0.91779,106.49351c4.17312,3.52793 8.17633,6.77771 12.23535,10.37625c1.11132,1.8125 1.98946,3.45331 3.24816,4.71424c35.87462,35.93866 71.77563,71.85107 107.7373,107.70257c1.45498,1.4505 3.54216,2.26682 5.59026,3.56247c3.5368,4.18009 6.81816,8.1763 10.19174,12.49286c4.79787,4.12393 9.50353,7.92752 14.26882,12.10523c1.36969,2.23834 2.44482,4.33548 4.02642,5.93042c14.63361,14.75729 29.29528,29.48819 44.1075,44.06543c2.52326,2.48324 5.80039,4.2004 8.72925,6.27148z" fill="#08475E"/>
  <path id="svg_2" d="m280.44995,513c-3.37881,-2.07108 -6.65594,-3.78824 -9.1792,-6.27148c-14.81222,-14.57724 -29.47389,-29.30814 -44.1075,-44.06543c-1.5816,-1.59494 -2.65673,-3.69208 -3.68159,-5.77002c30.92151,16.23611 64.07336,13.54931 88.42252,-9.18915c22.60623,-21.11087 43.91476,-43.61136 66.09796,-65.68436c22.54239,-22.40707 44.88549,-44.52701 66.98422,-66.88846c14.94693,-15.12466 22.27759,-33.46756 22.04056,-54.83181c-0.15338,-13.82349 -4.59665,-26.32622 -11.09824,-38.2695c1.74738,1.18827 3.73142,2.13807 5.20572,3.60144c15.80017,15.68284 31.55792,31.40911 47.20938,47.24011c1.79736,1.81796 2.87823,4.34439 4.47372,6.83551c0.1825,2.99316 0.1825,5.69317 -0.17211,8.974c-1.24393,5.0552 -2.16773,9.52301 -3.01713,14.00497c-5.38757,28.42691 -14.84469,55.32419 -29.12362,80.59406c-15.72727,27.83291 -36.16324,51.67331 -60.5737,72.02737c-17.6329,14.70282 -37.0611,26.7294 -58.22144,36.00958c-20.49881,8.99006 -41.61487,15.47367 -63.721,18.88889c-3.06684,0.47385 -5.99573,1.84079 -8.9885,2.79428c-2.70001,0 -5.40002,0 -8.55005,0z" fill="#05303D"/>
  <path id="svg_7" d="m315.71182,81.89455c1.76395,1.17748 3.78165,2.10053 5.2547,3.56967c35.93146,35.83635 71.81153,71.72421 107.66147,107.64215c1.25226,1.25459 2.10083,2.91217 2.82391,4.65462c-32.79464,-18.04354 -67.62118,-13.35045 -94.06137,12.92892c-8.03308,7.98424 -16.04327,15.99179 -24.02621,24.02612c-13.84467,13.93374 -27.65991,27.89664 -41.79996,42.00055c-21.01028,20.83594 -41.96469,41.27173 -62.24981,62.3515c-6.1065,6.34571 -11.51682,13.93863 -15.23229,21.9c-11.29239,24.19693 -8.87758,48.03766 4.33855,70.98266c-1.79264,-1.11181 -3.87982,-1.92813 -5.3348,-3.37863c-35.96167,-35.8515 -71.86268,-71.76391 -107.7373,-107.70257c-1.2587,-1.26093 -2.13684,-2.90174 -2.91247,-4.59671c32.00701,17.5549 66.81135,13.88855 92.09719,-10.69632c23.03136,-22.39286 45.47287,-45.39246 68.46173,-68.37155c20.63793,-20.58327 41.04317,-40.8653 61.32119,-61.27375c15.20752,-15.30534 22.97158,-33.7095 22.71545,-55.44046c-0.16464,-13.96731 -4.46964,-26.63371 -11.31998,-38.5962z" fill="#06313E"/>
  <path id="svg_8" d="m455.95831,222.0191c6.47196,11.95397 10.91523,24.4567 11.06861,38.28019c0.23703,21.36425 -7.09363,39.70715 -22.04056,54.83181c-22.09873,22.36145 -44.44183,44.48139 -67.262,66.71259c-2.67944,-2.11249 -4.77603,-4.23523 -6.87658,-6.35407c-15.29016,-15.42343 -30.58112,-30.846 -45.67731,-46.55102c1.78464,-1.97876 3.32871,-3.72138 4.97165,-5.36518c36.44083,-36.45901 72.89975,-72.89993 109.31995,-109.37954c1.73736,-1.74019 3.15023,-3.80435 4.71423,-5.71764c3.28195,3.69499 6.5639,7.38999 10.21414,11.60008c0.77976,1.00835 1.19122,1.50161 1.60269,1.99488c0,-0.00002 -0.00518,-0.06276 -0.03482,-0.0521z" fill="#D01273"/>
  <path id="svg_9" d="m69.6953,305.50092c-29.89128,-29.8436 -30.34921,-76.12401 -0.74789,-106.21538c22.17829,-22.54546 44.70543,-44.74774 67.58643,-66.96077c17.78151,17.3506 35.05381,34.55914 52.36399,51.98512c0.03788,0.21742 0.13534,0.64794 -0.06105,0.91933c-1.6808,1.83894 -3.12918,3.44247 -4.6549,4.96873c-36.542,36.55557 -73.09789,73.09731 -109.62403,109.66875c-1.74845,1.75061 -3.24741,3.75043 -4.86255,5.63422z" fill="#45F6FF"/>
  <path id="svg_10" d="m69.8652,305.77905c1.44524,-2.16192 2.9442,-4.16174 4.69265,-5.91235c36.52614,-36.57144 73.08203,-73.11318 109.62403,-109.66875c1.52572,-1.52626 2.9741,-3.12979 4.96026,-4.83238c13.50488,12.78221 26.48706,25.72064 39.52238,38.60533c4.61444,4.56111 9.35843,8.99112 14.04327,13.481c-22.70149,22.73215 -45.143,45.73175 -68.17436,68.12461c-25.28584,24.58487 -60.09018,28.25122 -92.15298,10.34756c-4.33892,-3.36731 -8.34213,-6.61709 -12.51525,-10.14502z" fill="#5ECBF1"/>
  <path id="svg_11" d="m443.94705,208.18445c-1.33475,2.20508 -2.74762,4.26924 -4.48498,6.00943c-36.4202,36.47961 -72.87912,72.92053 -109.31995,109.37954c-1.64294,1.6438 -3.18701,3.38642 -5.17606,5.31003c-0.39892,0.22702 -0.8171,0.16538 -0.95788,-0.15384c-17.47095,-17.60156 -34.80115,-34.88391 -52.13132,-52.16626c13.82755,-13.95068 27.64279,-27.91358 41.48746,-41.84732c7.98294,-8.03433 15.99313,-16.04188 24.02621,-24.02612c26.44019,-26.27937 61.26673,-30.97246 94.09751,-12.58096c0.34976,0.07527 0.39709,0.00328 0.51535,0.27981c0.73654,0.51053 1.35479,0.74456 1.97308,0.97858c0,0 0.13516,-0.23158 0.00809,0.04059c0.25256,0.51321 0.63214,0.75427 1.01172,0.99533c2.90716,2.49647 5.81436,4.99295 8.95077,7.78119z" fill="#FF405C"/>
  <path id="svg_12" d="m324.14896,329.04883c0,0 0.41818,0.06164 0.62259,0.11679c15.49511,15.478 30.78607,30.90057 46.07623,46.324c2.10055,2.11884 4.19714,4.24158 6.5733,6.53839c-21.60214,22.06455 -42.91067,44.56504 -65.5169,65.67591c-24.34916,22.73846 -57.50101,25.42526 -88.48215,8.81506c-5.05049,-3.96402 -9.75615,-7.76761 -14.2693,-12.10284c1.31141,-1.52594 2.48448,-2.46613 3.54144,-3.52246c36.16955,-36.15085 72.32985,-72.31095 108.47981,-108.48142c1.05612,-1.05673 1.98615,-2.23944 2.97498,-3.36343z" fill="#D1FDFA"/>
  <path id="svg_13" d="m188.85996,184.09245c-17.27231,-17.20854 -34.54461,-34.41708 -52.03562,-51.90257c13.00807,-13.62825 26.22452,-26.98982 39.46596,-40.32656c6.80124,-6.85018 13.64166,-13.66149 20.47369,-20.48104c31.7867,-31.72853 75.34716,-32.61662 108.27397,-1.76901c-1.8713,1.9953 -3.68371,3.4663 -5.32623,5.10736c-34.87668,34.84593 -69.72319,69.72203 -104.62656,104.54118c-1.84513,1.8407 -4.13981,3.23077 -6.22521,4.83064z" fill="#FEFFFF"/>
  <path id="svg_14" d="m188.89783,184.30988c2.04753,-1.8173 4.34221,-3.20737 6.18734,-5.04807c34.90337,-34.81915 69.74988,-69.69525 104.62656,-104.54118c1.64252,-1.64106 3.45493,-3.11206 5.5246,-4.82309c3.53458,3.78647 6.73279,7.7338 10.20324,11.83907c7.12259,12.12043 11.42759,24.78683 11.59223,38.75414c0.25613,21.73096 -7.50793,40.13512 -22.71545,55.44046c-20.27802,20.40845 -40.68326,40.69048 -61.3212,61.27375c-4.9722,-4.24294 -9.71619,-8.67295 -14.33063,-13.23406c-13.03532,-12.88469 -26.0175,-25.82312 -39.32599,-38.87672c-0.30536,-0.13635 -0.40282,-0.56687 -0.4407,-0.7843z" fill="#D0FDFA"/>
  <path id="svg_15" d="m324.00818,328.72961c-0.84805,1.44321 -1.77808,2.62592 -2.8342,3.68265c-36.14996,36.17047 -72.31026,72.33057 -108.47981,108.48142c-1.05696,1.05633 -2.23003,1.99652 -3.63365,3.20214c-3.56609,-3.78494 -6.84745,-7.78115 -10.38425,-11.96124c-13.47159,-23.12884 -15.8864,-46.96957 -4.59401,-71.1665c3.71547,-7.96137 9.12579,-15.55429 15.23229,-21.9c20.28512,-21.07977 41.23953,-41.51556 62.24981,-62.3515c17.64267,17.12912 34.97287,34.41147 52.44382,52.01303z" fill="#FFFFFF"/>
  <path id="svg_16" d="m455.87555,221.76502c-0.29389,-0.18709 -0.70535,-0.68035 -1.25903,-1.47422c0.28567,0.18892 0.71356,0.67848 1.25903,1.47422z" fill="#05303D"/>
  <path id="svg_17" d="m433.73889,199.15286c-0.38071,-0.01954 -0.99896,-0.25357 -1.77045,-0.78932c0.40885,-0.00955 0.97089,0.28264 1.77045,0.78932z" fill="#06313E"/>
  <path id="svg_18" d="m434.81378,200.1651c-0.19708,-0.0029 -0.57666,-0.24396 -0.94488,-0.82495c0.26175,-0.03102 0.51208,0.27789 0.94488,0.82495z" fill="#06313E"/>
 </g>
</svg>