<svg version="1.1" id="Layer_1" xmlns="http://www.w3.org/2000/svg" xmlns:xlink="http://www.w3.org/1999/xlink" x="0px" y="0px"
	 width="100%" viewBox="0 0 512 512" enable-background="new 0 0 512 512" xml:space="preserve">
<path fill="#FFCE00" opacity="1.000000" stroke="none" 
	d="
M225.000000,1.000001 
	C246.020889,1.000000 267.041779,1.000000 288.190735,1.336061 
	C289.155884,2.112047 289.952728,2.814909 290.836487,2.950298 
	C297.909424,4.033847 305.149200,4.406809 312.056061,6.128079 
	C336.424652,12.200999 359.957794,20.403749 381.983917,32.884384 
	C410.995361,49.323074 435.803284,70.440872 456.833893,96.248306 
	C475.682007,119.377487 489.961243,145.013641 499.481232,173.205566 
	C503.083984,183.874680 505.268188,195.022827 507.800232,205.801025 
	C506.040802,204.296280 504.533569,202.989655 503.126251,201.583069 
	C468.668274,167.142517 434.227600,132.684616 399.748749,98.264961 
	C398.256592,96.775330 396.430267,95.620377 394.769775,94.294693 
	C394.779968,94.279861 394.816315,94.274712 394.788696,94.031418 
	C394.662048,93.466240 394.481659,93.199379 393.935089,92.649551 
	C371.813782,92.270058 349.977325,92.228546 327.667236,92.122536 
	C303.796570,92.101852 280.399567,92.145668 256.538086,92.123955 
	C232.677811,92.101540 209.281982,92.144646 185.434097,92.109306 
	C163.502121,92.030853 142.022186,92.030853 120.380852,92.030853 
	C119.905006,93.480263 119.444931,94.700317 119.102112,95.952477 
	C111.373978,124.179321 103.617073,152.398407 95.961433,180.644928 
	C92.879982,192.014343 90.025826,203.445343 86.912354,215.309875 
	C84.938736,236.030746 90.500061,252.921707 108.763771,264.027405 
	C109.027634,264.187866 109.172234,264.544464 109.289261,265.283508 
	C109.199471,317.913116 109.185547,370.068726 109.221397,422.224335 
	C109.222488,423.813171 109.742172,425.401672 110.179642,427.281433 
	C124.606483,441.928131 138.883392,456.274139 153.137817,470.642395 
	C163.768280,481.357697 174.369675,492.101776 184.591309,502.904419 
	C164.137161,497.422821 145.198639,489.107269 127.326195,478.590790 
	C102.289047,463.858459 80.476532,445.191986 61.509140,423.113586 
	C49.375568,408.989807 38.825073,393.780457 30.240047,377.377258 
	C16.034842,350.235687 6.169521,321.569458 2.917995,290.881409 
	C2.845187,290.194244 1.664107,289.624512 0.999999,289.000000 
	C1.000000,267.645782 1.000000,246.291550 1.341276,224.795837 
	C2.119011,223.813354 2.761941,223.018326 2.960974,222.124451 
	C5.983748,208.549286 8.480074,194.837051 12.039709,181.406052 
	C17.001465,162.684647 24.569330,144.859756 35.031918,128.583054 
	C44.237194,114.262360 54.062691,100.228966 64.825974,87.058960 
	C72.429520,77.755219 81.903328,69.938034 90.817154,61.756790 
	C104.432404,49.260483 119.834023,39.168747 136.084641,30.558123 
	C163.369110,16.101055 192.259506,6.341544 223.115356,2.918421 
	C223.806015,2.841800 224.374512,1.664090 225.000000,1.000001 
z"/>
<path fill="#FFA300" opacity="1.000000" stroke="none" 
	d="
M184.984009,502.833069 
	C174.369675,492.101776 163.768280,481.357697 153.137817,470.642395 
	C138.883392,456.274139 124.606483,441.928131 110.642563,427.218933 
	C116.596016,426.857056 122.246132,426.846436 127.896248,426.840912 
	C170.935532,426.798737 213.974808,426.757538 257.470947,426.821625 
	C306.803497,426.927216 355.679230,426.927216 404.880768,426.927216 
	C404.880768,372.271637 404.880768,318.206482 405.148438,263.915344 
	C424.154449,252.490540 429.242554,235.280762 426.992218,214.426849 
	C421.229980,192.564423 415.395905,171.095322 409.601776,149.615463 
	C404.630676,131.186554 399.705231,112.745323 394.759613,94.309532 
	C396.430267,95.620377 398.256592,96.775330 399.748749,98.264961 
	C434.227600,132.684616 468.668274,167.142517 503.126251,201.583069 
	C504.533569,202.989655 506.040802,204.296280 508.154236,206.005875 
	C509.550842,212.108170 510.246979,217.861282 511.114655,223.588394 
	C511.198425,224.141449 512.346191,224.533310 513.000000,225.000000 
	C513.000000,246.020889 513.000000,267.041779 512.639282,288.221893 
	C511.856964,289.229584 511.235077,290.035370 511.043701,290.932983 
	C508.104828,304.716522 505.855988,318.684174 502.169464,332.262207 
	C497.316254,350.137634 489.715607,366.977814 480.516174,383.121704 
	C471.440491,399.048431 461.280853,414.278351 448.693848,427.494659 
	C437.216644,439.545624 424.855103,450.916046 411.887115,461.347992 
	C391.908020,477.420044 369.408661,489.408752 345.207977,498.011902 
	C327.603455,504.270142 309.700439,509.383881 290.977325,511.088867 
	C290.266113,511.153595 289.656799,512.337585 289.000000,513.000000 
	C267.979095,513.000000 246.958206,513.000000 225.751404,512.629272 
	C220.088821,511.176300 214.573593,510.257172 209.144516,508.973511 
	C201.059082,507.061737 193.034500,504.892639 184.984009,502.833069 
z"/>
<path fill="#000000" opacity="1.000000" stroke="none" 
	d="
M513.000000,224.531342 
	C512.346191,224.533310 511.198425,224.141449 511.114655,223.588394 
	C510.246979,217.861282 509.550842,212.108170 508.453003,206.157440 
	C505.268188,195.022827 503.083984,183.874680 499.481232,173.205566 
	C489.961243,145.013641 475.682007,119.377487 456.833893,96.248306 
	C435.803284,70.440872 410.995361,49.323074 381.983917,32.884384 
	C359.957794,20.403749 336.424652,12.200999 312.056061,6.128079 
	C305.149200,4.406809 297.909424,4.033847 290.836487,2.950298 
	C289.952728,2.814909 289.155884,2.112047 288.659393,1.336061 
	C363.593719,1.000000 438.187408,1.000000 513.000000,1.000000 
	C513.000000,75.354088 513.000000,149.708389 513.000000,224.531342 
z"/>
<path fill="#000000" opacity="1.000000" stroke="none" 
	d="
M184.591309,502.904419 
	C193.034500,504.892639 201.059082,507.061737 209.144516,508.973511 
	C214.573593,510.257172 220.088821,511.176300 225.282745,512.629272 
	C150.406296,513.000000 75.812599,513.000000 1.000000,513.000000 
	C1.000000,438.645905 1.000000,364.291626 0.999999,289.468658 
	C1.664107,289.624512 2.845187,290.194244 2.917995,290.881409 
	C6.169521,321.569458 16.034842,350.235687 30.240047,377.377258 
	C38.825073,393.780457 49.375568,408.989807 61.509140,423.113586 
	C80.476532,445.191986 102.289047,463.858459 127.326195,478.590790 
	C145.198639,489.107269 164.137161,497.422821 184.591309,502.904419 
z"/>
<path fill="#000000" opacity="1.000000" stroke="none" 
	d="
M289.468689,513.000000 
	C289.656799,512.337585 290.266113,511.153595 290.977325,511.088867 
	C309.700439,509.383881 327.603455,504.270142 345.207977,498.011902 
	C369.408661,489.408752 391.908020,477.420044 411.887115,461.347992 
	C424.855103,450.916046 437.216644,439.545624 448.693848,427.494659 
	C461.280853,414.278351 471.440491,399.048431 480.516174,383.121704 
	C489.715607,366.977814 497.316254,350.137634 502.169464,332.262207 
	C505.855988,318.684174 508.104828,304.716522 511.043701,290.932983 
	C511.235077,290.035370 511.856964,289.229584 512.639282,288.690552 
	C513.000000,363.593719 513.000000,438.187408 513.000000,513.000000 
	C438.645905,513.000000 364.291626,513.000000 289.468689,513.000000 
z"/>
<path fill="#000000" opacity="1.000000" stroke="none" 
	d="
M224.531342,1.000001 
	C224.374512,1.664090 223.806015,2.841800 223.115356,2.918421 
	C192.259506,6.341544 163.369110,16.101055 136.084641,30.558123 
	C119.834023,39.168747 104.432404,49.260483 90.817154,61.756790 
	C81.903328,69.938034 72.429520,77.755219 64.825974,87.058960 
	C54.062691,100.228966 44.237194,114.262360 35.031918,128.583054 
	C24.569330,144.859756 17.001465,162.684647 12.039709,181.406052 
	C8.480074,194.837051 5.983748,208.549286 2.960974,222.124451 
	C2.761941,223.018326 2.119011,223.813354 1.341276,224.327179 
	C1.000000,149.739456 1.000000,75.478920 1.000000,1.000000 
	C75.354088,1.000000 149.708389,1.000000 224.531342,1.000001 
z"/>
<path fill="#7584F1" opacity="1.000000" stroke="none" 
	d="
M257.014099,426.716064 
	C213.974808,426.757538 170.935532,426.798737 127.896248,426.840912 
	C122.246132,426.846436 116.596016,426.857056 110.482986,426.927826 
	C109.742172,425.401672 109.222488,423.813171 109.221397,422.224335 
	C109.185547,370.068726 109.199471,317.913116 109.655823,265.343170 
	C111.534218,265.373474 112.971474,265.792236 114.390129,266.266632 
	C131.903931,272.123230 147.089249,268.367310 160.190430,255.413910 
	C167.021454,248.659927 169.876785,240.109543 171.948029,231.479370 
	C172.375412,233.480576 172.706360,235.108154 173.113632,236.716385 
	C178.154678,256.622498 196.986694,270.345062 217.264145,268.899902 
	C236.138992,267.554718 250.238907,255.269836 256.368042,235.365814 
	C256.717957,237.863144 256.978912,240.007370 256.979889,242.151718 
	C257.007263,303.673157 257.008575,365.194611 257.014099,426.716064 
z"/>
<path fill="#606AEA" opacity="1.000000" stroke="none" 
	d="
M257.002502,92.189476 
	C280.399567,92.145668 303.796570,92.101852 327.677063,92.525253 
	C328.439331,95.128761 328.746063,97.261841 328.992554,99.401863 
	C330.870575,115.706337 332.753632,132.010269 334.602631,148.318054 
	C337.123932,170.555481 339.616425,192.796204 342.075439,215.033859 
	C342.029602,215.032211 341.950348,214.987106 341.485840,214.971436 
	C313.051208,214.949188 285.081024,214.942612 257.102905,214.918915 
	C257.094971,214.901764 257.075714,214.868042 257.065063,214.407745 
	C257.037109,173.361450 257.019806,132.775467 257.002502,92.189476 
z"/>
<path fill="#4855B7" opacity="1.000000" stroke="none" 
	d="
M256.538086,92.123955 
	C257.019806,132.775467 257.037109,173.361450 256.590393,214.437805 
	C228.118469,214.976181 200.110565,215.024185 172.011871,215.012543 
	C171.921097,214.952866 171.741470,214.830673 171.801239,214.408508 
	C176.536057,173.386826 181.211105,132.787292 185.886154,92.187759 
	C209.281982,92.144646 232.677811,92.101540 256.538086,92.123955 
z"/>
<path fill="#28488F" opacity="1.000000" stroke="none" 
	d="
M342.121277,215.035507 
	C339.616425,192.796204 337.123932,170.555481 334.602631,148.318054 
	C332.753632,132.010269 330.870575,115.706337 328.992554,99.401863 
	C328.746063,97.261841 328.439331,95.128761 328.150696,92.589737 
	C349.977325,92.228546 371.813782,92.270058 393.916931,92.911255 
	C394.394470,93.765518 394.605377,94.020119 394.816315,94.274719 
	C394.816315,94.274712 394.779968,94.279861 394.769775,94.294693 
	C399.705231,112.745323 404.630676,131.186554 409.601776,149.615463 
	C415.395905,171.095322 421.229980,192.564423 426.529724,214.457764 
	C398.048889,214.930054 370.085083,214.982788 342.121277,215.035507 
z"/>
<path fill="#7584F1" opacity="1.000000" stroke="none" 
	d="
M185.434097,92.109306 
	C181.211105,132.787292 176.536057,173.386826 171.356201,214.437744 
	C142.923645,214.875519 114.995934,214.861908 87.068222,214.848312 
	C90.025826,203.445343 92.879982,192.014343 95.961433,180.644928 
	C103.617073,152.398407 111.373978,124.179321 119.102112,95.952477 
	C119.444931,94.700317 119.905006,93.480263 120.380852,92.030853 
	C142.022186,92.030853 163.502121,92.030853 185.434097,92.109306 
z"/>
<path fill="#4B60C6" opacity="1.000000" stroke="none" 
	d="
M86.912354,215.309875 
	C114.995934,214.861908 142.923645,214.875519 171.296417,214.859894 
	C171.741470,214.830673 171.921097,214.952866 171.982910,215.471649 
	C171.992172,221.025864 171.939606,226.061310 171.887054,231.096756 
	C169.876785,240.109543 167.021454,248.659927 160.190430,255.413910 
	C147.089249,268.367310 131.903931,272.123230 114.390129,266.266632 
	C112.971474,265.792236 111.534218,265.373474 109.739052,264.869202 
	C109.172234,264.544464 109.027634,264.187866 108.763771,264.027405 
	C90.500061,252.921707 84.938736,236.030746 86.912354,215.309875 
z"/>
<path fill="#FFA300" opacity="1.000000" stroke="none" 
	d="
M394.788696,94.031418 
	C394.605377,94.020119 394.394470,93.765518 394.201721,93.249229 
	C394.481659,93.199379 394.662048,93.466240 394.788696,94.031418 
z"/>
<path fill="#616BEA" opacity="1.000000" stroke="none" 
	d="
M257.470947,426.821655 
	C257.008575,365.194611 257.007263,303.673157 256.979889,242.151718 
	C256.978912,240.007370 256.717957,237.863144 256.333252,235.021240 
	C256.130676,233.631165 256.172974,232.938721 256.533752,232.341248 
	C257.342865,233.790985 257.970123,235.113205 258.302155,236.505814 
	C260.731781,246.695892 266.462616,254.788132 274.788788,260.801819 
	C299.290619,278.498688 333.300385,266.026703 340.875946,236.793533 
	C341.214630,235.486664 342.134796,234.330490 342.850891,233.492889 
	C344.796875,238.807968 346.067596,244.084595 348.665558,248.597122 
	C357.691315,264.274689 380.187317,275.910858 404.880768,264.141296 
	C404.880768,318.206482 404.880768,372.271637 404.880768,426.927216 
	C355.679230,426.927216 306.803497,426.927216 257.470947,426.821655 
M314.557404,368.183807 
	C298.407501,361.121094 290.685150,344.684601 296.187653,328.863220 
	C298.868744,321.154266 303.822754,315.191895 311.057007,311.404846 
	C321.959290,305.697601 332.830688,306.841064 343.557281,312.706421 
	C348.905518,304.792542 353.993073,297.264404 359.063965,289.760925 
	C337.871796,273.856232 305.671387,276.364044 285.443726,295.145294 
	C263.803741,315.237854 259.856476,346.885986 275.904083,371.631805 
	C291.507751,395.693054 322.275238,405.307983 348.874451,394.007690 
	C375.700012,382.611176 389.345123,356.243500 384.962372,325.203033 
	C367.747070,325.203033 350.513855,325.203033 333.133301,325.203033 
	C333.133301,334.580994 333.133301,343.627625 333.133301,353.195740 
	C339.880188,353.195740 346.277374,353.195740 352.824341,353.195740 
	C348.445984,366.484772 331.444458,373.206879 314.557404,368.183807 
z"/>
<path fill="#13254C" opacity="1.000000" stroke="none" 
	d="
M405.148438,263.915344 
	C380.187317,275.910858 357.691315,264.274689 348.665558,248.597122 
	C346.067596,244.084595 344.796875,238.807968 342.893188,233.068710 
	C342.562592,226.499542 342.256470,220.743317 341.950348,214.987106 
	C341.950348,214.987106 342.029602,215.032211 342.075439,215.033859 
	C370.085083,214.982788 398.048889,214.930054 426.475220,214.846436 
	C429.242554,235.280762 424.154449,252.490540 405.148438,263.915344 
z"/>
<path fill="#344293" opacity="1.000000" stroke="none" 
	d="
M256.215271,232.246292 
	C256.172974,232.938721 256.130676,233.631165 256.123169,234.668182 
	C250.238907,255.269836 236.138992,267.554718 217.264145,268.899902 
	C196.986694,270.345062 178.154678,256.622498 173.113632,236.716385 
	C172.706360,235.108154 172.375412,233.480576 171.948013,231.479370 
	C171.939606,226.061310 171.992172,221.025864 172.073700,215.531311 
	C200.110565,215.024185 228.118469,214.976181 256.601044,214.898102 
	C257.075714,214.868042 257.094971,214.901764 257.070251,215.389862 
	C256.768799,221.334076 256.492035,226.790176 256.215271,232.246292 
z"/>
<path fill="#4855B7" opacity="1.000000" stroke="none" 
	d="
M256.533752,232.341248 
	C256.492035,226.790176 256.768799,221.334076 257.078186,215.407013 
	C285.081024,214.942612 313.051208,214.949188 341.485840,214.971436 
	C342.256470,220.743317 342.562592,226.499542 342.826416,232.679932 
	C342.134796,234.330490 341.214630,235.486664 340.875946,236.793533 
	C333.300385,266.026703 299.290619,278.498688 274.788788,260.801819 
	C266.462616,254.788132 260.731781,246.695892 258.302155,236.505814 
	C257.970123,235.113205 257.342865,233.790985 256.533752,232.341248 
z"/>
<path fill="#FDFEFF" opacity="1.000000" stroke="none" 
	d="
M314.925262,368.338501 
	C331.444458,373.206879 348.445984,366.484772 352.824341,353.195740 
	C346.277374,353.195740 339.880188,353.195740 333.133301,353.195740 
	C333.133301,343.627625 333.133301,334.580994 333.133301,325.203033 
	C350.513855,325.203033 367.747070,325.203033 384.962372,325.203033 
	C389.345123,356.243500 375.700012,382.611176 348.874451,394.007690 
	C322.275238,405.307983 291.507751,395.693054 275.904083,371.631805 
	C259.856476,346.885986 263.803741,315.237854 285.443726,295.145294 
	C305.671387,276.364044 337.871796,273.856232 359.063965,289.760925 
	C353.993073,297.264404 348.905518,304.792542 343.557281,312.706421 
	C332.830688,306.841064 321.959290,305.697601 311.057007,311.404846 
	C303.822754,315.191895 298.868744,321.154266 296.187653,328.863220 
	C290.685150,344.684601 298.407501,361.121094 314.925262,368.338501 
z"/>
</svg>