<svg width="512" height="512" xmlns="http://www.w3.org/2000/svg" xml:space="preserve" enable-background="new 0 0 512 512" version="1.1">

 <g>
  <title>Layer 1</title>
  <path id="svg_1" d="m225,1c21.02089,0 42.04178,0 63.19074,0.33606c0.96514,0.77599 1.76199,1.47885 2.64575,1.61424c7.07293,1.08355 14.31271,1.45651 21.21957,3.17778c24.36859,6.07292 47.90173,14.27567 69.92786,26.7563c29.01144,16.43869 53.81936,37.55649 74.84997,63.36393c18.84812,23.12918 33.12735,48.76533 42.64734,76.95726c3.60275,10.66911 5.78696,21.81726 8.319,32.59546c-1.75943,-1.50475 -3.26666,-2.81138 -4.67398,-4.21796c-34.45798,-34.44055 -68.89865,-68.89845 -103.3775,-103.31811c-1.49216,-1.48963 -3.31848,-2.64458 -4.97898,-3.97027c0.0102,-0.01483 0.04654,-0.01998 0.01893,-0.26327c-0.12665,-0.56518 -0.30704,-0.83204 -0.85361,-1.38187c-22.12131,-0.37949 -43.95776,-0.421 -66.26785,-0.52701c-23.87067,-0.02069 -47.26767,0.02313 -71.12915,0.00141c-23.86028,-0.02241 -47.25611,0.0207 -71.10399,-0.01464c-21.93198,-0.07846 -43.41191,-0.07846 -65.05325,-0.07846c-0.47584,1.44941 -0.93592,2.66947 -1.27874,3.92163c-7.72813,28.22684 -15.48504,56.44593 -23.14068,84.69245c-3.08145,11.36941 -5.9356,22.80041 -9.04908,34.66495c-1.97361,20.72087 3.58771,37.61183 21.85142,48.71752c0.26386,0.16047 0.40846,0.51706 0.52549,1.25611c-0.08979,52.62961 -0.10371,104.78522 -0.06786,156.94082c0.00109,1.58884 0.52077,3.17734 0.95824,5.0571c14.42684,14.6467 28.70375,28.99271 42.95818,43.36097c10.63046,10.7153 21.23186,21.45938 31.45349,32.26202c-20.45415,-5.4816 -39.39267,-13.79715 -57.26512,-24.31363c-25.03714,-14.73233 -46.84966,-33.3988 -65.81705,-55.4772c-12.13357,-14.12378 -22.68407,-29.33313 -31.26909,-45.73633c-14.20521,-27.14157 -24.07053,-55.8078 -27.32205,-86.49585c-0.07281,-0.68717 -1.25389,-1.2569 -1.918,-1.88141c0,-21.35422 0,-42.70845 0.34128,-64.20416c0.77773,-0.98249 1.42066,-1.77751 1.61969,-2.67139c3.02278,-13.57516 5.5191,-27.2874 9.07874,-40.7184c4.96175,-18.7214 12.52962,-36.54629 22.99221,-52.823c9.20527,-14.32069 19.03077,-28.35408 29.79405,-41.52409c7.60355,-9.30374 17.07736,-17.12093 25.99118,-25.30217c13.61525,-12.49631 29.01687,-22.58804 45.26749,-31.19867c27.28447,-14.45707 56.17487,-24.21658 87.03072,-27.6397c0.69066,-0.07662 1.25915,-1.25433 1.88464,-1.91842z" fill="#FFCE00"/>
  <path id="svg_2" d="m184.98401,502.83307c-10.61433,-10.73129 -21.21573,-21.47537 -31.84619,-32.19067c-14.25443,-14.36826 -28.53134,-28.71427 -42.49526,-43.42347c5.95346,-0.36187 11.60357,-0.37249 17.25369,-0.37802c43.03928,-0.04217 86.07856,-0.08337 129.5747,-0.01929c49.33255,0.1056 98.20828,0.1056 147.40982,0.1056c0,-54.65558 0,-108.72074 0.26767,-163.01188c19.00601,-11.4248 24.09411,-28.63458 21.84378,-49.48849c-5.76224,-21.86243 -11.59631,-43.33153 -17.39044,-64.81139c-4.9711,-18.42891 -9.89655,-36.87014 -14.84217,-55.30593c1.67066,1.31085 3.49698,2.4658 4.98914,3.95543c34.47885,34.41966 68.91952,68.87756 103.3775,103.31811c1.40732,1.40658 2.91455,2.71321 5.02799,4.42281c1.3966,6.10229 2.09274,11.8554 2.96042,17.58251c0.08376,0.55306 1.23153,0.94492 1.88534,1.41161c0,21.02089 0,42.04178 -0.36072,63.22189c-0.78232,1.00769 -1.4042,1.81348 -1.59558,2.71109c-2.93887,13.78354 -5.18771,27.75119 -8.87424,41.32923c-4.85321,17.87542 -12.45385,34.7156 -21.65329,50.85949c-9.07568,15.92673 -19.23532,31.15665 -31.82232,44.37296c-11.47721,12.05096 -23.83875,23.42139 -36.80674,33.85333c-19.97909,16.07205 -42.47845,28.06076 -66.67913,36.66391c-17.60453,6.25824 -35.50754,11.37198 -54.23065,13.07697c-0.71122,0.06472 -1.32053,1.24871 -1.97733,1.91113c-21.02091,0 -42.04179,0 -63.2486,-0.37073c-5.66258,-1.45297 -11.17781,-2.3721 -16.60688,-3.65576c-8.08544,-1.91177 -16.11002,-4.08087 -24.16051,-6.14044z" fill="#FFA300"/>
  <path id="svg_7" d="m257.0141,426.71606c-43.03929,0.04148 -86.07857,0.08268 -129.11785,0.12485c-5.65012,0.00553 -11.30023,0.01615 -17.41326,0.08692c-0.74082,-1.52616 -1.2605,-3.11466 -1.26159,-4.7035c-0.03585,-52.1556 -0.02193,-104.31121 0.43442,-156.88116c1.8784,0.0303 3.31565,0.44907 4.73431,0.92346c17.5138,5.8566 32.69912,2.10068 45.8003,-10.85272c6.83102,-6.75398 9.68636,-15.30437 11.7576,-23.93454c0.42738,2.00121 0.75833,3.62878 1.1656,5.23702c5.04105,19.90611 23.87306,33.62867 44.15052,32.18351c18.87484,-1.34518 32.97476,-13.63006 39.10389,-33.53409c0.34992,2.49733 0.61087,4.64156 0.61185,6.78591c0.02737,61.52144 0.02869,123.04289 0.03421,184.56434z" fill="#7584F1"/>
  <path id="svg_8" d="m257.0025,92.18948c23.39707,-0.04381 46.79407,-0.08763 70.67456,0.33577c0.76227,2.60351 1.069,4.73659 1.31549,6.87661c1.87802,16.30448 3.76108,32.60841 5.61008,48.91619c2.5213,22.23743 5.01379,44.47815 7.47281,66.71581c-0.04584,-0.00165 -0.12509,-0.04675 -0.5896,-0.06242c-28.43463,-0.02225 -56.40482,-0.02883 -84.38293,-0.05253c-0.00794,-0.01715 -0.0272,-0.05087 -0.03785,-0.51116c-0.02795,-41.0463 -0.04525,-81.63228 -0.06256,-122.21827z" fill="#606AEA"/>
  <path id="svg_9" d="m256.53809,92.12395c0.48172,40.65152 0.49902,81.2375 0.0523,122.31385c-28.47192,0.53838 -56.47982,0.58638 -84.57852,0.57474c-0.09077,-0.05967 -0.2704,-0.18187 -0.21063,-0.60403c4.73482,-41.02168 9.40987,-81.62122 14.08491,-122.22075c23.39583,-0.04311 46.79166,-0.08622 70.65194,-0.06381z" fill="#4855B7"/>
  <path id="svg_10" d="m342.12128,215.03551c-2.50486,-22.23931 -4.99735,-44.48003 -7.51865,-66.71746c-1.849,-16.30778 -3.73206,-32.61171 -5.61008,-48.91619c-0.24649,-2.14002 -0.55322,-4.2731 -0.84185,-6.81212c21.82663,-0.36119 43.66308,-0.31968 65.76623,0.32151c0.47754,0.85427 0.68845,1.10887 0.89938,1.36347c0,-0.00001 -0.03634,0.00514 -0.04654,0.01997c4.93546,18.45063 9.86091,36.89186 14.83201,55.32077c5.79413,21.47986 11.6282,42.94896 16.92794,64.8423c-28.48083,0.47229 -56.44464,0.52503 -84.40844,0.57775z" fill="#28488F"/>
  <path id="svg_11" d="m185.4341,92.10931c-4.22299,40.67798 -8.89804,81.27752 -14.0779,122.32843c-28.43256,0.43778 -56.36027,0.42417 -84.28798,0.41057c2.95761,-11.40297 5.81176,-22.83397 8.89321,-34.20338c7.65564,-28.24652 15.41255,-56.46561 23.14068,-84.69245c0.34282,-1.25216 0.8029,-2.47222 1.27874,-3.92163c21.64134,0 43.12127,0 65.05325,0.07846z" fill="#7584F1"/>
  <path id="svg_12" d="m86.91235,215.30988c28.08358,-0.44797 56.01129,-0.43436 84.38407,-0.44999c0.44505,-0.02922 0.62468,0.09298 0.68649,0.61176c0.00926,5.55421 -0.0433,10.58966 -0.09586,15.62511c-2.01026,9.01278 -4.8656,17.56317 -11.69662,24.31715c-13.10118,12.9534 -28.2865,16.70932 -45.8003,10.85272c-1.41866,-0.47439 -2.85591,-0.89316 -4.65108,-1.39743c-0.56682,-0.32474 -0.71142,-0.68133 -0.97528,-0.8418c-18.26371,-11.10569 -23.82503,-27.99665 -21.85142,-48.71752z" fill="#4B60C6"/>
  <path id="svg_13" d="m394.7887,94.03142c-0.18332,-0.0113 -0.39423,-0.2659 -0.58698,-0.78219c0.27994,-0.04985 0.46033,0.21701 0.58698,0.78219z" fill="#FFA300"/>
  <path id="svg_14" d="m257.47095,426.82166c-0.46237,-61.62705 -0.46369,-123.1485 -0.49106,-184.66994c-0.00098,-2.14435 -0.26193,-4.28858 -0.64664,-7.13048c-0.20257,-1.39007 -0.16028,-2.08252 0.2005,-2.67999c0.80912,1.44974 1.43637,2.77195 1.76841,4.16456c2.42962,10.19008 8.16046,18.28232 16.48663,24.29601c24.50183,17.69687 58.5116,5.22488 66.08716,-24.00829c0.33868,-1.30687 1.25885,-2.46304 1.97494,-3.30064c1.94599,5.31508 3.21671,10.59171 5.81467,15.10423c9.02575,15.67757 31.52176,27.31374 56.21521,15.54418c0,54.06518 0,108.13034 0,162.78592c-49.20154,0 -98.07727,0 -147.40982,-0.10556m57.08645,-58.63785c-16.1499,-7.06272 -23.87225,-23.49921 -18.36975,-39.32059c2.68109,-7.70895 7.6351,-13.67133 14.86936,-17.45837c10.90228,-5.70725 21.77368,-4.56379 32.50027,1.30157c5.34824,-7.91388 10.43579,-15.44202 15.50668,-22.9455c-21.19216,-15.90469 -53.39257,-13.39688 -73.62023,5.38437c-21.63999,20.09256 -25.58725,51.7407 -9.53965,76.48651c15.60367,24.06125 46.37116,33.67618 72.97037,22.37589c26.82556,-11.39651 40.47067,-37.76419 36.08792,-68.80466c-17.2153,0 -34.44852,0 -51.82907,0c0,9.37796 0,18.4246 0,27.99271c6.74689,0 13.14407,0 19.69104,0c-4.37836,13.28903 -21.37988,20.01114 -38.26694,14.98807z" fill="#616BEA"/>
  <path id="svg_15" d="m405.14844,263.91534c-24.96112,11.99552 -47.45713,0.35935 -56.48288,-15.31822c-2.59796,-4.51252 -3.86868,-9.78915 -5.77237,-15.52841c-0.3306,-6.56917 -0.63672,-12.32539 -0.94284,-18.0816c0,0 0.07925,0.0451 0.12509,0.04675c28.00964,-0.05107 55.97345,-0.10381 84.39978,-0.18742c2.76733,20.43432 -2.32077,37.6441 -21.32678,49.0689z" fill="#13254C"/>
  <path id="svg_16" d="m256.21527,232.24629c-0.0423,0.69243 -0.08459,1.38488 -0.0921,2.42189c-5.88426,20.60166 -19.98418,32.88654 -38.85902,34.23172c-20.27746,1.44516 -39.10947,-12.2774 -44.15052,-32.18351c-0.40727,-1.60824 -0.73822,-3.23581 -1.16562,-5.23702c-0.0084,-5.41806 0.04416,-10.45351 0.12569,-15.94806c28.03687,-0.50713 56.04477,-0.55513 84.52734,-0.63321c0.47467,-0.03006 0.49393,0.00366 0.46921,0.49176c-0.30145,5.94422 -0.57822,11.40032 -0.85498,16.85643z" fill="#344293"/>
  <path id="svg_17" d="m256.53375,232.34125c-0.04172,-5.55107 0.23505,-11.00717 0.54444,-16.93424c28.00283,-0.4644 55.97302,-0.45782 84.40765,-0.43557c0.77063,5.77188 1.07675,11.5281 1.34058,17.70849c-0.69162,1.65056 -1.61179,2.80673 -1.95047,4.1136c-7.57556,29.23317 -41.58533,41.70516 -66.08716,24.00829c-8.32617,-6.01369 -14.05701,-14.10593 -16.48663,-24.29601c-0.33204,-1.39261 -0.95929,-2.71482 -1.76841,-4.16456z" fill="#4855B7"/>
  <path id="svg_18" d="m314.92526,368.3385c16.5192,4.86838 33.52072,-1.85373 37.89908,-15.14276c-6.54697,0 -12.94415,0 -19.69104,0c0,-9.56811 0,-18.61475 0,-27.99271c17.38055,0 34.61377,0 51.82907,0c4.38275,31.04047 -9.26236,57.40815 -36.08792,68.80466c-26.59921,11.30029 -57.3667,1.68536 -72.97037,-22.37589c-16.0476,-24.74581 -12.10034,-56.39395 9.53965,-76.48651c20.22766,-18.78125 52.42807,-21.28906 73.62023,-5.38437c-5.07089,7.50348 -10.15844,15.03162 -15.50668,22.9455c-10.72659,-5.86536 -21.59799,-7.00882 -32.50027,-1.30157c-7.23426,3.78704 -12.18827,9.74942 -14.86936,17.45837c-5.5025,15.82138 2.21985,32.25787 18.73761,39.47528z" fill="#FDFEFF"/>
 </g>
</svg>