<svg version="1.1" id="Layer_1" xmlns="http://www.w3.org/2000/svg" xmlns:xlink="http://www.w3.org/1999/xlink" x="0px" y="0px"
	 width="100%" viewBox="0 0 512 512" enable-background="new 0 0 512 512" xml:space="preserve">
<path fill="#FFCB73" opacity="1.000000" stroke="none" 
	d="
M0.999996,289.000000 
	C1.000000,267.645782 1.000000,246.291550 1.335737,224.805389 
	C2.103452,224.004578 2.792221,223.384003 2.928461,222.659515 
	C4.664792,213.426208 5.918195,204.082642 8.075824,194.951736 
	C14.217367,168.961212 24.551674,144.618027 38.633095,121.967873 
	C52.849216,99.101013 70.465279,79.105721 90.893219,61.507702 
	C105.008553,49.347797 120.247047,38.808754 136.651825,30.202682 
	C163.770508,15.975995 192.469070,6.260261 223.110580,2.918289 
	C223.801910,2.842887 224.372879,1.664101 225.000000,1.000001 
	C246.020889,1.000000 267.041779,1.000000 288.193420,1.339043 
	C293.633179,2.785149 298.987091,3.713667 304.241913,5.036050 
	C315.535980,7.878242 326.779022,10.923370 338.020691,14.254626 
	C336.625061,16.623133 335.524261,18.894651 333.838898,20.582438 
	C269.248474,85.265724 204.596680,149.887711 140.011429,214.576141 
	C138.344711,216.245529 137.328705,218.564560 135.550079,220.672501 
	C130.301208,221.081177 125.330139,220.688339 120.758110,221.856842 
	C109.969780,224.614090 104.406761,232.555038 101.591217,243.016418 
	C99.369240,244.305939 97.254150,245.328186 95.680916,246.894638 
	C70.732086,271.736053 45.824051,296.618713 20.992355,321.577179 
	C17.736376,324.849762 14.953199,328.592773 11.601697,331.929993 
	C8.480411,317.787659 5.722841,303.830292 2.865474,289.893402 
	C2.781803,289.485291 1.645500,289.292969 0.999996,289.000000 
z"/>
<path fill="#000000" opacity="1.000000" stroke="none" 
	d="
M338.042938,13.885416 
	C326.779022,10.923370 315.535980,7.878242 304.241913,5.036050 
	C298.987091,3.713667 293.633179,2.785149 288.662109,1.339043 
	C363.593719,1.000000 438.187408,1.000000 513.000000,1.000000 
	C513.000000,75.354088 513.000000,149.708389 512.664429,224.867340 
	C511.219604,220.169601 510.299835,214.620590 508.960175,209.174881 
	C506.474609,199.070938 503.743774,189.027313 501.062500,178.563721 
	C495.014130,158.054352 486.131653,139.233093 474.947113,121.541481 
	C464.709717,105.348053 453.497742,89.860817 438.983948,76.649765 
	C430.377502,68.830353 422.332031,60.754635 413.320435,53.960312 
	C402.611786,45.886452 391.589966,37.926651 379.756012,31.726490 
	C366.401642,24.729742 351.993042,19.745131 338.042938,13.885416 
z"/>
<path fill="#000000" opacity="1.000000" stroke="none" 
	d="
M513.000000,289.000000 
	C513.000000,363.593719 513.000000,438.187408 513.000000,513.000000 
	C438.645905,513.000000 364.291626,513.000000 289.131287,512.660278 
	C289.654419,511.879608 290.956085,511.311035 292.317108,511.018005 
	C303.245117,508.665314 314.184296,506.364624 325.519897,504.028076 
	C339.236938,499.206421 352.918762,495.214508 365.788727,489.419495 
	C386.859741,479.931793 406.062286,467.265045 423.566223,452.035919 
	C440.024628,437.716461 454.897522,421.984436 467.358002,404.082611 
	C477.533600,389.463531 486.588287,374.130890 493.030396,357.473267 
	C497.147247,346.828033 500.445648,335.866272 504.452576,324.849792 
	C506.885101,313.063293 508.958740,301.470154 511.139069,289.897125 
	C511.214752,289.495483 512.355652,289.294525 513.000000,289.000000 
z"/>
<path fill="#000000" opacity="1.000000" stroke="none" 
	d="
M0.999996,289.468689 
	C1.645500,289.292969 2.781803,289.485291 2.865474,289.893402 
	C5.722841,303.830292 8.480411,317.787659 11.622781,332.323853 
	C18.307858,354.209137 27.160482,374.409546 39.526146,392.869934 
	C47.172291,404.284637 55.780148,415.055176 64.080254,426.423004 
	C76.824318,438.342316 88.971436,450.528381 102.194313,461.406891 
	C116.084755,472.834625 131.643478,481.953186 148.394257,489.643860 
	C149.005035,489.953796 149.376282,489.894257 149.659683,490.025055 
	C173.218475,500.899323 197.735138,508.386932 223.624084,511.106812 
	C224.143295,511.161407 224.544006,512.343811 225.000000,513.000000 
	C150.406296,513.000000 75.812599,513.000000 1.000000,513.000000 
	C1.000000,438.645905 1.000000,364.291626 0.999996,289.468689 
z"/>
<path fill="#000000" opacity="1.000000" stroke="none" 
	d="
M224.531342,1.000001 
	C224.372879,1.664101 223.801910,2.842887 223.110580,2.918289 
	C192.469070,6.260261 163.770508,15.975995 136.651825,30.202682 
	C120.247047,38.808754 105.008553,49.347797 90.893219,61.507702 
	C70.465279,79.105721 52.849216,99.101013 38.633095,121.967873 
	C24.551674,144.618027 14.217367,168.961212 8.075824,194.951736 
	C5.918195,204.082642 4.664792,213.426208 2.928461,222.659515 
	C2.792221,223.384003 2.103452,224.004578 1.335737,224.336731 
	C1.000000,149.739456 1.000000,75.478920 1.000000,1.000000 
	C75.354088,1.000000 149.708389,1.000000 224.531342,1.000001 
z"/>
<path fill="#FEC562" opacity="1.000000" stroke="none" 
	d="
M225.468658,513.000000 
	C224.544006,512.343811 224.143295,511.161407 223.624084,511.106812 
	C197.735138,508.386932 173.218475,500.899323 149.659683,490.025055 
	C149.376282,489.894257 149.005035,489.953796 148.734924,489.457703 
	C150.389374,487.301331 151.942795,485.570862 153.584183,483.928253 
	C177.810425,459.684235 202.044647,435.448120 226.294815,411.228027 
	C227.463043,410.061279 228.796143,409.059631 230.361053,408.028748 
	C231.442261,408.393280 232.214890,408.710175 233.153809,409.314026 
	C244.876968,421.069763 256.433838,432.538544 268.156403,444.295502 
	C279.880157,456.056976 291.438263,467.530243 303.056305,479.344330 
	C304.459381,481.537933 305.627472,483.554047 307.176666,485.214600 
	C313.091248,491.554504 319.128601,497.779877 325.120056,504.048035 
	C314.184296,506.364624 303.245117,508.665314 292.317108,511.018005 
	C290.956085,511.311035 289.654419,511.879608 288.662598,512.660278 
	C267.979095,513.000000 246.958206,513.000000 225.468658,513.000000 
z"/>
<path fill="#FEC560" opacity="1.000000" stroke="none" 
	d="
M513.000000,288.531342 
	C512.355652,289.294525 511.214752,289.495483 511.139069,289.897125 
	C508.958740,301.470154 506.885101,313.063293 504.108276,324.786072 
	C501.616119,323.944672 499.809875,322.970367 497.837646,321.708374 
	C490.783508,314.612000 483.895416,307.803314 476.840912,300.706940 
	C469.453278,293.275146 462.232086,286.131012 454.843079,278.700562 
	C448.454346,272.266693 442.233398,266.119110 435.844971,259.686340 
	C432.122528,255.922073 428.567566,252.442978 424.892334,248.715363 
	C424.515503,247.977402 424.258911,247.487961 424.370789,246.984131 
	C427.097015,245.542252 429.848236,244.512009 431.752045,242.626221 
	C452.342163,222.230881 472.837494,201.739151 493.240967,181.156998 
	C495.639008,178.737946 497.912903,177.640564 501.115051,178.958572 
	C503.743774,189.027313 506.474609,199.070938 508.960175,209.174881 
	C510.299835,214.620590 511.219604,220.169601 512.664429,225.335999 
	C513.000000,246.020889 513.000000,267.041779 513.000000,288.531342 
z"/>
<path fill="#FFC86D" opacity="1.000000" stroke="none" 
	d="
M338.020691,14.254624 
	C351.993042,19.745131 366.401642,24.729742 379.756012,31.726490 
	C391.589966,37.926651 402.611786,45.886452 413.320435,53.960312 
	C422.332031,60.754635 430.377502,68.830353 438.637634,76.711838 
	C437.110596,78.062485 435.650146,78.893494 434.503662,80.038803 
	C386.379333,128.113968 338.276489,176.210678 290.217072,224.350769 
	C288.867432,225.702698 288.019043,227.555038 286.644836,228.997116 
	C280.753418,223.260193 274.097656,220.544495 266.121887,220.808670 
	C259.309814,221.034317 252.470627,221.147278 245.668579,220.807373 
	C234.802795,220.264389 220.034409,231.686157 220.812836,245.540436 
	C221.166824,251.840683 221.127823,258.191681 220.793594,264.494568 
	C220.385895,272.183533 222.478638,278.924774 226.749573,284.965240 
	C225.561005,284.989288 224.768677,285.000671 223.689545,284.845642 
	C219.941101,281.440674 216.479477,278.202118 212.850800,274.677368 
	C200.674210,262.308350 188.684265,250.205795 176.618317,238.179489 
	C175.640228,237.204636 174.141190,236.752502 172.907440,236.033295 
	C172.930679,236.009140 172.965652,236.066330 172.915848,235.737183 
	C172.424088,234.940201 171.982132,234.472366 171.301056,233.796631 
	C165.391891,224.839081 157.412323,220.519165 146.921234,220.808914 
	C143.288788,220.909241 139.646835,220.666611 136.009232,220.580627 
	C137.328705,218.564560 138.344711,216.245529 140.011429,214.576141 
	C204.596680,149.887711 269.248474,85.265724 333.838898,20.582438 
	C335.524261,18.894651 336.625061,16.623133 338.020691,14.254624 
z"/>
<path fill="#FFC96D" opacity="1.000000" stroke="none" 
	d="
M63.956284,426.114868 
	C55.780148,415.055176 47.172291,404.284637 39.526146,392.869934 
	C27.160482,374.409546 18.307858,354.209137 11.972126,332.511749 
	C14.953199,328.592773 17.736376,324.849762 20.992355,321.577179 
	C45.824051,296.618713 70.732086,271.736053 95.680916,246.894638 
	C97.254150,245.328186 99.369240,244.305939 101.623314,243.483978 
	C102.006577,250.711807 101.663506,257.507812 102.099632,264.253448 
	C102.433731,269.420898 102.956360,274.849731 104.879265,279.555908 
	C106.470016,283.449188 110.230843,286.455780 113.160156,290.169189 
	C127.856369,305.004150 142.422577,319.525208 156.811783,334.326111 
	C153.817566,337.176270 150.898483,339.644348 148.199646,342.333466 
	C130.396179,360.072906 112.664520,377.884399 94.859215,395.621918 
	C84.606941,405.835144 74.260399,415.953705 63.956284,426.114868 
z"/>
<path fill="#FFFFFE" opacity="1.000000" stroke="none" 
	d="
M113.030167,289.855255 
	C110.230843,286.455780 106.470016,283.449188 104.879265,279.555908 
	C102.956360,274.849731 102.433731,269.420898 102.099632,264.253448 
	C101.663506,257.507812 102.006577,250.711807 101.982285,243.469910 
	C104.406761,232.555038 109.969780,224.614090 120.758110,221.856842 
	C125.330139,220.688339 130.301208,221.081177 135.550079,220.672501 
	C139.646835,220.666611 143.288788,220.909241 146.921234,220.808914 
	C157.412323,220.519165 165.391891,224.839081 171.430573,234.098328 
	C172.188034,235.094055 172.576843,235.580185 172.965652,236.066330 
	C172.965652,236.066330 172.930679,236.009140 172.912445,236.438232 
	C173.436157,247.763977 174.909897,258.713989 174.289825,269.544098 
	C173.470856,283.848175 162.745041,293.058807 148.360840,293.139252 
	C136.501633,293.205597 124.460472,294.632751 113.030167,289.855255 
z"/>
<path fill="#FEC666" opacity="1.000000" stroke="none" 
	d="
M286.936920,229.174026 
	C288.019043,227.555038 288.867432,225.702698 290.217072,224.350769 
	C338.276489,176.210678 386.379333,128.113968 434.503662,80.038803 
	C435.650146,78.893494 437.110596,78.062485 438.770905,77.022804 
	C453.497742,89.860817 464.709717,105.348053 474.947113,121.541481 
	C486.131653,139.233093 495.014130,158.054352 501.062500,178.563721 
	C497.912903,177.640564 495.639008,178.737946 493.240967,181.156998 
	C472.837494,201.739151 452.342163,222.230881 431.752045,242.626221 
	C429.848236,244.512009 427.097015,245.542252 424.082336,246.819321 
	C421.641357,244.961166 419.951385,243.139282 418.050751,241.573059 
	C415.341949,239.340805 412.478607,237.296112 409.728241,235.113434 
	C409.775208,235.055542 409.918488,235.096863 409.934845,234.884491 
	C409.619843,234.434128 409.288452,234.196152 408.703400,233.748047 
	C403.355530,225.556519 396.181915,221.056793 386.623322,220.876205 
	C378.965240,220.731506 371.299591,220.741013 363.641571,220.894547 
	C350.717377,221.153656 339.642120,230.350449 339.284668,246.258957 
	C339.157501,251.918671 339.413757,257.588745 339.222229,263.244843 
	C338.966064,270.809967 340.597382,277.770599 344.623108,284.000763 
	C343.490814,284.004120 342.735809,284.006683 341.693817,283.843811 
	C338.607086,281.111176 335.807343,278.543945 332.841309,275.690765 
	C329.119232,271.930664 325.563385,268.456543 321.842224,264.694763 
	C312.269348,254.923599 302.880371,245.421432 293.423492,235.987381 
	C292.542847,235.108887 291.231659,234.661987 289.937164,233.745056 
	C288.814941,232.041626 287.875916,230.607819 286.936920,229.174026 
z"/>
<path fill="#FAC05B" opacity="1.000000" stroke="none" 
	d="
M498.003662,321.996063 
	C499.809875,322.970367 501.616119,323.944672 503.766663,324.982727 
	C500.445648,335.866272 497.147247,346.828033 493.030396,357.473267 
	C486.588287,374.130890 477.533600,389.463531 467.358002,404.082611 
	C454.897522,421.984436 440.024628,437.716461 423.566223,452.035919 
	C406.062286,467.265045 386.859741,479.931793 365.788727,489.419495 
	C352.918762,495.214508 339.236938,499.206421 325.519897,504.028076 
	C319.128601,497.779877 313.091248,491.554504 307.176666,485.214600 
	C305.627472,483.554047 304.459381,481.537933 303.416077,479.356201 
	C306.565186,480.069824 308.564148,479.057678 310.670319,476.926331 
	C325.819427,461.596130 341.037903,446.332672 356.401611,431.218079 
	C359.147339,428.516876 360.465271,425.724396 360.289642,422.163757 
	C369.618927,430.864349 378.659760,439.399963 387.700623,447.935608 
	C388.184052,447.470825 388.667511,447.006073 389.150940,446.541321 
	C382.100098,438.695435 375.049225,430.849579 368.357849,423.015808 
	C371.577759,424.080170 373.576996,423.046082 375.683624,420.912659 
	C390.160065,406.252319 404.673279,391.624542 419.416504,377.234131 
	C422.845428,373.887268 424.812317,370.710602 423.292053,366.161469 
	C426.538757,369.199585 429.315399,372.304474 432.543518,374.833008 
	C433.860107,375.864227 436.155731,375.645599 438.401123,376.015564 
	C443.278595,377.851624 446.451691,376.273773 449.756287,372.890930 
	C464.193756,358.111816 478.948456,343.643066 493.457001,328.932434 
	C495.360229,327.002686 496.506714,324.326538 498.003662,321.996063 
z"/>
<path fill="#FEC768" opacity="1.000000" stroke="none" 
	d="
M64.080261,426.423004 
	C74.260399,415.953705 84.606941,405.835144 94.859215,395.621918 
	C112.664520,377.884399 130.396179,360.072906 148.199646,342.333466 
	C150.898483,339.644348 153.817566,337.176270 157.066437,334.438477 
	C157.986847,334.538757 158.475601,334.806458 159.135406,335.355133 
	C166.195206,342.445648 173.083984,349.255219 180.142349,356.346252 
	C186.526062,362.762543 192.740189,368.897339 199.123871,375.318726 
	C207.888046,384.595612 216.487946,393.580872 225.072678,402.580597 
	C226.762589,404.352203 228.394058,406.179504 230.052475,407.981110 
	C228.796143,409.059631 227.463043,410.061279 226.294815,411.228027 
	C202.044647,435.448120 177.810425,459.684235 153.584183,483.928253 
	C151.942795,485.570862 150.389374,487.301331 148.454376,489.177063 
	C131.643478,481.953186 116.084755,472.834625 102.194313,461.406891 
	C88.971436,450.528381 76.824318,438.342316 64.080261,426.423004 
z"/>
<path fill="#F5BC5C" opacity="1.000000" stroke="none" 
	d="
M360.001221,421.998779 
	C360.465271,425.724396 359.147339,428.516876 356.401611,431.218079 
	C341.037903,446.332672 325.819427,461.596130 310.670319,476.926331 
	C308.564148,479.057678 306.565186,480.069824 303.356140,479.015411 
	C291.438263,467.530243 279.880157,456.056976 268.496033,444.234985 
	C270.210968,442.659851 271.885559,441.567566 273.272491,440.186493 
	C288.713989,424.810028 304.139069,409.416809 319.486694,393.946899 
	C321.556976,391.860107 323.177368,389.327026 325.294220,387.164978 
	C337.055298,398.885803 348.528259,410.442291 360.001221,421.998779 
z"/>
<path fill="#EFB75B" opacity="1.000000" stroke="none" 
	d="
M325.006104,387.000610 
	C323.177368,389.327026 321.556976,391.860107 319.486694,393.946899 
	C304.139069,409.416809 288.713989,424.810028 273.272491,440.186493 
	C271.885559,441.567566 270.210968,442.659851 268.330383,443.946808 
	C256.433838,432.538544 244.876968,421.069763 233.319412,409.022125 
	C249.868027,391.806580 266.361969,375.114075 283.020569,358.587616 
	C285.829193,355.801300 287.600708,352.991669 287.294739,349.154297 
	C292.053558,353.548553 296.524017,357.777161 301.160187,362.293579 
	C309.219269,370.721130 317.112671,378.860870 325.006104,387.000610 
z"/>
<path fill="#EAB359" opacity="1.000000" stroke="none" 
	d="
M287.006439,348.988678 
	C287.600708,352.991669 285.829193,355.801300 283.020569,358.587616 
	C266.361969,375.114075 249.868027,391.806580 233.153137,408.735168 
	C232.214890,408.710175 231.442261,408.393280 230.361053,408.028748 
	C228.394058,406.179504 226.762589,404.352203 225.072678,402.580597 
	C216.487946,393.580872 207.888046,384.595612 199.417206,375.149780 
	C216.256393,358.067078 232.902512,341.369080 249.751587,324.878387 
	C252.760162,321.933777 254.517197,319.141510 253.295853,315.146515 
	C264.725067,326.537842 275.865753,337.763245 287.006439,348.988678 
z"/>
<path fill="#EEB658" opacity="1.000000" stroke="none" 
	d="
M455.010895,278.986847 
	C462.232086,286.131012 469.453278,293.275146 476.780334,301.046143 
	C475.660126,303.212769 474.567749,304.885712 473.187439,306.271942 
	C457.938019,321.586456 442.690002,336.903229 427.306854,352.082794 
	C425.254089,354.108368 422.455383,355.378021 419.714233,356.831940 
	C412.288605,349.441956 405.150848,342.217773 398.360687,334.938110 
	C400.729492,333.497711 403.016754,332.381683 404.730072,330.685730 
	C419.242218,316.320862 433.686066,301.886230 448.054657,287.377716 
	C450.601166,284.806335 452.703461,281.795013 455.010895,278.986847 
z"/>
<path fill="#F5BC5C" opacity="1.000000" stroke="none" 
	d="
M420.002136,356.997742 
	C422.455383,355.378021 425.254089,354.108368 427.306854,352.082794 
	C442.690002,336.903229 457.938019,321.586456 473.187439,306.271942 
	C474.567749,304.885712 475.660126,303.212769 476.946777,301.333801 
	C483.895416,307.803314 490.783508,314.612000 497.837646,321.708374 
	C496.506714,324.326538 495.360229,327.002686 493.457001,328.932434 
	C478.948456,343.643066 464.193756,358.111816 449.756287,372.890930 
	C446.451691,376.273773 443.278595,377.851624 438.234436,375.728088 
	C431.782379,369.279724 425.892273,363.138733 420.002136,356.997742 
z"/>
<path fill="#E9B157" opacity="1.000000" stroke="none" 
	d="
M454.843079,278.700562 
	C452.703461,281.795013 450.601166,284.806335 448.054657,287.377716 
	C433.686066,301.886230 419.242218,316.320862 404.730072,330.685730 
	C403.016754,332.381683 400.729492,333.497711 398.071777,334.772766 
	C391.632172,328.772278 385.829071,322.881622 380.367065,316.930908 
	C382.860168,315.358795 385.278931,314.116302 387.121887,312.292084 
	C401.977386,297.587799 416.794159,282.842255 431.425812,267.916229 
	C433.498901,265.801483 434.509888,262.645569 436.012451,259.971527 
	C442.233398,266.119110 448.454346,272.266693 454.843079,278.700562 
z"/>
<path fill="#E4AD57" opacity="1.000000" stroke="none" 
	d="
M435.844971,259.686340 
	C434.509888,262.645569 433.498901,265.801483 431.425812,267.916229 
	C416.794159,282.842255 401.977386,297.587799 387.121887,312.292084 
	C385.278931,314.116302 382.860168,315.358795 380.076782,316.766174 
	C372.464050,309.764069 365.447418,302.901642 358.537018,295.933929 
	C357.421448,294.809052 356.778290,293.215637 356.342804,291.888000 
	C367.177124,292.331390 377.585327,293.019775 387.993713,293.022827 
	C395.723724,293.025116 401.734863,289.080231 406.522034,283.061798 
	C411.247803,277.120514 412.079224,270.188965 412.491333,262.930603 
	C417.503479,258.774506 423.175385,255.551254 425.012604,248.963882 
	C428.567566,252.442978 432.122528,255.922073 435.844971,259.686340 
z"/>
<path fill="#E2AB56" opacity="1.000000" stroke="none" 
	d="
M424.892334,248.715363 
	C423.175385,255.551254 417.503479,258.774506 412.429565,262.465759 
	C411.254150,253.102371 410.467712,244.136841 409.681274,235.171310 
	C412.478607,237.296112 415.341949,239.340805 418.050751,241.573059 
	C419.951385,243.139282 421.641357,244.961166 423.713867,246.833710 
	C424.258911,247.487961 424.515503,247.977402 424.892334,248.715363 
z"/>
<path fill="#FFFFFE" opacity="1.000000" stroke="none" 
	d="
M286.644836,228.997116 
	C287.875916,230.607819 288.814941,232.041626 290.010803,234.101440 
	C291.213501,238.049820 292.809814,241.340027 292.975952,244.700943 
	C293.378326,252.842133 293.331482,261.023315 293.067139,269.175446 
	C292.690765,280.783020 283.786896,291.777924 272.295654,292.589264 
	C260.614044,293.414062 248.779938,292.079163 236.772705,291.466614 
	C233.403809,289.146332 230.274826,287.049469 227.145828,284.952576 
	C222.478638,278.924774 220.385895,272.183533 220.793594,264.494568 
	C221.127823,258.191681 221.166824,251.840683 220.812836,245.540436 
	C220.034409,231.686157 234.802795,220.264389 245.668579,220.807373 
	C252.470627,221.147278 259.309814,221.034317 266.121887,220.808670 
	C274.097656,220.544495 280.753418,223.260193 286.644836,228.997116 
z"/>
<path fill="#E0A955" opacity="1.000000" stroke="none" 
	d="
M158.964371,335.074158 
	C158.475601,334.806458 157.986847,334.538757 157.243439,334.158691 
	C142.422577,319.525208 127.856369,305.004150 113.160164,290.169189 
	C124.460472,294.632751 136.501633,293.205597 148.360840,293.139252 
	C162.745041,293.058807 173.470856,283.848175 174.289825,269.544098 
	C174.909897,258.713989 173.436157,247.763977 172.889221,236.462402 
	C174.141190,236.752502 175.640228,237.204636 176.618317,238.179489 
	C188.684265,250.205795 200.674210,262.308350 212.858582,275.046173 
	C212.511887,278.137573 212.817780,281.389923 211.342560,282.885956 
	C194.037888,300.434570 176.465851,317.719604 158.964371,335.074158 
z"/>
<path fill="#E4AD57" opacity="1.000000" stroke="none" 
	d="
M159.135406,335.355133 
	C176.465851,317.719604 194.037888,300.434570 211.342560,282.885956 
	C212.817780,281.389923 212.511887,278.137573 213.025635,275.332336 
	C216.479477,278.202118 219.941101,281.440674 223.856598,285.133240 
	C226.872192,288.403595 229.433914,291.219910 231.997711,294.446259 
	C234.235870,301.056549 230.944809,304.916626 226.721176,308.922180 
	C217.663696,317.511993 208.957596,326.474548 200.172882,335.349030 
	C193.387985,342.203278 186.702469,349.155884 179.972763,356.064758 
	C173.083984,349.255219 166.195206,342.445648 159.135406,335.355133 
z"/>
<path fill="#FEC666" opacity="1.000000" stroke="none" 
	d="
M231.995636,294.036224 
	C229.433914,291.219910 226.872192,288.403595 224.143417,285.299652 
	C224.768677,285.000671 225.561005,284.989288 226.749573,284.965240 
	C230.274826,287.049469 233.403809,289.146332 236.895874,291.798035 
	C247.828613,302.921875 258.398285,313.490936 269.138641,324.341766 
	C273.189819,328.426147 277.070343,332.228790 281.120575,336.318085 
	C286.183014,341.413086 291.075745,346.221405 296.137512,351.313477 
	C298.536591,354.068481 300.766632,356.539734 302.949280,359.323792 
	C302.266113,360.426331 301.630310,361.216064 300.994507,362.005768 
	C296.524017,357.777161 292.053558,353.548553 287.294739,349.154297 
	C275.865753,337.763245 264.725067,326.537842 253.129242,314.860535 
	C245.781281,307.617859 238.888474,300.827057 231.995636,294.036224 
z"/>
<path fill="#E0A955" opacity="1.000000" stroke="none" 
	d="
M172.915848,235.737183 
	C172.576843,235.580185 172.188034,235.094055 171.669693,234.306229 
	C171.982132,234.472366 172.424088,234.940201 172.915848,235.737183 
z"/>
<path fill="#FFFFFE" opacity="1.000000" stroke="none" 
	d="
M409.728241,235.113434 
	C410.467712,244.136841 411.254150,253.102371 412.102325,262.532715 
	C412.079224,270.188965 411.247803,277.120514 406.522034,283.061798 
	C401.734863,289.080231 395.723724,293.025116 387.993713,293.022827 
	C377.585327,293.019775 367.177124,292.331390 356.103455,291.664978 
	C351.958801,288.928528 348.479553,286.464264 345.000336,283.999969 
	C340.597382,277.770599 338.966064,270.809967 339.222229,263.244843 
	C339.413757,257.588745 339.157501,251.918671 339.284668,246.258957 
	C339.642120,230.350449 350.717377,221.153656 363.641571,220.894547 
	C371.299591,220.741013 378.965240,220.731506 386.623322,220.876205 
	C396.181915,221.056793 403.355530,225.556519 408.774109,234.012695 
	C409.371826,234.690582 409.645172,234.893723 409.918488,235.096863 
	C409.918488,235.096863 409.775208,235.055542 409.728241,235.113434 
z"/>
<path fill="#E2AB56" opacity="1.000000" stroke="none" 
	d="
M268.967957,324.059998 
	C258.398285,313.490936 247.828613,302.921875 237.135773,292.021423 
	C248.779938,292.079163 260.614044,293.414062 272.295654,292.589264 
	C283.786896,291.777924 292.690765,280.783020 293.067139,269.175446 
	C293.331482,261.023315 293.378326,252.842133 292.975952,244.700943 
	C292.809814,241.340027 291.213501,238.049820 290.194031,234.371063 
	C291.231659,234.661987 292.542847,235.108887 293.423492,235.987381 
	C302.880371,245.421432 312.269348,254.923599 321.853333,265.061584 
	C321.516296,268.140442 321.828430,271.378906 320.363220,272.864929 
	C303.386810,290.083130 286.141754,307.036438 268.967957,324.059998 
z"/>
<path fill="#E6AF58" opacity="1.000000" stroke="none" 
	d="
M295.968475,351.029724 
	C291.075745,346.221405 286.183014,341.413086 281.414490,336.149719 
	C297.238495,320.083710 312.823151,304.353912 328.719543,288.945770 
	C332.668152,285.118378 335.120728,281.482239 333.007568,275.976746 
	C335.807343,278.543945 338.607086,281.111176 341.860199,284.131958 
	C344.544586,287.052856 346.775665,289.520203 349.022095,292.375031 
	C350.639343,296.682495 349.252777,299.441406 346.292786,302.338745 
	C332.315094,316.020660 318.603607,329.974152 304.699615,343.732178 
	C302.012878,346.390717 298.890106,348.608582 295.968475,351.029724 
z"/>
<path fill="#E4AD57" opacity="1.000000" stroke="none" 
	d="
M332.841309,275.690765 
	C335.120728,281.482239 332.668152,285.118378 328.719543,288.945770 
	C312.823151,304.353912 297.238495,320.083710 281.244751,335.863037 
	C277.070343,332.228790 273.189819,328.426147 269.138641,324.341766 
	C286.141754,307.036438 303.386810,290.083130 320.363220,272.864929 
	C321.828430,271.378906 321.516296,268.140442 322.018616,265.349213 
	C325.563385,268.456543 329.119232,271.930664 332.841309,275.690765 
z"/>
<path fill="#FEC562" opacity="1.000000" stroke="none" 
	d="
M349.006744,291.987518 
	C346.775665,289.520203 344.544586,287.052856 342.147156,284.297363 
	C342.735809,284.006683 343.490814,284.004120 344.623108,284.000763 
	C348.479553,286.464264 351.958801,288.928528 355.677399,291.615814 
	C356.778290,293.215637 357.421448,294.809052 358.537018,295.933929 
	C365.447418,302.901642 372.464050,309.764069 379.735657,316.826202 
	C385.829071,322.881622 391.632172,328.772278 397.724182,334.828308 
	C405.150848,342.217773 412.288605,349.441956 419.714233,356.831940 
	C425.892273,363.138733 431.782379,369.279724 437.839233,375.708160 
	C436.155731,375.645599 433.860107,375.864227 432.543518,374.833008 
	C429.315399,372.304474 426.538757,369.199585 423.125671,365.873962 
	C409.449219,352.278168 396.227509,339.134979 382.838623,325.705139 
	C371.449890,314.274811 360.228333,303.131165 349.006744,291.987518 
z"/>
<path fill="#E2AB56" opacity="1.000000" stroke="none" 
	d="
M409.934845,234.884491 
	C409.645172,234.893723 409.371826,234.690582 409.027802,234.222809 
	C409.288452,234.196152 409.619843,234.434128 409.934845,234.884491 
z"/>
<path fill="#F2B95A" opacity="1.000000" stroke="none" 
	d="
M383.005798,325.991821 
	C396.227509,339.134979 409.449219,352.278168 422.837280,365.708862 
	C424.812317,370.710602 422.845428,373.887268 419.416504,377.234131 
	C404.673279,391.624542 390.160065,406.252319 375.683624,420.912659 
	C373.576996,423.046082 371.577759,424.080170 368.069977,422.849670 
	C354.613129,409.785553 341.803558,396.899780 329.254517,383.783203 
	C331.704315,382.173828 334.230560,381.136810 336.029510,379.362427 
	C350.195648,365.389984 364.130219,351.181915 378.361237,337.276764 
	C381.708496,334.006134 383.783142,330.717010 383.005798,325.991821 
z"/>
<path fill="#FEC560" opacity="1.000000" stroke="none" 
	d="
M328.994019,384.013977 
	C341.803558,396.899780 354.613129,409.785553 367.710510,422.837524 
	C375.049225,430.849579 382.100098,438.695435 389.150940,446.541321 
	C388.667511,447.006073 388.184052,447.470825 387.700623,447.935608 
	C378.659760,439.399963 369.618927,430.864349 360.289642,422.163757 
	C348.528259,410.442291 337.055298,398.885803 325.294220,387.164978 
	C317.112671,378.860870 309.219269,370.721130 301.160217,362.293579 
	C301.630310,361.216064 302.266113,360.426331 303.238678,359.486145 
	C312.048309,367.561768 320.521179,375.787872 328.994019,384.013977 
z"/>
<path fill="#E6AF58" opacity="1.000000" stroke="none" 
	d="
M231.997711,294.446259 
	C238.888474,300.827057 245.781281,307.617859 252.840698,314.694641 
	C254.517197,319.141510 252.760162,321.933777 249.751587,324.878387 
	C232.902512,341.369080 216.256393,358.067078 199.247650,374.863220 
	C192.740189,368.897339 186.526062,362.762543 180.142349,356.346252 
	C186.702469,349.155884 193.387985,342.203278 200.172882,335.349030 
	C208.957596,326.474548 217.663696,317.511993 226.721176,308.922180 
	C230.944809,304.916626 234.235870,301.056549 231.997711,294.446259 
z"/>
<path fill="#EAB359" opacity="1.000000" stroke="none" 
	d="
M329.254517,383.783203 
	C320.521179,375.787872 312.048309,367.561768 303.286041,359.173340 
	C300.766632,356.539734 298.536591,354.068481 296.137512,351.313477 
	C298.890106,348.608582 302.012878,346.390717 304.699615,343.732178 
	C318.603607,329.974152 332.315094,316.020660 346.292786,302.338745 
	C349.252777,299.441406 350.639343,296.682495 349.022095,292.375031 
	C360.228333,303.131165 371.449890,314.274811 382.838623,325.705139 
	C383.783142,330.717010 381.708496,334.006134 378.361237,337.276764 
	C364.130219,351.181915 350.195648,365.389984 336.029510,379.362427 
	C334.230560,381.136810 331.704315,382.173828 329.254517,383.783203 
z"/>
</svg>