<svg width="512" height="512" xmlns="http://www.w3.org/2000/svg" xml:space="preserve" enable-background="new 0 0 512 512" version="1.1">

 <g>
  <title>Layer 1</title>
  <path id="svg_1" d="m1,289c0,-21.35422 0,-42.70845 0.33574,-64.19461c0.76771,-0.80081 1.45648,-1.42139 1.59272,-2.14588c1.73633,-9.2333 2.98973,-18.57687 5.14736,-27.70777c6.14155,-25.99053 16.47585,-50.33371 30.55727,-72.98387c14.21613,-22.86686 31.83219,-42.86215 52.26013,-60.46017c14.11533,-12.1599 29.35383,-22.69895 45.75861,-31.30502c27.11868,-14.22669 55.81724,-23.94242 86.45875,-27.28439c0.69133,-0.0754 1.2623,-1.25419 1.88942,-1.91829c21.02089,0 42.04178,0 63.19342,0.33904c5.43976,1.44611 10.79367,2.37463 16.04849,3.69701c11.29407,2.84219 22.53711,5.88732 33.77878,9.21858c-1.39563,2.3685 -2.49643,4.64002 -4.18179,6.32781c-64.59043,64.68328 -129.24222,129.30527 -193.82747,193.9937c-1.66672,1.66939 -2.68272,3.98842 -4.46135,6.09636c-5.24887,0.40868 -10.21994,0.01584 -14.79197,1.18434c-10.78833,2.75725 -16.35135,10.6982 -19.16689,21.15958c-2.22198,1.28952 -4.33707,2.31177 -5.9103,3.87822c-24.94883,24.84141 -49.85687,49.72407 -74.68856,74.68254c-3.25598,3.27258 -6.03916,7.01559 -9.39066,10.35281c-3.12129,-14.14233 -5.87886,-28.0997 -8.73623,-42.03659c-0.08367,-0.40811 -1.21997,-0.60043 -1.86547,-0.8934z" fill="#FFCB73"/>
  <path id="svg_6" d="m225.46866,513c-0.92465,-0.65619 -1.32537,-1.83859 -1.84458,-1.89319c-25.88894,-2.71988 -50.4056,-10.20749 -73.9644,-21.08175c-0.2834,-0.1308 -0.65465,-0.07126 -0.92476,-0.56736c1.65445,-2.15637 3.20787,-3.88684 4.84926,-5.52945c24.22625,-24.24401 48.46047,-48.48013 72.71063,-72.70022c1.16823,-1.16675 2.50133,-2.1684 4.06624,-3.19928c1.08121,0.36453 1.85384,0.68142 2.79276,1.28528c11.72316,11.75573 23.28003,23.22451 35.00259,34.98147c11.72376,11.76148 23.28186,23.23474 34.89991,35.04883c1.40307,2.1936 2.57116,4.20972 4.12036,5.87027c5.91458,6.3399 11.95193,12.56528 17.94339,18.83344c-10.93576,2.31658 -21.87494,4.61727 -32.80295,6.96997c-1.36103,0.29303 -2.66269,0.8616 -3.65451,1.64227c-20.68351,0.33972 -41.70439,0.33972 -63.19394,0.33972z" fill="#FEC562"/>
  <path id="svg_7" d="m513,288.53134c-0.64435,0.76319 -1.78525,0.96414 -1.86093,1.36579c-2.18033,11.57302 -4.25397,23.16616 -7.03079,34.88894c-2.49216,-0.8414 -4.29841,-1.8157 -6.27063,-3.0777c-7.05414,-7.09637 -13.94223,-13.90506 -20.99674,-21.00143c-7.38763,-7.43179 -14.60882,-14.57593 -21.99783,-22.00638c-6.38873,-6.43387 -12.60968,-12.58145 -18.99811,-19.01422c-3.72244,-3.76427 -7.2774,-7.24336 -10.95264,-10.97098c-0.37683,-0.73796 -0.63342,-1.2274 -0.52154,-1.73123c2.72622,-1.44188 5.47745,-2.47212 7.38126,-4.35791c20.59011,-20.39534 41.08544,-40.88707 61.48892,-61.46922c2.39804,-2.41905 4.67193,-3.51644 7.87408,-2.19843c2.62872,10.06874 5.35956,20.11237 7.84512,30.21631c1.33966,5.44571 2.25943,10.99472 3.70426,16.16112c0.33557,20.68489 0.33557,41.70578 0.33557,63.19534z" fill="#FEC560"/>
  <path id="svg_8" d="m338.02069,14.25462c13.97235,5.49051 28.38095,10.47512 41.73532,17.47187c11.83396,6.20016 22.85578,14.15996 33.56442,22.23382c9.0116,6.79433 17.05707,14.87004 25.3172,22.75153c-1.52703,1.35064 -2.98748,2.18165 -4.13397,3.32696c-48.12433,48.07517 -96.22717,96.17188 -144.28659,144.31197c-1.34964,1.35193 -2.19803,3.20427 -3.57223,4.64635c-5.89142,-5.73693 -12.54718,-8.45262 -20.52295,-8.18845c-6.81208,0.22565 -13.65126,0.33861 -20.45331,-0.0013c-10.86578,-0.54298 -25.63417,10.87879 -24.85574,24.73307c0.35398,6.30024 0.31498,12.65124 -0.01925,18.95413c-0.40769,7.68896 1.68505,14.4302 5.95598,20.47067c-1.18857,0.02405 -1.98089,0.03543 -3.06002,-0.1196c-3.74845,-3.40497 -7.21007,-6.64352 -10.83875,-10.16827c-12.17659,-12.36902 -24.16653,-24.47158 -36.23248,-36.49788c-0.97809,-0.97485 -2.47713,-1.42699 -3.71088,-2.14619c0.02324,-0.02416 0.05821,0.03303 0.00841,-0.29612c-0.49176,-0.79698 -0.93372,-1.26481 -1.61479,-1.94055c-5.90917,-8.95755 -13.88874,-13.27747 -24.37983,-12.98772c-3.63244,0.10033 -7.27439,-0.1423 -10.912,-0.22828c1.31948,-2.01607 2.33548,-4.3351 4.0022,-6.00449c64.58525,-64.68843 129.23704,-129.31042 193.82747,-193.9937c1.68536,-1.68779 2.78616,-3.95931 4.18179,-6.32782z" fill="#FFC86D"/>
  <path id="svg_9" d="m63.95628,426.11487c-8.17613,-11.05969 -16.78399,-21.83023 -24.43013,-33.24494c-12.36567,-18.46038 -21.21829,-38.66079 -27.55402,-60.35818c2.98107,-3.91898 5.76425,-7.66199 9.02022,-10.93457c24.8317,-24.95847 49.73974,-49.84113 74.68857,-74.68254c1.57323,-1.56645 3.68832,-2.5887 5.94239,-3.41066c0.38327,7.22783 0.0402,14.02383 0.47632,20.76947c0.3341,5.16745 0.85673,10.59628 2.77964,15.30246c1.59075,3.89328 5.35157,6.89987 8.28089,10.61328c14.69621,14.83496 29.26242,29.35602 43.65162,44.15692c-2.99421,2.85016 -5.9133,5.31824 -8.61213,8.00736c-17.80347,17.73944 -35.53513,35.55093 -53.34043,53.28845c-10.25228,10.21322 -20.59882,20.33179 -30.90294,30.49295z" fill="#FFC96D"/>
  <path id="svg_10" d="m113.03017,289.85525c-2.79933,-3.39947 -6.56015,-6.40606 -8.1509,-10.29934c-1.92291,-4.70618 -2.44554,-10.13501 -2.77964,-15.30246c-0.43612,-6.74564 -0.09305,-13.54164 -0.11734,-20.78354c2.42447,-10.91487 7.98749,-18.85582 18.77582,-21.61307c4.57203,-1.1685 9.5431,-0.77566 14.79197,-1.18434c4.09676,-0.00589 7.73871,0.23674 11.37115,0.13641c10.49109,-0.28975 18.47066,4.03017 24.50934,13.28942c0.75746,0.99572 1.14627,1.48186 1.53508,1.968c0,0 -0.03497,-0.05719 -0.05321,0.3719c0.52372,11.32575 1.99746,22.27576 1.37739,33.10587c-0.81897,14.30408 -11.54479,23.51471 -25.92899,23.59515c-11.85921,0.06635 -23.90037,1.4935 -35.33067,-3.284z" fill="#FFFFFE"/>
  <path id="svg_11" d="m286.93692,229.17403c1.08212,-1.61899 1.93051,-3.47133 3.28015,-4.82326c48.05942,-48.14009 96.16226,-96.2368 144.28659,-144.31197c1.14649,-1.14531 2.60694,-1.97632 4.26725,-3.016c14.72683,12.83802 25.93881,28.32525 36.1762,44.51868c11.18454,17.69161 20.06702,36.51287 26.11539,57.02224c-3.1496,-0.92316 -5.42349,0.17423 -7.82153,2.59328c-20.40348,20.58215 -40.89881,41.07388 -61.48892,61.46922c-1.90381,1.88579 -4.65504,2.91603 -7.66971,4.1931c-2.44098,-1.85815 -4.13095,-3.68004 -6.03159,-5.24626c-2.7088,-2.23226 -5.57214,-4.27695 -8.32251,-6.45963c0.04697,-0.05789 0.19025,-0.01657 0.2066,-0.22894c-0.315,-0.45036 -0.64639,-0.68834 -1.23144,-1.13644c-5.34787,-8.19153 -12.52148,-12.69126 -22.08008,-12.87185c-7.65808,-0.14469 -15.32373,-0.13519 -22.98175,0.01835c-12.92419,0.25911 -23.99945,9.4559 -24.3569,25.36441c-0.12717,5.65971 0.12909,11.32979 -0.06244,16.98588c-0.25617,7.56513 1.37515,14.52576 5.40088,20.75592c-1.1323,0.00336 -1.8873,0.00592 -2.92929,-0.15695c-3.08673,-2.73263 -5.88648,-5.29986 -8.85251,-8.15305c-3.72208,-3.7601 -7.27793,-7.23422 -10.99909,-10.996c-9.57287,-9.77116 -18.96185,-19.27333 -28.41873,-28.70738c-0.88064,-0.87849 -2.19183,-1.32539 -3.48633,-2.24232c-1.12222,-1.70343 -2.06124,-3.13724 -3.00024,-4.57103z" fill="#FEC666"/>
  <path id="svg_12" d="m498.00366,321.99606c1.80621,0.97431 3.61246,1.94861 5.763,2.98667c-3.32101,10.88354 -6.61941,21.8453 -10.73626,32.49054c-6.44211,16.65762 -15.4968,31.99026 -25.6724,46.60934c-12.46048,17.90183 -27.33337,33.63385 -43.79178,47.95331c-17.50393,15.22912 -36.70648,27.89587 -57.77749,37.38357c-12.86997,5.79502 -26.55179,9.78693 -40.26883,14.60859c-6.3913,-6.2482 -12.42865,-12.47358 -18.34323,-18.81348c-1.5492,-1.66055 -2.71729,-3.67667 -3.76059,-5.8584c3.14911,0.71362 5.14807,-0.29852 7.25424,-2.42987c15.14911,-15.3302 30.36758,-30.59366 45.73129,-45.70825c2.74573,-2.7012 4.06366,-5.49368 3.88803,-9.05432c9.32929,8.70059 18.37012,17.2362 27.41098,25.77185c0.48343,-0.46479 0.96689,-0.92954 1.45032,-1.39429c-7.05084,-7.84589 -14.10172,-15.69174 -20.79309,-23.52551c3.21991,1.06436 5.21915,0.03027 7.32577,-2.10315c14.47644,-14.66034 28.98966,-29.28812 43.73288,-43.67853c3.42893,-3.34686 5.39582,-6.52353 3.87555,-11.07266c3.24671,3.03812 6.02335,6.143 9.25147,8.67154c1.31659,1.03122 3.61221,0.81259 5.8576,1.18255c4.87747,1.83606 8.05057,0.25821 11.35517,-3.12463c14.43747,-14.77911 29.19217,-29.24786 43.70071,-43.9585c1.90323,-1.92974 3.04971,-4.60589 4.54666,-6.93637z" fill="#FAC05B"/>
  <path id="svg_13" d="m64.08026,426.423c10.18014,-10.46929 20.52668,-20.58786 30.77896,-30.80108c17.8053,-17.73752 35.53696,-35.54901 53.34043,-53.28845c2.69883,-2.68912 5.61792,-5.1572 8.86679,-7.89499c0.92041,0.10028 1.40916,0.36798 2.06897,0.91665c7.0598,7.09052 13.94857,13.90009 21.00694,20.99112c6.38371,6.41629 12.59784,12.55109 18.98152,18.97248c8.76418,9.27688 17.36408,18.26214 25.94881,27.26187c1.68991,1.7716 3.32138,3.5989 4.97979,5.40051c-1.25633,1.07852 -2.58943,2.08017 -3.75766,3.24692c-24.25016,24.22009 -48.48438,48.45621 -72.71063,72.70022c-1.64139,1.64261 -3.19481,3.37308 -5.1298,5.24881c-16.8109,-7.22387 -32.36962,-16.34243 -46.26007,-27.77017c-13.22287,-10.87851 -25.36999,-23.06457 -38.11405,-34.98389z" fill="#FEC768"/>
  <path id="svg_14" d="m360.00122,421.99878c0.46405,3.72562 -0.85388,6.5181 -3.59961,9.2193c-15.36371,15.11459 -30.58218,30.37805 -45.73129,45.70825c-2.10617,2.13135 -4.10513,3.14349 -7.31418,2.08908c-11.91788,-11.48517 -23.47598,-22.95843 -34.86011,-34.78043c1.71494,-1.57513 3.38953,-2.66741 4.77646,-4.04849c15.4415,-15.37646 30.86658,-30.76968 46.2142,-46.23959c2.07029,-2.08679 3.69068,-4.61987 5.80753,-6.78192c11.76108,11.72082 23.23404,23.27731 34.707,34.8338z" fill="#F5BC5C"/>
  <path id="svg_15" d="m325.0061,387.00061c-1.82873,2.32642 -3.44912,4.8595 -5.51941,6.94629c-15.34762,15.46991 -30.7727,30.86313 -46.2142,46.23959c-1.38693,1.38108 -3.06152,2.47336 -4.94211,3.76032c-11.89654,-11.40827 -23.45341,-22.87705 -35.01097,-34.92468c16.54862,-17.21555 33.04256,-33.90805 49.70116,-50.43451c2.80862,-2.78632 4.58014,-5.59595 4.27417,-9.43332c4.75882,4.39425 9.22928,8.62286 13.86545,13.13928c8.05908,8.42755 15.95248,16.56729 23.84591,24.70703z" fill="#EFB75B"/>
  <path id="svg_16" d="m287.00644,348.98868c0.59427,4.00299 -1.17725,6.81262 -3.98587,9.59894c-16.6586,16.52646 -33.15254,33.21896 -49.86743,50.14755c-0.93825,-0.025 -1.71088,-0.34189 -2.79209,-0.70642c-1.96699,-1.84925 -3.59846,-3.67655 -5.28837,-5.44815c-8.58473,-8.99973 -17.18463,-17.98499 -25.65547,-27.43082c16.83918,-17.0827 33.4853,-33.7807 50.33438,-50.27139c3.00857,-2.94461 4.76561,-5.73688 3.54426,-9.73187c11.42922,11.39132 22.5699,22.61672 33.71059,33.84216z" fill="#EAB359"/>
  <path id="svg_17" d="m455.0109,278.98685c7.22119,7.14416 14.44238,14.2883 21.76943,22.05929c-1.1202,2.16663 -2.21258,3.83957 -3.59289,5.2258c-15.24942,15.31452 -30.49744,30.63129 -45.88059,45.81085c-2.05276,2.02558 -4.85147,3.29523 -7.59262,4.74915c-7.42562,-7.38998 -14.56338,-14.61417 -21.35354,-21.89383c2.3688,-1.4404 4.65606,-2.55643 6.36938,-4.25238c14.51215,-14.36487 28.956,-28.7995 43.32459,-43.30801c2.54651,-2.57139 4.6488,-5.58271 6.95624,-8.39087z" fill="#EEB658"/>
  <path id="svg_18" d="m420.00214,356.99774c2.45324,-1.61972 5.25195,-2.88937 7.30471,-4.91495c15.38315,-15.17956 30.63117,-30.49633 45.88059,-45.81085c1.38031,-1.38623 2.47269,-3.05917 3.75934,-4.93814c6.94864,6.46951 13.83673,13.2782 20.89087,20.37457c-1.33094,2.61817 -2.47742,5.29432 -4.38065,7.22406c-14.50854,14.71064 -29.26324,29.17939 -43.70071,43.9585c-3.3046,3.38284 -6.4777,4.96069 -11.52185,2.83716c-6.45206,-6.44837 -12.34217,-12.58936 -18.2323,-18.73035z" fill="#F5BC5C"/>
  <path id="svg_19" d="m454.84308,278.70056c-2.13962,3.09445 -4.24191,6.10577 -6.78842,8.67716c-14.36859,14.50851 -28.81244,28.94314 -43.32459,43.30801c-1.71332,1.69595 -4.00058,2.81198 -6.65829,4.08704c-6.43961,-6.00049 -12.24271,-11.89115 -17.70471,-17.84186c2.4931,-1.57212 4.91186,-2.81461 6.75482,-4.63883c14.8555,-14.70428 29.67227,-29.44982 44.30392,-44.37585c2.07309,-2.11475 3.08408,-5.27066 4.58664,-7.9447c6.22095,6.14758 12.4419,12.29516 18.83063,18.72903z" fill="#E9B157"/>
  <path id="svg_20" d="m435.84497,259.68634c-1.33508,2.95923 -2.34607,6.11514 -4.41916,8.22989c-14.63165,14.92603 -29.44842,29.67157 -44.30392,44.37585c-1.84296,1.82422 -4.26172,3.06671 -7.04511,4.47409c-7.61273,-7.0021 -14.62936,-13.86453 -21.53976,-20.83224c-1.11557,-1.12488 -1.75873,-2.71829 -2.19422,-4.04593c10.83432,0.44339 21.24253,1.13177 31.65091,1.13483c7.73001,0.00229 13.74115,-3.9426 18.52832,-9.96103c4.72577,-5.94129 5.55719,-12.87284 5.9693,-20.1312c5.01215,-4.15609 10.68406,-7.37935 12.52127,-13.96672c3.55497,3.4791 7.10993,6.95819 10.83237,10.72246z" fill="#E4AD57"/>
  <path id="svg_21" d="m424.89233,248.71536c-1.71694,6.83589 -7.38885,10.05915 -12.46276,13.7504c-1.17542,-9.36339 -1.96186,-18.32892 -2.7483,-27.29445c2.79734,2.1248 5.66068,4.16949 8.36948,6.40175c1.90064,1.56622 3.59061,3.38811 5.66312,5.26065c0.54504,0.65425 0.80163,1.14369 1.17846,1.88165z" fill="#E2AB56"/>
  <path id="svg_22" d="m286.64484,228.99712c1.23108,1.6107 2.1701,3.04451 3.36596,5.10432c1.2027,3.94838 2.79901,7.23859 2.96515,10.5995c0.40238,8.14119 0.35553,16.32238 0.09119,24.47451c-0.37638,11.60757 -9.28024,22.60247 -20.77149,23.41381c-11.68161,0.8248 -23.51571,-0.5101 -35.52294,-1.12265c-3.3689,-2.32028 -6.49788,-4.41714 -9.62688,-6.51403c-4.66719,-6.02781 -6.75993,-12.76905 -6.35224,-20.45801c0.33423,-6.30289 0.37323,-12.65389 0.01925,-18.95413c-0.77843,-13.85428 13.98996,-25.27605 24.85574,-24.73307c6.80205,0.33991 13.64123,0.22695 20.45331,0.0013c7.97577,-0.26417 14.63153,2.45152 20.52295,8.18845z" fill="#FFFFFE"/>
  <path id="svg_23" d="m158.96437,335.07416c-0.48877,-0.2677 -0.97752,-0.5354 -1.72093,-0.91547c-14.82086,-14.63348 -29.38707,-29.15454 -44.08328,-43.9895c11.30031,4.46356 23.34147,3.03641 35.20068,2.97006c14.3842,-0.08044 25.11002,-9.29107 25.92899,-23.59515c0.62007,-10.83011 -0.85367,-21.78012 -1.40061,-33.0817c1.25197,0.2901 2.75101,0.74224 3.7291,1.71709c12.06595,12.0263 24.05589,24.12886 36.24026,36.86668c-0.34669,3.0914 -0.0408,6.34375 -1.51602,7.83979c-17.30467,17.54861 -34.87671,34.83364 -52.37819,52.1882z" fill="#E0A955"/>
  <path id="svg_24" d="m159.13541,335.35513c17.33044,-17.63553 34.90248,-34.92056 52.20715,-52.46917c1.47522,-1.49604 1.16933,-4.74839 1.68307,-7.55362c3.45385,2.86978 6.91547,6.10833 10.83097,9.8009c3.01559,3.27035 5.57731,6.08667 8.14111,9.31302c2.23816,6.61029 -1.0529,10.47037 -5.27653,14.47592c-9.05748,8.58981 -17.76358,17.55237 -26.5483,26.42685c-6.7849,6.85425 -13.47041,13.80685 -20.20012,20.71573c-6.88878,-6.80954 -13.77755,-13.61911 -20.83735,-20.70963z" fill="#E4AD57"/>
  <path id="svg_25" d="m231.99564,294.03622c-2.56173,-2.81631 -5.12345,-5.63263 -7.85222,-8.73657c0.62526,-0.29898 1.41758,-0.31036 2.60615,-0.33441c3.52526,2.08423 6.65424,4.18109 10.1463,6.8328c10.93274,11.12384 21.50241,21.6929 32.24277,32.54373c4.05118,4.08438 7.9317,7.88702 11.98193,11.97631c5.06244,5.09501 9.95517,9.90333 15.01694,14.9954c2.39908,2.755 4.62912,5.22625 6.81177,8.01031c-0.68317,1.10254 -1.31897,1.89227 -1.95477,2.68198c-4.47049,-4.22861 -8.94095,-8.45722 -13.69977,-12.85147c-11.42899,-11.39106 -22.56967,-22.61646 -34.1655,-34.29376c-7.34796,-7.24268 -14.24077,-14.03348 -21.1336,-20.82432z" fill="#FEC666"/>
  <path id="svg_26" d="m172.91585,235.73718c-0.33901,-0.15699 -0.72782,-0.64313 -1.24616,-1.43095c0.31244,0.16614 0.7544,0.63397 1.24616,1.43095z" fill="#E0A955"/>
  <path id="svg_27" d="m409.72824,235.11343c0.73947,9.02341 1.52591,17.98894 2.37409,27.41928c-0.02311,7.65625 -0.85453,14.5878 -5.5803,20.52909c-4.78717,6.01843 -10.79831,9.96332 -18.52832,9.96103c-10.40838,-0.00306 -20.81659,-0.69144 -31.89026,-1.35785c-4.14465,-2.73645 -7.6239,-5.20072 -11.10311,-7.66501c-4.40296,-6.22937 -6.03428,-13.19 -5.77811,-20.75513c0.19153,-5.65609 -0.06473,-11.32617 0.06244,-16.98588c0.35745,-15.90851 11.43271,-25.1053 24.3569,-25.36441c7.65802,-0.15354 15.32367,-0.16304 22.98175,-0.01835c9.5586,0.18059 16.73221,4.68032 22.15079,13.1365c0.59772,0.67788 0.87106,0.88102 1.14438,1.08416c0,0 -0.14328,-0.04132 -0.19025,0.01657z" fill="#FFFFFE"/>
  <path id="svg_28" d="m268.96796,324.06c-10.56968,-10.56906 -21.13935,-21.13812 -31.83219,-32.03858c11.64417,0.05774 23.47827,1.39264 35.15988,0.56784c11.49125,-0.81134 20.39511,-11.80624 20.77149,-23.41381c0.26434,-8.15213 0.31119,-16.33332 -0.09119,-24.47451c-0.16614,-3.36091 -1.76245,-6.65112 -2.78192,-10.32988c1.03763,0.29093 2.34882,0.73783 3.22946,1.61632c9.45688,9.43405 18.84586,18.93622 28.42984,29.0742c-0.33703,3.07886 -0.0249,6.31733 -1.49011,7.80335c-16.97641,17.2182 -34.22147,34.17151 -51.39526,51.19507z" fill="#E2AB56"/>
  <path id="svg_29" d="m295.96848,351.02972c-4.89274,-4.80831 -9.78547,-9.61663 -14.55399,-14.88c15.82401,-16.06601 31.40866,-31.79581 47.30505,-47.20395c3.94861,-3.82739 6.40119,-7.46353 4.28803,-12.96902c2.79977,2.5672 5.59952,5.13443 8.85263,8.15521c2.68439,2.9209 4.91547,5.38824 7.16189,8.24307c1.61725,4.30747 0.23069,7.06638 -2.7293,9.96372c-13.9777,13.68191 -27.68918,27.6354 -41.59318,41.39343c-2.68673,2.65854 -5.8095,4.8764 -8.73113,7.29754z" fill="#E6AF58"/>
  <path id="svg_30" d="m332.84131,275.69076c2.27942,5.79148 -0.17316,9.42762 -4.12177,13.25501c-15.89639,15.40814 -31.48104,31.13794 -47.47479,46.91727c-4.17441,-3.63425 -8.05493,-7.43689 -12.10611,-11.52127c17.00311,-17.30533 34.24817,-34.25864 51.22458,-51.47684c1.46521,-1.48602 1.15308,-4.72449 1.6554,-7.51572c3.54476,3.10733 7.10061,6.58145 10.82269,10.34155z" fill="#E4AD57"/>
  <path id="svg_31" d="m349.00674,291.98752c-2.23107,-2.46732 -4.46215,-4.93466 -6.85958,-7.69016c0.58865,-0.29068 1.34365,-0.29324 2.47595,-0.2966c3.85644,2.4635 7.33569,4.92777 11.05429,7.61505c1.10089,1.59983 1.74405,3.19324 2.85962,4.31812c6.9104,6.96771 13.92703,13.83014 21.19864,20.89227c6.09341,6.05542 11.89651,11.94608 17.98852,18.00211c7.42667,7.38946 14.56443,14.61365 21.99005,22.00363c6.17804,6.30679 12.06815,12.44778 18.125,18.87622c-1.6835,-0.06256 -3.97912,0.15607 -5.29571,-0.87515c-3.22812,-2.52854 -6.00476,-5.63342 -9.41785,-8.95905c-13.67645,-13.59579 -26.89816,-26.73898 -40.28705,-40.16882c-11.38873,-11.43033 -22.61029,-22.57397 -33.83188,-33.71762z" fill="#FEC562"/>
  <path id="svg_32" d="m409.93484,234.88449c-0.28967,0.00923 -0.56301,-0.19391 -0.90704,-0.66168c0.26065,-0.02666 0.59204,0.21132 0.90704,0.66168z" fill="#E2AB56"/>
  <path id="svg_33" d="m383.0058,325.99182c13.22171,13.14316 26.44342,26.28635 39.83148,39.71704c1.97504,5.00174 0.00815,8.17841 -3.42078,11.52527c-14.74322,14.39041 -29.25644,29.01819 -43.73288,43.67853c-2.10662,2.13342 -4.10586,3.16751 -7.61364,1.93701c-13.45685,-13.06412 -26.26642,-25.94989 -38.81546,-39.06647c2.4498,-1.60937 4.97604,-2.64639 6.77499,-4.42077c14.16614,-13.97245 28.10071,-28.18051 42.33173,-42.08567c3.34726,-3.27063 5.4219,-6.55975 4.64456,-11.28494z" fill="#F2B95A"/>
  <path id="svg_34" d="m328.99402,384.01398c12.80954,12.8858 25.61911,25.77157 38.71649,38.82354c7.33871,8.01206 14.38959,15.85791 21.44043,23.7038c-0.48343,0.46475 -0.96689,0.9295 -1.45032,1.39429c-9.04086,-8.53565 -18.08169,-17.07126 -27.41098,-25.77185c-11.76138,-11.72147 -23.23434,-23.27796 -34.99542,-34.99878c-8.18155,-8.30411 -16.07495,-16.44385 -24.134,-24.8714c0.47009,-1.07752 1.10589,-1.86725 2.07846,-2.80743c8.80963,8.07562 17.2825,16.30172 25.75534,24.52783z" fill="#FEC560"/>
  <path id="svg_35" d="m231.99771,294.44626c6.89076,6.3808 13.78357,13.1716 20.84299,20.24838c1.6765,4.44687 -0.08054,7.23914 -3.08911,10.18375c-16.84908,16.49069 -33.4952,33.18869 -50.50394,49.98483c-6.50746,-5.96588 -12.72159,-12.10068 -19.1053,-18.51697c6.56012,-7.19037 13.24563,-14.14297 20.03053,-20.99722c8.78472,-8.87448 17.49082,-17.83704 26.5483,-26.42685c4.22363,-4.00555 7.51469,-7.86563 5.27653,-14.47592z" fill="#E6AF58"/>
  <path id="svg_36" d="m329.25452,383.7832c-8.73334,-7.99533 -17.20621,-16.22143 -25.96848,-24.60986c-2.51941,-2.63361 -4.74945,-5.10486 -7.14853,-7.85986c2.7526,-2.7049 5.87537,-4.92276 8.5621,-7.5813c13.904,-13.75803 27.61548,-27.71152 41.59318,-41.39343c2.95999,-2.89734 4.34655,-5.65625 2.7293,-9.96372c11.20624,10.75614 22.4278,21.89978 33.81653,33.33011c0.94452,5.01187 -1.13012,8.30099 -4.47738,11.57162c-14.23102,13.90516 -28.16559,28.11322 -42.33173,42.08567c-1.79895,1.77438 -4.32519,2.8114 -6.77499,4.42077z" fill="#EAB359"/>
 </g>
</svg>