<svg version="1.1" id="Layer_1" xmlns="http://www.w3.org/2000/svg" xmlns:xlink="http://www.w3.org/1999/xlink" x="0px" y="0px"
	 width="100%" viewBox="0 0 512 512" enable-background="new 0 0 512 512" xml:space="preserve">
<path fill="#000000" opacity="1.000000" stroke="none" 
	d="
M225.000000,513.000000 
	C150.365036,513.000000 75.730057,513.000000 1.047544,513.000000 
	C1.047544,342.437500 1.047544,171.874969 1.047544,1.000000 
	C96.355118,1.000000 191.710587,1.000000 287.864868,1.249869 
	C284.836182,5.023864 281.008698,8.547990 276.700623,12.043522 
	C256.032074,11.951613 235.728592,10.902278 215.842834,15.142052 
	C201.747284,18.147316 187.926224,22.440042 173.622681,25.984959 
	C166.722565,22.738672 160.068237,22.966740 154.059525,26.603960 
	C147.980316,30.283869 142.453400,34.876190 136.401825,39.210751 
	C133.729767,41.863419 131.340439,44.374176 128.567123,47.101326 
	C112.206573,56.481430 97.715706,67.698219 84.368828,80.281372 
	C76.919373,87.304565 70.338799,95.269302 63.560482,102.980110 
	C50.738605,117.565903 40.269566,133.844360 32.072620,151.326416 
	C25.664232,164.993927 20.508055,179.328537 15.808564,193.698059 
	C9.206614,213.884735 6.677737,234.919983 6.170074,256.065582 
	C5.888954,267.775055 7.236377,279.530762 7.993382,291.256317 
	C9.083919,308.148132 13.354341,324.423981 18.335842,340.476746 
	C24.230516,359.472137 32.614735,377.454254 43.236477,394.243805 
	C49.112663,403.532166 56.184353,412.064178 62.877655,421.264374 
	C65.014198,423.985352 66.854004,426.509094 68.991478,428.748779 
	C75.734291,435.813965 82.486099,442.877258 89.454498,449.717010 
	C91.960312,452.176544 95.091423,453.998962 98.080505,456.418457 
	C99.873238,458.033966 101.540169,459.321716 103.169373,460.655579 
	C123.580894,477.366028 146.622543,489.481354 171.246613,498.471741 
	C182.193207,502.468414 193.760208,504.765839 205.442627,507.920685 
	C211.259369,509.005035 216.694809,509.928772 222.085403,511.065216 
	C223.145767,511.288788 224.032944,512.333801 225.000000,513.000000 
z"/>
<path fill="#000000" opacity="1.000000" stroke="none" 
	d="
M308.000000,0.999995 
	C376.301666,1.000000 444.603302,1.000000 512.952515,1.000000 
	C512.952515,171.555878 512.952515,342.111755 512.952515,513.000000 
	C438.645569,513.000000 364.290619,513.000000 289.133331,512.663086 
	C289.659607,511.884308 290.959625,511.300659 292.321930,511.025543 
	C297.843811,509.910553 303.384888,508.890442 309.330231,507.902954 
	C310.981262,507.651398 312.209900,507.278961 313.462158,507.020905 
	C333.115265,502.970184 351.826080,496.067047 369.555756,486.888855 
	C381.520233,480.695129 393.017242,473.453613 404.161835,465.856995 
	C418.451202,456.116699 431.007568,444.222473 442.813538,431.598969 
	C445.902802,428.295746 448.474304,424.508240 451.576935,420.808685 
	C452.786987,419.710022 453.812408,418.827240 454.604492,417.769653 
	C474.141846,391.683685 489.371582,363.477509 498.225403,331.887512 
	C503.773254,312.093048 507.036591,291.975159 507.791016,271.559479 
	C508.253448,259.045563 507.657715,246.310516 505.794281,233.937241 
	C503.279297,217.237610 500.231720,200.444687 495.354401,184.314148 
	C487.634064,158.781082 475.128967,135.363647 459.035583,113.523636 
	C457.928467,106.569870 456.958862,100.018509 455.792053,93.502464 
	C454.562286,86.634659 450.747742,81.294777 443.975800,79.735817 
	C439.582672,78.724472 434.674530,79.950111 429.699646,80.002060 
	C423.331909,74.781258 417.371338,69.592575 411.170471,64.709053 
	C393.899200,51.107052 375.277252,39.774517 354.544067,31.493141 
	C344.006042,19.012665 331.579590,9.834662 315.692017,5.084991 
	C312.870483,3.669165 310.435242,2.334577 308.000000,0.999995 
z"/>
<path fill="#FD3980" opacity="1.000000" stroke="none" 
	d="
M308.918854,507.835297 
	C303.384888,508.890442 297.843811,509.910553 292.321930,511.025543 
	C290.959625,511.300659 289.659607,511.884308 288.665466,512.663086 
	C267.979095,513.000000 246.958206,513.000000 225.468658,513.000000 
	C224.032944,512.333801 223.145767,511.288788 222.085403,511.065216 
	C216.694809,509.928772 211.259369,509.005035 205.411926,507.463440 
	C204.967300,447.834442 204.958862,388.748840 204.928268,329.663269 
	C204.919235,312.188354 204.847733,294.713470 205.127777,276.947876 
	C207.241760,276.495239 209.032257,276.199860 210.823929,276.192566 
	C224.514587,276.136871 238.205505,276.137390 252.135834,276.369843 
	C258.014496,279.021179 263.567596,281.658447 269.316345,283.760651 
	C275.399384,285.985107 279.335358,289.936981 281.454956,296.019928 
	C283.093170,300.721313 284.965088,305.354492 287.013641,309.891327 
	C287.591400,311.170776 289.029053,312.501678 290.323303,312.835358 
	C290.986572,313.006317 292.587036,311.193695 293.104340,309.993286 
	C295.338593,304.808624 297.259827,299.490143 299.429230,294.276215 
	C301.275421,289.839233 303.955719,286.144806 309.018036,285.384460 
	C309.052551,352.686005 309.063873,419.514038 309.059601,486.342041 
	C309.059143,493.506470 308.967957,500.670868 308.918854,507.835297 
z"/>
<path fill="#FD0564" opacity="1.000000" stroke="none" 
	d="
M307.531616,0.999995 
	C310.435242,2.334577 312.870483,3.669165 315.660950,5.451106 
	C315.361633,7.598698 314.801636,9.342682 314.037842,10.992325 
	C307.180786,25.802534 300.195038,40.554024 293.450897,55.415253 
	C290.722534,61.427437 290.890015,67.484749 295.263000,72.819138 
	C299.558441,78.058960 305.072021,79.656082 311.800690,78.417519 
	C331.440704,74.802261 351.128845,71.448547 370.938507,68.383270 
	C371.469025,76.157127 371.859192,83.540039 371.879517,91.100082 
	C346.544525,95.704941 321.579315,100.132652 296.162567,104.420883 
	C291.532227,104.848907 287.353394,105.416428 283.062988,105.649437 
	C276.507324,93.084358 266.376465,85.928291 252.851349,83.439682 
	C250.282379,82.966995 247.716599,82.476944 245.207748,81.652039 
	C255.711136,59.033905 266.160461,36.760654 276.582153,14.474487 
	C276.925262,13.740767 276.987823,12.875867 277.181183,12.072117 
	C281.008698,8.547990 284.836182,5.023864 288.331848,1.249869 
	C294.354401,1.000000 300.708801,1.000000 307.531616,0.999995 
z"/>
<path fill="#473B83" opacity="1.000000" stroke="none" 
	d="
M251.896332,276.120422 
	C238.205505,276.137390 224.514587,276.136871 210.823929,276.192566 
	C209.032257,276.199860 207.241760,276.495239 204.674438,276.928131 
	C195.404968,277.192810 186.911774,277.173462 178.418625,277.182800 
	C155.609238,277.207855 132.799850,277.245178 109.526382,277.215332 
	C99.074059,277.163452 89.084473,277.075104 79.097977,277.212219 
	C69.203415,277.348053 62.960209,283.683594 62.919003,293.594147 
	C62.847012,310.906860 62.917168,328.220123 62.889736,345.533112 
	C62.849915,370.667816 62.776318,395.802490 62.717133,420.937164 
	C56.184353,412.064178 49.112663,403.532166 43.236477,394.243805 
	C32.614735,377.454254 24.230516,359.472137 18.335842,340.476746 
	C13.354341,324.423981 9.083919,308.148132 7.993382,291.256317 
	C7.236377,279.530762 5.888954,267.775055 6.170074,256.065582 
	C6.677737,234.919983 9.206614,213.884735 15.808564,193.698059 
	C20.508055,179.328537 25.664232,164.993927 32.072620,151.326416 
	C40.269566,133.844360 50.738605,117.565903 63.560482,102.980110 
	C70.338799,95.269302 76.919373,87.304565 84.368828,80.281372 
	C97.715706,67.698219 112.206573,56.481430 128.433716,47.567120 
	C107.918709,74.947487 103.632751,104.256477 116.660934,136.043518 
	C106.544136,138.093689 96.808601,140.004547 86.641373,141.871674 
	C75.086990,143.749084 63.925877,145.474655 52.853416,147.651245 
	C43.441971,149.501328 38.605694,156.952423 40.269554,166.465714 
	C43.072472,182.491714 45.926178,198.509338 48.865070,214.510895 
	C50.659470,224.280975 57.166584,229.394684 66.976471,227.944229 
	C79.271957,226.126266 91.461205,223.589798 104.097145,221.419586 
	C113.307922,219.946777 122.123421,218.449081 130.926758,216.882996 
	C156.406769,212.350189 181.881897,207.789886 207.699432,203.489792 
	C209.349762,203.762299 210.697250,203.999710 211.963913,203.777130 
	C243.355270,198.261169 274.741058,192.713196 306.113190,187.089294 
	C307.607727,186.821365 308.968140,185.805023 310.781067,185.087250 
	C328.506531,181.999786 345.843872,178.973450 363.176880,175.922363 
	C391.793701,170.884995 420.415039,165.872711 449.019287,160.764709 
	C460.385315,158.735016 465.091309,151.789719 463.217834,140.459213 
	C461.758545,131.633591 460.457642,122.781761 459.086334,113.941582 
	C475.128967,135.363647 487.634064,158.781082 495.354401,184.314148 
	C500.231720,200.444687 503.279297,217.237610 505.794281,233.937241 
	C507.657715,246.310516 508.253448,259.045563 507.791016,271.559479 
	C507.036591,291.975159 503.773254,312.093048 498.225403,331.887512 
	C489.371582,363.477509 474.141846,391.683685 454.604492,417.769653 
	C453.812408,418.827240 452.786987,419.710022 451.526550,420.348999 
	C451.155823,378.045288 451.147644,336.066803 451.088776,294.088440 
	C451.073944,283.517792 444.900818,277.329620 434.387115,277.189484 
	C426.563202,277.085175 418.738495,277.040924 411.045959,276.652039 
	C412.694855,273.056793 410.514526,271.359863 408.286377,269.777130 
	C400.275238,264.086517 392.312012,258.323029 384.177979,252.812485 
	C375.849182,247.169998 371.141541,240.029938 371.749603,229.442810 
	C372.341095,219.144424 372.065216,208.787399 371.880066,198.461334 
	C371.846436,196.587067 370.858032,193.766922 369.504333,193.148834 
	C368.137421,192.524719 365.451782,193.655380 363.891174,194.778061 
	C355.511078,200.806686 347.252014,207.007614 339.048218,213.276062 
	C331.722961,218.873215 323.901825,220.395645 315.099304,217.218216 
	C305.230316,213.655823 295.292053,210.272903 285.298340,207.079834 
	C283.501495,206.505737 280.530914,206.487534 279.482666,207.560852 
	C278.424286,208.644562 278.520752,211.578201 279.084290,213.400482 
	C281.691620,221.830978 284.637634,230.156738 287.352356,238.863617 
	C285.095703,244.750702 282.964233,250.300171 280.797760,255.835938 
	C278.881683,260.731934 275.428986,264.055756 270.511871,265.939423 
	C265.422577,267.889069 260.290192,269.764343 255.356812,272.059387 
	C253.890854,272.741364 253.032883,274.730316 251.896332,276.120422 
M434.220581,188.149017 
	C433.137878,185.361176 432.167786,182.520935 430.908844,179.815094 
	C430.491669,178.918488 429.415955,178.037720 428.475311,177.796127 
	C427.995239,177.672821 426.932129,178.866806 426.513336,179.665146 
	C425.746216,181.127396 425.078674,182.693329 424.689240,184.293808 
	C422.436218,193.552658 416.810730,199.275284 407.519104,201.713852 
	C405.034210,202.365982 402.903809,204.368820 400.610657,205.751572 
	C402.927612,207.134872 405.083405,209.140320 407.590454,209.789886 
	C416.695831,212.149078 422.246674,217.656006 424.557404,226.756271 
	C425.217621,229.356461 426.713867,231.744385 427.826782,234.229630 
	C428.408966,234.282532 428.991150,234.335434 429.573334,234.388336 
	C430.754395,231.646042 432.290649,228.998215 433.049835,226.143723 
	C435.310760,217.643280 440.469238,212.359848 449.032135,210.140045 
	C451.905396,209.395218 454.555359,207.788864 457.307373,206.576279 
	C457.293884,205.982178 457.280426,205.388077 457.266968,204.793991 
	C453.397614,203.160889 449.613678,201.269043 445.638458,199.956619 
	C439.968628,198.084732 436.164337,194.623322 434.220581,188.149017 
z"/>
<path fill="#FDF061" opacity="1.000000" stroke="none" 
	d="
M109.990471,277.277649 
	C132.799850,277.245178 155.609238,277.207855 178.418625,277.182800 
	C186.911774,277.173462 195.404968,277.192810 204.351486,277.218811 
	C204.847733,294.713470 204.919235,312.188354 204.928268,329.663269 
	C204.958862,388.748840 204.967300,447.834442 205.014923,507.377258 
	C193.760208,504.765839 182.193207,502.468414 171.246613,498.471741 
	C146.622543,489.481354 123.580894,477.366028 103.169373,460.655579 
	C101.540169,459.321716 99.873238,458.033966 98.080154,455.943176 
	C97.942467,402.082092 98.119019,349.001617 97.797333,295.924133 
	C97.739380,286.362457 101.109711,280.349945 109.990471,277.277649 
z"/>
<path fill="#F0CA51" opacity="1.000000" stroke="none" 
	d="
M109.526382,277.215302 
	C101.109711,280.349945 97.739380,286.362457 97.797333,295.924133 
	C98.119019,349.001617 97.942467,402.082092 97.936829,455.636841 
	C95.091423,453.998962 91.960312,452.176544 89.454498,449.717010 
	C82.486099,442.877258 75.734291,435.813965 68.991478,428.748779 
	C66.854004,426.509094 65.014198,423.985352 62.877651,421.264374 
	C62.776318,395.802490 62.849915,370.667816 62.889736,345.533112 
	C62.917168,328.220123 62.847012,310.906860 62.919003,293.594147 
	C62.960209,283.683594 69.203415,277.348053 79.097977,277.212219 
	C89.084473,277.075104 99.074059,277.163452 109.526382,277.215302 
z"/>
<path fill="#FD0564" opacity="1.000000" stroke="none" 
	d="
M117.042206,135.904190 
	C103.632751,104.256477 107.918709,74.947487 128.817719,47.350727 
	C131.340439,44.374176 133.729767,41.863419 136.436005,39.598740 
	C136.480927,41.312126 136.256851,42.790207 135.929886,44.245163 
	C129.033173,74.932976 154.642303,104.133530 185.839447,100.784950 
	C195.579468,99.739479 205.203659,97.596558 214.866516,95.875481 
	C215.959351,95.680824 217.020462,95.062424 217.991180,94.468681 
	C223.354874,91.187988 228.685959,87.853981 234.387894,84.551102 
	C235.454254,84.447067 236.160965,84.330170 236.801559,84.587906 
	C234.101227,94.579330 234.775452,103.924171 238.721497,113.190758 
	C224.891327,115.904175 211.369049,118.356972 197.876266,120.962387 
	C196.452423,121.237328 195.201965,122.410011 193.467651,123.115005 
	C182.438263,124.868126 171.813660,126.680710 161.185944,128.474777 
	C146.472595,130.958542 131.756897,133.428391 117.042206,135.904190 
z"/>
<path fill="#FC5E93" opacity="1.000000" stroke="none" 
	d="
M234.028229,84.538254 
	C228.685959,87.853981 223.354874,91.187988 217.991180,94.468681 
	C217.020462,95.062424 215.959351,95.680824 214.866516,95.875481 
	C205.203659,97.596558 195.579468,99.739479 185.839447,100.784950 
	C154.642303,104.133530 129.033173,74.932976 135.929886,44.245163 
	C136.256851,42.790207 136.480927,41.312126 136.718750,39.456825 
	C142.453400,34.876190 147.980316,30.283869 154.059525,26.603960 
	C160.068237,22.966740 166.722565,22.738672 173.827713,26.240524 
	C177.110931,28.828592 180.058365,30.756477 182.510544,33.184525 
	C199.740265,50.244705 216.867935,67.407951 234.028229,84.538254 
z"/>
<path fill="#473B83" opacity="1.000000" stroke="none" 
	d="
M234.387894,84.551117 
	C216.867935,67.407951 199.740265,50.244705 182.510544,33.184525 
	C180.058365,30.756477 177.110931,28.828592 174.187683,26.413652 
	C187.926224,22.440042 201.747284,18.147316 215.842834,15.142052 
	C235.728592,10.902278 256.032074,11.951613 276.700623,12.043524 
	C276.987823,12.875867 276.925262,13.740767 276.582153,14.474487 
	C266.160461,36.760654 255.711136,59.033905 244.954758,81.957985 
	C242.051468,83.142288 239.459564,83.677780 236.867661,84.213272 
	C236.160965,84.330170 235.454254,84.447067 234.387894,84.551117 
z"/>
<path fill="#FDF061" opacity="1.000000" stroke="none" 
	d="
M410.914124,276.969910 
	C418.738495,277.040924 426.563202,277.085175 434.387115,277.189484 
	C444.900818,277.329620 451.073944,283.517792 451.088776,294.088440 
	C451.147644,336.066803 451.155823,378.045288 451.233154,420.483398 
	C448.474304,424.508240 445.902802,428.295746 442.813538,431.598969 
	C431.007568,444.222473 418.451202,456.116699 404.161835,465.856995 
	C393.017242,473.453613 381.520233,480.695129 369.555756,486.888855 
	C351.826080,496.067047 333.115265,502.970184 313.462158,507.020905 
	C312.209900,507.278961 310.981262,507.651398 309.330231,507.902954 
	C308.967957,500.670868 309.059143,493.506470 309.059601,486.342041 
	C309.063873,419.514038 309.052551,352.686005 309.295776,285.173645 
	C315.627075,281.991119 321.708282,279.492981 328.268982,277.063049 
	C356.137024,277.077454 383.525574,277.023682 410.914124,276.969910 
z"/>
<path fill="#FDEF61" opacity="1.000000" stroke="none" 
	d="
M459.035583,113.523636 
	C460.457642,122.781761 461.758545,131.633591 463.217834,140.459213 
	C465.091309,151.789719 460.385315,158.735016 449.019287,160.764709 
	C420.415039,165.872711 391.793701,170.884995 363.176880,175.922363 
	C345.843872,178.973450 328.506531,181.999786 310.657349,184.673996 
	C307.543884,169.634384 304.870300,154.970627 302.367798,140.277710 
	C300.343079,128.390121 298.524261,116.467468 296.614136,104.560371 
	C321.579315,100.132652 346.544525,95.704941 372.278503,91.133232 
	C385.639862,88.793755 398.249573,86.690819 410.817932,84.364357 
	C417.249237,83.173874 423.606445,81.583229 429.997162,80.173447 
	C434.674530,79.950111 439.582672,78.724472 443.975800,79.735817 
	C450.747742,81.294777 454.562286,86.634659 455.792053,93.502464 
	C456.958862,100.018509 457.928467,106.569870 459.035583,113.523636 
z"/>
<path fill="#FC5E93" opacity="1.000000" stroke="none" 
	d="
M370.798126,67.992325 
	C351.128845,71.448547 331.440704,74.802261 311.800690,78.417519 
	C305.072021,79.656082 299.558441,78.058960 295.263000,72.819138 
	C290.890015,67.484749 290.722534,61.427437 293.450897,55.415253 
	C300.195038,40.554024 307.180786,25.802534 314.037842,10.992325 
	C314.801636,9.342682 315.361633,7.598698 316.047211,5.532345 
	C331.579590,9.834662 344.006042,19.012665 354.589600,31.877382 
	C362.532318,43.261692 368.644165,54.737118 370.798126,67.992325 
z"/>
<path fill="#473C83" opacity="1.000000" stroke="none" 
	d="
M370.938507,68.383270 
	C368.644165,54.737118 362.532318,43.261692 354.791626,32.114002 
	C375.277252,39.774517 393.899200,51.107052 411.170471,64.709053 
	C417.371338,69.592575 423.331909,74.781258 429.699646,80.002060 
	C423.606445,81.583229 417.249237,83.173874 410.817932,84.364357 
	C398.249573,86.690819 385.639862,88.793755 372.648315,90.956085 
	C371.859192,83.540039 371.469025,76.157127 370.938507,68.383270 
z"/>
<path fill="#FCF5BC" opacity="1.000000" stroke="none" 
	d="
M327.789520,276.994843 
	C321.708282,279.492981 315.627075,281.991119 309.268066,284.700073 
	C303.955719,286.144806 301.275421,289.839233 299.429230,294.276215 
	C297.259827,299.490143 295.338593,304.808624 293.104340,309.993286 
	C292.587036,311.193695 290.986572,313.006317 290.323303,312.835358 
	C289.029053,312.501678 287.591400,311.170776 287.013641,309.891327 
	C284.965088,305.354492 283.093170,300.721313 281.454956,296.019928 
	C279.335358,289.936981 275.399384,285.985107 269.316345,283.760651 
	C263.567596,281.658447 258.014496,279.021179 252.135834,276.369812 
	C253.032883,274.730316 253.890854,272.741364 255.356812,272.059387 
	C260.290192,269.764343 265.422577,267.889069 270.511871,265.939423 
	C275.428986,264.055756 278.881683,260.731934 280.797760,255.835938 
	C282.964233,250.300171 285.095703,244.750702 287.621704,238.635468 
	C290.837494,235.727982 292.115967,237.592422 293.090515,240.010712 
	C295.128113,245.066925 297.162628,250.125702 299.096069,255.222260 
	C301.094147,260.489288 304.625885,264.085083 309.947876,266.043304 
	C314.906677,267.867950 319.763428,269.968750 324.711090,271.825348 
	C327.219604,272.766663 328.726105,274.099945 327.789520,276.994843 
z"/>
<path fill="#FD3980" opacity="1.000000" stroke="none" 
	d="
M296.162598,104.420883 
	C298.524261,116.467468 300.343079,128.390121 302.367798,140.277710 
	C304.870300,154.970627 307.543884,169.634384 310.267273,184.723969 
	C308.968140,185.805023 307.607727,186.821365 306.113190,187.089294 
	C274.741058,192.713196 243.355270,198.261169 211.963913,203.777130 
	C210.697250,203.999710 209.349762,203.762299 207.697693,203.103577 
	C205.735062,193.003448 204.104523,183.540665 202.496475,174.074066 
	C199.614197,157.105988 196.745468,140.135605 193.871063,123.166199 
	C195.201965,122.410011 196.452423,121.237328 197.876266,120.962387 
	C211.369049,118.356972 224.891327,115.904175 239.151001,113.199051 
	C241.709946,112.798843 243.538742,112.701019 245.333496,112.400131 
	C257.951111,110.284843 270.561737,108.127708 283.174591,105.983948 
	C287.353394,105.416428 291.532227,104.848907 296.162598,104.420883 
z"/>
<path fill="#FC5C92" opacity="1.000000" stroke="none" 
	d="
M283.062988,105.649437 
	C270.561737,108.127708 257.951111,110.284843 245.333496,112.400131 
	C243.538742,112.701019 241.709946,112.798843 239.467392,112.982361 
	C234.775452,103.924171 234.101227,94.579330 236.801559,84.587914 
	C239.459564,83.677780 242.051468,83.142288 244.896362,82.300858 
	C247.716599,82.476944 250.282379,82.966995 252.851349,83.439682 
	C266.376465,85.928291 276.507324,93.084358 283.062988,105.649437 
z"/>
<path fill="#FDEF61" opacity="1.000000" stroke="none" 
	d="
M193.467651,123.115005 
	C196.745468,140.135605 199.614197,157.105988 202.496475,174.074066 
	C204.104523,183.540665 205.735062,193.003448 207.357193,202.854172 
	C181.881897,207.789886 156.406769,212.350189 130.926758,216.882996 
	C122.123421,218.449081 113.307922,219.946777 103.671486,221.308746 
	C93.471222,218.939728 90.498253,215.604233 88.876457,206.134247 
	C86.554199,192.574203 84.422371,178.964676 81.504013,165.529465 
	C79.541481,156.494598 79.518089,148.453064 87.073074,141.915405 
	C96.808601,140.004547 106.544136,138.093689 116.660934,136.043518 
	C131.756897,133.428391 146.472595,130.958542 161.185944,128.474777 
	C171.813660,126.680710 182.438263,124.868126 193.467651,123.115005 
z"/>
<path fill="#6E61B5" opacity="1.000000" stroke="none" 
	d="
M328.268982,277.063049 
	C328.726105,274.099945 327.219604,272.766663 324.711090,271.825348 
	C319.763428,269.968750 314.906677,267.867950 309.947876,266.043304 
	C304.625885,264.085083 301.094147,260.489288 299.096069,255.222260 
	C297.162628,250.125702 295.128113,245.066925 293.090515,240.010712 
	C292.115967,237.592422 290.837494,235.727982 287.731689,238.291870 
	C284.637634,230.156738 281.691620,221.830978 279.084290,213.400482 
	C278.520752,211.578201 278.424286,208.644562 279.482666,207.560852 
	C280.530914,206.487534 283.501495,206.505737 285.298340,207.079834 
	C295.292053,210.272903 305.230316,213.655823 315.099304,217.218216 
	C323.901825,220.395645 331.722961,218.873215 339.048218,213.276062 
	C347.252014,207.007614 355.511078,200.806686 363.891174,194.778061 
	C365.451782,193.655380 368.137421,192.524719 369.504333,193.148834 
	C370.858032,193.766922 371.846436,196.587067 371.880066,198.461334 
	C372.065216,208.787399 372.341095,219.144424 371.749603,229.442810 
	C371.141541,240.029938 375.849182,247.169998 384.177979,252.812485 
	C392.312012,258.323029 400.275238,264.086517 408.286377,269.777130 
	C410.514526,271.359863 412.694855,273.056793 411.045959,276.652039 
	C383.525574,277.023682 356.137024,277.077454 328.268982,277.063049 
z"/>
<path fill="#F0C950" opacity="1.000000" stroke="none" 
	d="
M86.641373,141.871674 
	C79.518089,148.453064 79.541481,156.494598 81.504013,165.529465 
	C84.422371,178.964676 86.554199,192.574203 88.876457,206.134247 
	C90.498253,215.604233 93.471222,218.939728 103.270653,221.252594 
	C91.461205,223.589798 79.271957,226.126266 66.976471,227.944229 
	C57.166584,229.394684 50.659470,224.280975 48.865070,214.510895 
	C45.926178,198.509338 43.072472,182.491714 40.269554,166.465714 
	C38.605694,156.952423 43.441971,149.501328 52.853416,147.651245 
	C63.925877,145.474655 75.086990,143.749084 86.641373,141.871674 
z"/>
<path fill="#FCF2F3" opacity="1.000000" stroke="none" 
	d="
M434.387482,188.493011 
	C436.164337,194.623322 439.968628,198.084732 445.638458,199.956619 
	C449.613678,201.269043 453.397614,203.160889 457.266968,204.793991 
	C457.280426,205.388077 457.293884,205.982178 457.307373,206.576279 
	C454.555359,207.788864 451.905396,209.395218 449.032135,210.140045 
	C440.469238,212.359848 435.310760,217.643280 433.049835,226.143723 
	C432.290649,228.998215 430.754395,231.646042 429.573334,234.388336 
	C428.991150,234.335434 428.408966,234.282532 427.826782,234.229630 
	C426.713867,231.744385 425.217621,229.356461 424.557404,226.756271 
	C422.246674,217.656006 416.695831,212.149078 407.590454,209.789886 
	C405.083405,209.140320 402.927612,207.134872 400.610657,205.751587 
	C402.903809,204.368820 405.034210,202.365982 407.519104,201.713852 
	C416.810730,199.275284 422.436218,193.552658 424.689240,184.293808 
	C425.078674,182.693329 425.746216,181.127396 426.513336,179.665146 
	C426.932129,178.866806 427.995239,177.672821 428.475311,177.796127 
	C429.415955,178.037720 430.491669,178.918488 430.908844,179.815094 
	C432.167786,182.520935 433.137878,185.361176 434.387482,188.493011 
z"/>
</svg>