<svg width="512" height="512" xmlns="http://www.w3.org/2000/svg" xml:space="preserve" enable-background="new 0 0 512 512" version="1.1">

 <g>
  <title>Layer 1</title>
  <path id="svg_3" d="m308.91885,507.8353c-5.53396,1.05514 -11.07504,2.07525 -16.59692,3.19024c-1.3623,0.27512 -2.66232,0.85877 -3.65646,1.63755c-20.68638,0.33691 -41.70726,0.33691 -63.19681,0.33691c-1.43572,-0.6662 -2.32289,-1.71121 -3.38326,-1.93478c-5.39059,-1.13645 -10.82603,-2.06018 -16.67347,-3.60178c-0.44463,-59.629 -0.45307,-118.7146 -0.48366,-177.80017c-0.00904,-17.47492 -0.08054,-34.9498 0.19951,-52.71539c2.11398,-0.45264 3.90448,-0.74802 5.69615,-0.75531c13.69066,-0.0557 27.38157,-0.05518 41.3119,0.17727c5.87867,2.65134 11.43177,5.28861 17.18052,7.39081c6.08303,2.22446 10.01901,6.17633 12.13861,12.25928c1.63821,4.70138 3.51013,9.33456 5.55868,13.8714c0.57776,1.27945 2.01541,2.61035 3.30966,2.94403c0.66327,0.17096 2.26374,-1.64167 2.78104,-2.84207c2.23425,-5.18467 4.15549,-10.50315 6.32489,-15.71708c1.84619,-4.43698 4.52649,-8.1314 9.58881,-8.89175c0.03451,67.30155 0.04583,134.12958 0.04156,200.95758c-0.00046,7.16443 -0.09164,14.32883 -0.14075,21.49326z" fill="#FD3980"/>
  <path id="svg_4" d="m307.53162,1c2.90362,1.33458 5.33886,2.66917 8.12933,4.45111c-0.29932,2.14759 -0.85931,3.89157 -1.62311,5.54121c-6.85705,14.81021 -13.8428,29.5617 -20.58694,44.42293c-2.72837,6.01219 -2.56088,12.0695 1.8121,17.40389c4.29544,5.23982 9.80902,6.83694 16.53769,5.59838c19.64001,-3.61526 39.32816,-6.96897 59.13782,-10.03425c0.53051,7.77386 0.92068,15.15677 0.94101,22.71681c-25.33499,4.60486 -50.3002,9.03257 -75.71695,13.3208c-4.63034,0.42803 -8.80918,0.99555 -13.09958,1.22856c-6.55567,-12.56508 -16.68653,-19.72115 -30.21164,-22.20976c-2.56897,-0.47269 -5.13475,-0.96274 -7.6436,-1.78764c10.50339,-22.61814 20.95271,-44.89139 31.3744,-67.17755c0.34311,-0.73372 0.40567,-1.59862 0.59903,-2.40237c3.82752,-3.52413 7.655,-7.04826 11.15067,-10.82225c6.02255,-0.24987 12.37695,-0.24987 19.19977,-0.24987z" fill="#FD0564"/>
  <path id="svg_5" d="m251.89633,276.12042c-13.69083,0.01697 -27.38174,0.01645 -41.0724,0.07215c-1.79167,0.00729 -3.58217,0.30267 -6.14949,0.73556c-9.26947,0.26468 -17.76267,0.24533 -26.25582,0.25467c-22.80938,0.02505 -45.61877,0.06238 -68.89224,0.03253c-10.45232,-0.05188 -20.44191,-0.14023 -30.4284,-0.00311c-9.89456,0.13583 -16.13777,6.47137 -16.17898,16.38193c-0.07199,17.31271 -0.00183,34.62597 -0.02926,51.93896c-0.03982,25.13471 -0.11342,50.26938 -0.17261,75.40405c-6.53278,-8.87298 -13.60447,-17.40499 -19.48065,-26.69335c-10.62174,-16.78956 -19.00596,-34.77167 -24.90064,-53.76706c-4.9815,-16.05277 -9.25192,-32.32862 -10.34246,-49.22043c-0.757,-11.72556 -2.10443,-23.48126 -1.82331,-35.19074c0.50767,-21.1456 3.03654,-42.18084 9.63849,-62.36752c4.69949,-14.36952 9.85567,-28.70413 16.26406,-42.37164c8.19695,-17.48206 18.66598,-33.76052 31.48786,-48.34631c6.77832,-7.71081 13.35889,-15.67555 20.80835,-22.69874c13.34688,-12.58315 27.83774,-23.79994 44.06489,-32.71425c-20.51501,27.38037 -24.80097,56.68936 -11.77279,88.4764c-10.11679,2.05017 -19.85233,3.96103 -30.01956,5.82815c-11.55438,1.87741 -22.71549,3.60299 -33.78795,5.77957c-9.41145,1.85009 -14.24773,9.30118 -12.58387,18.81447c2.80292,16.026 5.65663,32.04363 8.59552,48.04519c1.7944,9.77008 8.30151,14.88378 18.1114,13.43333c12.29549,-1.81796 24.48474,-4.35443 37.12067,-6.52464c9.21078,-1.47281 18.02628,-2.97051 26.82962,-4.53659c25.48001,-4.53281 50.95514,-9.09311 76.77267,-13.39321c1.65033,0.27251 2.99782,0.50992 4.26448,0.28734c31.39136,-5.51596 62.77715,-11.06393 94.14928,-16.68784c1.49454,-0.26793 2.85495,-1.28427 4.66788,-2.00204c17.72546,-3.08746 35.0628,-6.1138 52.39581,-9.16489c28.61682,-5.03736 57.23816,-10.04965 85.84241,-15.15765c11.36602,-2.02969 16.07202,-8.97499 14.19854,-20.3055c-1.45928,-8.82562 -2.76019,-17.67745 -4.1315,-26.51763c16.04264,21.42207 28.54773,44.8395 36.26807,70.37257c4.87732,16.13054 7.9249,32.92346 10.43988,49.62309c1.86343,12.37328 2.45917,25.10832 1.99674,37.62224c-0.75443,20.41568 -4.01777,40.53357 -9.56562,60.32803c-8.85382,31.59 -24.08355,59.79618 -43.62091,85.88214c-0.79208,1.05759 -1.8175,1.94037 -3.07794,2.57935c-0.37073,-42.30371 -0.37891,-84.2822 -0.43777,-126.26056c-0.01484,-10.57065 -6.18796,-16.75882 -16.70167,-16.89896c-7.82391,-0.10431 -15.64861,-0.14856 -23.34115,-0.53744c1.6489,-3.59525 -0.53143,-5.29218 -2.75958,-6.87491c-8.01114,-5.69061 -15.97437,-11.4541 -24.1084,-16.96464c-8.3288,-5.64249 -13.03644,-12.78255 -12.42838,-23.36968c0.59149,-10.29839 0.31562,-20.65541 0.13047,-30.98148c-0.03363,-1.87426 -1.02204,-4.69441 -2.37574,-5.3125c-1.36691,-0.62411 -4.05255,0.50655 -5.61316,1.62923c-8.38009,6.02863 -16.63916,12.22955 -24.84295,18.498c-7.32526,5.59715 -15.1464,7.11959 -23.94892,3.94216c-9.86898,-3.5624 -19.80725,-6.94532 -29.80096,-10.13839c-1.79685,-0.57409 -4.76743,-0.5923 -5.81567,0.48102c-1.05838,1.08371 -0.96192,4.01735 -0.39838,5.83963c2.60733,8.4305 5.55334,16.75626 8.26807,25.46314c-2.25666,5.88708 -4.38813,11.43655 -6.5546,16.97232c-1.91608,4.89599 -5.36877,8.21982 -10.28589,10.10348c-5.08929,1.94965 -10.22168,3.82492 -15.15506,6.11997c-1.46596,0.68197 -2.32393,2.67093 -3.46048,4.06103m182.32425,-87.9714c-1.0827,-2.78784 -2.05279,-5.62808 -3.31174,-8.33393c-0.41717,-0.8966 -1.49289,-1.77737 -2.43353,-2.01896c-0.48007,-0.12331 -1.54318,1.07068 -1.96197,1.86902c-0.76712,1.46225 -1.43467,3.02818 -1.8241,4.62866c-2.25302,9.25885 -7.87851,14.98147 -17.17014,17.42004c-2.48489,0.65213 -4.61529,2.65497 -6.90844,4.03772c2.31695,1.3833 4.47275,3.38875 6.97979,4.03832c9.10538,2.35919 14.65622,7.86612 16.96695,16.96638c0.66022,2.60019 2.15647,4.98811 3.26938,7.47336c0.58219,0.0529 1.16437,0.1058 1.74655,0.15871c1.18106,-2.7423 2.71732,-5.39013 3.4765,-8.24462c2.26093,-8.50044 7.41941,-13.78387 15.9823,-16.00368c2.87327,-0.74482 5.52323,-2.35118 8.27524,-3.56376c-0.01349,-0.5941 -0.02694,-1.1882 -0.0404,-1.78229c-3.86936,-1.6331 -7.65329,-3.52495 -11.62851,-4.83737c-5.66983,-1.87189 -9.47412,-5.3333 -11.41788,-11.8076z" fill="#473B83"/>
  <path id="svg_6" d="m109.99047,277.27765c22.80938,-0.03247 45.61877,-0.0698 68.42815,-0.09485c8.49315,-0.00934 16.98635,0.01001 25.93287,0.03601c0.49624,17.49466 0.56774,34.96954 0.57678,52.44446c0.03059,59.08557 0.03903,118.17117 0.08665,177.71399c-11.25471,-2.61142 -22.82171,-4.90885 -33.76831,-8.90552c-24.62407,-8.99039 -47.66572,-21.10571 -68.07724,-37.81616c-1.6292,-1.33386 -3.29613,-2.62161 -5.08922,-4.7124c-0.13768,-53.86109 0.03887,-106.94156 -0.28282,-160.01905c-0.05795,-9.56167 3.31238,-15.57419 12.19314,-18.64648z" fill="#FDF061"/>
  <path id="svg_7" d="m109.52638,277.2153c-8.41667,3.13464 -11.787,9.14716 -11.72905,18.70883c0.32169,53.07749 0.14514,106.15796 0.1395,159.71271c-2.84541,-1.63788 -5.97652,-3.4603 -8.48233,-5.91983c-6.9684,-6.83975 -13.72021,-13.90305 -20.46302,-20.96823c-2.13748,-2.23969 -3.97728,-4.76343 -6.11383,-7.48441c-0.10133,-25.46188 -0.02773,-50.59655 0.01209,-75.73126c0.02743,-17.31299 -0.04273,-34.62625 0.02926,-51.93896c0.04121,-9.91056 6.28442,-16.2461 16.17898,-16.38193c9.98649,-0.13712 19.97608,-0.04877 30.4284,0.00308z" fill="#F0CA51"/>
  <path id="svg_8" d="m117.04221,135.90419c-13.40946,-31.64771 -9.1235,-60.9567 11.77551,-88.55346c2.52272,-2.97655 4.91205,-5.48731 7.61828,-7.75199c0.04493,1.71339 -0.17915,3.19147 -0.50611,4.64642c-6.89672,30.68782 18.71241,59.88837 49.90956,56.53979c9.74002,-1.04547 19.36421,-3.18839 29.02707,-4.90947c1.09283,-0.19466 2.15394,-0.81306 3.12466,-1.4068c5.36369,-3.28069 10.69478,-6.6147 16.39671,-9.91758c1.06636,-0.10403 1.77308,-0.22093 2.41367,0.03681c-2.70033,9.99142 -2.02611,19.33626 1.91994,28.60285c-13.83017,2.71341 -27.35245,5.16621 -40.84523,7.77163c-1.42385,0.27494 -2.6743,1.44762 -4.40862,2.15261c-11.02939,1.75313 -21.65399,3.56571 -32.28171,5.35978c-14.71334,2.48376 -29.42904,4.95361 -44.14373,7.42941z" fill="#FD0564"/>
  <path id="svg_9" d="m234.02823,84.53825c-5.34227,3.31573 -10.67336,6.64974 -16.03705,9.93043c-0.97072,0.59374 -2.03183,1.21214 -3.12466,1.4068c-9.66286,1.72108 -19.28705,3.864 -29.02707,4.90947c-31.19715,3.34858 -56.80628,-25.85197 -49.90956,-56.53979c0.32696,-1.45495 0.55104,-2.93303 0.78886,-4.78833c5.73465,-4.58064 11.26157,-9.17296 17.34078,-12.85287c6.00871,-3.63722 12.66304,-3.86529 19.76818,-0.36344c3.28322,2.58807 6.23066,4.51596 8.68283,6.94401c17.22972,17.06018 34.35739,34.22342 51.51769,51.35372z" fill="#FC5E93"/>
  <path id="svg_10" d="m234.38789,84.55112c-17.51996,-17.14317 -34.64763,-34.30641 -51.87735,-51.36659c-2.45217,-2.42805 -5.39961,-4.35594 -8.32286,-6.77088c13.73854,-3.97361 27.5596,-8.26633 41.65515,-11.2716c19.88576,-4.23977 40.18924,-3.19044 60.85779,-3.09853c0.2872,0.83235 0.22464,1.69725 -0.11847,2.43097c-10.42169,22.28616 -20.87101,44.55941 -31.62739,67.48349c-2.90329,1.18431 -5.4952,1.7198 -8.0871,2.25529c-0.70669,0.1169 -1.41341,0.2338 -2.47977,0.33785z" fill="#473B83"/>
  <path id="svg_11" d="m410.91412,276.96991c7.82438,0.07101 15.64908,0.11526 23.47299,0.21957c10.51371,0.14014 16.68683,6.32831 16.70167,16.89896c0.05886,41.97836 0.06704,83.95685 0.14437,126.39496c-2.75885,4.02484 -5.33035,7.81235 -8.41961,11.11557c-11.80597,12.6235 -24.36234,24.51773 -38.65171,34.25802c-11.14459,7.59662 -22.6416,14.83814 -34.60607,21.03186c-17.72968,9.1782 -36.44049,16.08133 -56.0936,20.13206c-1.25226,0.25805 -2.4809,0.63049 -4.13193,0.88204c-0.36227,-7.23208 -0.27109,-14.39648 -0.27063,-21.56091c0.00427,-66.828 -0.00705,-133.65603 0.23618,-201.16839c6.33129,-3.18253 12.4125,-5.68067 18.9732,-8.1106c27.86804,0.0144 55.25659,-0.03937 82.64514,-0.09314z" fill="#FDF061"/>
  <path id="svg_12" d="m459.03558,113.52364c1.42206,9.25812 2.72297,18.10995 4.18225,26.93557c1.87348,11.33051 -2.83252,18.27581 -14.19854,20.3055c-28.60425,5.108 -57.22559,10.12029 -85.84241,15.15765c-17.33301,3.05109 -34.67035,6.07743 -52.51953,8.75164c-3.11347,-15.03962 -5.78705,-29.70337 -8.28955,-44.39629c-2.02472,-11.88759 -3.84354,-23.81024 -5.75366,-35.71734c24.96518,-4.42772 49.93039,-8.85543 75.66436,-13.42714c13.36136,-2.33947 25.97107,-4.44241 38.53943,-6.76887c6.43131,-1.19049 12.78852,-2.78113 19.17923,-4.19091c4.67737,-0.22334 9.58551,-1.44898 13.97864,-0.43763c6.77194,1.55896 10.58649,6.89884 11.81625,13.76664c1.16681,6.51605 2.13642,13.06741 3.24353,20.02118z" fill="#FDEF61"/>
  <path id="svg_13" d="m370.79813,67.99232c-19.66928,3.45623 -39.35743,6.80994 -58.99744,10.4252c-6.72867,1.23856 -12.24225,-0.35856 -16.53769,-5.59838c-4.37298,-5.33439 -4.54047,-11.3917 -1.8121,-17.40389c6.74414,-14.86123 13.72989,-29.61272 20.58694,-44.42292c0.7638,-1.64965 1.32379,-3.39363 2.00937,-5.45998c15.53238,4.30231 27.95883,13.48031 38.54239,26.34503c7.94272,11.38431 14.05456,22.85974 16.20853,36.11494z" fill="#FC5E93"/>
  <path id="svg_14" d="m370.93851,68.38327c-2.29435,-13.64615 -8.40619,-25.12158 -16.14688,-36.26927c20.48562,7.66052 39.10757,18.99305 56.37884,32.59505c6.20087,4.88352 12.16144,10.07221 18.52918,15.29301c-6.0932,1.58117 -12.45041,3.17181 -18.88172,4.3623c-12.56836,2.32646 -25.17807,4.4294 -38.16961,6.59173c-0.78913,-7.41605 -1.1793,-14.79896 -1.70981,-22.57282z" fill="#473C83"/>
  <path id="svg_15" d="m327.78952,276.99484c-6.08124,2.49814 -12.16245,4.99628 -18.52145,7.70523c-5.31235,1.44474 -7.99265,5.13916 -9.83884,9.57614c-2.1694,5.21393 -4.09064,10.53241 -6.32489,15.71708c-0.5173,1.2004 -2.11777,3.01303 -2.78104,2.84207c-1.29425,-0.33368 -2.7319,-1.66458 -3.30966,-2.94403c-2.04855,-4.53684 -3.92047,-9.17002 -5.55868,-13.8714c-2.1196,-6.08295 -6.05558,-10.03482 -12.13861,-12.25928c-5.74875,-2.1022 -11.30185,-4.73947 -17.18052,-7.39084c0.89705,-1.63949 1.75502,-3.62845 3.22098,-4.31042c4.93338,-2.29505 10.06577,-4.17032 15.15506,-6.11997c4.91712,-1.88366 8.36981,-5.20749 10.28589,-10.10348c2.16647,-5.53577 4.29794,-11.08524 6.82394,-17.20047c3.21579,-2.90749 4.49427,-1.04305 5.46881,1.37524c2.0376,5.05621 4.07212,10.11499 6.00556,15.21155c1.99808,5.26703 5.52981,8.86282 10.85181,10.82104c4.9588,1.82465 9.81555,3.92545 14.76321,5.78205c2.50851,0.94131 4.01502,2.27459 3.07843,5.16949z" fill="#FCF5BC"/>
  <path id="svg_16" d="m296.1626,104.42088c2.36166,12.04659 4.18048,23.96924 6.2052,35.85683c2.5025,14.69292 5.17608,29.35667 7.89947,44.44626c-1.29913,1.08105 -2.65954,2.09739 -4.15408,2.36532c-31.37213,5.62391 -62.75792,11.17188 -94.14928,16.68784c-1.26666,0.22258 -2.61415,-0.01483 -4.26622,-0.67355c-1.96263,-10.10013 -3.59317,-19.56292 -5.20121,-29.02951c-2.88228,-16.96808 -5.75101,-33.93847 -8.62542,-50.90787c1.33091,-0.75619 2.58136,-1.92887 4.00521,-2.20381c13.49278,-2.60542 27.01506,-5.05822 41.27473,-7.76334c2.55895,-0.40021 4.38774,-0.49803 6.1825,-0.79892c12.61761,-2.11529 25.22824,-4.27242 37.84109,-6.41618c4.1788,-0.56752 8.35764,-1.13504 12.98801,-1.56307z" fill="#FD3980"/>
  <path id="svg_17" d="m283.06299,105.64944c-12.50125,2.47827 -25.11188,4.6354 -37.72949,6.75069c-1.79476,0.30089 -3.62355,0.39871 -5.86611,0.58223c-4.69194,-9.05819 -5.36616,-18.40303 -2.66583,-28.39445c2.658,-0.91013 5.24991,-1.44562 8.0948,-2.28705c2.82024,0.17608 5.38602,0.66613 7.95499,1.13882c13.52511,2.48861 23.65597,9.64468 30.21164,22.20976z" fill="#FC5C92"/>
  <path id="svg_18" d="m193.46765,123.115c3.27782,17.0206 6.14655,33.99099 9.02883,50.95907c1.60804,9.46659 3.23858,18.92938 4.86071,28.7801c-25.47529,4.93572 -50.95042,9.49602 -76.43043,14.02883c-8.80334,1.56608 -17.61884,3.06378 -27.25527,4.42575c-10.20027,-2.36902 -13.17324,-5.70452 -14.79503,-15.1745c-2.32226,-13.56005 -4.45409,-27.16957 -7.37245,-40.60479c-1.96253,-9.03486 -1.98592,-17.0764 5.56906,-23.61406c9.73553,-1.91085 19.47107,-3.82171 29.58786,-5.87188c15.09597,-2.61513 29.81167,-5.08498 44.52501,-7.56874c10.62772,-1.79407 21.25232,-3.60665 32.28171,-5.35978z" fill="#FDEF61"/>
  <path id="svg_19" d="m328.26898,277.06305c0.45713,-2.96311 -1.04938,-4.29639 -3.55789,-5.2377c-4.94766,-1.8566 -9.80441,-3.9574 -14.76321,-5.78205c-5.322,-1.95822 -8.85373,-5.55401 -10.85181,-10.82104c-1.93344,-5.09656 -3.96796,-10.15534 -6.00556,-15.21155c-0.97454,-2.41829 -2.25302,-4.28273 -5.35882,-1.71884c-3.09406,-8.13513 -6.04007,-16.46089 -8.6474,-24.89139c-0.56354,-1.82228 -0.66,-4.75592 0.39838,-5.83963c1.04824,-1.07332 4.01882,-1.05511 5.81567,-0.48102c9.99371,3.19307 19.93198,6.57599 29.80096,10.13839c8.80252,3.17743 16.62366,1.65499 23.94892,-3.94216c8.20379,-6.26845 16.46286,-12.46937 24.84295,-18.498c1.56061,-1.12268 4.24625,-2.25334 5.61316,-1.62923c1.3537,0.61809 2.34211,3.43824 2.37574,5.3125c0.18515,10.32607 0.46102,20.68309 -0.13047,30.98148c-0.60806,10.58713 4.09958,17.72719 12.42838,23.36968c8.13403,5.51054 16.09726,11.27403 24.1084,16.96464c2.22815,1.58273 4.40848,3.27966 2.75958,6.87491c-27.52039,0.37164 -54.90894,0.42541 -82.77698,0.41101z" fill="#6E61B5"/>
  <path id="svg_20" d="m86.64137,141.87167c-7.12328,6.58139 -7.09989,14.62293 -5.13736,23.65779c2.91836,13.43522 5.05019,27.04474 7.37245,40.60479c1.62179,9.46998 4.59476,12.80548 14.39419,15.11834c-11.80944,2.33721 -23.99869,4.87368 -36.29418,6.69164c-9.80989,1.45045 -16.317,-3.66325 -18.1114,-13.43333c-2.93889,-16.00156 -5.7926,-32.01919 -8.59552,-48.04519c-1.66386,-9.51329 3.17242,-16.96438 12.58387,-18.81447c11.07246,-2.17658 22.23357,-3.90216 33.78795,-5.77957z" fill="#F0C950"/>
  <path id="svg_21" d="m434.38748,188.49301c1.77686,6.13031 5.58115,9.59172 11.25098,11.46361c3.97522,1.31242 7.75915,3.20427 11.62851,4.83737c0.01346,0.59409 0.02691,1.18819 0.0404,1.78229c-2.75201,1.21258 -5.40197,2.81894 -8.27524,3.56376c-8.56289,2.21981 -13.72137,7.50324 -15.9823,16.00368c-0.75918,2.85449 -2.29544,5.50232 -3.4765,8.24462c-0.58218,-0.05291 -1.16436,-0.10581 -1.74655,-0.15871c-1.11291,-2.48525 -2.60916,-4.87317 -3.26938,-7.47336c-2.31073,-9.10026 -7.86157,-14.60719 -16.96695,-16.96638c-2.50704,-0.64957 -4.66284,-2.65502 -6.97979,-4.0383c2.29315,-1.38277 4.42355,-3.38561 6.90844,-4.03774c9.29163,-2.43857 14.91712,-8.16119 17.17014,-17.42004c0.38943,-1.60048 1.05698,-3.16641 1.8241,-4.62866c0.41879,-0.79834 1.4819,-1.99233 1.96197,-1.86902c0.94064,0.24159 2.01636,1.12236 2.43353,2.01896c1.25895,2.70585 2.22904,5.54609 3.47864,8.67792z" fill="#FCF2F3"/>
 </g>
</svg>