<svg width="512" height="512" xmlns="http://www.w3.org/2000/svg" xml:space="preserve" enable-background="new 0 0 512 512" version="1.1">

 <g>
  <title>Layer 1</title>
  <path id="svg_1" d="m236,1c14.02089,0 28.04178,0 42.71579,0.29695c1.56256,0.4824 2.47202,0.66786 3.70291,1.06958c2.47665,0.34309 4.63187,0.46991 7.01123,0.60061c0.22421,0.00387 0.64902,0.14767 0.93088,0.37929c12.06924,3.54001 24.02249,6.35876 35.60181,10.28136c14.3106,4.84785 27.89752,11.41815 40.13613,20.84066c-0.19625,1.20471 -0.32345,2.03074 -0.55923,2.82452c-8.71463,29.34065 -17.4884,58.66398 -26.06085,88.04606c-0.62424,2.13962 -0.46424,5.0089 0.46054,7.01948c6.74847,14.67161 13.90814,29.15431 20.63657,43.83479c1.46768,3.20233 2.4096,6.95813 2.42651,10.46466c0.17349,35.98808 0.12466,71.97732 0.1001,107.96625c-0.01719,25.15692 -0.09305,50.31375 -0.45328,75.60461c-4.19409,2.38837 -8.01663,4.75653 -11.97141,6.87824c-21.34485,11.45175 -44.12252,18.61526 -68.09393,21.63632c-18.19537,2.29315 -36.53735,2.44452 -54.65202,-0.66187c-12.08438,-2.07232 -23.95352,-5.39975 -36.00199,-8.61868c-0.10029,-44.92951 -0.07884,-89.40588 -0.21312,-133.88178c-0.01005,-3.33479 1.13418,-4.91957 4.02004,-6.45622c40.64136,-21.64068 64.26622,-55.48488 68.83314,-101.15754c4.04596,-40.46252 -9.51767,-75.3967 -38.81762,-103.85147c-11.06114,-10.74206 -23.78907,-19.07703 -38.75887,-25.16426c0,2.37677 0.0002,4.15057 -0.00001,5.92436c-0.00283,23.48759 0.22307,46.97816 -0.08431,70.46176c-0.227,17.34333 -7.68759,31.35867 -22.34877,40.65426c-17.17644,10.89035 -35.15387,11.02181 -52.26712,0.0109c-16.13632,-10.38235 -23.4033,-25.82902 -21.96123,-45.31833c10.66965,-15.05547 22.25452,-28.79166 36.03756,-40.75713c21.41151,-18.58797 45.61526,-31.87598 72.64253,-40.112c8.2214,-2.5053 16.60434,-4.48052 25.12507,-6.77103c0.2118,-0.07251 0.65946,-0.08004 1.08046,-0.05454c2.50833,-0.26219 4.59568,-0.54986 7.05098,-0.91725c1.48915,-0.41067 2.61034,-0.74161 3.73151,-1.07256z" fill="#FFD367"/>
  <path id="svg_2" d="m513,235c0,14.35423 0,28.70847 -0.3645,43.74838c-1.36939,19.62744 -5.45371,37.99979 -11.0716,56.02411c-5.5252,17.72705 -12.56204,34.91998 -22.51208,50.62076c-7.76135,12.2471 -16.67139,23.76626 -25.12454,35.19211c3.66427,-15.12348 -2.86649,-23.39621 -18.20407,-23.44654c-9.92649,-0.03256 -19.85288,-0.10659 -29.7826,-0.62924c0.08911,-21.78644 0.18152,-43.10568 0.59369,-64.51098c2.36084,-2.24237 4.61493,-4.23536 6.41135,-6.5792c33.65848,-43.91504 48.67435,-93.1248 42.16946,-148.47871c-3.76117,-32.00594 -14.83783,-61.24944 -32.77499,-87.94048c-1.05646,-1.57206 -2.70715,-2.74476 -4.22031,-4.45222c-3.47378,-11.78855 -6.80856,-23.22816 -9.82116,-34.52929c5.67965,4.47583 11.12149,8.7136 16.37878,13.16917c15.6839,13.29221 29.43469,28.35385 41.42392,45.07487c13.06549,18.22211 23.55911,37.82677 31.33029,58.79581c6.65616,17.96029 11.53742,36.44543 13.60999,55.58247c0.44857,4.14179 1.29516,8.24045 1.95837,12.35898z" fill="#FCC72E"/>
  <path id="svg_3" d="m192.01276,389.91605c11.96547,2.76571 23.83461,6.09314 35.91899,8.16546c18.11467,3.10639 36.45665,2.95502 54.65202,0.66187c23.97141,-3.02106 46.74908,-10.18457 68.09393,-21.63632c3.95478,-2.12171 7.77732,-4.48987 12.0322,-6.42267c0.40121,8.98507 0.43112,17.6485 0.04559,26.35418c-1.24484,0.1121 -2.07428,0.18195 -3.35443,0.1734c-9.92773,-0.10263 -19.40616,-0.2423 -28.88119,-0.11859c-9.42102,0.12302 -16.45523,7.0188 -16.47409,15.84171c-0.01841,8.6105 6.74633,15.4548 15.92132,15.9501c3.24329,0.17508 6.50397,0.02802 10.43167,0.02802c-0.88623,0.93985 -1.13769,1.34982 -1.5032,1.57348c-13.56827,8.30155 -22.3349,20.28486 -23.96066,36.01511c-1.37687,13.3219 -0.59964,26.86642 -1.18155,40.39987c-7.426,1.42481 -14.43521,2.82318 -21.47013,4.07736c-4.40774,0.78586 -8.85415,1.35471 -13.28323,2.02097c-14.35422,0 -28.70845,0 -43.74826,-0.3645c-5.23134,-0.78903 -9.83998,-0.87546 -14.31001,-1.70703c-9.8539,-1.83316 -19.63788,-4.04209 -29.36608,-6.55002c0.12749,-21.03256 0.15604,-41.61279 0.21828,-62.19296c0.0527,-17.42322 0.14439,-34.84629 0.21883,-52.26944z" fill="#FCC72E"/>
  <path id="svg_6" d="m84.91743,447.03079c-21.02008,-19.02408 -38.50673,-40.77926 -52.29981,-65.64548c-11.91389,-21.47842 -20.60976,-44.09258 -25.7683,-68.00656c-2.40814,-11.16369 -3.45586,-22.62085 -5.48476,-34.16189c-0.36456,-14.57108 -0.36456,-28.92531 0.00005,-43.96517c2.08771,-11.81819 3.37541,-23.04101 5.65931,-34.05731c2.17908,-10.51071 5.39625,-20.8062 8.46892,-31.02511c8.45468,27.07658 23.45365,49.34024 45.47284,67.27722c2.69844,10.65039 4.53305,21.20918 8.29625,31.02888c4.29613,11.21036 10.30949,21.76261 15.64353,33.06043c0.0486,48.80471 0.03028,97.14984 0.01197,145.49499z" fill="#FCC72E"/>
  <path id="svg_9" d="m89.82761,26.97107c0.06675,11.36653 0.13352,22.73305 0.19109,35.02614c0.01984,10.25323 0.04886,19.57989 0.07788,28.90656c-1.20676,19.27005 6.06022,34.71672 22.19654,45.09907c17.11325,11.01091 35.09068,10.87945 52.26712,-0.0109c14.66118,-9.29559 22.12177,-23.31093 22.34877,-40.65426c0.30738,-23.4836 0.08148,-46.97417 0.08431,-70.46176c0.00021,-1.77379 0.00001,-3.54759 0.00001,-5.92436c14.9698,6.08723 27.69773,14.4222 38.75887,25.16426c29.29995,28.45477 42.86358,63.38895 38.81762,103.85147c-4.56692,45.67266 -28.19178,79.51686 -68.83314,101.15754c-2.88586,1.53665 -4.03009,3.12143 -4.02004,6.45622c0.13428,44.4759 0.11283,88.95227 0.21311,133.88178c0.00857,17.87637 -0.08312,35.29944 -0.13582,52.72266c-0.06224,20.58017 -0.09079,41.1604 -0.21828,62.19296c-33.17358,-8.13324 -63.2773,-22.80622 -90.43848,-44.56418c-0.14542,-68.23431 -0.163,-135.69196 -0.06714,-203.14947c0.00504,-3.5526 -0.86055,-5.67132 -4.23367,-7.4325c-16.09774,-8.40509 -30.26358,-19.31746 -41.506,-33.72456c-22.99622,-29.46956 -32.22434,-62.81111 -26.18901,-99.69374c6.35365,-38.82786 26.90175,-68.48766 60.68626,-88.84293z" fill="#535E8A"/>
  <path id="svg_10" d="m368.90491,26.06641c3.22375,-0.32544 6.44153,-0.82283 9.67273,-0.93526c4.62924,-0.16108 9.26828,-0.04117 13.90313,-0.04104c8.95325,0.00025 8.95325,0.00031 9.92237,9.44521c-8.29654,0.39928 -16.13489,0.62273 -23.95246,0.31553c-4.07165,-0.16 -5.95712,1.20586 -6.98886,5.16623c-7.21457,27.69376 -14.70953,55.31489 -21.80951,83.03743c-0.69894,2.72907 -0.168,6.43786 1.19556,8.92132c8.17059,14.88138 16.91028,29.45041 25.0744,44.33519c1.82178,3.32147 2.96137,7.48424 2.97089,11.26331c0.17578,69.80082 0.13211,139.60221 -0.33078,209.46684c-5.44086,0.02728 -10.41617,-0.00879 -15.39148,-0.04486c-0.02988,-8.66342 -0.05979,-17.32685 -0.15045,-26.44586c-0.01111,-25.61249 0.06475,-50.76932 0.08194,-75.92624c0.02456,-35.98893 0.07339,-71.97817 -0.1001,-107.96625c-0.01691,-3.50653 -0.95883,-7.26233 -2.42651,-10.46466c-6.72843,-14.68048 -13.8881,-29.16318 -20.63657,-43.83479c-0.92478,-2.01058 -1.08478,-4.87986 -0.46054,-7.01948c8.57245,-29.38208 17.34622,-58.70541 26.06085,-88.04606c0.23578,-0.79378 0.36298,-1.61981 0.80765,-3.07079c1.03046,-3.14525 1.7941,-5.6505 2.55774,-8.15577z" fill="#BFBEBD"/>
  <path id="svg_11" d="m90.33189,90.68451c-0.26433,-9.10741 -0.29335,-18.43407 -0.24334,-28.22337c27.20263,-23.56369 57.65544,-40.77602 91.8675,-50.74173c13.40593,-3.90505 27.38295,-5.84945 41.53455,-8.64466c-7.87428,2.26011 -16.25722,4.23533 -24.47862,6.74063c-27.02727,8.23602 -51.23102,21.52403 -72.64253,40.112c-13.78304,11.96547 -25.36791,25.70166 -36.03756,40.75713z" fill="#FCC72F"/>
  <path id="svg_12" d="m368.58423,25.91248c-0.44296,2.6592 -1.2066,5.16445 -2.21863,7.91598c-12.50546,-8.78252 -26.09238,-15.35282 -40.40298,-20.20067c-11.57932,-3.9226 -23.53257,-6.74135 -35.60181,-10.28136c10.8038,1.73343 22.19989,2.67222 32.90088,5.90901c15.26767,4.61808 30.026,10.92024 45.32254,16.65704z" fill="#FCC730"/>
  <path id="svg_13" d="m282.4187,2.36653c1.87692,-0.1602 4.07529,-0.10414 6.53034,0.27433c-1.89847,0.19558 -4.05369,0.06876 -6.53034,-0.27433z" fill="#FCC730"/>
  <path id="svg_14" d="m225.21751,2.98981c1.6704,-0.32417 3.76181,-0.62285 6.26812,-0.87953c-1.67244,0.32967 -3.75979,0.61734 -6.26812,0.87953z" fill="#FCC72F"/>
  <path id="svg_15" d="m379.02789,396.97781c-0.00262,-69.80127 0.04105,-139.60266 -0.13473,-209.40348c-0.00952,-3.77907 -1.14911,-7.94184 -2.97089,-11.26331c-8.16412,-14.88478 -16.90381,-29.45381 -25.0744,-44.33519c-1.36356,-2.48346 -1.8945,-6.19225 -1.19556,-8.92132c7.09998,-27.72254 14.59494,-55.34367 21.80951,-83.03743c1.03174,-3.96037 2.91721,-5.32623 6.98886,-5.16623c7.81757,0.3072 15.65592,0.08375 23.94001,0.0806c2.12768,4.73796 3.80102,9.47574 5.53009,14.58115c3.39047,11.80723 6.72525,23.24684 10.15777,35.41929c3.9719,13.81535 7.96649,26.86452 11.60629,40.01193c0.63559,2.29593 0.48032,5.3276 -0.50332,7.47194c-6.87146,14.97996 -14.14835,29.77365 -21.05945,44.73597c-1.27408,2.75827 -2.07309,6.01071 -2.08133,9.03783c-0.12811,46.97203 -0.09222,93.94453 -0.07846,140.91692c0.00049,1.65942 0.16446,3.31878 0.25226,4.97818c-0.09241,21.31924 -0.18482,42.63848 -0.7337,64.50042c-9.12198,0.49271 -17.78748,0.44272 -26.45295,0.39273z" fill="#EDEDEC"/>
  <path id="svg_16" d="m406.5343,331.9986c-0.40756,-1.57334 -0.57153,-3.2327 -0.57202,-4.89212c-0.01376,-46.97239 -0.04965,-93.94489 0.07846,-140.91692c0.00824,-3.02712 0.80725,-6.27956 2.08133,-9.03783c6.9111,-14.96232 14.18799,-29.75601 21.05945,-44.73597c0.98364,-2.14434 1.13891,-5.17601 0.50332,-7.47194c-3.6398,-13.14741 -7.63439,-26.19658 -11.46731,-39.663c1.41544,0.97463 3.06613,2.14733 4.12259,3.71939c17.93716,26.69104 29.01382,55.93454 32.77499,87.94048c6.50489,55.35391 -8.51098,104.56367 -42.16946,148.47871c-1.79642,2.34384 -4.05051,4.33683 -6.41135,6.5792z" fill="#FFD367"/>
  <path id="svg_17" d="m378.56238,397.04117c9.13098,-0.01337 17.79648,0.03662 26.92175,0.01111c10.3862,-0.02005 20.31259,0.05398 30.23908,0.08654c15.33758,0.05033 21.86834,8.32306 18.20407,23.44654c0.05356,0.41681 0.06653,0.37607 -0.1792,0.39077c-0.45578,0.296 -0.66583,0.57725 -0.87592,0.85846c-0.71033,0.93818 -1.42068,1.87638 -2.75137,3.09314c-7.12418,1.94581 -13.62793,3.61298 -19.77728,5.1893c2.55737,2.0944 5.59771,4.58429 8.63809,7.07419c-13.62369,14.76856 -29.47766,26.62079 -46.51578,37.24485c-14.25922,8.89126 -29.12695,16.26779 -45.04748,22.06341c-0.40397,-8.42667 -0.62943,-16.42728 -0.36478,-24.41165c0.38098,-11.49295 4.0032,-21.91235 11.90115,-30.4534c3.97571,-4.29938 8.47888,-8.11099 13.29743,-12.66687c-2.73862,0 -5.15222,0.13641 -7.54548,-0.02628c-6.51718,-0.44308 -11.9794,-2.88824 -15.1795,-8.92056c-4.65439,-8.77377 -0.42663,-17.97369 10.32465,-22.73038c0.8294,-0.06982 1.65884,-0.13967 2.90368,-0.25177c5.39072,-0.00619 10.36603,0.02988 15.80689,0.0026z" fill="#FF506F"/>
  <path id="svg_18" d="m359.40106,397.21197c-10.30053,4.83506 -14.52829,14.03498 -9.8739,22.80875c3.2001,6.03232 8.66232,8.47748 15.1795,8.92056c2.39326,0.16269 4.80686,0.02628 7.54548,0.02628c-4.81855,4.55588 -9.32172,8.36749 -13.29743,12.66687c-7.89795,8.54105 -11.52017,18.96045 -11.90115,30.4534c-0.26465,7.98437 -0.03919,15.98498 -0.00754,24.44412c-10.68719,3.76975 -21.3996,7.07373 -32.49939,10.32999c-0.21136,-13.49372 -0.98859,-27.03824 0.38828,-40.36014c1.62576,-15.73025 10.39239,-27.71356 23.96066,-36.01511c0.36551,-0.22366 0.61697,-0.63363 1.5032,-1.57348c-3.9277,0 -7.18838,0.14706 -10.43167,-0.02802c-9.17499,-0.4953 -15.93973,-7.3396 -15.92132,-15.9501c0.01886,-8.82291 7.05307,-15.71869 16.47409,-15.84171c9.47503,-0.12371 18.95346,0.01596 28.88119,0.11859z" fill="#E43A58"/>
  <path id="svg_19" d="m439.28769,437.03098c-3.34647,-2.32966 -6.38681,-4.81955 -8.94418,-6.91395c6.14935,-1.57632 12.6531,-3.24349 19.51806,-5.03445c-3.18182,3.84683 -6.72479,7.8175 -10.57388,11.9484z" fill="#FCC231"/>
  <path id="svg_20" d="m453.15396,421.8504c-0.07171,-0.29702 0.13834,-0.57827 0.61478,-0.86682c0.06656,0.28934 -0.13321,0.586 -0.61478,0.86682z" fill="#FCC72E"/>
  <path id="svg_21" d="m89.89745,26.53975c-33.85435,20.78659 -54.40245,50.44639 -60.7561,89.27425c-6.03533,36.88263 3.19279,70.22418 26.18901,99.69374c11.24242,14.4071 25.40826,25.31947 41.506,33.72456c3.37312,1.76118 4.23871,3.8799 4.23367,7.4325c-0.09586,67.45751 -0.07828,134.91516 -0.07312,202.83953c-5.23227,-3.65475 -10.47568,-7.77624 -15.89929,-12.18566c-0.16188,-48.63303 -0.14356,-96.97816 -0.12424,-146.25678c0.0107,-16.03134 0.09245,-31.13007 -0.07735,-46.22594c-0.01768,-1.57087 -1.12357,-3.74585 -2.41186,-4.58363c-7.05835,-4.59012 -14.33122,-8.85037 -21.5304,-13.22394c-22.00728,-17.51887 -37.00625,-39.78253 -45.46093,-66.85911c-1.69459,-11.83967 -4.0636,-23.49173 -4.25808,-35.17997c-0.42597,-25.60023 7.24959,-49.09263 21.64521,-70.24653c11.60772,-17.05717 26.22937,-30.94566 44.65412,-40.55724c3.98412,-2.0784 8.05983,-3.98125 12.4332,-6.13209c0,3.07331 0,5.56415 -0.06984,8.48631z" fill="#333C5C"/>
  <path id="svg_22" d="m60.96568,237.44647c7.18727,3.95548 14.46014,8.21573 21.51849,12.80585c1.28829,0.83778 2.39418,3.01276 2.41186,4.58363c0.1698,15.09587 0.08805,30.1946 0.01043,45.76641c-5.33504,-10.36438 -11.3484,-20.91663 -15.64453,-32.12699c-3.7632,-9.8197 -5.59781,-20.37849 -8.29625,-31.0289z" fill="#FED267"/>
 </g>
</svg>