<svg version="1.1" id="Layer_1" xmlns="http://www.w3.org/2000/svg" xmlns:xlink="http://www.w3.org/1999/xlink" x="0px" y="0px"
	 width="100%" viewBox="0 0 512 512" enable-background="new 0 0 512 512" xml:space="preserve">
<path fill="#FFD367" opacity="1.000000" stroke="none" 
	d="
M236.000000,1.000002 
	C250.020889,1.000000 264.041779,1.000000 278.715790,1.296946 
	C280.278351,1.779350 281.187805,1.964807 282.418701,2.366529 
	C284.895355,2.709617 287.050568,2.836442 289.429932,2.967136 
	C289.654144,2.971006 290.078949,3.114805 290.360809,3.346429 
	C302.430054,6.886441 314.383301,9.705186 325.962616,13.627788 
	C340.273224,18.475637 353.860138,25.045942 366.098755,34.468452 
	C365.902496,35.673164 365.775299,36.499191 365.539520,37.292973 
	C356.824890,66.633621 348.051117,95.956955 339.478668,125.339035 
	C338.854431,127.478645 339.014435,130.347931 339.939209,132.358505 
	C346.687683,147.030121 353.847351,161.512817 360.575775,176.193298 
	C362.043457,179.395630 362.985382,183.151428 363.002289,186.657959 
	C363.175781,222.646042 363.126953,258.635284 363.102386,294.624207 
	C363.085205,319.781128 363.009338,344.937958 362.649109,370.228821 
	C358.455017,372.617188 354.632477,374.985352 350.677704,377.107056 
	C329.332855,388.558807 306.555176,395.722321 282.583771,398.743378 
	C264.388397,401.036530 246.046417,401.187897 227.931747,398.081512 
	C215.847366,396.009186 203.978226,392.681763 191.929764,389.462830 
	C191.829468,344.533325 191.850922,300.056946 191.716644,255.581055 
	C191.706589,252.246262 192.850815,250.661484 195.736679,249.124832 
	C236.378036,227.484146 260.002899,193.639954 264.569824,147.967285 
	C268.615784,107.504768 255.052155,72.570587 225.752197,44.115818 
	C214.691055,33.373764 201.963135,25.038794 186.993332,18.951559 
	C186.993332,21.328333 186.993530,23.102129 186.993317,24.875925 
	C186.990494,48.363506 187.216385,71.854080 186.909012,95.337677 
	C186.682007,112.681007 179.221420,126.696350 164.560242,135.991943 
	C147.383804,146.882294 129.406372,147.013748 112.293121,136.002838 
	C96.156799,125.620491 88.889816,110.173820 90.331886,90.684509 
	C101.001541,75.629044 112.586411,61.892853 126.369446,49.927383 
	C147.780960,31.339413 171.984711,18.051403 199.011978,9.815381 
	C207.233383,7.310078 215.616318,5.334859 224.137054,3.044350 
	C224.348846,2.971837 224.796509,2.964314 225.217514,2.989805 
	C227.725845,2.727624 229.813187,2.439952 232.268494,2.072559 
	C233.757645,1.661894 234.878830,1.330949 236.000000,1.000002 
z"/>
<path fill="#FCC72E" opacity="1.000000" stroke="none" 
	d="
M513.000000,235.000000 
	C513.000000,249.354233 513.000000,263.708466 512.635498,278.748383 
	C511.266113,298.375824 507.181793,316.748169 501.563904,334.772491 
	C496.038696,352.499542 489.001862,369.692474 479.051819,385.393250 
	C471.290466,397.640350 462.380432,409.159515 453.927277,420.585358 
	C457.591553,405.461884 451.060791,397.189148 435.723206,397.138824 
	C425.796722,397.106262 415.870331,397.032227 405.940613,396.509583 
	C406.029724,374.723145 406.122131,353.403900 406.534302,331.998596 
	C408.895142,329.756226 411.149231,327.763245 412.945648,325.419403 
	C446.604126,281.504364 461.619995,232.294601 455.115112,176.940689 
	C451.353943,144.934753 440.277283,115.691246 422.340118,89.000214 
	C421.283661,87.428154 419.632965,86.255447 418.119812,84.547989 
	C414.646027,72.759445 411.311249,61.319832 408.298645,50.018703 
	C413.978302,54.494526 419.420135,58.732296 424.677429,63.187866 
	C440.361328,76.480080 454.112122,91.541725 466.101349,108.262741 
	C479.166840,126.484848 489.660461,146.089508 497.431641,167.058548 
	C504.087799,185.018845 508.969055,203.503983 511.041626,222.641022 
	C511.490204,226.782806 512.336792,230.881470 513.000000,235.000000 
z"/>
<path fill="#FCC72E" opacity="1.000000" stroke="none" 
	d="
M192.012756,389.916046 
	C203.978226,392.681763 215.847366,396.009186 227.931747,398.081512 
	C246.046417,401.187897 264.388397,401.036530 282.583771,398.743378 
	C306.555176,395.722321 329.332855,388.558807 350.677704,377.107056 
	C354.632477,374.985352 358.455017,372.617188 362.709900,370.684387 
	C363.111115,379.669464 363.141022,388.332886 362.755493,397.038574 
	C361.510651,397.150665 360.681213,397.220520 359.401062,397.211975 
	C349.473328,397.109344 339.994904,396.969666 330.519867,397.093384 
	C321.098846,397.216400 314.064636,404.112183 314.045776,412.935089 
	C314.027374,421.545593 320.792114,428.389893 329.967102,428.885193 
	C333.210388,429.060272 336.471069,428.913208 340.398773,428.913208 
	C339.512543,429.853058 339.261078,430.263031 338.895569,430.486694 
	C325.327301,438.788239 316.560669,450.771545 314.934906,466.501801 
	C313.558044,479.823700 314.335266,493.368225 313.753357,506.901672 
	C306.327362,508.326477 299.318146,509.724854 292.283234,510.979034 
	C287.875488,511.764893 283.429077,512.333740 279.000000,513.000000 
	C264.645782,513.000000 250.291550,513.000000 235.251740,512.635498 
	C230.020401,511.846466 225.411758,511.760040 220.941727,510.928467 
	C211.087830,509.095306 201.303848,506.886383 191.575653,504.378448 
	C191.703140,483.345886 191.731689,462.765656 191.793930,442.185486 
	C191.846634,424.762268 191.938324,407.339203 192.012756,389.916046 
z"/>
<path fill="#FFFFFF" opacity="1.000000" stroke="none" 
	d="
M279.468658,513.000000 
	C283.429077,512.333740 287.875488,511.764893 292.283234,510.979034 
	C299.318146,509.724854 306.327362,508.326477 314.140747,506.949371 
	C325.646423,503.605682 336.358826,500.301697 347.443481,496.965240 
	C363.338867,490.703857 378.206604,483.327332 392.465820,474.436066 
	C409.503937,463.812012 425.357910,451.959778 439.287689,437.030975 
	C443.136780,432.900085 446.679749,428.929413 450.481934,424.803955 
	C451.451477,423.710968 452.161835,422.772766 453.153961,421.850403 
	C453.635529,421.569580 453.835297,421.272919 454.014465,420.968842 
	C453.993805,420.961426 453.980835,421.002167 453.980835,421.002167 
	C462.380432,409.159515 471.290466,397.640350 479.051819,385.393250 
	C489.001862,369.692474 496.038696,352.499542 501.563904,334.772491 
	C507.181793,316.748169 511.266113,298.375824 512.635498,279.217041 
	C513.000000,356.927032 513.000000,434.854095 513.000000,513.000000 
	C435.312561,513.000000 357.624939,513.000000 279.468658,513.000000 
z"/>
<path fill="#FFFFFF" opacity="1.000000" stroke="none" 
	d="
M191.491333,504.830811 
	C201.303848,506.886383 211.087830,509.095306 220.941727,510.928467 
	C225.411758,511.760040 230.020401,511.846466 234.783081,512.635498 
	C157.072968,513.000000 79.145927,513.000000 1.000000,513.000000 
	C1.000000,435.312561 1.000000,357.624939 1.364559,279.685547 
	C3.393457,290.757904 4.441178,302.215057 6.849323,313.378754 
	C12.007861,337.292725 20.703733,359.906891 32.617622,381.385315 
	C46.410698,406.251526 63.897346,428.006714 85.097618,447.318665 
	C90.521225,451.728088 95.764641,455.849579 101.148315,460.281006 
	C128.298355,481.572235 158.402069,496.245209 191.491333,504.830811 
z"/>
<path fill="#FCC72E" opacity="1.000000" stroke="none" 
	d="
M84.917427,447.030792 
	C63.897346,428.006714 46.410698,406.251526 32.617622,381.385315 
	C20.703733,359.906891 12.007861,337.292725 6.849323,313.378754 
	C4.441178,302.215057 3.393457,290.757904 1.364559,279.216858 
	C1.000000,264.645782 1.000000,250.291550 1.364612,235.251694 
	C3.452322,223.433502 4.740017,212.210678 7.023920,201.194382 
	C9.202998,190.683670 12.420172,180.388184 15.492844,170.169266 
	C23.947521,197.245850 38.946495,219.509506 60.965683,237.446487 
	C63.664124,248.096878 65.498726,258.655670 69.261925,268.475372 
	C73.558060,279.685730 79.571419,290.237976 84.905464,301.535797 
	C84.954063,350.340515 84.935745,398.685638 84.917427,447.030792 
z"/>
<path fill="#FFFFFF" opacity="1.000000" stroke="none" 
	d="
M513.000000,234.531342 
	C512.336792,230.881470 511.490204,226.782806 511.041626,222.641022 
	C508.969055,203.503983 504.087799,185.018845 497.431641,167.058548 
	C489.660461,146.089508 479.166840,126.484848 466.101349,108.262741 
	C454.112122,91.541725 440.361328,76.480080 424.677429,63.187866 
	C419.420135,58.732296 413.978302,54.494526 408.242920,49.651077 
	C406.191711,44.407188 404.518372,39.669411 402.857483,34.535500 
	C401.434021,25.090420 401.434021,25.090363 392.480774,25.090113 
	C387.845917,25.089983 383.206879,24.970074 378.577637,25.131149 
	C375.346436,25.243580 372.128662,25.740969 368.584229,25.912476 
	C353.287689,20.175682 338.529358,13.873524 323.261688,9.255436 
	C312.560699,6.018653 301.164612,5.079860 290.078949,3.114805 
	C290.078949,3.114805 289.654144,2.971006 289.173248,2.644727 
	C286.493988,2.262386 284.295624,2.206326 282.097260,2.150265 
	C281.187805,1.964807 280.278351,1.779350 279.184448,1.296946 
	C356.927032,1.000000 434.854095,1.000000 513.000000,1.000000 
	C513.000000,78.687424 513.000000,156.375061 513.000000,234.531342 
z"/>
<path fill="#FFFFFF" opacity="1.000000" stroke="none" 
	d="
M15.180999,169.998077 
	C12.420172,180.388184 9.202998,190.683670 7.023920,201.194382 
	C4.740017,212.210678 3.452322,223.433502 1.364612,234.783035 
	C1.000000,157.072800 1.000000,79.145592 1.000000,1.000000 
	C79.020760,1.000000 157.041718,1.000000 235.531342,1.000002 
	C234.878830,1.330949 233.757645,1.661894 231.853607,2.030561 
	C228.979324,2.366961 226.887909,2.665638 224.796509,2.964315 
	C224.796509,2.964314 224.348846,2.971837 223.702393,3.002232 
	C209.339005,5.869962 195.361984,7.814363 181.956055,11.719406 
	C147.743988,21.685125 117.291183,38.897449 90.097733,61.534580 
	C89.961128,49.704121 89.894363,38.337597 89.897446,26.539753 
	C89.967285,23.617592 89.967285,21.126747 89.967285,18.053440 
	C85.593918,20.204283 81.518211,22.107134 77.534088,24.185528 
	C59.109344,33.797112 44.487694,47.685604 32.879967,64.742775 
	C18.484354,85.896667 10.808795,109.389069 11.234762,134.989304 
	C11.429245,146.677536 13.798247,158.329605 15.180999,169.998077 
z"/>
<path fill="#535E8A" opacity="1.000000" stroke="none" 
	d="
M89.827606,26.971069 
	C89.894363,38.337597 89.961128,49.704121 90.018700,61.997215 
	C90.038536,72.250443 90.067558,81.577103 90.096581,90.903770 
	C88.889816,110.173820 96.156799,125.620491 112.293121,136.002838 
	C129.406372,147.013748 147.383804,146.882294 164.560242,135.991943 
	C179.221420,126.696350 186.682007,112.681007 186.909012,95.337677 
	C187.216385,71.854080 186.990494,48.363506 186.993317,24.875925 
	C186.993530,23.102129 186.993332,21.328333 186.993332,18.951559 
	C201.963135,25.038794 214.691055,33.373764 225.752197,44.115818 
	C255.052155,72.570587 268.615784,107.504768 264.569824,147.967285 
	C260.002899,193.639954 236.378036,227.484146 195.736679,249.124832 
	C192.850815,250.661484 191.706589,252.246262 191.716644,255.581055 
	C191.850922,300.056946 191.829468,344.533325 191.929749,389.462830 
	C191.938324,407.339203 191.846634,424.762268 191.793930,442.185486 
	C191.731689,462.765656 191.703140,483.345886 191.575653,504.378448 
	C158.402069,496.245209 128.298355,481.572235 101.137169,459.814270 
	C100.991753,391.579956 100.974167,324.122314 101.070030,256.664795 
	C101.075073,253.112198 100.209480,250.993484 96.836357,249.232300 
	C80.738625,240.827209 66.572784,229.914841 55.330364,215.507736 
	C32.334137,186.038177 23.106018,152.696625 29.141354,115.814003 
	C35.494999,76.986145 56.043102,47.326344 89.827606,26.971069 
z"/>
<path fill="#BFBEBD" opacity="1.000000" stroke="none" 
	d="
M368.904907,26.066414 
	C372.128662,25.740969 375.346436,25.243580 378.577637,25.131149 
	C383.206879,24.970074 387.845917,25.089983 392.480774,25.090113 
	C401.434021,25.090363 401.434021,25.090420 402.403137,34.535324 
	C394.106598,34.934597 386.268250,35.158054 378.450684,34.850853 
	C374.379028,34.690849 372.493561,36.056713 371.461823,40.017078 
	C364.247253,67.710838 356.752289,95.331970 349.652313,123.054512 
	C348.953369,125.783577 349.484314,129.492371 350.847870,131.975830 
	C359.018463,146.857208 367.758148,161.426239 375.922272,176.311020 
	C377.744049,179.632492 378.883636,183.795258 378.893158,187.574326 
	C379.068939,257.375153 379.025269,327.176544 378.562378,397.041168 
	C373.121521,397.068451 368.146210,397.032379 363.170898,396.996307 
	C363.141022,388.332886 363.111115,379.669464 363.020447,370.550446 
	C363.009338,344.937958 363.085205,319.781128 363.102386,294.624207 
	C363.126953,258.635284 363.175781,222.646042 363.002289,186.657959 
	C362.985382,183.151428 362.043457,179.395630 360.575775,176.193298 
	C353.847351,161.512817 346.687683,147.030121 339.939209,132.358505 
	C339.014435,130.347931 338.854431,127.478645 339.478668,125.339035 
	C348.051117,95.956955 356.824890,66.633621 365.539520,37.292973 
	C365.775299,36.499191 365.902496,35.673164 366.347168,34.222183 
	C367.377625,31.076933 368.141266,28.571676 368.904907,26.066414 
z"/>
<path fill="#FCC72F" opacity="1.000000" stroke="none" 
	d="
M90.331886,90.684509 
	C90.067558,81.577103 90.038536,72.250443 90.088547,62.461143 
	C117.291183,38.897449 147.743988,21.685125 181.956055,11.719406 
	C195.361984,7.814363 209.339005,5.869962 223.490601,3.074745 
	C215.616318,5.334859 207.233383,7.310078 199.011978,9.815381 
	C171.984711,18.051403 147.780960,31.339413 126.369446,49.927383 
	C112.586411,61.892853 101.001541,75.629044 90.331886,90.684509 
z"/>
<path fill="#FCC730" opacity="1.000000" stroke="none" 
	d="
M368.584229,25.912479 
	C368.141266,28.571676 367.377625,31.076933 366.365601,33.828457 
	C353.860138,25.045942 340.273224,18.475637 325.962616,13.627788 
	C314.383301,9.705186 302.430054,6.886441 290.360809,3.346430 
	C301.164612,5.079860 312.560699,6.018653 323.261688,9.255436 
	C338.529358,13.873524 353.287689,20.175682 368.584229,25.912479 
z"/>
<path fill="#FCC730" opacity="1.000000" stroke="none" 
	d="
M282.418701,2.366529 
	C284.295624,2.206326 286.493988,2.262386 288.949036,2.640856 
	C287.050568,2.836442 284.895355,2.709617 282.418701,2.366529 
z"/>
<path fill="#FCC72F" opacity="1.000000" stroke="none" 
	d="
M225.217514,2.989805 
	C226.887909,2.665638 228.979324,2.366961 231.485626,2.110282 
	C229.813187,2.439952 227.725845,2.727624 225.217514,2.989805 
z"/>
<path fill="#EDEDEC" opacity="1.000000" stroke="none" 
	d="
M379.027893,396.977814 
	C379.025269,327.176544 379.068939,257.375153 378.893158,187.574326 
	C378.883636,183.795258 377.744049,179.632492 375.922272,176.311020 
	C367.758148,161.426239 359.018463,146.857208 350.847870,131.975830 
	C349.484314,129.492371 348.953369,125.783577 349.652313,123.054512 
	C356.752289,95.331970 364.247253,67.710838 371.461823,40.017078 
	C372.493561,36.056713 374.379028,34.690849 378.450684,34.850853 
	C386.268250,35.158054 394.106598,34.934597 402.390686,34.931454 
	C404.518372,39.669411 406.191711,44.407188 407.920776,49.512596 
	C411.311249,61.319832 414.646027,72.759445 418.078552,84.931892 
	C422.050446,98.747238 426.045044,111.796410 429.684845,124.943817 
	C430.320435,127.239754 430.165161,130.271423 429.181519,132.415756 
	C422.310059,147.395721 415.033173,162.189407 408.122070,177.151733 
	C406.847992,179.910004 406.048981,183.162445 406.040741,186.189560 
	C405.912628,233.161591 405.948517,280.134094 405.962280,327.106476 
	C405.962769,328.765900 406.126740,330.425262 406.214539,332.084656 
	C406.122131,353.403900 406.029724,374.723145 405.480835,396.585083 
	C396.358856,397.077789 387.693359,397.027802 379.027893,396.977814 
z"/>
<path fill="#FFD367" opacity="1.000000" stroke="none" 
	d="
M406.534302,331.998596 
	C406.126740,330.425262 405.962769,328.765900 405.962280,327.106476 
	C405.948517,280.134094 405.912628,233.161591 406.040741,186.189560 
	C406.048981,183.162445 406.847992,179.910004 408.122070,177.151733 
	C415.033173,162.189407 422.310059,147.395721 429.181519,132.415756 
	C430.165161,130.271423 430.320435,127.239754 429.684845,124.943817 
	C426.045044,111.796410 422.050446,98.747238 418.217529,85.280815 
	C419.632965,86.255447 421.283661,87.428154 422.340118,89.000214 
	C440.277283,115.691246 451.353943,144.934753 455.115112,176.940689 
	C461.619995,232.294601 446.604126,281.504364 412.945648,325.419403 
	C411.149231,327.763245 408.895142,329.756226 406.534302,331.998596 
z"/>
<path fill="#FF506F" opacity="1.000000" stroke="none" 
	d="
M378.562378,397.041168 
	C387.693359,397.027802 396.358856,397.077789 405.484131,397.052277 
	C415.870331,397.032227 425.796722,397.106262 435.723206,397.138824 
	C451.060791,397.189148 457.591553,405.461884 453.927277,420.585358 
	C453.980835,421.002167 453.993805,420.961426 453.748077,420.976135 
	C453.292297,421.272125 453.082245,421.553375 452.872162,421.834595 
	C452.161835,422.772766 451.451477,423.710968 450.120789,424.927734 
	C442.996613,426.873535 436.492859,428.540710 430.343506,430.117035 
	C432.900879,432.211426 435.941223,434.701324 438.981598,437.191223 
	C425.357910,451.959778 409.503937,463.812012 392.465820,474.436066 
	C378.206604,483.327332 363.338867,490.703857 347.418335,496.499481 
	C347.014374,488.072815 346.788910,480.072205 347.053558,472.087830 
	C347.434540,460.594879 351.056763,450.175476 358.954712,441.634430 
	C362.930420,437.335052 367.433594,433.523438 372.252136,428.967560 
	C369.513519,428.967560 367.099915,429.103973 364.706665,428.941284 
	C358.189484,428.498199 352.727264,426.053040 349.527161,420.020721 
	C344.872772,411.246948 349.100525,402.047028 359.851807,397.290344 
	C360.681213,397.220520 361.510651,397.150665 362.755493,397.038574 
	C368.146210,397.032379 373.121521,397.068451 378.562378,397.041168 
z"/>
<path fill="#E43A58" opacity="1.000000" stroke="none" 
	d="
M359.401062,397.211975 
	C349.100525,402.047028 344.872772,411.246948 349.527161,420.020721 
	C352.727264,426.053040 358.189484,428.498199 364.706665,428.941284 
	C367.099915,429.103973 369.513519,428.967560 372.252136,428.967560 
	C367.433594,433.523438 362.930420,437.335052 358.954712,441.634430 
	C351.056763,450.175476 347.434540,460.594879 347.053558,472.087830 
	C346.788910,480.072205 347.014374,488.072815 347.046021,496.531952 
	C336.358826,500.301697 325.646423,503.605682 314.546631,506.861938 
	C314.335266,493.368225 313.558044,479.823700 314.934906,466.501801 
	C316.560669,450.771545 325.327301,438.788239 338.895569,430.486694 
	C339.261078,430.263031 339.512543,429.853058 340.398773,428.913208 
	C336.471069,428.913208 333.210388,429.060272 329.967102,428.885193 
	C320.792114,428.389893 314.027374,421.545593 314.045776,412.935089 
	C314.064636,404.112183 321.098846,397.216400 330.519867,397.093384 
	C339.994904,396.969666 349.473328,397.109344 359.401062,397.211975 
z"/>
<path fill="#FCC231" opacity="1.000000" stroke="none" 
	d="
M439.287689,437.030975 
	C435.941223,434.701324 432.900879,432.211426 430.343506,430.117035 
	C436.492859,428.540710 442.996613,426.873535 449.861572,425.082581 
	C446.679749,428.929413 443.136780,432.900085 439.287689,437.030975 
z"/>
<path fill="#FCC72E" opacity="1.000000" stroke="none" 
	d="
M453.153961,421.850403 
	C453.082245,421.553375 453.292297,421.272125 453.768738,420.983582 
	C453.835297,421.272919 453.635529,421.569580 453.153961,421.850403 
z"/>
<path fill="#333C5C" opacity="1.000000" stroke="none" 
	d="
M89.897446,26.539753 
	C56.043102,47.326344 35.494999,76.986145 29.141354,115.814003 
	C23.106018,152.696625 32.334137,186.038177 55.330364,215.507736 
	C66.572784,229.914841 80.738625,240.827209 96.836357,249.232300 
	C100.209480,250.993484 101.075073,253.112198 101.070030,256.664795 
	C100.974167,324.122314 100.991753,391.579956 100.996910,459.504333 
	C95.764641,455.849579 90.521225,451.728088 85.097618,447.318665 
	C84.935745,398.685638 84.954063,350.340515 84.973381,301.061890 
	C84.984085,285.030548 85.065834,269.931824 84.896027,254.835953 
	C84.878349,253.265076 83.772461,251.090103 82.484169,250.252319 
	C75.425819,245.662201 68.152954,241.401947 60.953770,237.028381 
	C38.946495,219.509506 23.947521,197.245850 15.492843,170.169266 
	C13.798247,158.329605 11.429245,146.677536 11.234762,134.989304 
	C10.808795,109.389069 18.484354,85.896667 32.879967,64.742775 
	C44.487694,47.685604 59.109344,33.797112 77.534088,24.185528 
	C81.518211,22.107134 85.593918,20.204283 89.967285,18.053440 
	C89.967285,21.126747 89.967285,23.617592 89.897446,26.539753 
z"/>
<path fill="#FED267" opacity="1.000000" stroke="none" 
	d="
M60.965683,237.446472 
	C68.152954,241.401947 75.425819,245.662201 82.484169,250.252319 
	C83.772461,251.090103 84.878349,253.265076 84.896027,254.835953 
	C85.065834,269.931824 84.984085,285.030548 84.906464,300.602356 
	C79.571419,290.237976 73.558060,279.685730 69.261925,268.475372 
	C65.498726,258.655670 63.664124,248.096878 60.965683,237.446472 
z"/>
</svg>