<svg width="512" height="512" xmlns="http://www.w3.org/2000/svg" xml:space="preserve" enable-background="new 0 0 512 512" version="1.1">

 <g>
  <title>Layer 1</title>
  <path id="svg_1" d="m513,225c0,21.02089 0,42.04178 -0.39496,63.32489c-0.78732,0.9411 -1.41278,1.58026 -1.53644,2.30502c-1.39612,8.1828 -2.30142,16.47251 -4.13186,24.55378c-5.70722,25.19674 -15.04666,49.07159 -28.16758,71.30648c-14.80508,25.0889 -33.45751,47.03296 -55.65005,66.00412c-14.32306,12.24396 -29.73938,22.81916 -46.39114,31.53034c-27.02112,14.1358 -55.50467,23.79596 -85.98142,27.07507c-0.64288,0.06918 -1.16705,1.24222 -1.74655,1.9003c-21.02091,0 -42.04179,0 -63.20344,-0.2467c-0.70983,-0.80829 -1.27891,-1.36985 -2.03524,-2.19239c-16.08813,-16.22097 -32.01402,-32.15622 -47.85058,-48.17972c-1.5555,-1.57382 -2.56249,-3.68978 -3.4303,-5.51901c4.75999,0.76035 9.12619,1.48566 13.93016,2.27954c19.17752,-0.93643 32.48773,-14.90692 32.53668,-33.82446c0.06935,-26.79559 0.04419,-53.59149 0.01047,-80.38721c-0.01592,-12.6438 -0.14571,-25.28747 -0.16588,-38.14416c0.05803,-0.21298 0.10216,-0.6517 0.13806,-1.12763c0.00733,-16.97088 -0.02124,-33.46585 0.1987,-50.21067c18.39238,-6.4673 31.37818,-18.37142 39.23276,-35.82828c3.94357,-8.76465 5.55697,-18.04088 5.56717,-27.63115c0.04172,-39.32753 0.10812,-78.65501 0.44662,-117.81207c6.10642,5.59935 11.93668,11.0228 17.75553,16.45848c8.35989,7.80942 16.71148,15.62777 25.01474,23.81672c-4.78797,11.93484 -6.54941,23.95319 -6.39554,36.43692c0.2604,21.12902 0.03979,42.26368 0.1058,63.39568c0.01035,3.30891 0.09189,6.69641 0.77963,9.91081c3.01841,14.10796 12.17017,22.81005 25.23063,28.35352c0.0289,18.23508 0.07321,36.00674 0.08078,54.22543c-0.04889,40.34906 -0.19986,80.25174 -0.01114,120.15277c0.08645,18.28037 14.81747,32.26889 33.4967,32.19803c19.26129,-0.8194 32.54032,-14.7052 32.56445,-33.54098c0.01535,-11.96506 0.02219,-23.93024 -0.0003,-35.8953c-0.05191,-27.58246 -0.12402,-55.16489 -0.1485,-82.97442c0.03949,-0.22715 -0.00299,-0.6875 0.0376,-1.15622c0.01279,-17.63529 -0.01508,-34.80188 0.00867,-52.40876c0.06961,-8.09295 0.09897,-15.74557 0.10394,-23.39821c0.03515,-54.23562 0.06528,-108.47124 0.37073,-162.53048c1.7203,1.54814 3.19928,2.88751 4.60879,4.29642c31.52026,31.50712 63.02039,63.03439 94.58368,94.49832c1.57669,1.57179 3.68832,2.60696 5.51999,3.90489c-0.03085,0.01289 -0.02545,-0.05361 -0.00641,0.23547c0.26813,0.80072 0.51721,1.31235 0.93726,2.16695c6.14062,16.57425 10.25744,33.23996 12.08008,50.46303c0.08435,0.79666 1.24719,1.47917 1.90771,2.21484z" fill="#EA7B0C"/>
  <path id="svg_2" d="m307.19733,114.07688c-8.35514,-7.81454 -16.70673,-15.63289 -25.06662,-23.44231c-5.81885,-5.43568 -11.64911,-10.85913 -18.01249,-16.81456c-11.24711,-0.52653 -21.956,-0.52653 -33.21365,-0.52653c0,9.81577 0,19.27306 -0.2698,28.54233c-9.73369,-9.40245 -19.19759,-18.61688 -28.9505,-28.14498c-5.42838,-0.41383 -10.56775,-0.51399 -16.16843,-0.67897c-5.38425,-0.06483 -10.30718,-0.06483 -15.75005,-0.06483c0,9.46894 0,18.26269 -0.26603,26.87563c-10.03663,-9.04943 -19.80719,-17.91803 -30.04065,-26.81778c-10.7257,-0.03114 -20.9885,-0.03114 -31.41854,-0.03114c-0.1145,1.88813 -0.26196,3.18862 -0.26227,4.48915c-0.00926,38.78576 -0.02015,77.57153 0.02797,116.35724c0.00412,3.31737 0.16629,6.67343 0.67985,9.94482c2.8288,18.01937 12.22402,32.03499 26.73037,43.18778c0.40737,0.49542 0.6407,0.77649 0.7867,1.02139c-0.08733,-0.03616 -0.01651,-0.21144 0.21901,-0.00027c0.80954,0.46089 1.38357,0.71061 1.90158,0.95379c-0.05602,-0.00653 -0.03983,-0.11815 -0.0072,0.2358c4.78543,5.13875 9.53821,9.92357 14.39074,15.17414c0.18859,14.30033 0.27745,28.13483 0.30686,42.41578c-0.10404,38.7453 0.09297,77.04678 -0.31575,115.34179c-0.1566,14.67405 5.09305,25.81729 17.69375,33.844c0.74923,0.51321 1.3167,0.76346 1.86069,0.98013c-0.02347,-0.0336 0.0338,-0.09219 0.0338,-0.09219c1.26158,1.86432 2.26857,3.98028 3.82407,5.5541c15.83656,16.0235 31.76245,31.95875 47.41819,48.25199c-8.26358,-0.98871 -16.36653,-1.9324 -24.28518,-3.7012c-27.44538,-6.13038 -53.16318,-16.73972 -77.02841,-31.53589c-22.90345,-14.19986 -42.92452,-31.8447 -60.52291,-52.31207c-12.06763,-14.03495 -22.55417,-29.16251 -31.11721,-45.4636c-14.29081,-27.20489 -24.15718,-55.95404 -27.45952,-86.71975c-0.07451,-0.6941 -1.25247,-1.26975 -1.9157,-1.90067c0,-21.35422 0,-42.70845 0.33209,-64.19266c0.76365,-0.80143 1.45622,-1.42595 1.5867,-2.15153c1.41072,-7.84531 2.41091,-15.77811 4.13874,-23.55017c5.63671,-25.35482 15.07436,-49.31922 28.2415,-71.65941c14.77932,-25.07552 33.46044,-46.9711 55.61292,-65.95647c14.05016,-12.04143 29.16379,-22.52611 45.45008,-31.10982c27.19949,-14.33554 55.9933,-24.06767 86.73488,-27.46392c0.69643,-0.07694 1.27144,-1.25277 1.90309,-1.91602c21.02089,0 42.04178,0 63.19467,0.33973c5.65665,1.44411 11.1651,2.63827 16.7088,3.63695c21.34973,3.8461 41.80133,10.53207 61.38138,19.77999c21.17493,10.0012 40.69,22.56466 58.25482,38.17624c13.11115,11.65313 25.71121,23.76732 35.89063,38.09558c7.8078,10.99 15.819,21.96405 22.27838,33.74635c6.12308,11.16872 10.34537,23.37949 15.40356,35.13199c-1.86255,-1.28505 -3.97418,-2.32022 -5.55087,-3.89201c-31.56329,-31.46393 -63.06342,-62.9912 -94.58368,-94.49832c-1.40951,-1.40891 -2.88849,-2.74828 -4.957,-4.52509c-11.46304,0.53977 -22.30414,1.48458 -33.53107,2.52781c-5.46182,2.08461 -10.72192,3.70164 -15.58053,6.1239c-16.80646,8.37886 -28.41562,21.85622 -36.71176,38.43376z" fill="#FD9827"/>
  <path id="svg_7" d="m185.97714,73.07669c5.13938,0.10015 10.27875,0.20031 15.61649,1.0743c0.18117,6.0997 0.14827,11.42556 0.14949,16.75143c0.00508,22.1367 -0.08281,44.27418 0.08615,66.40968c0.06183,8.10124 6.37485,14.16904 14.27441,14.42151c7.61241,0.24332 14.82546,-6.09074 14.8906,-13.79899c0.15753,-18.63535 -0.03707,-37.27368 -0.08971,-55.91081c0,-9.45727 0,-18.91456 0,-28.73033c11.25765,0 21.96654,0 32.9324,0.35608c0.19971,39.68359 0.13331,79.01107 0.09159,118.3386c-0.0102,9.59027 -1.6236,18.8665 -5.56717,27.63115c-7.85458,17.45686 -20.84038,29.36098 -39.63666,35.88988c-11.32513,1.27514 -21.99783,2.23886 -32.66725,3.01205c0.00328,-0.19049 -0.10652,-0.55554 -0.10002,-1.022c0.01089,-61.78516 0.01529,-123.10385 0.01968,-184.42255z" fill="#D2EAFD"/>
  <path id="svg_8" d="m307.14545,114.45129c8.34802,-16.95195 19.95718,-30.42931 36.76364,-38.80817c4.85861,-2.42226 10.11871,-4.03929 15.60437,-5.61577c0.42862,61.25344 0.44763,122.09716 0.00427,183.00628c-11.18701,-0.27267 -21.91168,-0.61076 -32.63635,-0.94885c-13.07587,-5.08003 -22.22763,-13.78212 -25.24604,-27.89008c-0.68774,-3.2144 -0.76928,-6.6019 -0.77963,-9.91081c-0.06601,-21.132 0.1546,-42.26666 -0.1058,-63.39568c-0.15387,-12.48373 1.60757,-24.50208 6.39554,-36.43692z" fill="#EEF9FF"/>
  <path id="svg_9" d="m359.98007,252.96823c-0.01898,-60.84372 -0.03799,-121.68744 -0.08081,-183.0393c10.81729,-1.45294 21.65839,-2.39775 32.84772,-3.1139c0.31647,54.46429 0.28634,108.69991 0.25119,162.93553c-0.00497,7.65264 -0.03433,15.30526 -0.56384,23.40563c-11.13217,0.49382 -21.75287,0.53989 -32.36255,0.38922c0.01105,-0.19672 -0.09171,-0.57718 -0.09171,-0.57718z" fill="#D2EBFF"/>
  <path id="svg_10" d="m170.01044,455.67621c-12.41896,-7.76377 -17.66861,-18.90701 -17.51201,-33.58106c0.40872,-38.29501 0.21171,-76.59649 0.7982,-115.36389c11.2014,-0.59353 21.86084,-0.71859 32.5771,-0.73602c0.05681,0.10763 0.17079,0.32269 0.16078,0.77136c-0.02723,51.06793 -0.04446,101.68726 -0.06169,152.30655c-4.36619,-0.72531 -8.73239,-1.45062 -13.49237,-2.21097c-0.39378,-0.03509 -0.45105,0.0235 -0.5868,-0.21713c-0.71825,-0.48337 -1.30072,-0.7261 -1.88321,-0.96884z" fill="#605553"/>
  <path id="svg_11" d="m359.99756,459.04495c-18.24448,0.15036 -32.9755,-13.83816 -33.06195,-32.11853c-0.18872,-39.90103 -0.03775,-79.80371 0.48114,-120.1821c11.19913,-0.46682 21.89154,-0.45724 32.59112,0.00232c0.00138,51.06613 -0.00448,101.68222 -0.01031,152.29831z" fill="#605553"/>
  <path id="svg_12" d="m360.43231,459.12445c-0.42892,-50.69559 -0.42306,-101.31168 -0.43158,-152.46472c-0.01437,-0.53693 -0.00809,-0.71127 0.45807,-0.66061c10.83447,0.11013 21.20282,0.16961 31.68167,0.36788c0.27625,0.3096 0.4621,0.45462 0.66806,0.57386c0.06391,27.58242 0.13602,55.16485 0.18793,82.74731c0.02249,11.96506 0.01565,23.93024 0.0003,35.8953c-0.02413,18.83578 -13.30316,32.72158 -32.56445,33.54098z" fill="#4C403F"/>
  <path id="svg_13" d="m186.4106,459.14172c-0.42055,-50.68786 -0.40332,-101.30719 0.07811,-152.46664c10.81607,-0.49097 21.16794,-0.44174 31.61288,-0.24716c0.24401,0.32364 0.42374,0.46551 0.63225,0.57092c0.0782,12.64374 0.20799,25.28741 0.22391,37.93121c0.03372,26.79572 0.05888,53.59162 -0.01047,80.38721c-0.04895,18.91754 -13.35916,32.88803 -32.53668,33.82446z" fill="#4C403F"/>
  <path id="svg_14" d="m359.99353,306.20972c-10.68524,0.07736 -21.37765,0.06778 -32.54004,0.08752c-0.51431,-17.74228 -0.55862,-35.51394 -0.58752,-53.74902c10.74008,-0.12535 21.46475,0.21274 32.65176,0.48541c0.46234,-0.0654 0.5651,0.31506 0.51975,0.99777c-0.0452,17.76084 -0.04502,34.83893 -0.04484,51.91706c0,0 -0.00628,0.17434 0.00089,0.26126z" fill="#FEE781"/>
  <path id="svg_15" d="m360.4588,305.99912c-0.46634,-17.12879 -0.46652,-34.20688 -0.43237,-51.771c10.65503,-0.53204 21.27573,-0.57811 32.35632,-0.63161c0.48773,17.15914 0.5156,34.32573 0.2927,51.98381c-0.25074,0.49149 -0.64551,0.64789 -0.64551,0.64789c-10.36832,-0.05948 -20.73667,-0.11896 -31.57114,-0.22909z" fill="#FBBE2C"/>
  <path id="svg_16" d="m218.00851,306.28256c-10.35186,-0.04922 -20.70373,-0.09845 -31.50979,-0.05612c-0.4542,0.09149 -0.56818,-0.12357 -0.60544,-0.69427c0.02878,-15.98728 0.09485,-31.40381 0.16092,-46.82038c10.6727,-0.96374 21.3454,-1.92746 32.422,-2.95276c0.43249,16.43338 0.46106,32.92835 0.22799,49.90796c-0.26161,0.48459 -0.69568,0.61557 -0.69568,0.61557z" fill="#FBBE2D"/>
  <path id="svg_17" d="m498.07495,170.1552c0.28537,0.20613 0.58981,0.70134 0.83026,1.51025c-0.31305,-0.19792 -0.56213,-0.70955 -0.83026,-1.51025z" fill="#FD9827"/>
  <path id="svg_18" d="m218.10159,306.42792c-0.09308,-0.14536 0.34099,-0.27634 0.56671,-0.28504c0.22573,-0.00869 0.1816,0.43003 0.12357,0.64301c-0.26654,0.10754 -0.44627,-0.03433 -0.69028,-0.35797z" fill="#605553"/>
  <path id="svg_19" d="m392.14047,306.367c-0.11053,-0.13879 0.28424,-0.29519 0.49436,-0.31799c0.21014,-0.02276 0.25262,0.43759 0.21316,0.66474c-0.24542,0.10787 -0.43127,-0.03715 -0.70752,-0.34675z" fill="#605553"/>
  <path id="svg_20" d="m185.51584,73.01186c0.45691,61.38353 0.45251,122.70222 -0.01734,184.5532c-11.16915,-0.2142 -21.87283,-0.96072 -32.82069,-1.93512c-5.02739,-2.4254 -9.81062,-4.62292 -14.59386,-6.82045c0,0 -0.01619,0.11162 -0.14111,-0.1582c-0.73532,-0.47609 -1.34575,-0.68234 -1.95616,-0.88861c0,0 -0.07082,0.17528 0.02078,-0.10274c-0.2606,-0.49254 -0.61281,-0.70704 -0.96501,-0.92154c-14.33231,-10.93846 -23.72753,-24.95408 -26.55633,-42.97345c-0.51356,-3.27139 -0.67573,-6.62745 -0.67985,-9.94482c-0.04812,-38.78571 -0.03723,-77.57148 -0.02797,-116.35724c0.00031,-1.30053 0.14777,-2.60102 0.26227,-4.48915c10.43004,0 20.69284,0 31.43328,0.49638c0.47802,27.96382 0.43109,55.43135 0.50613,82.89858c0.02415,8.84187 6.57146,15.49229 14.9021,15.51388c8.03394,0.02083 14.9269,-6.51933 14.99085,-14.95974c0.14373,-18.97178 -0.05048,-37.94608 -0.10714,-56.91935c0,-8.79377 0,-17.58752 0,-27.05646c5.44287,0 10.3658,0 15.75005,0.06483z" fill="#EEF9FE"/>
  <path id="svg_21" d="m169.49976,99.82266c0.32269,19.1541 0.5169,38.1284 0.37317,57.10018c-0.06395,8.44041 -6.95691,14.98057 -14.99085,14.95974c-8.33064,-0.02159 -14.87795,-6.67201 -14.9021,-15.51388c-0.07504,-27.46723 -0.02811,-54.93476 -0.04324,-82.86743c9.75583,8.40336 19.52639,17.27196 29.56302,26.32139z" fill="#EA7C0D"/>
  <path id="svg_22" d="m230.63477,101.83581c0.32244,18.82513 0.51704,37.46346 0.35951,56.09881c-0.06514,7.70825 -7.27819,14.04231 -14.8906,13.79899c-7.89956,-0.25247 -14.21258,-6.32027 -14.27441,-14.42151c-0.16896,-22.1355 -0.08107,-44.27298 -0.08615,-66.40968c-0.00122,-5.32587 0.03168,-10.65173 0.13951,-16.43776c9.55455,8.75427 19.01845,17.9687 28.75214,27.37115z" fill="#EA7B0D"/>
  <path id="svg_23" d="m152.92198,255.8578c10.70369,0.74654 21.40737,1.49306 32.57002,2.17376c0.45896,-0.06586 0.56876,0.29919 0.56548,0.48971c-0.06935,15.60709 -0.13542,31.02362 -0.22102,46.90326c-10.67899,0.58814 -21.33843,0.7132 -32.48035,0.86032c-0.57134,-13.81244 -0.6602,-27.64694 -0.76892,-42.37976c0.09834,-3.28128 0.21657,-5.66428 0.33479,-8.04729z" fill="#FFE780"/>
  <path id="svg_24" d="m152.67781,255.62994c0.12595,2.61087 0.00772,4.99387 -0.19035,7.80936c-4.83267,-4.35229 -9.58545,-9.13711 -14.37088,-14.27586c4.75061,1.84358 9.53384,4.0411 14.56123,6.4665z" fill="#EA7E12"/>
  <path id="svg_25" d="m136.2222,247.97385c0.37489,-0.0049 0.98532,0.20135 1.77667,0.68399c-0.3931,0.02662 -0.96713,-0.2231 -1.77667,-0.68399z" fill="#EA7E12"/>
  <path id="svg_26" d="m170.19218,455.93915c0.40075,-0.0202 0.98322,0.22253 1.72493,0.7395c-0.40823,0.02396 -0.9757,-0.22629 -1.72493,-0.7395z" fill="#EA7B0C"/>
  <path id="svg_27" d="m135.21649,246.95273c0.17816,0.00017 0.53037,0.21467 0.8783,0.74338c-0.2376,0.03311 -0.47093,-0.24796 -0.8783,-0.74338z" fill="#EA7E12"/>
 </g>
</svg>