<svg version="1.1" id="Layer_1" xmlns="http://www.w3.org/2000/svg" xmlns:xlink="http://www.w3.org/1999/xlink" x="0px" y="0px"
	 width="100%" viewBox="0 0 512 512" enable-background="new 0 0 512 512" xml:space="preserve">
<path fill="#FFD900" opacity="1.000000" stroke="none" 
	d="
M1.000001,279.000000 
	C1.000000,264.645782 1.000000,250.291550 1.377716,235.268616 
	C2.820512,226.653763 3.802523,218.695450 4.966313,210.763794 
	C8.403183,187.340317 16.197300,165.272537 26.510588,144.104553 
	C36.144371,124.331276 48.198757,106.128471 62.804096,89.564240 
	C76.835564,73.650841 92.171860,59.288601 109.474785,47.006557 
	C127.404892,34.279331 146.703003,24.054628 167.274948,16.457634 
	C185.175064,9.847317 203.604370,4.978141 222.685394,2.959854 
	C226.813187,2.523240 230.896301,1.664376 235.000000,1.000001 
	C249.354233,1.000000 263.708466,1.000000 278.731384,1.377717 
	C287.346313,2.820524 295.304779,3.802518 303.236511,4.966348 
	C326.659943,8.403293 348.727692,16.197388 369.895630,26.510725 
	C389.668884,36.144562 407.871674,48.198891 424.435913,62.804192 
	C440.349304,76.835632 454.711456,92.171959 466.993500,109.474854 
	C479.720703,127.404945 489.945374,146.703079 497.542358,167.275009 
	C504.152649,185.175095 509.021881,203.604355 511.040100,222.685379 
	C511.476715,226.813156 512.335632,230.896301 513.000000,235.000000 
	C513.000000,240.022095 513.000000,245.044189 512.705811,250.377747 
	C488.540253,226.898544 464.672913,203.103760 440.787811,179.326813 
	C439.265289,177.811188 437.604950,176.434021 435.866943,174.688736 
	C414.853607,157.211029 393.982117,140.037018 373.004395,122.592102 
	C372.255005,121.945580 371.611877,121.569962 370.610840,121.054321 
	C368.672852,120.425774 367.106262,119.887436 365.510742,119.456352 
	C346.347382,114.278625 327.179688,109.116791 307.785461,103.652344 
	C303.479767,102.294945 299.401825,101.236015 294.832764,100.103477 
	C269.150848,100.086739 243.960022,100.143608 218.405914,100.219833 
	C214.102600,101.486931 210.162552,102.734665 205.820282,103.994835 
	C195.683014,106.677299 185.926910,109.273293 176.218430,112.036591 
	C164.796967,115.287437 153.416824,118.683395 141.741928,121.996307 
	C141.249252,122.255852 141.033417,122.535530 140.524384,122.975708 
	C119.505226,140.265884 98.779243,157.395554 78.020126,174.552597 
	C81.150925,181.544540 84.097031,188.213440 87.115929,194.849228 
	C96.036552,214.457489 104.985954,234.052673 114.023758,253.943542 
	C123.443581,263.490845 132.763748,272.747559 142.195343,282.461304 
	C142.331696,326.197876 142.349396,369.477478 142.407471,412.757019 
	C142.409836,414.528137 142.791748,416.298767 143.161194,418.355042 
	C144.698822,420.081848 146.042557,421.552826 147.449692,422.960388 
	C175.744202,451.262939 204.057159,479.547058 232.314560,507.886597 
	C233.779251,509.355530 234.782135,511.284943 236.000000,513.000000 
	C236.000000,513.000000 235.500000,513.000000 235.050476,512.621948 
	C226.654770,511.179077 218.696381,510.197449 210.764709,509.033752 
	C187.341080,505.597260 165.273300,497.802856 144.105209,487.489746 
	C124.331787,477.856079 106.128899,465.801758 89.564636,451.196289 
	C73.651215,437.164764 59.288830,421.828522 47.006813,404.525482 
	C34.279621,386.595306 24.054487,367.297363 16.457676,346.725220 
	C9.847535,328.824982 4.978136,310.395721 2.959854,291.314606 
	C2.523241,287.186829 1.664375,283.103699 1.000001,279.000000 
z"/>
<path fill="#FFBA35" opacity="1.000000" stroke="none" 
	d="
M436.008759,174.992432 
	C437.604950,176.434021 439.265289,177.811188 440.787811,179.326813 
	C464.672913,203.103760 488.540253,226.898544 512.705811,250.844604 
	C513.000000,260.020905 513.000000,269.041779 512.637390,278.751648 
	C511.209534,287.394501 510.242157,295.362946 509.060608,303.299530 
	C505.588593,326.621399 497.904419,348.643097 487.627014,369.732788 
	C477.963196,389.563354 465.902191,407.850006 451.224518,424.447205 
	C437.268951,440.227905 422.071411,454.513123 404.893799,466.743042 
	C386.901886,479.552765 367.558838,489.835205 346.914001,497.488861 
	C328.969879,504.141296 310.490540,509.008087 291.364532,511.063446 
	C287.221497,511.508698 283.120422,512.344238 279.000000,513.000000 
	C264.979095,513.000000 250.958206,513.000000 236.468658,513.000000 
	C234.782135,511.284943 233.779251,509.355530 232.314560,507.886597 
	C204.057159,479.547058 175.744202,451.262939 147.449692,422.960388 
	C146.042557,421.552826 144.698822,420.081848 143.628708,418.323853 
	C147.748642,418.004944 151.565430,418.005829 155.382202,417.999725 
	C189.231705,417.945801 223.081223,417.890594 257.401611,417.907196 
	C295.573914,417.928467 333.275299,417.878296 371.373840,417.669861 
	C371.842407,415.523163 371.974976,413.534790 371.976410,411.546356 
	C372.019165,352.367737 372.048889,293.189117 372.411926,234.078979 
	C381.766449,240.614471 390.789734,247.081482 400.169647,253.804077 
	C401.246033,251.575485 402.128357,249.844223 402.929230,248.076096 
	C413.962341,223.717865 424.984161,199.354523 436.008759,174.992432 
z"/>
<path fill="#FFFFFF" opacity="1.000000" stroke="none" 
	d="
M234.531342,1.000001 
	C230.896301,1.664376 226.813187,2.523240 222.685394,2.959854 
	C203.604370,4.978141 185.175064,9.847317 167.274948,16.457634 
	C146.703003,24.054628 127.404892,34.279331 109.474785,47.006557 
	C92.171860,59.288601 76.835564,73.650841 62.804096,89.564240 
	C48.198757,106.128471 36.144371,124.331276 26.510588,144.104553 
	C16.197300,165.272537 8.403183,187.340317 4.966313,210.763794 
	C3.802523,218.695450 2.820512,226.653763 1.377716,234.799957 
	C1.000000,157.072952 1.000000,79.145912 1.000000,1.000000 
	C78.687424,1.000000 156.375061,1.000000 234.531342,1.000001 
z"/>
<path fill="#FFFFFF" opacity="1.000000" stroke="none" 
	d="
M279.468658,513.000000 
	C283.120422,512.344238 287.221497,511.508698 291.364532,511.063446 
	C310.490540,509.008087 328.969879,504.141296 346.914001,497.488861 
	C367.558838,489.835205 386.901886,479.552765 404.893799,466.743042 
	C422.071411,454.513123 437.268951,440.227905 451.224518,424.447205 
	C465.902191,407.850006 477.963196,389.563354 487.627014,369.732788 
	C497.904419,348.643097 505.588593,326.621399 509.060608,303.299530 
	C510.242157,295.362946 511.209534,287.394501 512.637390,279.220306 
	C513.000000,356.927032 513.000000,434.854095 513.000000,513.000000 
	C435.312561,513.000000 357.624939,513.000000 279.468658,513.000000 
z"/>
<path fill="#FFFFFF" opacity="1.000000" stroke="none" 
	d="
M1.000001,279.468658 
	C1.664375,283.103699 2.523241,287.186829 2.959854,291.314606 
	C4.978136,310.395721 9.847535,328.824982 16.457676,346.725220 
	C24.054487,367.297363 34.279621,386.595306 47.006813,404.525482 
	C59.288830,421.828522 73.651215,437.164764 89.564636,451.196289 
	C106.128899,465.801758 124.331787,477.856079 144.105209,487.489746 
	C165.273300,497.802856 187.341080,505.597260 210.764709,509.033752 
	C218.696381,510.197449 226.654770,511.179077 234.800476,512.621948 
	C157.072968,513.000000 79.145927,513.000000 1.000000,513.000000 
	C1.000000,435.312561 1.000000,357.624939 1.000001,279.468658 
z"/>
<path fill="#FFFFFF" opacity="1.000000" stroke="none" 
	d="
M513.000000,234.531342 
	C512.335632,230.896301 511.476715,226.813156 511.040100,222.685379 
	C509.021881,203.604355 504.152649,185.175095 497.542358,167.275009 
	C489.945374,146.703079 479.720703,127.404945 466.993500,109.474854 
	C454.711456,92.171959 440.349304,76.835632 424.435913,62.804192 
	C407.871674,48.198891 389.668884,36.144562 369.895630,26.510725 
	C348.727692,16.197388 326.659943,8.403293 303.236511,4.966348 
	C295.304779,3.802518 287.346313,2.820524 279.200043,1.377717 
	C356.927032,1.000000 434.854095,1.000000 513.000000,1.000000 
	C513.000000,78.687424 513.000000,156.375061 513.000000,234.531342 
z"/>
<path fill="#2663F0" opacity="1.000000" stroke="none" 
	d="
M256.930725,417.835754 
	C223.081223,417.890594 189.231705,417.945801 155.382202,417.999725 
	C151.565430,418.005829 147.748642,418.004944 143.464355,418.038452 
	C142.791748,416.298767 142.409836,414.528137 142.407471,412.757019 
	C142.349396,369.477478 142.331696,326.197876 142.317902,282.005371 
	C142.245499,265.287903 142.161972,249.483353 142.083221,233.628967 
	C142.088028,233.579163 141.996033,233.539734 142.234375,233.152039 
	C142.591507,231.946030 142.813385,231.127808 142.814285,230.309357 
	C142.852371,195.771255 142.880142,161.233124 142.853653,126.695038 
	C142.852692,125.445831 142.293655,124.197052 141.989487,122.978882 
	C141.984268,123.009682 142.046722,123.011497 142.068893,122.761917 
	C142.066956,122.347031 142.042847,122.181732 142.018753,122.016434 
	C153.416824,118.683395 164.796967,115.287437 176.218430,112.036591 
	C185.926910,109.273293 195.683014,106.677299 205.818192,104.465698 
	C206.222458,111.910675 206.094681,118.900238 206.253723,125.883263 
	C206.904800,154.469589 230.040024,177.594971 257.018005,176.836868 
	C257.008453,176.942184 256.966217,177.149429 256.960907,177.608704 
	C256.947296,257.990570 256.938995,337.913147 256.930725,417.835754 
z"/>
<path fill="#0051BD" opacity="1.000000" stroke="none" 
	d="
M257.401611,417.907196 
	C256.938995,337.913147 256.947296,257.990570 257.403442,177.556046 
	C282.626221,176.416077 303.854645,158.089935 306.924652,133.794418 
	C308.167633,123.957764 307.701538,113.905144 308.013153,103.950806 
	C327.179688,109.116791 346.347382,114.278625 365.510742,119.456352 
	C367.106262,119.887436 368.672852,120.425774 370.615662,121.510513 
	C371.008972,158.747696 371.039490,195.388672 371.078735,232.315491 
	C371.094940,232.982544 371.102417,233.363770 371.075317,234.238815 
	C371.019409,295.764496 370.998047,356.796326 370.976715,417.828156 
	C333.275299,417.878296 295.573914,417.928467 257.401611,417.907196 
M322.045746,199.059586 
	C313.148163,199.059586 304.250610,199.059586 295.109589,199.059586 
	C295.109589,212.044647 295.042542,224.182449 295.200195,236.317337 
	C295.218506,237.727097 296.119171,239.587769 297.225922,240.447159 
	C305.365906,246.767899 313.662476,252.887024 322.303162,259.586700 
	C322.777191,259.578766 323.397552,259.765228 323.703949,259.534637 
	C332.210999,253.131577 340.707520,246.713806 349.132843,240.204102 
	C349.951263,239.571777 350.780792,238.332214 350.789246,237.367386 
	C350.899475,224.766800 350.862457,212.164917 350.862457,199.180740 
	C341.183807,199.180740 332.078217,199.180740 322.045746,199.059586 
z"/>
<path fill="#2763EF" opacity="1.000000" stroke="none" 
	d="
M371.109894,233.744980 
	C371.102417,233.363770 371.094940,232.982544 371.299316,231.966064 
	C371.658600,229.353256 371.932587,227.375809 371.934509,225.398117 
	C371.965271,193.283859 371.940491,161.169556 372.014709,129.055435 
	C372.019501,126.990463 372.728973,124.927116 373.110657,122.863007 
	C393.982117,140.037018 414.853607,157.211029 435.866943,174.688721 
	C424.984161,199.354523 413.962341,223.717865 402.929230,248.076096 
	C402.128357,249.844223 401.246033,251.575485 400.169647,253.804077 
	C390.789734,247.081482 381.766449,240.614471 372.171265,234.004822 
	C371.436188,233.823105 371.273041,233.784042 371.109894,233.744980 
z"/>
<path fill="#4B78FE" opacity="1.000000" stroke="none" 
	d="
M141.996033,233.539734 
	C141.996033,233.539734 142.088028,233.579163 141.765472,233.790924 
	C132.269974,240.552795 123.097046,247.102890 113.924103,253.652985 
	C104.985954,234.052673 96.036552,214.457489 87.115929,194.849228 
	C84.097031,188.213440 81.150925,181.544540 78.020126,174.552597 
	C98.779243,157.395554 119.505226,140.265884 140.833878,123.009995 
	C141.639938,122.926346 141.843338,122.968918 142.046722,123.011497 
	C142.046722,123.011497 141.984268,123.009682 142.029510,123.449966 
	C142.048523,160.440079 142.022278,196.989899 141.996033,233.539734 
z"/>
<path fill="#82C4FD" opacity="1.000000" stroke="none" 
	d="
M307.785461,103.652344 
	C307.701538,113.905144 308.167633,123.957764 306.924652,133.794418 
	C303.854645,158.089935 282.626221,176.416077 257.408752,177.096771 
	C256.966217,177.149429 257.008453,176.942184 257.010742,176.402710 
	C256.980621,172.664841 256.948212,169.466431 257.355316,166.185730 
	C277.521942,165.119186 294.035065,150.338486 294.861053,132.393936 
	C295.342285,121.939583 295.013092,111.447922 295.139191,100.781601 
	C295.229828,100.590157 295.323853,100.177086 295.323853,100.177086 
	C299.401825,101.236015 303.479767,102.294945 307.785461,103.652344 
z"/>
<path fill="#9DD1FE" opacity="1.000000" stroke="none" 
	d="
M256.915833,166.268021 
	C256.948212,169.466431 256.980621,172.664841 257.020325,176.297394 
	C230.040024,177.594971 206.904800,154.469589 206.253723,125.883263 
	C206.094681,118.900238 206.222458,111.910675 206.220428,104.453262 
	C210.162552,102.734665 214.102600,101.486931 218.463837,100.434067 
	C218.885040,100.628944 219.087402,101.023857 219.015533,101.486191 
	C218.961502,111.098976 218.680817,120.261749 219.057602,129.397400 
	C219.916733,150.227570 236.099350,165.641449 256.981445,166.007309 
	C256.941437,166.088623 256.915833,166.268021 256.915833,166.268021 
z"/>
<path fill="#FEBA36" opacity="1.000000" stroke="none" 
	d="
M114.023766,253.943542 
	C123.097046,247.102890 132.269974,240.552795 141.760666,233.840744 
	C142.161972,249.483353 142.245499,265.287903 142.206467,281.548401 
	C132.763748,272.747559 123.443581,263.490845 114.023766,253.943542 
z"/>
<path fill="#3669BA" opacity="1.000000" stroke="none" 
	d="
M373.004395,122.592102 
	C372.728973,124.927116 372.019501,126.990463 372.014709,129.055435 
	C371.940491,161.169556 371.965271,193.283859 371.934509,225.398117 
	C371.932587,227.375809 371.658600,229.353256 371.290619,231.680237 
	C371.039490,195.388672 371.008972,158.747696 370.973602,121.650543 
	C371.611877,121.569962 372.255005,121.945580 373.004395,122.592102 
z"/>
<path fill="#2A63B6" opacity="1.000000" stroke="none" 
	d="
M219.087402,101.023857 
	C219.087402,101.023857 218.885040,100.628944 218.827118,100.414711 
	C243.960022,100.143608 269.150848,100.086739 294.832764,100.103477 
	C295.323853,100.177086 295.229828,100.590157 294.666870,100.773293 
	C281.716614,100.979042 269.329285,101.001648 256.478973,101.020157 
	C243.706467,101.018654 231.396927,101.021255 219.087402,101.023857 
z"/>
<path fill="#7B8FA0" opacity="1.000000" stroke="none" 
	d="
M142.068893,122.761917 
	C141.843338,122.968918 141.639938,122.926346 141.127060,122.849487 
	C141.033417,122.535530 141.249252,122.255852 141.741928,121.996307 
	C142.042847,122.181732 142.066956,122.347031 142.068893,122.761917 
z"/>
<path fill="#3669BA" opacity="1.000000" stroke="none" 
	d="
M371.075317,234.238815 
	C371.273041,233.784042 371.436188,233.823105 371.840027,233.936340 
	C372.048889,293.189117 372.019165,352.367737 371.976410,411.546356 
	C371.974976,413.534790 371.842407,415.523163 371.373840,417.669861 
	C370.998047,356.796326 371.019409,295.764496 371.075317,234.238815 
z"/>
<path fill="#7B8FA0" opacity="1.000000" stroke="none" 
	d="
M142.234360,233.152039 
	C142.022278,196.989899 142.048523,160.440079 142.034729,123.419159 
	C142.293655,124.197052 142.852692,125.445831 142.853653,126.695038 
	C142.880142,161.233124 142.852371,195.771255 142.814285,230.309357 
	C142.813385,231.127808 142.591507,231.946030 142.234360,233.152039 
z"/>
<path fill="#84C6FE" opacity="1.000000" stroke="none" 
	d="
M322.972595,199.180740 
	C332.078217,199.180740 341.183807,199.180740 350.862457,199.180740 
	C350.862457,212.164917 350.899475,224.766800 350.789246,237.367386 
	C350.780792,238.332214 349.951263,239.571777 349.132843,240.204102 
	C340.707520,246.713806 332.210999,253.131577 323.703949,259.534637 
	C323.397552,259.765228 322.777191,259.578766 322.366211,258.996338 
	C322.620209,256.774994 322.974396,255.144272 322.977081,253.512955 
	C323.006989,235.402283 322.982452,217.291489 322.972595,199.180740 
z"/>
<path fill="#9FD3FE" opacity="1.000000" stroke="none" 
	d="
M322.509155,199.120163 
	C322.982452,217.291489 323.006989,235.402283 322.977081,253.512955 
	C322.974396,255.144272 322.620209,256.774994 322.169495,258.737793 
	C313.662476,252.887024 305.365906,246.767899 297.225922,240.447159 
	C296.119171,239.587769 295.218506,237.727097 295.200195,236.317337 
	C295.042542,224.182449 295.109589,212.044647 295.109589,199.059586 
	C304.250610,199.059586 313.148163,199.059586 322.509155,199.120163 
z"/>
<path fill="#26478F" opacity="1.000000" stroke="none" 
	d="
M256.941956,101.024261 
	C269.329285,101.001648 281.716614,100.979042 294.576233,100.964737 
	C295.013092,111.447922 295.342285,121.939583 294.861053,132.393936 
	C294.035065,150.338486 277.521942,165.119186 257.355316,166.185730 
	C256.915833,166.268021 256.941437,166.088623 256.964661,165.543930 
	C256.972565,143.674240 256.957245,122.349251 256.941956,101.024261 
z"/>
<path fill="#0151BD" opacity="1.000000" stroke="none" 
	d="
M256.478973,101.020157 
	C256.957245,122.349251 256.972565,143.674240 257.004639,165.462616 
	C236.099350,165.641449 219.916733,150.227570 219.057602,129.397400 
	C218.680817,120.261749 218.961502,111.098976 219.015533,101.486191 
	C231.396927,101.021255 243.706467,101.018654 256.478973,101.020157 
z"/>
</svg>