<svg width="512" height="512" xmlns="http://www.w3.org/2000/svg" xml:space="preserve" enable-background="new 0 0 512 512" version="1.1">

 <g>
  <title>Layer 1</title>
  <path id="svg_1" d="m1,279c0,-14.35422 0,-28.70845 0.37772,-43.73138c1.44279,-8.61486 2.4248,-16.57317 3.58859,-24.50483c3.43687,-23.42347 11.23099,-45.49125 21.54428,-66.65924c9.63378,-19.77327 21.68817,-37.97608 36.29351,-54.54031c14.03146,-15.9134 29.36776,-30.27564 46.67068,-42.55768c17.93011,-12.72723 37.22822,-22.95193 57.80017,-30.54893c17.90011,-6.61031 36.32942,-11.47949 55.41044,-13.49778c4.1278,-0.43661 8.21091,-1.29547 12.31461,-1.95985c14.35423,0 28.70847,0 43.73138,0.37772c8.61493,1.4428 16.5734,2.4248 24.50513,3.58863c23.42343,3.43694 45.49118,11.23104 66.65912,21.54438c19.77325,9.63383 37.97604,21.68816 54.54028,36.29346c15.91339,14.03144 30.27555,29.36777 42.55759,46.67066c12.7272,17.93009 22.95187,37.22823 30.54886,57.80016c6.61029,17.90008 11.47952,36.32934 13.49774,55.41037c0.43662,4.12778 1.29553,8.21092 1.9599,12.31462c0,5.0221 0,10.04419 -0.29419,15.37775c-24.16556,-23.47921 -48.0329,-47.27399 -71.918,-71.05094c-1.52252,-1.51562 -3.18286,-2.89279 -4.92087,-4.63807c-21.01333,-17.47771 -41.88482,-34.65172 -62.86255,-52.09664c-0.74939,-0.64652 -1.39251,-1.02214 -2.39355,-1.53778c-1.93799,-0.62855 -3.50458,-1.16688 -5.1001,-1.59797c-19.16336,-5.17772 -38.33105,-10.33956 -57.72528,-15.80401c-4.30569,-1.3574 -8.38364,-2.41633 -12.9527,-3.54886c-25.68191,-0.01674 -50.87274,0.04013 -76.42685,0.11635c-4.30331,1.2671 -8.24336,2.51484 -12.58563,3.775c-10.13727,2.68247 -19.89337,5.27846 -29.60185,8.04176c-11.42146,3.25085 -22.80161,6.64681 -34.4765,9.95972c-0.49268,0.25954 -0.70851,0.53922 -1.21755,0.9794c-21.01915,17.29017 -41.74514,34.41984 -62.50425,51.57689c3.1308,6.99194 6.0769,13.66084 9.0958,20.29663c8.92062,19.60826 17.87002,39.20344 26.90783,59.09431c9.41982,9.5473 18.73999,18.80402 28.17158,28.51776c0.13636,43.73658 0.15406,87.01618 0.21213,130.29572c0.00237,1.77112 0.38428,3.54175 0.75372,5.59802c1.53763,1.72681 2.88137,3.19779 4.2885,4.60535c28.29451,28.30255 56.60747,56.58667 84.86487,84.92621c1.46469,1.46893 2.46758,3.39834 3.68544,5.1134c0,0 -0.5,0 -0.94952,-0.37805c-8.39571,-1.44287 -16.3541,-2.4245 -24.28577,-3.5882c-23.42363,-3.43649 -45.49141,-11.23089 -66.6595,-21.544c-19.77342,-9.63367 -37.97631,-21.68799 -54.54057,-36.29346c-15.91343,-14.03153 -30.27581,-29.36777 -42.55783,-46.67081c-12.72719,-17.93017 -22.95232,-37.22812 -30.54913,-57.80026c-6.61014,-17.90024 -11.47954,-36.3295 -13.49783,-55.41061c-0.43661,-4.12778 -1.29548,-8.21091 -1.95985,-12.31461z" fill="#FFD900"/>
  <path id="svg_2" d="m436.00876,174.99243c1.59619,1.44159 3.25653,2.81876 4.77905,4.33438c23.8851,23.77695 47.75244,47.57173 71.918,71.51779c0.29419,9.17631 0.29419,18.19718 -0.06842,27.90705c-1.42786,8.64285 -2.39523,16.6113 -3.57678,24.54788c-3.47202,23.32187 -11.15619,45.34357 -21.4336,66.43326c-9.66381,19.83056 -21.72482,38.11722 -36.40249,54.71441c-13.95557,15.78071 -29.15311,30.06592 -46.33072,42.29584c-17.99191,12.80973 -37.33496,23.09216 -57.9798,30.74582c-17.94412,6.65244 -36.42346,11.51923 -55.54947,13.57459c-4.14303,0.44525 -8.24411,1.28079 -12.36453,1.93655c-14.02091,0 -28.04179,0 -42.53134,0c-1.68652,-1.71506 -2.68941,-3.64447 -4.1541,-5.1134c-28.2574,-28.33954 -56.57036,-56.62366 -84.86487,-84.92621c-1.40713,-1.40756 -2.75087,-2.87854 -3.82098,-4.63654c4.11993,-0.31891 7.93672,-0.31802 11.75349,-0.32412c33.84951,-0.05393 67.69902,-0.10914 102.01941,-0.09253c38.1723,0.02127 75.87369,-0.0289 113.97223,-0.23734c0.46857,-2.1467 0.60114,-4.13507 0.60257,-6.1235c0.04275,-59.17862 0.07248,-118.35724 0.43552,-177.46738c9.35452,6.53549 18.3778,13.0025 27.75772,19.7251c1.07638,-2.2286 1.95871,-3.95986 2.75958,-5.72798c11.03311,-24.35824 22.05493,-48.72158 33.07953,-73.08367z" fill="#FFBA35"/>
  <path id="svg_7" d="m256.93072,417.83575c-33.8495,0.05484 -67.69901,0.11005 -101.54852,0.16398c-3.81677,0.0061 -7.63356,0.00521 -11.91784,0.03872c-0.67261,-1.73968 -1.05452,-3.51031 -1.05689,-5.28143c-0.05807,-43.27954 -0.07577,-86.55914 -0.08957,-130.75165c-0.0724,-16.71747 -0.15593,-32.52202 -0.23468,-48.3764c0.00481,-0.04981 -0.08719,-0.08924 0.15116,-0.47693c0.35713,-1.20601 0.57901,-2.02423 0.57991,-2.84268c0.03808,-34.53811 0.06585,-69.07624 0.03936,-103.61432c-0.00096,-1.24921 -0.55999,-2.49799 -0.86416,-3.71616c-0.00522,0.0308 0.05723,0.03262 0.0794,-0.21696c-0.00193,-0.41489 -0.02604,-0.58019 -0.05014,-0.74549c11.39807,-3.33303 22.77822,-6.72899 34.19968,-9.97984c9.70848,-2.7633 19.46458,-5.35929 29.59976,-7.57089c0.40427,7.44497 0.27649,14.43454 0.43553,21.41756c0.65108,28.58633 23.7863,51.71171 50.76429,50.95361c-0.00956,0.10531 -0.05179,0.31256 -0.0571,0.77183c-0.01361,80.38187 -0.02192,160.30445 -0.03019,240.22705z" fill="#2663F0"/>
  <path id="svg_8" d="m257.40161,417.9072c-0.46262,-79.99405 -0.45431,-159.91663 0.00183,-240.35115c25.22278,-1.13997 46.45121,-19.46612 49.52121,-43.76163c1.24298,-9.83666 0.77689,-19.88928 1.0885,-29.84361c19.16654,5.16598 38.33423,10.32782 57.49759,15.50554c1.59552,0.43109 3.16211,0.96942 5.10492,2.05416c0.39331,37.23719 0.42383,73.87816 0.46307,110.80498c0.01621,0.66705 0.02369,1.04828 -0.00341,1.92332c-0.05591,61.52569 -0.07727,122.55752 -0.0986,183.58935c-37.70142,0.05014 -75.40281,0.10031 -113.57511,0.07904m64.64414,-218.84761c-8.89759,0 -17.79514,0 -26.93616,0c0,12.98506 -0.06705,25.12286 0.09061,37.25775c0.01831,1.40976 0.91897,3.27043 2.02572,4.12982c8.13999,6.32074 16.43656,12.43986 25.07724,19.13954c0.47403,-0.00793 1.09439,0.17853 1.40079,-0.05206c8.50705,-6.40306 17.00357,-12.82083 25.42889,-19.33054c0.81842,-0.63232 1.64795,-1.87189 1.65641,-2.83671c0.11022,-12.60059 0.07321,-25.20247 0.07321,-38.18665c-9.67865,0 -18.78424,0 -28.81671,-0.12115z" fill="#0051BD"/>
  <path id="svg_9" d="m371.10989,233.74498c-0.00747,-0.38121 -0.01495,-0.76244 0.18943,-1.77892c0.35928,-2.6128 0.63327,-4.59025 0.63519,-6.56794c0.03076,-32.11426 0.00598,-64.22856 0.0802,-96.34269c0.00479,-2.06497 0.71426,-4.12831 1.09595,-6.19242c20.87146,17.17401 41.74295,34.34802 62.75628,51.82571c-10.88278,24.6658 -21.9046,49.02914 -32.93771,73.38738c-0.80087,1.76812 -1.6832,3.49938 -2.75958,5.72798c-9.37992,-6.7226 -18.4032,-13.18961 -27.99838,-19.79926c-0.73508,-0.18172 -0.89823,-0.22078 -1.06138,-0.25984z" fill="#2763EF"/>
  <path id="svg_10" d="m141.99603,233.53973c0,0 0.092,0.03943 -0.23056,0.25119c-9.4955,6.76188 -18.66842,13.31197 -27.84137,19.86207c-8.93815,-19.60032 -17.88755,-39.1955 -26.80817,-58.80376c-3.0189,-6.63579 -5.965,-13.30469 -9.0958,-20.29663c20.75911,-17.15705 41.4851,-34.28672 62.81375,-51.5426c0.80606,-0.08365 1.00946,-0.04108 1.21284,0.0015c0,0 -0.06245,-0.00182 -0.01721,0.43847c0.01901,36.99011 -0.00723,73.53993 -0.03348,110.08976z" fill="#4B78FE"/>
  <path id="svg_11" d="m307.78546,103.65234c-0.08392,10.2528 0.38217,20.30542 -0.86081,30.14208c-3.07,24.29551 -24.29843,42.62166 -49.5159,43.30235c-0.44253,0.05266 -0.4003,-0.15459 -0.39801,-0.69406c-0.03012,-3.73787 -0.06253,-6.93628 0.34458,-10.21698c20.16662,-1.06654 36.67974,-15.84724 37.50573,-33.79179c0.48124,-10.45436 0.15204,-20.94602 0.27814,-31.61234c0.09064,-0.19144 0.18466,-0.60451 0.18466,-0.60451c4.07797,1.05892 8.15592,2.11785 12.46161,3.47525z" fill="#82C4FD"/>
  <path id="svg_12" d="m256.91583,166.26802c0.03238,3.19841 0.06479,6.39682 0.1045,10.02937c-26.98031,1.29758 -50.11553,-21.8278 -50.76661,-50.41413c-0.15904,-6.98302 -0.03126,-13.97259 -0.03329,-21.43c3.94212,-1.71859 7.88217,-2.96633 12.24341,-4.01919c0.4212,0.19487 0.62356,0.58979 0.55169,1.05212c-0.05403,9.61279 -0.33471,18.77556 0.04207,27.91121c0.85913,20.83017 17.04175,36.24405 37.92385,36.60991c-0.04001,0.08131 -0.06562,0.26071 -0.06562,0.26071z" fill="#9DD1FE"/>
  <path id="svg_13" d="m114.02377,253.94354c9.07328,-6.84065 18.2462,-13.39074 27.7369,-20.1028c0.4013,15.64261 0.48483,31.44716 0.4458,47.70766c-9.44272,-8.80084 -18.76289,-18.05756 -28.1827,-27.60486z" fill="#FEBA36"/>
  <path id="svg_14" d="m373.00439,122.5921c-0.27542,2.33502 -0.98489,4.39836 -0.98968,6.46333c-0.07422,32.11413 -0.04944,64.22843 -0.0802,96.34269c-0.00192,1.97769 -0.27591,3.95514 -0.64389,6.28212c-0.25113,-36.29157 -0.28165,-72.93254 -0.31702,-110.0297c0.63828,-0.08058 1.2814,0.29504 2.03079,0.94156z" fill="#3669BA"/>
  <path id="svg_15" d="m219.0874,101.02386c0,0 -0.20236,-0.39492 -0.26028,-0.60915c25.1329,-0.2711 50.32373,-0.32797 76.00564,-0.31123c0.49109,0.07361 0.39707,0.48668 -0.16589,0.66981c-12.95026,0.20575 -25.33758,0.22836 -38.1879,0.24687c-12.7725,-0.00151 -25.08204,0.00109 -37.39157,0.0037z" fill="#2A63B6"/>
  <path id="svg_16" d="m142.06889,122.76192c-0.22555,0.207 -0.42895,0.16443 -0.94183,0.08757c-0.09364,-0.31396 0.12219,-0.59364 0.61487,-0.85318c0.30092,0.18542 0.32503,0.35072 0.32696,0.76561z" fill="#7B8FA0"/>
  <path id="svg_17" d="m371.07532,234.23881c0.19772,-0.45477 0.36087,-0.41571 0.76471,-0.30247c0.20886,59.25278 0.17913,118.4314 0.13638,177.61002c-0.00143,1.98843 -0.134,3.9768 -0.60257,6.1235c-0.37579,-60.87353 -0.35443,-121.90536 -0.29852,-183.43105z" fill="#3669BA"/>
  <path id="svg_18" d="m142.23436,233.15204c-0.21208,-36.16214 -0.18584,-72.71196 -0.19963,-109.73288c0.25893,0.77789 0.81796,2.02667 0.81892,3.27588c0.02649,34.53808 -0.00128,69.07621 -0.03936,103.61432c-0.0009,0.81845 -0.22278,1.63667 -0.57993,2.84268z" fill="#7B8FA0"/>
  <path id="svg_19" d="m322.9726,199.18074c9.10562,0 18.21121,0 27.88986,0c0,12.98418 0.03701,25.58606 -0.07321,38.18665c-0.00846,0.96482 -0.83799,2.20439 -1.65641,2.83671c-8.42532,6.50971 -16.92184,12.92748 -25.42889,19.33054c-0.3064,0.23059 -0.92676,0.04413 -1.33774,-0.5383c0.254,-2.22135 0.60819,-3.85207 0.61087,-5.48338c0.02991,-18.11068 0.00537,-36.22147 -0.00448,-54.33222z" fill="#84C6FE"/>
  <path id="svg_20" d="m322.50916,199.12016c0.47329,18.17133 0.49783,36.28212 0.46792,54.3928c-0.00268,1.63131 -0.35687,3.26203 -0.80759,5.22483c-8.50701,-5.85077 -16.80358,-11.96989 -24.94357,-18.29063c-1.10675,-0.85939 -2.00741,-2.72006 -2.02572,-4.12982c-0.15766,-12.13489 -0.09061,-24.27269 -0.09061,-37.25775c9.14102,0 18.03857,0 27.39957,0.06057z" fill="#9FD3FE"/>
  <path id="svg_21" d="m256.94196,101.02426c12.38733,-0.02261 24.77465,-0.04522 37.63427,-0.05952c0.43686,10.48318 0.76606,20.97484 0.28482,31.4292c-0.82599,17.94455 -17.33911,32.72525 -37.50573,33.79179c-0.43949,0.08229 -0.41388,-0.09711 -0.39066,-0.6418c0.0079,-21.86969 -0.00741,-43.19468 -0.0227,-64.51967z" fill="#26478F"/>
  <path id="svg_22" d="m256.47897,101.02016c0.47828,21.32909 0.49359,42.65408 0.52567,64.44246c-20.90529,0.17883 -37.08791,-15.23505 -37.94704,-36.06522c-0.37678,-9.13565 -0.0961,-18.29842 -0.04207,-27.91121c12.3814,-0.46494 24.69094,-0.46754 37.46344,-0.46603z" fill="#0151BD"/>
 </g>
</svg>