<svg width="512" height="512" xmlns="http://www.w3.org/2000/svg" xml:space="preserve" enable-background="new 0 0 512 512" version="1.1">

 <g>
  <title>Layer 1</title>
  <path id="svg_2" d="m166.6552,494.31024c-14.62986,-7.24264 -29.19702,-13.78433 -43.12011,-21.48987c-14.59759,-8.07882 -27.2444,-18.92331 -39.58331,-30.20044c-24.97438,-22.82525 -44.08397,-49.80847 -58.16992,-80.36398c-10.08295,-21.87213 -17.26316,-44.76865 -19.72345,-68.81973c-1.59615,-15.60361 -3.44505,-31.38098 -2.76795,-46.97576c1.39186,-32.05726 8.31029,-63.02647 21.58091,-92.55995c10.21173,-22.72603 23.26592,-43.5434 39.33232,-62.3835c18.97883,-22.25533 41.46015,-40.46786 66.85632,-55.10576c26.5161,-15.2834 54.94496,-25.43554 85.04036,-30.03982c16.76323,-2.56461 34.00759,-3.73444 50.94101,-3.08373c38.9289,1.49594 75.99216,11.25452 110.37534,29.94418c15.34314,8.34009 29.62771,18.27739 43.07113,29.55675c18.24164,15.30512 33.9112,32.79798 47.20639,52.43951c19.79236,29.24009 32.86063,61.32191 39.16434,96.04861c3.34418,18.42262 5.06738,37.08992 4.04761,55.80818c-1.72052,31.58224 -8.2161,62.13132 -20.94339,91.27036c-9.28864,21.26632 -21.17786,40.93866 -35.81943,58.84304c-20.14282,24.63169 -44.07724,44.91501 -71.77392,60.74247c-24.79306,14.16821 -51.30015,23.6101 -79.27576,28.8233c-9.68332,1.80447 -19.61453,2.38339 -29.46024,3.1784c-7.75418,0.62613 -15.57904,1.3143 -23.32354,0.94593c-22.38216,-1.0647 -44.5631,-3.71799 -66.00034,-10.75144c-5.76543,-1.89163 -11.53882,-3.75891 -17.65437,-5.82675m19.79887,-302.31302c-0.16592,0.46984 -0.33435,0.93882 -0.49737,1.40964c-13.0369,37.64679 8.9138,74.78213 48.34378,81.53543c3.15208,0.53989 3.15402,2.16696 3.14773,4.45709c-0.03149,11.49832 -0.00136,22.99686 -0.02582,34.49521c-0.00405,1.9072 -0.17091,3.81403 -0.27696,6.02152c-12.57281,0 -24.55533,-0.20658 -36.52649,0.07321c-7.86754,0.1839 -13.43356,4.47314 -16.76004,11.50693c-3.31706,7.01391 -2.19798,13.68829 2.41495,19.70395c4.11803,5.37017 9.79213,7.76321 16.55373,7.73873c11.44395,-0.04141 22.88816,-0.01138 34.26794,-0.01138c1.44281,15.53082 7.42764,23.73969 18.18993,23.87854c4.36171,0.05628 9.24925,-1.45755 13.02732,-3.71396c7.30332,-4.36181 8.55454,-12.13379 8.36933,-19.90265c37.35849,-5.10147 54.77862,-35.02639 55.24048,-59.2966c0.25842,-13.58233 -3.42276,-25.99386 -11.42383,-37.00024c-10.776,-14.82353 -25.64942,-22.74751 -43.65042,-25.02968c0,-14.81447 0,-29.22202 0,-44.10626c1.90231,0 3.5278,0.00038 5.15332,-0.00006c9.99862,-0.00273 20.0025,0.19691 29.9945,-0.06168c11.51755,-0.29808 20.1977,-9.22015 19.96387,-20.05108c-0.23861,-11.05501 -8.97638,-19.4917 -20.44678,-19.59394c-9.49792,-0.08465 -18.99725,-0.01806 -28.49594,-0.01843c-2.07507,-0.00008 -4.15014,-0.00002 -6.15524,-0.00002c-1.23651,-15.84047 -7.82907,-23.8782 -19.2655,-24.14047c-12.083,-0.27711 -18.68289,7.32918 -20.56349,23.98695c-23.36365,3.41132 -40.53486,15.44475 -50.579,38.11925z" fill="#50AF00"/>
  <path id="svg_3" d="m186.63101,191.65494c9.8672,-22.33222 27.03841,-34.36565 50.40206,-37.77697c1.8806,-16.65777 8.48049,-24.26406 20.56349,-23.98695c11.43643,0.26227 18.02899,8.3 19.2655,24.14047c2.0051,0 4.08017,-0.00006 6.15524,0.00002c9.49869,0.00037 18.99802,-0.06622 28.49594,0.01843c11.4704,0.10224 20.20817,8.53893 20.44678,19.59394c0.23383,10.83093 -8.44632,19.753 -19.96387,20.05108c-9.992,0.25859 -19.99588,0.05895 -29.9945,0.06168c-1.62552,0.00044 -3.25101,0.00006 -5.15332,0.00006c0,14.88424 0,29.29179 0,44.10626c18.001,2.28217 32.87442,10.20615 43.65042,25.02968c8.00107,11.00638 11.68225,23.41791 11.42383,37.00024c-0.46186,24.27021 -17.88199,54.19513 -55.24048,59.2966c0.18521,7.76886 -1.06601,15.54084 -8.36933,19.90265c-3.77807,2.25641 -8.66561,3.77024 -13.02732,3.71396c-10.76229,-0.13885 -16.74712,-8.34772 -18.18993,-23.87854c-11.37978,0 -22.82399,-0.03003 -34.26794,0.01138c-6.7616,0.02448 -12.4357,-2.36856 -16.55373,-7.73873c-4.61293,-6.01566 -5.73201,-12.69004 -2.41495,-19.70395c3.32648,-7.03379 8.8925,-11.32303 16.76004,-11.50693c11.97116,-0.27979 23.95368,-0.07321 36.52649,-0.07321c0.10605,-2.20749 0.27291,-4.11432 0.27696,-6.02152c0.02446,-11.49835 -0.00567,-22.99689 0.02582,-34.49521c0.00629,-2.29013 0.00435,-3.9172 -3.14773,-4.45709c-39.42998,-6.7533 -61.38068,-43.88864 -48.34378,-81.53543c0.16302,-0.47082 0.33145,-0.9398 0.67431,-1.75192m45.53221,43.01697c1.5625,0.61747 3.12499,1.23495 4.95638,1.95871c0,-14.43078 0,-28.1012 0,-42.27469c-8.91919,2.6326 -13.86055,8.41148 -15.5067,16.76542c-1.92467,9.76734 1.69022,17.52077 10.55032,23.55056m44.38878,73.81497c0,3.55203 0,7.10406 0,10.80664c10.20252,-2.25659 16.88547,-11.58008 16.35181,-21.77393c-0.51465,-9.83096 -7.74332,-18.66043 -16.35184,-19.49243c0,9.84418 0,19.65314 0.00003,30.45972z" fill="#FDFEFD"/>
  <path id="svg_4" d="m231.85336,234.44879c-8.55024,-5.80667 -12.16513,-13.5601 -10.24046,-23.32744c1.64615,-8.35394 6.58751,-14.13282 15.5067,-16.76542c0,14.17349 0,27.84391 0,42.27469c-1.83139,-0.72376 -3.39388,-1.34124 -5.26624,-2.18183z" fill="#53B004"/>
  <path id="svg_5" d="m276.552,307.98807c-0.00003,-10.30777 -0.00003,-20.11673 -0.00003,-29.96091c8.60852,0.832 15.83719,9.66147 16.35184,19.49243c0.53366,10.19385 -6.14929,19.51734 -16.35181,21.77393c0,-3.70258 0,-7.25461 0,-11.30545z" fill="#53B004"/>
 </g>
</svg>