<svg width="512" height="512" xmlns="http://www.w3.org/2000/svg" xml:space="preserve" enable-background="new 0 0 512 512" version="1.1">

 <g>
  <title>Layer 1</title>
  <path id="svg_1" d="m289,513c-21.02091,0 -42.04179,0 -63.27622,-0.38318c-0.89219,-0.78503 -1.52513,-1.40097 -2.25628,-1.55713c-14.27156,-3.04828 -28.74576,-5.34985 -42.78702,-9.22336c-17.71867,-4.88803 -34.39201,-12.56463 -50.40887,-21.71539c-15.77557,-9.01294 -30.71736,-19.229 -43.95036,-31.57233c-10.48704,-9.78195 -20.18855,-20.49426 -29.51684,-31.41046c-15.55037,-18.19748 -27.53857,-38.7771 -36.58963,-60.85183c-8.63202,-21.05274 -15.28376,-42.79023 -17.31373,-65.67209c-0.05231,-0.58966 -1.24186,-1.0784 -1.90105,-1.61423c0,-11.68756 0,-23.37512 0.3255,-35.4154c2.5837,4.15164 6.32928,5.8298 11.24466,5.81585c6.41823,-0.01825 12.83733,0.27323 19.31776,0.85162c0.12376,1.08332 0.1255,1.75861 0.25655,2.40778c6.54895,32.44275 21.72886,60.2348 44.33215,84.35797c38.58235,41.17658 82.11628,76.29392 129.17676,107.20835c14.3132,9.4024 28.69129,9.42398 42.83721,-0.13678c14.17631,-9.5813 28.13813,-19.47989 42.28257,-28.7681c0.11615,8.07879 0.06201,15.68774 0.1973,23.29327c0.1065,5.98734 3.87018,10.12528 9.80405,10.26175c8.4215,0.19364 16.85391,-0.08475 25.74319,-0.1098c5.45279,0.02899 10.4473,0.11356 15.43439,-0.04163c7.27081,-0.22616 11.00149,-4.04007 11.06747,-11.26815c0.07291,-7.98554 0.01792,-15.97223 0.01831,-23.95844c0.00031,-6.26245 0.00006,-12.52493 0.00006,-19.25766c2.39041,0 4.18753,0.00049 5.98465,-0.00009c12.4784,-0.00409 24.95758,0.07345 37.43491,-0.0448c6.93323,-0.06567 10.81668,-3.60208 10.84558,-10.28516c0.06619,-15.29989 -0.19122,-30.60122 0.02725,-45.94091c3.22144,-2.95945 6.45087,-5.6135 8.90232,-8.85578c5.16177,-6.82693 9.91574,-13.96219 15.18557,-21.06982c5.45645,-1.12223 8.15012,-4.49503 9.99542,-9.18482c8.09675,-20.57715 16.37479,-41.083 24.59647,-61.61097c1.89331,-4.72725 3.82346,-9.43972 6.0538,-14.94138c1.26691,2.08511 2.08359,3.28639 2.75913,4.56241c10.42859,19.69829 20.81677,39.41801 31.28964,59.09273c0.98328,1.84726 2.47372,3.42453 3.79074,5.52328c-2.52209,10.58624 -4.82071,20.85931 -7.75326,30.94818c-5.18244,17.82938 -12.64618,34.70017 -21.79059,50.89072c-8.93173,15.81393 -19.03449,30.87137 -31.4896,43.9632c-11.57812,12.16998 -24.13027,23.54275 -37.12765,34.20062c-16.66257,13.66333 -35.51618,24.11343 -55.42639,32.28494c-21.07184,8.64819 -42.8497,15.08398 -65.681,17.32306c-0.60144,0.05896 -1.09244,1.24405 -1.63492,1.90396z" fill="#07A9F0"/>
  <path id="svg_2" d="m513,225c0,13.02089 0,26.04179 -0.27252,39.32379c-4.33243,-7.36032 -8.4079,-14.97346 -12.4487,-22.60499c-6.45044,-12.18233 -12.93717,-24.34607 -19.28372,-36.58242c-2.32688,-4.48622 -5.35151,-7.5895 -10.81168,-7.20204c-5.01913,0.35617 -7.60703,3.5213 -9.18646,7.90389c-0.61853,1.71633 -1.38449,3.37954 -2.3483,4.79107c-0.77344,-4.21763 -1.15094,-8.18142 -1.8107,-12.09768c-5.74322,-34.08902 -19.29611,-64.63298 -42.42502,-90.46985c-31.21649,-34.8714 -70.44708,-54.29436 -116.97665,-58.89785c-3.08978,-0.30569 -6.31516,0.75847 -9.81882,1.04734c-10.41235,-2.51461 -11.08386,-13.19262 -17.60239,-20.25319c-5.03366,10.47307 -10.14916,20.23791 -22.22773,22.86172c-10.0753,2.55544 -20.24918,4.56315 -29.68979,8.38307c-11.0219,4.45974 -21.40358,10.50169 -32.33211,15.63839c-2.737,-4.46114 -5.20494,-8.7035 -7.6729,-12.94586c-0.51623,-0.23074 -1.03247,-0.46147 -1.5487,-0.69221c-4.32128,12.37707 -12.44387,20.93554 -25.98474,25.20293c4.97166,3.22526 8.24018,5.34565 11.36281,7.7753c-8.43702,10.255 -16.72812,20.20072 -25.45804,30.28235c-23.59748,0.88285 -45.14511,6.83844 -64.78189,20.04482c-16.938,11.56095 -28.84651,26.70314 -36.07042,45.59993c-5.80455,15.18389 -7.22309,30.93235 -7.06615,47.0904c-4.74118,0.11777 -9.03832,0.38355 -13.29858,0.09835c-6.09413,-0.40799 -10.92632,1.42868 -14.2468,6.70274c0,-7.02095 0,-14.0419 0.37623,-21.26602c0.78246,-0.88114 1.42655,-1.51636 1.55738,-2.24387c1.06565,-5.92572 1.91078,-11.89282 3.05517,-17.80238c5.89714,-30.45255 17.56047,-58.60004 34.03092,-84.82147c14.57117,-23.19773 32.67551,-43.37671 53.64355,-60.81946c18.05951,-15.02322 37.89312,-27.44738 59.5933,-36.78521c22.35322,-9.61884 45.37568,-16.62544 69.62867,-19.3419c0.76699,-0.08591 1.4126,-1.25537 2.11478,-1.91969c21.02089,0 42.04178,0 63.27661,0.38376c1.05945,0.79202 1.86447,1.38714 2.75659,1.58056c13.94681,3.024 28.05426,5.43775 41.82297,9.12013c17.61951,4.71225 34.14774,12.28957 50.05368,21.28201c16.39655,9.26979 31.93646,19.83074 45.47116,32.82752c11.7601,11.29279 22.80737,23.45607 33.13449,36.08141c13.64746,16.68461 24.13285,35.52661 32.28192,55.44171c8.62278,21.07276 15.18876,42.82849 17.30152,65.69382c0.05389,0.58327 1.24194,1.06174 1.90106,1.58908z" fill="#07A9F0"/>
  <path id="svg_7" d="m1,246.4375c3.32048,-5.71156 8.15267,-7.54823 14.2468,-7.14024c4.26026,0.2852 8.5574,0.01942 13.75426,0.0182c12.55449,0.04428 24.22336,0.59853 35.82136,-0.07245c9.16997,-0.53047 14.44216,2.92447 18.14882,11.19879c4.92652,10.99735 10.88199,21.53369 16.91585,33.28144c2.04592,-5.39753 3.72968,-9.83954 5.65721,-14.55704c8.62629,-21.23117 17.04981,-42.17064 25.35986,-63.15506c1.86938,-4.72058 4.58397,-8.10002 10.08325,-8.1008c5.49217,-0.00076 8.23767,3.35587 10.10486,8.08006c4.63504,11.72727 9.43916,23.3877 14.21693,35.41942c1.57773,4.17258 3.19654,7.97003 4.63096,11.83589c2.23558,6.02513 0.15306,11.48323 -5.09591,13.69948c-5.5011,2.32272 -10.77861,-0.18942 -13.54875,-6.41479c-1.66276,-3.73676 -3.37283,-7.45249 -4.97607,-11.53176c-1.54685,-4.55334 -3.17929,-8.75256 -4.81172,-12.9518c-0.39806,0.02935 -0.79612,0.05871 -1.19416,0.08805c-7.15709,18.2503 -14.31417,36.50061 -21.72639,55.00097c-2.60745,6.10657 -5.11027,11.90836 -7.26556,17.83646c-1.79978,4.95029 -4.61433,8.66684 -10.20532,8.78311c-5.37072,0.11167 -8.1208,-3.52981 -10.37136,-7.98904c-7.8616,-15.57682 -15.86266,-31.0846 -24.0026,-46.51746c-0.84316,-1.59854 -2.94481,-3.55762 -4.49953,-3.59033c-10.13316,-0.2132 -20.27654,0.05948 -30.41657,0.17328c-6.41873,-0.1582 -12.83783,-0.44968 -19.25606,-0.43143c-4.91538,0.01395 -8.66096,-1.66421 -11.24466,-6.28451c-0.3255,-2.15761 -0.3255,-4.19927 -0.3255,-6.67844z" fill="#D5EFFC"/>
  <path id="svg_8" d="m513,288.53137c-0.64734,0.74063 -1.81049,0.93839 -1.862,1.29617c-0.49585,3.44489 -0.80441,6.91669 -1.23163,10.82123c-1.31998,-1.2622 -2.81042,-2.83947 -3.7937,-4.68673c-10.47287,-19.67472 -20.86105,-39.39444 -31.28964,-59.09273c-0.67554,-1.27602 -1.49222,-2.4773 -2.75913,-4.56241c-2.23034,5.50166 -4.16049,10.21413 -6.0538,14.94138c-8.22168,20.52797 -16.49972,41.03382 -24.59647,61.61097c-1.8453,4.68979 -4.53897,8.06259 -10.35107,9.0755c-4.90604,-0.85922 -8.02637,-3.11206 -9.63666,-7.15063c-2.64367,-6.63019 -5.20578,-13.29288 -7.7359,-20.3266c2.93372,-10.64844 5.801,-20.91211 8.8551,-30.91418c2.75165,6.83575 5.31644,13.40991 8.41596,21.3547c9.68378,-24.24802 18.81818,-47.12044 27.95257,-69.99286c0.6988,-1.68741 1.46476,-3.35062 2.08329,-5.06695c1.57943,-4.38259 4.16733,-7.54772 9.18646,-7.90389c5.46017,-0.38746 8.4848,2.71582 10.81168,7.20204c6.34655,12.23635 12.83328,24.40009 19.28372,36.58242c4.0408,7.63153 8.11627,15.24467 12.4487,23.07365c0.27252,7.89514 0.27252,15.5827 0.27252,23.73892z" fill="#B3E6FD"/>
  <path id="svg_9" d="m31.88792,260.25207c10.07833,-0.53399 20.22171,-0.80667 30.35487,-0.59347c1.55472,0.03271 3.65637,1.99179 4.49953,3.59033c8.13994,15.43286 16.141,30.94064 24.0026,46.51746c2.25056,4.45923 5.00064,8.10071 10.37136,7.98904c5.59099,-0.11627 8.40554,-3.83282 10.20532,-8.78311c2.15529,-5.9281 4.65811,-11.72989 7.57115,-17.66623c13.541,17.34036 27.31878,33.96686 43.39125,48.77698c15.82655,14.58352 32.81773,27.42773 51.182,38.4794c7.19509,4.33002 14.96498,7.70489 22.56632,11.91769c0.44407,9.80915 3.50305,13.75745 11.5702,14.0307c8.10973,0.27475 16.2412,-0.09213 24.7574,-0.04711c6.37006,0.02947 12.34577,-0.07172 18.36472,0.26892c0.01544,7.00033 -0.01233,13.5588 -0.04007,20.11727c-14.05585,9.75956 -28.01767,19.65815 -42.19398,29.23945c-14.14592,9.56076 -28.52401,9.53918 -42.83721,0.13678c-47.06048,-30.91443 -90.59441,-66.03177 -129.17676,-107.20835c-22.60329,-24.12317 -37.7832,-51.91522 -44.33215,-84.35797c-0.13105,-0.64917 -0.13279,-1.32446 -0.25655,-2.40778z" fill="#D63131"/>
  <path id="svg_10" d="m290.68143,404.2908c-5.97574,0.10123 -11.95145,0.20242 -18.43289,-0.1069c-5.05463,-3.3169 -6.39451,-7.56628 -6.30845,-12.79562c0.19449,-11.8212 0.37958,-23.65992 -0.06796,-35.46735c-0.23767,-6.27008 1.97812,-10.56708 7.56519,-13.77493c6.12814,-0.11106 11.79025,-0.16184 17.92727,-0.19165c6.46381,0.02948 12.45328,0.09381 18.44147,0.03164c6.59341,-0.06848 10.14652,-3.59839 10.19495,-10.20242c0.07077,-9.64844 0.30069,-19.30869 -0.07691,-28.94275c-0.25149,-6.41785 1.63736,-11.35623 7.51697,-14.94473c5.2883,-0.06262 10.11475,-0.09152 14.93878,0.00287c6.7345,0.13174 10.52002,3.80929 10.62229,10.52557c0.12158,7.98581 0.03451,15.97479 0.03622,23.9624c0.00137,6.43335 0.00025,12.8667 0.00025,19.49979c10.05627,0 19.50555,0 29.41989,0.06055c4.25824,0.08184 8.06463,0.31274 11.8414,0.07434c5.41827,-0.34201 9.62381,1.51828 12.68594,5.987c0.12601,15.30075 0.38342,30.60208 0.31723,45.90197c-0.0289,6.68308 -3.91235,10.21949 -10.84558,10.28516c-12.47733,0.11825 -24.95651,0.04071 -37.43491,0.0448c-1.79712,0.00058 -3.59424,0.00009 -5.98465,0.00009c0,6.73273 0.00025,12.99521 -0.00006,19.25766c-0.00039,7.98621 0.0546,15.9729 -0.01831,23.95844c-0.06598,7.22808 -3.79666,11.04199 -11.06747,11.26815c-4.98709,0.15519 -9.9816,0.07062 -15.52787,-0.27267c-5.03772,-3.76975 -6.51565,-8.39502 -6.44104,-13.86932c0.13581,-9.96344 0.06983,-19.93024 0.02405,-29.89533c-0.0303,-6.60245 -3.42086,-10.40802 -9.91217,-10.59527c-6.46393,-0.18644 -12.94186,0.11245 -19.41363,0.19851z" fill="#FFF5F5"/>
  <path id="svg_11" d="m290.72464,404.73267c6.42856,-0.52793 12.90649,-0.82682 19.37042,-0.64038c6.49131,0.18725 9.88187,3.99282 9.91217,10.59527c0.04578,9.96509 0.11176,19.93189 -0.02405,29.89533c-0.07461,5.4743 1.40332,10.09957 5.97947,13.81771c-8.33423,0.39096 -16.76664,0.66935 -25.18814,0.47571c-5.93387,-0.13647 -9.69755,-4.27441 -9.80405,-10.26175c-0.13529,-7.60553 -0.08115,-15.21448 -0.19727,-23.29327c-0.06088,-7.02982 -0.03311,-13.58829 -0.04855,-20.58862z" fill="#D4F1FE"/>
  <path id="svg_12" d="m407.33029,347.96967c-3.40658,-4.42978 -7.61212,-6.29007 -13.03039,-5.94806c-3.77677,0.2384 -7.58316,0.0075 -11.71213,-0.37653c12.80466,-15.5072 24.14578,-31.77084 31.03583,-50.80282c2.59652,6.64898 5.15863,13.31167 7.8023,19.94186c1.61029,4.03857 4.73062,6.29141 9.28809,7.24951c-4.56561,7.11807 -9.31958,14.25333 -14.48135,21.08026c-2.45145,3.24228 -5.68088,5.89633 -8.90235,8.85578z" fill="#42C0F9"/>
  <path id="svg_13" d="m413.69,290.45752c-6.95645,19.41672 -18.29757,35.68036 -31.56732,51.12701c-9.57852,0.30219 -19.0278,0.30219 -29.08407,0.30219c0,-6.63309 0.00112,-13.06644 -0.00025,-19.49979c-0.00171,-7.98761 0.08536,-15.97659 -0.03622,-23.9624c-0.10227,-6.71628 -3.88779,-10.39383 -10.62229,-10.52557c-4.82403,-0.09439 -9.65048,-0.06549 -15.39685,-0.09696c-8.89035,-0.02102 -16.86063,-0.11758 -24.82886,-0.02936c-7.77011,0.08603 -11.17913,3.54123 -11.21515,11.32395c-0.06606,14.27872 -0.03805,28.55783 -0.04928,42.83679c-5.66214,0.05078 -11.32425,0.10156 -17.91351,0.13193c-8.41819,-0.03461 -15.90924,-0.06137 -23.40033,-0.05997c-9.84398,0.00183 -13.32698,3.57919 -13.38465,13.63458c-0.06581,11.47922 -0.16655,22.95819 -0.25212,34.43729c-7.50812,-3.80985 -15.27801,-7.18472 -22.4731,-11.51474c-18.36427,-11.05167 -35.35545,-23.89588 -51.182,-38.4794c-16.07247,-14.81012 -29.85025,-31.43662 -43.13611,-49.02707c6.85149,-18.4205 14.00857,-36.67081 21.16566,-54.92111c0.39804,-0.02934 0.7961,-0.0587 1.19416,-0.08805c1.63243,4.19924 3.26487,8.39846 4.74284,13.35553c-1.85094,5.55381 -4.63602,10.26047 -5.03813,15.16257c-1.16985,14.26129 9.98364,26.12021 23.89874,26.4332c14.29877,0.32159 25.78195,-10.62265 25.88922,-24.6741c0.1102,-14.4363 -11.04036,-25.38143 -25.73274,-25.25867c-4.73621,-11.68727 -9.54033,-23.3477 -14.17537,-35.07497c-1.86719,-4.72419 -4.61269,-8.08082 -10.10486,-8.08006c-5.49928,0.00078 -8.21387,3.38022 -10.08325,8.1008c-8.31005,20.98442 -16.73357,41.92389 -25.46979,62.7746c-3.77883,-7.12125 -7.26624,-14.10785 -10.61838,-21.15879c-15.22214,-32.01831 -22.8393,-65.7608 -22.83319,-101.21865c19.33593,-13.1061 40.88356,-19.06169 64.93947,-19.80819c34.93813,-0.03959 64.76463,11.1106 90.00652,34.02886c0.89204,-0.64063 1.45834,-0.97962 1.94659,-1.40763c32.10179,-28.14073 69.47429,-37.92707 111.0111,-30.01265c35.08193,6.68453 61.92654,25.45556 76.67156,58.97434c10.08289,22.92075 10.12055,46.88695 5.80024,71.09868c-2.86728,10.2637 -5.73456,20.52737 -8.66828,31.17581m-80.79214,-125.97826c-6.10233,0.28397 -12.34754,-0.16716 -18.28089,0.98618c-19.84262,3.85709 -24.009,14.37625 -12.71713,31.33523c9.82056,14.74929 22.98911,26.15174 37.32132,36.25531c8.98712,6.33551 18.37695,12.00995 29.44537,14.09583c8.40851,1.58459 13.47046,-1.14172 16.17469,-9.22386c2.46518,-7.3678 2.6044,-14.86891 1.34405,-22.60593c-4.58917,-28.17238 -24.64285,-47.6915 -53.28741,-50.84276z" fill="#F44545"/>
  <path id="svg_14" d="m422.5451,259.54334c4.13349,-24.47336 4.09583,-48.43956 -5.98706,-71.36031c-14.74502,-33.51878 -41.58963,-52.28981 -76.67156,-58.97434c-41.53681,-7.91442 -78.90931,1.87192 -111.0111,30.01265c-0.48825,0.42801 -1.05455,0.767 -1.94659,1.40763c-25.24189,-22.91826 -55.06839,-34.06845 -89.56771,-34.16477c7.83268,-10.08207 16.12378,-20.02779 24.90914,-30.21565c9.46281,2.33728 8.90472,12.79158 15.5762,18.15551c1.15443,-1.90337 2.35872,-3.45187 3.10562,-5.1962c3.20081,-7.47516 8.17421,-13.07342 15.86769,-16.1857c1.88306,-0.76177 3.41193,-2.39905 5.10364,-3.63381c-1.65787,-1.4646 -3.20325,-3.09004 -5.00444,-4.34973c-1.8988,-1.32794 -4.16711,-2.1333 -6.0419,-3.48815c-1.771,-1.27984 -3.24045,-2.97691 -4.84255,-4.49044c10.65946,-5.35548 21.04114,-11.39743 32.06304,-15.85717c9.44061,-3.81992 19.61449,-5.82763 29.54346,-8.10533c-3.86852,2.93826 -1.56426,4.29783 0.94111,5.59003c6.91481,3.56644 14.15094,6.65145 16.97717,14.99278c0.9141,2.69787 2.80439,5.06498 4.1941,7.48912c1.06045,-0.45177 1.52816,-0.49746 1.63806,-0.71994c4.94177,-10.00233 11.13754,-18.6562 22.32254,-22.60895c2.43905,-0.86196 1.69375,-2.82641 -0.33063,-4.06859c-1.82214,-1.11809 -3.6174,-2.28 -5.42453,-3.42258c3.16229,-0.42701 6.38767,-1.49117 9.47745,-1.18548c46.52957,4.60349 85.76016,24.02645 116.97665,58.89785c23.12891,25.83687 36.6818,56.38083 42.42502,90.46985c0.65976,3.91626 1.03726,7.88005 1.8107,12.09768c-8.86938,23.1483 -18.00378,46.02072 -27.68756,70.26874c-3.09952,-7.94479 -5.66431,-14.51895 -8.41596,-21.3547z" fill="#40C1F9"/>
  <path id="svg_15" d="m71.68195,146.50858c0.29474,35.35757 7.9119,69.10006 23.13404,101.11837c3.35214,7.05094 6.83955,14.03754 10.37461,21.43424c-1.57383,4.82251 -3.25759,9.26452 -5.30351,14.66205c-6.03386,-11.74775 -11.98933,-22.28409 -16.91585,-33.28144c-3.70666,-8.27432 -8.97885,-11.72926 -18.14882,-11.19879c-11.598,0.67098 -23.26687,0.11673 -35.36085,-0.02562c-1.07313,-16.17653 0.34541,-31.92499 6.14996,-47.10888c7.22391,-18.89679 19.13242,-34.03898 36.07042,-45.59993z" fill="#D63131"/>
  <path id="svg_16" d="m287.61743,50.21126c2.1485,1.28072 3.94376,2.44263 5.7659,3.56072c2.02438,1.24218 2.76968,3.20663 0.33063,4.06859c-11.185,3.95275 -17.38077,12.60662 -22.32254,22.60895c-0.1099,0.22248 -0.57761,0.26817 -1.63806,0.71994c-1.38971,-2.42414 -3.28,-4.79125 -4.1941,-7.48912c-2.82623,-8.34133 -10.06236,-11.42634 -16.97717,-14.99278c-2.50537,-1.2922 -4.80963,-2.65177 -0.71539,-5.33629c11.99918,-3.15529 17.11468,-12.92013 22.14834,-23.3932c6.51853,7.06057 7.19004,17.73858 17.60239,20.25319z" fill="#FBF4F5"/>
  <path id="svg_17" d="m185.76541,76.84125c1.87117,1.73231 3.34062,3.42938 5.11162,4.70922c1.87479,1.35485 4.1431,2.16021 6.0419,3.48815c1.80119,1.25969 3.34657,2.88513 5.00444,4.34973c-1.69171,1.23476 -3.22058,2.87204 -5.10364,3.63381c-7.69348,3.11228 -12.66688,8.71054 -15.86769,16.1857c-0.7469,1.74433 -1.95119,3.29283 -3.10562,5.1962c-6.67148,-5.36393 -6.11339,-15.81823 -15.4303,-18.46478c-3.61687,-2.18752 -6.88539,-4.30791 -11.85705,-7.53317c13.54087,-4.26739 21.66346,-12.82586 25.98474,-25.20293c0.51623,0.23074 1.03247,0.46147 1.5487,0.69221c2.46796,4.24236 4.9359,8.48472 7.6729,12.94586z" fill="#067BAE"/>
  <path id="svg_18" d="m165.3092,241.40982c14.65082,-0.46721 25.80138,10.47792 25.69118,24.91422c-0.10727,14.05145 -11.59045,24.99569 -25.88922,24.6741c-13.9151,-0.31299 -25.06859,-12.17191 -23.89874,-26.4332c0.40211,-4.9021 3.18719,-9.60876 4.95253,-14.80844c1.75772,3.32141 3.46779,7.03714 5.13055,10.7739c2.77014,6.22537 8.04765,8.73751 13.54875,6.41479c5.24897,-2.21625 7.33149,-7.67435 5.09591,-13.69948c-1.43442,-3.86586 -3.05323,-7.66331 -4.63096,-11.83589z" fill="#B02828"/>
  <path id="svg_19" d="m236.03233,390.48013c-0.00766,-11.88202 0.09308,-23.36099 0.15889,-34.84021c0.05767,-10.05539 3.54067,-13.63275 13.38465,-13.63458c7.49109,-0.0014 14.98214,0.02536 22.93435,0.12027c-4.65997,3.22824 -6.87576,7.52524 -6.63809,13.79532c0.44754,11.80743 0.26245,23.64615 0.06796,35.46735c-0.08606,5.22934 1.25382,9.47872 5.91413,12.66491c-8.0105,0.36554 -16.14197,0.73242 -24.2517,0.45767c-8.06715,-0.27325 -11.12613,-4.22155 -11.57019,-14.03073z" fill="#D6EEFB"/>
  <path id="svg_20" d="m291.36459,341.95435c-0.46365,-14.29993 -0.49166,-28.57904 -0.4256,-42.85776c0.03602,-7.78272 3.44504,-11.23792 11.21515,-11.32395c7.96823,-0.08822 15.93851,0.00834 24.36594,0.11811c-4.95862,3.59384 -6.84747,8.53222 -6.59598,14.95007c0.3776,9.63406 0.14768,19.29431 0.07691,28.94275c-0.04843,6.60403 -3.60154,10.13394 -10.19495,10.20242c-5.98819,0.06217 -11.97766,-0.00216 -18.44147,-0.03164z" fill="#D5F1FE"/>
  <path id="svg_21" d="m333.32684,164.60419c28.21558,3.02633 48.26926,22.54545 52.85843,50.71783c1.26035,7.73702 1.12113,15.23813 -1.34405,22.60593c-2.70423,8.08214 -7.76618,10.80845 -16.17469,9.22386c-11.06842,-2.08588 -20.45825,-7.76032 -29.44537,-14.09583c-14.33221,-10.10357 -27.50076,-21.50602 -37.32132,-36.25531c-11.29187,-16.95898 -7.12549,-27.47814 12.71713,-31.33523c5.93335,-1.15334 12.17856,-0.70221 18.70987,-0.86125z" fill="#FC7979"/>
 </g>
</svg>