<svg version="1.1" id="Layer_1" xmlns="http://www.w3.org/2000/svg" xmlns:xlink="http://www.w3.org/1999/xlink" x="0px" y="0px"
	 width="100%" viewBox="0 0 512 512" enable-background="new 0 0 512 512" xml:space="preserve">
<path fill="#07A9F0" opacity="1.000000" stroke="none" 
	d="
M289.000000,513.000000 
	C267.979095,513.000000 246.958206,513.000000 225.723785,512.616821 
	C224.831589,511.831787 224.198654,511.215851 223.467499,511.059692 
	C209.195938,508.011414 194.721741,505.709839 180.680481,501.836334 
	C162.961807,496.948303 146.288467,489.271698 130.271606,480.120941 
	C114.496040,471.108002 99.554253,460.891937 86.321251,448.548615 
	C75.834213,438.766663 66.132698,428.054352 56.804413,417.138153 
	C41.254044,398.940674 29.265839,378.361053 20.214779,356.286316 
	C11.582756,335.233582 4.931019,313.496094 2.901052,290.614227 
	C2.848740,290.024567 1.659187,289.535828 1.000001,289.000000 
	C1.000000,277.312439 1.000000,265.624878 1.325499,253.584595 
	C3.909203,257.736237 7.654778,259.414398 12.570157,259.400452 
	C18.988386,259.382202 25.407492,259.673676 31.887920,260.252075 
	C32.011684,261.335388 32.013424,262.010681 32.144466,262.659851 
	C38.693417,295.102600 53.873325,322.894653 76.476624,347.017822 
	C115.058968,388.194397 158.592896,423.311737 205.653381,454.226166 
	C219.966583,463.628571 234.344666,463.650146 248.490585,454.089386 
	C262.666901,444.508087 276.628723,434.609497 290.773163,425.321289 
	C290.889313,433.400085 290.835175,441.009033 290.970459,448.614563 
	C291.076965,454.601898 294.840637,458.739838 300.774506,458.876312 
	C309.196014,459.069946 317.628418,458.791565 326.517700,458.766510 
	C331.970490,458.795502 336.964996,458.880066 341.952087,458.724884 
	C349.222900,458.498718 352.953583,454.684814 353.019562,447.456726 
	C353.092468,439.471191 353.037476,431.484497 353.037872,423.498291 
	C353.038177,417.235840 353.037933,410.973358 353.037933,404.240631 
	C355.428345,404.240631 357.225464,404.241119 359.022583,404.240540 
	C371.500977,404.236450 383.980164,404.313995 396.457489,404.195740 
	C403.390717,404.130066 407.274170,400.593658 407.303070,393.910583 
	C407.369263,378.610687 407.111847,363.309357 407.330322,347.969666 
	C410.551758,345.010223 413.781189,342.356171 416.232635,339.113892 
	C421.394409,332.286957 426.148376,325.151703 431.418213,318.044067 
	C436.874664,316.921844 439.568329,313.549042 441.413635,308.859253 
	C449.510376,288.282104 457.788422,267.776245 466.010101,247.248276 
	C467.903412,242.521027 469.833557,237.808563 472.063904,232.306900 
	C473.330811,234.392014 474.147491,235.593292 474.823029,236.869308 
	C485.251617,256.567596 495.639801,276.287323 506.112671,295.962036 
	C507.095947,297.809296 508.586395,299.386566 509.903412,301.485321 
	C507.381317,312.071564 505.082703,322.344635 502.150146,332.433502 
	C496.967712,350.262878 489.503967,367.133667 480.359558,383.324219 
	C471.427826,399.138153 461.325073,414.195587 448.869965,427.287415 
	C437.291840,439.457397 424.739685,450.830170 411.742310,461.488037 
	C395.079742,475.151367 376.226135,485.601471 356.315918,493.772980 
	C335.244080,502.421173 313.466217,508.856964 290.634918,511.096039 
	C290.033478,511.154999 289.542480,512.340088 289.000000,513.000000 
z"/>
<path fill="#07A9F0" opacity="1.000000" stroke="none" 
	d="
M513.000000,225.000000 
	C513.000000,238.020889 513.000000,251.041794 512.727478,264.323792 
	C508.395050,256.963470 504.319580,249.350327 500.278778,241.718796 
	C493.828339,229.536469 487.341614,217.372726 480.995056,205.136383 
	C478.668182,200.650162 475.643555,197.546875 470.183380,197.934341 
	C465.164246,198.290512 462.576355,201.455643 460.996918,205.838226 
	C460.378387,207.554565 459.612427,209.217773 458.648621,210.629303 
	C457.875183,206.411667 457.497681,202.447876 456.837921,198.531616 
	C451.094696,164.442596 437.541809,133.898636 414.412903,108.061768 
	C383.196411,73.190369 343.965820,53.767410 297.436249,49.163925 
	C294.346466,48.858227 291.121094,49.922390 287.617432,50.211258 
	C277.205078,47.696648 276.533569,37.018642 270.015045,29.958067 
	C264.981384,40.431137 259.865875,50.195980 247.787308,52.819786 
	C237.712006,55.375229 227.538132,57.382942 218.097519,61.202858 
	C207.075623,65.662598 196.693939,71.704552 185.765411,76.841248 
	C183.028412,72.380112 180.560471,68.137749 178.092514,63.895390 
	C177.576279,63.664654 177.060043,63.433918 176.543808,63.203182 
	C172.222534,75.580246 164.099945,84.138718 150.559067,88.406113 
	C155.530731,91.631371 158.799255,93.751755 161.921875,96.181412 
	C153.484863,106.436409 145.193756,116.382133 136.463837,126.463760 
	C112.866356,127.346611 91.318733,133.302200 71.681946,146.508575 
	C54.743946,158.069534 42.835438,173.211716 35.611530,192.108505 
	C29.806984,207.292404 28.388435,223.040863 28.545383,239.198914 
	C23.804201,239.316681 19.507061,239.582458 15.246804,239.297256 
	C9.152667,238.889267 4.320478,240.725937 1.000000,246.000000 
	C1.000000,238.979050 1.000000,231.958099 1.376226,224.733978 
	C2.158687,223.852844 2.802776,223.217621 2.933605,222.490112 
	C3.999261,216.564392 4.844394,210.597290 5.988781,204.687729 
	C11.885920,174.235184 23.549248,146.087692 40.019699,119.866264 
	C54.590870,96.668533 72.695206,76.489548 93.663254,59.046795 
	C111.722763,44.023582 131.556366,31.599422 153.256546,22.261587 
	C175.609772,12.642752 198.632233,5.636153 222.885223,2.919688 
	C223.652206,2.833784 224.297821,1.664325 225.000000,1.000002 
	C246.020889,1.000000 267.041779,1.000000 288.276611,1.383764 
	C289.336060,2.175782 290.141083,2.770895 291.033203,2.964322 
	C304.980011,5.988324 319.087463,8.402072 332.856171,12.084446 
	C350.475677,16.796701 367.003906,24.374022 382.909851,33.366463 
	C399.306396,42.636250 414.846313,53.197205 428.381012,66.193985 
	C440.141113,77.486771 451.188385,89.650047 461.515503,102.275391 
	C475.162964,118.959999 485.648346,137.802002 493.797424,157.717102 
	C502.420197,178.789856 508.986176,200.545593 511.098938,223.410919 
	C511.152832,223.994186 512.340881,224.472656 513.000000,225.000000 
z"/>
<path fill="#000000" opacity="1.000000" stroke="none" 
	d="
M289.468658,513.000000 
	C289.542480,512.340088 290.033478,511.154999 290.634918,511.096039 
	C313.466217,508.856964 335.244080,502.421173 356.315918,493.772980 
	C376.226135,485.601471 395.079742,475.151367 411.742310,461.488037 
	C424.739685,450.830170 437.291840,439.457397 448.869965,427.287415 
	C461.325073,414.195587 471.427826,399.138153 480.359558,383.324219 
	C489.503967,367.133667 496.967712,350.262878 502.150146,332.433502 
	C505.082703,322.344635 507.381317,312.071564 509.968414,301.044891 
	C510.333588,296.744232 510.642151,293.272430 511.138000,289.827545 
	C511.189514,289.469757 512.352661,289.272003 513.000000,289.000000 
	C513.000000,363.593719 513.000000,438.187408 513.000000,513.000000 
	C438.645905,513.000000 364.291626,513.000000 289.468658,513.000000 
z"/>
<path fill="#000000" opacity="1.000000" stroke="none" 
	d="
M513.000000,224.531342 
	C512.340881,224.472656 511.152832,223.994186 511.098938,223.410919 
	C508.986176,200.545593 502.420197,178.789856 493.797424,157.717102 
	C485.648346,137.802002 475.162964,118.959999 461.515503,102.275391 
	C451.188385,89.650047 440.141113,77.486771 428.381012,66.193985 
	C414.846313,53.197205 399.306396,42.636250 382.909851,33.366463 
	C367.003906,24.374022 350.475677,16.796701 332.856171,12.084446 
	C319.087463,8.402072 304.980011,5.988324 291.033203,2.964322 
	C290.141083,2.770895 289.336060,2.175782 288.745270,1.383764 
	C363.593719,1.000000 438.187408,1.000000 513.000000,1.000000 
	C513.000000,75.354088 513.000000,149.708389 513.000000,224.531342 
z"/>
<path fill="#000000" opacity="1.000000" stroke="none" 
	d="
M1.000001,289.468658 
	C1.659187,289.535828 2.848740,290.024567 2.901052,290.614227 
	C4.931019,313.496094 11.582756,335.233582 20.214779,356.286316 
	C29.265839,378.361053 41.254044,398.940674 56.804413,417.138153 
	C66.132698,428.054352 75.834213,438.766663 86.321251,448.548615 
	C99.554253,460.891937 114.496040,471.108002 130.271606,480.120941 
	C146.288467,489.271698 162.961807,496.948303 180.680481,501.836334 
	C194.721741,505.709839 209.195938,508.011414 223.467499,511.059692 
	C224.198654,511.215851 224.831589,511.831787 225.255127,512.616821 
	C150.406296,513.000000 75.812599,513.000000 1.000000,513.000000 
	C1.000000,438.645905 1.000000,364.291626 1.000001,289.468658 
z"/>
<path fill="#000000" opacity="1.000000" stroke="none" 
	d="
M224.531342,1.000002 
	C224.297821,1.664325 223.652206,2.833784 222.885223,2.919688 
	C198.632233,5.636153 175.609772,12.642752 153.256546,22.261587 
	C131.556366,31.599422 111.722763,44.023582 93.663254,59.046795 
	C72.695206,76.489548 54.590870,96.668533 40.019699,119.866264 
	C23.549248,146.087692 11.885920,174.235184 5.988781,204.687729 
	C4.844394,210.597290 3.999261,216.564392 2.933605,222.490112 
	C2.802776,223.217621 2.158687,223.852844 1.376226,224.265411 
	C1.000000,149.739456 1.000000,75.478920 1.000000,1.000000 
	C75.354088,1.000000 149.708389,1.000000 224.531342,1.000002 
z"/>
<path fill="#D5EFFC" opacity="1.000000" stroke="none" 
	d="
M1.000000,246.437500 
	C4.320478,240.725937 9.152667,238.889267 15.246804,239.297256 
	C19.507061,239.582458 23.804201,239.316681 29.001057,239.315460 
	C41.555546,239.359741 53.224422,239.913986 64.822418,239.243011 
	C73.992386,238.712540 79.264580,242.167480 82.971245,250.441803 
	C87.897758,261.439148 93.853233,271.975494 99.887093,283.723236 
	C101.933014,278.325714 103.616768,273.883698 105.544304,269.166199 
	C114.170586,247.935028 122.594109,226.995560 130.904160,206.011139 
	C132.773544,201.290558 135.488129,197.911118 140.987411,197.910339 
	C146.479584,197.909576 149.225082,201.266205 151.092270,205.990402 
	C155.727310,217.717667 160.531433,229.378098 165.309204,241.409821 
	C166.886932,245.582397 168.505737,249.379852 169.940155,253.245712 
	C172.175735,259.270844 170.093216,264.728943 164.844254,266.945190 
	C159.343155,269.267914 154.065643,266.755768 151.295502,260.530396 
	C149.632736,256.793640 147.922668,253.077911 146.319427,248.998642 
	C144.772583,244.445297 143.140137,240.246078 141.507706,236.046844 
	C141.109650,236.076187 140.711594,236.105545 140.313553,236.134888 
	C133.156464,254.385193 125.999382,272.635498 118.587158,291.135864 
	C115.979706,297.242432 113.476891,303.044220 111.321602,308.972321 
	C109.521820,313.922607 106.707275,317.639160 101.116280,317.755432 
	C95.745560,317.867096 92.995483,314.225616 90.744919,309.766388 
	C82.883316,294.189575 74.882256,278.681793 66.742317,263.248932 
	C65.899162,261.650391 63.797508,259.691315 62.242790,259.658600 
	C52.109634,259.445404 41.966255,259.718079 31.826221,259.831879 
	C25.407492,259.673676 18.988386,259.382202 12.570157,259.400452 
	C7.654778,259.414398 3.909203,257.736237 1.325499,253.115936 
	C1.000000,250.958328 1.000000,248.916672 1.000000,246.437500 
z"/>
<path fill="#B3E6FD" opacity="1.000000" stroke="none" 
	d="
M513.000000,288.531372 
	C512.352661,289.272003 511.189514,289.469757 511.138000,289.827545 
	C510.642151,293.272430 510.333588,296.744232 509.906372,300.648773 
	C508.586395,299.386566 507.095947,297.809296 506.112671,295.962036 
	C495.639801,276.287323 485.251617,256.567596 474.823029,236.869308 
	C474.147491,235.593292 473.330811,234.392014 472.063904,232.306900 
	C469.833557,237.808563 467.903412,242.521027 466.010101,247.248276 
	C457.788422,267.776245 449.510376,288.282104 441.413635,308.859253 
	C439.568329,313.549042 436.874664,316.921844 431.062561,317.934753 
	C426.156525,317.075531 423.036194,314.822693 421.425903,310.784119 
	C418.782227,304.153931 416.220123,297.491241 413.690002,290.457520 
	C416.623718,279.809082 419.490997,269.545410 422.545105,259.543335 
	C425.296753,266.379089 427.861542,272.953247 430.961060,280.898041 
	C440.644836,256.650024 449.779236,233.777603 458.913635,210.905182 
	C459.612427,209.217773 460.378387,207.554565 460.996918,205.838226 
	C462.576355,201.455643 465.164246,198.290512 470.183380,197.934341 
	C475.643555,197.546875 478.668182,200.650162 480.995056,205.136383 
	C487.341614,217.372726 493.828339,229.536469 500.278778,241.718796 
	C504.319580,249.350327 508.395050,256.963470 512.727478,264.792450 
	C513.000000,272.687592 513.000000,280.375153 513.000000,288.531372 
z"/>
<path fill="#D63131" opacity="1.000000" stroke="none" 
	d="
M31.887920,260.252075 
	C41.966255,259.718079 52.109634,259.445404 62.242790,259.658600 
	C63.797508,259.691315 65.899162,261.650391 66.742317,263.248932 
	C74.882256,278.681793 82.883316,294.189575 90.744919,309.766388 
	C92.995483,314.225616 95.745560,317.867096 101.116280,317.755432 
	C106.707275,317.639160 109.521820,313.922607 111.321602,308.972321 
	C113.476891,303.044220 115.979706,297.242432 118.892746,291.306091 
	C132.433746,308.646454 146.211533,325.272949 162.283997,340.083069 
	C178.110550,354.666595 195.101730,367.510803 213.466003,378.562469 
	C220.661087,382.892487 228.430984,386.267365 236.032318,390.480164 
	C236.476395,400.289307 239.535370,404.237610 247.602524,404.510864 
	C255.712250,404.785614 263.843719,404.418732 272.359924,404.463745 
	C278.729980,404.493225 284.705688,404.392029 290.724640,404.732666 
	C290.740082,411.733002 290.712311,418.291473 290.684570,424.849945 
	C276.628723,434.609497 262.666901,444.508087 248.490585,454.089386 
	C234.344666,463.650146 219.966583,463.628571 205.653381,454.226166 
	C158.592896,423.311737 115.058968,388.194397 76.476624,347.017822 
	C53.873325,322.894653 38.693417,295.102600 32.144466,262.659851 
	C32.013424,262.010681 32.011684,261.335388 31.887920,260.252075 
z"/>
<path fill="#FFF5F5" opacity="1.000000" stroke="none" 
	d="
M290.681427,404.290802 
	C284.705688,404.392029 278.729980,404.493225 272.248535,404.183899 
	C267.193909,400.867004 265.854034,396.617615 265.940094,391.388275 
	C266.134583,379.567078 266.319672,367.728363 265.872131,355.920929 
	C265.634460,349.650848 267.850250,345.353851 273.437317,342.145996 
	C279.565460,342.034943 285.227570,341.984161 291.364594,341.954346 
	C297.828400,341.983826 303.817871,342.048157 309.806061,341.985992 
	C316.399475,341.917511 319.952576,338.387604 320.001007,331.783569 
	C320.071777,322.135132 320.301697,312.474884 319.924103,302.840820 
	C319.672607,296.422974 321.561462,291.484589 327.441071,287.896088 
	C332.729370,287.833466 337.555817,287.804565 342.379852,287.898956 
	C349.114349,288.030701 352.899872,291.708252 353.002136,298.424530 
	C353.123718,306.410339 353.036652,314.399323 353.038361,322.386932 
	C353.039734,328.820282 353.038605,335.253632 353.038605,341.886719 
	C363.094879,341.886719 372.544159,341.886719 382.458496,341.947266 
	C386.716736,342.029114 390.523132,342.260010 394.299896,342.021606 
	C399.718170,341.679596 403.923706,343.539886 406.985840,348.008606 
	C407.111847,363.309357 407.369263,378.610687 407.303070,393.910583 
	C407.274170,400.593658 403.390717,404.130066 396.457489,404.195740 
	C383.980164,404.313995 371.500977,404.236450 359.022583,404.240540 
	C357.225464,404.241119 355.428345,404.240631 353.037933,404.240631 
	C353.037933,410.973358 353.038177,417.235840 353.037872,423.498291 
	C353.037476,431.484497 353.092468,439.471191 353.019562,447.456726 
	C352.953583,454.684814 349.222900,458.498718 341.952087,458.724884 
	C336.964996,458.880066 331.970490,458.795502 326.424225,458.452209 
	C321.386505,454.682465 319.908569,450.057190 319.983185,444.582886 
	C320.118988,434.619446 320.053009,424.652649 320.007233,414.687561 
	C319.976929,408.085114 316.586365,404.279541 310.095062,404.092285 
	C303.631134,403.905853 297.153198,404.204742 290.681427,404.290802 
z"/>
<path fill="#D4F1FE" opacity="1.000000" stroke="none" 
	d="
M290.724640,404.732666 
	C297.153198,404.204742 303.631134,403.905853 310.095062,404.092285 
	C316.586365,404.279541 319.976929,408.085114 320.007233,414.687561 
	C320.053009,424.652649 320.118988,434.619446 319.983185,444.582886 
	C319.908569,450.057190 321.386505,454.682465 325.962646,458.400604 
	C317.628418,458.791565 309.196014,459.069946 300.774506,458.876312 
	C294.840637,458.739838 291.076965,454.601898 290.970459,448.614563 
	C290.835175,441.009033 290.889313,433.400085 290.773193,425.321289 
	C290.712311,418.291473 290.740082,411.733002 290.724640,404.732666 
z"/>
<path fill="#42C0F9" opacity="1.000000" stroke="none" 
	d="
M407.330292,347.969666 
	C403.923706,343.539886 399.718170,341.679596 394.299896,342.021606 
	C390.523132,342.260010 386.716736,342.029114 382.587769,341.645081 
	C395.392426,326.137878 406.733551,309.874237 413.623596,290.842255 
	C416.220123,297.491241 418.782227,304.153931 421.425903,310.784119 
	C423.036194,314.822693 426.156525,317.075531 430.713989,318.033630 
	C426.148376,325.151703 421.394409,332.286957 416.232635,339.113892 
	C413.781189,342.356171 410.551758,345.010223 407.330292,347.969666 
z"/>
<path fill="#F44545" opacity="1.000000" stroke="none" 
	d="
M413.690002,290.457520 
	C406.733551,309.874237 395.392426,326.137878 382.122681,341.584534 
	C372.544159,341.886719 363.094879,341.886719 353.038605,341.886719 
	C353.038605,335.253632 353.039734,328.820282 353.038361,322.386932 
	C353.036652,314.399323 353.123718,306.410339 353.002136,298.424530 
	C352.899872,291.708252 349.114349,288.030701 342.379852,287.898956 
	C337.555817,287.804565 332.729370,287.833466 326.983002,287.802002 
	C318.092651,287.780975 310.122375,287.684418 302.154144,287.772644 
	C294.384033,287.858673 290.975006,291.313873 290.938995,299.096588 
	C290.872925,313.375305 290.900940,327.654419 290.889709,341.933380 
	C285.227570,341.984161 279.565460,342.034943 272.976196,342.065308 
	C264.558014,342.030701 257.066956,342.003937 249.575867,342.005341 
	C239.731888,342.007172 236.248886,345.584534 236.191223,355.639923 
	C236.125412,367.119141 236.024673,378.598114 235.939102,390.077209 
	C228.430984,386.267365 220.661087,382.892487 213.466003,378.562469 
	C195.101730,367.510803 178.110550,354.666595 162.283997,340.083069 
	C146.211533,325.272949 132.433746,308.646454 119.147888,291.056000 
	C125.999382,272.635498 133.156464,254.385193 140.313553,236.134888 
	C140.711594,236.105545 141.109650,236.076187 141.507706,236.046844 
	C143.140137,240.246078 144.772583,244.445297 146.250549,249.402374 
	C144.399612,254.956177 141.614532,259.662842 141.212418,264.564941 
	C140.042572,278.826233 151.196060,290.685150 165.111160,290.998138 
	C179.409927,291.319733 190.893112,280.375488 191.000381,266.324036 
	C191.110580,251.887741 179.960022,240.942612 165.267639,241.065369 
	C160.531433,229.378098 155.727310,217.717667 151.092270,205.990402 
	C149.225082,201.266205 146.479584,197.909576 140.987411,197.910339 
	C135.488129,197.911118 132.773544,201.290558 130.904160,206.011139 
	C122.594109,226.995560 114.170586,247.935028 105.434372,268.785736 
	C101.655540,261.664490 98.168129,254.677887 94.815987,247.626953 
	C79.593849,215.608643 71.976692,181.866150 71.982796,146.408295 
	C91.318733,133.302200 112.866356,127.346611 136.922272,126.600113 
	C171.860397,126.560524 201.686905,137.710709 226.928787,160.628967 
	C227.820831,159.988342 228.387131,159.649353 228.875381,159.221344 
	C260.977173,131.080612 298.349670,121.294266 339.886475,129.208694 
	C374.968414,135.893219 401.813019,154.664246 416.558044,188.183029 
	C426.640930,211.103775 426.678589,235.069977 422.358276,259.281708 
	C419.490997,269.545410 416.623718,279.809082 413.690002,290.457520 
M332.897858,164.479263 
	C326.795532,164.763229 320.550323,164.312103 314.616974,165.465439 
	C294.774353,169.322525 290.607971,179.841690 301.899841,196.800674 
	C311.720398,211.549957 324.888947,222.952408 339.221161,233.055984 
	C348.208282,239.391495 357.598114,245.065933 368.666534,247.151810 
	C377.075043,248.736404 382.136993,246.010086 384.841217,237.927948 
	C387.306396,230.560150 387.445618,223.059036 386.185272,215.322021 
	C381.596100,187.149643 361.542419,167.630524 332.897858,164.479263 
z"/>
<path fill="#40C1F9" opacity="1.000000" stroke="none" 
	d="
M422.545105,259.543335 
	C426.678589,235.069977 426.640930,211.103775 416.558044,188.183029 
	C401.813019,154.664246 374.968414,135.893219 339.886475,129.208694 
	C298.349670,121.294266 260.977173,131.080612 228.875381,159.221344 
	C228.387131,159.649353 227.820831,159.988342 226.928787,160.628967 
	C201.686905,137.710709 171.860397,126.560524 137.361084,126.464203 
	C145.193756,116.382133 153.484863,106.436409 162.270218,96.248550 
	C171.733032,98.585831 171.174942,109.040131 177.846420,114.404060 
	C179.000854,112.500687 180.205139,110.952194 180.952042,109.207863 
	C184.152847,101.732704 189.126251,96.134438 196.819733,93.022156 
	C198.702789,92.260391 200.231659,90.623108 201.923370,89.388351 
	C200.265503,87.923752 198.720123,86.298309 196.918930,85.038620 
	C195.020126,83.710678 192.751816,82.905319 190.877029,81.550468 
	C189.106033,80.270630 187.636581,78.573563 186.034485,77.060028 
	C196.693939,71.704552 207.075623,65.662598 218.097519,61.202858 
	C227.538132,57.382942 237.712006,55.375229 247.640976,53.097527 
	C243.772461,56.035789 246.076721,57.395359 248.582092,58.687557 
	C255.496902,62.254005 262.733032,65.339005 265.559265,73.680344 
	C266.473358,76.378212 268.363647,78.745316 269.753357,81.169456 
	C270.813812,80.717690 271.281525,80.671997 271.391418,80.449524 
	C276.333191,70.447189 282.528961,61.793324 293.713959,57.840572 
	C296.153015,56.978615 295.407715,55.014160 293.383331,53.771980 
	C291.561188,52.653889 289.765930,51.491985 287.958801,50.349400 
	C291.121094,49.922390 294.346466,48.858227 297.436249,49.163925 
	C343.965820,53.767410 383.196411,73.190369 414.412903,108.061768 
	C437.541809,133.898636 451.094696,164.442596 456.837921,198.531616 
	C457.497681,202.447876 457.875183,206.411667 458.648621,210.629303 
	C449.779236,233.777603 440.644836,256.650024 430.961060,280.898041 
	C427.861542,272.953247 425.296753,266.379089 422.545105,259.543335 
z"/>
<path fill="#D63131" opacity="1.000000" stroke="none" 
	d="
M71.681946,146.508575 
	C71.976692,181.866150 79.593849,215.608643 94.815987,247.626953 
	C98.168129,254.677887 101.655540,261.664490 105.190598,269.061188 
	C103.616768,273.883698 101.933014,278.325714 99.887093,283.723236 
	C93.853233,271.975494 87.897758,261.439148 82.971245,250.441803 
	C79.264580,242.167480 73.992386,238.712540 64.822418,239.243011 
	C53.224422,239.913986 41.555546,239.359741 29.461571,239.217392 
	C28.388435,223.040863 29.806984,207.292404 35.611530,192.108505 
	C42.835438,173.211716 54.743946,158.069534 71.681946,146.508575 
z"/>
<path fill="#FBF4F5" opacity="1.000000" stroke="none" 
	d="
M287.617432,50.211258 
	C289.765930,51.491985 291.561188,52.653889 293.383331,53.771980 
	C295.407715,55.014160 296.153015,56.978615 293.713959,57.840572 
	C282.528961,61.793324 276.333191,70.447189 271.391418,80.449524 
	C271.281525,80.671997 270.813812,80.717690 269.753357,81.169456 
	C268.363647,78.745316 266.473358,76.378212 265.559265,73.680344 
	C262.733032,65.339005 255.496902,62.254005 248.582092,58.687557 
	C246.076721,57.395359 243.772461,56.035789 247.866699,53.351273 
	C259.865875,50.195980 264.981384,40.431137 270.015045,29.958067 
	C276.533569,37.018642 277.205078,47.696648 287.617432,50.211258 
z"/>
<path fill="#067BAE" opacity="1.000000" stroke="none" 
	d="
M185.765411,76.841248 
	C187.636581,78.573563 189.106033,80.270630 190.877029,81.550468 
	C192.751816,82.905319 195.020126,83.710678 196.918930,85.038620 
	C198.720123,86.298309 200.265503,87.923752 201.923370,89.388351 
	C200.231659,90.623108 198.702789,92.260391 196.819733,93.022156 
	C189.126251,96.134438 184.152847,101.732704 180.952042,109.207863 
	C180.205139,110.952194 179.000854,112.500687 177.846420,114.404060 
	C171.174942,109.040131 171.733032,98.585831 162.416122,95.939278 
	C158.799255,93.751755 155.530731,91.631371 150.559067,88.406113 
	C164.099945,84.138718 172.222534,75.580246 176.543808,63.203182 
	C177.060043,63.433918 177.576279,63.664654 178.092514,63.895390 
	C180.560471,68.137749 183.028412,72.380112 185.765411,76.841248 
z"/>
<path fill="#B02828" opacity="1.000000" stroke="none" 
	d="
M165.309204,241.409821 
	C179.960022,240.942612 191.110580,251.887741 191.000381,266.324036 
	C190.893112,280.375488 179.409927,291.319733 165.111160,290.998138 
	C151.196060,290.685150 140.042572,278.826233 141.212418,264.564941 
	C141.614532,259.662842 144.399612,254.956177 146.164948,249.756500 
	C147.922668,253.077911 149.632736,256.793640 151.295502,260.530396 
	C154.065643,266.755768 159.343155,269.267914 164.844254,266.945190 
	C170.093216,264.728943 172.175735,259.270844 169.940155,253.245712 
	C168.505737,249.379852 166.886932,245.582397 165.309204,241.409821 
z"/>
<path fill="#D6EEFB" opacity="1.000000" stroke="none" 
	d="
M236.032333,390.480133 
	C236.024673,378.598114 236.125412,367.119141 236.191223,355.639923 
	C236.248886,345.584534 239.731888,342.007172 249.575867,342.005341 
	C257.066956,342.003937 264.558014,342.030701 272.510223,342.125610 
	C267.850250,345.353851 265.634460,349.650848 265.872131,355.920929 
	C266.319672,367.728363 266.134583,379.567078 265.940094,391.388275 
	C265.854034,396.617615 267.193909,400.867004 271.854218,404.053192 
	C263.843719,404.418732 255.712250,404.785614 247.602524,404.510864 
	C239.535370,404.237610 236.476395,400.289307 236.032333,390.480133 
z"/>
<path fill="#D5F1FE" opacity="1.000000" stroke="none" 
	d="
M291.364594,341.954346 
	C290.900940,327.654419 290.872925,313.375305 290.938995,299.096588 
	C290.975006,291.313873 294.384033,287.858673 302.154144,287.772644 
	C310.122375,287.684418 318.092651,287.780975 326.520081,287.890747 
	C321.561462,291.484589 319.672607,296.422974 319.924103,302.840820 
	C320.301697,312.474884 320.071777,322.135132 320.001007,331.783569 
	C319.952576,338.387604 316.399475,341.917511 309.806061,341.985992 
	C303.817871,342.048157 297.828400,341.983826 291.364594,341.954346 
z"/>
<path fill="#FC7979" opacity="1.000000" stroke="none" 
	d="
M333.326843,164.604187 
	C361.542419,167.630524 381.596100,187.149643 386.185272,215.322021 
	C387.445618,223.059036 387.306396,230.560150 384.841217,237.927948 
	C382.136993,246.010086 377.075043,248.736404 368.666534,247.151810 
	C357.598114,245.065933 348.208282,239.391495 339.221161,233.055984 
	C324.888947,222.952408 311.720398,211.549957 301.899841,196.800674 
	C290.607971,179.841690 294.774353,169.322525 314.616974,165.465439 
	C320.550323,164.312103 326.795532,164.763229 333.326843,164.604187 
z"/>
</svg>