<svg width="512" height="512" xmlns="http://www.w3.org/2000/svg" xml:space="preserve" enable-background="new 0 0 512 512" version="1.1">

 <g>
  <title>Layer 1</title>
  <path id="svg_1" d="m257,1c10.35422,0 20.70847,0 31.22278,0.36426c1.00009,0.78689 1.79706,1.4157 2.68652,1.60116c12.93952,2.69805 26.02045,4.83277 38.81037,8.10689c19.54947,5.00453 37.75573,13.4149 55.30072,23.37443c15.26171,8.66342 29.68231,18.59452 42.27746,30.68117c11.86157,11.38272 22.97098,23.66397 33.45612,36.34003c16.64953,20.12857 28.56253,43.05339 37.31997,67.66606c6.23755,17.53054 11.19809,35.32376 13.00565,53.91074c0.06876,0.70732 1.25494,1.30597 1.92041,1.95526c0,21.02089 0,42.04178 -0.36414,63.2229c-0.78674,0.99988 -1.40994,1.79624 -1.60189,2.6857c-2.98856,13.84726 -5.37329,27.85202 -9.0029,41.52701c-4.74918,17.8931 -12.42905,34.65509 -21.60218,50.7774c-9.00442,15.82587 -19.30484,30.7363 -31.49954,44.17157c-16.79059,18.49872 -35.23636,35.36502 -56.97256,47.87918c-14.13013,8.13513 -28.91852,15.34937 -43.99491,21.56156c-18.35241,7.56204 -37.57736,12.55765 -57.50766,14.27145c-0.53534,0.04602 -0.97171,1.24295 -1.45422,1.90323c-10.35422,0 -20.70847,0 -31.53137,-0.46863c-0.47714,-10.14191 -0.48563,-19.81515 -0.02411,-29.50488c11.02466,-0.71704 21.68414,-0.71002 32.11362,-2.2554c27.44992,-4.06729 53.46127,-12.77085 77.68234,-26.44815c17.5647,-9.91858 33.85574,-21.57288 48.12762,-36.40601c6.80588,-7.70923 13.3183,-15.26306 20.11811,-22.9841c10.61001,-12.56381 18.66629,-26.35956 25.64264,-41.24075c4.04916,-11.08289 7.91299,-21.86145 12.0697,-32.8635c7.35116,-19.4808 9.11102,-39.67508 9.56018,-59.86093c0.2933,-13.18255 -0.89935,-26.537 -2.83774,-39.60513c-6.595,-44.46144 -25.76437,-83.20551 -55.72562,-116.47717c-18.95529,-21.04966 -41.32611,-37.80093 -66.84359,-50.41987c-31.67682,-15.66487 -65.10782,-23.2756 -100.34378,-23.92178c-0.00498,-10.16088 -0.00647,-19.85229 -0.008,-29.5437z" fill="#CCEEFF"/>
  <path id="svg_2" d="m256.97449,483.043c0.00851,9.67322 0.017,19.34646 0.02551,29.48837c-10.35423,0.46863 -20.70845,0.46863 -31.22195,0.10437c-1.1653,-0.78766 -2.13596,-1.42999 -3.18303,-1.59909c-7.03826,-1.13669 -14.21002,-1.68112 -21.12105,-3.32931c-25.57443,-6.09913 -50.43056,-14.43354 -72.72161,-28.62699c-14.55708,-9.26895 -29.07144,-18.99099 -41.97592,-30.35925c-12.5396,-11.04681 -23.73855,-23.86301 -34.20452,-36.95853c-16.04717,-20.07901 -28.11307,-42.59292 -36.63655,-66.94763c-6.19172,-17.69201 -11.42391,-35.58017 -13.03041,-54.3645c-0.04566,-0.53388 -1.24407,-0.96918 -1.90496,-1.45044c0,-21.35422 0,-42.70845 0.36153,-64.22583c1.44913,-5.155 2.74267,-10.11227 3.58809,-15.14481c3.37305,-20.07879 9.56268,-39.29936 17.77764,-57.85743c10.26015,-23.17829 23.57557,-44.64982 40.66147,-63.26113c12.56143,-13.68293 26.40206,-26.447 40.99796,-37.93698c15.52167,-12.21874 32.8934,-21.96478 51.29677,-29.52432c21.3614,-8.77462 43.29167,-15.51206 66.35148,-18.12631c0.71846,-0.08145 1.31284,-1.25746 1.96506,-1.92319c10.68756,0 21.37512,0 32.53134,0c0.47019,9.69141 0.47168,19.38282 0.47238,29.53771c-0.00082,0.46348 0.00931,0.47348 -0.45779,0.46963c-12.33894,0.99574 -24.28583,1.46114 -36.06564,3.11586c-19.32013,2.71391 -37.8884,8.4385 -55.6521,16.50907c-33.22856,15.09674 -61.42778,36.69901 -84.31104,65.26785c-19.39171,24.20977 -33.50086,51.16813 -41.27399,81.0859c-3.72258,14.32776 -5.10947,29.28162 -7.25004,43.99616c-2.48488,17.08133 -0.89906,34.10263 1.90502,50.98593c1.62495,9.78384 4.08371,19.42923 6.17567,29.50613c4.6085,11.44995 9.20857,22.5307 13.86744,33.96698c6.96446,15.19391 15.43192,29.05194 26.12355,41.91138c6.75423,7.40109 13.3439,14.50797 20.07462,21.91879c11.93569,12.15229 25.13479,22.22089 39.45251,30.78363c36.1505,21.61985 75.13923,33.23401 117.44585,32.90555c-0.01422,0.03211 -0.06326,0.08243 -0.06329,0.08243z" fill="#E6FBFF"/>
  <path id="svg_7" d="m257.00717,31.00718c35.23679,0.1827 68.66779,7.79343 100.34461,23.4583c25.51748,12.61894 47.8883,29.37021 66.84359,50.41987c29.96125,33.27166 49.13062,72.01573 55.72562,116.47717c1.93839,13.06813 3.13104,26.42258 2.83774,39.60513c-0.44916,20.18585 -2.20902,40.38013 -9.89362,59.99704c-14.698,6.54111 -27.17758,4.27188 -38.69586,-5.97919c-9.33969,-8.31216 -20.2269,-13.45651 -32.91351,-15.2359c-19.95108,-2.79831 -37.42176,1.6724 -52.69434,14.99927c-15.031,13.11609 -32.96869,13.83499 -46.48361,1.71725c-12.91797,-11.58251 -27.46777,-18.42095 -45.11032,-17.9924c0.00638,-10.11221 -0.00501,-19.76177 0.4303,-29.43319c8.41299,-1.39621 16.65054,-1.90497 24.29684,-4.30072c27.37637,-8.57767 44.81778,-26.92024 51.34164,-55.06438c2.40961,-10.39526 2.26426,-20.8992 1.17029,-31.58057c-1.68677,-16.47012 -6.91089,-31.71304 -14.41562,-46.18531c-12.83001,-24.74157 -30.15869,-46.14683 -50.63363,-64.93736c-3.20356,-2.94002 -8.08521,-4.0515 -12.18018,-6.47476c0.01917,-10.13959 0.02753,-19.81292 0.03592,-29.48624c0,0 -0.01013,-0.01 -0.00586,-0.00401z" fill="#99DDFF"/>
  <path id="svg_8" d="m460.94348,353.99637c-6.79098,14.5769 -14.84726,28.37265 -25.79223,40.7977c-1.35111,-0.37442 -2.17005,-0.66999 -2.79511,-1.19596c-12.8201,-10.78729 -27.60144,-15.27664 -44.30191,-14.69693c-14.767,0.51258 -27.67059,5.39338 -38.55768,15.17041c-15.72668,14.12323 -33.46264,14.37912 -49.61667,0.34668c-12.27447,-10.66241 -26.68847,-15.8056 -42.85077,-16.85485c-0.03726,-16.81781 -0.05841,-33.16346 0.33741,-49.5188c8.58419,1.04788 16.10913,3.2146 22.50253,9.06732c11.33377,10.37536 24.90909,16.80688 40.2294,17.70242c18.31641,1.07065 34.5867,-5.01959 48.17007,-17.60156c12.00537,-11.12024 32.48185,-11.69388 44.5911,-0.75937c13.72519,12.39371 29.4638,18.79797 48.08386,17.54294z" fill="#80AAFF"/>
  <path id="svg_9" d="m461.12885,353.69208c-18.80543,1.55932 -34.54404,-4.84494 -48.26923,-17.23865c-12.10925,-10.93451 -32.58573,-10.36087 -44.5911,0.75937c-13.58337,12.58197 -29.85366,18.67221 -48.17007,17.60156c-15.32031,-0.89554 -28.89563,-7.32706 -40.2294,-17.70242c-6.3934,-5.85272 -13.91834,-8.01944 -22.49414,-9.07208c-0.40854,0.00491 -0.42621,0.00943 -0.40854,-0.46372c0.03641,-9.82373 0.05518,-19.17432 0.04791,-28.55096c-0.02603,-0.02606 -0.06463,-0.08884 -0.06463,-0.08884c17.66037,-0.89117 32.21017,5.94727 45.12814,17.52978c13.51492,12.11774 31.45261,11.39884 46.48361,-1.71725c15.27258,-13.32687 32.74326,-17.79758 52.69434,-14.99927c12.68661,1.77939 23.57382,6.92374 32.91351,15.2359c11.51828,10.25107 23.99786,12.5203 38.40298,6.20267c-3.53039,10.64246 -7.39422,21.42102 -11.44338,32.50391z" fill="#8080FF"/>
  <path id="svg_10" d="m415.07465,418.0723c-13.97843,14.67776 -30.26947,26.33206 -47.83417,36.25064c-24.22107,13.6773 -50.23242,22.38086 -77.68234,26.44815c-10.42948,1.54538 -21.08896,1.53836 -32.11362,2.2554c-0.47,0.01651 -0.42096,-0.03381 -0.42462,-0.52759c-0.02555,-25.14447 -0.04746,-49.79517 0.35064,-74.45526c10.39142,0.39133 18.26999,5.17456 25.68409,11.43796c22.05313,18.63031 52.1586,20.65072 76.27136,4.59182c3.99023,-2.65747 7.52676,-5.98712 11.35724,-8.8952c12.17419,-9.24261 30.80847,-9.32647 44.39142,2.89408z" fill="#80AAFF"/>
  <path id="svg_11" d="m415.3681,417.91693c-13.8764,-12.06518 -32.51068,-11.98132 -44.68487,-2.73871c-3.83048,2.90808 -7.36701,6.23773 -11.35724,8.8952c-24.11276,16.0589 -54.21823,14.03849 -76.27136,-4.59182c-7.4141,-6.2634 -15.29267,-11.04663 -25.67548,-11.44297c-0.41141,0.0044 -0.42883,0.00931 -0.41171,-0.46371c0.03439,-10.15906 0.05166,-19.84509 0.06418,-29.5375c-0.00476,-0.00638 0.01364,-0.00184 0.01364,-0.00184c16.14615,0.57709 30.56015,5.72028 42.83462,16.38269c16.15403,14.03244 33.88999,13.77655 49.61667,-0.34668c10.88709,-9.77703 23.79068,-14.65783 38.55768,-15.17041c16.70047,-0.57971 31.48181,3.90964 44.30191,14.69693c0.62506,0.52597 1.444,0.82154 2.50769,1.36313c-6.17743,7.69263 -12.68985,15.24646 -19.49573,22.95569z" fill="#8080FF"/>
  <path id="svg_12" d="m256.95108,269.06235c0.01138,9.6496 0.02277,19.29916 0.01639,29.41137c-0.01782,0.46262 0.02078,0.5254 -0.41864,0.53287c-4.24486,0.19534 -8.1062,0.03464 -11.84551,0.63452c-12.71417,2.03959 -23.12887,8.59186 -32.72229,16.87699c-12.17688,10.51626 -31.46815,10.1835 -43.44197,-0.5163c-9.60565,-8.58362 -20.36918,-14.39142 -33.40242,-16.23962c-20.43038,-2.89722 -38.53713,1.31723 -53.95886,15.46096c-7.45066,6.83323 -16.28949,10.44803 -26.36195,9.61664c-4.98561,-0.41147 -9.83786,-2.43863 -14.75045,-3.73477c-2.08353,-9.70767 -4.54229,-19.35306 -6.16724,-29.1369c-2.80408,-16.8833 -4.3899,-33.9046 -1.90502,-50.98593c2.14057,-14.71454 3.52746,-29.6684 7.25004,-43.99616c7.77313,-29.91777 21.88228,-56.87613 41.27399,-81.0859c22.88326,-28.56884 51.08248,-50.17111 84.31104,-65.26785c17.7637,-8.07057 36.33197,-13.79516 55.6521,-16.50907c11.77981,-1.65472 23.7267,-2.12012 36.06564,-3.11586c0.45871,9.67717 0.45035,19.3505 0.45279,29.52106c0.0108,0.49723 0.05942,0.55496 -0.33637,0.53673c-4.0612,1.73758 -8.57368,2.66549 -11.24211,5.39572c-10.32785,10.567 -20.59175,21.28228 -29.9078,32.73288c-15.00611,18.44437 -26.47213,38.99633 -33.10204,62.00441c-5.59065,19.40149 -6.42998,38.97943 0.88034,57.97334c12.77861,33.2017 41.58116,48.63339 73.72446,49.80209c-0.02591,0.02603 -0.06412,0.08878 -0.06412,0.08878z" fill="#CCEEFF"/>
  <path id="svg_13" d="m256.95798,328.04953c0.01272,16.35043 0.03387,32.69608 0.07113,49.51389c0.01615,0.47216 -0.00225,0.46762 -0.43063,0.46939c-17.26517,0.90554 -31.80916,7.06512 -44.48468,18.27304c-12.49617,11.04938 -31.89212,10.28112 -44.22163,-0.74707c-4.41207,-3.94641 -9.43775,-7.35532 -14.59093,-10.29511c-12.40294,-7.0755 -26.25894,-7.74045 -39.74655,-5.85623c-12.89691,1.8017 -24.88895,7.1008 -33.65444,17.65091c-10.52708,-12.56519 -18.99454,-26.42322 -25.49173,-41.65143c17.14162,-0.26089 32.81612,-4.49444 44.65195,-16.38962c12.7895,-12.85363 36.59528,-13.9385 51.1117,0.40818c9.6426,9.52984 22.29451,13.65542 35.71034,14.49408c16.85852,1.05386 32.2711,-3.20371 45.27173,-14.43763c7.47636,-6.46032 15.66508,-11.07385 25.79446,-11.43264c0,0 0.01767,-0.00452 0.00928,0.00024z" fill="#99DDFF"/>
  <path id="svg_14" d="m256.96637,327.57614c-10.14705,0.83194 -18.33577,5.44547 -25.81213,11.90579c-13.00063,11.23392 -28.41321,15.49149 -45.27173,14.43763c-13.41583,-0.83866 -26.06774,-4.96424 -35.71034,-14.49408c-14.51642,-14.34668 -38.3222,-13.26181 -51.1117,-0.40818c-11.83583,11.89518 -27.51033,16.12873 -44.71076,16.03406c-5.06733,-11.04642 -9.6674,-22.12717 -14.2759,-33.57712c4.90416,0.92691 9.75641,2.95407 14.74202,3.36554c10.07246,0.83139 18.91129,-2.78341 26.36195,-9.61664c15.42173,-14.14373 33.52848,-18.35818 53.95886,-15.46096c13.03324,1.8482 23.79677,7.656 33.40242,16.23962c11.97382,10.6998 31.26509,11.03256 43.44197,0.5163c9.59342,-8.28513 20.00812,-14.8374 32.72229,-16.87699c3.73931,-0.59988 7.60065,-0.43918 11.87151,-0.60846c0.44672,9.36917 0.42795,18.71976 0.39154,28.54349z" fill="#80AAFF"/>
  <path id="svg_15" d="m256.95914,408.04804c0.0133,24.65569 0.03521,49.30639 0.07501,74.41876c-42.30299,0.82223 -81.29172,-10.79193 -117.44222,-32.41178c-14.31772,-8.56274 -27.51682,-18.63134 -39.29988,-31.08151c9.23744,-10.44342 20.87073,-11.37985 33.13802,-9.21912c7.9012,1.3917 13.07434,7.47507 19.2298,11.94715c24.98707,18.15365 58.18724,16.39828 81.29142,-4.3082c6.67841,-5.98532 14.35175,-8.64719 22.99903,-9.3454c0,0 0.01742,-0.00491 0.00882,0.0001z" fill="#99DDFF"/>
  <path id="svg_16" d="m256.96744,407.57492c-8.6644,1.17123 -16.33774,3.8331 -23.01615,9.81842c-23.10418,20.70648 -56.30435,22.46185 -81.29142,4.3082c-6.15546,-4.47208 -11.3286,-10.55545 -19.2298,-11.94715c-12.26729,-2.16073 -23.90058,-1.2243 -33.27908,8.91517c-6.74229,-6.80899 -13.33196,-13.91587 -20.08619,-21.31696c8.60094,-10.84436 20.59298,-16.14346 33.48989,-17.94516c13.48761,-1.88422 27.34361,-1.21927 39.74655,5.85623c5.15318,2.93979 10.17886,6.3487 14.59093,10.29511c12.32951,11.02819 31.72546,11.79645 44.22163,0.74707c12.67552,-11.20792 27.21951,-17.3675 44.48941,-18.26667c0.41589,9.69065 0.39862,19.37668 0.36423,29.53574z" fill="#80AAFF"/>
  <path id="svg_17" d="m256.98795,60.99466c4.08413,1.92603 8.96578,3.03751 12.16934,5.97753c20.47494,18.79053 37.80362,40.19579 50.63363,64.93736c7.50473,14.47227 12.72885,29.71519 14.41562,46.18531c1.09397,10.68137 1.23932,21.18531 -1.17029,31.58057c-6.52386,28.14414 -23.96527,46.48671 -51.34164,55.06438c-7.6463,2.39575 -15.88385,2.90451 -24.29684,4.30072c-0.44669,0.02182 -0.40848,-0.04093 -0.3971,-0.53076c0.02673,-69.46868 0.04208,-138.44754 0.05747,-207.42641c0,0 -0.04862,-0.05773 -0.07019,-0.0887z" fill="#8080FF"/>
  <path id="svg_18" d="m256.66235,61.06513c0.3804,68.9971 0.36505,137.97596 0.36423,207.41864c-32.15468,-0.6789 -60.95723,-16.11059 -73.73584,-49.31229c-7.31032,-18.99391 -6.47099,-38.57185 -0.88034,-57.97334c6.62991,-23.00808 18.09593,-43.56004 33.10204,-62.00441c9.31605,-11.4506 19.57995,-22.16588 29.9078,-32.73288c2.66843,-2.73023 7.18091,-3.65814 11.24211,-5.39572z" fill="#80AAFF"/>
 </g>
</svg>