<svg width="512" height="512" xmlns="http://www.w3.org/2000/svg" xml:space="preserve" enable-background="new 0 0 512 512" version="1.1">

 <g>
  <title>Layer 1</title>
  <path id="svg_1" d="m279,513c-14.35422,0 -28.70845,0 -43.71248,-0.39062c-8.73585,-1.46012 -16.83844,-2.41862 -24.90481,-3.62015c-22.59369,-3.36551 -43.93966,-10.80457 -64.4446,-20.60944c-20.47775,-9.79184 -39.27663,-22.17435 -56.40678,-37.19873c-15.4344,-13.53708 -29.44328,-28.33038 -41.42067,-44.94052c-13.22127,-18.33517 -23.85452,-38.19949 -31.62755,-59.42523c-6.58043,-17.96918 -11.53302,-36.42764 -13.52209,-55.57086c-0.42653,-4.10508 -1.29574,-8.16419 -1.96102,-12.24445c0,-14.35422 0,-28.70845 0.39064,-43.71248c1.46009,-8.73578 2.4186,-16.8383 3.62013,-24.9046c3.36551,-22.5937 10.80444,-43.93973 20.60934,-64.44467c9.79189,-20.47772 22.17431,-39.27667 37.19869,-56.40681c13.53711,-15.4344 28.33044,-29.4433 44.94052,-41.42076c18.33513,-13.22136 38.19959,-23.85448 59.42533,-31.62753c17.96916,-6.58047 36.42765,-11.53305 55.5709,-13.52213c4.10509,-0.42654 8.16417,-1.29574 12.24445,-1.96102c14.35423,0 28.70847,0 43.71249,0.39065c8.73593,1.4601 16.83857,2.41858 24.905,3.62016c22.59363,3.36554 43.93958,10.80457 64.44446,20.60947c20.47772,9.79186 39.27664,22.1743 56.40671,37.19867c15.43435,13.53711 29.44333,28.33034 41.42068,44.94047c13.22126,18.3352 23.85453,38.19956 31.62757,59.42533c6.58044,17.96914 11.53302,36.42762 13.52212,55.57083c0.42655,4.10506 1.29569,8.16414 1.96097,12.24442c0,4.3569 0,8.71381 -0.2887,13.37112c-1.738,-1.07199 -3.22061,-2.41105 -4.63168,-3.8217c-41.45657,-41.44455 -82.90302,-82.89923 -124.36856,-124.33478c-1.52109,-1.51998 -3.21799,-2.86403 -4.91406,-4.6078c-4.69623,-4.80813 -9.31134,-9.29853 -13.73426,-13.60193c-7.63751,7.63446 -15.15112,15.14511 -23.20034,23.19113c4.88226,4.16161 9.95907,8.48906 15.10687,13.15586c1.43378,1.99193 2.67062,3.77041 4.1777,5.27894c48.40116,48.44719 96.82669,96.87008 145.26038,145.28478c1.40845,1.40784 2.9443,2.68829 4.49621,4.43771c-0.56137,3.17798 -1.19827,5.94635 -2.13095,8.55048c-1.74859,-1.52921 -3.23938,-2.85614 -4.64868,-4.26465c-26.59295,-26.57773 -53.17187,-53.16952 -79.77408,-79.73805c-1.40173,-1.39994 -2.98349,-2.61962 -4.6661,-4.00472c-0.43116,-0.2274 -0.58628,-0.44 -0.806,-1.02398c-1.04114,-1.29639 -1.87995,-2.33446 -2.81824,-3.27308c-48.52634,-48.54164 -97.05966,-97.0763 -145.60449,-145.59944c-1.05304,-1.05257 -2.2482,-1.96293 -3.71369,-3.15218c-3.48474,-0.11697 -6.63284,-0.02139 -10.23559,0.01071c-3.36992,-0.06348 -6.28525,-0.06348 -9.50505,-0.06348c0,10.37357 -0.03038,20.12279 0.04388,29.8712c0.00801,1.05161 0.62323,2.09861 1.09902,3.45851c3.73144,4.18667 7.32066,8.06257 10.63629,12.03381c-0.81284,0.23428 -1.35205,0.37321 -2.34818,0.45322c-8.69551,0.97323 -17.04565,1.46707 -25.15027,3.14611c-18.67001,3.86789 -34.61844,13.3082 -49.26626,25.14504c-3.4692,-3.51768 -6.76081,-6.73439 -10.12348,-10.27821c-7.74855,-7.78492 -15.42601,-15.24271 -22.61064,-22.22179c-4.65921,4.47483 -9.26378,8.89718 -14.13418,13.57487c7.05352,6.96139 14.11683,13.96758 21.24517,20.90696c0.63273,0.61594 1.68903,0.79672 2.62163,1.51198c3.42706,3.79957 6.78111,7.26681 10.04001,11.06131c-9.92477,12.92207 -16.6895,27.00981 -20.54671,42.49487c-3.28308,13.18012 -3.56169,26.56487 -2.85435,39.85825c-6.35639,-6.051 -12.43099,-11.93476 -18.83769,-18.08649c-10.9132,-0.26799 -21.49431,-0.26799 -32.94107,-0.26799c0.42624,7.05488 0.82017,13.5748 1.3328,20.42592c0.83576,1.23542 1.47136,2.22104 2.28167,3.0321c29.81218,29.84036 59.63243,59.67264 89.49849,89.45905c1.11676,1.11377 2.70044,1.75934 4.0361,2.61743c-0.03044,-0.00568 -0.00214,-0.06076 0.01257,0.22595c0.30077,0.76502 0.58682,1.24332 1.08737,2.01831c1.84243,5.01877 3.47036,9.74088 4.74595,14.49585c-1.91178,-1.12448 -3.61358,-2.13296 -5.00652,-3.46451c-6.69418,-6.39917 -13.30496,-12.88559 -20.00597,-19.66708c-4.65809,-4.81537 -9.25558,-9.30466 -13.23961,-13.19492c-7.64054,7.60337 -15.21598,15.14194 -23.18823,23.07541c4.57769,3.95093 9.52724,8.22284 14.54701,12.83588c0.83666,1.40256 1.47562,2.59109 2.38839,3.50665c16.87039,16.92203 33.76413,33.82083 50.69278,50.68457c1.02552,1.02161 2.38346,1.7096 3.67588,3.00922c-1.30394,21.47827 5.60523,38.68542 23.47745,51.23855c0.80792,0.56736 1.42522,0.83896 2.0255,1.09467c-0.017,-0.0159 0.01829,-0.04553 -0.00942,0.30563c1.25434,2.03327 2.36863,3.88141 3.84401,5.37217c16.95491,17.1314 33.96465,34.20861 50.53173,51.37832c-2.81931,0.41681 -5.21058,0.75549 -7.60181,1.09424z" fill="#01579A"/>
  <path id="svg_6" d="m513,278.53134c-0.67621,4.83585 -1.35242,9.20304 -2.10028,13.99133c-1.54807,-0.91876 -3.08392,-2.19921 -4.49237,-3.60705c-48.43369,-48.4147 -96.85922,-96.83759 -145.26038,-145.28478c-1.50708,-1.50853 -2.74392,-3.28701 -4.0314,-5.5905c7.30441,-7.80584 14.53351,-14.96082 21.76257,-22.11578c1.61493,1.42605 3.31183,2.7701 4.83292,4.29008c41.46554,41.43555 82.91199,82.89023 124.36856,124.33478c1.41107,1.41065 2.89368,2.74971 4.63168,4.28636c0.2887,9.85178 0.2887,19.53934 0.2887,29.69556z" fill="#004370"/>
  <path id="svg_7" d="m508.77264,301.90381c-2.84131,13.04803 -5.11685,26.2185 -9.29037,38.75729c-9.40082,28.24353 -23.72589,53.92319 -42.63739,77.03742c-21.09134,25.77847 -45.83594,47.04043 -74.9484,63.40127c-23.68136,13.30863 -48.9197,22.0376 -75.29702,27.80628c-6.17481,1.3504 -12.49362,2.04233 -19.1579,2.9794c-17.40683,-17.14942 -34.41657,-34.22663 -51.37148,-51.35803c-1.47538,-1.49076 -2.58967,-3.3389 -3.49402,-5.30222c7.91576,3.63684 15.78994,6.22629 24.86345,5.93213c27.95279,-0.22067 50.16162,-22.99497 49.98523,-51.1554c-0.05005,-7.9945 -0.05365,-15.98928 0.068,-24.33911c1.78665,-8.98028 3.11328,-17.67923 5.12457,-26.21695c6.47107,-27.46905 18.62585,-52.34634 34.77121,-75.40381c17.84735,-25.48806 25.26584,-53.56135 19.61331,-84.46405c-7.53537,-41.19633 -31.23245,-69.44032 -69.64209,-85.61902c-12.24689,-5.15855 -25.2565,-6.62714 -38.30627,-7.89588c-3.58922,-3.87591 -7.17844,-7.75181 -10.47153,-12.06037c2.99956,-0.44865 5.70296,-0.46465 8.84488,-0.34506c3.36459,0.13557 6.29068,0.13557 9.65112,0.13557c0,-11.26412 0,-21.99856 0,-32.733c1.12888,0.97669 2.32404,1.88705 3.37708,2.93962c48.54483,48.52314 97.07815,97.0578 145.60449,145.59944c0.93829,0.93862 1.7771,1.97669 2.34906,3.32892c-10.57349,0.36058 -20.83371,0.36058 -31.15656,0.36058c0,7.00232 0,13.37847 0,19.80385c10.90091,0 21.47989,0 32.6164,0c0,-6.55726 0,-12.83603 0,-19.11478c1.49795,1.30359 3.07971,2.52327 4.48144,3.92321c26.60221,26.56853 53.18113,53.16032 79.77408,79.73805c1.4093,1.40851 2.90009,2.73544 4.64871,4.26465m-146.66491,12.46698c-1.70771,-2.2215 -3.41538,-4.44296 -5.15287,-6.70319c-5.61035,5.74057 -10.099,10.33344 -13.97055,14.29486c7.40671,7.40754 14.9802,14.98188 22.33939,22.34186c4.17279,-4.08883 8.73422,-8.5585 13.65689,-13.38217c-5.4769,-5.36841 -10.92352,-10.70715 -16.87286,-16.55136z" fill="#004370"/>
  <path id="svg_8" d="m258.77988,106.15846c13.32336,1.17341 26.33297,2.642 38.57986,7.80055c38.40964,16.1787 62.10672,44.42269 69.64209,85.61902c5.65253,30.9027 -1.76596,58.97599 -19.61331,84.46405c-16.14536,23.05747 -28.30014,47.93476 -34.77121,75.40381c-2.01129,8.53772 -3.33792,17.23667 -5.61078,26.14887c-5.81625,0.19409 -10.99975,0.1011 -16.14593,-0.41349c1.55627,-13.92236 3.0025,-27.43176 4.6123,-40.92169c2.10065,-17.60324 4.35312,-35.18832 6.49869,-52.78628c1.90472,-15.62241 3.79678,-31.24665 5.61007,-46.87985c1.18293,-10.19832 2.21531,-20.4141 3.22693,-30.81199c-0.25766,-0.4283 -0.48474,-0.58128 -1.23974,-0.67495c-17.84268,-0.07271 -35.21503,-0.11931 -52.58441,-0.63086c-0.03003,-35.5783 -0.06296,-70.69167 -0.09589,-105.80504c0.53928,-0.13894 1.07849,-0.27787 1.89133,-0.51215z" fill="#FDD500"/>
  <path id="svg_9" d="m256.4317,106.61168c0.48978,35.1723 0.52271,70.28567 0.31494,105.96455c-0.40002,0.63047 -0.55938,0.69544 -1.18593,0.68814c-16.29385,-0.10048 -32.12142,-0.04345 -47.94645,-0.218c-3.86881,-0.04268 -5.04273,1.28929 -4.35565,5.03377c0.77835,4.24179 1.21769,8.54842 1.7319,12.83555c2.1367,17.81458 4.224,35.63509 6.3712,53.44839c2.52466,20.9447 5.07184,41.88671 7.64946,62.82495c1.58275,12.85687 3.24084,25.70449 4.4109,38.63165c-5.78328,0.10318 -11.11233,0.13095 -16.57698,-0.20575c-0.36721,-1.50501 -0.56724,-2.65298 -0.83537,-3.78485c-2.6752,-11.29276 -5.36163,-22.58286 -8.02161,-34.18524c-0.2559,-0.83914 -0.53511,-1.3667 -0.80441,-1.909c0.00989,-0.01474 0.03743,-0.03754 0.03743,-0.03754c-1.62791,-4.72207 -3.25584,-9.44418 -5.08124,-14.75372c-0.50467,-1.06308 -0.81189,-1.53867 -1.11911,-2.01425c0,0 -0.0283,0.05508 -0.00288,-0.31378c-2.39389,-5.64835 -4.44417,-11.13834 -7.30988,-16.16324c-5.83978,-10.23969 -11.72308,-20.49585 -18.30853,-30.25955c-10.33755,-15.32666 -16.5154,-32.10579 -19.46507,-50.21544c-0.98914,-13.46063 -0.71053,-26.84538 2.57255,-40.0255c3.85721,-15.48506 10.62194,-29.5728 20.8445,-42.65445c4.54237,-5.02277 8.69183,-9.55867 12.84129,-14.09457c14.47023,-12.13781 30.41866,-21.57812 49.08867,-25.44601c8.10462,-1.67904 16.45476,-2.17288 25.15027,-3.14611z" fill="#FDE800"/>
  <path id="svg_10" d="m206.98068,385.97943c5.32906,-0.0278 10.65811,-0.05557 16.91837,-0.08304c7.29344,-0.05337 13.65568,-0.10708 20.48273,-0.08316c4.51388,0.14685 8.56295,0.21613 12.60406,0.74784c0.00021,25.13049 0.00842,49.79858 0.0166,74.46664c-8.63644,0.4238 -16.51062,-2.16565 -24.39868,-6.15366c-0.34998,-0.06994 -0.38527,-0.04031 -0.55701,-0.30789c-0.79028,-0.54736 -1.40883,-0.82715 -2.02739,-1.10693c-17.68159,-12.25739 -24.59076,-29.46454 -23.20601,-51.41156c0.05022,-5.97287 0.10878,-11.02054 0.16733,-16.06824z" fill="#FEFEFE"/>
  <path id="svg_11" d="m145.65262,231.81107c3.23147,18.2769 9.40932,35.05603 19.74687,50.38269c6.58545,9.7637 12.46875,20.01986 18.30853,30.25955c2.86571,5.0249 4.91599,10.51489 7.34032,16.16891c-1.36108,-0.48922 -2.94476,-1.13479 -4.06152,-2.24856c-29.86606,-29.78641 -59.68631,-59.61869 -89.49849,-89.45905c-0.81031,-0.81106 -1.44591,-1.79668 -1.82197,-3.10719c10.58965,-0.4063 20.83829,-0.4063 31.48066,-0.4063c0,-6.83085 0,-13.1197 0,-19.40857c6.07461,5.88376 12.14921,11.76752 18.5056,17.81852z" fill="#014470"/>
  <path id="svg_12" d="m206.84509,385.61493c0.07704,5.4122 0.01848,10.45987 -0.12088,15.97632c-1.28409,-0.37445 -2.64203,-1.06244 -3.66755,-2.08405c-16.92865,-16.86374 -33.82239,-33.76254 -50.69278,-50.68457c-0.91277,-0.91556 -1.55173,-2.10409 -2.24378,-3.81576c7.3152,-7.79386 14.55602,-14.93753 21.79683,-22.08121c6.6404,6.45544 13.25118,12.94186 19.94536,19.34103c1.39294,1.33155 3.09474,2.34003 5.00652,3.46451c0.35232,-0.0329 0.32478,-0.0101 0.30563,0.31424c0.2507,0.85321 0.52054,1.38208 0.79039,1.91095c2.68326,11.29083 5.36969,22.58093 8.04489,33.87369c0.26813,1.13187 0.46816,2.27984 0.83537,3.78485z" fill="#014470"/>
  <path id="svg_13" d="m419.68375,213.89639c0.18466,6.36026 0.18466,12.63903 0.18466,19.19629c-11.13651,0 -21.71549,0 -32.6164,0c0,-6.42538 0,-12.80153 0,-19.80385c10.32285,0 20.58307,0 31.3125,-0.05586c0.53296,0.22342 0.68808,0.43602 1.11924,0.66342z" fill="#F6EF9B"/>
  <path id="svg_14" d="m126.81493,213.72458c0.33209,6.55684 0.33209,12.84569 0.33209,19.67654c-10.64237,0 -20.89101,0 -31.59935,0.07511c-0.85364,-6.44484 -1.24757,-12.96476 -1.67381,-20.01964c11.44676,0 22.02787,0 32.94107,0.26799z" fill="#F6F3C2"/>
  <path id="svg_15" d="m158.94064,138.06427c-0.85957,-0.38289 -1.91587,-0.56367 -2.5486,-1.17961c-7.12834,-6.93938 -14.19165,-13.94557 -21.24517,-20.90696c4.8704,-4.67769 9.47497,-9.10004 14.13418,-13.57487c7.18463,6.97908 14.86209,14.43687 22.31773,22.38419c-4.36726,4.7521 -8.51269,9.01468 -12.65814,13.27725z" fill="#FCF7C3"/>
  <path id="svg_16" d="m378.797,115.60684c-7.14792,7.47268 -14.37702,14.62766 -21.75238,22.09418c-5.22315,-4.01592 -10.29996,-8.34337 -15.18222,-12.50498c8.04922,-8.04602 15.56283,-15.55667 23.20034,-23.19113c4.42292,4.3034 9.03803,8.7938 13.73426,13.60193z" fill="#FCF39C"/>
  <path id="svg_17" d="m171.85632,322.59961c-7.1802,7.46973 -14.42102,14.6134 -21.80642,22.06616c-5.09418,-3.96283 -10.04373,-8.23474 -14.62142,-12.18567c7.97225,-7.93347 15.54769,-15.47204 23.18823,-23.07541c3.98403,3.89026 8.58152,8.37955 13.23961,13.19492z" fill="#FCF7C3"/>
  <path id="svg_18" d="m266.74133,60.84771c0.33661,10.947 0.33661,21.68144 0.33661,32.94556c-3.36044,0 -6.28653,0 -9.65851,-0.57338c-0.45025,-11.14826 -0.45465,-21.72313 -0.45907,-32.29798c3.14813,-0.09559 6.29623,-0.19117 9.78097,-0.0742z" fill="#FCF29C"/>
  <path id="svg_19" d="m256.50574,60.85842c0.45904,10.63834 0.46344,21.21321 0.47522,32.22589c-2.69606,0.4538 -5.39946,0.4698 -8.54125,0.60768c-0.77191,-0.92724 -1.38713,-1.97424 -1.39514,-3.02585c-0.07426,-9.74841 -0.04388,-19.49763 -0.04388,-29.8712c3.2198,0 6.13513,0 9.50505,0.06348z" fill="#FEF8C1"/>
  <path id="svg_20" d="m159.01367,138.39664c4.07242,-4.59494 8.21785,-8.85752 12.65619,-13.2825c3.5845,3.0543 6.87611,6.27101 10.34531,9.78869c-3.97187,4.83687 -8.12133,9.37277 -12.56856,14.06827c-3.65183,-3.30765 -7.00588,-6.77489 -10.43294,-10.57446z" fill="#044671"/>
  <path id="svg_21" d="m230.20999,453.75497c0.42793,-0.01596 1.04648,0.26383 1.85376,0.82712c-0.42854,0.01184 -1.04584,-0.25976 -1.85376,-0.82712z" fill="#004370"/>
  <path id="svg_22" d="m191.03549,329.21704c0.29251,0.18887 0.59973,0.66446 0.88992,1.43085c-0.3031,-0.18753 -0.58915,-0.66583 -0.88992,-1.43085z" fill="#014470"/>
  <path id="svg_23" d="m257.43951,461.15735c-0.44525,-24.7977 -0.45346,-49.46579 -0.48578,-74.7063c-0.0241,-0.57245 -0.03579,-0.80167 0.42789,-0.72888c4.53006,0.01297 8.59641,-0.04682 13.12091,-0.02008c7.07901,0.02463 13.69986,-0.03729 20.32074,-0.09918c5.18351,0.09295 10.36701,0.18594 16.03671,0.34698c0.51111,8.06278 0.51471,16.05756 0.56476,24.05206c0.17639,28.16043 -22.03244,50.93473 -49.98523,51.1554z" fill="#E6E6E6"/>
  <path id="svg_24" d="m362.3591,314.62354c5.69797,5.59146 11.14459,10.9302 16.62149,16.29861c-4.92267,4.82367 -9.4841,9.29334 -13.65689,13.38217c-7.35919,-7.35998 -14.93268,-14.93432 -22.33939,-22.34186c3.87155,-3.96142 8.3602,-8.55429 13.97055,-14.29486c1.73749,2.26023 3.44516,4.48169 5.40424,6.95594z" fill="#FCF39C"/>
  <path id="svg_25" d="m290.8606,385.18127c-6.65821,0.48353 -13.27906,0.54545 -20.35859,0.11689c0.61081,-9.7215 1.61673,-18.96048 2.76334,-28.18195c2.19089,-17.62036 4.52341,-35.2232 6.68399,-52.8472c2.66516,-21.73956 5.16583,-43.49939 7.86313,-65.23486c0.44614,-3.59479 -0.32007,-5.2569 -4.31641,-5.16167c-8.82592,0.21033 -17.65967,0.09389 -26.68112,-0.01695c-0.44537,-0.30351 -0.66189,-0.51764 -0.83417,-1.24382c0.01993,-6.74082 0.03354,-13.00793 0.04715,-19.27507c0.15934,-0.06497 0.3187,-0.12994 0.71579,-0.29549c17.61011,-0.05395 34.98246,-0.00735 52.94101,0.23007c0.76404,0.39846 0.97263,0.56823 1.21204,0.70017c-1.09979,10.20796 -2.13217,20.42374 -3.3151,30.62206c-1.81329,15.6332 -3.70535,31.25744 -5.61007,46.87985c-2.14557,17.59796 -4.39804,35.18304 -6.49869,52.78628c-1.6098,13.48993 -3.05603,26.99933 -4.6123,40.92169z" fill="#FA8C00"/>
  <path id="svg_26" d="m310.80859,213.78146c-0.15124,0.05799 -0.35983,-0.11178 -0.6535,-0.48413c0.16876,-0.09715 0.39584,0.05583 0.6535,0.48413z" fill="#FE9100"/>
  <path id="svg_27" d="m255.56071,213.26437c0.4536,6.33941 0.43999,12.60652 -0.04478,19.35712c-7.95058,0.72641 -15.42845,1.05048 -22.90976,1.18855c-6.92976,0.1279 -7.20065,0.60529 -6.31622,7.49405c2.98237,23.22975 5.81949,46.47841 8.64894,69.7275c3.02998,24.89679 5.9884,49.8023 8.97807,74.70401c-6.36223,0.05371 -12.72447,0.10742 -19.56369,0.08541c-2.10126,-12.92749 -3.75935,-25.77511 -5.3421,-38.63198c-2.57762,-20.93824 -5.1248,-41.88025 -7.64946,-62.82495c-2.1472,-17.8133 -4.2345,-35.63381 -6.3712,-53.44839c-0.51421,-4.28713 -0.95355,-8.59376 -1.7319,-12.83555c-0.68708,-3.74448 0.48684,-5.07645 4.35565,-5.03377c15.82503,0.17455 31.6526,0.11752 47.94645,0.218z" fill="#FE9100"/>
  <path id="svg_28" d="m197.98811,347.64484c-0.29313,-0.21732 -0.56297,-0.74619 -0.82356,-1.58466c0.28845,0.21796 0.56766,0.74552 0.82356,1.58466z" fill="#01579A"/>
  <path id="svg_29" d="m244.38178,385.81323c-3.45449,-24.97934 -6.41291,-49.88485 -9.44289,-74.78164c-2.82945,-23.24909 -5.66657,-46.49775 -8.64894,-69.7275c-0.88443,-6.88876 -0.61354,-7.36615 6.31622,-7.49405c7.48131,-0.13807 14.95918,-0.46214 22.90341,-0.71486c0.64347,0.24271 0.85999,0.45684 1.30176,1.23073c0.16043,50.83989 0.13352,101.08168 0.1066,151.32347c0,0 0.01169,0.22922 0.04379,0.33924c-4.017,0.04074 -8.06607,-0.02854 -12.57995,-0.17539z" fill="#FEE800"/>
  <path id="svg_30" d="m257.38162,385.72217c-0.43676,-50.31458 -0.40985,-100.55637 -0.37936,-151.26853c8.83413,-0.48727 17.66788,-0.37083 26.4938,-0.58116c3.99634,-0.09523 4.76255,1.56688 4.31641,5.16167c-2.6973,21.73547 -5.19797,43.4953 -7.86313,65.23486c-2.16058,17.624 -4.4931,35.22684 -6.68399,52.8472c-1.14661,9.22147 -2.15253,18.46045 -3.22147,28.09543c-4.06585,0.46371 -8.1322,0.5235 -12.66226,0.51053z" fill="#FED500"/>
 </g>
</svg>