<svg version="1.1" id="Layer_1" xmlns="http://www.w3.org/2000/svg" xmlns:xlink="http://www.w3.org/1999/xlink" x="0px" y="0px"
	 width="100%" viewBox="0 0 512 512" enable-background="new 0 0 512 512" xml:space="preserve">
<path fill="#01579A" opacity="1.000000" stroke="none" 
	d="
M279.000000,513.000000 
	C264.645782,513.000000 250.291550,513.000000 235.287521,512.609375 
	C226.551666,511.149261 218.449081,510.190765 210.382706,508.989227 
	C187.789017,505.623718 166.443054,498.184662 145.938110,488.379791 
	C125.460365,478.587952 106.661476,466.205444 89.531326,451.181061 
	C74.096931,437.643982 60.088051,422.850677 48.110664,406.240540 
	C34.889389,387.905365 24.256136,368.041046 16.483110,346.815308 
	C9.902678,328.846130 4.950089,310.387665 2.961020,291.244446 
	C2.534486,287.139374 1.665280,283.080261 0.999999,279.000000 
	C1.000000,264.645782 1.000000,250.291550 1.390642,235.287521 
	C2.850726,226.551743 3.809235,218.449219 5.010775,210.382919 
	C8.376279,187.789215 15.815214,166.443192 25.620111,145.938248 
	C35.411999,125.460533 47.794418,106.661583 62.818802,89.531441 
	C76.355911,74.097038 91.149239,60.088139 107.759323,48.110683 
	C126.094452,34.889317 145.958908,24.256203 167.184647,16.483147 
	C185.153809,9.902682 203.612305,4.950104 222.755554,2.961020 
	C226.860641,2.534478 230.919724,1.665280 235.000000,0.999998 
	C249.354233,1.000000 263.708466,1.000000 278.712494,1.390653 
	C287.448425,2.850749 295.551056,3.809231 303.617493,5.010808 
	C326.211121,8.376351 347.557068,15.815384 368.061951,25.620277 
	C388.539673,35.412144 407.338593,47.794575 424.468658,62.818954 
	C439.903015,76.356056 453.911987,91.149292 465.889343,107.759422 
	C479.110596,126.094620 489.743866,145.958984 497.516907,167.184753 
	C504.097351,185.153885 509.049927,203.612366 511.039032,222.755585 
	C511.465576,226.860641 512.334717,230.919724 513.000000,235.000000 
	C513.000000,239.356903 513.000000,243.713806 512.711304,248.371124 
	C510.973297,247.299133 509.490692,245.960068 508.079620,244.549423 
	C466.623047,203.104874 425.176605,161.650192 383.711060,120.214638 
	C382.189972,118.694656 380.493073,117.350609 378.796997,115.606842 
	C374.100769,110.798714 369.485657,106.308311 365.062744,102.004913 
	C357.425232,109.639374 349.911621,117.150017 341.862396,125.196045 
	C346.744659,129.357651 351.821472,133.685104 356.969269,138.351898 
	C358.403046,140.343826 359.639893,142.122314 361.146973,143.630844 
	C409.548126,192.078033 457.973663,240.500916 506.407349,288.915619 
	C507.815796,290.323456 509.351654,291.603912 510.903564,293.353333 
	C510.342194,296.531311 509.705292,299.299683 508.772614,301.903809 
	C507.024017,300.374603 505.533234,299.047668 504.123932,297.639160 
	C477.530975,271.061432 450.952057,244.469635 424.349854,217.901108 
	C422.948120,216.501175 421.366364,215.281494 419.683746,213.896393 
	C419.252594,213.668991 419.097473,213.456390 418.877747,212.872406 
	C417.836609,211.576019 416.997803,210.537949 416.059509,209.599335 
	C367.533173,161.057693 318.999847,112.523026 270.455017,63.999889 
	C269.401978,62.947319 268.206818,62.036964 266.741333,60.847710 
	C263.256592,60.730736 260.108490,60.826321 256.505737,60.858425 
	C253.135818,60.794945 250.220490,60.794945 247.000687,60.794945 
	C247.000687,71.168510 246.970306,80.917725 247.044571,90.666138 
	C247.052582,91.717751 247.667801,92.764748 248.143585,94.124649 
	C251.875031,98.311317 255.464249,102.187225 258.779877,106.158463 
	C257.967041,106.392738 257.427826,106.531670 256.431702,106.611679 
	C247.736191,107.584908 239.386047,108.078751 231.281433,109.757790 
	C212.611420,113.625679 196.662994,123.065987 182.015167,134.902832 
	C178.545975,131.385147 175.254364,128.168442 171.891693,124.624619 
	C164.143143,116.839699 156.465683,109.381905 149.281052,102.402832 
	C144.621841,106.877663 140.017273,111.300011 135.146866,115.977699 
	C142.200394,122.939095 149.263702,129.945282 156.392044,136.884659 
	C157.024765,137.500595 158.081070,137.681381 159.013672,138.396637 
	C162.440735,142.196213 165.794785,145.663452 169.053680,149.457947 
	C159.128906,162.380020 152.364182,176.467758 148.506973,191.952820 
	C145.223892,205.132935 144.945282,218.517685 145.652618,231.811066 
	C139.296234,225.760071 133.221634,219.876312 126.814934,213.724579 
	C115.901733,213.456589 105.320618,213.456589 93.873856,213.456589 
	C94.300102,220.511475 94.694031,227.031387 95.206657,233.882507 
	C96.042419,235.117935 96.678024,236.103546 97.488327,236.914612 
	C127.300514,266.754974 157.120758,296.587250 186.986816,326.373657 
	C188.103577,327.487427 189.687256,328.132996 191.022919,328.991089 
	C190.992477,328.985413 191.020782,328.930328 191.035492,329.217041 
	C191.336258,329.982056 191.622314,330.460358 192.122864,331.235352 
	C193.965286,336.254120 195.593216,340.976227 196.868805,345.731201 
	C194.957031,344.606720 193.255234,343.598236 191.862289,342.266693 
	C185.168106,335.867523 178.557327,329.381104 171.856323,322.599609 
	C167.198227,317.784241 162.600739,313.294952 158.616714,309.404694 
	C150.976166,317.008057 143.400726,324.546631 135.428482,332.480103 
	C140.006165,336.431030 144.955719,340.702942 149.975494,345.315979 
	C150.812149,346.718536 151.451111,347.907074 152.363876,348.822632 
	C169.234268,365.744659 186.128006,382.643463 203.056656,399.507202 
	C204.082184,400.528809 205.440125,401.216797 206.732544,402.516418 
	C205.428604,423.994690 212.337769,441.201843 230.209991,453.754974 
	C231.017914,454.322327 231.635208,454.593933 232.235489,454.849640 
	C232.218491,454.833740 232.253784,454.804108 232.226074,455.155273 
	C233.480408,457.188538 234.594696,459.036682 236.070084,460.527435 
	C253.024994,477.658844 270.034729,494.736053 286.601807,511.905762 
	C283.782501,512.322571 281.391235,512.661255 279.000000,513.000000 
z"/>
<path fill="#FFFFFF" opacity="1.000000" stroke="none" 
	d="
M234.531342,0.999998 
	C230.919724,1.665280 226.860641,2.534478 222.755554,2.961020 
	C203.612305,4.950104 185.153809,9.902682 167.184647,16.483147 
	C145.958908,24.256203 126.094452,34.889317 107.759323,48.110683 
	C91.149239,60.088139 76.355911,74.097038 62.818802,89.531441 
	C47.794418,106.661583 35.411999,125.460533 25.620111,145.938248 
	C15.815214,166.443192 8.376279,187.789215 5.010775,210.382919 
	C3.809235,218.449219 2.850726,226.551743 1.390642,234.818863 
	C1.000000,157.072952 1.000000,79.145912 1.000000,1.000000 
	C78.687424,1.000000 156.375061,1.000000 234.531342,0.999998 
z"/>
<path fill="#FFFFFF" opacity="1.000000" stroke="none" 
	d="
M513.000000,234.531342 
	C512.334717,230.919724 511.465576,226.860641 511.039032,222.755585 
	C509.049927,203.612366 504.097351,185.153885 497.516907,167.184753 
	C489.743866,145.958984 479.110596,126.094620 465.889343,107.759422 
	C453.911987,91.149292 439.903015,76.356056 424.468658,62.818954 
	C407.338593,47.794575 388.539673,35.412144 368.061951,25.620277 
	C347.557068,15.815384 326.211121,8.376351 303.617493,5.010808 
	C295.551056,3.809231 287.448425,2.850749 279.181152,1.390653 
	C356.927032,1.000000 434.854095,1.000000 513.000000,1.000000 
	C513.000000,78.687424 513.000000,156.375061 513.000000,234.531342 
z"/>
<path fill="#FFFFFF" opacity="1.000000" stroke="none" 
	d="
M279.468658,513.000000 
	C281.391235,512.661255 283.782501,512.322571 287.013489,511.963562 
	C294.105835,510.948395 300.424652,510.256470 306.599457,508.906067 
	C332.976776,503.137390 358.215118,494.408417 381.896484,481.099792 
	C411.008942,464.738953 435.753540,443.476990 456.844879,417.698517 
	C475.756378,394.584290 490.081451,368.904633 499.482269,340.661102 
	C503.655792,328.122314 505.931335,314.951843 509.068420,302.068085 
	C509.705292,299.299683 510.342194,296.531311 510.975220,292.932251 
	C511.647583,287.734375 512.323792,283.367188 513.000000,279.000000 
	C513.000000,356.927032 513.000000,434.854095 513.000000,513.000000 
	C435.312561,513.000000 357.624939,513.000000 279.468658,513.000000 
z"/>
<path fill="#FFFFFF" opacity="1.000000" stroke="none" 
	d="
M0.999999,279.468658 
	C1.665280,283.080261 2.534486,287.139374 2.961020,291.244446 
	C4.950089,310.387665 9.902678,328.846130 16.483110,346.815308 
	C24.256136,368.041046 34.889389,387.905365 48.110664,406.240540 
	C60.088051,422.850677 74.096931,437.643982 89.531326,451.181061 
	C106.661476,466.205444 125.460365,478.587952 145.938110,488.379791 
	C166.443054,498.184662 187.789017,505.623718 210.382706,508.989227 
	C218.449081,510.190765 226.551666,511.149261 234.818863,512.609375 
	C157.072968,513.000000 79.145927,513.000000 1.000000,513.000000 
	C1.000000,435.312561 1.000000,357.624939 0.999999,279.468658 
z"/>
<path fill="#004370" opacity="1.000000" stroke="none" 
	d="
M513.000000,278.531342 
	C512.323792,283.367188 511.647583,287.734375 510.899719,292.522675 
	C509.351654,291.603912 507.815796,290.323456 506.407349,288.915619 
	C457.973663,240.500916 409.548126,192.078033 361.146973,143.630844 
	C359.639893,142.122314 358.403046,140.343826 357.115570,138.040344 
	C364.419983,130.234497 371.649078,123.079521 378.878143,115.924561 
	C380.493073,117.350609 382.189972,118.694656 383.711060,120.214638 
	C425.176605,161.650192 466.623047,203.104874 508.079620,244.549423 
	C509.490692,245.960068 510.973297,247.299133 512.711304,248.835785 
	C513.000000,258.687561 513.000000,268.375122 513.000000,278.531342 
z"/>
<path fill="#004370" opacity="1.000000" stroke="none" 
	d="
M508.772644,301.903809 
	C505.931335,314.951843 503.655792,328.122314 499.482269,340.661102 
	C490.081451,368.904633 475.756378,394.584290 456.844879,417.698517 
	C435.753540,443.476990 411.008942,464.738953 381.896484,481.099792 
	C358.215118,494.408417 332.976776,503.137390 306.599457,508.906067 
	C300.424652,510.256470 294.105835,510.948395 287.441559,511.885468 
	C270.034729,494.736053 253.024994,477.658844 236.070084,460.527435 
	C234.594696,459.036682 233.480408,457.188538 232.576065,455.225220 
	C240.491821,458.862061 248.365997,461.451508 257.439514,461.157349 
	C285.392303,460.936676 307.601135,438.162384 307.424744,410.001953 
	C307.374695,402.007446 307.371094,394.012665 307.492737,385.662842 
	C309.279388,376.682556 310.606018,367.983612 312.617310,359.445892 
	C319.088379,331.976837 331.243164,307.099548 347.388519,284.042084 
	C365.235870,258.554016 372.654358,230.480728 367.001831,199.578033 
	C359.466461,158.381699 335.769379,130.137711 297.359741,113.959015 
	C285.112854,108.800461 272.103241,107.331871 259.053467,106.063126 
	C255.464249,102.187225 251.875031,98.311317 248.581940,94.002762 
	C251.581497,93.554108 254.284897,93.538109 257.426819,93.657700 
	C260.791412,93.793274 263.717499,93.793274 267.077942,93.793274 
	C267.077942,82.529152 267.077942,71.794708 267.077942,61.060268 
	C268.206818,62.036964 269.401978,62.947319 270.455017,63.999889 
	C318.999847,112.523026 367.533173,161.057693 416.059509,209.599335 
	C416.997803,210.537949 417.836609,211.576019 418.408569,212.928253 
	C407.835083,213.288834 397.574860,213.288834 387.252014,213.288834 
	C387.252014,220.291153 387.252014,226.667297 387.252014,233.092682 
	C398.152924,233.092682 408.731903,233.092682 419.868408,233.092682 
	C419.868408,226.535416 419.868408,220.256653 419.868408,213.977905 
	C421.366364,215.281494 422.948120,216.501175 424.349854,217.901108 
	C450.952057,244.469635 477.530975,271.061432 504.123932,297.639160 
	C505.533234,299.047668 507.024017,300.374603 508.772644,301.903809 
M362.107727,314.370789 
	C360.400024,312.149292 358.692352,309.927826 356.954865,307.667603 
	C351.344513,313.408173 346.855865,318.001038 342.984314,321.962463 
	C350.391022,329.369995 357.964508,336.944336 365.323700,344.304321 
	C369.496490,340.215485 374.057922,335.745819 378.980591,330.922150 
	C373.503693,325.553741 368.057068,320.214996 362.107727,314.370789 
z"/>
<path fill="#FDD500" opacity="1.000000" stroke="none" 
	d="
M258.779877,106.158463 
	C272.103241,107.331871 285.112854,108.800461 297.359741,113.959015 
	C335.769379,130.137711 359.466461,158.381699 367.001831,199.578033 
	C372.654358,230.480728 365.235870,258.554016 347.388519,284.042084 
	C331.243164,307.099548 319.088379,331.976837 312.617310,359.445892 
	C310.606018,367.983612 309.279388,376.682556 307.006531,385.594757 
	C301.190277,385.788849 296.006775,385.695862 290.860596,385.181274 
	C292.416870,371.258911 293.863098,357.749512 295.472900,344.259583 
	C297.573547,326.656342 299.826019,309.071259 301.971588,291.473297 
	C303.876312,275.850891 305.768372,260.226654 307.581665,244.593445 
	C308.764587,234.395126 309.796967,224.179352 310.808594,213.781464 
	C310.550934,213.353165 310.323853,213.200180 309.568848,213.106506 
	C291.726166,213.033798 274.353821,212.987198 256.984436,212.475647 
	C256.954407,176.897354 256.921478,141.783981 256.888550,106.670609 
	C257.427826,106.531670 257.967041,106.392738 258.779877,106.158463 
z"/>
<path fill="#FDE800" opacity="1.000000" stroke="none" 
	d="
M256.431702,106.611679 
	C256.921478,141.783981 256.954407,176.897354 256.746643,212.576233 
	C256.346619,213.206696 256.187256,213.271667 255.560715,213.264374 
	C239.266861,213.163895 223.439285,213.220917 207.614258,213.046371 
	C203.745453,213.003693 202.571533,214.335663 203.258606,218.080139 
	C204.036957,222.321930 204.476303,226.628555 204.990509,230.915695 
	C207.127213,248.730270 209.214508,266.550781 211.361710,284.364075 
	C213.886368,305.308777 216.433548,326.250793 219.011169,347.189026 
	C220.593918,360.045898 222.252014,372.893524 223.422073,385.820679 
	C217.638794,385.923859 212.309738,385.951630 206.845093,385.614929 
	C206.477875,384.109924 206.277847,382.961945 206.009720,381.830078 
	C203.334518,370.537323 200.648087,359.247223 197.988113,347.644836 
	C197.732208,346.805695 197.453003,346.278137 197.183701,345.735840 
	C197.193588,345.721100 197.221130,345.698303 197.221130,345.698303 
	C195.593216,340.976227 193.965286,336.254120 192.139893,330.944580 
	C191.635223,329.881500 191.328003,329.405914 191.020782,328.930328 
	C191.020782,328.930328 190.992477,328.985413 191.017899,328.616547 
	C188.624008,322.968201 186.573730,317.478210 183.708023,312.453308 
	C177.868240,302.213623 171.984940,291.957458 165.399490,282.193756 
	C155.061935,266.867096 148.884094,250.087967 145.934418,231.978317 
	C144.945282,218.517685 145.223892,205.132935 148.506973,191.952820 
	C152.364182,176.467758 159.128906,162.380020 169.351471,149.298370 
	C173.893845,144.275604 178.043304,139.739700 182.192764,135.203796 
	C196.662994,123.065987 212.611420,113.625679 231.281433,109.757790 
	C239.386047,108.078751 247.736191,107.584908 256.431702,106.611679 
z"/>
<path fill="#FEFEFE" opacity="1.000000" stroke="none" 
	d="
M206.980682,385.979431 
	C212.309738,385.951630 217.638794,385.923859 223.899048,385.896393 
	C231.192490,385.843018 237.554733,385.789307 244.381775,385.813232 
	C248.895660,385.960083 252.944733,386.029358 256.985840,386.561066 
	C256.986053,411.691559 256.994263,436.359650 257.002441,461.027710 
	C248.365997,461.451508 240.491821,458.862061 232.603760,454.874054 
	C232.253784,454.804108 232.218491,454.833740 232.046753,454.566162 
	C231.256470,454.018799 230.637924,453.739014 230.019363,453.459229 
	C212.337769,441.201843 205.428604,423.994690 206.813354,402.047668 
	C206.863571,396.074799 206.922134,391.027130 206.980682,385.979431 
z"/>
<path fill="#014470" opacity="1.000000" stroke="none" 
	d="
M145.652618,231.811066 
	C148.884094,250.087967 155.061935,266.867096 165.399490,282.193756 
	C171.984940,291.957458 177.868240,302.213623 183.708023,312.453308 
	C186.573730,317.478210 188.624008,322.968201 191.048340,328.622223 
	C189.687256,328.132996 188.103577,327.487427 186.986816,326.373657 
	C157.120758,296.587250 127.300514,266.754974 97.488327,236.914612 
	C96.678024,236.103546 96.042419,235.117935 95.666359,233.807419 
	C106.256012,233.401123 116.504646,233.401123 127.147018,233.401123 
	C127.147018,226.570267 127.147018,220.281418 127.147018,213.992554 
	C133.221634,219.876312 139.296234,225.760071 145.652618,231.811066 
z"/>
<path fill="#014470" opacity="1.000000" stroke="none" 
	d="
M206.845093,385.614929 
	C206.922134,391.027130 206.863571,396.074799 206.724213,401.591248 
	C205.440125,401.216797 204.082184,400.528809 203.056656,399.507202 
	C186.128006,382.643463 169.234268,365.744659 152.363876,348.822632 
	C151.451111,347.907074 150.812149,346.718536 150.120102,345.006866 
	C157.435303,337.213013 164.676117,330.069336 171.916931,322.925659 
	C178.557327,329.381104 185.168106,335.867523 191.862289,342.266693 
	C193.255234,343.598236 194.957031,344.606720 196.868805,345.731201 
	C197.221130,345.698303 197.193588,345.721100 197.174438,346.045441 
	C197.425140,346.898651 197.694977,347.427521 197.964828,347.956390 
	C200.648087,359.247223 203.334518,370.537323 206.009720,381.830078 
	C206.277847,382.961945 206.477875,384.109924 206.845093,385.614929 
z"/>
<path fill="#F6EF9B" opacity="1.000000" stroke="none" 
	d="
M419.683746,213.896393 
	C419.868408,220.256653 419.868408,226.535416 419.868408,233.092682 
	C408.731903,233.092682 398.152924,233.092682 387.252014,233.092682 
	C387.252014,226.667297 387.252014,220.291153 387.252014,213.288834 
	C397.574860,213.288834 407.835083,213.288834 418.564514,213.232971 
	C419.097473,213.456390 419.252594,213.668991 419.683746,213.896393 
z"/>
<path fill="#F6F3C2" opacity="1.000000" stroke="none" 
	d="
M126.814926,213.724579 
	C127.147018,220.281418 127.147018,226.570267 127.147018,233.401123 
	C116.504646,233.401123 106.256012,233.401123 95.547668,233.476227 
	C94.694031,227.031387 94.300102,220.511475 93.873856,213.456589 
	C105.320618,213.456589 115.901733,213.456589 126.814926,213.724579 
z"/>
<path fill="#FCF7C3" opacity="1.000000" stroke="none" 
	d="
M158.940643,138.064270 
	C158.081070,137.681381 157.024765,137.500595 156.392044,136.884659 
	C149.263702,129.945282 142.200394,122.939095 135.146866,115.977699 
	C140.017273,111.300011 144.621841,106.877663 149.281052,102.402832 
	C156.465683,109.381905 164.143143,116.839699 171.598785,124.787025 
	C167.231522,129.539124 163.086090,133.801697 158.940643,138.064270 
z"/>
<path fill="#FCF39C" opacity="1.000000" stroke="none" 
	d="
M378.796997,115.606842 
	C371.649078,123.079521 364.419983,130.234497 357.044617,137.701019 
	C351.821472,133.685104 346.744659,129.357651 341.862396,125.196045 
	C349.911621,117.150017 357.425232,109.639374 365.062744,102.004913 
	C369.485657,106.308311 374.100769,110.798714 378.796997,115.606842 
z"/>
<path fill="#FCF7C3" opacity="1.000000" stroke="none" 
	d="
M171.856323,322.599609 
	C164.676117,330.069336 157.435303,337.213013 150.049896,344.665771 
	C144.955719,340.702942 140.006165,336.431030 135.428482,332.480103 
	C143.400726,324.546631 150.976166,317.008057 158.616714,309.404694 
	C162.600739,313.294952 167.198227,317.784241 171.856323,322.599609 
z"/>
<path fill="#FCF29C" opacity="1.000000" stroke="none" 
	d="
M266.741333,60.847710 
	C267.077942,71.794708 267.077942,82.529152 267.077942,93.793274 
	C263.717499,93.793274 260.791412,93.793274 257.419434,93.219887 
	C256.969177,82.071632 256.964783,71.496765 256.960358,60.921906 
	C260.108490,60.826321 263.256592,60.730736 266.741333,60.847710 
z"/>
<path fill="#FEF8C1" opacity="1.000000" stroke="none" 
	d="
M256.505737,60.858421 
	C256.964783,71.496765 256.969177,82.071632 256.980957,93.084305 
	C254.284897,93.538109 251.581497,93.554108 248.439713,93.691986 
	C247.667801,92.764748 247.052582,91.717751 247.044571,90.666138 
	C246.970306,80.917725 247.000687,71.168510 247.000687,60.794945 
	C250.220490,60.794945 253.135818,60.794945 256.505737,60.858421 
z"/>
<path fill="#044671" opacity="1.000000" stroke="none" 
	d="
M159.013672,138.396637 
	C163.086090,133.801697 167.231522,129.539124 171.669861,125.114136 
	C175.254364,128.168442 178.545975,131.385147 182.015167,134.902832 
	C178.043304,139.739700 173.893845,144.275604 169.446609,148.971100 
	C165.794785,145.663452 162.440735,142.196213 159.013672,138.396637 
z"/>
<path fill="#004370" opacity="1.000000" stroke="none" 
	d="
M230.209991,453.754974 
	C230.637924,453.739014 231.256470,454.018799 232.063751,454.582092 
	C231.635208,454.593933 231.017914,454.322327 230.209991,453.754974 
z"/>
<path fill="#014470" opacity="1.000000" stroke="none" 
	d="
M191.035492,329.217041 
	C191.328003,329.405914 191.635223,329.881500 191.925415,330.647888 
	C191.622314,330.460358 191.336258,329.982056 191.035492,329.217041 
z"/>
<path fill="#E6E6E6" opacity="1.000000" stroke="none" 
	d="
M257.439514,461.157349 
	C256.994263,436.359650 256.986053,411.691559 256.953735,386.451050 
	C256.929626,385.878601 256.917938,385.649384 257.381622,385.722168 
	C261.911682,385.735138 265.978027,385.675354 270.502533,385.702087 
	C277.581543,385.726715 284.202393,385.664795 290.823273,385.602905 
	C296.006775,385.695862 301.190277,385.788849 306.859985,385.949890 
	C307.371094,394.012665 307.374695,402.007446 307.424744,410.001953 
	C307.601135,438.162384 285.392303,460.936676 257.439514,461.157349 
z"/>
<path fill="#FCF39C" opacity="1.000000" stroke="none" 
	d="
M362.359100,314.623535 
	C368.057068,320.214996 373.503693,325.553741 378.980591,330.922150 
	C374.057922,335.745819 369.496490,340.215485 365.323700,344.304321 
	C357.964508,336.944336 350.391022,329.369995 342.984314,321.962463 
	C346.855865,318.001038 351.344513,313.408173 356.954865,307.667603 
	C358.692352,309.927826 360.400024,312.149292 362.359100,314.623535 
z"/>
<path fill="#FA8C00" opacity="1.000000" stroke="none" 
	d="
M290.860596,385.181274 
	C284.202393,385.664795 277.581543,385.726715 270.502014,385.298157 
	C271.112823,375.576660 272.118744,366.337677 273.265350,357.116211 
	C275.456238,339.495850 277.788757,321.893005 279.949341,304.269012 
	C282.614502,282.529449 285.115173,260.769623 287.812469,239.034149 
	C288.258606,235.439362 287.492401,233.777252 283.496063,233.872482 
	C274.670135,234.082809 265.836395,233.966370 256.814941,233.855530 
	C256.369568,233.552017 256.153046,233.337891 255.980774,232.611710 
	C256.000702,225.870895 256.014313,219.603775 256.027924,213.336639 
	C256.187256,213.271667 256.346619,213.206696 256.743713,213.041153 
	C274.353821,212.987198 291.726166,213.033798 309.684723,213.271225 
	C310.448761,213.669678 310.657349,213.839447 310.896759,213.971390 
	C309.796967,224.179352 308.764587,234.395126 307.581665,244.593445 
	C305.768372,260.226654 303.876312,275.850891 301.971588,291.473297 
	C299.826019,309.071259 297.573547,326.656342 295.472900,344.259583 
	C293.863098,357.749512 292.416870,371.258911 290.860596,385.181274 
z"/>
<path fill="#FE9100" opacity="1.000000" stroke="none" 
	d="
M310.808594,213.781464 
	C310.657349,213.839447 310.448761,213.669678 310.155090,213.297333 
	C310.323853,213.200180 310.550934,213.353165 310.808594,213.781464 
z"/>
<path fill="#FE9100" opacity="1.000000" stroke="none" 
	d="
M255.560715,213.264374 
	C256.014313,219.603775 256.000702,225.870895 255.515930,232.621490 
	C247.565353,233.347900 240.087479,233.671967 232.606171,233.810043 
	C225.676407,233.937943 225.405518,234.415329 226.289948,241.304092 
	C229.272324,264.533844 232.109436,287.782501 234.938889,311.031586 
	C237.968872,335.928375 240.927292,360.833893 243.916962,385.735596 
	C237.554733,385.789307 231.192490,385.843018 224.353271,385.821014 
	C222.252014,372.893524 220.593918,360.045898 219.011169,347.189026 
	C216.433548,326.250793 213.886368,305.308777 211.361710,284.364075 
	C209.214508,266.550781 207.127213,248.730270 204.990509,230.915695 
	C204.476303,226.628555 204.036957,222.321930 203.258606,218.080139 
	C202.571533,214.335663 203.745453,213.003693 207.614258,213.046371 
	C223.439285,213.220917 239.266861,213.163895 255.560715,213.264374 
z"/>
<path fill="#01579A" opacity="1.000000" stroke="none" 
	d="
M197.988113,347.644836 
	C197.694977,347.427521 197.425140,346.898651 197.164551,346.060181 
	C197.453003,346.278137 197.732208,346.805695 197.988113,347.644836 
z"/>
<path fill="#FEE800" opacity="1.000000" stroke="none" 
	d="
M244.381775,385.813232 
	C240.927292,360.833893 237.968872,335.928375 234.938889,311.031586 
	C232.109436,287.782501 229.272324,264.533844 226.289948,241.304092 
	C225.405518,234.415329 225.676407,233.937943 232.606171,233.810043 
	C240.087479,233.671967 247.565353,233.347900 255.509583,233.095184 
	C256.153046,233.337891 256.369568,233.552017 256.811340,234.325912 
	C256.971771,285.165802 256.944855,335.407593 256.917938,385.649384 
	C256.917938,385.649384 256.929626,385.878601 256.961731,385.988617 
	C252.944733,386.029358 248.895660,385.960083 244.381775,385.813232 
z"/>
<path fill="#FED500" opacity="1.000000" stroke="none" 
	d="
M257.381622,385.722168 
	C256.944855,335.407593 256.971771,285.165802 257.002258,234.453644 
	C265.836395,233.966370 274.670135,234.082809 283.496063,233.872482 
	C287.492401,233.777252 288.258606,235.439362 287.812469,239.034149 
	C285.115173,260.769623 282.614502,282.529449 279.949341,304.269012 
	C277.788757,321.893005 275.456238,339.495850 273.265350,357.116211 
	C272.118744,366.337677 271.112823,375.576660 270.043884,385.211639 
	C265.978027,385.675354 261.911682,385.735138 257.381622,385.722168 
z"/>
</svg>