<svg version="1.1" id="Layer_1" xmlns="http://www.w3.org/2000/svg" xmlns:xlink="http://www.w3.org/1999/xlink" x="0px" y="0px"
	 width="100%" viewBox="0 0 512 512" enable-background="new 0 0 512 512" xml:space="preserve">
<path fill="#CCEEFF" opacity="1.000000" stroke="none" 
	d="
M257.000000,1.000000 
	C267.354218,1.000000 277.708466,1.000000 288.222778,1.364263 
	C289.222870,2.151151 290.019836,2.779961 290.909302,2.965419 
	C303.848816,5.663468 316.929749,7.798186 329.719666,11.072315 
	C349.269135,16.076838 367.475403,24.487213 385.020386,34.446739 
	C400.282104,43.110157 414.702698,53.041256 427.297852,65.127907 
	C439.159424,76.510628 450.268829,88.791878 460.753967,101.467941 
	C477.403503,121.596512 489.316498,144.521332 498.073944,169.134003 
	C504.311493,186.664536 509.272034,204.457764 511.079590,223.044739 
	C511.148346,223.752060 512.334534,224.350708 513.000000,225.000000 
	C513.000000,246.020889 513.000000,267.041779 512.635864,288.222900 
	C511.849121,289.222778 511.225922,290.019135 511.033966,290.908600 
	C508.045410,304.755859 505.660675,318.760620 502.031067,332.435608 
	C497.281891,350.328705 489.602020,367.090698 480.428894,383.213013 
	C471.424469,399.038879 461.124054,413.949310 448.929352,427.384583 
	C432.138763,445.883301 413.692993,462.749603 391.956787,475.263763 
	C377.826660,483.398895 363.038269,490.613129 347.961884,496.825317 
	C329.609467,504.387360 310.384521,509.382965 290.454224,511.096771 
	C289.918884,511.142792 289.482513,512.339722 289.000000,513.000000 
	C278.645782,513.000000 268.291534,513.000000 257.468628,512.531372 
	C256.991486,502.389465 256.983002,492.716217 257.444519,483.026489 
	C268.469177,482.309448 279.128662,482.316467 289.558136,480.771088 
	C317.008057,476.703796 343.019409,468.000244 367.240479,454.322937 
	C384.805176,444.404358 401.096222,432.750061 415.368103,417.916931 
	C422.173981,410.207703 428.686401,402.653870 435.486206,394.932831 
	C446.096222,382.369019 454.152496,368.573273 461.128845,353.692078 
	C465.178009,342.609192 469.041840,331.830627 473.198547,320.828583 
	C480.549713,301.347778 482.309570,281.153503 482.758728,260.967651 
	C483.052032,247.785095 481.859375,234.430649 479.920990,221.362518 
	C473.325989,176.901077 454.156616,138.157013 424.195374,104.885345 
	C405.240082,83.835693 382.869263,67.084419 357.351776,54.465481 
	C325.674957,38.800606 292.243958,31.189882 257.007996,30.543699 
	C257.003021,20.382818 257.001526,10.691409 257.000000,1.000000 
z"/>
<path fill="#E6FBFF" opacity="1.000000" stroke="none" 
	d="
M256.974487,483.042999 
	C256.983002,492.716217 256.991486,502.389465 257.000000,512.531372 
	C246.645767,513.000000 236.291550,513.000000 225.778046,512.635742 
	C224.612747,511.848083 223.642090,511.205750 222.595016,511.036652 
	C215.556763,509.899963 208.384995,509.355530 201.473969,507.707336 
	C175.899536,501.608215 151.043411,493.273804 128.752365,479.080353 
	C114.195282,469.811401 99.680923,460.089355 86.776443,448.721100 
	C74.236839,437.674286 63.037891,424.858093 52.571922,411.762573 
	C36.524746,391.683563 24.458849,369.169647 15.935367,344.814941 
	C9.743646,327.122925 4.511463,309.234772 2.904956,290.450439 
	C2.859297,289.916565 1.660894,289.481262 0.999998,289.000000 
	C1.000000,267.645782 1.000000,246.291550 1.361534,224.774170 
	C2.810656,219.619171 4.104198,214.661896 4.949617,209.629364 
	C8.322669,189.550568 14.512297,170.330002 22.727259,151.771927 
	C32.987415,128.593643 46.302834,107.122108 63.388729,88.510796 
	C75.950165,74.827873 89.790794,62.063797 104.386688,50.573822 
	C119.908356,38.355076 137.280090,28.609043 155.683456,21.049503 
	C177.044861,12.274883 198.975128,5.537441 222.034943,2.923192 
	C222.753403,2.841740 223.347778,1.665733 224.000000,1.000003 
	C234.687561,1.000000 245.375122,1.000000 256.531342,1.000000 
	C257.001526,10.691409 257.003021,20.382818 257.003723,30.537712 
	C257.002899,31.001194 257.013031,31.011190 256.545929,31.007336 
	C244.206985,32.003082 232.260101,32.468483 220.480286,34.123203 
	C201.160156,36.837109 182.591888,42.561695 164.828186,50.632275 
	C131.599625,65.729012 103.400406,87.331276 80.517151,115.900116 
	C61.125439,140.109894 47.016285,167.068253 39.243164,196.986023 
	C35.520584,211.313782 34.133694,226.267639 31.993122,240.982178 
	C29.508242,258.063507 31.094055,275.084808 33.898136,291.968109 
	C35.523090,301.751953 37.981850,311.397339 40.073811,321.474243 
	C44.682308,332.924194 49.282375,344.004944 53.941246,355.441223 
	C60.905708,370.635132 69.373169,384.493164 80.064804,397.352600 
	C86.819031,404.753693 93.408699,411.860565 100.139420,419.271393 
	C112.075111,431.423676 125.274208,441.492279 139.591934,450.055023 
	C175.742432,471.674866 214.731155,483.289032 257.037781,482.960571 
	C257.023560,482.992676 256.974518,483.042999 256.974487,483.042999 
z"/>
<path fill="#000000" opacity="1.000000" stroke="none" 
	d="
M0.999998,289.468658 
	C1.660894,289.481262 2.859297,289.916565 2.904956,290.450439 
	C4.511463,309.234772 9.743646,327.122925 15.935367,344.814941 
	C24.458849,369.169647 36.524746,391.683563 52.571922,411.762573 
	C63.037891,424.858093 74.236839,437.674286 86.776443,448.721100 
	C99.680923,460.089355 114.195282,469.811401 128.752365,479.080353 
	C151.043411,493.273804 175.899536,501.608215 201.473969,507.707336 
	C208.384995,509.355530 215.556763,509.899963 222.595016,511.036652 
	C223.642090,511.205750 224.612747,511.848083 225.309387,512.635742 
	C150.406296,513.000000 75.812599,513.000000 1.000000,513.000000 
	C1.000000,438.645905 1.000000,364.291626 0.999998,289.468658 
z"/>
<path fill="#000000" opacity="1.000000" stroke="none" 
	d="
M289.468628,513.000000 
	C289.482513,512.339722 289.918884,511.142792 290.454224,511.096771 
	C310.384521,509.382965 329.609467,504.387360 347.961884,496.825317 
	C363.038269,490.613129 377.826660,483.398895 391.956787,475.263763 
	C413.692993,462.749603 432.138763,445.883301 448.929352,427.384583 
	C461.124054,413.949310 471.424469,399.038879 480.428894,383.213013 
	C489.602020,367.090698 497.281891,350.328705 502.031067,332.435608 
	C505.660675,318.760620 508.045410,304.755859 511.033966,290.908600 
	C511.225922,290.019135 511.849121,289.222778 512.635864,288.691559 
	C513.000000,363.593719 513.000000,438.187408 513.000000,513.000000 
	C438.645905,513.000000 364.291626,513.000000 289.468628,513.000000 
z"/>
<path fill="#000000" opacity="1.000000" stroke="none" 
	d="
M513.000000,224.531342 
	C512.334534,224.350708 511.148346,223.752060 511.079590,223.044739 
	C509.272034,204.457764 504.311493,186.664536 498.073944,169.134003 
	C489.316498,144.521332 477.403503,121.596512 460.753967,101.467941 
	C450.268829,88.791878 439.159424,76.510628 427.297852,65.127907 
	C414.702698,53.041256 400.282104,43.110157 385.020386,34.446739 
	C367.475403,24.487213 349.269135,16.076838 329.719666,11.072315 
	C316.929749,7.798186 303.848816,5.663468 290.909302,2.965419 
	C290.019836,2.779961 289.222870,2.151151 288.691437,1.364263 
	C363.593719,1.000000 438.187408,1.000000 513.000000,1.000000 
	C513.000000,75.354088 513.000000,149.708389 513.000000,224.531342 
z"/>
<path fill="#000000" opacity="1.000000" stroke="none" 
	d="
M223.531342,1.000003 
	C223.347778,1.665733 222.753403,2.841740 222.034943,2.923192 
	C198.975128,5.537441 177.044861,12.274883 155.683456,21.049503 
	C137.280090,28.609043 119.908356,38.355076 104.386688,50.573822 
	C89.790794,62.063797 75.950165,74.827873 63.388729,88.510796 
	C46.302834,107.122108 32.987415,128.593643 22.727259,151.771927 
	C14.512297,170.330002 8.322669,189.550568 4.949617,209.629364 
	C4.104198,214.661896 2.810656,219.619171 1.361534,224.305511 
	C1.000000,149.739624 1.000000,75.479248 1.000000,1.000000 
	C75.020752,1.000000 149.041718,1.000000 223.531342,1.000003 
z"/>
<path fill="#99DDFF" opacity="1.000000" stroke="none" 
	d="
M257.007172,31.007183 
	C292.243958,31.189882 325.674957,38.800606 357.351776,54.465481 
	C382.869263,67.084419 405.240082,83.835693 424.195374,104.885345 
	C454.156616,138.157013 473.325989,176.901077 479.920990,221.362518 
	C481.859375,234.430649 483.052032,247.785095 482.758728,260.967651 
	C482.309570,281.153503 480.549713,301.347778 472.865112,320.964691 
	C458.167114,327.505798 445.687531,325.236572 434.169250,314.985504 
	C424.829559,306.673340 413.942352,301.528992 401.255737,299.749603 
	C381.304657,296.951294 363.833984,301.421997 348.561401,314.748871 
	C333.530396,327.864960 315.592712,328.583862 302.077789,316.466125 
	C289.159821,304.883606 274.610016,298.045166 256.967468,298.473724 
	C256.973846,288.361511 256.962463,278.711945 257.397766,269.040527 
	C265.810760,267.644318 274.048309,267.135559 281.694611,264.739807 
	C309.070984,256.162140 326.512390,237.819565 333.036255,209.675430 
	C335.445862,199.280167 335.300507,188.776230 334.206543,178.094864 
	C332.519775,161.624741 327.295654,146.381821 319.790924,131.909546 
	C306.960907,107.167976 289.632233,85.762718 269.157288,66.972191 
	C265.953735,64.032166 261.072083,62.920689 256.977112,60.497429 
	C256.996277,50.357838 257.004639,40.684513 257.013031,31.011190 
	C257.013031,31.011190 257.002899,31.001194 257.007172,31.007183 
z"/>
<path fill="#80AAFF" opacity="1.000000" stroke="none" 
	d="
M460.943481,353.996368 
	C454.152496,368.573273 446.096222,382.369019 435.151245,394.794067 
	C433.800140,394.419647 432.981201,394.124084 432.356140,393.598114 
	C419.536041,382.810822 404.754700,378.321472 388.054230,378.901184 
	C373.287231,379.413757 360.383636,384.294556 349.496552,394.071594 
	C333.769867,408.194824 316.033905,408.450714 299.879883,394.418274 
	C287.605408,383.755859 273.191406,378.612671 257.029114,377.563416 
	C256.991852,360.745605 256.970703,344.399963 257.366516,328.044617 
	C265.950714,329.092499 273.475647,331.259216 279.869049,337.111938 
	C291.202820,347.487305 304.778137,353.918823 320.098450,354.814362 
	C338.414856,355.885010 354.685150,349.794769 368.268524,337.212799 
	C380.273895,326.092560 400.750366,325.518921 412.859619,336.453430 
	C426.584808,348.847137 442.323425,355.251404 460.943481,353.996368 
z"/>
<path fill="#8080FF" opacity="1.000000" stroke="none" 
	d="
M461.128845,353.692078 
	C442.323425,355.251404 426.584808,348.847137 412.859619,336.453430 
	C400.750366,325.518921 380.273895,326.092560 368.268524,337.212799 
	C354.685150,349.794769 338.414856,355.885010 320.098450,354.814362 
	C304.778137,353.918823 291.202820,347.487305 279.869049,337.111938 
	C273.475647,331.259216 265.950714,329.092499 257.374908,328.039856 
	C256.966370,328.044769 256.948700,328.049286 256.966370,327.576141 
	C257.002777,317.752411 257.021545,308.401825 257.014282,299.025177 
	C256.988251,298.999115 256.949646,298.936340 256.949646,298.936340 
	C274.610016,298.045166 289.159821,304.883606 302.077789,316.466125 
	C315.592712,328.583862 333.530396,327.864960 348.561401,314.748871 
	C363.833984,301.421997 381.304657,296.951294 401.255737,299.749603 
	C413.942352,301.528992 424.829559,306.673340 434.169250,314.985504 
	C445.687531,325.236572 458.167114,327.505798 472.572235,321.188171 
	C469.041840,331.830627 465.178009,342.609192 461.128845,353.692078 
z"/>
<path fill="#80AAFF" opacity="1.000000" stroke="none" 
	d="
M415.074646,418.072296 
	C401.096222,432.750061 384.805176,444.404358 367.240479,454.322937 
	C343.019409,468.000244 317.008057,476.703796 289.558136,480.771088 
	C279.128662,482.316467 268.469177,482.309448 257.444519,483.026489 
	C256.974518,483.042999 257.023560,482.992676 257.019897,482.498901 
	C256.994354,457.354431 256.972443,432.703735 257.370544,408.043640 
	C267.761963,408.434967 275.640533,413.218201 283.054626,419.481598 
	C305.107758,438.111908 335.213226,440.132324 359.325989,424.073425 
	C363.316223,421.415955 366.852753,418.086304 370.683228,415.178223 
	C382.857422,405.935608 401.491699,405.851746 415.074646,418.072296 
z"/>
<path fill="#8080FF" opacity="1.000000" stroke="none" 
	d="
M415.368103,417.916931 
	C401.491699,405.851746 382.857422,405.935608 370.683228,415.178223 
	C366.852753,418.086304 363.316223,421.415955 359.325989,424.073425 
	C335.213226,440.132324 305.107758,438.111908 283.054626,419.481598 
	C275.640533,413.218201 267.761963,408.434967 257.379150,408.038635 
	C256.967743,408.043030 256.950317,408.047943 256.967438,407.574921 
	C257.001831,397.415863 257.019104,387.729828 257.031616,378.037415 
	C257.026855,378.031036 257.045258,378.035583 257.045258,378.035583 
	C273.191406,378.612671 287.605408,383.755859 299.879883,394.418274 
	C316.033905,408.450714 333.769867,408.194824 349.496552,394.071594 
	C360.383636,384.294556 373.287231,379.413757 388.054230,378.901184 
	C404.754700,378.321472 419.536041,382.810822 432.356140,393.598114 
	C432.981201,394.124084 433.800140,394.419647 434.863831,394.961243 
	C428.686401,402.653870 422.173981,410.207703 415.368103,417.916931 
z"/>
<path fill="#CCEEFF" opacity="1.000000" stroke="none" 
	d="
M256.951080,269.062347 
	C256.962463,278.711945 256.973846,288.361511 256.967468,298.473724 
	C256.949646,298.936340 256.988251,298.999115 256.548828,299.006592 
	C252.303970,299.201935 248.442627,299.041229 244.703323,299.641113 
	C231.989151,301.680695 221.574448,308.232971 211.981033,316.518097 
	C199.804153,327.034363 180.512878,326.701599 168.539062,316.001801 
	C158.933411,307.418182 148.169876,301.610382 135.136642,299.762177 
	C114.706261,296.864960 96.599510,301.079407 81.177780,315.223145 
	C73.727119,322.056366 64.888290,325.671173 54.815834,324.839783 
	C49.830223,324.428314 44.977970,322.401154 40.065380,321.105011 
	C37.981850,311.397339 35.523090,301.751953 33.898136,291.968109 
	C31.094055,275.084808 29.508242,258.063507 31.993122,240.982178 
	C34.133694,226.267639 35.520584,211.313782 39.243164,196.986023 
	C47.016285,167.068253 61.125439,140.109894 80.517151,115.900116 
	C103.400406,87.331276 131.599625,65.729012 164.828186,50.632275 
	C182.591888,42.561695 201.160156,36.837109 220.480286,34.123203 
	C232.260101,32.468483 244.206985,32.003082 256.545929,31.007336 
	C257.004639,40.684513 256.996277,50.357838 256.998718,60.528397 
	C257.009521,61.025627 257.058136,61.083359 256.662354,61.065125 
	C252.601151,62.802708 248.088669,63.730621 245.420242,66.460854 
	C235.092392,77.027847 224.828491,87.743126 215.512436,99.193726 
	C200.506332,117.638100 189.040314,138.190063 182.410400,161.198135 
	C176.819748,180.599625 175.980423,200.177567 183.290741,219.171478 
	C196.069351,252.373184 224.871902,267.804871 257.015198,268.973572 
	C256.989288,268.999603 256.951080,269.062347 256.951080,269.062347 
z"/>
<path fill="#99DDFF" opacity="1.000000" stroke="none" 
	d="
M256.957977,328.049530 
	C256.970703,344.399963 256.991852,360.745605 257.029114,377.563416 
	C257.045258,378.035583 257.026855,378.031036 256.598480,378.032806 
	C239.333313,378.938354 224.789322,385.097931 212.113800,396.305847 
	C199.617630,407.355225 180.221680,406.586975 167.892166,395.558777 
	C163.480103,391.612366 158.454422,388.203461 153.301239,385.263672 
	C140.898300,378.188171 127.042305,377.523224 113.554688,379.407440 
	C100.657784,381.209137 88.665741,386.508240 79.900246,397.058350 
	C69.373169,384.493164 60.905708,370.635132 54.408516,355.406921 
	C71.550140,355.146027 87.224640,350.912476 99.060471,339.017303 
	C111.849968,326.163666 135.655746,325.078796 150.172165,339.425476 
	C159.814774,348.955322 172.466675,353.080902 185.882507,353.919556 
	C202.741028,354.973419 218.153610,350.715851 231.154236,339.481934 
	C238.630600,333.021606 246.819321,328.408081 256.948700,328.049286 
	C256.948700,328.049286 256.966370,328.044769 256.957977,328.049530 
z"/>
<path fill="#80AAFF" opacity="1.000000" stroke="none" 
	d="
M256.966370,327.576141 
	C246.819321,328.408081 238.630600,333.021606 231.154236,339.481934 
	C218.153610,350.715851 202.741028,354.973419 185.882507,353.919556 
	C172.466675,353.080902 159.814774,348.955322 150.172165,339.425476 
	C135.655746,325.078796 111.849968,326.163666 99.060471,339.017303 
	C87.224640,350.912476 71.550140,355.146027 54.349712,355.051361 
	C49.282375,344.004944 44.682308,332.924194 40.073811,321.474243 
	C44.977970,322.401154 49.830223,324.428314 54.815834,324.839783 
	C64.888290,325.671173 73.727119,322.056366 81.177780,315.223145 
	C96.599510,301.079407 114.706261,296.864960 135.136642,299.762177 
	C148.169876,301.610382 158.933411,307.418182 168.539062,316.001801 
	C180.512878,326.701599 199.804153,327.034363 211.981033,316.518097 
	C221.574448,308.232971 231.989151,301.680695 244.703323,299.641113 
	C248.442627,299.041229 252.303970,299.201935 256.574829,299.032654 
	C257.021545,308.401825 257.002777,317.752411 256.966370,327.576141 
z"/>
<path fill="#99DDFF" opacity="1.000000" stroke="none" 
	d="
M256.959137,408.048035 
	C256.972443,432.703735 256.994354,457.354431 257.034149,482.466797 
	C214.731155,483.289032 175.742432,471.674866 139.591934,450.055023 
	C125.274208,441.492279 112.075111,431.423676 100.292046,418.973511 
	C109.529495,408.530090 121.162781,407.593658 133.430069,409.754395 
	C141.331268,411.146088 146.504410,417.229462 152.659866,421.701538 
	C177.646942,439.855194 210.847107,438.099823 233.951294,417.393341 
	C240.629700,411.408020 248.303040,408.746155 256.950317,408.047943 
	C256.950317,408.047943 256.967743,408.043030 256.959137,408.048035 
z"/>
<path fill="#80AAFF" opacity="1.000000" stroke="none" 
	d="
M256.967438,407.574921 
	C248.303040,408.746155 240.629700,411.408020 233.951294,417.393341 
	C210.847107,438.099823 177.646942,439.855194 152.659866,421.701538 
	C146.504410,417.229462 141.331268,411.146088 133.430069,409.754395 
	C121.162781,407.593658 109.529495,408.530090 100.150986,418.669556 
	C93.408699,411.860565 86.819031,404.753693 80.064804,397.352600 
	C88.665741,386.508240 100.657784,381.209137 113.554688,379.407440 
	C127.042305,377.523224 140.898300,378.188171 153.301239,385.263672 
	C158.454422,388.203461 163.480103,391.612366 167.892166,395.558777 
	C180.221680,406.586975 199.617630,407.355225 212.113800,396.305847 
	C224.789322,385.097931 239.333313,378.938354 256.603210,378.039185 
	C257.019104,387.729828 257.001831,397.415863 256.967438,407.574921 
z"/>
<path fill="#8080FF" opacity="1.000000" stroke="none" 
	d="
M256.987946,60.994659 
	C261.072083,62.920689 265.953735,64.032166 269.157288,66.972191 
	C289.632233,85.762718 306.960907,107.167976 319.790924,131.909546 
	C327.295654,146.381821 332.519775,161.624741 334.206543,178.094864 
	C335.300507,188.776230 335.445862,199.280167 333.036255,209.675430 
	C326.512390,237.819565 309.070984,256.162140 281.694611,264.739807 
	C274.048309,267.135559 265.810760,267.644318 257.397766,269.040527 
	C256.951080,269.062347 256.989288,268.999603 257.000671,268.509766 
	C257.027405,199.041092 257.042755,130.062225 257.058136,61.083359 
	C257.058136,61.083359 257.009521,61.025627 256.987946,60.994659 
z"/>
<path fill="#80AAFF" opacity="1.000000" stroke="none" 
	d="
M256.662354,61.065125 
	C257.042755,130.062225 257.027405,199.041092 257.026581,268.483765 
	C224.871902,267.804871 196.069351,252.373184 183.290741,219.171478 
	C175.980423,200.177567 176.819748,180.599625 182.410400,161.198135 
	C189.040314,138.190063 200.506332,117.638100 215.512436,99.193726 
	C224.828491,87.743126 235.092392,77.027847 245.420242,66.460854 
	C248.088669,63.730621 252.601151,62.802708 256.662354,61.065125 
z"/>
</svg>