<svg width="512" height="512" xmlns="http://www.w3.org/2000/svg" xml:space="preserve" enable-background="new 0 0 512 512" version="1.1">

 <g>
  <title>Layer 1</title>
  <path id="svg_1" d="m289,513c-21.02091,0 -42.04179,0 -63.28592,-0.37952c-0.90188,-0.78274 -1.53914,-1.4277 -2.2655,-1.55203c-8.20093,-1.40381 -16.51868,-2.28183 -24.60774,-4.15381c-28.12897,-6.50958 -54.47716,-17.41 -78.88947,-32.91409c-22.00893,-13.97778 -41.26629,-31.05917 -58.29938,-50.77591c-12.33925,-14.28342 -22.90811,-29.75494 -31.63024,-46.42889c-14.15827,-27.06614 -23.84696,-55.60624 -27.1198,-86.14292c-0.06557,-0.61185 -1.24316,-1.10452 -1.90195,-1.65283c0,-21.35422 0,-42.70845 0.37231,-64.27361c1.45134,-5.23468 2.65955,-10.23468 3.5879,-15.28613c5.03816,-27.41409 14.37817,-53.22586 28.009,-77.56973c15.01293,-26.81222 34.34209,-49.9544 57.58111,-69.97789c19.04753,-16.41195 40.00061,-29.75267 63.03397,-39.7828c22.17235,-9.6552 45.13563,-16.53959 69.26962,-19.19202c0.77625,-0.08531 1.43341,-1.25411 2.14609,-1.91782c21.02089,0 42.04178,0 63.2876,0.38102c1.06897,0.79033 1.87225,1.3877 2.76318,1.58079c13.95285,3.02407 28.06958,5.42739 41.84036,9.12228c17.63868,4.73271 34.19251,12.31307 50.10929,21.34432c15.9667,9.05957 31.21096,19.25112 44.4479,31.85701c12.04947,11.47507 23.29184,23.92614 33.86902,36.78668c13.7208,16.68284 24.22223,35.55206 32.3909,55.51716c8.63654,21.10868 15.29428,42.86042 17.39188,65.76592c0.05505,0.60123 1.24118,1.09886 1.89987,1.64482c0,21.02089 0,42.04178 -0.38025,63.28656c-0.78296,0.90268 -1.39954,1.53552 -1.55658,2.26703c-3.03653,14.14471 -5.40112,28.46802 -9.16824,42.41302c-4.81043,17.80704 -12.48563,34.51786 -21.66614,50.58249c-9.04285,15.82373 -19.16409,30.93582 -31.67609,44.06519c-11.49411,12.06125 -23.91888,23.37469 -36.84619,33.89645c-16.76095,13.64203 -35.60473,24.23291 -55.64648,32.34473c-21.02701,8.51056 -42.64047,15.14447 -65.41147,17.24426c-0.60281,0.0556 -1.10138,1.24152 -1.64856,1.90027m102.04263,-116.55914c4.05024,-4.81827 5.96628,-10.38217 5.96448,-16.66831c-0.01379,-48.49194 -0.0076,-96.98385 -0.00763,-145.4758c0,-1.56483 -0.00003,-3.12967 -0.00003,-5.24768c-5.50632,3.11322 -10.15173,6.16672 -15.16858,8.37729c-2.16974,0.95606 -5.59949,1.09775 -7.61233,0.02486c-11.0756,-5.90352 -21.83478,-12.39806 -32.84836,-18.42323c-1.8281,-1.00008 -4.91205,-1.67899 -6.50305,-0.81864c-10.60221,5.73322 -21.26105,11.46968 -31.26264,18.1602c-4.99139,3.33898 -8.49222,2.51462 -12.92776,-0.1308c-10.07614,-6.00956 -20.34973,-11.68736 -30.45337,-17.65194c-2.41608,-1.42632 -4.29434,-1.24256 -6.62714,0.13383c-10.09724,5.95749 -20.28187,11.7672 -30.44963,17.60469c-3.26301,1.87338 -6.44115,4.01738 -10.46136,1.60076c-10.89347,-6.5483 -21.87802,-12.94541 -32.74926,-19.52996c-2.61522,-1.58398 -4.65147,-1.23344 -7.18017,0.27245c-9.93024,5.91371 -20.24825,11.21402 -29.91155,17.5242c-5.8248,3.80368 -10.25378,2.2106 -15.1885,-0.98308c-3.29229,-2.13072 -6.80011,-3.92844 -10.65448,-6.12797c0,51.55563 -0.17112,102.21222 0.12487,152.86602c0.07064,12.08887 10.47658,23.49292 22.31907,24.6908c17.57225,1.77753 35.36921,1.33322 53.55531,1.84842c0,-2.75223 0,-4.54038 0,-6.32855c-0.00002,-37.6604 -0.00169,-75.3208 0.00151,-112.9812c0.00058,-6.82425 0.33913,-7.17441 6.99664,-7.17515c37.99369,-0.00424 75.98735,-0.00412 113.98104,-0.00009c6.677,0.00071 7.01773,0.35032 7.01828,7.14777c0.00314,37.82703 0.00149,75.65408 0.00152,113.48111c0,1.74286 0,3.48569 0,5.36914c14.79556,0 28.79013,0.05209 42.78412,-0.01724c10.37998,-0.05143 19.83545,-2.50128 27.259,-11.5419m-231.54263,-227.44142c-19.41533,0 -38.83065,0 -58.49847,0c0,12.1643 -0.07274,23.6416 0.10427,35.11503c0.01925,1.24776 1.18917,2.97534 2.3184,3.63022c9.58072,5.55612 19.45707,10.62488 28.84057,16.48682c3.38783,2.11637 5.39008,1.53338 8.33318,-0.23983c10.74398,-6.47331 21.57415,-12.81381 32.55462,-18.87307c1.6144,-0.89087 4.61306,-0.71987 6.29764,0.1972c11.15892,6.07462 22.20757,12.36372 33.11761,18.87535c2.7557,1.64473 4.85102,1.86331 7.57638,0.26312c10.11444,-5.93864 20.46273,-11.49266 30.42006,-17.6791c4.65222,-2.89041 8.28471,-2.83217 12.91447,0.04249c9.95932,6.18381 20.30698,11.73918 30.42654,17.6698c2.73444,1.60256 4.83255,1.30417 7.57315,-0.33125c10.92087,-6.51689 21.9704,-12.83096 33.16199,-18.86844c1.78006,-0.9603 5.0044,-0.95912 6.75787,0.02643c11.07404,6.22426 21.85068,12.97742 32.91953,19.21147c1.68387,0.94839 4.77185,0.87212 6.53351,-0.03902c7.80957,-4.03916 15.17056,-8.97653 23.08609,-12.77049c6.73239,-3.22688 10.14303,-7.09196 9.28076,-15.21295c-0.9545,-8.98966 -0.21817,-18.15884 -0.21817,-27.50378c-84.6207,0 -168.56035,0 -253.5,0m236.95444,-10.99944c3.60608,0 7.21219,0 11.49911,0c-9.88705,-15.88632 -19.71875,-31.00477 -28.74234,-46.59106c-2.75271,-4.75478 -5.7724,-5.50665 -10.58288,-5.49822c-73.28714,0.12839 -146.57496,0.1921 -219.86138,-0.07236c-7.2007,-0.02597 -12.75441,0.62545 -15.4501,8.23239c-0.74075,2.09031 -2.4366,3.83317 -3.63638,5.77124c-7.76538,12.54371 -15.51476,25.09733 -23.5847,38.15801c96.9064,0 193.14001,0 290.35867,0m-104.95508,250c6.09268,0 12.18536,0 18.10449,0c0,-38.75201 0,-76.79797 0,-114.73554c-35.32516,0 -70.2536,0 -105.29611,0c0,38.30985 0,76.35508 0,114.73554c28.93489,0 57.56335,0 87.19162,0z" fill="#FE3345"/>
  <path id="svg_6" d="m390.79431,396.7041c-7.17523,8.77738 -16.6307,11.22723 -27.01068,11.27866c-13.99399,0.06933 -27.98856,0.01724 -42.78412,0.01724c0,-1.88345 0,-3.62628 0,-5.36914c-0.00003,-37.82703 0.00162,-75.65408 -0.00152,-113.48111c-0.00055,-6.79745 -0.34128,-7.14706 -7.01828,-7.14777c-37.99369,-0.00403 -75.98735,-0.00415 -113.98104,0.00009c-6.65751,0.00074 -6.99606,0.3509 -6.99664,7.17515c-0.0032,37.6604 -0.00153,75.3208 -0.00151,112.9812c0,1.78817 0,3.57632 0,6.32855c-18.1861,-0.5152 -35.98306,-0.07089 -53.55531,-1.84842c-11.84249,-1.19788 -22.24843,-12.60193 -22.31907,-24.6908c-0.29599,-50.6538 -0.12487,-101.31039 -0.12487,-152.86602c3.85437,2.19953 7.36219,3.99725 10.65448,6.12797c4.93472,3.19368 9.3637,4.78676 15.1885,0.98308c9.6633,-6.31018 19.98131,-11.61049 29.91155,-17.5242c2.5287,-1.50589 4.56495,-1.85643 7.18017,-0.27245c10.87124,6.58455 21.85579,12.98166 32.74926,19.52996c4.02021,2.41662 7.19835,0.27262 10.46136,-1.60076c10.16776,-5.83749 20.35239,-11.6472 30.44963,-17.60469c2.3328,-1.37639 4.21106,-1.56015 6.62714,-0.13383c10.10364,5.96458 20.37723,11.64238 30.45337,17.65194c4.43554,2.64542 7.93637,3.46978 12.92776,0.1308c10.00159,-6.69052 20.66043,-12.42698 31.26264,-18.1602c1.591,-0.86035 4.67495,-0.18144 6.50305,0.81864c11.01358,6.02517 21.77276,12.51971 32.84836,18.42323c2.01284,1.07289 5.44259,0.9312 7.61233,-0.02486c5.01685,-2.21057 9.66226,-5.26407 15.16858,-8.37729c0,2.11801 0.00003,3.68285 0.00003,5.24768c0.00003,48.49195 -0.00616,96.98386 0.00763,145.4758c0.0018,6.28614 -1.91424,11.85004 -6.2128,16.93155z" fill="#000000"/>
  <path id="svg_7" d="m160,168.99944c84.43965,0 168.3793,0 253,0c0,9.34494 -0.73633,18.51412 0.21817,27.50378c0.86227,8.12099 -2.54837,11.98607 -9.28076,15.21295c-7.91553,3.79396 -15.27652,8.73133 -23.08609,12.77049c-1.76166,0.91114 -4.84964,0.98741 -6.53351,0.03902c-11.06885,-6.23405 -21.84549,-12.98721 -32.91953,-19.21147c-1.75347,-0.98555 -4.97781,-0.98673 -6.75787,-0.02643c-11.19159,6.03748 -22.24112,12.35155 -33.16199,18.86844c-2.7406,1.63542 -4.83871,1.93381 -7.57315,0.33125c-10.11956,-5.93062 -20.46722,-11.48599 -30.42654,-17.6698c-4.62976,-2.87466 -8.26225,-2.9329 -12.91447,-0.04249c-9.95733,6.18644 -20.30562,11.74046 -30.42006,17.6791c-2.72536,1.60019 -4.82068,1.38161 -7.57638,-0.26312c-10.91004,-6.51163 -21.95869,-12.80073 -33.11761,-18.87535c-1.68458,-0.91707 -4.68324,-1.08807 -6.29764,-0.1972c-10.98047,6.05926 -21.81064,12.39976 -32.55462,18.87307c-2.9431,1.77321 -4.94535,2.3562 -8.33318,0.23983c-9.3835,-5.86194 -19.25985,-10.9307 -28.84057,-16.48682c-1.12923,-0.65488 -2.29915,-2.38246 -2.3184,-3.63022c-0.17701,-11.47343 -0.10427,-22.95073 -0.10427,-35.11503c19.66782,0 39.08314,0 58.99847,0z" fill="#000000"/>
  <path id="svg_8" d="m395.96191,158c-96.72613,0 -192.95974,0 -289.86614,0c8.06994,-13.06068 15.81932,-25.6143 23.5847,-38.15801c1.19978,-1.93807 2.89563,-3.68093 3.63638,-5.77124c2.69569,-7.60694 8.2494,-8.25836 15.4501,-8.23239c73.28642,0.26446 146.57424,0.20075 219.86138,0.07236c4.81048,-0.00843 7.83017,0.74344 10.58288,5.49822c9.02359,15.58629 18.85529,30.70474 28.74234,46.59106c-4.28692,0 -7.89303,0 -11.99164,0z" fill="#000000"/>
  <path id="svg_9" d="m290.99945,408c-29.12836,0 -57.75682,0 -86.69171,0c0,-38.38046 0,-76.42569 0,-114.73554c35.04251,0 69.97095,0 105.29611,0c0,37.93757 0,75.98353 0,114.73554c-5.91913,0 -12.01181,0 -18.6044,0z" fill="#000000"/>
 </g>
</svg>