<svg width="512" height="512" xmlns="http://www.w3.org/2000/svg" xml:space="preserve" enable-background="new 0 0 512 512" version="1.1">

 <g>
  <title>Layer 1</title>
  <path id="svg_1" d="m225,1c21.02089,0 42.04178,0 63.19074,0.33607c5.63671,1.4436 11.12466,2.66926 16.65768,3.63768c21.14526,3.70094 41.39407,10.35256 60.76999,19.40321c21.00833,9.81315 40.40497,22.26929 57.92392,37.5948c16.16479,14.14099 30.76837,29.62525 43.20956,47.19213c12.81687,18.09733 23.24631,37.47564 30.8003,58.23876c6.75582,18.56932 12.39086,37.55086 13.19799,57.47719c-1.89068,-1.23975 -3.5805,-2.30197 -4.95996,-3.67585c-16.80877,-16.74107 -33.55325,-33.54675 -50.35592,-50.29403c-7.04487,-7.0217 -14.18802,-13.94481 -21.44632,-21.28337c-1.85889,-0.72382 -3.55445,-1.36367 -5.2576,-1.38471c-13.22855,-0.16353 -26.45859,-0.20776 -39.86374,-0.57184c-11.17371,-11.35441 -22.15058,-22.44722 -33.20633,-33.46083c-0.9892,-0.98541 -2.48987,-1.45736 -3.72018,-2.17921c0.03283,-0.01144 0.01626,0.05607 -0.01276,-0.24667c-0.3746,-0.77559 -0.72012,-1.24844 -1.36469,-1.89213c-9.75796,-17.00019 -24.39758,-26.46917 -43.35107,-27.7014c-16.6958,-1.08545 -33.51673,-0.24733 -50.7431,-0.32062c-18.51079,0.33208 -36.59581,0.15636 -54.60231,1.26076c-23.86147,1.4635 -44.54014,25.92792 -44.81817,49.72426c-0.06201,5.3089 -0.26483,10.61614 -0.8432,15.84243c-10.09829,-0.09868 -19.75642,-0.16263 -29.4141,-0.12185c-15.31002,0.06464 -30.61977,0.1993 -46.22452,0.55884c-0.24517,1.53302 -0.19546,2.81152 -0.16385,4.54369c-0.02212,75.15242 -0.03112,149.85116 -0.00661,224.54992c0.00075,2.29682 0.34979,4.59354 0.65303,7.11744c0.39305,0.42456 0.6695,0.62197 1.12204,1.09252c1.55737,1.7139 2.91291,3.18043 4.32375,4.59165c36.83384,36.84384 73.68374,73.67169 110.47687,110.55615c1.57585,1.57984 2.63604,3.67407 3.52731,5.47861c-2.15363,-0.38852 -3.91707,-0.65033 -5.63969,-1.077c-25.93244,-6.42285 -50.32021,-16.62198 -72.98932,-30.70727c-22.84823,-14.19663 -42.78849,-31.81952 -60.38477,-52.2006c-12.16592,-14.09121 -22.68123,-29.32302 -31.25931,-45.72399c-14.19325,-27.13697 -24.05822,-55.79496 -27.30763,-86.47452c-0.07274,-0.68674 -1.25391,-1.2561 -1.91803,-1.88022c0,-21.35422 0,-42.70845 0.34125,-64.20413c0.77774,-0.98239 1.42075,-1.77735 1.61977,-2.67117c3.02274,-13.5752 5.51897,-27.28747 9.07865,-40.71846c4.96183,-18.72138 12.52956,-36.54635 22.99218,-52.82303c9.20531,-14.3207 19.03079,-28.35412 29.79409,-41.52414c7.60356,-9.30377 17.07737,-17.12096 25.99121,-25.30221c13.61528,-12.49632 29.0169,-22.58807 45.26754,-31.1987c27.28448,-14.45705 56.17489,-24.2166 87.03076,-27.63968c0.69063,-0.07662 1.25911,-1.25437 1.88455,-1.91848z" fill="#FFCE00"/>
  <path id="svg_2" d="m200.9079,507.11365c-1.30042,-1.85459 -2.36061,-3.94882 -3.93646,-5.52866c-36.79313,-36.88446 -73.64303,-73.71231 -110.47687,-110.55615c-1.41084,-1.41122 -2.76638,-2.87775 -4.28142,-4.80167c-0.13372,-0.48315 -0.09672,-0.90725 0.36307,-0.94207c6.45569,-0.04349 12.45158,-0.05628 18.44748,-0.06006c51.96293,-0.03293 103.92587,-0.06421 156.27571,0.05185c56.35028,0.17498 112.31366,0.20733 168.27704,0.21194c2.48114,0.00021 4.96228,-0.2532 7.71084,-0.45148c0.32947,-0.39953 0.39157,-0.73602 0.50159,-1.53665c0.056,-52.45502 0.07754,-104.44595 0.06619,-156.43687c-0.00531,-24.32739 -0.07416,-48.65477 -0.01568,-73.38304c0.05224,-1.49317 0.00595,-2.58545 0.04644,-3.70166c0.0868,-0.02394 0.26194,0.01809 0.26194,0.01809c7.09851,6.96793 14.24166,13.89104 21.28653,20.91274c16.80267,16.74728 33.54715,33.55296 50.35592,50.29403c1.37946,1.37388 3.06928,2.4361 4.92646,3.68712c0.31155,0.04398 0.29196,-0.02388 0.40508,0.19141c0.25812,0.51186 0.46152,0.76073 1.02265,1.22667c0.48474,0.07349 0.67016,-0.11786 0.85559,-0.30919c0,20.68756 0,41.37512 -0.36035,62.22125c-0.78229,1.00714 -1.40473,1.81293 -1.5961,2.71064c-2.93894,13.78396 -5.18793,27.75195 -8.87442,41.33041c-4.85327,17.87594 -12.45316,34.7171 -21.65445,50.86059c-9.07608,15.92389 -19.23041,31.15494 -31.81912,44.36795c-11.48001,12.04935 -23.83893,23.42279 -36.80704,33.85541c-19.97916,16.07306 -42.48026,28.05878 -66.68008,36.66654c-17.60477,6.26187 -35.5127,11.35501 -54.23243,13.07574c-0.71124,0.06537 -1.31967,1.24899 -1.97601,1.91147c-21.02091,0 -42.04179,0 -63.21936,-0.35864c-7.99564,-1.83121 -15.8346,-3.30387 -23.83751,-4.97153c-0.4657,-0.34592 -0.76741,-0.49679 -1.03538,-0.63415c0.03375,0.01351 0.00015,0.07797 0.00015,0.07797z" fill="#FFA300"/>
  <path id="svg_7" d="m256.91251,385.12906c-51.96294,0.03177 -103.92588,0.06305 -155.88881,0.09598c-5.9959,0.00378 -11.99179,0.01657 -18.73508,-0.04029c-0.95041,-0.06604 -1.15341,-0.06662 -1.35642,-0.06723c-0.18666,-2.29675 -0.5357,-4.59347 -0.53645,-6.89029c-0.02451,-74.69876 -0.01551,-149.3975 0.19737,-224.56012c0.20888,-0.46383 0.55896,-0.61706 0.76126,-0.31652c6.016,23.72844 11.75643,47.17483 17.66229,70.57949c7.0472,27.92772 32.80227,48.70487 61.02288,48.99836c21.66162,0.22531 43.32777,0.01529 64.99893,0.00998c0.00702,0.01113 0.02739,0.01293 0.10086,0.21459c0.2141,0.45615 0.39887,0.67301 0.67948,1.31788c0.05169,9.87634 0.05169,19.28704 0.05169,29.54348c10.85109,0 20.95368,0 31.05384,0.46775c-0.00559,27.19412 -0.00873,53.92053 -0.01184,80.64694z" fill="#414952"/>
  <path id="svg_8" d="m389.04224,147.95299c13.22955,0.08113 26.45959,0.12536 39.68814,0.28889c1.70315,0.02104 3.39871,0.66089 5.2576,1.38472c0.15979,0.37062 -0.01535,0.32859 -0.28882,0.64611c-0.42719,1.47665 -0.5809,2.6358 -0.96399,4.07775c-5.9783,23.33652 -11.62045,46.41748 -17.50284,69.43705c-7.58099,29.66691 -32.95245,49.22143 -63.50613,49.22015c-21.1388,-0.00088 -42.27759,0.03564 -63.53394,-0.40323c-0.11752,-4.72034 -0.11752,-8.98199 -0.11752,-13.45071c-10.89923,0 -21.02045,0 -31.13294,-0.07816c0.00873,-0.07812 -0.01593,-0.23343 -0.01687,-0.69214c0.00287,-21.25931 0.04083,-42.05993 -0.00077,-62.86042c-0.03128,-15.6384 -0.16467,-31.2766 0.15665,-47.06811c20.5781,-0.26031 40.74695,-0.36741 61.38446,-0.458c13.16052,0.00509 25.85239,-0.0063 39.00693,0.06196c10.83179,0.01782 21.2009,-0.04402 31.57004,-0.10586z" fill="#414952"/>
  <path id="svg_9" d="m256.67154,148.60811c0.08795,15.63829 0.22134,31.27649 0.25262,46.91489c0.0416,20.80049 0.00364,41.60111 -0.45303,62.92298c-10.64413,0.52131 -20.83542,0.52131 -31.43967,0.52131c0,5.10061 0,9.53033 0,13.96002c-21.66414,0.01642 -43.33029,0.22644 -64.99191,0.00113c-28.22061,-0.29349 -53.97568,-21.07064 -61.02288,-48.99836c-5.90586,-23.40466 -11.64629,-46.85105 -17.7111,-70.99499c-0.31558,-1.82933 -0.38003,-2.94266 -0.44447,-4.05597c15.30986,-0.10504 30.61961,-0.2397 45.92963,-0.30434c9.65768,-0.04078 19.31581,0.02317 29.90086,0.1726c13.82938,0.09301 26.73161,0.05357 40.07912,-0.04975c20.26377,-0.07243 40.0823,-0.08098 59.90083,-0.08952z" fill="#636978"/>
  <path id="svg_10" d="m196.32546,148.76149c-12.90226,0.03946 -25.80449,0.0789 -39.1935,0.06761c-0.34876,-5.35876 -0.14594,-10.666 -0.08393,-15.9749c0.27803,-23.79634 20.9567,-48.26076 44.81817,-49.72426c18.0065,-1.1044 36.09152,-0.92868 54.60252,-0.78788c0.47931,13.15666 0.49768,25.77849 0.0524,38.44685c-15.62146,0.05566 -30.77956,0.01476 -45.93698,0.09807c-6.23537,0.03426 -11.57865,2.9528 -13.05143,8.78534c-1.53456,6.07718 -0.89579,12.70315 -1.20725,19.08917z" fill="#414952"/>
  <path id="svg_11" d="m256.9848,120.74238c-0.0184,-12.62183 -0.03677,-25.24366 -0.05536,-38.33836c16.76544,-0.46155 33.58637,-1.29967 50.28217,-0.21422c18.95349,1.23223 33.59311,10.70121 43.40249,28.01143c0.68107,0.94885 1.01169,1.41684 1.34229,1.88484c0,0 0.01657,-0.06751 0.02023,0.32467c5.22858,11.61025 5.33063,23.56077 5.03293,35.56845c-12.69189,0.0114 -25.38376,0.02279 -38.54294,-0.44553c-0.46759,-3.80748 -0.35937,-7.13946 -0.48849,-10.46223c-0.38693,-9.95655 -6.71994,-16.07607 -16.58252,-16.12444c-14.80356,-0.07259 -29.60721,-0.13683 -44.4108,-0.20461z" fill="#23272B"/>
  <path id="svg_12" d="m357.4722,148.05885c-0.16495,-12.08734 -0.267,-24.03786 -5.52841,-35.63667c1.22665,0.32967 2.72732,0.80162 3.71652,1.78703c11.05575,11.01361 22.03262,22.10642 33.20633,33.46083c-10.19354,0.34479 -20.56265,0.40663 -31.39444,0.38881z" fill="#FFA300"/>
  <path id="svg_13" d="m80.56621,149.13362c0.35933,0.85881 0.42378,1.97214 0.53705,3.50093c0.04882,0.4155 -0.30126,0.56873 -0.49202,0.57892c-0.24049,-1.26833 -0.2902,-2.54683 -0.04503,-4.07985z" fill="#93832F"/>
  <path id="svg_14" d="m351.92737,111.78333c-0.30158,-0.16526 -0.6322,-0.63325 -1.01422,-1.41127c0.2941,0.16283 0.63962,0.63568 1.01422,1.41127z" fill="#FFA300"/>
  <path id="svg_15" d="m81.04878,385.34467c0.08643,-0.22654 0.28943,-0.22596 0.78004,-0.12507c0.28761,0.10032 0.25061,0.52442 0.20827,0.73444c-0.31881,0.0126 -0.59526,-0.18481 -0.98831,-0.60937z" fill="#C3861A"/>
  <path id="svg_16" d="m288.30981,273.06311c21.1388,-0.01981 42.27759,-0.05633 63.41639,-0.05545c30.55368,0.00128 55.92514,-19.55324 63.50613,-49.22015c5.88239,-23.01957 11.52454,-46.10053 17.69684,-69.42026c0.42337,-0.26604 0.81167,-0.28559 0.81167,-0.28559c0.04007,24.3274 0.10892,48.65478 0.11423,72.98217c0.01135,51.99092 -0.01019,103.98185 -0.23935,156.58906c-0.4295,0.85569 -0.55444,1.13275 -0.59585,1.44745c-2.48114,0.13529 -4.96228,0.3887 -7.44342,0.38849c-55.96338,-0.00461 -111.92676,-0.03696 -168.27704,-0.21194c-0.38379,-26.87424 -0.38065,-53.60065 -0.36527,-80.89444c0.01227,-0.56739 -0.0296,-0.76303 0.43329,-0.654c10.18021,0.08588 19.89752,0.06272 29.87128,0.06684c0.41116,-0.24893 0.56592,-0.52524 0.81714,-1.26135c0.14895,-10.13016 0.20144,-19.80051 0.25396,-29.47083z" fill="#23272B"/>
  <path id="svg_17" d="m433.83939,153.68079c-0.09855,0.40087 -0.48685,0.42042 -0.68085,0.40364c-0.04028,-1.17592 0.11343,-2.33507 0.45383,-3.78778c0.23297,0.79869 0.27926,1.89097 0.22702,3.38414z" fill="#53462C"/>
  <path id="svg_18" d="m511.12176,225.0825c0.19071,-0.00982 0.49451,0.19562 0.76081,0.68148c-0.29929,0.07927 -0.50269,-0.1696 -0.76081,-0.68148z" fill="#FFCE00"/>
  <path id="svg_19" d="m433.28729,385.03735c-0.22601,-0.25171 -0.10107,-0.52877 0.28049,-0.92035c0.11108,0.18433 0.04898,0.52082 -0.28049,0.92035z" fill="#53462C"/>
  <path id="svg_20" d="m201.94313,507.6698c-0.18671,0.10446 -0.53738,0.01389 -0.97859,-0.36218c0.21118,-0.13458 0.51289,0.01629 0.97859,0.36218z" fill="#FFCE00"/>
  <path id="svg_21" d="m225.03848,272.93842c-0.00702,-4.4408 -0.00702,-8.87052 -0.00702,-13.97113c10.60425,0 20.79554,0 31.44062,-0.06257c0.45379,-0.06259 0.47845,0.09272 0.47753,0.62934c-0.01565,15.05285 -0.03036,29.56909 -0.04507,44.08536c0,0 0.04187,0.19564 0.03204,0.29531c-10.11239,0.09964 -20.21498,0.09964 -31.06607,0.09964c0,-10.25644 0,-19.66714 -0.02818,-29.78564c-0.17763,-1.02905 -0.42705,-1.2189 -0.77646,-1.27738c0,0 -0.02037,-0.0018 -0.02739,-0.01293z" fill="#FE8205"/>
  <path id="svg_22" d="m225.13934,273.15301c0.27594,-0.14318 0.52536,0.04667 0.65131,0.61008c-0.25244,0.06293 -0.43721,-0.15393 -0.65131,-0.61008z" fill="#605245"/>
  <path id="svg_23" d="m256.52115,120.78891c15.26724,0.02125 30.07089,0.08549 44.87445,0.15808c9.86258,0.04837 16.19559,6.16789 16.58252,16.12444c0.12912,3.32277 0.0209,6.65475 0.01983,10.44574c-20.17019,0.57031 -40.33904,0.67741 -60.91714,0.93772c-20.2278,0.16176 -40.04633,0.17031 -60.3101,0.24274c-0.13379,-6.32216 -0.77256,-12.94813 0.762,-19.02531c1.47278,-5.83254 6.81606,-8.75108 13.05143,-8.78534c15.15742,-0.08331 30.31552,-0.04241 45.93701,-0.09807z" fill="#FFA300"/>
  <path id="svg_24" d="m257.36743,303.72845c-0.44818,-14.6253 -0.43347,-29.14154 -0.42654,-44.11627c10.1134,-0.45846 20.23462,-0.45846 31.13385,-0.45846c0,4.46872 0,8.73037 0.11752,13.45071c0.06503,10.129 0.01254,19.79935 -0.32526,30.02332c-0.52603,0.7073 -0.72586,0.90286 -0.88476,1.14026c-9.71729,0.02316 -19.4346,0.04632 -29.61481,-0.03956z" fill="#FA5D0F"/>
  <path id="svg_25" d="m287.23871,303.79532c-0.09757,-0.26471 0.10226,-0.46027 0.53186,-0.70776c0.03406,0.18249 -0.1207,0.4588 -0.53186,0.70776z" fill="#D45D12"/>
 </g>
</svg>