<svg version="1.1" id="Layer_1" xmlns="http://www.w3.org/2000/svg" xmlns:xlink="http://www.w3.org/1999/xlink" x="0px" y="0px"
	 width="100%" viewBox="0 0 512 512" enable-background="new 0 0 512 512" xml:space="preserve">
<path fill="#FFCE00" opacity="1.000000" stroke="none" 
	d="
M225.000000,1.000003 
	C246.020889,1.000000 267.041779,1.000000 288.190735,1.336072 
	C293.827454,2.779667 299.315399,4.005335 304.848419,4.973748 
	C325.993683,8.674694 346.242493,15.326312 365.618408,24.376959 
	C386.626740,34.190113 406.023376,46.646248 423.542328,61.971760 
	C439.707123,76.112747 454.310699,91.597008 466.751892,109.163887 
	C479.568756,127.261223 489.998199,146.639526 497.552185,167.402649 
	C504.308014,185.971970 509.943054,204.953506 510.750183,224.879837 
	C508.859497,223.640091 507.169678,222.577866 505.790222,221.203995 
	C488.981445,204.462921 472.236969,187.657242 455.434296,170.909958 
	C448.389435,163.888260 441.246277,156.965149 433.987976,149.626587 
	C432.129089,148.902771 430.433533,148.262924 428.730377,148.241882 
	C415.501831,148.078354 402.271790,148.034119 388.866638,147.670044 
	C377.692932,136.315628 366.716064,125.222816 355.660309,114.209206 
	C354.671112,113.223801 353.170441,112.751854 351.940125,112.029999 
	C351.972961,112.018555 351.956390,112.086067 351.927368,111.783325 
	C351.552765,111.007736 351.207245,110.534889 350.562683,109.891205 
	C340.804718,92.891006 326.165100,83.422028 307.211609,82.189804 
	C290.515808,81.104355 273.694885,81.942467 256.468506,81.869179 
	C237.957718,82.201263 219.872696,82.025543 201.866196,83.129936 
	C178.004730,84.593437 157.326065,109.057861 157.048035,132.854202 
	C156.986023,138.163101 156.783203,143.470337 156.204834,148.696625 
	C146.106537,148.597946 136.448410,148.533997 126.790733,148.574783 
	C111.480705,148.639420 96.170959,148.774078 80.566208,149.133621 
	C80.321037,150.666641 80.370750,151.945145 80.402359,153.677307 
	C80.380241,228.829727 80.371239,303.528473 80.395752,378.227234 
	C80.396500,380.524048 80.745544,382.820770 81.048782,385.344666 
	C81.441826,385.769226 81.718285,385.966644 82.170815,386.437195 
	C83.728188,388.151093 85.083733,389.617615 86.494568,391.028839 
	C123.328407,427.872681 160.178314,464.700531 196.971436,501.584991 
	C198.547287,503.164825 199.607483,505.259064 200.498749,507.063599 
	C198.345123,506.675079 196.581680,506.413269 194.859055,505.986603 
	C168.926620,499.563751 144.538849,489.364624 121.869743,475.279327 
	C99.021507,461.082703 79.081253,443.459808 61.484970,423.078735 
	C49.319050,408.987518 38.803741,393.755707 30.225658,377.354736 
	C16.032410,350.217773 6.167441,321.559784 2.918030,290.880219 
	C2.845294,290.193481 1.664123,289.624115 1.000000,289.000000 
	C1.000000,267.645782 1.000000,246.291550 1.341251,224.795868 
	C2.118992,223.813477 2.761996,223.018524 2.961017,222.124695 
	C5.983759,208.549500 8.479994,194.837234 12.039674,181.406235 
	C17.001497,162.684860 24.569229,144.859894 35.031853,128.583206 
	C44.237160,114.262505 54.062641,100.229088 64.825935,87.059067 
	C72.429497,77.755302 81.903313,69.938110 90.817146,61.756855 
	C104.432426,49.260544 119.834045,39.168789 136.084686,30.558161 
	C163.369171,16.101105 192.259583,6.341560 223.115448,2.918477 
	C223.806076,2.841859 224.374557,1.664111 225.000000,1.000003 
z"/>
<path fill="#FFA300" opacity="1.000000" stroke="none" 
	d="
M200.907898,507.113647 
	C199.607483,505.259064 198.547287,503.164825 196.971436,501.584991 
	C160.178314,464.700531 123.328407,427.872681 86.494568,391.028839 
	C85.083733,389.617615 83.728188,388.151093 82.213150,386.227173 
	C82.079430,385.744019 82.116425,385.319916 82.576218,385.285095 
	C89.031914,385.241608 95.027802,385.228821 101.023697,385.225037 
	C152.986633,385.192108 204.949570,385.160828 257.299408,385.276886 
	C313.649689,385.451874 369.613068,385.484222 425.576447,385.488831 
	C428.057587,385.489044 430.538727,385.235626 433.287292,385.037354 
	C433.616760,384.637817 433.678864,384.301331 433.788879,383.500702 
	C433.844879,331.045685 433.866425,279.054749 433.855072,227.063828 
	C433.849762,202.736435 433.780914,178.409058 433.839386,153.680786 
	C433.891632,152.187622 433.845337,151.095337 433.885834,149.979126 
	C433.972626,149.955185 434.147766,149.997223 434.147766,149.997223 
	C441.246277,156.965149 448.389435,163.888260 455.434296,170.909958 
	C472.236969,187.657242 488.981445,204.462921 505.790222,221.203995 
	C507.169678,222.577866 508.859497,223.640091 510.716675,224.891113 
	C511.028229,224.935089 511.008636,224.867233 511.121765,225.082520 
	C511.379883,225.594376 511.583282,225.843246 512.144409,226.309189 
	C512.629150,226.382675 512.814575,226.191330 513.000000,226.000000 
	C513.000000,246.687561 513.000000,267.375122 512.639648,288.221252 
	C511.857361,289.228394 511.234924,290.034180 511.043549,290.931885 
	C508.104614,304.715851 505.855621,318.683838 502.169128,332.262299 
	C497.315857,350.138245 489.715973,366.979401 480.514679,383.122894 
	C471.438599,399.046783 461.284271,414.277832 448.695557,427.490845 
	C437.215546,439.540192 424.856628,450.913635 411.888519,461.346252 
	C391.909363,477.419312 369.408264,489.405029 345.208435,498.012787 
	C327.603668,504.274658 309.695740,509.367798 290.976013,511.088531 
	C290.264771,511.153900 289.656342,512.337524 289.000000,513.000000 
	C267.979095,513.000000 246.958206,513.000000 225.780640,512.641357 
	C217.785004,510.810150 209.946045,509.337494 201.943130,507.669830 
	C201.477432,507.323914 201.175720,507.173035 200.907745,507.035675 
	C200.941498,507.049194 200.907898,507.113647 200.907898,507.113647 
z"/>
<path fill="#000000" opacity="1.000000" stroke="none" 
	d="
M513.000000,225.531342 
	C512.814575,226.191330 512.629150,226.382675 512.181885,226.028778 
	C511.616272,225.278122 511.312469,225.072678 511.008636,224.867218 
	C511.008636,224.867233 511.028229,224.935089 511.061737,224.923813 
	C509.943054,204.953506 504.308014,185.971970 497.552185,167.402649 
	C489.998199,146.639526 479.568756,127.261223 466.751892,109.163887 
	C454.310699,91.597008 439.707123,76.112747 423.542328,61.971760 
	C406.023376,46.646248 386.626740,34.190113 365.618408,24.376959 
	C346.242493,15.326312 325.993683,8.674694 304.848419,4.973748 
	C299.315399,4.005335 293.827454,2.779667 288.659393,1.336072 
	C363.593842,1.000000 438.187714,1.000000 513.000000,1.000000 
	C513.000000,75.687416 513.000000,150.375046 513.000000,225.531342 
z"/>
<path fill="#000000" opacity="1.000000" stroke="none" 
	d="
M202.107101,507.864868 
	C209.946045,509.337494 217.785004,510.810150 225.311981,512.641357 
	C150.406296,513.000000 75.812599,513.000000 1.000000,513.000000 
	C1.000000,438.645905 1.000000,364.291626 1.000000,289.468658 
	C1.664123,289.624115 2.845294,290.193481 2.918030,290.880219 
	C6.167441,321.559784 16.032410,350.217773 30.225658,377.354736 
	C38.803741,393.755707 49.319050,408.987518 61.484970,423.078735 
	C79.081253,443.459808 99.021507,461.082703 121.869743,475.279327 
	C144.538849,489.364624 168.926620,499.563751 194.859055,505.986603 
	C196.581680,506.413269 198.345123,506.675079 200.498749,507.063599 
	C200.907898,507.113647 200.941498,507.049194 200.998276,507.321167 
	C201.405746,507.683685 201.756424,507.774261 202.107101,507.864868 
z"/>
<path fill="#000000" opacity="1.000000" stroke="none" 
	d="
M289.468658,513.000000 
	C289.656342,512.337524 290.264771,511.153900 290.976013,511.088531 
	C309.695740,509.367798 327.603668,504.274658 345.208435,498.012787 
	C369.408264,489.405029 391.909363,477.419312 411.888519,461.346252 
	C424.856628,450.913635 437.215546,439.540192 448.695557,427.490845 
	C461.284271,414.277832 471.438599,399.046783 480.514679,383.122894 
	C489.715973,366.979401 497.315857,350.138245 502.169128,332.262299 
	C505.855621,318.683838 508.104614,304.715851 511.043549,290.931885 
	C511.234924,290.034180 511.857361,289.228394 512.639648,288.689941 
	C513.000000,363.593719 513.000000,438.187408 513.000000,513.000000 
	C438.645905,513.000000 364.291626,513.000000 289.468658,513.000000 
z"/>
<path fill="#000000" opacity="1.000000" stroke="none" 
	d="
M224.531342,1.000003 
	C224.374557,1.664111 223.806076,2.841859 223.115448,2.918477 
	C192.259583,6.341560 163.369171,16.101105 136.084686,30.558161 
	C119.834045,39.168789 104.432426,49.260544 90.817146,61.756855 
	C81.903313,69.938110 72.429497,77.755302 64.825935,87.059067 
	C54.062641,100.229088 44.237160,114.262505 35.031853,128.583206 
	C24.569229,144.859894 17.001497,162.684860 12.039674,181.406235 
	C8.479994,194.837234 5.983759,208.549500 2.961017,222.124695 
	C2.761996,223.018524 2.118992,223.813477 1.341251,224.327209 
	C1.000000,149.739456 1.000000,75.478920 1.000000,1.000000 
	C75.354088,1.000000 149.708389,1.000000 224.531342,1.000003 
z"/>
<path fill="#414952" opacity="1.000000" stroke="none" 
	d="
M256.912506,385.129059 
	C204.949570,385.160828 152.986633,385.192108 101.023697,385.225037 
	C95.027802,385.228821 89.031914,385.241608 82.288620,385.184753 
	C81.338211,385.118713 81.135208,385.118134 80.932205,385.117523 
	C80.745544,382.820770 80.396500,380.524048 80.395752,378.227234 
	C80.371239,303.528473 80.380241,228.829727 80.593124,153.667114 
	C80.802002,153.203278 81.152084,153.050049 81.354385,153.350586 
	C87.370377,177.079025 93.110809,200.525421 99.016670,223.930084 
	C106.063866,251.857803 131.818939,272.634949 160.039551,272.928436 
	C181.701172,273.153748 203.367325,272.943726 225.038483,272.938416 
	C225.045502,272.949554 225.065872,272.951355 225.139343,273.153015 
	C225.353439,273.609161 225.538208,273.826019 225.818817,274.470886 
	C225.870514,284.347229 225.870514,293.757935 225.870514,304.014374 
	C236.721603,304.014374 246.824188,304.014374 256.924347,304.482117 
	C256.918762,331.676239 256.915619,358.402649 256.912506,385.129059 
z"/>
<path fill="#414952" opacity="1.000000" stroke="none" 
	d="
M389.042236,147.952988 
	C402.271790,148.034119 415.501831,148.078354 428.730377,148.241882 
	C430.433533,148.262924 432.129089,148.902771 433.987976,149.626602 
	C434.147766,149.997223 433.972626,149.955185 433.699158,150.272705 
	C433.271973,151.749359 433.118256,152.908508 432.735168,154.350464 
	C426.756866,177.686981 421.114716,200.767944 415.232330,223.787506 
	C407.651337,253.454422 382.279877,273.008942 351.726196,273.007660 
	C330.587402,273.006775 309.448608,273.043304 288.192261,272.604431 
	C288.074738,267.884094 288.074738,263.622437 288.074738,259.153717 
	C277.175507,259.153717 267.054291,259.153717 256.941803,259.075562 
	C256.950531,258.997437 256.925873,258.842133 256.924927,258.383423 
	C256.927795,237.124115 256.965759,216.323486 256.924164,195.522995 
	C256.892883,179.884598 256.759491,164.246399 257.080811,148.454895 
	C277.658905,148.194580 297.827759,148.087479 318.465271,147.996887 
	C331.625793,148.001984 344.317657,147.990585 357.472198,148.058853 
	C368.303986,148.076675 378.673096,148.014832 389.042236,147.952988 
z"/>
<path fill="#636978" opacity="1.000000" stroke="none" 
	d="
M256.671539,148.608109 
	C256.759491,164.246399 256.892883,179.884598 256.924164,195.522995 
	C256.965759,216.323486 256.927795,237.124115 256.471130,258.445984 
	C245.826996,258.967285 235.635712,258.967285 225.031464,258.967285 
	C225.031464,264.067902 225.031464,268.497620 225.031464,272.927307 
	C203.367325,272.943726 181.701172,273.153748 160.039551,272.928436 
	C131.818939,272.634949 106.063866,251.857803 99.016670,223.930084 
	C93.110809,200.525421 87.370377,177.079025 81.305573,152.935089 
	C80.989990,151.105759 80.925545,149.992432 80.861099,148.879120 
	C96.170959,148.774078 111.480705,148.639420 126.790733,148.574783 
	C136.448410,148.533997 146.106537,148.597946 156.691589,148.747375 
	C170.520966,148.840393 183.423203,148.800949 196.770706,148.697632 
	C217.034485,148.625198 236.853012,148.616653 256.671539,148.608109 
z"/>
<path fill="#414952" opacity="1.000000" stroke="none" 
	d="
M196.325455,148.761490 
	C183.423203,148.800949 170.520966,148.840393 157.131958,148.829102 
	C156.783203,143.470337 156.986023,138.163101 157.048035,132.854202 
	C157.326065,109.057861 178.004730,84.593437 201.866196,83.129936 
	C219.872696,82.025543 237.957718,82.201263 256.468719,82.342056 
	C256.948029,95.498718 256.966400,108.120552 256.521118,120.788910 
	C240.899658,120.844566 225.741562,120.803673 210.584137,120.886978 
	C204.348770,120.921242 199.005493,123.839783 197.532715,129.672318 
	C195.998154,135.749496 196.636917,142.375473 196.325455,148.761490 
z"/>
<path fill="#23272B" opacity="1.000000" stroke="none" 
	d="
M256.984802,120.742378 
	C256.966400,108.120552 256.948029,95.498718 256.929443,82.404015 
	C273.694885,81.942467 290.515808,81.104355 307.211609,82.189804 
	C326.165100,83.422028 340.804718,92.891006 350.614105,110.201233 
	C351.295166,111.150078 351.625793,111.618073 351.956390,112.086067 
	C351.956390,112.086067 351.972961,112.018555 351.976624,112.410736 
	C357.205200,124.020988 357.307251,135.971512 357.009552,147.979187 
	C344.317657,147.990585 331.625793,148.001984 318.466614,147.533661 
	C317.999023,143.726181 318.107239,140.394196 317.978119,137.071426 
	C317.591187,127.114883 311.258179,120.995361 301.395599,120.946991 
	C286.592041,120.874397 271.788391,120.810165 256.984802,120.742378 
z"/>
<path fill="#FFA300" opacity="1.000000" stroke="none" 
	d="
M357.472198,148.058853 
	C357.307251,135.971512 357.205200,124.020988 351.943787,112.422180 
	C353.170441,112.751854 354.671112,113.223801 355.660309,114.209206 
	C366.716064,125.222816 377.692932,136.315628 388.866638,147.670044 
	C378.673096,148.014832 368.303986,148.076675 357.472198,148.058853 
z"/>
<path fill="#93832F" opacity="1.000000" stroke="none" 
	d="
M80.566208,149.133621 
	C80.925545,149.992432 80.989990,151.105759 81.103264,152.634552 
	C81.152084,153.050049 80.802002,153.203278 80.611237,153.213470 
	C80.370750,151.945145 80.321037,150.666641 80.566208,149.133621 
z"/>
<path fill="#FFA300" opacity="1.000000" stroke="none" 
	d="
M351.927368,111.783325 
	C351.625793,111.618073 351.295166,111.150078 350.913147,110.372063 
	C351.207245,110.534889 351.552765,111.007736 351.927368,111.783325 
z"/>
<path fill="#C3861A" opacity="1.000000" stroke="none" 
	d="
M81.048782,385.344666 
	C81.135208,385.118134 81.338211,385.118713 81.828819,385.219604 
	C82.116425,385.319916 82.079430,385.744019 82.037094,385.954041 
	C81.718285,385.966644 81.441826,385.769226 81.048782,385.344666 
z"/>
<path fill="#23272B" opacity="1.000000" stroke="none" 
	d="
M288.309814,273.063110 
	C309.448608,273.043304 330.587402,273.006775 351.726196,273.007660 
	C382.279877,273.008942 407.651337,253.454422 415.232330,223.787506 
	C421.114716,200.767944 426.756866,177.686981 432.929169,154.367249 
	C433.352539,154.101212 433.740845,154.081665 433.740845,154.081665 
	C433.780914,178.409058 433.849762,202.736435 433.855072,227.063828 
	C433.866425,279.054749 433.844879,331.045685 433.615723,383.652893 
	C433.186218,384.508575 433.061279,384.785645 433.019867,385.100342 
	C430.538727,385.235626 428.057587,385.489044 425.576447,385.488831 
	C369.613068,385.484222 313.649689,385.451874 257.299408,385.276886 
	C256.915619,358.402649 256.918762,331.676239 256.934143,304.382446 
	C256.946411,303.815063 256.904541,303.619415 257.367432,303.728455 
	C267.547638,303.814331 277.264954,303.791168 287.238708,303.795288 
	C287.649872,303.546356 287.804626,303.270050 288.055847,302.533936 
	C288.204803,292.403778 288.257294,282.733429 288.309814,273.063110 
z"/>
<path fill="#53462C" opacity="1.000000" stroke="none" 
	d="
M433.839386,153.680786 
	C433.740845,154.081665 433.352539,154.101212 433.158539,154.084427 
	C433.118256,152.908508 433.271973,151.749359 433.612366,150.296646 
	C433.845337,151.095337 433.891632,152.187622 433.839386,153.680786 
z"/>
<path fill="#FFCE00" opacity="1.000000" stroke="none" 
	d="
M511.121765,225.082504 
	C511.312469,225.072678 511.616272,225.278122 511.882568,225.763977 
	C511.583282,225.843246 511.379883,225.594376 511.121765,225.082504 
z"/>
<path fill="#53462C" opacity="1.000000" stroke="none" 
	d="
M433.287292,385.037354 
	C433.061279,384.785645 433.186218,384.508575 433.567780,384.117004 
	C433.678864,384.301331 433.616760,384.637817 433.287292,385.037354 
z"/>
<path fill="#FFCE00" opacity="1.000000" stroke="none" 
	d="
M201.943130,507.669800 
	C201.756424,507.774261 201.405746,507.683685 200.964539,507.307617 
	C201.175720,507.173035 201.477432,507.323914 201.943130,507.669800 
z"/>
<path fill="#FE8205" opacity="1.000000" stroke="none" 
	d="
M225.038483,272.938416 
	C225.031464,268.497620 225.031464,264.067902 225.031464,258.967285 
	C235.635712,258.967285 245.826996,258.967285 256.472076,258.904724 
	C256.925873,258.842133 256.950531,258.997437 256.949615,259.534058 
	C256.933960,274.586914 256.919250,289.103149 256.904541,303.619415 
	C256.904541,303.619415 256.946411,303.815063 256.936584,303.914734 
	C246.824188,304.014374 236.721603,304.014374 225.870514,304.014374 
	C225.870514,293.757935 225.870514,284.347229 225.842331,274.228729 
	C225.664703,273.199677 225.415283,273.009827 225.065872,272.951355 
	C225.065872,272.951355 225.045502,272.949554 225.038483,272.938416 
z"/>
<path fill="#605245" opacity="1.000000" stroke="none" 
	d="
M225.139343,273.153015 
	C225.415283,273.009827 225.664703,273.199677 225.790649,273.763092 
	C225.538208,273.826019 225.353439,273.609161 225.139343,273.153015 
z"/>
<path fill="#FFA300" opacity="1.000000" stroke="none" 
	d="
M256.521149,120.788910 
	C271.788391,120.810165 286.592041,120.874397 301.395599,120.946991 
	C311.258179,120.995361 317.591187,127.114883 317.978119,137.071426 
	C318.107239,140.394196 317.999023,143.726181 317.997955,147.517166 
	C297.827759,148.087479 277.658905,148.194580 257.080811,148.454895 
	C236.853012,148.616653 217.034485,148.625198 196.770706,148.697632 
	C196.636917,142.375473 195.998154,135.749496 197.532715,129.672318 
	C199.005493,123.839783 204.348770,120.921242 210.584137,120.886978 
	C225.741562,120.803673 240.899658,120.844566 256.521149,120.788910 
z"/>
<path fill="#FA5D0F" opacity="1.000000" stroke="none" 
	d="
M257.367432,303.728455 
	C256.919250,289.103149 256.933960,274.586914 256.940887,259.612183 
	C267.054291,259.153717 277.175507,259.153717 288.074738,259.153717 
	C288.074738,263.622437 288.074738,267.884094 288.192261,272.604431 
	C288.257294,282.733429 288.204803,292.403778 287.867004,302.627747 
	C287.340973,303.335052 287.141144,303.530609 286.982239,303.768005 
	C277.264954,303.791168 267.547638,303.814331 257.367432,303.728455 
z"/>
<path fill="#D45D12" opacity="1.000000" stroke="none" 
	d="
M287.238708,303.795319 
	C287.141144,303.530609 287.340973,303.335052 287.770569,303.087555 
	C287.804626,303.270050 287.649872,303.546356 287.238708,303.795319 
z"/>
</svg>