<svg width="512" height="512" xmlns="http://www.w3.org/2000/svg" xml:space="preserve" enable-background="new 0 0 512 512" version="1.1">

 <g>
  <title>Layer 1</title>
  <path id="svg_1" d="m235,1c14.35423,0 28.70847,0 43.76263,0.35295c13.34226,2.34997 26.1077,3.77552 38.60013,6.46779c23.11765,4.98214 44.76972,13.95942 65.43088,25.4888c30.00565,16.74383 55.24258,39.07543 76.54691,65.77056c15.24844,19.10692 27.33547,40.26821 36.21524,63.11205c7.63699,19.64658 13.26245,39.84195 15.50402,60.89092c0.42551,3.99588 1.28235,7.9458 1.94019,11.91693c0,14.35423 0,28.70847 -0.35297,43.76267c-0.78189,4.76269 -0.93194,8.87838 -1.69223,12.87811c-2.24408,11.80511 -4.72958,23.56439 -7.38809,35.16064c-1.58978,-1.44415 -2.93796,-2.68158 -4.23083,-3.97427c-56.23981,-56.23096 -112.46622,-112.47531 -168.75144,-168.66077c-1.67978,-1.6768 -3.97006,-2.74197 -6.18911,-4.32657c-8.5525,-13.86035 -20.83173,-20.72903 -36.6847,-20.78972c-36.61391,-0.14018 -73.22894,-0.10456 -109.84289,0.03051c-4.44002,0.01638 -9.02724,0.54788 -13.28876,1.75194c-22.1649,6.26249 -35.22664,23.38269 -35.70528,46.58514c-0.20935,10.14808 -0.07071,20.30334 -0.5374,30.49367c-2.60765,0.06276 -4.76796,0.09101 -6.92834,0.11094c-9.45294,0.08719 -14.36677,4.99379 -14.40202,14.46453c-0.03341,8.97593 0.1887,17.95793 -0.07891,26.92601c-0.16832,5.64083 1.67205,10.02793 6.34593,13.60029c0.54596,0.41742 0.90831,0.59262 1.39612,0.75229c0.12547,-0.0155 0.33019,0.13284 0.39685,0.47611c4.566,4.85138 9.06536,9.35949 13.62889,14.32495c0.0871,23.56805 0.0839,46.67898 0.18168,69.78943c0.00798,1.88217 0.70571,3.76141 1.25637,5.92785c2.72438,2.76871 5.2753,5.25162 7.89774,8.13611c0.11716,7.15262 3.07548,12.1792 9.04086,15.80313c1.50293,2.13428 2.80281,4.07123 4.42035,5.69098c41.06923,41.12412 82.17461,82.21213 123.2572,123.32291c1.52219,1.52316 2.87931,3.2113 4.28952,5.05719c-0.0238,0.23456 -0.03854,0.70593 -0.03854,0.70593c-14.35422,0 -28.70845,0 -43.76266,-0.3529c-13.3423,-2.35004 -26.10776,-3.77561 -38.60023,-6.46793c-23.11762,-4.98218 -44.76969,-13.95941 -65.43084,-25.4888c-30.00565,-16.74384 -55.24256,-39.07544 -76.54686,-65.77057c-15.24844,-19.10687 -27.33549,-40.26819 -36.21532,-63.112c-7.63698,-19.64658 -13.26211,-39.84201 -15.5039,-60.8909c-0.42558,-3.99585 -1.28236,-7.94577 -1.94019,-11.9169c0,-14.35422 0,-28.70845 0.35295,-43.76266c2.35,-13.34229 3.7756,-26.10776 6.46787,-38.60024c4.98213,-23.11763 13.95938,-44.7697 25.48877,-65.43085c16.74384,-30.00562 39.07541,-55.24259 65.77059,-76.54683c19.10693,-15.2484 40.26816,-27.33552 63.112,-36.21531c19.6466,-7.63698 39.84202,-13.26215 60.89092,-15.50392c3.99585,-0.42557 7.94579,-1.28236 11.9169,-1.94019z" fill="#EFC84A"/>
  <path id="svg_6" d="m503.56674,326.80142c-7.73346,28.62442 -20.32898,54.85114 -37.50217,78.90659c-11.98092,16.78235 -25.97756,31.64523 -41.43631,45.2724c-17.05133,15.03107 -35.84594,27.30127 -56.23703,37.20443c-21.85424,10.61371 -44.81793,17.81339 -68.77392,21.74775c-6.48981,1.06585 -13.0994,1.40249 -20.10449,2.10037c-1.88449,-1.58478 -3.24161,-3.27292 -4.7638,-4.79608c-41.08259,-41.11078 -82.18797,-82.19879 -123.2572,-123.32291c-1.61754,-1.61975 -2.91742,-3.5567 -3.99965,-5.66141c9.49243,-0.12072 18.64528,0.58243 27.73807,0.11564c7.93742,-0.40754 12.58517,-6.03852 12.86391,-13.87439c0.12416,-3.49036 0.03978,-6.98813 0.50485,-10.55741c23.73906,-0.11462 47.0233,-0.15439 70.3504,0.28259c0.06976,3.05616 -0.21151,5.69226 0.24811,8.19208c0.24499,1.3324 1.77084,2.42932 2.71252,4.07916c-1.36245,13.3624 6.21512,19.74094 17.97992,18.53229c1.64072,-0.16855 3.51429,0.43698 4.92752,-0.15594c3.3935,-1.4238 7.90427,-2.55191 9.52689,-5.2598c2.28589,-3.81476 2.36908,-8.94943 3.87781,-13.55923c17.28915,-0.02109 34.09457,-0.00263 50.8963,0.45452c-0.34149,6.08753 0.29111,11.39954 5.05008,15.32621c5.73294,4.73034 20.62182,4.61871 26.26074,-0.21585c4.89389,-4.19584 4.83148,-9.84867 4.98636,-15.59174c3.78485,0.27405 4.57431,-1.52429 4.55215,-4.5531c-0.08954,-12.22824 -0.01138,-24.45773 0.46744,-36.67358c4.10367,-0.0856 7.7673,0.03424 11.38007,-0.33875c4.46713,-0.46118 5.46911,-3.61172 5.18323,-7.56183c-0.27552,-3.80676 -2.32254,-5.73569 -6.04801,-5.83542c-3.6459,-0.09765 -7.29614,-0.03506 -10.96939,-0.48983c-0.31577,-3.73938 -0.55945,-7.03678 -0.90543,-10.32337c-1.75997,-16.72015 -15.52298,-30.78528 -32.08899,-32.2283c-9.05361,-0.7886 -18.1784,-0.76007 -27.26675,-1.45834c0.0979,-1.06803 0.19141,-1.77768 0.7489,-2.42942c3.94657,0.05524 7.43579,0.18909 10.9104,0.02066c6.67706,-0.32363 11.58011,-5.08123 11.70258,-11.77183c0.19729,-10.77718 0.18927,-21.5631 -0.00141,-32.34055c-0.11605,-6.55873 -5.09927,-11.52418 -11.69696,-11.91865c-3.79818,-0.22708 -7.62365,0.00143 -11.51574,-0.44751c-0.10102,-11.12842 -0.1543,-21.78449 -0.13544,-32.44042c0.0155,-8.7449 -1.05261,-17.25195 -5.12357,-25.15637c2.00565,1.35033 4.29593,2.4155 5.97571,4.0923c56.28522,56.18546 112.51163,112.42981 168.75144,168.66077c1.29287,1.29269 2.64105,2.53012 4.23086,3.97427z" fill="#D7B442"/>
  <path id="svg_7" d="m258.90656,353.74225c-23.28426,0.03976 -46.5685,0.07953 -70.7869,0.15997c-17.25743,0.04501 -33.5807,0.04935 -50.36208,-0.0181c-2.90478,-0.00991 -5.35147,0.05195 -7.79815,0.11381c-0.37722,-1.88062 -1.07495,-3.75986 -1.08293,-5.64203c-0.09778,-23.11045 -0.09458,-46.22138 -0.08698,-70.25403c-0.02225,-5.23865 -0.07498,-9.55548 0.25536,-14.04111c0.90008,-1.47296 1.85855,-2.77429 1.86689,-4.08167c0.10254,-16.0478 0.11762,-32.09696 -0.02957,-48.14408c-0.01216,-1.32697 -1.36738,-2.6416 -2.0986,-3.96198c0.01939,-10.15201 -0.11925,-20.30727 0.0901,-30.45535c0.47864,-23.20245 13.54038,-40.32265 35.70528,-46.58514c4.26152,-1.20406 8.84874,-1.73556 13.28876,-1.75194c36.61395,-0.13507 73.22898,-0.17069 109.84289,-0.03051c15.85297,0.06069 28.1322,6.92937 36.6847,20.78972c4.28436,8.13869 5.35247,16.64574 5.33697,25.39064c-0.01886,10.65593 0.03442,21.312 0.14288,32.63301c0.08643,0.665 0.10291,1.05016 -0.12579,1.40372c-0.38617,1.16017 -0.67951,1.96651 -0.68109,2.77344c-0.03104,15.74135 -0.04932,31.48285 0.00824,47.22403c0.00461,1.25986 0.58002,2.51758 0.89807,4.03381c0.01538,0.42917 0.02283,0.60077 0.0303,0.77234c-0.09353,0.70969 -0.18704,1.41934 -0.72622,2.56152c-8.32755,0.39447 -16.20945,0.35642 -24.09308,-0.14746c-0.0033,-5.26901 0.01477,-10.07232 -0.00992,-14.87542c-0.09363,-18.20966 -0.20108,-36.41925 -0.56052,-54.95441c-1.24615,-0.42012 -2.23507,-0.59709 -3.22409,-0.59738c-46.62629,-0.01366 -93.25259,-0.01519 -139.87889,0.00491c-1.27075,0.00055 -2.54143,0.25314 -3.74406,0.38098c-0.2385,0.79575 -0.49979,1.26177 -0.50051,1.72818c-0.0386,24.97779 -0.07513,49.95566 0.00283,74.93317c0.00294,0.94244 1.13781,1.88132 2.20782,2.89615c38.02759,0.13153 75.59258,0.18881 112.95621,0.47339c-10.49753,9.38434 -13.55402,21.33895 -13.91315,34.52868c-3.59347,0.01932 -6.72513,0.0575 -9.85591,0.02195c-4.61382,-0.0524 -6.4787,2.40246 -6.5218,6.79226c-0.04404,4.48441 2.05177,6.75498 6.53767,6.81116c3.45953,0.04336 6.91908,0.08548 10.41447,0.61096c-0.03915,9.82282 -0.11419,19.16281 -0.1892,28.50281m-28.79476,-203.58859c-14.10536,-0.02092 -28.21144,-0.11161 -42.31505,0.0355c-1.56418,0.0163 -4.40327,1.29862 -4.46261,2.14685c-0.39961,5.71267 -0.20821,11.46663 -0.20821,17.49599c16.44623,0 32.17621,0 48.8315,0.13014c16.57046,0 33.14093,0 49.86734,0c0,-6.9194 0,-13.24496 0,-19.68621c-17.25467,0 -34.01491,0 -51.71297,-0.12227m-65.54338,144.83596c-7.15469,6.9459 -8.90938,15.59037 -4.77531,23.52567c3.92372,7.53155 12.47715,11.79233 20.49232,9.99603c8.2838,-1.85647 13.58724,-7.02469 15.20798,-15.34408c1.54933,-7.95282 -1.33348,-14.61237 -7.969,-19.10505c-7.37551,-4.99368 -15.02444,-4.60238 -22.95599,0.92743z" fill="#45C4A1"/>
  <path id="svg_8" d="m128.3363,207.91135c1.17852,1.28206 2.53374,2.59669 2.5459,3.92366c0.14719,16.04712 0.13211,32.09628 0.02957,48.14408c-0.00834,1.30738 -0.96681,2.60871 -2.30763,4.06806c-5.08417,0.05383 -9.34452,-0.04752 -13.60487,-0.1489c0,0 -0.20472,-0.14834 -0.50945,-0.38275c-0.66997,-0.40445 -1.03522,-0.57452 -1.40047,-0.74459c-4.49027,-3.33015 -6.33064,-7.71725 -6.16232,-13.35808c0.26761,-8.96808 0.0455,-17.95008 0.07891,-26.92601c0.03525,-9.47074 4.94908,-14.37734 14.40202,-14.46453c2.16038,-0.01993 4.32069,-0.04818 6.92834,-0.11094z" fill="#3FA69B"/>
  <path id="svg_9" d="m138.21568,353.9559c16.32328,-0.00433 32.64655,-0.00867 49.44918,0.02121c0.46907,3.52857 0.55345,7.02634 0.42929,10.5167c-0.27874,7.83587 -4.92649,13.46685 -12.86391,13.87439c-9.09279,0.46679 -18.24564,-0.23636 -27.79311,-0.46079c-6.33104,-3.30835 -9.28936,-8.33493 -9.33093,-15.93063c0.03922,-3.23673 0.07434,-5.62879 0.10948,-8.02088z" fill="#667A89"/>
  <path id="svg_10" d="m115.06593,264.24152c4.19369,-0.24189 8.45404,-0.14054 13.15512,-0.02555c0.49349,4.33042 0.54622,8.64725 0.50429,13.42862c-4.59405,-4.04358 -9.09341,-8.55169 -13.65941,-13.40307z" fill="#C9BA51"/>
  <path id="svg_11" d="m137.75758,353.88412c0.42296,2.46387 0.38784,4.85593 0.2771,7.69111c-2.62651,-2.03986 -5.17743,-4.52277 -7.90181,-7.29148c2.27324,-0.34768 4.71993,-0.40954 7.62471,-0.39963z" fill="#D7B442"/>
  <path id="svg_12" d="m113.27296,263.01312c0.18164,-0.07214 0.54689,0.09793 1.09141,0.51789c-0.1831,0.07473 -0.54545,-0.10047 -1.09141,-0.51789z" fill="#C9BA51"/>
  <path id="svg_13" d="m258.98355,310.98898c-0.10309,-13.1756 2.9534,-25.13021 13.77225,-34.69754c2.89627,-1.92669 5.17114,-3.6336 7.66183,-4.92398c7.77585,-4.02859 16.288,-4.19562 24.76972,-4.41678c7.88189,0.03806 15.76379,0.07611 24.08697,0.03998c9.534,0.26578 18.65879,0.23725 27.7124,1.02585c16.56601,1.44302 30.32902,15.50815 32.08899,32.2283c0.34598,3.28659 0.58966,6.58399 0.90116,10.78595c0.01236,5.18976 0.00406,9.46991 -0.00421,13.75006c-0.01624,12.22904 -0.0944,24.45853 -0.00486,36.68677c0.02216,3.02881 -0.7673,4.82715 -5.01873,4.49731c-12.5318,0.01709 -24.17932,0.05777 -35.82688,0.09845c-16.80545,-0.01843 -33.61087,-0.03689 -51.34537,-0.06652c-12.57293,0.00814 -24.21682,0.02743 -35.86071,0.04675c-0.94776,-1.20319 -2.47361,-2.30011 -2.7186,-3.63251c-0.45962,-2.49982 -0.17835,-5.13592 -0.24811,-8.19208c0.03217,-9.81674 0.10721,-19.15673 0.13452,-29.4263c-0.06527,-5.22094 -0.08282,-9.51232 -0.10037,-13.80371m17.69324,5.49607c31.58352,0.04281 63.16727,0.03619 94.75021,0.19452c3.70954,0.01858 4.53696,-1.6095 4.44724,-4.80436c-0.39109,-13.92813 -5.72614,-25.38852 -17.27063,-34.65307c-2.2573,-0.39566 -4.51267,-1.12103 -6.77219,-1.13434c-16.62359,-0.09769 -33.25748,0.27505 -49.86786,-0.20334c-7.37512,-0.2124 -12.67727,2.0427 -17.16763,7.79422c-6.69287,8.57266 -11.91257,17.59 -11.78311,28.86981c0.02215,1.93097 -0.51477,4.36722 3.66397,3.93656m11.87744,10.71609c-0.80798,0.17407 -1.6268,0.30881 -2.42218,0.52844c-6.01892,1.66181 -8.92709,6.04047 -8.18539,12.29471c0.60638,5.11319 4.83795,8.89432 10.14602,9.06616c5.88471,0.19049 10.15213,-3.20742 11.29599,-8.99435c1.21125,-6.1279 -2.50442,-10.88107 -10.83444,-12.89496m78.15421,13.64484c0.51904,-6.70038 -1.75257,-10.91928 -6.88791,-12.79236c-4.7342,-1.72672 -10.01923,-0.10916 -12.73597,3.89801c-3.78485,5.58258 -2.21298,12.53555 3.58469,15.85657c5.88278,3.36975 12.13208,0.91818 16.03919,-6.96222z" fill="#E46453"/>
  <path id="svg_14" d="m330.46887,264.12875c-0.47143,-0.22952 -0.47888,-0.40112 -0.49566,-1.30362c-0.00458,-18.45773 0.00015,-36.18461 0.00488,-53.91151c0,0 -0.01648,-0.38516 -0.02396,-0.57776c3.8057,-0.21605 7.63117,-0.44456 11.42935,-0.21748c6.59769,0.39447 11.58091,5.35992 11.69696,11.91865c0.19068,10.77745 0.1987,21.56337 0.00141,32.34055c-0.12247,6.6906 -5.02552,11.4482 -11.70258,11.77183c-3.47461,0.16843 -6.96383,0.03458 -10.9104,-0.02066z" fill="#3FA69B"/>
  <path id="svg_15" d="m261.91003,366.49023c11.64997,-0.46597 23.29386,-0.48526 35.38306,-0.45385c-0.57965,4.62097 -0.66284,9.75564 -2.94873,13.5704c-1.62262,2.70789 -6.13339,3.836 -9.52689,5.2598c-1.41323,0.59292 -3.2868,-0.01261 -4.92752,0.15594c-11.7648,1.20865 -19.34237,-5.16989 -17.97992,-18.53229z" fill="#657A89"/>
  <path id="svg_16" d="m349.11847,366.50207c11.65128,-0.4794 23.2988,-0.52008 35.4129,-0.50497c0.7294,5.76666 0.79181,11.41949 -4.10208,15.61533c-5.63892,4.83456 -20.5278,4.94619 -26.26074,0.21585c-4.75897,-3.92667 -5.39157,-9.23868 -5.05008,-15.32621z" fill="#657A89"/>
  <path id="svg_17" d="m390.43524,324.79401c-0.45431,-4.29334 -0.44601,-8.57349 -0.43347,-13.31623c3.65262,-0.45483 7.30286,-0.51742 10.94876,-0.41977c3.72547,0.09973 5.77249,2.02866 6.04801,5.83542c0.28588,3.95011 -0.7161,7.10065 -5.18323,7.56183c-3.61277,0.37299 -7.2764,0.25315 -11.38007,0.33875z" fill="#D15341"/>
  <path id="svg_18" d="m159.01567,275.92676c-0.60741,-0.94055 -1.74228,-1.87943 -1.74522,-2.82187c-0.07796,-24.97751 -0.04143,-49.95538 -0.00283,-74.93317c0.00072,-0.46641 0.26201,-0.93243 0.50051,-1.72818c1.20263,-0.12784 2.47331,-0.38043 3.74406,-0.38098c46.6263,-0.0201 93.2526,-0.01857 139.87889,-0.00491c0.98902,0.00029 1.97794,0.17726 2.88016,0.67154c-5.69733,3.30626 -11.3522,6.13073 -16.91119,9.13287c-32.20899,17.39441 -64.41677,34.79129 -96.57727,52.27509c-10.66175,5.79611 -21.1821,11.85232 -31.76711,17.78961z" fill="#FBD462"/>
  <path id="svg_19" d="m159.47827,276.00104c10.12241,-6.01157 20.64276,-12.06778 31.30451,-17.86389c32.1605,-17.4838 64.36828,-34.88068 96.57727,-52.27509c5.55899,-3.00214 11.21386,-5.82661 17.16836,-8.80731c0.4462,18.13544 0.55365,36.34503 0.64728,54.55469c0.02469,4.8031 0.00662,9.60641 0.00992,14.87542c-8.47998,0.68698 -16.99213,0.85401 -24.76798,4.8826c-2.49069,1.29038 -4.76556,2.99729 -7.46048,4.69663c-37.8863,0.12576 -75.45129,0.06848 -113.47888,-0.06305z" fill="#F6C358"/>
  <path id="svg_20" d="m164.85135,294.75189c7.64862,-5.29208 15.29755,-5.68338 22.67306,-0.6897c6.63552,4.49268 9.51833,11.15223 7.969,19.10505c-1.62074,8.31939 -6.92418,13.48761 -15.20798,15.34408c-8.01517,1.7963 -16.5686,-2.46448 -20.49232,-9.99603c-4.13407,-7.9353 -2.37938,-16.57977 5.05824,-23.7634z" fill="#FAD463"/>
  <path id="svg_21" d="m231.04962,150.27593c16.76024,0 33.52048,0 50.77515,0c0,6.44125 0,12.76681 0,19.68621c-16.72641,0 -33.29688,0 -50.33557,-0.52176c-0.4587,-6.73599 -0.44915,-12.95022 -0.43958,-19.16445z" fill="#E1E6E9"/>
  <path id="svg_22" d="m230.58072,150.21478c0.45933,6.27538 0.44978,12.48961 0.44583,19.16052c-15.72441,0.4567 -31.45439,0.4567 -47.90062,0.4567c0,-6.02936 -0.1914,-11.78332 0.20821,-17.49599c0.05934,-0.84823 2.89843,-2.13055 4.46261,-2.14685c14.10361,-0.14711 28.20969,-0.05642 42.78397,0.02562z" fill="#D3D6DA"/>
  <path id="svg_23" d="m258.52133,311.00311c0.47977,4.27726 0.49732,8.56864 0.52671,13.30676c-3.44767,0.40409 -6.90722,0.36197 -10.36675,0.31861c-4.4859,-0.05618 -6.58171,-2.32675 -6.53767,-6.81116c0.0431,-4.3898 1.90798,-6.84466 6.5218,-6.79226c3.13078,0.03555 6.26244,-0.00263 9.85591,-0.02195z" fill="#CB5745"/>
  <path id="svg_24" d="m329.74939,209.26718c0.22397,17.37334 0.21924,35.10022 0.21588,53.30045c-0.30871,-0.7854 -0.88412,-2.04312 -0.88873,-3.30298c-0.05756,-15.74118 -0.03928,-31.48268 -0.00824,-47.22403c0.00158,-0.80693 0.29492,-1.61327 0.68109,-2.77344z" fill="#70B882"/>
  <path id="svg_25" d="m359.12219,277.80588c11.02591,8.68081 16.36096,20.1412 16.75205,34.06933c0.08972,3.19486 -0.7377,4.82294 -4.44724,4.80436c-31.58294,-0.15833 -63.16669,-0.15171 -94.90039,-0.61011c19.51071,-9.28067 39.19071,-18.10382 58.82324,-27.03122c7.97721,-3.62741 15.85132,-7.48145 23.77234,-11.23236z" fill="#3292B8"/>
  <path id="svg_26" d="m358.86291,277.51401c-7.66174,4.04278 -15.53585,7.89682 -23.51306,11.52423c-19.63253,8.9274 -39.31253,17.75055 -59.21093,26.88812c-3.64087,0.98935 -3.10395,-1.4469 -3.1261,-3.37787c-0.12946,-11.27981 5.09024,-20.29715 11.78311,-28.86981c4.49036,-5.75152 9.79251,-8.00662 17.16763,-7.79422c16.61038,0.47839 33.24427,0.10565 49.86786,0.20334c2.25952,0.01331 4.51489,0.73868 7.03149,1.42621z" fill="#28A2DA"/>
  <path id="svg_27" d="m288.94351,327.2168c7.94074,1.99823 11.65641,6.7514 10.44516,12.8793c-1.14386,5.78693 -5.41128,9.18484 -11.29599,8.99435c-5.30807,-0.17184 -9.53964,-3.95297 -10.14602,-9.06616c-0.7417,-6.25424 2.16647,-10.6329 8.18539,-12.29471c0.79538,-0.21963 1.6142,-0.35437 2.81146,-0.51278z" fill="#FCD262"/>
  <path id="svg_28" d="m366.59592,341.22519c-3.79459,7.50119 -10.04389,9.95276 -15.92667,6.58301c-5.79767,-3.32102 -7.36954,-10.27399 -3.58469,-15.85657c2.71674,-4.00717 8.00177,-5.62473 12.73597,-3.89801c5.13534,1.87308 7.40695,6.09198 6.77539,13.17157z" fill="#FBD262"/>
 </g>
</svg>