<svg version="1.1" id="Layer_1" xmlns="http://www.w3.org/2000/svg" xmlns:xlink="http://www.w3.org/1999/xlink" x="0px" y="0px"
	 width="100%" viewBox="0 0 512 512" enable-background="new 0 0 512 512" xml:space="preserve">
<path fill="#EFC84A" opacity="1.000000" stroke="none" 
	d="
M235.000000,1.000001 
	C249.354233,1.000000 263.708466,1.000000 278.762634,1.352952 
	C292.104889,3.702920 304.870331,5.128469 317.362762,7.820741 
	C340.480408,12.802879 362.132477,21.780159 382.793640,33.309536 
	C412.799286,50.053368 438.036224,72.384972 459.340546,99.080101 
	C474.588989,118.187019 486.676025,139.348312 495.555786,162.192154 
	C503.192780,181.838730 508.818237,202.034103 511.059814,223.083069 
	C511.485321,227.078949 512.342163,231.028870 513.000000,235.000000 
	C513.000000,249.354233 513.000000,263.708466 512.647034,278.762665 
	C511.865143,283.525360 511.715088,287.641052 510.954803,291.640778 
	C508.710724,303.445892 506.225220,315.205170 503.566711,326.801422 
	C501.976929,325.357269 500.628754,324.119843 499.335876,322.827148 
	C443.096069,266.596191 386.869659,210.351837 330.584442,154.166382 
	C328.904663,152.489578 326.614380,151.424408 324.395325,149.839813 
	C315.842834,135.979462 303.563599,129.110779 287.710632,129.050095 
	C251.096725,128.909912 214.481689,128.945526 177.867737,129.080597 
	C173.427719,129.096985 168.840500,129.628479 164.578979,130.832535 
	C142.414078,137.095032 129.352341,154.215225 128.873703,177.417679 
	C128.664352,187.565765 128.802994,197.721024 128.336304,207.911346 
	C125.728653,207.974106 123.568344,208.002365 121.407959,208.022293 
	C111.955017,208.109482 107.041191,213.016083 107.005936,222.486816 
	C106.972527,231.462753 107.194641,240.444748 106.927025,249.412827 
	C106.758705,255.053665 108.599083,259.440765 113.272957,263.013123 
	C113.818924,263.430542 114.181274,263.605743 114.669083,263.765411 
	C114.794548,263.749908 114.999275,263.898254 115.065926,264.241516 
	C119.631935,269.092896 124.131287,273.601013 128.694824,278.566467 
	C128.781921,302.134521 128.778717,325.245453 128.876495,348.355896 
	C128.884476,350.238068 129.582214,352.117310 130.132874,354.283752 
	C132.857254,357.052460 135.408173,359.535370 138.030609,362.419861 
	C138.147766,369.572479 141.106094,374.599060 147.071472,378.222992 
	C148.574402,380.357269 149.874283,382.294220 151.491821,383.913971 
	C192.561050,425.038086 233.666428,466.126099 274.749023,507.236877 
	C276.271210,508.760040 277.628326,510.448181 279.038544,512.294067 
	C279.014740,512.528625 279.000000,513.000000 279.000000,513.000000 
	C264.645782,513.000000 250.291550,513.000000 235.237335,512.647095 
	C221.895035,510.297058 209.129578,508.871490 196.637115,506.179169 
	C173.519485,501.196991 151.867416,492.219757 131.206268,480.690369 
	C101.200623,463.946533 75.963707,441.614929 54.659409,414.919800 
	C39.410969,395.812927 27.323917,374.651611 18.444092,351.807800 
	C10.807107,332.161224 5.181979,311.965790 2.940188,290.916901 
	C2.514612,286.921051 1.657828,282.971130 1.000001,279.000000 
	C1.000000,264.645782 1.000000,250.291550 1.352951,235.237335 
	C3.702946,221.895050 5.128546,209.129578 7.820821,196.637100 
	C12.802949,173.519470 21.780197,151.867401 33.309593,131.206253 
	C50.053429,101.200630 72.385002,75.963661 99.080177,54.659416 
	C118.187111,39.411018 139.348343,27.323898 162.192184,18.444105 
	C181.838776,10.807131 202.034195,5.181962 223.083099,2.940187 
	C227.078949,2.514617 231.028885,1.657828 235.000000,1.000001 
z"/>
<path fill="#FFFFFF" opacity="1.000000" stroke="none" 
	d="
M234.531342,1.000001 
	C231.028885,1.657828 227.078949,2.514617 223.083099,2.940187 
	C202.034195,5.181962 181.838776,10.807131 162.192184,18.444105 
	C139.348343,27.323898 118.187111,39.411018 99.080177,54.659416 
	C72.385002,75.963661 50.053429,101.200630 33.309593,131.206253 
	C21.780197,151.867401 12.802949,173.519470 7.820821,196.637100 
	C5.128546,209.129578 3.702946,221.895050 1.352951,234.768677 
	C1.000000,157.072952 1.000000,79.145912 1.000000,1.000000 
	C78.687424,1.000000 156.375061,1.000000 234.531342,1.000001 
z"/>
<path fill="#FFFFFF" opacity="1.000000" stroke="none" 
	d="
M513.000000,234.531342 
	C512.342163,231.028870 511.485321,227.078949 511.059814,223.083069 
	C508.818237,202.034103 503.192780,181.838730 495.555786,162.192154 
	C486.676025,139.348312 474.588989,118.187019 459.340546,99.080101 
	C438.036224,72.384972 412.799286,50.053368 382.793640,33.309536 
	C362.132477,21.780159 340.480408,12.802879 317.362762,7.820741 
	C304.870331,5.128469 292.104889,3.702920 279.231323,1.352952 
	C356.927032,1.000000 434.854095,1.000000 513.000000,1.000000 
	C513.000000,78.687424 513.000000,156.375061 513.000000,234.531342 
z"/>
<path fill="#FFFFFF" opacity="1.000000" stroke="none" 
	d="
M503.834167,326.982361 
	C506.225220,315.205170 508.710724,303.445892 510.954803,291.640778 
	C511.715088,287.641052 511.865143,283.525360 512.647034,279.231323 
	C513.000000,356.927032 513.000000,434.854095 513.000000,513.000000 
	C435.312561,513.000000 357.624939,513.000000 279.468658,513.000000 
	C279.000000,513.000000 279.014740,512.528625 279.489014,512.267578 
	C286.517914,511.335083 293.127502,510.998444 299.617310,509.932587 
	C323.573303,505.998230 346.536987,498.798553 368.391235,488.184845 
	C388.782318,478.281677 407.576935,466.011475 424.628265,450.980408 
	C440.087006,437.353241 454.083649,422.490356 466.064575,405.708008 
	C483.237762,381.652557 495.833282,355.425842 503.834167,326.982361 
z"/>
<path fill="#FFFFFF" opacity="1.000000" stroke="none" 
	d="
M1.000001,279.468658 
	C1.657828,282.971130 2.514612,286.921051 2.940188,290.916901 
	C5.181979,311.965790 10.807107,332.161224 18.444092,351.807800 
	C27.323917,374.651611 39.410969,395.812927 54.659409,414.919800 
	C75.963707,441.614929 101.200623,463.946533 131.206268,480.690369 
	C151.867416,492.219757 173.519485,501.196991 196.637115,506.179169 
	C209.129578,508.871490 221.895035,510.297058 234.768677,512.647095 
	C157.072968,513.000000 79.145927,513.000000 1.000000,513.000000 
	C1.000000,435.312561 1.000000,357.624939 1.000001,279.468658 
z"/>
<path fill="#D7B442" opacity="1.000000" stroke="none" 
	d="
M503.566742,326.801422 
	C495.833282,355.425842 483.237762,381.652557 466.064575,405.708008 
	C454.083649,422.490356 440.087006,437.353241 424.628265,450.980408 
	C407.576935,466.011475 388.782318,478.281677 368.391235,488.184845 
	C346.536987,498.798553 323.573303,505.998230 299.617310,509.932587 
	C293.127502,510.998444 286.517914,511.335083 279.512817,512.032959 
	C277.628326,510.448181 276.271210,508.760040 274.749023,507.236877 
	C233.666428,466.126099 192.561050,425.038086 151.491821,383.913971 
	C149.874283,382.294220 148.574402,380.357269 147.492172,378.252563 
	C156.984604,378.131836 166.137451,378.834991 175.230240,378.368195 
	C183.167664,377.960663 187.815414,372.329681 188.094147,364.493805 
	C188.218307,361.003448 188.133926,357.505676 188.598999,353.936401 
	C212.338058,353.821777 235.622299,353.782013 258.949402,354.218994 
	C259.019165,357.275146 258.737885,359.911255 259.197510,362.411072 
	C259.442505,363.743469 260.968353,364.840393 261.910034,366.490234 
	C260.547577,379.852631 268.125153,386.231171 279.889954,385.022522 
	C281.530670,384.853973 283.404236,385.459503 284.817474,384.866577 
	C288.210968,383.442780 292.721741,382.314667 294.344360,379.606781 
	C296.630249,375.792023 296.713440,370.657349 298.222168,366.047546 
	C315.511322,366.026459 332.316742,366.044922 349.118469,366.502075 
	C348.776978,372.589600 349.409576,377.901611 354.168549,381.828278 
	C359.901489,386.558624 374.790375,386.446991 380.429291,381.612427 
	C385.323181,377.416595 385.260773,371.763763 385.415649,366.020691 
	C389.200500,366.294739 389.989960,364.496399 389.967804,361.467590 
	C389.878265,349.239349 389.956421,337.009857 390.435242,324.794006 
	C394.538910,324.708405 398.202545,324.828247 401.815308,324.455261 
	C406.282440,323.994080 407.284424,320.843536 406.998535,316.893433 
	C406.723022,313.086670 404.675995,311.157745 400.950531,311.058014 
	C397.304626,310.960358 393.654388,311.022949 389.981140,310.568176 
	C389.665375,306.828796 389.421692,303.531403 389.075714,300.244812 
	C387.315735,283.524658 373.552734,269.459534 356.986725,268.016510 
	C347.933105,267.227905 338.808319,267.256439 329.719971,266.558167 
	C329.817871,265.490143 329.911377,264.780487 330.468872,264.128754 
	C334.415436,264.183990 337.904663,264.317841 341.379272,264.149414 
	C348.056335,263.825775 352.959381,259.068176 353.081848,252.377579 
	C353.279144,241.600403 353.271118,230.814484 353.080444,220.037033 
	C352.964386,213.478302 347.981171,208.512848 341.383484,208.118378 
	C337.585297,207.891296 333.759827,208.119812 329.867737,207.670868 
	C329.766724,196.542450 329.713440,185.886383 329.732300,175.230453 
	C329.747803,166.485550 328.679688,157.978500 324.608734,150.074081 
	C326.614380,151.424408 328.904663,152.489578 330.584442,154.166382 
	C386.869659,210.351837 443.096069,266.596191 499.335876,322.827148 
	C500.628754,324.119843 501.976929,325.357269 503.566742,326.801422 
z"/>
<path fill="#45C4A1" opacity="1.000000" stroke="none" 
	d="
M258.906555,353.742249 
	C235.622299,353.782013 212.338058,353.821777 188.119659,353.902222 
	C170.862228,353.947235 154.538956,353.951569 137.757584,353.884125 
	C134.852798,353.874207 132.406113,353.936066 129.959427,353.997925 
	C129.582214,352.117310 128.884476,350.238068 128.876495,348.355896 
	C128.778717,325.245453 128.781921,302.134521 128.789520,278.101868 
	C128.767273,272.863220 128.714539,268.546387 129.044876,264.060760 
	C129.944962,262.587799 130.903427,261.286469 130.911774,259.979095 
	C131.014313,243.931290 131.029388,227.882126 130.882202,211.835007 
	C130.870041,210.508041 129.514816,209.193405 128.783600,207.873032 
	C128.802994,197.721024 128.664352,187.565765 128.873703,177.417679 
	C129.352341,154.215225 142.414078,137.095032 164.578979,130.832535 
	C168.840500,129.628479 173.427719,129.096985 177.867737,129.080597 
	C214.481689,128.945526 251.096725,128.909912 287.710632,129.050095 
	C303.563599,129.110779 315.842834,135.979462 324.395325,149.839813 
	C328.679688,157.978500 329.747803,166.485550 329.732300,175.230453 
	C329.713440,185.886383 329.766724,196.542450 329.875183,207.863464 
	C329.961609,208.528458 329.978088,208.913620 329.749390,209.267181 
	C329.363220,210.427353 329.069885,211.233688 329.068298,212.040619 
	C329.037262,227.781967 329.018982,243.523468 329.076538,259.264648 
	C329.081146,260.524506 329.656555,261.782227 329.974609,263.298462 
	C329.989990,263.727631 329.997437,263.899231 330.004913,264.070801 
	C329.911377,264.780487 329.817871,265.490143 329.278687,266.632324 
	C320.951141,267.026794 313.069244,266.988739 305.185608,266.484863 
	C305.182312,261.215851 305.200378,256.412537 305.175690,251.609436 
	C305.082062,233.399780 304.974609,215.190186 304.615173,196.655029 
	C303.369019,196.234909 302.380096,196.057938 301.391083,196.057648 
	C254.764786,196.043991 208.138489,196.042465 161.512192,196.062561 
	C160.241440,196.063110 158.970764,196.315704 157.768127,196.443542 
	C157.529633,197.239288 157.268341,197.705307 157.267624,198.171722 
	C157.229019,223.149506 157.192490,248.127380 157.270447,273.104889 
	C157.273392,274.047333 158.408264,274.986206 159.478271,276.001038 
	C197.505859,276.132568 235.070847,276.189850 272.434479,276.474426 
	C261.936951,285.858765 258.880463,297.813385 258.521332,311.003113 
	C254.927856,311.022430 251.796204,311.060608 248.665421,311.025055 
	C244.051605,310.972656 242.186722,313.427521 242.143616,317.817322 
	C242.099579,322.301727 244.195389,324.572296 248.681290,324.628479 
	C252.140823,324.671844 255.600372,324.713959 259.095764,325.239441 
	C259.056610,335.062256 258.981567,344.402252 258.906555,353.742249 
M230.111801,150.153656 
	C216.006439,150.132736 201.900360,150.042053 187.796753,150.189163 
	C186.232574,150.205460 183.393478,151.487778 183.334137,152.336014 
	C182.934525,158.048676 183.125931,163.802643 183.125931,169.832001 
	C199.572159,169.832001 215.302139,169.832001 231.957428,169.962143 
	C248.527893,169.962143 265.098358,169.962143 281.824768,169.962143 
	C281.824768,163.042740 281.824768,156.717178 281.824768,150.275925 
	C264.570099,150.275925 247.809860,150.275925 230.111801,150.153656 
M164.568420,294.989624 
	C157.413727,301.935516 155.659042,310.579987 159.793106,318.515289 
	C163.716827,326.046844 172.270264,330.307617 180.285431,328.511322 
	C188.569229,326.654846 193.872665,321.486633 195.493408,313.167236 
	C197.042740,305.214417 194.159927,298.554871 187.524414,294.062195 
	C180.148895,289.068512 172.499969,289.459808 164.568420,294.989624 
z"/>
<path fill="#3FA69B" opacity="1.000000" stroke="none" 
	d="
M128.336304,207.911346 
	C129.514816,209.193405 130.870041,210.508041 130.882202,211.835007 
	C131.029388,227.882126 131.014313,243.931290 130.911774,259.979095 
	C130.903427,261.286469 129.944962,262.587799 128.604141,264.047150 
	C123.519966,264.100983 119.259621,263.999634 114.999275,263.898254 
	C114.999275,263.898254 114.794548,263.749908 114.489822,263.515503 
	C113.819847,263.111053 113.454597,262.940979 113.089348,262.770905 
	C108.599083,259.440765 106.758705,255.053665 106.927025,249.412827 
	C107.194641,240.444748 106.972527,231.462753 107.005936,222.486816 
	C107.041191,213.016083 111.955017,208.109482 121.407959,208.022293 
	C123.568344,208.002365 125.728653,207.974106 128.336304,207.911346 
z"/>
<path fill="#667A89" opacity="1.000000" stroke="none" 
	d="
M138.215683,353.955902 
	C154.538956,353.951569 170.862228,353.947235 187.664856,353.977112 
	C188.133926,357.505676 188.218307,361.003448 188.094147,364.493805 
	C187.815414,372.329681 183.167664,377.960663 175.230240,378.368195 
	C166.137451,378.834991 156.984604,378.131836 147.437134,377.907410 
	C141.106094,374.599060 138.147766,369.572479 138.106201,361.976776 
	C138.145416,358.740051 138.180542,356.347992 138.215683,353.955902 
z"/>
<path fill="#C9BA51" opacity="1.000000" stroke="none" 
	d="
M115.065926,264.241516 
	C119.259621,263.999634 123.519966,264.100983 128.221054,264.215973 
	C128.714539,268.546387 128.767273,272.863220 128.725342,277.644592 
	C124.131287,273.601013 119.631935,269.092896 115.065926,264.241516 
z"/>
<path fill="#D7B442" opacity="1.000000" stroke="none" 
	d="
M137.757584,353.884125 
	C138.180542,356.347992 138.145416,358.740051 138.034683,361.575226 
	C135.408173,359.535370 132.857254,357.052460 130.132874,354.283752 
	C132.406113,353.936066 134.852798,353.874207 137.757584,353.884125 
z"/>
<path fill="#C9BA51" opacity="1.000000" stroke="none" 
	d="
M113.272957,263.013123 
	C113.454597,262.940979 113.819847,263.111053 114.364365,263.531006 
	C114.181274,263.605743 113.818924,263.430542 113.272957,263.013123 
z"/>
<path fill="#E46453" opacity="1.000000" stroke="none" 
	d="
M258.983551,310.988983 
	C258.880463,297.813385 261.936951,285.858765 272.755798,276.291443 
	C275.652069,274.364746 277.926941,272.657837 280.417633,271.367462 
	C288.193481,267.338867 296.705627,267.171844 305.187347,266.950684 
	C313.069244,266.988739 320.951141,267.026794 329.274323,266.990662 
	C338.808319,267.256439 347.933105,267.227905 356.986725,268.016510 
	C373.552734,269.459534 387.315735,283.524658 389.075714,300.244812 
	C389.421692,303.531403 389.665375,306.828796 389.976868,311.030762 
	C389.989227,316.220520 389.980927,320.500671 389.972656,324.780823 
	C389.956421,337.009857 389.878265,349.239349 389.967804,361.467590 
	C389.989960,364.496399 389.200500,366.294739 384.949066,365.964905 
	C372.417267,365.981995 360.769745,366.022675 349.122192,366.063354 
	C332.316742,366.044922 315.511322,366.026459 297.776825,365.996826 
	C285.203888,366.004974 273.559998,366.024261 261.916107,366.043579 
	C260.968353,364.840393 259.442505,363.743469 259.197510,362.411072 
	C258.737885,359.911255 259.019165,357.275146 258.949402,354.218994 
	C258.981567,344.402252 259.056610,335.062256 259.083923,324.792694 
	C259.018646,319.571747 259.001099,315.280365 258.983551,310.988983 
M276.676788,316.485046 
	C308.260315,316.527863 339.844055,316.521240 371.427002,316.679565 
	C375.136536,316.698151 375.963959,315.070068 375.874237,311.875214 
	C375.483154,297.947083 370.148102,286.486694 358.603607,277.222137 
	C356.346313,276.826477 354.090942,276.101105 351.831421,276.087799 
	C335.207825,275.990112 318.573944,276.362854 301.963562,275.884460 
	C294.588440,275.672058 289.286285,277.927155 284.795929,283.678680 
	C278.103058,292.251343 272.883362,301.268677 273.012817,312.548492 
	C273.034973,314.479462 272.498047,316.915710 276.676788,316.485046 
M288.554230,327.201141 
	C287.746246,327.375214 286.927429,327.509949 286.132050,327.729584 
	C280.113129,329.391388 277.204956,333.770050 277.946655,340.024292 
	C278.553040,345.137482 282.784607,348.918610 288.092682,349.090454 
	C293.977386,349.280945 298.244812,345.883026 299.388672,340.096100 
	C300.599915,333.968201 296.884247,329.215027 288.554230,327.201141 
M366.708435,340.845978 
	C367.227478,334.145599 364.955872,329.926697 359.820526,328.053619 
	C355.086334,326.326904 349.801300,327.944458 347.084564,331.951630 
	C343.299713,337.534210 344.871582,344.487183 350.669250,347.808197 
	C356.552032,351.177948 362.801331,348.726379 366.708435,340.845978 
z"/>
<path fill="#3FA69B" opacity="1.000000" stroke="none" 
	d="
M330.468872,264.128754 
	C329.997437,263.899231 329.989990,263.727631 329.973206,262.825134 
	C329.968628,244.367401 329.973358,226.640518 329.978088,208.913620 
	C329.978088,208.913620 329.961609,208.528458 329.954132,208.335861 
	C333.759827,208.119812 337.585297,207.891296 341.383484,208.118378 
	C347.981171,208.512848 352.964386,213.478302 353.080444,220.037033 
	C353.271118,230.814484 353.279144,241.600403 353.081848,252.377579 
	C352.959381,259.068176 348.056335,263.825775 341.379272,264.149414 
	C337.904663,264.317841 334.415436,264.183990 330.468872,264.128754 
z"/>
<path fill="#657A89" opacity="1.000000" stroke="none" 
	d="
M261.910034,366.490234 
	C273.559998,366.024261 285.203888,366.004974 297.293091,366.036377 
	C296.713440,370.657349 296.630249,375.792023 294.344360,379.606781 
	C292.721741,382.314667 288.210968,383.442780 284.817474,384.866577 
	C283.404236,385.459503 281.530670,384.853973 279.889954,385.022522 
	C268.125153,386.231171 260.547577,379.852631 261.910034,366.490234 
z"/>
<path fill="#657A89" opacity="1.000000" stroke="none" 
	d="
M349.118469,366.502075 
	C360.769745,366.022675 372.417267,365.981995 384.531372,365.997101 
	C385.260773,371.763763 385.323181,377.416595 380.429291,381.612427 
	C374.790375,386.446991 359.901489,386.558624 354.168549,381.828278 
	C349.409576,377.901611 348.776978,372.589600 349.118469,366.502075 
z"/>
<path fill="#D15341" opacity="1.000000" stroke="none" 
	d="
M390.435242,324.794006 
	C389.980927,320.500671 389.989227,316.220520 390.001770,311.477783 
	C393.654388,311.022949 397.304626,310.960358 400.950531,311.058014 
	C404.675995,311.157745 406.723022,313.086670 406.998535,316.893433 
	C407.284424,320.843536 406.282440,323.994080 401.815308,324.455261 
	C398.202545,324.828247 394.538910,324.708405 390.435242,324.794006 
z"/>
<path fill="#FBD462" opacity="1.000000" stroke="none" 
	d="
M159.015671,275.926758 
	C158.408264,274.986206 157.273392,274.047333 157.270447,273.104889 
	C157.192490,248.127380 157.229019,223.149506 157.267624,198.171722 
	C157.268341,197.705307 157.529633,197.239288 157.768127,196.443542 
	C158.970764,196.315704 160.241440,196.063110 161.512192,196.062561 
	C208.138489,196.042465 254.764786,196.043991 301.391083,196.057648 
	C302.380096,196.057938 303.369019,196.234909 304.271240,196.729187 
	C298.573914,200.035446 292.919037,202.859924 287.360046,205.862061 
	C255.151062,223.256470 222.943283,240.653351 190.782776,258.137146 
	C180.121033,263.933258 169.600677,269.989471 159.015671,275.926758 
z"/>
<path fill="#F6C358" opacity="1.000000" stroke="none" 
	d="
M159.478271,276.001038 
	C169.600677,269.989471 180.121033,263.933258 190.782776,258.137146 
	C222.943283,240.653351 255.151062,223.256470 287.360046,205.862061 
	C292.919037,202.859924 298.573914,200.035446 304.528412,197.054749 
	C304.974609,215.190186 305.082062,233.399780 305.175690,251.609436 
	C305.200378,256.412537 305.182312,261.215851 305.185608,266.484863 
	C296.705627,267.171844 288.193481,267.338867 280.417633,271.367462 
	C277.926941,272.657837 275.652069,274.364746 272.957153,276.064087 
	C235.070847,276.189850 197.505859,276.132568 159.478271,276.001038 
z"/>
<path fill="#FAD463" opacity="1.000000" stroke="none" 
	d="
M164.851349,294.751892 
	C172.499969,289.459808 180.148895,289.068512 187.524414,294.062195 
	C194.159927,298.554871 197.042740,305.214417 195.493408,313.167236 
	C193.872665,321.486633 188.569229,326.654846 180.285431,328.511322 
	C172.270264,330.307617 163.716827,326.046844 159.793106,318.515289 
	C155.659042,310.579987 157.413727,301.935516 164.851349,294.751892 
z"/>
<path fill="#E1E6E9" opacity="1.000000" stroke="none" 
	d="
M231.049622,150.275925 
	C247.809860,150.275925 264.570099,150.275925 281.824768,150.275925 
	C281.824768,156.717178 281.824768,163.042740 281.824768,169.962143 
	C265.098358,169.962143 248.527893,169.962143 231.489197,169.440384 
	C231.030502,162.704391 231.040054,156.490158 231.049622,150.275925 
z"/>
<path fill="#D3D6DA" opacity="1.000000" stroke="none" 
	d="
M230.580719,150.214783 
	C231.040054,156.490158 231.030502,162.704391 231.026550,169.375305 
	C215.302139,169.832001 199.572159,169.832001 183.125931,169.832001 
	C183.125931,163.802643 182.934525,158.048676 183.334137,152.336014 
	C183.393478,151.487778 186.232574,150.205460 187.796753,150.189163 
	C201.900360,150.042053 216.006439,150.132736 230.580719,150.214783 
z"/>
<path fill="#CB5745" opacity="1.000000" stroke="none" 
	d="
M258.521332,311.003113 
	C259.001099,315.280365 259.018646,319.571747 259.048035,324.309875 
	C255.600372,324.713959 252.140823,324.671844 248.681290,324.628479 
	C244.195389,324.572296 242.099579,322.301727 242.143616,317.817322 
	C242.186722,313.427521 244.051605,310.972656 248.665421,311.025055 
	C251.796204,311.060608 254.927856,311.022430 258.521332,311.003113 
z"/>
<path fill="#70B882" opacity="1.000000" stroke="none" 
	d="
M329.749390,209.267181 
	C329.973358,226.640518 329.968628,244.367401 329.965271,262.567627 
	C329.656555,261.782227 329.081146,260.524506 329.076538,259.264648 
	C329.018982,243.523468 329.037262,227.781967 329.068298,212.040619 
	C329.069885,211.233688 329.363220,210.427353 329.749390,209.267181 
z"/>
<path fill="#3292B8" opacity="1.000000" stroke="none" 
	d="
M359.122192,277.805878 
	C370.148102,286.486694 375.483154,297.947083 375.874237,311.875214 
	C375.963959,315.070068 375.136536,316.698151 371.427002,316.679565 
	C339.844055,316.521240 308.260315,316.527863 276.526611,316.069458 
	C296.037323,306.788788 315.717316,297.965637 335.349854,289.038239 
	C343.327057,285.410828 351.201172,281.556793 359.122192,277.805878 
z"/>
<path fill="#28A2DA" opacity="1.000000" stroke="none" 
	d="
M358.862915,277.514008 
	C351.201172,281.556793 343.327057,285.410828 335.349854,289.038239 
	C315.717316,297.965637 296.037323,306.788788 276.138916,315.926361 
	C272.498047,316.915710 273.034973,314.479462 273.012817,312.548492 
	C272.883362,301.268677 278.103058,292.251343 284.795929,283.678680 
	C289.286285,277.927155 294.588440,275.672058 301.963562,275.884460 
	C318.573944,276.362854 335.207825,275.990112 351.831421,276.087799 
	C354.090942,276.101105 356.346313,276.826477 358.862915,277.514008 
z"/>
<path fill="#FCD262" opacity="1.000000" stroke="none" 
	d="
M288.943512,327.216797 
	C296.884247,329.215027 300.599915,333.968201 299.388672,340.096100 
	C298.244812,345.883026 293.977386,349.280945 288.092682,349.090454 
	C282.784607,348.918610 278.553040,345.137482 277.946655,340.024292 
	C277.204956,333.770050 280.113129,329.391388 286.132050,327.729584 
	C286.927429,327.509949 287.746246,327.375214 288.943512,327.216797 
z"/>
<path fill="#FBD262" opacity="1.000000" stroke="none" 
	d="
M366.595917,341.225189 
	C362.801331,348.726379 356.552032,351.177948 350.669250,347.808197 
	C344.871582,344.487183 343.299713,337.534210 347.084564,331.951630 
	C349.801300,327.944458 355.086334,326.326904 359.820526,328.053619 
	C364.955872,329.926697 367.227478,334.145599 366.595917,341.225189 
z"/>
</svg>