<svg width="512" height="512" xmlns="http://www.w3.org/2000/svg" xml:space="preserve" enable-background="new 0 0 512 512" version="1.1">

 <g>
  <title>Layer 1</title>
  <path id="svg_1" d="m1,279c0,-14.35422 0,-28.70845 0.38813,-43.71643c0.79413,-4.56983 0.91112,-8.54208 1.6594,-12.39163c2.41179,-12.40758 4.58054,-24.89189 7.71582,-37.12288c5.50825,-21.48816 14.09729,-41.82149 26.29384,-60.372c8.12022,-12.35054 16.86356,-24.3539 26.10723,-35.88818c12.83352,-16.0137 28.18653,-29.51506 44.8364,-41.49059c18.27617,-13.14526 38.00675,-23.70764 59.09737,-31.4866c17.98236,-6.63252 36.47322,-11.56295 55.64044,-13.57044c4.11051,-0.43052 8.17545,-1.29609 12.26137,-1.96125c14.35423,0 28.70847,0 43.71643,0.38813c12.91031,2.14856 25.37808,3.01747 37.37833,5.86001c23.06286,5.46296 45.03524,13.97194 65.83792,25.63481c29.13202,16.33268 53.83621,37.64364 74.93155,63.41103c18.92691,23.11867 33.26535,48.80596 42.65234,77.06982c4.16519,12.54132 6.42404,25.71582 9.20285,38.56924c-2.00305,-1.37809 -3.79635,-2.58665 -5.29849,-4.08679c-39.41586,-39.36427 -78.78928,-78.77112 -118.24667,-118.09369c-1.30896,-1.30446 -3.4173,-1.80679 -5.57172,-2.74576c-8.37348,2.71447 -16.32822,5.49165 -24.61197,8.09887c-30.44208,-18.02745 -62.793,-27.75037 -98.47491,-27.07544c-81.11495,3.16366 -140.5962,40.59696 -172.63605,114.45941c-30.83766,71.09105 -18.50517,138.31682 30.29164,198.90199c-2.21368,3.26465 -4.29867,6.20288 -6.84436,9.13571c-9.65436,-0.00534 -18.84802,-0.00534 -28.16284,-0.00534c0,7.67292 0,14.595 -0.00328,21.77368c0.29976,0.32853 0.6028,0.40046 0.86015,0.55307c-0.0457,0.08066 -0.09966,0.25809 0.07646,0.53849c25.0353,25.19986 49.90491,50.10891 74.72951,75.06277c1.60615,1.61456 2.86554,3.57407 3.90828,5.44513c-4.51492,-1.76031 -8.72183,-3.45071 -12.77707,-5.44897c-20.36641,-10.03562 -39.30522,-22.1752 -56.3948,-37.2576c-15.85847,-13.99585 -30.17986,-29.27823 -42.44392,-46.52533c-12.75946,-17.94385 -22.99486,-37.25314 -30.61424,-57.83811c-6.64411,-17.9501 -11.55062,-36.43115 -13.54444,-55.57855c-0.42753,-4.10571 -1.29558,-8.16559 -1.9607,-12.24658z" fill="#005ECE"/>
  <path id="svg_2" d="m159.11313,493.82312c-1.4207,-1.79904 -2.68009,-3.75855 -4.28624,-5.37311c-24.8246,-24.95386 -49.69421,-49.86291 -74.26157,-75.15191c22.90861,-0.38364 45.5254,-0.39048 68.14218,-0.41355c36.08539,-0.03683 72.1708,-0.08444 108.71852,-0.0303c59.42936,0.09717 118.39631,0.09717 177.3089,0.09717c0,-7.89576 0,-15.11551 0,-22.91517c-9.82284,0 -19.26965,0 -28.83508,-0.31927c-2.06647,-3.07898 -4.01431,-5.83865 -5.77661,-8.88403c1.60675,-1.91806 3.09973,-3.49384 4.43839,-5.19132c20.16381,-25.56912 33.41513,-54.24054 38.93789,-86.4266c4.18714,-24.40229 4.12573,-48.82825 -1.74493,-72.81008c-3.49759,-14.28798 -9.37751,-27.99279 -13.77753,-41.81392c2.3284,0.93042 4.24783,1.71495 6.37317,2.58367c-1.23624,-15.0753 -11.8107,-28.47081 -29.40887,-37.66249c-0.38938,-0.39444 -0.6626,-0.5186 -0.95478,-0.53879c0.03098,-0.00604 0.03928,0.05652 0.05701,-0.29846c-9.40576,-13.02931 -20.957,-23.52599 -33.32007,-33.42913c3.18668,-6.30644 6.24219,-12.24137 9.29773,-18.1763c1.73572,0.87624 3.84406,1.37857 5.15302,2.68303c39.45739,39.32257 78.83081,78.72942 118.24667,118.09369c1.50214,1.50014 3.29544,2.7087 5.26974,4.09485c0.31669,0.04175 0.31827,-0.01762 0.39753,0.21249c0.25036,0.5122 0.46865,0.75123 0.80426,1.36622c0.41619,3.60002 0.6535,6.79766 1.13742,9.95753c0.53985,3.52545 1.30374,7.01659 1.97012,10.52266c0,14.68756 0,29.37512 -0.39294,44.70856c-1.4643,8.73474 -2.42463,16.84018 -3.62845,24.90933c-3.3711,22.59653 -10.82218,43.94113 -20.62699,64.45032c-9.78772,20.47348 -22.16809,39.26553 -37.18496,56.3916c-13.53266,15.43332 -28.32312,29.44165 -44.93586,41.41025c-18.33404,13.20871 -38.18469,23.85113 -59.40625,31.62094c-17.97628,6.58157 -36.43911,11.53589 -55.5863,13.53705c-4.1033,0.42886 -8.16006,1.30294 -12.23825,1.97195c-14.35422,0 -28.70845,0 -43.70853,-0.39282c-14.1205,-2.48096 -27.79548,-3.73389 -41.01062,-6.90393c-11.98297,-2.87448 -23.46487,-7.8378 -35.16772,-11.88013z" fill="#00479B"/>
  <path id="svg_7" d="m114.29995,381.06522c-48.92551,-60.25876 -61.258,-127.48453 -30.42034,-198.57558c32.03985,-73.86245 91.5211,-111.29575 172.64151,-113.99662c0.47271,8.15312 0.47833,15.81107 0.09253,23.57352c-4.32421,0.94203 -8.25702,1.77956 -13.03127,2.79629c5.11902,3.83397 9.29585,6.96227 13.45644,10.5614c-0.0206,12.15987 -0.02493,23.84889 -0.39429,35.68075c-19.52447,3.77368 -34.74974,13.99821 -48.67523,28.70461c2.06787,-0.19245 2.9819,-0.36042 3.89389,-0.34998c15.04881,0.17218 30.09735,0.36677 45.13998,1.00734c0.00061,3.44694 0.00717,6.44293 -0.16235,9.72833c-3.59464,4.55 -7.73764,8.41754 -10.3009,13.14214c-9.01294,16.61256 -11.9043,34.82652 -13.02115,52.14866c7.47572,-9.04879 15.45501,-18.70715 23.44729,-27.90458c0.02335,32.14593 0.03376,63.83094 -0.16009,95.77653c-2.8174,3.31583 -5.37529,6.4209 -8.06935,9.40299c-1.16814,1.293 -2.43413,2.82962 -3.97202,3.39474c-4.76361,1.75046 -8.43863,4.40268 -10.35057,9.5799c-9.34405,1.16412 -18.33278,1.79736 -27.15434,3.36901c-34.48929,6.14448 -67.19266,16.41764 -92.95974,41.96055m80.77264,-114.44278c-5.14579,-7.80851 -11.58489,-10.80083 -19.91492,-8.33252c-3.37863,1.00116 -4.65015,-0.10578 -6.42526,-2.50045c-9.42142,-12.70959 -28.77393,-13.39489 -38.45586,-0.91407c-3.3205,4.28036 -6.61203,6.23361 -11.87849,7.00656c-10.41183,1.52817 -17.74101,11.17257 -17.207,21.3128c0.57123,10.84717 8.90033,19.35889 19.89717,19.96103c5.97484,0.32718 11.97798,0.17529 17.96835,0.17456c19.47243,-0.00244 38.94627,0.09546 58.41655,-0.11999c7.7433,-0.08567 13.61345,-5.46057 14.62057,-12.49878c1.11008,-7.75775 -2.68011,-14.96509 -9.99015,-16.82315c-4.05638,-1.03104 -5.8548,-2.98194 -7.03096,-7.26599m-13.45897,-109.71433c-11.71097,-12.10441 -27.69617,-14.55227 -41.81339,-6.403c-12.59634,7.27135 -19.04339,23.0125 -15.13249,36.94753c3.71448,13.2351 14.82793,23.24598 27.24594,24.54287c15.06809,1.57364 27.37065,-4.63613 34.22266,-17.27407c6.54499,-12.07171 5.00706,-26.14415 -4.52272,-37.81333z" fill="#57A4FE"/>
  <path id="svg_8" d="m114.17125,381.39163c25.89578,-25.86932 58.59915,-36.14248 93.08844,-42.28696c8.82156,-1.57165 17.81029,-2.20489 27.58495,-3.31359c7.97285,-0.25254 15.08299,-0.46079 22.18283,-0.20813c0.01498,18.49859 0.04022,36.53625 0.01458,54.73935c-0.0509,0.1654 -0.14056,0.49972 -0.60278,0.50726c-48.36992,0.01974 -96.2776,0.03506 -144.18527,0.02982c-1.48882,-0.00016 -2.97761,-0.21299 -4.46641,-0.32667c2.08499,-2.9382 4.16998,-5.87643 6.38366,-9.14108z" fill="#FEA633"/>
  <path id="svg_9" d="m107.32689,390.52734c1.9495,0.11905 3.43829,0.33188 4.92711,0.33204c47.90767,0.00524 95.81535,-0.01008 144.21212,0.45489c0.49192,7.4657 0.49473,14.45422 0.49756,21.44278c-36.08538,0.04306 -72.17079,0.09067 -108.25618,0.1275c-22.61678,0.02307 -45.23357,0.02991 -68.3183,0.13315c-0.46794,0.08914 -0.41398,-0.08829 -0.49389,-0.3194c-0.27197,-0.41195 -0.48909,-0.55462 -0.73126,-0.65918c0,-6.92212 0,-13.8442 0,-21.51712c9.31482,0 18.50848,0 28.16284,0.00534z" fill="#CC7400"/>
  <path id="svg_10" d="m257.00507,91.96204c-0.00562,-7.65795 -0.01124,-15.3159 -0.02231,-23.43664c35.21481,-1.1701 67.56573,8.55282 97.79565,26.84119c-17.81817,10.73342 -29.53875,25.62324 -33.88595,45.84926c-9.10029,-29.19643 -37.793,-49.94893 -63.88739,-49.25381z" fill="#2588FD"/>
  <path id="svg_11" d="m321.14999,141.51254c4.08967,-20.52271 15.81025,-35.41253 33.95743,-45.97599c8.1669,-3.0381 16.12164,-5.81528 24.49512,-8.52975c-2.63684,5.99766 -5.69235,11.93259 -9.0918,18.40603c-7.52438,12.91968 -14.70486,25.30087 -22.12707,37.89625c-1.64615,2.17011 -3.08948,4.09943 -4.4476,6.08699c-3.76468,5.50957 -7.49384,11.0434 -11.50956,16.40798c-2.97076,-1.44362 -5.66903,-2.72757 -8.37451,-4.44336c-0.9722,-6.90395 -1.9371,-13.37606 -2.90201,-19.84815z" fill="#B0F90B"/>
  <path id="svg_12" d="m79.16077,412.29568c0.24545,-0.152 0.46257,-0.00933 0.78024,0.32194c-0.17744,0.07852 -0.48048,0.00659 -0.78024,-0.32194z" fill="#AB6202"/>
  <path id="svg_13" d="m427.56811,174.44518c4.80896,13.96698 10.68888,27.67179 14.18647,41.95977c5.87066,23.98183 5.93207,48.40779 1.74493,72.81008c-5.52276,32.18606 -18.77408,60.85748 -38.93789,86.4266c-1.33866,1.69748 -2.83164,3.27326 -4.74778,5.05954c-5.06302,-3.89038 -9.4859,-8.11612 -14.24398,-11.92282c-3.95829,-3.16684 -8.31049,-5.84137 -12.25376,-9.04196c6.98187,-33.92175 7.72843,-67.62582 1.47937,-101.383c-4.76236,-25.72595 -14.04022,-49.76396 -27.21863,-72.01046c22.55289,9.17183 40.73465,23.29965 54.99234,43.74257c1.5177,-13.06737 -0.51632,-24.32978 -6.36404,-34.76096c-10.80277,-19.27004 -28.16483,-25.67113 -49.03143,-24.89165c1.43966,-0.96466 2.64419,-1.81706 3.98385,-2.2682c26.36417,-8.87828 51.68824,-4.91962 76.41055,6.28049z" fill="#2588FE"/>
  <path id="svg_14" d="m373.08166,360.04437c4.17771,2.89261 8.52991,5.56714 12.4882,8.73398c4.75808,3.8067 9.18096,8.03244 14.05838,12.20853c2.25729,2.89145 4.20513,5.65112 5.80065,8.74026c-49.68023,0.36292 -99.00808,0.39633 -148.33593,0.42975c-0.02527,-18.03769 -0.05051,-36.07535 0.39502,-54.65011c14.67816,0.46911 28.94329,0.98349 43.074,2.64263c10.63452,1.24863 21.09671,3.96549 31.89267,6.27301c5.08679,1.77344 9.91647,3.30268 15.01615,5.0315c2.33615,0.82638 4.48092,1.26959 6.4541,2.1138c6.41934,2.74658 12.776,5.63986 19.15676,8.47665z" fill="#EE8701"/>
  <path id="svg_15" d="m257.04205,390.3223c49.37876,-0.19883 98.70661,-0.23224 148.50543,-0.27585c9.91779,-0.0102 19.3646,-0.0102 29.18744,-0.0102c0,7.79966 0,15.01941 0,22.91517c-58.91259,0 -117.87954,0 -177.3089,-0.09717c-0.46517,-7.08576 -0.46798,-14.07428 -0.49768,-21.54755c-0.02685,-0.48468 0.06281,-0.819 0.11371,-0.9844z" fill="#AB6202"/>
  <path id="svg_16" d="m427.97705,174.59103c-25.13125,-11.34596 -50.45532,-15.30462 -76.81949,-6.42634c-1.33966,0.45114 -2.54419,1.30354 -4.33609,2.3874c-2.99749,1.3617 -5.47055,2.30513 -8.19024,3.05329c-2.14179,-2.6774 -4.03699,-5.15953 -5.93219,-7.64166c3.74319,-5.52425 7.47235,-11.05808 11.23703,-16.56765c1.35812,-1.98756 2.80145,-3.91688 4.65673,-5.82747c8.05607,-2.86901 15.45585,-6.67978 23.31617,-8.48083c10.91571,-2.50115 21.62469,0.77702 32.11688,3.94217c0,0 -0.0083,-0.06256 0.09833,0.13516c0.35595,0.4223 0.64816,0.52551 0.9833,0.50734c17.43204,9.03145 28.0065,22.42696 29.24274,37.50226c-2.12534,-0.86872 -4.04477,-1.65325 -6.37317,-2.58367z" fill="#6CC72C"/>
  <path id="svg_17" d="m404.04358,138.67496c-10.50992,-2.81017 -21.2189,-6.08834 -32.13461,-3.58719c-7.86032,1.80105 -15.2601,5.61182 -23.07447,8.26663c6.97138,-12.6407 14.15186,-25.02189 21.54514,-37.57008c12.70694,9.36465 24.25818,19.86133 33.66394,32.89064z" fill="#2689FB"/>
  <path id="svg_18" d="m509.0882,212.15359c0.22421,-0.02682 0.52771,0.17646 0.78265,0.66346c-0.314,0.08777 -0.53229,-0.15126 -0.78265,-0.66346z" fill="#005ECE"/>
  <path id="svg_19" d="m404.94135,139.51221c-0.16901,0.1784 -0.46122,0.07519 -0.84815,-0.34108c0.18555,-0.17752 0.45877,-0.05336 0.84815,0.34108z" fill="#2689FB"/>
  <path id="svg_20" d="m347.20084,349.25433c-4.82972,-1.52923 -9.6594,-3.05847 -14.54789,-5.13635c5.93006,-14.53802 -1.32068,-26.82034 -16.48812,-28.74023c-1.97828,-0.25043 -4.47696,-1.43073 -5.55115,-2.99366c-9.52863,-13.86444 -26.98676,-14.49585 -37.54172,-1.25839c-0.81876,1.02683 -2.51056,1.80878 -3.84537,1.88855c-4.05929,0.24255 -8.14245,0.08496 -12.21634,0.08319c-0.01043,-31.685 -0.02084,-63.37001 0.11212,-95.82452c9.77762,-7.82268 19.13489,-15.30643 29.15864,-21.75409c5.30569,-3.4128 11.77041,-5.02367 17.7146,-7.10095c-6.14945,8.76526 -12.74457,16.90042 -18.34696,25.66978c-7.8624,12.30692 -8.36984,25.39972 -3.00955,39.09941c5.64249,14.42102 13.81299,27.19403 23.23447,39.14389c-0.10801,-0.08465 0.18569,-0.1918 0.18569,-0.1918c0,0 -0.25491,0.24793 -0.06384,-0.19507c-0.1911,-5.08737 -0.64703,-9.72702 -0.94351,-14.37683c-1.95682,-30.69101 0.47281,-60.88556 10.59726,-90.01164c1.83456,2.14062 3.56247,3.95506 4.93716,6.00624c31.20603,46.56232 37.35947,97.91672 28.89594,152.01645c-0.20529,1.31222 -1.49661,2.4545 -2.28143,3.67602z" fill="#2589FD"/>
  <path id="svg_21" d="m195.23709,266.95749c1.01166,3.949 2.81008,5.8999 6.86646,6.93094c7.31004,1.85806 11.10023,9.0654 9.99015,16.82315c-1.00712,7.03821 -6.87727,12.41311 -14.62057,12.49878c-19.47028,0.21545 -38.94412,0.11755 -58.41655,0.11999c-5.99037,0.00073 -11.99351,0.15262 -17.96835,-0.17456c-10.99684,-0.60214 -19.32594,-9.11386 -19.89717,-19.96103c-0.53401,-10.14023 6.79517,-19.78463 17.207,-21.3128c5.26646,-0.77295 8.55799,-2.7262 11.87849,-7.00656c9.68193,-12.48082 29.03444,-11.79552 38.45586,0.91407c1.77511,2.39467 3.04663,3.50161 6.42526,2.50045c8.33003,-2.46831 14.76913,0.52401 20.07942,8.66757z" fill="#FEFFFF"/>
  <path id="svg_22" d="m181.83896,157.18478c9.30444,11.39251 10.84237,25.46495 4.29738,37.53666c-6.85201,12.63794 -19.15457,18.84771 -34.22266,17.27407c-12.41801,-1.29689 -23.53146,-11.30777 -27.24594,-24.54287c-3.9109,-13.93503 2.53615,-29.67618 15.13249,-36.94753c14.11722,-8.14927 30.10242,-5.70141 42.03873,6.67967z" fill="#FEDA45"/>
  <path id="svg_23" d="m256.80597,313.35803c4.27817,-0.25882 8.36133,-0.10123 12.42062,-0.34378c1.33481,-0.07977 3.02661,-0.86172 3.84537,-1.88855c10.55496,-13.23746 28.01309,-12.60605 37.54172,1.25839c1.07419,1.56293 3.57287,2.74323 5.55115,2.99366c15.16744,1.91989 22.41818,14.20221 16.23104,28.496c-10.73718,-1.75885 -21.19937,-4.47571 -31.83389,-5.72434c-14.13071,-1.65914 -28.39584,-2.17352 -43.06372,-3.10351c-7.57063,0.28439 -14.68077,0.49264 -22.2215,0.64541c1.04921,-5.13287 4.72423,-7.78509 9.48784,-9.53555c1.53789,-0.56512 2.80388,-2.10174 3.97202,-3.39474c2.69406,-2.98209 5.25195,-6.08716 8.06935,-9.40299z" fill="#FEFEFE"/>
  <path id="svg_24" d="m257.00916,170.01598c-15.04862,-0.1896 -30.09716,-0.38419 -45.14597,-0.55637c-0.91199,-0.01044 -1.82602,0.15753 -3.89389,0.34998c13.92549,-14.7064 29.15076,-24.93093 49.13916,-28.6448c6.11801,0.06723 11.44202,-0.1143 16.68884,0.43784c10.43384,1.09796 19.29798,6.36742 28.4513,11.60758c3.43588,4.79911 6.64218,9.35707 9.76251,14.2648c-0.81049,2.44677 -1.53504,4.54377 -2.67511,6.61058c-10.87036,-0.30108 -21.32523,-0.57196 -32.16046,-0.83902c-6.97574,-1.07431 -13.57105,-2.15245 -20.16638,-3.23059z" fill="#B1F90B"/>
  <path id="svg_25" d="m312.09705,167.12523c-3.20627,-4.55795 -6.41257,-9.11591 -9.87726,-14.26659c-12.55554,-18.89935 -27.67124,-34.53074 -45.16474,-47.90524c-4.17682,-3.1283 -8.35365,-6.2566 -13.47267,-10.09057c4.77425,-1.01673 8.70706,-1.85426 13.03127,-2.79629c26.48581,-0.79962 55.17852,19.95288 64.27881,49.14931c1.22244,6.76878 2.18734,13.24089 2.74792,20.19284c-4.11737,2.22544 -7.83035,3.97099 -11.54333,5.71654z" fill="#6DC72C"/>
  <path id="svg_26" d="m277.55591,173.24274c10.45486,0.27089 20.90973,0.54177 31.83825,1.22821c1.5177,3.43681 2.5618,6.45807 3.28019,9.63241c-3.11093,1.42453 -5.89618,2.69602 -8.68143,3.96747c-5.9415,2.42433 -12.40622,4.0352 -17.71191,7.448c-10.02375,6.44766 -19.38102,13.93141 -29.17157,21.29315c-8.13566,9.96695 -16.11495,19.62531 -23.59067,28.6741c1.11685,-17.32214 4.00821,-35.5361 13.02115,-52.14866c2.56326,-4.7246 6.70626,-8.59214 10.62957,-13.24361c7.13199,-2.54429 13.75922,-4.69768 20.38642,-6.85107z" fill="#6DC72C"/>
  <path id="svg_27" d="m257.03882,105.42424c17.50973,12.90366 32.62543,28.53505 44.95135,47.19325c-8.89489,-4.64744 -17.75903,-9.9169 -28.19287,-11.01486c-5.24682,-0.55214 -10.57083,-0.37061 -16.32385,-0.58066c-0.45956,-11.74885 -0.45523,-23.43787 -0.43463,-35.59773z" fill="#2689FC"/>
  <path id="svg_28" d="m277.17554,173.24657c-6.24683,2.14956 -12.87406,4.30295 -19.82993,6.55781c-0.33527,-2.8945 -0.34183,-5.89049 -0.34244,-9.33743c6.60132,0.62717 13.19663,1.70531 20.17237,2.77962z" fill="#2A8DF2"/>
  <path id="svg_29" d="m313.00003,183.95029c-1.04407,-3.02127 -2.08817,-6.04253 -3.19037,-9.44916c0.66641,-2.48235 1.39096,-4.57935 2.20145,-7.02612c3.79892,-2.09533 7.5119,-3.84088 11.6365,-5.63446c3.10987,1.23593 5.80814,2.51988 8.7789,3.9635c2.16773,2.6418 4.06293,5.12393 6.34772,8.1351c3.05298,4.44952 5.71631,8.37002 8.37967,12.29052c13.60135,22.35976 22.87921,46.39777 27.64157,72.12372c6.24906,33.75718 5.5025,67.46125 -1.47937,101.383c-6.6152,-2.52881 -12.97186,-5.42209 -19.3912,-8.16867c-1.97318,-0.84421 -4.11795,-1.28742 -6.4541,-2.1138c0.51486,-1.42111 1.80618,-2.56339 2.01147,-3.87561c8.46353,-54.09973 2.31009,-105.45413 -28.89594,-152.01645c-1.37469,-2.05118 -3.1026,-3.86562 -5.02639,-6.28601c-1.09357,-1.43898 -1.82673,-2.38228 -2.55991,-3.32556z" fill="#CA7402"/>
  <path id="svg_30" d="m347.57684,186.34293c-3.0863,-4.03376 -5.74963,-7.95426 -8.55597,-12.20853c2.33005,-1.27718 4.80311,-2.22061 7.62842,-3.28323c21.39102,-1.19776 38.75308,5.20333 49.55585,24.47337c5.84772,10.43118 7.88174,21.69359 6.36404,34.76096c-14.25769,-20.44292 -32.43945,-34.57074 -54.99234,-43.74257z" fill="#B0F90C"/>
  <path id="svg_31" d="m312.67435,184.10336c1.05886,0.79021 1.79202,1.73351 2.61441,2.95658c-9.76404,29.62176 -12.19367,59.81631 -10.23685,90.50732c0.29648,4.64981 0.75241,9.28946 0.99283,14.35303c-0.14182,0.41919 -0.06317,0.49533 -0.06317,0.49533c-9.52948,-12.03452 -17.69998,-24.80753 -23.34247,-39.22855c-5.36029,-13.69969 -4.85285,-26.79249 3.00955,-39.09941c5.60239,-8.76936 12.19751,-16.90452 18.34696,-25.66975c2.78256,-1.61853 5.56781,-2.89002 8.67874,-4.31455z" fill="#B0F80D"/>
  <path id="svg_32" d="m305.85364,292.36328c-0.04929,0.02381 0.20562,-0.22412 0.20562,-0.22412c0,0 -0.2937,0.10715 -0.18569,0.1918c0.108,0.08466 0.02935,0.00852 -0.01993,0.03232z" fill="#B0F80D"/>
 </g>
</svg>