<svg version="1.1" id="Layer_1" xmlns="http://www.w3.org/2000/svg" xmlns:xlink="http://www.w3.org/1999/xlink" x="0px" y="0px"
	 width="100%" viewBox="0 0 512 512" enable-background="new 0 0 512 512" xml:space="preserve">
<path fill="#F16062" opacity="1.000000" stroke="none" 
	d="
M289.000000,513.000000 
	C267.979095,513.000000 246.958206,513.000000 225.747498,512.631226 
	C224.711700,511.844940 223.903091,511.185883 223.013809,511.048370 
	C215.922760,509.951996 208.681671,509.509979 201.739075,507.826263 
	C177.205566,501.876282 153.637039,493.356689 131.515289,480.940247 
	C103.521713,465.228119 79.459587,444.787659 58.985744,420.277100 
	C43.938480,402.263092 31.553949,382.409088 22.253757,360.715424 
	C12.666961,338.353210 5.522450,315.357758 2.917665,291.068695 
	C2.837289,290.319183 1.663850,289.686920 1.000004,289.000000 
	C1.000000,267.645782 1.000000,246.291550 1.358825,224.766449 
	C2.141615,223.750534 2.762528,222.948944 2.960047,222.053909 
	C5.998686,208.285202 8.308548,194.313812 12.138763,180.771622 
	C17.681358,161.175110 26.296659,142.844711 36.815392,125.304878 
	C51.243549,101.246124 69.209320,80.374207 90.367508,62.084965 
	C109.609802,45.451820 130.805801,32.024376 154.172211,21.922220 
	C176.233215,12.384438 199.003433,5.616691 222.936661,2.918020 
	C223.686981,2.833416 224.314972,1.663790 225.000000,0.999997 
	C246.020889,1.000000 267.041779,1.000000 288.255981,1.370986 
	C289.295593,2.158170 290.099976,2.769473 290.994385,2.961357 
	C304.787537,5.920528 318.758453,8.211894 332.353394,11.894153 
	C350.277283,16.748924 367.134735,24.397247 383.316528,33.623306 
	C399.543701,42.875210 414.966766,53.311684 428.386200,66.197983 
	C440.026245,77.375557 451.040466,89.359367 461.162140,101.928368 
	C477.380859,122.068657 489.374115,144.756485 498.079315,169.153625 
	C504.321289,186.647293 509.231415,204.440948 511.085297,222.993546 
	C511.157806,223.718903 512.336670,224.333694 513.000000,225.000000 
	C513.000000,246.020889 513.000000,267.041779 512.641479,288.232605 
	C511.858917,289.247711 511.186768,290.054749 511.050140,290.944092 
	C509.961182,298.030884 509.569489,305.281464 507.848114,312.204346 
	C501.638092,337.179413 493.237152,361.309479 480.149963,383.705994 
	C470.895081,399.544067 460.816162,414.822388 448.173309,428.010864 
	C436.659210,440.021881 424.365570,451.461182 411.356567,461.822937 
	C391.154480,477.914001 368.389740,489.841278 344.005951,498.454620 
	C326.806732,504.530060 309.246033,509.247009 291.009491,511.085175 
	C290.282715,511.158417 289.667297,512.336670 289.000000,513.000000 
M354.608795,188.122681 
	C302.501434,201.242432 250.426620,214.494186 198.257355,227.363098 
	C188.603073,229.744568 178.594391,230.784454 168.702301,232.086517 
	C149.714813,234.585785 134.014023,227.820969 121.080124,214.208572 
	C115.348587,208.176346 110.420624,201.352814 104.466225,195.569763 
	C100.409958,191.630249 95.573608,187.003662 90.435448,185.993439 
	C81.112480,184.160416 71.282936,184.224350 61.705929,184.585678 
	C54.498333,184.857620 52.348240,187.595200 53.829479,194.676407 
	C55.583195,203.060181 57.956772,211.532684 61.561306,219.267929 
	C70.579033,238.619766 82.935081,255.664902 100.207878,269.278717 
	C97.044533,272.190643 94.052605,274.782715 91.243896,277.560059 
	C82.129356,286.572876 72.937149,295.515106 64.080132,304.776428 
	C60.550411,308.467285 61.071709,311.221741 65.251740,312.376587 
	C73.614082,314.686981 82.266266,316.608826 90.664810,312.817657 
	C107.951057,305.014618 125.191505,297.094727 142.244904,288.799591 
	C148.222809,285.891815 153.902100,284.612091 160.702698,284.760803 
	C178.669785,285.153625 196.663727,284.313354 214.647125,283.972229 
	C216.319534,283.940521 217.993042,283.968018 220.643112,283.968018 
	C208.303696,296.972687 196.712372,308.930145 185.428925,321.171417 
	C177.871033,329.370819 170.622894,337.867279 163.494354,346.445404 
	C160.512405,350.033691 161.089996,352.964172 165.015991,353.702545 
	C176.730560,355.905609 188.730392,358.879395 199.825470,351.552216 
	C213.577026,342.470703 227.103210,333.046997 240.895279,324.028870 
	C242.799805,322.783569 245.655670,322.766418 248.097946,322.615906 
	C253.839142,322.262146 259.887390,323.233734 265.287201,321.754883 
	C276.717316,318.624512 278.924103,310.990204 271.794434,301.293304 
	C284.146118,292.009460 296.467041,282.670959 308.914124,273.503815 
	C310.279358,272.498352 312.347748,272.367218 314.126587,272.015778 
	C347.962219,265.330872 381.480347,257.473969 413.403229,244.059311 
	C427.689880,238.055756 441.589905,231.313141 453.563782,221.120941 
	C464.678741,211.659882 461.836548,200.929764 450.016541,192.871231 
	C439.970276,200.624115 428.054169,202.408463 415.757751,202.921234 
	C412.089294,203.074203 408.850067,202.310699 408.123169,198.216553 
	C407.390594,194.090652 410.099762,192.446732 413.725739,191.369232 
	C420.529846,189.347351 427.226379,186.963470 435.121338,184.347946 
	C432.349152,183.338333 430.714478,182.395966 428.986542,182.171524 
	C419.618744,180.954712 410.044250,178.211166 400.886292,179.198059 
	C385.593445,180.846024 370.561890,184.918289 354.608795,188.122681 
M219.507767,158.997406 
	C217.193359,158.726852 214.885132,158.312836 212.563385,158.212799 
	C205.769455,157.920135 204.235947,159.820633 206.943604,166.087357 
	C213.208939,180.588181 219.864120,194.920227 226.186234,209.397125 
	C227.590149,212.611954 229.634979,212.245377 232.217758,211.586609 
	C243.818039,208.627869 255.442444,205.763885 267.043884,202.809601 
	C271.124603,201.770462 275.164490,200.571030 280.584839,199.066849 
	C276.704285,195.535812 272.250305,193.378891 271.152832,190.098892 
	C268.692017,182.744354 263.698242,179.539154 256.966919,177.550079 
	C255.462830,177.105621 254.077774,175.884033 252.907486,174.743637 
	C243.804443,165.873047 233.235748,160.108856 219.507767,158.997406 
M148.183060,222.388977 
	C150.675369,222.925888 153.167694,223.462799 155.488113,223.962677 
	C155.375610,208.903381 148.833923,198.621811 135.360794,193.118591 
	C132.919495,192.121399 130.229538,190.041412 127.748199,193.280655 
	C124.462540,197.569870 123.414757,204.790054 125.804390,207.354401 
	C131.904221,213.900101 138.863220,219.203598 148.183060,222.388977 
z"/>
<path fill="#000000" opacity="1.000000" stroke="none" 
	d="
M289.468658,513.000000 
	C289.667297,512.336670 290.282715,511.158417 291.009491,511.085175 
	C309.246033,509.247009 326.806732,504.530060 344.005951,498.454620 
	C368.389740,489.841278 391.154480,477.914001 411.356567,461.822937 
	C424.365570,451.461182 436.659210,440.021881 448.173309,428.010864 
	C460.816162,414.822388 470.895081,399.544067 480.149963,383.705994 
	C493.237152,361.309479 501.638092,337.179413 507.848114,312.204346 
	C509.569489,305.281464 509.961182,298.030884 511.050140,290.944092 
	C511.186768,290.054749 511.858917,289.247711 512.641479,288.701263 
	C513.000000,363.593719 513.000000,438.187408 513.000000,513.000000 
	C438.645905,513.000000 364.291626,513.000000 289.468658,513.000000 
z"/>
<path fill="#000000" opacity="1.000000" stroke="none" 
	d="
M513.000000,224.531342 
	C512.336670,224.333694 511.157806,223.718903 511.085297,222.993546 
	C509.231415,204.440948 504.321289,186.647293 498.079315,169.153625 
	C489.374115,144.756485 477.380859,122.068657 461.162140,101.928368 
	C451.040466,89.359367 440.026245,77.375557 428.386200,66.197983 
	C414.966766,53.311684 399.543701,42.875210 383.316528,33.623306 
	C367.134735,24.397247 350.277283,16.748924 332.353394,11.894153 
	C318.758453,8.211894 304.787537,5.920528 290.994385,2.961357 
	C290.099976,2.769473 289.295593,2.158170 288.724670,1.370986 
	C363.593719,1.000000 438.187408,1.000000 513.000000,1.000000 
	C513.000000,75.354088 513.000000,149.708389 513.000000,224.531342 
z"/>
<path fill="#000000" opacity="1.000000" stroke="none" 
	d="
M1.000004,289.468658 
	C1.663850,289.686920 2.837289,290.319183 2.917665,291.068695 
	C5.522450,315.357758 12.666961,338.353210 22.253757,360.715424 
	C31.553949,382.409088 43.938480,402.263092 58.985744,420.277100 
	C79.459587,444.787659 103.521713,465.228119 131.515289,480.940247 
	C153.637039,493.356689 177.205566,501.876282 201.739075,507.826263 
	C208.681671,509.509979 215.922760,509.951996 223.013809,511.048370 
	C223.903091,511.185883 224.711700,511.844940 225.278839,512.631226 
	C150.406296,513.000000 75.812599,513.000000 1.000000,513.000000 
	C1.000000,438.645905 1.000000,364.291626 1.000004,289.468658 
z"/>
<path fill="#000000" opacity="1.000000" stroke="none" 
	d="
M224.531342,0.999997 
	C224.314972,1.663790 223.686981,2.833416 222.936661,2.918020 
	C199.003433,5.616691 176.233215,12.384438 154.172211,21.922220 
	C130.805801,32.024376 109.609802,45.451820 90.367508,62.084965 
	C69.209320,80.374207 51.243549,101.246124 36.815392,125.304878 
	C26.296659,142.844711 17.681358,161.175110 12.138763,180.771622 
	C8.308548,194.313812 5.998686,208.285202 2.960047,222.053909 
	C2.762528,222.948944 2.141615,223.750534 1.358825,224.297791 
	C1.000000,149.739456 1.000000,75.478920 1.000000,1.000000 
	C75.354088,1.000000 149.708389,1.000000 224.531342,0.999997 
z"/>
<path fill="#FFFEFE" opacity="1.000000" stroke="none" 
	d="
M355.014557,188.046356 
	C370.561890,184.918289 385.593445,180.846024 400.886292,179.198059 
	C410.044250,178.211166 419.618744,180.954712 428.986542,182.171524 
	C430.714478,182.395966 432.349152,183.338333 435.121338,184.347946 
	C427.226379,186.963470 420.529846,189.347351 413.725739,191.369232 
	C410.099762,192.446732 407.390594,194.090652 408.123169,198.216553 
	C408.850067,202.310699 412.089294,203.074203 415.757751,202.921234 
	C428.054169,202.408463 439.970276,200.624115 450.016541,192.871231 
	C461.836548,200.929764 464.678741,211.659882 453.563782,221.120941 
	C441.589905,231.313141 427.689880,238.055756 413.403229,244.059311 
	C381.480347,257.473969 347.962219,265.330872 314.126587,272.015778 
	C312.347748,272.367218 310.279358,272.498352 308.914124,273.503815 
	C296.467041,282.670959 284.146118,292.009460 271.794434,301.293304 
	C278.924103,310.990204 276.717316,318.624512 265.287201,321.754883 
	C259.887390,323.233734 253.839142,322.262146 248.097946,322.615906 
	C245.655670,322.766418 242.799805,322.783569 240.895279,324.028870 
	C227.103210,333.046997 213.577026,342.470703 199.825470,351.552216 
	C188.730392,358.879395 176.730560,355.905609 165.015991,353.702545 
	C161.089996,352.964172 160.512405,350.033691 163.494354,346.445404 
	C170.622894,337.867279 177.871033,329.370819 185.428925,321.171417 
	C196.712372,308.930145 208.303696,296.972687 220.643112,283.968018 
	C217.993042,283.968018 216.319534,283.940521 214.647125,283.972229 
	C196.663727,284.313354 178.669785,285.153625 160.702698,284.760803 
	C153.902100,284.612091 148.222809,285.891815 142.244904,288.799591 
	C125.191505,297.094727 107.951057,305.014618 90.664810,312.817657 
	C82.266266,316.608826 73.614082,314.686981 65.251740,312.376587 
	C61.071709,311.221741 60.550411,308.467285 64.080132,304.776428 
	C72.937149,295.515106 82.129356,286.572876 91.243896,277.560059 
	C94.052605,274.782715 97.044533,272.190643 100.207878,269.278717 
	C82.935081,255.664902 70.579033,238.619766 61.561306,219.267929 
	C57.956772,211.532684 55.583195,203.060181 53.829479,194.676407 
	C52.348240,187.595200 54.498333,184.857620 61.705929,184.585678 
	C71.282936,184.224350 81.112480,184.160416 90.435448,185.993439 
	C95.573608,187.003662 100.409958,191.630249 104.466225,195.569763 
	C110.420624,201.352814 115.348587,208.176346 121.080124,214.208572 
	C134.014023,227.820969 149.714813,234.585785 168.702301,232.086517 
	C178.594391,230.784454 188.603073,229.744568 198.257355,227.363098 
	C250.426620,214.494186 302.501434,201.242432 355.014557,188.046356 
M352.755646,215.366714 
	C350.257294,220.170761 351.626373,224.655701 356.042267,224.807205 
	C358.080231,224.877136 360.987000,223.415878 362.019257,221.737991 
	C362.899445,220.307343 362.332520,217.093964 361.211365,215.520096 
	C359.204132,212.702393 356.139191,212.777023 352.755646,215.366714 
M302.393555,233.017395 
	C300.406891,234.477249 297.880707,235.593277 296.645325,237.531860 
	C295.955353,238.614609 296.860229,241.675781 298.041870,242.734940 
	C299.387360,243.941010 302.204346,244.800903 303.719971,244.184357 
	C305.499268,243.460556 307.923553,240.703400 307.638000,239.335342 
	C307.160004,237.045227 304.756012,235.157120 302.393555,233.017395 
M224.812744,250.830063 
	C222.461487,251.863022 219.607391,252.412354 217.961426,254.123672 
	C217.077942,255.042236 217.616577,258.496399 218.708588,259.821625 
	C219.819336,261.169617 222.584793,262.130341 224.281723,261.745209 
	C225.985153,261.358612 228.468369,259.088745 228.451782,257.669464 
	C228.425858,255.451599 226.581299,253.254990 224.812744,250.830063 
M384.537872,203.829239 
	C380.473633,202.165833 377.626709,203.737381 376.416779,207.600876 
	C375.291107,211.195465 377.283936,214.066803 380.743958,214.547501 
	C382.680786,214.816574 385.572540,213.457077 386.875275,211.876419 
	C389.101318,209.175461 387.826080,206.320679 384.537872,203.829239 
M164.422470,262.255402 
	C163.540359,267.915649 166.417343,271.814728 170.769470,270.353485 
	C172.611725,269.734955 174.959732,267.493835 175.117508,265.806854 
	C175.300354,263.851776 173.829056,261.033203 172.174240,259.778900 
	C169.603256,257.830139 166.832321,259.022675 164.422470,262.255402 
M331.351105,236.123917 
	C333.858826,234.092682 334.933655,231.424133 332.998505,228.753250 
	C331.902985,227.241302 329.491699,225.656372 327.857269,225.830765 
	C325.972961,226.031830 323.670929,227.796280 322.725739,229.524643 
	C322.015930,230.822510 322.541473,234.080124 323.619690,234.789612 
	C325.537994,236.051910 328.291351,236.045227 331.351105,236.123917 
M194.264465,255.452484 
	C190.233719,258.573242 189.221542,262.488678 192.379135,264.782349 
	C194.043045,265.991028 197.499237,266.695160 198.924469,265.761719 
	C200.620590,264.650848 201.975433,261.428436 201.736481,259.318115 
	C201.357330,255.969727 198.439392,254.641541 194.264465,255.452484 
M245.961609,246.588257 
	C242.952026,249.577805 242.775208,252.794266 245.897644,255.613007 
	C248.492142,257.955170 251.807404,257.770752 253.672104,254.906128 
	C254.784698,253.196884 255.069641,250.015762 254.230820,248.179642 
	C252.836334,245.127167 249.744568,244.605469 245.961609,246.588257 
M279.349365,240.783066 
	C276.391357,239.010651 273.323120,239.074051 271.507385,241.973938 
	C270.496948,243.587723 270.175537,246.822800 271.146881,248.178543 
	C272.293549,249.779053 275.247528,251.026581 277.283722,250.852859 
	C281.594391,250.485092 282.689575,245.920609 279.349365,240.783066 
z"/>
<path fill="#FFFDFD" opacity="1.000000" stroke="none" 
	d="
M219.939407,159.039459 
	C233.235748,160.108856 243.804443,165.873047 252.907486,174.743637 
	C254.077774,175.884033 255.462830,177.105621 256.966919,177.550079 
	C263.698242,179.539154 268.692017,182.744354 271.152832,190.098892 
	C272.250305,193.378891 276.704285,195.535812 280.584839,199.066849 
	C275.164490,200.571030 271.124603,201.770462 267.043884,202.809601 
	C255.442444,205.763885 243.818039,208.627869 232.217758,211.586609 
	C229.634979,212.245377 227.590149,212.611954 226.186234,209.397125 
	C219.864120,194.920227 213.208939,180.588181 206.943604,166.087357 
	C204.235947,159.820633 205.769455,157.920135 212.563385,158.212799 
	C214.885132,158.312836 217.193359,158.726852 219.939407,159.039459 
z"/>
<path fill="#FFFCFC" opacity="1.000000" stroke="none" 
	d="
M147.810013,222.262482 
	C138.863220,219.203598 131.904221,213.900101 125.804390,207.354401 
	C123.414757,204.790054 124.462540,197.569870 127.748199,193.280655 
	C130.229538,190.041412 132.919495,192.121399 135.360794,193.118591 
	C148.833923,198.621811 155.375610,208.903381 155.488113,223.962677 
	C153.167694,223.462799 150.675369,222.925888 147.810013,222.262482 
z"/>
<path fill="#F26769" opacity="1.000000" stroke="none" 
	d="
M353.022736,215.105423 
	C356.139191,212.777023 359.204132,212.702393 361.211365,215.520096 
	C362.332520,217.093964 362.899445,220.307343 362.019257,221.737991 
	C360.987000,223.415878 358.080231,224.877136 356.042267,224.807205 
	C351.626373,224.655701 350.257294,220.170761 353.022736,215.105423 
z"/>
<path fill="#F26A6B" opacity="1.000000" stroke="none" 
	d="
M302.778076,233.058609 
	C304.756012,235.157120 307.160004,237.045227 307.638000,239.335342 
	C307.923553,240.703400 305.499268,243.460556 303.719971,244.184357 
	C302.204346,244.800903 299.387360,243.941010 298.041870,242.734940 
	C296.860229,241.675781 295.955353,238.614609 296.645325,237.531860 
	C297.880707,235.593277 300.406891,234.477249 302.778076,233.058609 
z"/>
<path fill="#F26769" opacity="1.000000" stroke="none" 
	d="
M225.159973,250.939713 
	C226.581299,253.254990 228.425858,255.451599 228.451782,257.669464 
	C228.468369,259.088745 225.985153,261.358612 224.281723,261.745209 
	C222.584793,262.130341 219.819336,261.169617 218.708588,259.821625 
	C217.616577,258.496399 217.077942,255.042236 217.961426,254.123672 
	C219.607391,252.412354 222.461487,251.863022 225.159973,250.939713 
z"/>
<path fill="#F2696B" opacity="1.000000" stroke="none" 
	d="
M384.878296,204.002838 
	C387.826080,206.320679 389.101318,209.175461 386.875275,211.876419 
	C385.572540,213.457077 382.680786,214.816574 380.743958,214.547501 
	C377.283936,214.066803 375.291107,211.195465 376.416779,207.600876 
	C377.626709,203.737381 380.473633,202.165833 384.878296,204.002838 
z"/>
<path fill="#F2686A" opacity="1.000000" stroke="none" 
	d="
M164.639038,261.918304 
	C166.832321,259.022675 169.603256,257.830139 172.174240,259.778900 
	C173.829056,261.033203 175.300354,263.851776 175.117508,265.806854 
	C174.959732,267.493835 172.611725,269.734955 170.769470,270.353485 
	C166.417343,271.814728 163.540359,267.915649 164.639038,261.918304 
z"/>
<path fill="#F16567" opacity="1.000000" stroke="none" 
	d="
M331.023254,236.346619 
	C328.291351,236.045227 325.537994,236.051910 323.619690,234.789612 
	C322.541473,234.080124 322.015930,230.822510 322.725739,229.524643 
	C323.670929,227.796280 325.972961,226.031830 327.857269,225.830765 
	C329.491699,225.656372 331.902985,227.241302 332.998505,228.753250 
	C334.933655,231.424133 333.858826,234.092682 331.023254,236.346619 
z"/>
<path fill="#F16567" opacity="1.000000" stroke="none" 
	d="
M194.626556,255.318970 
	C198.439392,254.641541 201.357330,255.969727 201.736481,259.318115 
	C201.975433,261.428436 200.620590,264.650848 198.924469,265.761719 
	C197.499237,266.695160 194.043045,265.991028 192.379135,264.782349 
	C189.221542,262.488678 190.233719,258.573242 194.626556,255.318970 
z"/>
<path fill="#F16567" opacity="1.000000" stroke="none" 
	d="
M246.275299,246.363892 
	C249.744568,244.605469 252.836334,245.127167 254.230820,248.179642 
	C255.069641,250.015762 254.784698,253.196884 253.672104,254.906128 
	C251.807404,257.770752 248.492142,257.955170 245.897644,255.613007 
	C242.775208,252.794266 242.952026,249.577805 246.275299,246.363892 
z"/>
<path fill="#F16567" opacity="1.000000" stroke="none" 
	d="
M279.656006,241.029129 
	C282.689575,245.920609 281.594391,250.485092 277.283722,250.852859 
	C275.247528,251.026581 272.293549,249.779053 271.146881,248.178543 
	C270.175537,246.822800 270.496948,243.587723 271.507385,241.973938 
	C273.323120,239.074051 276.391357,239.010651 279.656006,241.029129 
z"/>
</svg>