<svg width="512" height="512" xmlns="http://www.w3.org/2000/svg" xml:space="preserve" enable-background="new 0 0 512 512" version="1.1">

 <g>
  <title>Layer 1</title>
  <path id="svg_1" d="m289,513c-21.02091,0 -42.04179,0 -63.2525,-0.36877c-1.0358,-0.78629 -1.84441,-1.44535 -2.73369,-1.58286c-7.09105,-1.09637 -14.33214,-1.53839 -21.27473,-3.22211c-24.53351,-5.94998 -48.10204,-14.46957 -70.22379,-26.88601c-27.99358,-15.71213 -52.0557,-36.15259 -72.52955,-60.66315c-15.04726,-18.01401 -27.43179,-37.86801 -36.73198,-59.56168c-9.5868,-22.36221 -16.73131,-45.35766 -19.3361,-69.64673c-0.08037,-0.74951 -1.25381,-1.38177 -1.91766,-2.06869c0,-21.35422 0,-42.70845 0.35882,-64.23355c0.78279,-1.01592 1.40371,-1.81751 1.60123,-2.71254c3.03864,-13.76871 5.3485,-27.7401 9.17871,-41.28229c5.5426,-19.59651 14.1579,-37.92691 24.67663,-55.46674c14.42816,-24.05876 32.39393,-44.93067 53.55212,-63.21992c19.24229,-16.63314 40.43829,-30.06058 63.8047,-40.16274c22.06101,-9.53778 44.83122,-16.30553 68.76445,-19.0042c0.75032,-0.0846 1.37831,-1.25423 2.06334,-1.91802c21.02089,0 42.04178,0 63.25598,0.37099c1.03961,0.78718 1.844,1.39848 2.73841,1.59037c13.79315,2.95917 27.76406,5.25053 41.359,8.93279c17.92389,4.85477 34.78134,12.5031 50.96314,21.72916c16.22717,9.2519 31.65024,19.68837 45.06967,32.57467c11.64005,11.17758 22.65427,23.16139 32.77594,35.73039c16.21872,20.14029 28.21198,42.82811 36.91718,67.22526c6.24197,17.49366 11.1521,35.28732 13.00598,53.83992c0.07251,0.72535 1.25137,1.34014 1.9147,2.00645c0,21.02089 0,42.04178 -0.35852,63.2326c-0.78256,1.01511 -1.45471,1.82215 -1.59134,2.71149c-1.08896,7.08679 -1.48065,14.33737 -3.20203,21.26026c-6.21002,24.97506 -14.61096,49.10513 -27.69815,71.50164c-9.25488,15.83808 -19.3338,31.1164 -31.97665,44.30487c-11.5141,12.01102 -23.80774,23.45032 -36.81674,33.81208c-20.20209,16.09106 -42.96683,28.01834 -67.35062,36.63168c-17.19922,6.07544 -34.75992,10.79239 -52.99646,12.63055c-0.72678,0.07325 -1.34219,1.2515 -2.00949,1.91483m65.60879,-324.87732c-52.10736,13.11975 -104.18217,26.37151 -156.35144,39.24042c-9.65428,2.38147 -19.66296,3.42135 -29.55505,4.72342c-18.98749,2.49926 -34.68828,-4.26555 -47.62218,-17.87795c-5.73153,-6.03222 -10.6595,-12.85576 -16.6139,-18.63881c-4.05626,-3.93951 -8.89261,-8.5661 -14.03077,-9.57632c-9.32297,-1.83302 -19.15251,-1.76909 -28.72952,-1.40776c-7.2076,0.27194 -9.35769,3.00952 -7.87645,10.09073c1.75372,8.38377 4.12729,16.85627 7.73183,24.59152c9.01772,19.35184 21.37377,36.39697 38.64657,50.01079c-3.16335,2.91192 -6.15528,5.50399 -8.96398,8.28134c-9.11454,9.01282 -18.30675,17.95505 -27.16377,27.21637c-3.52972,3.69086 -3.00842,6.44531 1.17161,7.60016c8.36234,2.31039 17.01453,4.23224 25.41307,0.44107c17.28625,-7.80304 34.5267,-15.72293 51.58009,-24.01807c5.97791,-2.90777 11.6572,-4.1875 18.4578,-4.03879c17.96708,0.39282 35.96103,-0.44745 53.94442,-0.78857c1.67241,-0.03171 3.34592,-0.00421 5.99599,-0.00421c-12.33941,13.00467 -23.93074,24.96212 -35.21419,37.2034c-7.55789,8.1994 -14.80603,16.69586 -21.93457,25.27398c-2.98194,3.58829 -2.40435,6.51877 1.52164,7.25714c11.71457,2.20307 23.7144,5.17685 34.80948,-2.15032c13.75156,-9.08152 27.27774,-18.50522 41.06981,-27.52335c1.90452,-1.2453 4.76039,-1.26245 7.20267,-1.41296c5.74119,-0.35376 11.78944,0.61782 17.18925,-0.86103c11.43012,-3.13037 13.6369,-10.76468 6.50723,-20.46158c12.35169,-9.28384 24.67261,-18.62234 37.11969,-27.78949c1.36524,-1.00546 3.43363,-1.13659 5.21247,-1.48803c33.83563,-6.68491 67.35376,-14.54181 99.27664,-27.95647c14.28665,-6.00355 28.18667,-12.74617 40.16055,-22.93837c11.11496,-9.46106 8.27277,-20.19118 -3.54724,-28.24971c-10.04626,7.75288 -21.96237,9.53723 -34.25879,10.05c-3.66846,0.15297 -6.90768,-0.61053 -7.63458,-4.70468c-0.73258,-4.1259 1.97659,-5.76982 5.60257,-6.84732c6.80411,-2.02188 13.50064,-4.40576 21.3956,-7.02128c-2.77219,-1.00962 -4.40686,-1.95198 -6.1348,-2.17643c-9.3678,-1.21681 -18.94229,-3.96035 -28.10025,-2.97346c-15.29285,1.64796 -30.3244,5.72023 -46.2775,8.92462m-135.10102,-29.12527c-2.31441,-0.27056 -4.62264,-0.68457 -6.94438,-0.78461c-6.79394,-0.29267 -8.32744,1.60783 -5.61979,7.87456c6.26534,14.50082 12.92052,28.83287 19.24263,43.30976c1.40392,3.21483 3.44875,2.84826 6.03153,2.18949c11.60028,-2.95874 23.22468,-5.82273 34.82612,-8.77701c4.08072,-1.03914 8.12061,-2.23857 13.54096,-3.74275c-3.88055,-3.53104 -8.33453,-5.68796 -9.43201,-8.96796c-2.46081,-7.35454 -7.45459,-10.55974 -14.18591,-12.54881c-1.50409,-0.44446 -2.88915,-1.66605 -4.05943,-2.80644c-9.10305,-8.87059 -19.67174,-14.63478 -33.39972,-15.74623m-71.32471,63.39157c2.49231,0.53691 4.98463,1.07382 7.30505,1.5737c-0.1125,-15.0593 -6.65419,-25.34087 -20.12732,-30.84409c-2.44129,-0.99719 -5.13125,-3.07718 -7.61259,0.16206c-3.28566,4.28922 -4.33344,11.5094 -1.94381,14.07375c6.09983,6.5457 13.05883,11.8492 22.37867,15.03458z" fill="#F16062"/>
  <path id="svg_6" d="m355.01456,188.04636c15.54733,-3.12807 30.57888,-7.20034 45.87173,-8.8483c9.15796,-0.98689 18.73245,1.75665 28.10025,2.97346c1.72794,0.22445 3.36261,1.16681 6.1348,2.17643c-7.89496,2.61552 -14.59149,4.9994 -21.3956,7.02128c-3.62598,1.0775 -6.33515,2.72142 -5.60257,6.84732c0.7269,4.09415 3.96612,4.85765 7.63458,4.70468c12.29642,-0.51277 24.21253,-2.29712 34.25879,-10.05c11.82001,8.05853 14.6622,18.78865 3.54724,28.24971c-11.97388,10.1922 -25.8739,16.93482 -40.16055,22.93837c-31.92288,13.41466 -65.44101,21.27156 -99.27664,27.95647c-1.77884,0.35144 -3.84723,0.48257 -5.21247,1.48803c-12.44708,9.16715 -24.768,18.50565 -37.11969,27.78949c7.12967,9.6969 4.92289,17.33121 -6.50723,20.46158c-5.39981,1.47885 -11.44806,0.50727 -17.18925,0.86103c-2.44228,0.15051 -5.29815,0.16766 -7.20267,1.41296c-13.79207,9.01813 -27.31825,18.44183 -41.06981,27.52335c-11.09508,7.32717 -23.09491,4.35339 -34.80948,2.15032c-3.92599,-0.73837 -4.50358,-3.66885 -1.52164,-7.25714c7.12854,-8.57812 14.37668,-17.07458 21.93457,-25.27398c11.28345,-12.24128 22.87478,-24.19873 35.21419,-37.2034c-2.65007,0 -4.32358,-0.0275 -5.99599,0.00421c-17.98339,0.34112 -35.97734,1.18139 -53.94442,0.78857c-6.8006,-0.14871 -12.47989,1.13102 -18.4578,4.03879c-17.05339,8.29514 -34.29384,16.21503 -51.58009,24.01807c-8.39854,3.79117 -17.05073,1.86932 -25.41307,-0.44107c-4.18003,-1.15485 -4.70133,-3.9093 -1.17161,-7.60016c8.85702,-9.26132 18.04923,-18.20355 27.16377,-27.21637c2.8087,-2.77735 5.80063,-5.36942 8.96398,-8.28134c-17.2728,-13.61382 -29.62885,-30.65895 -38.64657,-50.01079c-3.60454,-7.73525 -5.97811,-16.20775 -7.73183,-24.59152c-1.48124,-7.08121 0.66885,-9.81879 7.87645,-10.09073c9.57701,-0.36133 19.40655,-0.42526 28.72952,1.40776c5.13816,1.01022 9.97451,5.63681 14.03077,9.57632c5.9544,5.78305 10.88237,12.60659 16.6139,18.63881c12.9339,13.6124 28.63469,20.37721 47.62218,17.87795c9.89209,-1.30207 19.90077,-2.34195 29.55505,-4.72342c52.16927,-12.86891 104.24408,-26.12067 156.75721,-39.31674m-2.25891,27.32035c-2.49836,4.80405 -1.12928,9.28899 3.28662,9.4405c2.03796,0.06993 4.94473,-1.39133 5.97699,-3.06922c0.88019,-1.43065 0.31326,-4.64403 -0.80789,-6.21789c-2.00724,-2.81771 -5.07218,-2.74308 -8.45572,-0.15339m-50.3621,17.65068c-1.98666,1.45986 -4.51284,2.57589 -5.74822,4.51447c-0.68998,1.08275 0.2149,4.14392 1.39654,5.20308c1.34549,1.20607 4.16248,2.06596 5.6781,1.44942c1.7793,-0.7238 4.20358,-3.48096 3.91803,-4.84902c-0.478,-2.29011 -2.88199,-4.17822 -5.24445,-6.31795m-77.58081,17.81267c-2.35125,1.03296 -5.20535,1.58229 -6.85131,3.29361c-0.88349,0.91857 -0.34485,4.37273 0.74716,5.69795c1.11075,1.348 3.8762,2.30872 5.57313,1.92359c1.70343,-0.3866 4.18665,-2.65646 4.17006,-4.07575c-0.02592,-2.21786 -1.87048,-4.41447 -3.63904,-6.8394m159.72513,-47.00082c-4.06424,-1.66341 -6.91116,-0.09186 -8.12109,3.77164c-1.12567,3.59459 0.86716,6.46592 4.32718,6.94662c1.93683,0.26907 4.82858,-1.09042 6.13131,-2.67108c2.22605,-2.70096 0.95081,-5.55574 -2.3374,-8.04718m-220.1154,58.42616c-0.88211,5.66025 1.99487,9.55933 6.347,8.09808c1.84226,-0.61852 4.19026,-2.85965 4.34804,-4.54663c0.18284,-1.95507 -1.28845,-4.77365 -2.94327,-6.02795c-2.57098,-1.94876 -5.34192,-0.75623 -7.75177,2.4765m166.92864,-26.13148c2.50772,-2.03124 3.58254,-4.69979 1.6474,-7.37067c-1.09552,-1.51195 -3.50681,-3.09688 -5.14124,-2.92248c-1.88431,0.20106 -4.18634,1.96551 -5.13153,3.69387c-0.70981,1.29787 -0.18427,4.55548 0.89395,5.26497c1.9183,1.2623 4.67166,1.25562 7.73142,1.33431m-137.08664,19.32856c-4.03075,3.12076 -5.04293,7.0362 -1.88534,9.32987c1.66392,1.20868 5.12011,1.91281 6.54534,0.97937c1.69612,-1.11087 3.05096,-4.33328 2.81201,-6.44361c-0.37915,-3.34838 -3.29709,-4.67657 -7.47201,-3.86563m51.69714,-8.86422c-3.00958,2.98955 -3.1864,6.20601 -0.06397,9.02475c2.5945,2.34216 5.90976,2.15774 7.77446,-0.70688c1.1126,-1.70925 1.39754,-4.89037 0.55872,-6.72649c-1.39449,-3.05247 -4.48625,-3.57417 -8.26921,-1.59138m33.38775,-5.80519c-2.958,-1.77242 -6.02624,-1.70902 -7.84198,1.19087c-1.01043,1.61378 -1.33184,4.84886 -0.3605,6.2046c1.14667,1.60051 4.10065,2.84804 6.13684,2.67432c4.31067,-0.36777 5.40585,-4.93225 2.06564,-10.06979z" fill="#FFFEFE"/>
  <path id="svg_7" d="m219.93941,159.03946c13.29634,1.0694 23.86503,6.83359 32.96808,15.70418c1.17028,1.14039 2.55534,2.36198 4.05943,2.80644c6.73132,1.98907 11.7251,5.19427 14.18591,12.54881c1.09748,3.28 5.55146,5.43692 9.43201,8.96796c-5.42035,1.50418 -9.46024,2.70361 -13.54096,3.74275c-11.60144,2.95428 -23.22584,5.81827 -34.82612,8.77701c-2.58278,0.65877 -4.62761,1.02534 -6.03153,-2.18949c-6.32211,-14.47689 -12.97729,-28.80894 -19.24263,-43.30976c-2.70765,-6.26673 -1.17415,-8.16723 5.61979,-7.87456c2.32174,0.10004 4.62997,0.51405 7.37602,0.82666z" fill="#FFFDFD"/>
  <path id="svg_8" d="m147.81001,222.26248c-8.94679,-3.05888 -15.90579,-8.36238 -22.00562,-14.90808c-2.38963,-2.56435 -1.34185,-9.78453 1.94381,-14.07375c2.48134,-3.23924 5.1713,-1.15925 7.61259,-0.16206c13.47313,5.50322 20.01482,15.78479 20.12732,30.84409c-2.32042,-0.49988 -4.81274,-1.03679 -7.6781,-1.7002z" fill="#FFFCFC"/>
  <path id="svg_9" d="m353.02274,215.10542c3.11645,-2.3284 6.18139,-2.40303 8.18863,0.41468c1.12115,1.57386 1.68808,4.78724 0.80789,6.21789c-1.03226,1.67789 -3.93903,3.13915 -5.97699,3.06922c-4.4159,-0.15151 -5.78498,-4.63645 -3.01953,-9.70179z" fill="#F26769"/>
  <path id="svg_10" d="m302.77808,233.05861c1.97793,2.09851 4.38192,3.98662 4.85992,6.27673c0.28555,1.36806 -2.13873,4.12522 -3.91803,4.84902c-1.51562,0.61654 -4.33261,-0.24335 -5.6781,-1.44942c-1.18164,-1.05916 -2.08652,-4.12033 -1.39654,-5.20308c1.23538,-1.93858 3.76156,-3.05461 6.13275,-4.47325z" fill="#F26A6B"/>
  <path id="svg_11" d="m225.15997,250.93971c1.42133,2.31528 3.26589,4.51189 3.29181,6.72975c0.01659,1.41929 -2.46663,3.68915 -4.17006,4.07575c-1.69693,0.38513 -4.46238,-0.57559 -5.57313,-1.92359c-1.09201,-1.32522 -1.63065,-4.77938 -0.74716,-5.69795c1.64596,-1.71132 4.50006,-2.26065 7.19854,-3.18396z" fill="#F26769"/>
  <path id="svg_12" d="m384.8783,204.00284c2.94778,2.31784 4.22302,5.17262 1.99697,7.87358c-1.30273,1.58066 -4.19448,2.94015 -6.13131,2.67108c-3.46002,-0.4807 -5.45285,-3.35203 -4.32718,-6.94662c1.20993,-3.8635 4.05685,-5.43505 8.46152,-3.59804z" fill="#F2696B"/>
  <path id="svg_13" d="m164.63904,261.9183c2.19328,-2.89563 4.96422,-4.08816 7.5352,-2.1394c1.65482,1.2543 3.12611,4.07288 2.94327,6.02795c-0.15778,1.68698 -2.50578,3.92811 -4.34804,4.54663c-4.35213,1.46125 -7.22911,-2.43783 -6.13043,-8.43518z" fill="#F2686A"/>
  <path id="svg_14" d="m331.02325,236.34662c-2.7319,-0.30139 -5.48526,-0.29471 -7.40356,-1.55701c-1.07822,-0.70949 -1.60376,-3.9671 -0.89395,-5.26497c0.94519,-1.72836 3.24722,-3.49281 5.13153,-3.69387c1.63443,-0.1744 4.04572,1.41053 5.14124,2.92248c1.93514,2.67088 0.86032,5.33943 -1.97526,7.59337z" fill="#F16567"/>
  <path id="svg_15" d="m194.62656,255.31897c3.81283,-0.67743 6.73077,0.65076 7.10992,3.99914c0.23895,2.11033 -1.11589,5.33274 -2.81201,6.44361c-1.42523,0.93344 -4.88142,0.22931 -6.54534,-0.97937c-3.15759,-2.29367 -2.14541,-6.20911 2.24743,-9.46338z" fill="#F16567"/>
  <path id="svg_16" d="m246.2753,246.36389c3.46927,-1.75842 6.56103,-1.23672 7.95552,1.81575c0.83882,1.83612 0.55388,5.01724 -0.55872,6.72649c-1.8647,2.86462 -5.17996,3.04904 -7.77446,0.70688c-3.12243,-2.81874 -2.94561,-6.0352 0.37766,-9.24912z" fill="#F16567"/>
  <path id="svg_17" d="m279.65601,241.02913c3.03356,4.89148 1.93838,9.45596 -2.37229,9.82373c-2.03619,0.17372 -4.99017,-1.07381 -6.13684,-2.67432c-0.97134,-1.35574 -0.64993,-4.59082 0.3605,-6.2046c1.81574,-2.89989 4.88398,-2.96329 8.14863,-0.94481z" fill="#F16567"/>
 </g>
</svg>